<svg width="105" height="87" viewBox="0 0 105 87" fill="none" xmlns="http://www.w3.org/2000/svg">
<g clip-path="url(#clip0_25_22810)">
<path d="M57.1107 16.178L48.7099 18.7898C50.1522 25.9432 43.3887 26.2746 41.8878 26.8983C40.27 27.1907 53.8751 36.8585 54.9861 36.6246C55.337 36.5466 59.4107 26.3331 59.4107 26.3331C59.4107 26.3331 56.6624 21.2068 57.1107 16.178Z" fill="#D3A590"/>
<path style="mix-blend-mode:multiply" d="M52.7046 16.3729H52.763L56.5249 16.5678C56.5249 16.8797 56.8173 19.3746 56.9732 20.6025C56.0376 22.0059 52.6266 27.522 44.9274 31.4203C42.6859 32.5509 42.6469 27.7559 41.6724 26.7229C43.9529 26.3136 47.6173 24.6958 48.5334 22.8636C49.6054 20.739 48.8452 16.8407 48.8452 16.5873L52.7046 16.3534V16.3729Z" fill="url(#paint0_linear_25_22810)"/>
<path d="M46.332 14.2872C47.0142 19.55 50.4447 22.8245 52.9786 22.8245C55.8244 22.8245 59.9566 19.394 61.0676 12.6694C61.9642 7.15335 60.5608 1.65674 53.6413 1.65674C47.1506 1.65674 45.6303 8.77114 46.332 14.2872Z" fill="#EAC6B5"/>
<path d="M47.4812 23.156C47.6566 25.2806 49.9566 25.7289 51.0092 26.8009C51.4965 30.6213 52.2566 32.9408 53.5041 33.0187C54.0888 36.8391 54.927 63.8738 54.927 63.8738L39.1778 65.4331C39.1778 65.4331 41.7117 53.2119 42.9202 50.795C44.1287 48.378 42.5693 39.6653 41.088 37.8136C41.088 37.8136 42.8812 29.3933 38.4956 27.2102C41.9456 26.3916 47.5007 23.156 47.5007 23.156H47.4812Z" fill="#850000"/>
<path d="M58.6112 22.8245C58.6697 26.255 56.1358 25.8651 55.1222 26.8007C54.2841 27.5804 53.9917 32.2389 52.7638 32.6482C52.179 36.4685 51.6138 63.016 51.6138 63.016L65.9205 65.1211C65.9205 65.1211 64.4392 54.9855 62.7239 51.477C60.7943 47.5007 61.9248 39.8211 63.5426 37.8329C63.5426 37.8329 61.9443 34.344 66.2129 27.9702C65.5697 26.216 58.6112 22.844 58.6112 22.844V22.8245Z" fill="#B80000"/>
<path d="M66.4665 10.1356C65.8623 10.8763 64.6343 10.9542 64.5563 10.7983C65.3165 10.7398 66.0962 9.76526 66.0962 9.76526C66.0962 9.76526 64.4004 9.55085 63.4063 7.95255C62.6072 6.62712 61.808 4.65848 59.9563 3.06017C59.6445 2.74831 59.3131 2.45594 58.9038 2.20255C58.514 1.94916 58.1631 1.79322 57.8317 1.69577C57.8317 1.69577 57.8123 1.69577 57.7928 1.67628C57.7538 1.67628 57.7343 1.67628 57.7148 1.67628C56.214 1.24746 55.6097 2.3 55.5902 2.65085C55.5902 3.0017 55.2979 5.80848 55.2979 5.80848C56.3699 7.81611 57.6758 7.17288 58.5529 8.73221C60.1512 13.6051 59.0402 16.3339 57.8707 17.172C58.1046 17.2695 58.7089 17.4644 59.1377 17.3085C58.6894 17.7763 57.9877 18.2441 56.9156 18.5754C57.7928 19.4525 59.3521 19.1017 59.625 18.7314C59.4106 19.0627 58.0851 19.6864 58.0851 19.6864C58.0851 19.6864 59.8784 20.8949 62.919 18.7314C65.6284 17.1136 67.0123 15.028 66.4275 10.1356H66.4665Z" fill="#873F26"/>
<path d="M57.5589 1.61782C54.9666 -0.799129 49.8013 -0.194891 47.4428 1.38392C47.3844 1.42291 47.3259 1.48138 47.2674 1.52036C44.1683 3.19663 43.1547 5.88646 42.1606 7.52375C41.1666 9.10257 39.6852 8.01104 39.6852 8.01104C39.6852 8.01104 39.6852 9.88223 40.4649 9.9407C40.1335 10.4865 39.2564 10.6034 38.2623 8.94664C37.6776 13.8195 40.3479 17.367 43.1937 19.3941C46.2344 21.5577 47.7742 20.0178 47.7742 20.0178C47.7742 20.0178 46.3513 19.4136 46.1369 19.0822C46.4098 19.4721 47.7352 19.1407 48.6123 18.2636C46.8971 17.7373 46.5072 16.3924 46.4293 15.6907C46.4683 17.0161 48.0081 16.5483 48.3979 16.3924C47.3844 15.6517 46.1564 13.8195 46.9555 10.0966C47.131 9.76528 47.3064 9.47291 47.4623 9.23901C49.275 6.37375 54.4013 10.4475 57.325 6.00341C57.325 6.00341 57.8513 1.87121 57.5784 1.63731L57.5589 1.61782Z" fill="#5B250E"/>
<path d="M47.482 22.9025C42.999 25.222 39.471 26.1381 38.6719 26.8008C38.6719 26.8008 40.5041 40.4253 40.8354 41.7508C41.1668 43.0567 41.1668 53.0364 40.5041 55.5118C39.8414 57.9677 39.8803 65.6279 40.0558 66.622C40.2117 67.5965 46.0202 65.7253 48.4761 64.9067C50.932 64.0881 52.9981 63.9126 52.9981 62.2753C52.9981 60.6381 53.1931 42.3745 53.1931 42.3745C53.1931 42.3745 47.7159 32.4533 46.6439 29.6076C45.2795 26.0211 47.482 22.922 47.482 22.922V22.9025Z" fill="#2B55B2"/>
<path d="M58.9428 22.7467C63.0166 25.3196 66.2911 26.723 66.72 27.1713C66.72 27.1713 64.5369 40.445 64.225 41.7509C63.8937 43.0569 63.6013 51.0679 64.2445 53.5433C64.9072 55.9992 66.0767 64.7509 65.9208 65.745C65.7454 66.7391 59.7615 64.2052 57.3055 63.3865C54.8496 62.5679 52.2962 63.9713 52.2962 62.334C52.2962 60.6967 52.2183 41.6925 52.2183 41.6925C52.2183 41.6925 56.37 34.7925 58.7479 30.0365C59.6055 28.3213 58.9428 22.7467 58.9428 22.7467Z" fill="#4686D3"/>
<path d="M39.7633 26.3916C37.5608 25.7094 35.1633 30.0949 33.526 34.1102C31.6353 38.7492 29.9006 39.1585 29.2379 46.7212C28.9845 49.4695 36.9175 48.8653 37.3853 48.2026C40.1336 44.4602 42.0828 43.1543 42.0828 40.9127C42.0828 39.6068 39.7828 26.3916 39.7828 26.3916H39.7633Z" fill="#2B55B2"/>
<path d="M66.2911 26.7228C67.5386 27.3465 69.4098 27.8923 70.5988 32.7652C71.7683 37.638 76.3878 45.1423 75.0818 46.7211C73.7759 48.2999 66.8369 49.5474 64.9852 49.6838C64.5759 48.0075 63.8742 47.2474 62.7632 44.1092L65.9598 43.3685C65.9598 42.355 64.4005 41.8287 64.4005 39.5872C64.4005 38.2813 66.2911 26.7228 66.2911 26.7228Z" fill="#2B55B2"/>
<path d="M35.397 40.2109C36.0792 40.016 39.7436 39.3533 39.8215 38.8075C39.88 38.2812 39.7826 39.899 38.9639 40.5228C38.1453 41.1465 35.8258 41.2829 35.8258 41.2829L35.397 40.2109Z" fill="#EAC6B5"/>
<path d="M53.7578 52.1592L53.29 52.6075L39.1391 52.9584L38.3984 34.6753L38.8467 33.5448L53.0756 34.5389L53.7578 52.1592Z" fill="white"/>
<path d="M53.2901 52.6075L38.6715 53.4261L37.7554 34.188L52.8028 35.3965L53.2901 52.6075Z" fill="#FF9C00"/>
<path d="M67.2846 51.1068L67.8303 51.789L53.6795 52.1203L52.3541 35.1042L52.1396 34.5L66.0371 32.6288L67.2846 51.1068Z" fill="white"/>
<path d="M67.8299 51.7889L53.2112 52.588L52.1587 35.455L66.8943 33.4863L67.8299 51.7889Z" fill="#FFC400"/>
<path d="M35.3961 40.2111C34.1292 40.5814 34.5385 41.7509 34.2461 42.5306C33.9538 43.2907 35.1427 45.2594 35.3961 45.5712C35.6495 45.9026 38.2224 45.6687 38.9241 45.1619C39.6258 44.6746 41.3605 43.9339 41.1461 43.5051C41.0487 43.3297 39.3139 43.9924 39.3139 43.9924C39.3139 43.9924 41.7699 43.1543 41.2631 42.3551C41.1266 42.1407 40.6394 42.2772 40.1521 42.5306C39.6648 42.7839 38.0665 43.2712 38.0665 43.2712C38.0665 43.2712 41.0097 42.0043 41.0877 41.7119C41.1656 41.439 41.2241 41.1077 40.6199 41.2636C40.0156 41.439 39.3529 41.5755 39.0605 41.7314C38.7682 41.8873 36.936 42.0238 36.936 42.0238L40.3275 41.0687C40.3275 41.0687 40.5614 40.6009 40.0546 40.6009C39.5478 40.6009 38.7097 40.7568 37.7936 40.6399C36.8775 40.5229 35.3766 40.2111 35.3766 40.2111H35.3961Z" fill="#EAC6B5"/>
<path d="M104.533 52.1399H2.43652V86.2501H104.533V52.1399Z" fill="#A54300"/>
<g style="mix-blend-mode:multiply" opacity="0.38">
<path d="M101.259 54.7906H6.08203V82.8974H101.259V54.7906Z" fill="#A54300"/>
</g>
<path d="M99.2903 57.4414H7.875V81.4745H99.2903V57.4414Z" fill="#A54300"/>
<g style="mix-blend-mode:multiply" opacity="0.15">
<path d="M11.2465 57.4609H10.5059V81.533H11.2465V57.4609Z" fill="#A54300"/>
</g>
<g style="mix-blend-mode:multiply" opacity="0.15">
<path d="M18.0682 57.4609H17.0547V81.533H18.0682V57.4609Z" fill="#A54300"/>
</g>
<g style="mix-blend-mode:multiply" opacity="0.15">
<path d="M30.29 57.4609H29.5493V81.533H30.29V57.4609Z" fill="#A54300"/>
</g>
<g style="mix-blend-mode:multiply" opacity="0.15">
<path d="M42.8032 57.4609H42.0625V81.533H42.8032V57.4609Z" fill="#A54300"/>
</g>
<g style="mix-blend-mode:multiply" opacity="0.15">
<path d="M48.6321 57.4609H48.0278V81.533H48.6321V57.4609Z" fill="#A54300"/>
</g>
<g style="mix-blend-mode:multiply" opacity="0.15">
<path d="M59.9951 57.4609H59.2544V81.533H59.9951V57.4609Z" fill="#A54300"/>
</g>
<g style="mix-blend-mode:multiply" opacity="0.15">
<path d="M65.8035 57.4609H65.1992V81.533H65.8035V57.4609Z" fill="#A54300"/>
</g>
<g style="mix-blend-mode:multiply" opacity="0.15">
<path d="M70.7737 57.4609H70.1694V81.533H70.7737V57.4609Z" fill="#A54300"/>
</g>
<g style="mix-blend-mode:multiply" opacity="0.15">
<path d="M55.083 57.4609H54.1084V81.533H55.083V57.4609Z" fill="#A54300"/>
</g>
<g style="mix-blend-mode:multiply" opacity="0.15">
<path d="M37.1117 57.4609H36.0981V81.533H37.1117V57.4609Z" fill="#A54300"/>
</g>
<g style="mix-blend-mode:multiply" opacity="0.15">
<path d="M24.2476 57.4609H23.7993V81.533H24.2476V57.4609Z" fill="#A54300"/>
</g>
<path d="M104.533 50.3079H0V52.6274H104.533V50.3079Z" fill="#E08F46"/>
<g style="mix-blend-mode:multiply" opacity="0.15">
<path d="M80.6955 57.2467H80.0913V81.6306H80.6955V57.2467Z" fill="#A54300"/>
</g>
<g style="mix-blend-mode:multiply" opacity="0.15">
<path d="M91.1228 57.2467H90.5186V81.6306H91.1228V57.2467Z" fill="#A54300"/>
</g>
<g style="mix-blend-mode:multiply" opacity="0.15">
<path d="M95.957 57.2467H95.4697V81.6306H95.957V57.2467Z" fill="#A54300"/>
</g>
<g style="mix-blend-mode:multiply" opacity="0.15">
<path d="M86.3865 57.2467H85.5483V81.6306H86.3865V57.2467Z" fill="#A54300"/>
</g>
<g style="mix-blend-mode:multiply" opacity="0.15">
<path d="M75.6858 57.2468H75.3154V81.6307H75.6858V57.2468Z" fill="#A54300"/>
</g>
</g>
<defs>
<linearGradient id="paint0_linear_25_22810" x1="45.902" y1="35.1627" x2="52.3732" y2="13.4297" gradientUnits="userSpaceOnUse">
<stop offset="0.25" stop-color="white"/>
<stop offset="0.64" stop-color="#C6C0B9"/>
</linearGradient>
<clipPath id="clip0_25_22810">
<rect width="104.533" height="86.25" fill="white"/>
</clipPath>
</defs>
</svg>
