<svg width="134" height="93" viewBox="0 0 134 93" fill="none" xmlns="http://www.w3.org/2000/svg">
<path d="M70.8263 19.8168C70.8263 19.8168 70.2971 19.8168 69.4383 18.7417C68.1436 17.1208 68.1303 17.1807 67.8241 17.2939C67.7475 17.3238 67.9039 18.2558 68.1868 19.1744C68.32 19.6104 68.3866 20.6589 68.3866 20.6589L70.823 19.8168H70.8263Z" fill="#91AFC7"/>
<path d="M69.9174 19.6837C69.0653 19.6937 68.5228 19.5838 68.2632 19.5139C68.3231 19.8567 68.3597 20.2761 68.3763 20.5025L68.4662 20.5357C68.4662 20.5357 71.1722 19.6704 69.9174 19.6837Z" fill="#91AFC7"/>
<path d="M74.664 18.2658C74.664 18.2658 74.2114 18.0361 72.5039 17.1308C70.61 16.1256 70.1207 15.7561 69.1954 15.3867C68.8792 15.2602 67.3715 15.2602 67.3448 15.3301C67.3182 15.4 72.3574 18.6585 72.3774 19.0546C72.3974 19.4507 74.6673 18.2691 74.6673 18.2691L74.664 18.2658Z" fill="#91AFC7"/>
<path d="M76.4708 19.4374C76.4708 19.4374 77.3761 21.2547 77.5425 21.5143C77.7123 21.7739 77.9453 22.4862 77.9652 22.5727C77.9852 22.656 77.8887 23.2517 77.8188 23.2351C77.7489 23.2218 76.2278 21.7473 75.5588 21.2713C74.4771 20.5058 73.5884 19.8434 73.5884 19.8434L76.4708 19.4374Z" fill="#91AFC7"/>
<path d="M68.5626 20.1629C68.5626 20.1629 67.7138 19.9199 67.2745 19.7069C66.8351 19.4905 66.4657 19.2942 66.3592 19.3141C66.2527 19.3341 65.78 19.2342 66.1828 19.5005C66.5855 19.7668 67.9302 20.549 67.9302 20.549C67.9302 20.549 69.6243 21.8204 69.6876 21.8038C69.7508 21.7871 69.9272 21.6074 69.8706 21.4876C69.814 21.3678 68.5626 20.1595 68.5626 20.1595V20.1629Z" fill="#91AFC7"/>
<path d="M68.7395 19.9799C68.7395 19.9799 73.2961 18.5919 73.8952 18.4189C74.4943 18.2458 79.0642 16.9477 79.3172 16.9577C79.5668 16.9677 81.1944 17.0542 81.4407 17.5834C81.687 18.1127 80.4422 18.8849 77.7794 19.5838C75.1167 20.2795 72.8634 21.2613 69.0157 21.1016C67.3316 21.0317 66.4762 20.9585 68.7395 19.9799Z" fill="#91AFC7"/>
<path d="M67.8842 20.386C66.9788 20.8753 67.3616 21.0051 68.3002 21.0683C67.9973 20.8453 67.8941 20.599 67.8842 20.386Z" fill="#91AFC7"/>
<path d="M78.1984 17.4502C78.1984 17.4902 78.1718 17.5234 78.1451 17.5234C78.1152 17.5234 78.0952 17.4868 78.0952 17.4469C78.0952 17.4069 78.1218 17.3737 78.1485 17.3737C78.1784 17.3737 78.1984 17.4103 78.1984 17.4502Z" fill="#91AFC7"/>
<path d="M77.9518 17.5202C77.9518 17.5601 77.9252 17.5934 77.8986 17.5934C77.8686 17.5934 77.8486 17.5568 77.8486 17.5168C77.8486 17.4769 77.8753 17.4436 77.9019 17.4436C77.9318 17.4436 77.9518 17.4802 77.9518 17.5202Z" fill="#91AFC7"/>
<path d="M77.7028 17.5934C77.7028 17.6333 77.6762 17.6666 77.6495 17.6666C77.6196 17.6666 77.5996 17.63 77.5996 17.5901C77.5996 17.5501 77.6262 17.5168 77.6529 17.5168C77.6828 17.5168 77.7028 17.5535 77.7028 17.5934Z" fill="#91AFC7"/>
<path d="M77.4567 17.6632C77.4567 17.7032 77.4301 17.7364 77.4034 17.7364C77.3735 17.7364 77.3535 17.6998 77.3535 17.6599C77.3535 17.62 77.3801 17.5867 77.4068 17.5867C77.4367 17.5867 77.4567 17.6233 77.4567 17.6632Z" fill="#91AFC7"/>
<path d="M77.2096 17.7333C77.2096 17.7732 77.183 17.8065 77.1564 17.8065C77.1264 17.8065 77.1064 17.7699 77.1064 17.73C77.1064 17.69 77.1331 17.6567 77.1597 17.6567C77.1863 17.6567 77.2096 17.6934 77.2096 17.7333Z" fill="#91AFC7"/>
<path d="M76.9601 17.8031C76.9601 17.8431 76.9335 17.8763 76.9069 17.8763C76.8769 17.8763 76.8569 17.8397 76.8569 17.7998C76.8569 17.7598 76.8836 17.7266 76.9102 17.7266C76.9401 17.7266 76.9601 17.7632 76.9601 17.8031Z" fill="#91AFC7"/>
<path d="M76.714 17.8729C76.714 17.9129 76.6874 17.9462 76.6608 17.9462C76.6308 17.9462 76.6108 17.9096 76.6108 17.8696C76.6108 17.8297 76.6375 17.7964 76.6641 17.7964C76.6941 17.7964 76.714 17.833 76.714 17.8729Z" fill="#91AFC7"/>
<path d="M76.4645 17.9429C76.4645 17.9828 76.4379 18.0161 76.4113 18.0161C76.3813 18.0161 76.3613 17.9795 76.3613 17.9396C76.3613 17.8996 76.388 17.8663 76.4146 17.8663C76.4445 17.8663 76.4645 17.9029 76.4645 17.9429Z" fill="#91AFC7"/>
<path d="M76.2184 18.0128C76.2184 18.0528 76.1918 18.0861 76.1652 18.0861C76.1352 18.0861 76.1152 18.0494 76.1152 18.0095C76.1152 17.9696 76.1419 17.9363 76.1685 17.9363C76.1984 17.9363 76.2184 17.9729 76.2184 18.0128Z" fill="#91AFC7"/>
<path d="M75.9684 18.0861C75.9684 18.126 75.9418 18.1593 75.9152 18.1593C75.8885 18.1593 75.8652 18.1227 75.8652 18.0827C75.8652 18.0428 75.8919 18.0095 75.9185 18.0095C75.9484 18.0095 75.9684 18.0461 75.9684 18.0861Z" fill="#91AFC7"/>
<path d="M75.7218 18.1558C75.7218 18.1957 75.6952 18.229 75.6686 18.229C75.6386 18.229 75.6187 18.1924 75.6187 18.1524C75.6187 18.1125 75.6453 18.0792 75.6719 18.0792C75.6985 18.0792 75.7218 18.1158 75.7218 18.1558Z" fill="#91AFC7"/>
<path d="M75.4728 18.2258C75.4728 18.2658 75.4462 18.2991 75.4196 18.2991C75.3896 18.2991 75.3696 18.2625 75.3696 18.2225C75.3696 18.1826 75.3963 18.1493 75.4229 18.1493C75.4528 18.1493 75.4728 18.1859 75.4728 18.2258Z" fill="#91AFC7"/>
<path d="M75.2262 18.2958C75.2262 18.3357 75.1996 18.369 75.173 18.369C75.143 18.369 75.123 18.3324 75.123 18.2925C75.123 18.2525 75.1497 18.2192 75.1763 18.2192C75.2063 18.2192 75.2262 18.2559 75.2262 18.2958Z" fill="#91AFC7"/>
<path d="M74.9762 18.3655C74.9762 18.4054 74.9496 18.4387 74.923 18.4387C74.893 18.4387 74.873 18.4021 74.873 18.3622C74.873 18.3222 74.8997 18.2889 74.9263 18.2889C74.9563 18.2889 74.9762 18.3256 74.9762 18.3655Z" fill="#91AFC7"/>
<path d="M74.7306 18.4354C74.7306 18.4754 74.704 18.5087 74.6774 18.5087C74.6474 18.5087 74.6274 18.4721 74.6274 18.4321C74.6274 18.3922 74.6541 18.3589 74.6807 18.3589C74.7107 18.3589 74.7306 18.3955 74.7306 18.4354Z" fill="#91AFC7"/>
<path d="M74.4806 18.5054C74.4806 18.5453 74.454 18.5786 74.4274 18.5786C74.3974 18.5786 74.3774 18.542 74.3774 18.5021C74.3774 18.4621 74.4041 18.4288 74.4307 18.4288C74.4607 18.4288 74.4806 18.4654 74.4806 18.5054Z" fill="#91AFC7"/>
<path d="M74.2345 18.5786C74.2345 18.6186 74.2079 18.6519 74.1813 18.6519C74.1513 18.6519 74.1313 18.6152 74.1313 18.5753C74.1313 18.5354 74.158 18.5021 74.1846 18.5021C74.2112 18.5021 74.2345 18.5387 74.2345 18.5786Z" fill="#91AFC7"/>
<path d="M73.985 18.6485C73.985 18.6884 73.9584 18.7217 73.9318 18.7217C73.9018 18.7217 73.8818 18.6851 73.8818 18.6451C73.8818 18.6052 73.9085 18.5719 73.9351 18.5719C73.965 18.5719 73.985 18.6085 73.985 18.6485Z" fill="#91AFC7"/>
<path d="M73.7384 18.7184C73.7384 18.7583 73.7118 18.7916 73.6852 18.7916C73.6552 18.7916 73.6353 18.755 73.6353 18.7151C73.6353 18.6751 73.6619 18.6418 73.6885 18.6418C73.7185 18.6418 73.7384 18.6785 73.7384 18.7184Z" fill="#91AFC7"/>
<path d="M73.4919 18.7883C73.4919 18.8283 73.4652 18.8616 73.4386 18.8616C73.4087 18.8616 73.3887 18.825 73.3887 18.785C73.3887 18.7451 73.4153 18.7118 73.4419 18.7118C73.4719 18.7118 73.4919 18.7484 73.4919 18.7883Z" fill="#91AFC7"/>
<path d="M73.2424 18.8582C73.2424 18.8981 73.2157 18.9314 73.1891 18.9314C73.1591 18.9314 73.1392 18.8948 73.1392 18.8548C73.1392 18.8149 73.1658 18.7816 73.1924 18.7816C73.2224 18.7816 73.2424 18.8182 73.2424 18.8582Z" fill="#91AFC7"/>
<path d="M72.9962 18.9281C72.9962 18.9681 72.9696 19.0013 72.943 19.0013C72.913 19.0013 72.8931 18.9647 72.8931 18.9248C72.8931 18.8848 72.9197 18.8516 72.9463 18.8516C72.9763 18.8516 72.9962 18.8882 72.9962 18.9281Z" fill="#91AFC7"/>
<path d="M72.7467 19.0014C72.7467 19.0413 72.7201 19.0746 72.6935 19.0746C72.6635 19.0746 72.6436 19.038 72.6436 18.998C72.6436 18.9581 72.6702 18.9248 72.6968 18.9248C72.7268 18.9248 72.7467 18.9614 72.7467 19.0014Z" fill="#91AFC7"/>
<path d="M72.5006 19.0712C72.5006 19.1111 72.474 19.1444 72.4474 19.1444C72.4174 19.1444 72.3975 19.1078 72.3975 19.0679C72.3975 19.0279 72.4241 18.9946 72.4507 18.9946C72.4807 18.9946 72.5006 19.0312 72.5006 19.0712Z" fill="#91AFC7"/>
<path d="M72.2506 19.141C72.2506 19.1809 72.224 19.2142 72.1974 19.2142C72.1674 19.2142 72.1475 19.1776 72.1475 19.1377C72.1475 19.0977 72.1741 19.0645 72.2007 19.0645C72.2307 19.0645 72.2506 19.1011 72.2506 19.141Z" fill="#91AFC7"/>
<path d="M72.0041 19.2111C72.0041 19.251 71.9774 19.2843 71.9508 19.2843C71.9208 19.2843 71.9009 19.2477 71.9009 19.2077C71.9009 19.1678 71.9275 19.1345 71.9541 19.1345C71.9841 19.1345 72.0041 19.1711 72.0041 19.2111Z" fill="#91AFC7"/>
<path d="M71.755 19.2809C71.755 19.3208 71.7284 19.3541 71.7018 19.3541C71.6718 19.3541 71.6519 19.3175 71.6519 19.2776C71.6519 19.2376 71.6785 19.2043 71.7051 19.2043C71.7351 19.2043 71.755 19.241 71.755 19.2809Z" fill="#91AFC7"/>
<path d="M71.5085 19.3507C71.5085 19.3907 71.4818 19.4239 71.4552 19.4239C71.4252 19.4239 71.4053 19.3873 71.4053 19.3474C71.4053 19.3075 71.4319 19.2742 71.4585 19.2742C71.4885 19.2742 71.5085 19.3108 71.5085 19.3507Z" fill="#91AFC7"/>
<path d="M71.2585 19.4207C71.2585 19.4606 71.2318 19.4939 71.2052 19.4939C71.1752 19.4939 71.1553 19.4573 71.1553 19.4173C71.1553 19.3774 71.1819 19.3441 71.2085 19.3441C71.2352 19.3441 71.2585 19.3807 71.2585 19.4207Z" fill="#91AFC7"/>
<path d="M71.0128 19.4939C71.0128 19.5339 70.9862 19.5671 70.9596 19.5671C70.9296 19.5671 70.9097 19.5305 70.9097 19.4906C70.9097 19.4506 70.9363 19.4174 70.9629 19.4174C70.9929 19.4174 71.0128 19.454 71.0128 19.4939Z" fill="#91AFC7"/>
<path d="M70.7628 19.5639C70.7628 19.6038 70.7362 19.6371 70.7096 19.6371C70.6796 19.6371 70.6597 19.6005 70.6597 19.5605C70.6597 19.5206 70.6863 19.4873 70.7129 19.4873C70.7429 19.4873 70.7628 19.5239 70.7628 19.5639Z" fill="#91AFC7"/>
<path d="M70.5168 19.6337C70.5168 19.6736 70.4901 19.7069 70.4635 19.7069C70.4335 19.7069 70.4136 19.6703 70.4136 19.6304C70.4136 19.5904 70.4402 19.5571 70.4668 19.5571C70.4968 19.5571 70.5168 19.5937 70.5168 19.6337Z" fill="#91AFC7"/>
<path d="M70.2672 19.7036C70.2672 19.7436 70.2406 19.7769 70.214 19.7769C70.184 19.7769 70.1641 19.7402 70.1641 19.7003C70.1641 19.6604 70.1907 19.6271 70.2173 19.6271C70.2473 19.6271 70.2672 19.6637 70.2672 19.7036Z" fill="#91AFC7"/>
<path d="M80.1689 17.0442C80.1323 17.0808 80.0924 17.1241 80.0591 17.1773L80.2887 17.1873C80.2887 17.1873 80.332 17.1374 80.3853 17.0841C80.312 17.0708 80.2388 17.0575 80.1689 17.0475V17.0442Z" fill="#91AFC7"/>
<path d="M80.0427 17.0243C80.0094 17.021 79.9761 17.0143 79.9429 17.011C79.8696 17.0509 79.7831 17.1142 79.7432 17.1974L79.9129 17.204C79.9129 17.204 79.9828 17.0975 80.0427 17.0243Z" fill="#91AFC7"/>
<path d="M72.9965 18.3256C72.9166 18.3822 72.86 18.502 72.8534 18.6418C72.8467 18.8349 72.9399 18.998 73.0631 19.0013C73.9884 19.1311 74.9869 18.6085 74.9869 18.6085L74.9736 17.7831C73.792 17.7199 72.9932 18.3223 72.9932 18.3223L72.9965 18.3256Z" fill="#91AFC7"/>
<path d="M75.176 18.2092C75.1661 18.4356 75.0629 18.6153 74.9397 18.612C74.8199 18.6053 74.73 18.4189 74.74 18.1926C74.75 17.9662 74.8532 17.7865 74.9763 17.7898C75.0962 17.7965 75.186 17.9829 75.176 18.2092Z" fill="#91AFC7"/>
<path d="M67.4341 20.9119C67.6271 21.0384 68.2329 21.0717 69.0151 21.1016C72.8627 21.2614 75.1161 20.2795 77.7788 19.5839C80.4415 18.8882 81.6897 18.116 81.44 17.5835C80.4914 17.9596 78.957 18.2126 75.825 19.0979C71.9541 20.1963 68.0731 20.8121 67.4341 20.9086V20.9119Z" fill="#91AFC7"/>
<path d="M68.8692 18.0428C68.1303 17.1475 68.0737 17.2041 67.8241 17.2973C67.7475 17.3272 67.9039 18.2592 68.1868 19.1778C68.4365 18.5221 68.6828 18.2026 68.8692 18.0428Z" fill="#91AFC7"/>
<path d="M67.4378 20.9151C67.4378 20.9151 67.4578 20.9251 67.4678 20.9318C67.4678 20.9318 67.4744 20.9318 67.4744 20.9351C67.4877 20.9417 67.5044 20.9484 67.521 20.9551C67.5243 20.9551 67.5277 20.9551 67.531 20.9584C67.5443 20.9617 67.5576 20.9684 67.5743 20.9717C67.5809 20.9717 67.5843 20.9717 67.5909 20.975C67.6076 20.9783 67.6275 20.985 67.6475 20.9883C67.6475 20.9883 67.6508 20.9883 67.6542 20.9883C67.6775 20.9917 67.7008 20.9983 67.724 21.0016C67.7307 21.0016 67.734 21.0016 67.7407 21.0016C67.7607 21.005 67.7806 21.0083 67.8006 21.0116C67.8073 21.0116 67.8139 21.0116 67.8206 21.0116C67.8738 21.0183 67.9337 21.0249 67.9936 21.0316C68.0003 21.0316 68.0103 21.0316 68.017 21.0316C68.0436 21.0316 68.0669 21.0349 68.0935 21.0383C68.1002 21.0383 68.1068 21.0383 68.1135 21.0383C68.1468 21.0383 68.18 21.0449 68.2167 21.0449C68.2167 21.0449 68.2233 21.0449 68.2266 21.0449C68.2499 21.0449 68.2732 21.0449 68.2965 21.0482C68.1867 20.965 68.1002 20.8818 68.0402 20.7953C67.7507 20.8419 67.5443 20.8752 67.4312 20.8918C67.4312 20.8918 67.4311 20.8918 67.4378 20.8918V20.9151Z" fill="#91AFC7"/>
<path d="M75.176 18.2125C75.1661 18.4421 75.0595 18.6252 74.9397 18.6219C74.8199 18.6152 74.73 18.4255 74.74 18.1958C74.75 17.9662 74.8565 17.7831 74.9763 17.7864C75.0962 17.7931 75.186 17.9828 75.176 18.2125Z" fill="#91AFC7"/>
<path d="M75.176 18.2125C75.1661 18.4421 75.0595 18.6252 74.9397 18.6219C74.8199 18.6152 74.73 18.4255 74.74 18.1958C74.75 17.9662 74.8565 17.7831 74.9763 17.7864C75.0962 17.7931 75.186 17.9828 75.176 18.2125Z" fill="#91AFC7"/>
<path d="M75.0062 18.1825C75.0129 18.0227 74.9696 17.8796 74.903 17.8097C74.8165 17.8629 74.7466 18.0161 74.7399 18.1958C74.7333 18.3556 74.7765 18.4987 74.8431 18.5686C74.9297 18.5153 74.9995 18.3622 75.0062 18.1825Z" fill="#91AFC7"/>
<path d="M75.6859 20.2495C75.626 20.2928 75.5828 20.3826 75.5761 20.4891C75.5694 20.6356 75.6427 20.7587 75.7359 20.7621C76.4382 20.8586 77.1937 20.4658 77.1937 20.4658L77.1837 19.8401C76.2884 19.7902 75.6826 20.2495 75.6826 20.2495H75.6859Z" fill="#91AFC7"/>
<path d="M77.3396 20.163C77.333 20.3361 77.2531 20.4759 77.1599 20.4725C77.07 20.4692 77.0001 20.3228 77.0068 20.1497C77.0134 19.9766 77.0933 19.8368 77.1865 19.8401C77.2764 19.8435 77.3463 19.9899 77.3396 20.163Z" fill="#91AFC7"/>
<path d="M77.2098 20.1396C77.2165 20.0165 77.1832 19.9099 77.1333 19.8567C77.0667 19.8966 77.0168 20.0131 77.0101 20.1496C77.0035 20.2727 77.0368 20.3793 77.0867 20.4325C77.1532 20.3926 77.2032 20.2761 77.2098 20.1396Z" fill="#91AFC7"/>
<path d="M113.813 71.8758C124.962 60.7272 124.962 42.6517 113.813 31.5031C102.665 20.3545 84.5893 20.3545 73.4407 31.5031C62.2921 42.6517 62.2921 60.7272 73.4407 71.8758C84.5894 83.0244 102.665 83.0244 113.813 71.8758Z" fill="#9DCDF5"/>
<path d="M108.916 38.8924C110.037 39.0555 109.921 37.4944 110.893 37.4245C111.206 36.8787 109.984 36.0765 110.846 35.6505C110.753 37.0917 112.108 36.1531 110.82 35.6671C107.232 33.7899 110.101 33.4071 108.417 30.8909C114.89 30.6146 121.544 45.1564 120.465 52.6187C120.399 61.1095 114.474 70.013 106.37 73.8507C101.53 76.5301 108.127 67.976 109.199 66.1621C110.121 64.9572 109.542 63.5393 109.831 62.2578C110.181 61.5622 111.445 60.3706 110.014 60.141C109.179 58.51 108.02 59.5518 106.719 58.9893C106.063 58.3569 105.151 59.6583 104.725 58.6598C100.934 52.7319 103.973 54.9153 103.154 51.3506C103.064 49.6132 105.88 48.395 106.576 46.9804C106.875 46.3147 107.598 45.0533 108.237 45.0566C109.638 45.6624 111.013 44.9035 112.62 45.3195C113.712 46.4312 112.334 47.2034 115.197 48.9808C116.059 48.5581 116.005 47.9423 117.417 49.3602C119.533 50.3388 118.904 46.8972 117.18 46.6942C116.951 46.2315 116.584 43.855 115.969 45.0166C116.252 45.2862 116.548 46.6908 115.862 46.1683C115.207 44.6605 114.731 42.5636 113.123 41.9112C113.436 43.1594 115.476 44.0215 114.458 45.5059C114.265 46.1816 113.263 45.2796 113.905 45.2962C114.275 45.3129 114.344 45.0632 114.285 44.797C113.589 43.2393 112.607 42.0144 111.056 42.1709C110.73 43.1794 109.651 42.8066 109.961 43.8351C107.601 47.2467 104.872 39.7811 108.699 41.6849C110.204 41.838 108.683 39.6246 108.114 39.1819C108.486 38.9123 108.969 39.4715 108.909 38.889L108.916 38.8924ZM112.584 33.294C112.554 33.5303 112.281 32.4186 111.968 32.5451C111.788 32.8247 112.224 33.3106 112.584 33.294ZM118.818 53.0747C118.761 48.405 118.458 56.1169 118.894 58.104C119.234 56.4531 119.27 54.6557 118.818 53.0747ZM111.455 37.1117C111.292 36.9952 111.329 37.0218 111.482 37.0917C111.442 37.7307 111.921 37.085 112.068 37.3313C112.301 37.7274 112.604 37.4145 112.893 37.4179C113.809 37.4212 113 36.9586 113.11 36.7622C113.855 36.0898 112.527 35.96 113.133 35.4774C113.359 35.3376 113.243 35.0813 113.06 35.0447C111.625 35.281 111.525 33.2773 110.83 32.4386C109.795 33.5403 113.639 36.0033 111.455 37.115V37.1117ZM120.326 51.4072C120.279 51.5104 120.189 51.5836 120.276 51.6868C120.386 51.5969 120.425 51.5304 120.326 51.4072ZM77.4756 52.1561C78.6871 51.0777 80.2116 49.8295 79.6557 51.9897C80.1949 50.209 81.3932 51.8599 82.3184 52.2326C83.5999 51.3839 84.1624 53.3011 84.7981 54.0433C85.5703 54.6957 86.7552 54.5459 87.3543 55.4745C87.9168 56.037 88.1598 58.52 88.4993 58.317C88.7989 57.6646 89.358 58.5866 89.8174 58.5533C90.2567 58.6132 89.7242 59.3788 90.4032 59.2623C90.7094 59.2123 91.0522 59.4254 91.385 59.5052C93.7083 60.0877 94.4938 62.2445 91.8677 63.496C90.8891 65.0271 90.8325 67.54 88.2663 67.2205C86.7719 67.6732 86.449 71.4409 84.4486 70.2926C85.8266 72.2131 82.9109 71.2712 83.2903 72.8655C83.3336 74.0471 83.5633 75.5815 84.7282 76.2838C81.9923 76.3603 80.3247 70.6088 80.2182 67.6665C80.4745 63.1532 77.7918 62.4941 76.314 58.5866C75.7781 58.0973 75.888 57.3018 76.3373 56.6827C75.7448 55.1517 77.9882 53.8636 77.4789 52.1594L77.4756 52.1561ZM87.564 57.7512C87.5607 57.608 87.5141 57.5115 87.4109 57.6513C87.391 57.7978 87.4475 57.8643 87.564 57.7512ZM89.6709 25.9215C90.5163 25.1094 91.6779 25.9348 91.9342 26.9167C91.7412 27.2962 91.4982 27.4925 91.9043 27.8221C92.8662 28.2148 91.1487 29.0469 91.0023 28.2714C90.2168 27.832 90.9757 29.2333 90.3832 29.463C89.6676 28.6408 89.6177 30.3217 88.9686 28.9105C88.8255 28.4744 88.6657 28.2847 88.1998 28.4944C87.2911 27.9885 90.8425 28.2248 90.1402 26.8002C89.135 26.3875 87.584 27.4992 86.935 28.095C87.0315 28.5011 87.1147 28.774 86.5289 28.4911C85.121 27.9386 83.0207 28.6941 82.1287 30.1886C81.8658 30.6679 82.4815 30.5081 82.5581 30.7477C82.5614 31.3968 83.4135 31.2903 83.4801 31.6231C82.2053 34.9549 83.8895 32.0392 85.0644 31.5699C86.1827 30.0421 88.3728 27.173 88.4094 30.8909C91.4217 30.1054 88.7589 32.179 90.4331 32.7381C90.5496 33.1442 90.3233 33.1808 89.9205 33.0643C89.3447 33.2241 90.1802 33.3472 90.4165 33.1276C92.5666 34.6952 87.614 34.1693 88.1631 34.8117C87.8137 35.321 86.8251 33.2906 85.1909 35.0946C84.3954 35.5573 85.587 35.0647 85.9631 34.8883C88.04 34.3857 86.4723 35.1912 87.0182 36.1131C89.1783 36.2696 87.8137 36.5591 86.4623 36.9153C85.2175 37.1516 86.8884 36.4593 86.1927 36.3495C84.1824 36.5625 83.0474 38.1501 81.3865 38.7659C80.3347 41.1956 77.7386 40.9793 77.9482 44.524C77.226 43.3192 77.8351 41.382 75.8147 41.7947C75.5518 42.517 75.179 42.1442 74.8229 41.9013C72.9456 41.5584 72.4197 44.8602 72.5928 46.3014C73.3617 48.2851 74.1638 45.0266 75.3321 45.8488C75.2489 46.581 73.7145 48.1953 75.1257 48.1886C76.8732 48.6945 74.3802 51.7933 77.3325 51.7034C77.7718 52.3591 77.0562 51.9298 76.7833 52.0629C75.9479 52.7752 74.8029 51.0477 74.6964 50.2889C74.5133 49.4767 73.6246 49.3203 73.2186 48.6879C72.6428 47.6528 71.095 47.7759 70.5592 46.3513C70.243 44.8136 70.3561 38.22 69.99 42.3839C70.1598 43.4756 69.7304 45.243 69.564 43.1128C69.8103 33.0743 80.2515 26.4408 87.807 25.359C87.5907 26.1978 84.402 26.2777 85.7134 26.8601C87.7271 26.5539 89.9838 24.2307 87.3477 27.1198C88.2763 27.2063 89.2415 25.5354 89.6709 25.9149V25.9215ZM86.1728 28.1882C86.3358 28.0085 86.4623 27.9053 86.226 27.7189C86.0429 27.9053 85.9531 27.8886 86.1728 28.1882ZM100.691 28.531C102.628 26.9101 97.7956 24.2041 95.1894 24.9064C96.8137 25.2891 92.094 24.3073 92.52 25.1061C92.8728 25.7451 94.7101 24.497 94.547 25.2658C94.2009 25.5321 94.3174 25.5987 94.6702 25.6786C96.1114 25.8749 94.1576 26.8768 95.3192 27.2063C95.7087 27.5258 94.9531 28.1216 94.5271 28.0983C93.8148 28.531 94.1543 30.801 95.043 31.0972C96.1913 32.3753 96.7039 30.2085 97.4261 29.6727C97.9454 29.443 101.843 29.0336 100.691 28.5343V28.531ZM109.448 38.1634C109.761 37.8373 106.905 33.6867 106.852 34.9216C106.689 35.7537 108.05 36.0366 108.064 36.892C107.095 37.3779 108.18 37.5077 108.114 37.9771C107.654 38.4097 109.418 38.4064 109.448 38.1601V38.1634ZM114.261 69.0112C112.91 70.0596 111.166 71.4443 110.384 72.769C111.618 71.9568 113.968 69.9698 114.261 69.0112ZM78.9168 46.8573C79.9453 46.9604 76.4571 44.2411 76.1409 45.4527C76.1243 45.6757 76.537 45.8487 76.7034 45.7689C77.6054 45.436 77.8351 47.0902 78.9168 46.8606V46.8573ZM82.4749 48.4549C83.3935 48.2153 80.2748 47.3099 79.9453 47.4231C79.2763 49.0673 81.8025 47.929 82.4749 48.4549ZM101.45 30.2818C101.61 31.1804 103.337 31.9759 103.76 31.0573C103.211 30.3716 102.149 30.2951 101.45 30.2818ZM90.3366 34.9249C88.4793 35.6272 89.5245 35.6505 90.5296 36.4327C91.6047 36.3694 90.6794 35.1379 90.3366 34.9249ZM106.137 36.3195C106.469 36.6224 105.944 37.1283 106.393 37.3114C108.124 37.6908 106.945 34.7119 106.137 36.3195ZM91.8477 25.1627C91.7212 25.3124 91.2885 25.0928 90.9524 25.2925C91.3884 25.6619 92.56 25.5687 91.8477 25.1627ZM77.9083 47.5795C77.875 47.8391 78.2345 47.9556 78.4475 47.9523C78.5107 47.676 78.0947 47.3698 77.9083 47.5795ZM94.8366 27.3195C94.6303 27.3261 94.5304 27.5358 94.7035 27.6523C94.81 27.6457 95.5522 27.4226 94.8366 27.3195ZM89.854 25.0462C90.1203 25.0828 90.3832 25.1194 90.6495 25.1527C90.3599 25.0095 90.1069 24.7533 89.854 25.0462ZM89.4912 27.2462C89.0718 27.3561 89.368 27.6723 89.6543 27.4127C89.5677 27.3228 89.5178 27.2396 89.4912 27.2462ZM90.31 34.8916C90.5063 34.845 90.6628 34.7951 90.6761 34.5621C90.3466 34.4889 90.3865 34.8317 90.31 34.8916ZM86.6021 28.9803C86.4756 29.0702 86.2493 29.1667 86.4424 29.2899C86.662 29.2666 86.712 29.1434 86.6021 28.9803ZM89.8773 25.0828C89.7009 25.0428 89.5278 24.9996 89.3481 25.0495C89.5378 25.2858 89.7208 25.0661 89.8773 25.0828ZM89.7408 25.6952C89.6343 25.632 89.5511 25.4123 89.4246 25.5321C89.5311 25.582 89.6343 25.6586 89.7408 25.6952ZM85.9664 28.8372C85.8765 28.8705 85.8665 28.9038 85.9331 28.977C86.013 28.9471 86.0263 28.9005 85.9664 28.8372ZM106.426 34.5255C106.423 34.602 106.499 34.622 106.533 34.5554C106.536 34.4822 106.459 34.4523 106.426 34.5255ZM91.618 25.1427C91.6846 25.1593 91.891 25.1294 91.8177 25.1893C91.7412 25.0428 91.6813 24.9263 91.618 25.1427ZM108.949 38.8691C108.863 38.7725 108.849 38.7792 108.919 38.8924L108.949 38.8691ZM87.7837 25.3257C87.8469 25.3357 87.9002 25.3457 87.9302 25.2758C87.8802 25.2958 87.8137 25.399 87.7837 25.3257Z" fill="#749FC2"/>
<path d="M76.6996 77.0133C76.7961 72.9693 51.9462 64.362 50.8378 63.9327C50.6614 63.4034 50.8245 60.7307 50.8245 60.7307C41.698 67.3875 26.1876 63.8328 26.1876 63.8328C26.0944 64.159 24.5167 61.3198 24.4268 61.6893C24.4268 61.6893 24.104 64.9611 24.1006 64.9578C24.1006 64.9578 12.1483 69.6742 4.93896 74.5636C3.84059 75.1594 1.62386 77.0599 0.981479 77.8022C-0.0703001 79.017 -0.389828 82.3055 0.585397 83.5969C2.04657 85.5341 3.19487 86.4693 11.7822 87.4479C25.5718 89.0189 37.7438 89.3917 37.7438 89.3917L37.7671 87.7341C37.8636 87.7408 46.8071 85.3776 61.329 86.0533C69.9629 86.456 74.5894 84.8584 76.157 83.0111C77.0424 81.966 77.2654 78.2115 76.6996 77.0067V77.0133ZM31.2201 78.8939C32.7645 78.6875 34.3755 78.5211 35.3008 78.3247C36.2727 78.388 36.8751 78.2182 37.7971 78.2448L37.7638 80.5448C37.2113 80.4016 34.6351 79.7293 31.2201 78.8939Z" fill="#424B87"/>
<path d="M48.318 67.3676C46.9167 67.7936 42.0805 73.5418 41.0387 74.1875C39.9969 74.8332 36.4056 74.7932 34.8945 74.1875C33.3834 73.5817 27.4155 68.4293 27.4155 68.4293C27.4155 68.4293 32.1352 72.3469 33.9026 77.4061L34.2121 78.6908L37.8634 77.8354L41.8342 76.2278C41.8342 76.2278 44.031 71.2585 48.3146 67.3676" fill="#25294D"/>
<path d="M37.8671 77.832C37.8671 77.832 33.1374 78.6076 31.2202 78.8938L37.8271 80.5613L37.8637 77.832H37.8671Z" fill="#EFA97C"/>
<path d="M37.8037 77.8086C51.0774 71.7543 68.079 75.1159 68.079 75.1159C68.079 75.1159 52.289 71.1052 41.7978 75.5853L37.8037 77.8086Z" fill="#25294D"/>
<path d="M31.2204 78.8937C19.0018 75.339 11.8091 77.2029 11.8091 77.2029C11.8091 77.2029 23.0724 74.7265 32.5717 78.6874L31.2204 78.8937Z" fill="#25294D"/>
<path d="M37.887 80.578C37.887 80.578 48.0254 82.1557 49.3534 82.3221L49.2436 87.0351L37.7705 87.7441L37.8903 80.5813L37.887 80.578Z" fill="#EFA97C"/>
<path d="M48.6679 83.3639C48.6679 83.3639 50.0858 79.2133 51.9098 80.1952C53.7338 81.1738 54.8688 83.071 56.25 83.071C57.6313 83.071 59.5285 82.6283 60.9664 82.9977C62.4043 83.3639 63.7856 86.1198 63.7856 86.426C63.7856 86.7322 47.5229 87.0984 47.5229 87.0984L48.6679 83.3672V83.3639Z" fill="#EFA97C"/>
<path d="M57.8177 88.7857L58.9727 87.8571C58.9727 87.8571 72.9819 88.7225 68.8114 85.1212C66.2153 82.8778 63.7622 82.109 56.8658 80.4314C55.7308 80.1552 50.9445 79.353 50.0958 79.7924C49.0573 80.3283 49.0573 82.961 49.1305 84.2924C49.1405 84.4988 49.3901 84.5886 49.5333 84.4388C49.7862 84.1692 50.2256 83.913 50.9645 83.9163C52.5222 83.9263 55.8073 85.6304 56.2866 86.386L54.7655 86.7887C54.669 86.8153 54.6091 86.8952 54.6158 86.9884C54.7489 88.5494 55.5477 89.4481 57.7445 88.8224C57.7711 88.8157 57.7944 88.8024 57.8177 88.7857Z" fill="#25294D"/>
<path d="M59.4749 87.8805C59.1088 87.4777 58.3167 86.8254 58.4531 86.0964" stroke="#424B87" stroke-width="0.27293" stroke-miterlimit="10"/>
<path d="M60.8496 87.8606C60.5267 87.4678 59.7878 86.8454 59.9143 86.1764" stroke="#424B87" stroke-width="0.27293" stroke-miterlimit="10"/>
<path d="M62.4442 87.9337C62.1214 87.541 61.4657 87.0251 61.5922 86.3561" stroke="#424B87" stroke-width="0.27293" stroke-miterlimit="10"/>
<path d="M50.8411 42.0083L50.901 45.9558C52.8748 45.36 60.9994 44.0619 60.9994 44.0619C58.9225 35.4313 58.1004 30.9546 52.8149 28.029C51.9362 27.543 45.9617 25.0766 41.7845 24.7105C38.6525 24.4376 36.246 24.857 32.8377 24.8037C29.3862 24.7505 22.7626 27.3999 20.3628 28.1754C16.8713 29.3037 15.743 32.0264 15.064 35.9339C14.8476 37.1754 12.9638 45.6529 13.1868 45.7361C15.3036 46.5216 19.2278 47.4569 22.7892 47.184L24.4068 58.9466L23.9642 65.3072C34.4087 68.2429 52.4554 64.5916 52.4554 64.5916C52.4554 64.5916 50.9177 43.2797 50.8411 42.0116V42.0083Z" fill="#4F8256"/>
<path d="M49.8125 42.5742L49.5229 39.998L50.841 42.0084L50.8743 45.3069L49.8125 42.5742Z" fill="#3B5745"/>
<path d="M32.5146 25.2265C32.5146 25.2265 33.7428 21.7384 33.6796 19.6182L41.2351 19.9876C41.2351 19.9876 41.3216 24.5009 42.3534 25.2765L41.964 25.7657C39.471 28.8945 34.6348 28.6149 32.518 25.2232L32.5146 25.2265Z" fill="#EFA97C"/>
<path d="M37.0582 23.7853C38.9421 23.7853 39.884 23.6522 41.4051 22.3242C41.2586 21.2091 41.3651 19.1189 41.3651 19.1189L33.5999 19.2653C33.6232 19.9876 33.6266 21.5753 33.3403 22.3375C34.1758 22.8201 35.3673 23.7853 37.0615 23.7887L37.0582 23.7853Z" fill="#CF885F"/>
<path d="M43.1826 13.2409C42.8564 14.3725 43.2558 15.5242 44.0746 15.8104C44.8934 16.0966 45.8187 15.411 46.1449 14.2793C46.471 13.1477 46.0716 11.996 45.2528 11.7098C44.4341 11.4235 43.5088 12.1092 43.1826 13.2409Z" fill="#EFA97C"/>
<path d="M45.5789 12.6151C44.9199 13.0978 44.4473 13.8333 44.5072 14.6887L44.3008 14.6388C44.5338 14.286 44.7735 13.9365 45.0464 13.6103C44.8434 14.1196 44.5771 14.6055 44.3175 15.0815L44.2809 14.7154C44.1411 13.8001 44.7468 12.8581 45.5789 12.6118V12.6151Z" fill="#CF885F"/>
<path d="M32.2124 13.4371C32.5885 14.6254 32.1991 15.8636 31.3403 16.1997C30.4816 16.5359 29.4764 15.8436 29.1003 14.6553C28.7209 13.4671 29.1136 12.2289 29.9724 11.8928C30.8311 11.5566 31.8363 12.2489 32.2124 13.4371Z" fill="#EFA97C"/>
<path d="M29.5893 12.8181C30.2849 13.3373 30.7775 14.1229 30.7043 15.0315L30.924 14.9816C30.681 14.6021 30.4314 14.2294 30.1418 13.8832C30.3515 14.4291 30.6277 14.945 30.9007 15.4509L30.9406 15.0648C31.097 14.0929 30.468 13.0877 29.5859 12.8181H29.5893Z" fill="#CF885F"/>
<path d="M43.2689 6.89361C42.8029 4.50381 37.6072 4.52045 37.6072 4.52045H37.5207C37.5207 4.52045 32.4182 4.45388 31.9256 6.83703C31.433 9.22017 31.3265 15.7139 31.4364 16.6858C31.9889 21.5786 35.4238 22.4007 36.409 22.4473C39.6975 22.6037 42.9028 21.2857 43.4386 18.4898C43.8281 16.4628 43.7349 9.28341 43.2689 6.89361Z" fill="#EFA97C"/>
<path d="M37.9236 13.0577H37.624H37.3245C37.3245 13.0577 36.1595 16.5659 36.5123 16.5692C36.8685 16.5692 37.6041 17.0452 37.6041 17.0452C37.6041 17.0452 38.343 16.5792 38.6991 16.5792C39.0553 16.5792 37.9236 13.0611 37.9236 13.0611V13.0577Z" fill="#CF885F"/>
<path d="M34.1758 16.6158C34.958 17.3781 35.587 17.7775 36.6122 17.844C37.5641 17.834 36.8651 17.9306 36.4924 17.9805C35.5571 18.1103 34.3988 17.6044 34.1758 16.6158Z" fill="#B27552"/>
<path d="M32.7347 10.0256C32.7347 10.0256 33.7732 8.92052 34.9614 9.32659C35.6338 9.55958 35.1478 10.0555 34.6885 10.2818C34.2292 10.5082 32.4252 10.7312 32.7347 10.0222V10.0256Z" fill="#593119"/>
<path d="M42.5068 10.182C42.5068 10.182 41.4783 9.06695 40.2901 9.46303C39.6144 9.68936 40.0937 10.1886 40.553 10.4216C41.0124 10.6546 42.8097 10.8943 42.5068 10.182Z" fill="#593119"/>
<path d="M39.4282 13.324C39.4282 13.324 39.8509 12.7515 40.5532 12.4553C40.5532 12.4553 41.169 12.189 42.1808 13.1109C42.1808 13.1109 41.0159 14.0429 39.4282 13.3273V13.324Z" fill="#F0ECE7"/>
<mask id="mask0_30_23743" style="mask-type:luminance" maskUnits="userSpaceOnUse" x="39" y="12" width="4" height="2">
<path d="M39.4282 13.324C39.4282 13.324 39.8509 12.7515 40.5532 12.4553C40.5532 12.4553 41.169 12.189 42.1808 13.1109C42.1808 13.1109 41.0159 14.0429 39.4282 13.3273V13.324Z" fill="white"/>
</mask>
<g mask="url(#mask0_30_23743)">
<path d="M41.3953 13.1077C41.3953 13.4805 41.0891 13.7834 40.7163 13.7801C40.3435 13.7801 40.0406 13.4739 40.044 13.1011C40.044 12.7283 40.3502 12.4254 40.723 12.4287C41.0957 12.4287 41.3986 12.735 41.3953 13.1077Z" fill="#B0663A"/>
<path d="M40.7197 13.0945C40.9361 13.0945 41.1358 13.1245 41.3122 13.1711C41.3122 13.1511 41.3188 13.1278 41.3188 13.1078C41.3188 12.775 41.0526 12.5054 40.723 12.5054C40.3935 12.5054 40.1206 12.7716 40.1206 13.1045C40.1206 13.1278 40.1239 13.1478 40.1273 13.1677C40.3037 13.1245 40.5067 13.0945 40.723 13.0978L40.7197 13.0945Z" fill="#8B512E"/>
</g>
<path d="M39.4282 13.3241C40.0107 12.0094 41.4186 11.853 42.1808 13.1078C41.9245 12.988 41.6882 12.8615 41.4519 12.7683C40.7163 12.3855 40.044 12.9047 39.4282 13.3241Z" fill="#29160B"/>
<path d="M35.8034 13.3041C35.8034 13.3041 35.3873 12.7283 34.685 12.4221C34.685 12.4221 34.0726 12.1491 33.0508 13.0611C33.0508 13.0611 34.2057 14.0064 35.8034 13.3041Z" fill="#F0ECE7"/>
<mask id="mask1_30_23743" style="mask-type:luminance" maskUnits="userSpaceOnUse" x="33" y="12" width="3" height="2">
<path d="M35.8034 13.3041C35.8034 13.3041 35.3873 12.7283 34.685 12.4221C34.685 12.4221 34.0726 12.1491 33.0508 13.0611C33.0508 13.0611 34.2057 14.0064 35.8034 13.3041Z" fill="white"/>
</mask>
<g mask="url(#mask1_30_23743)">
<path d="M33.8398 13.0711C33.8398 13.4439 34.1394 13.7501 34.5122 13.7501C34.885 13.7501 35.1912 13.4506 35.1912 13.0778C35.1912 12.705 34.8916 12.3988 34.5188 12.3988C34.1461 12.3988 33.8398 12.6984 33.8398 13.0711Z" fill="#B0663A"/>
<path d="M34.5155 13.0644C34.2992 13.0644 34.0995 13.091 33.9197 13.1343C33.9197 13.1143 33.9131 13.091 33.9131 13.071C33.9131 12.7382 34.186 12.4719 34.5155 12.4719C34.8484 12.4719 35.1146 12.7449 35.1113 13.0744C35.1113 13.0977 35.108 13.1176 35.1047 13.1376C34.9283 13.091 34.7285 13.0611 34.5122 13.0611L34.5155 13.0644Z" fill="#8B512E"/>
</g>
<path d="M35.8035 13.3041C35.1944 12.8814 34.5254 12.3522 33.7864 12.7283C33.5468 12.8215 33.3105 12.9413 33.0542 13.0611C33.8297 11.813 35.2376 11.9861 35.8068 13.3041H35.8035Z" fill="#29160B"/>
<path d="M18.7852 51.9969C18.7852 51.9969 26.334 51.1981 32.5082 47.8763L18.7852 51.9969Z" fill="#4E4E4E"/>
<path d="M38.9487 34.9121L41.7978 53.1684L39.7242 52.7258L25.5918 34.2564L25.7882 34.0267L38.9487 34.9121Z" fill="#CC76BB"/>
<path d="M38.9488 34.9122L41.8012 53.1653L39.8874 55.5784L37.0083 36.7196L38.0102 35.8009C38.6326 35.2318 38.586 35.6744 38.9488 34.9122Z" fill="#CC76BB"/>
<path d="M23.4282 35.9307L26.963 53.5979L39.8872 55.5816L37.0048 36.7195L23.4282 35.9307Z" fill="#974F89"/>
<path d="M24.8162 34.8889L27.1328 35.1186L24.6231 35.0986C24.3602 35.3382 23.9774 35.6278 23.7012 35.7543L37.2545 36.43L38.6591 35.255L25.7481 34.4629C25.7481 34.4629 25.5118 34.1566 24.8129 34.8922L24.8162 34.8889Z" fill="#DEDEDE"/>
<path d="M23.4282 35.9307L23.7245 35.5812L37.2545 36.4266L37.0048 36.7195L23.4282 35.9307Z" fill="#CC76BB"/>
<path d="M25.7882 34.0267L25.5918 34.2564L38.6625 35.2516L38.9487 34.9121L25.7882 34.0267Z" fill="#CC76BB"/>
<path d="M37.2549 36.4266L38.6595 35.2516C38.6595 35.2516 37.9705 34.8888 37.2549 36.4266Z" fill="#BDBDBD"/>
<path d="M24.6201 35.0952L24.8165 34.8888L33.6601 35.8707L24.6201 35.0952Z" fill="white"/>
<path d="M36.6225 37.1355L39.4717 55.3885L37.3981 54.9492L23.2656 36.4798L23.462 36.2501L36.6225 37.1355Z" fill="#CC76BB"/>
<path d="M36.6221 37.1356L39.4746 55.3886L37.5607 57.8017L34.6816 38.9429L35.6835 38.0243C36.3059 37.4551 36.2593 37.8978 36.6221 37.1356Z" fill="#CC76BB"/>
<path d="M21.1016 38.1541L24.6363 55.8213L37.5606 57.8017L34.6782 38.9429L21.1016 38.1541Z" fill="#974F89"/>
<path d="M22.4861 37.1089L24.8027 37.3385L22.2931 37.3186C22.0301 37.5582 21.6474 37.8478 21.3711 37.9743L34.9244 38.6499L36.329 37.475L23.4181 36.6828C23.4181 36.6828 23.1818 36.3766 22.4828 37.1122L22.4861 37.1089Z" fill="#DEDEDE"/>
<path d="M21.1016 38.154L21.3978 37.8046L34.9278 38.65L34.6782 38.9429L21.1016 38.154Z" fill="#CC76BB"/>
<path d="M23.462 36.2501L23.2656 36.4798L36.333 37.4716L36.6225 37.1355L23.462 36.2501Z" fill="#CC76BB"/>
<path d="M34.9277 38.6501L36.3323 37.4752C36.3323 37.4752 35.6433 37.1124 34.9277 38.6501Z" fill="#BDBDBD"/>
<path d="M22.293 37.3186L22.486 37.1089L31.3329 38.0908L22.293 37.3186Z" fill="white"/>
<path d="M34.2489 47.2006C34.2489 47.2006 31.0004 49.86 34.5185 51.7106C34.5185 51.7106 39.601 50.8186 40.8325 47.397C40.8325 47.397 36.9117 46.1455 36.1561 45.0704L34.2523 47.1973L34.2489 47.2006Z" fill="#EFA97C"/>
<path d="M33.4168 50.326C33.4168 50.326 32.2119 47.2805 33.5166 45.8792C34.8214 44.4813 35.0876 41.6755 35.537 41.9584C35.9863 42.2413 36.5022 42.624 36.1427 44.0519C35.7866 45.4798 37.5706 46.3552 37.5706 46.3552L33.4134 50.326H33.4168Z" fill="#EFA97C"/>
<path d="M36.6353 45.7662L39.7506 42.4178L39.957 41.4625C39.957 41.4625 40.9689 42.4777 40.8291 43.2366C40.8291 43.2366 41.1453 43.403 41.2385 43.8956C41.345 44.4514 41.1619 44.6878 41.1619 44.6878C41.1619 44.6878 41.7311 44.9274 41.5813 45.7362C41.4315 46.545 40.6859 47.6234 40.6859 47.6234L36.6353 45.7628V45.7662Z" fill="#EFA97C"/>
<path d="M40.8294 43.2397C40.8294 43.2397 39.032 46.1388 38.8257 46.4084L40.9991 43.3829L40.8294 43.2397Z" fill="#CF885F"/>
<path d="M41.3054 44.7809L41.1623 44.691L39.8975 47.2639" fill="#CF885F"/>
<path d="M34.7218 47.9197C33.0476 48.6985 22.7395 50.2129 22.7395 50.2129L22.7861 47.1841C20.2465 47.1708 15.7531 46.5617 13.816 45.9592C13.1936 49.8402 12.9107 59.0699 17.657 59.1531C24.1141 59.2662 35.0579 51.4511 35.0579 51.4511L34.7218 47.9197Z" fill="#EFA97C"/>
<path d="M22.7427 50.2129C22.7427 50.2129 19.5274 50.0398 18.4058 50.7521C18.4058 50.7521 19.0382 49.9865 22.746 49.3641V50.2096L22.7427 50.2129Z" fill="#CF885F"/>
<path d="M38.9324 45.9192C40.5999 46.7147 50.888 48.3357 50.888 48.3357L50.8714 45.3068C53.411 45.3201 57.648 44.6911 59.8348 44.2151C60.4173 48.1027 60.6236 57.2924 55.8806 57.3257C49.4235 57.3723 38.5596 49.444 38.5596 49.444L38.9324 45.9159V45.9192Z" fill="#EFA97C"/>
<path d="M50.8877 48.3357C50.8877 48.3357 54.1063 48.1959 55.218 48.9215C55.218 48.9215 54.5955 48.1493 50.891 47.4902V48.3357H50.8877Z" fill="#CF885F"/>
<path d="M32.9312 48.2357C32.9312 48.2357 34.3557 48.8482 35.2311 49.2675C36.1065 49.6869 37.2947 50.8019 37.2947 50.8019C37.2947 50.8019 38.7126 50.0963 39.0122 49.7735L36.6656 47.1473L32.9312 48.2391V48.2357Z" fill="#CF885F"/>
<path d="M29.5659 44.2583C29.9553 44.235 32.2885 44.9406 33.8862 45.4432C32.6313 44.8441 29.5992 43.3596 29.3628 42.8803C29.0633 42.2745 29.2996 42.1181 29.5925 42.1347C29.9353 42.1547 32.5914 43.5826 34.0493 44.2383C33.2804 43.5759 31.6495 42.2179 31.5363 41.9284C31.29 41.2993 31.5396 41.1628 31.8292 41.2061C32.2785 41.2727 34.3255 42.7904 35.3074 43.536C35.4572 43.6026 36.9117 44.2216 37.3377 43.8722C37.7871 43.5027 37.128 42.6107 36.6754 41.7553C36.2194 40.8999 36.4257 39.9846 36.7619 40.0678C37.0981 40.151 38.7456 43.0301 39.641 43.9487C40.5363 44.8674 40.8658 47.0807 40.8658 47.0807C41.4683 49.2176 38.8089 49.5571 38.8089 49.5571L34.5984 48.4754C33.2804 48.2989 30.8273 47.9328 30.5311 47.6333C30.1251 47.2172 30.2748 47.0275 30.5178 46.9643C30.8107 46.8877 32.5515 47.0508 33.9427 47.1972C33.9893 47.2006 34.0226 47.1606 34.0126 47.114C33.9993 47.0641 33.9893 47.0142 33.9794 46.9676C33.976 46.9443 33.9594 46.9276 33.9394 46.921C32.4949 46.4317 29.7023 45.4398 29.4294 45.0205C29.06 44.4546 29.2763 44.2716 29.5659 44.2549V44.2583Z" fill="#EFA97C"/>
<path d="M68.8147 85.1212C66.2185 82.8778 63.7654 82.109 56.869 80.4314C55.734 80.1552 50.9477 79.353 50.099 79.7924C49.38 80.1652 49.1604 81.5365 49.1138 82.7879L49.2203 82.8379C49.2203 82.8379 51.7332 84.2591 53.3708 81.1304C55.5942 81.3101 58.5498 81.7495 61.6286 82.7913C67.926 84.9181 69.0177 86.9684 69.0177 86.9684L69.1309 87.0084C69.7699 86.5857 69.8098 85.9799 68.8147 85.1212Z" fill="#F0ECE7"/>
<path d="M44.6936 7.64237C44.6936 7.64237 46.5875 5.04288 44.9732 3.17231C43.7583 1.76439 42.6234 1.48813 41.7347 1.72778C41.3552 1.27511 40.7528 0.83909 39.8841 0.489607C36.7853 -0.75522 33.4636 0.589459 32.5083 2.11387C29.5294 2.48998 28.674 4.47705 29.6592 6.62054C29.5427 6.70043 29.4195 6.79362 29.2831 6.91012C26.8201 9.0403 30.5978 11.8062 30.5978 11.8062C30.5978 11.8062 31.3534 12.6949 31.2901 13.7633C31.2901 13.7633 31.8792 10.0688 32.029 8.49444C32.029 8.49444 32.0656 6.1346 35.5971 5.89162C35.6869 5.88497 35.7735 5.88164 35.86 5.87498C36.9917 5.87498 39.4347 5.88497 40.157 5.9948C42.2672 6.30767 43.2757 6.89348 43.3423 8.46781C43.4754 10.0422 43.4854 13.8266 43.4854 13.8266C43.4355 12.7581 44.677 11.6365 44.677 11.6365C44.677 11.6365 46.7539 8.95709 44.697 7.64237H44.6936Z" fill="#593119"/>
<path d="M36.7717 13.4838C36.765 14.7386 35.7432 15.7538 34.485 15.7471C33.2302 15.7405 32.2151 14.7186 32.2217 13.4605C32.2284 12.2057 33.2502 11.1905 34.5083 11.1972C35.7631 11.2038 36.7783 12.2257 36.7717 13.4838Z" stroke="#29160B" stroke-width="0.163092" stroke-miterlimit="10" stroke-linecap="round"/>
<path d="M43.0158 13.5171C43.0091 14.7719 41.9873 15.7871 40.7292 15.7804C39.4744 15.7738 38.4592 14.752 38.4659 13.4938C38.4725 12.239 39.4943 11.2238 40.7525 11.2305C42.0073 11.2372 43.0225 12.259 43.0158 13.5171Z" stroke="#29160B" stroke-width="0.163092" stroke-miterlimit="10" stroke-linecap="round"/>
<path d="M36.7021 13.091C36.7021 13.091 37.4843 12.7182 38.4928 13.1775" stroke="#29160B" stroke-width="0.163092" stroke-miterlimit="10" stroke-linecap="round"/>
<path d="M31.3867 13.1443L32.2255 13.7833" stroke="#29160B" stroke-width="0.163092" stroke-miterlimit="10" stroke-linecap="round"/>
<path d="M43.0161 13.517L43.6751 12.7349" stroke="#29160B" stroke-width="0.163092" stroke-miterlimit="10" stroke-linecap="round"/>
</svg>
