<svg width="109" height="89" viewBox="0 0 109 89" fill="none" xmlns="http://www.w3.org/2000/svg">
<path d="M84.4473 9.268C84.6912 10.833 83.9595 16.6661 84.0408 16.9506C84.1221 17.2352 84.366 18.3124 84.6506 18.1701C84.9351 18.0278 82.801 19.6335 82.2116 19.1863C81.6425 18.7595 79.9759 11.7882 80.1792 11.3411C80.3824 10.894 84.4473 9.24768 84.4473 9.24768V9.268Z" fill="black"/>
<path d="M71.927 21.8083C72.7399 23.922 75.0976 27.6617 72.2522 29.1861C70.4026 30.1616 75.6463 38.7792 76.8048 38.5759C77.9836 38.393 86.6825 26.3406 86.6825 26.3406C86.6825 26.3406 82.577 18.2922 82.1705 16.5849C81.7437 14.898 71.927 21.8286 71.927 21.8286V21.8083Z" fill="#CC9987"/>
<path style="mix-blend-mode:multiply" d="M78.0856 18.1092H78.0653H78.0449L74.2443 18.9832C74.3052 19.288 72.3134 22.2554 72.3744 23.5562C73.5939 24.8163 82.0488 31.4014 83.9187 31.0762C85.4633 30.812 85.5853 28.5966 86.3983 27.3772C85.9308 25.8528 82.1505 16.4833 82.0895 16.1174L78.1059 18.1092H78.0856Z" fill="url(#paint0_linear_25_22682)"/>
<path d="M81.1757 11.2191C80.7286 6.88995 81.2164 2.6015 74.5297 3.21123C73.0257 3.3535 71.8265 3.61772 70.8713 4.00388C70.4648 3.90226 70.0786 3.82096 69.6721 3.75999C68.1681 4.16648 67.3958 5.24367 66.7657 7.31676C65.8511 10.528 66.969 15.2026 68.0259 18.0074C69.1437 20.7918 70.4445 23.5153 72.6598 24.2267C73.3712 24.5519 74.1435 24.6738 74.9768 24.4909C79.6311 23.5763 81.8668 20.5073 82.0497 16.727C82.9033 16.2189 83.4318 14.6742 83.4114 13.3328C83.3708 11.6052 82.5985 10.1825 81.1554 11.2191H81.1757Z" fill="#CC9987"/>
<path d="M72.1717 3.10946L72.2936 2.70297C72.2936 2.70297 73.9196 1.48351 73.5944 1.52415C73.4115 1.54448 72.7001 1.07702 72.4156 1.99162L73.0253 0.426636L69.1637 2.17454C69.1637 2.17454 68.2491 2.17454 67.68 2.72329C67.0703 3.29238 66.6435 3.73952 66.6435 3.73952C66.6435 3.73952 66.8467 4.36957 66.8467 3.45497C65.9931 3.84114 65.6679 5.9752 65.8711 7.49953C65.8508 7.96699 65.8508 8.4751 65.8711 9.04419C65.9728 11.3408 66.806 13.7595 66.806 13.7595L67.2735 13.983C67.2735 13.983 65.7085 8.719 67.5987 6.91012C69.4889 5.10125 74.5293 5.83293 74.5293 5.83293L72.192 3.10946H72.1717Z" fill="#1E1E1E"/>
<path d="M83.5324 4.77624C82.6788 3.51612 81.5 1.6666 80.4228 1.32109C79.7724 0.325191 76.2969 0.772328 72.5979 0C72.5979 0 75.8701 0.731679 76.0327 1.54466H76.0124C75.4839 0.934923 70.0776 -0.0812977 70.3825 0.284542C72.1304 2.37796 71.6223 0.894274 71.3987 1.93082C71.2971 1.93082 71.5816 1.99179 71.48 1.99179C71.48 0.995896 70.2606 0.18292 69.4476 0.0812977C69.9354 1.36174 68.3704 1.48368 67.5371 3.06899C66.4192 4.45105 65.7689 6.86965 67.2322 7.68263C70.6061 9.55248 72.7808 7.31679 74.7929 7.15419C76.6018 6.9916 77.7603 7.92652 78.2074 8.53625C78.8375 9.36956 79.7317 13.597 79.7317 13.597L80.8902 12.6011L81.9471 10.6906L84.4673 11.4223C84.4673 11.4223 85.2397 7.27614 83.5324 4.75591V4.77624Z" fill="black"/>
<path d="M85.8699 25.2226L82.1505 56.0141L75.8296 59.8554L70.2607 30.2834L70.525 28.9623L72.72 27.255C72.72 27.255 75.1996 34.4499 76.8052 34.3686C81.0733 34.1857 85.8902 25.2023 85.8902 25.2023L85.8699 25.2226Z" fill="white"/>
<path d="M85.5859 74.0012C85.5859 74.0012 108.512 78.1474 107.861 75.6068C106.073 68.5949 99.5894 57.3759 99.061 54.8556C98.37 51.5021 98.8781 39.1448 98.8781 39.1448C98.8781 39.1448 99.5488 28.7184 95.0368 27.1941C92.7604 26.4014 90.5044 25.5275 85.7282 22.9869C85.7282 22.9869 85.7891 29.2062 84.9965 31.7468C84.1835 34.328 83.0047 50.303 82.0291 51.8273C81.1755 53.8394 85.6062 74.0012 85.6062 74.0012H85.5859Z" fill="black"/>
<path d="M78.5127 67.2942L75.1998 55.5466C75.1998 55.5466 75.2201 43.6975 72.3747 33.6369L72.1511 27.1128C70.0577 28.2916 67.8627 29.8769 64.2653 32.3158C63.3913 32.9053 65.8302 34.0841 65.8302 34.0841C65.8302 34.0841 67.6594 46.9697 67.6594 48.5144C67.5985 53.7581 73.0454 66.8064 72.1511 72.4159L78.5127 67.2942Z" fill="#1E1E1E"/>
<path d="M95.9108 28.1898C99.9554 27.2549 103.634 44.429 97.7197 55.3636C96.5409 57.5586 94.8336 58.4935 93.167 58.3513C91.5004 58.2293 76.8059 57.7822 76.8059 57.7822C76.8059 57.7822 76.6433 51.8271 76.3791 50.3841C76.1149 48.9411 90.5452 48.2094 90.5452 48.2094C90.5452 48.2094 90.5045 42.986 90.4639 42.295C89.9558 29.8564 94.0613 28.6166 95.9312 28.1898H95.9108Z" fill="#1E1E1E"/>
<path d="M80.8504 54.266C81.2366 53.4734 79.8342 51.7255 79.1635 50.1808C79.1635 50.1808 74.6718 48.189 71.2979 48.1687C70.5053 48.1687 69.9972 48.4329 68.3915 48.9207C67.1924 49.2865 67.1314 50.0385 68.3509 50.0182C69.3874 50.0182 70.5053 49.6727 70.5053 49.6727L72.2735 49.8963C72.2735 49.8963 70.8508 49.8963 70.4646 49.8963C70.0785 49.8963 68.1883 50.506 67.6599 50.5873C66.9282 50.7093 66.5827 51.5426 67.7412 51.6238C68.8793 51.7051 69.55 51.4613 70.1394 51.4409C70.9727 51.4206 72.4158 51.5222 72.4158 51.5222C70.7288 51.6442 68.3102 51.5832 67.7005 51.9897C67.0908 52.3759 67.3753 53.2092 68.6151 52.9653C70.8305 52.4978 72.4361 52.9246 72.4361 52.9246L69.3061 53.0059C69.3061 53.0059 68.2289 53.6563 69.733 53.8189C73.5336 54.1847 76.501 55.0587 77.7408 54.7945C78.7773 54.5912 80.5455 54.7945 80.8301 54.2457L80.8504 54.266Z" fill="#E0B8AA"/>
<path d="M32.8036 16.5035C32.2548 18.6782 33.3524 20.9748 34.1653 22.8853C34.4905 23.6577 33.393 25.4462 34.4499 26.3202C34.8157 26.6047 37.905 29.1859 37.7831 29.633C36.9498 32.4785 31.2589 34.8361 30.6492 34.8158C29.4704 34.7751 20.9951 26.0356 20.9951 26.0356C20.9951 26.0356 23.3731 25.243 24.0031 13.6174C24.1048 11.8898 32.8239 16.5238 32.8239 16.5238L32.8036 16.5035Z" fill="#CC9987"/>
<path style="mix-blend-mode:multiply" d="M28.1094 16.4831H28.1297H28.1704L31.9913 16.8692C31.9913 17.1944 33.6173 21.7877 34.5522 23.6779C33.5157 25.0803 26.6664 31.2183 24.7965 31.137C23.2518 31.076 21.1991 27.8444 20.2642 26.7469C23.7803 24.1047 23.9429 15.4262 23.9632 15.04L28.1094 16.4831Z" fill="url(#paint1_linear_25_22682)"/>
<path d="M43.6364 48.0875C43.677 46.5429 44.9981 33.5149 44.9981 33.5149C44.9981 33.5149 44.9981 29.389 44.0022 29.1452C40.3845 28.2712 36.3196 26.8485 36.3196 26.8485C36.3196 26.8485 33.4945 34.5514 31.8076 34.023C29.1654 33.1694 19.43 25.8323 19.43 25.8323C19.43 25.8323 16.0968 27.5192 11.6254 29.3484C10.9751 29.6126 13.6985 40.3033 13.5563 44.1649C13.5156 45.6892 14.227 52.1524 13.5563 56.5018C13.1701 59.022 27.7021 72.111 27.7021 72.111C27.7021 72.111 44.8355 64.3064 44.8559 62.3349C44.9168 58.9611 43.3722 56.9083 43.6364 48.1078V48.0875Z" fill="#B7F98C"/>
<path d="M21.4624 9.93872C21.1982 11.4834 21.6454 15.7922 22.2145 16.8084C22.3567 17.0726 21.5844 19.4912 21.2999 19.3489C21.0153 19.2067 22.6616 19.1457 23.251 18.7189C23.8201 18.2921 25.8322 12.5199 25.6493 12.0728C25.446 11.646 21.4624 9.95905 21.4624 9.95905V9.93872Z" fill="#300901"/>
<path d="M24.7556 11.8896C25.2434 7.62144 24.8166 3.39396 31.3814 4.06466C39.5924 4.89797 38.4136 9.51161 37.9868 14.735C37.5803 19.9584 34.7959 25.8931 30.6903 25.0395C26.097 24.0842 23.9223 21.0356 23.8207 17.3162C22.9874 16.7877 22.4589 15.2634 22.5199 13.9423C22.5809 12.2351 23.3532 10.853 24.7556 11.8692V11.8896Z" fill="#CC9987"/>
<path d="M29.1865 11.0564C28.1296 16.3407 28.0687 23.9217 30.9547 24.9176C34.4912 25.6696 36.1781 22.2145 37.6211 18.739C38.6983 15.9952 39.8568 11.4019 38.9829 8.23127C38.3935 6.19883 37.6415 5.10131 36.1578 4.69482C33.1904 5.04034 30.0198 6.70694 29.1662 11.0767L29.1865 11.0564Z" fill="#E0B8AA"/>
<path d="M33.739 4.02407L33.6374 3.61758C33.6374 3.61758 32.0521 2.39812 32.3773 2.43877C32.5602 2.45909 33.2716 1.99163 33.5358 2.90623L32.9464 1.36157L36.7471 3.1298C36.7471 3.1298 37.6413 3.1298 38.2104 3.69888C38.7795 4.26796 39.2266 4.7151 39.2266 4.7151C39.2266 4.7151 39.0234 5.32483 39.0234 4.43056C39.8567 4.81672 40.1616 6.93046 39.938 8.43447C39.938 8.88161 39.938 9.38972 39.938 9.9588C39.816 12.2148 38.9624 14.5928 38.9624 14.5928L38.495 14.796C38.495 14.796 40.1006 9.63361 38.2714 7.82474C36.4219 6.01586 31.4424 6.68657 31.4424 6.68657L33.7594 4.04439L33.739 4.02407Z" fill="#5E1C1B"/>
<path d="M22.5196 5.52813C23.3732 4.30867 24.5724 2.47947 25.6293 2.15428C26.2796 1.17871 29.7145 1.64617 33.3729 0.934814C33.3729 0.934814 30.1413 1.62584 29.9787 2.4185C29.9787 2.4185 29.9787 2.4185 29.999 2.4185C30.5274 1.82909 35.8728 0.894166 35.5679 1.23968C33.82 3.27212 34.3484 1.82909 34.5517 2.84531C34.6533 2.84531 34.3687 2.90628 34.4704 2.90628C34.4704 1.91039 35.6898 1.13806 36.4825 1.05676C35.9947 2.31687 37.5394 2.45915 38.332 4.02413C39.4092 5.40619 40.0393 7.80447 38.5962 8.57679C35.2224 10.3653 33.1086 8.14998 31.1372 7.96706C29.3486 7.80447 28.2105 8.67842 27.743 9.28815C27.1333 10.1011 26.1983 14.2473 26.1983 14.2473L25.0602 13.2514L24.4708 11.3003L21.544 12.0319C21.544 12.0319 20.8124 7.92641 22.5196 5.46716V5.52813Z" fill="#300901"/>
<path d="M39.5921 14.8164C39.2872 14.4302 36.2792 14.5521 35.8117 14.044C35.3443 13.5562 34.2264 13.6782 33.698 13.7188C33.0883 13.8611 30.3038 12.7433 29.5925 12.7839C28.8201 12.5603 24.3081 11.5645 24.3081 11.5645L24.7349 12.2352L29.1656 13.5969C29.0437 14.5318 29.1656 16.0155 29.877 16.3C30.9948 16.7472 32.6614 17.0927 33.1695 16.0968C33.5964 15.2838 34.0842 14.3286 34.0842 14.3286C34.9378 14.0644 35.4256 14.5928 35.4256 14.5928C35.4256 14.5928 35.3239 15.5684 35.4865 16.483C35.6695 17.4179 37.1125 17.7634 38.1897 17.6618C39.2669 17.5398 39.9173 15.1416 39.5921 14.7757V14.8164ZM32.824 15.8529C32.4785 16.5439 30.8119 16.3204 30.1819 15.9139C29.5315 15.5074 29.8567 13.6375 30.0599 13.4953C30.2632 13.353 33.0679 14.2676 33.3728 14.2473C33.3728 14.2473 33.2305 14.979 32.824 15.8529ZM38.3929 17.2756C37.6612 17.4789 36.1369 17.2756 35.9337 16.3407C35.7304 15.4058 35.9337 14.796 35.9337 14.796C36.2182 14.8977 39.084 15.1619 39.2262 15.3448C39.3685 15.5277 39.1043 17.0724 38.3726 17.2756H38.3929Z" fill="#5E1C1B"/>
<path d="M43.5755 29.1451C47.0307 28.5354 48.616 39.9374 50.4452 45.2217C52.2134 50.3231 53.5548 55.1807 51.8272 56.9083C50.75 57.9854 45.2421 61.6438 43.4739 61.7861C41.7057 61.9284 39.7139 54.7335 39.7139 54.7335C39.7139 54.7335 44.9372 52.4979 44.9982 52.1523C45.2218 51.0955 43.3519 47.2135 43.4739 45.303C43.6162 43.4128 43.5755 29.1451 43.5755 29.1451Z" fill="#82C655"/>
<path d="M11.6049 29.3483C8.51556 29.5516 7.70259 36.7058 7.01156 39.0431C6.32053 41.3804 0.995531 57.2944 4.97912 58.5139C8.9627 59.7537 19.9176 62.6804 19.9176 62.6804L22.641 53.3311C22.641 53.3311 13.3731 53.0466 13.3731 50.9938C13.3731 48.9411 15.3242 44.6729 15.3242 43.5754C15.3242 36.7464 11.6049 29.328 11.6049 29.328V29.3483Z" fill="#82C655"/>
<path d="M19.7148 23.9623C21.666 27.2752 30.8933 31.9701 31.8079 34.0229C29.877 33.718 16.9914 26.9906 15.0402 27.7629C13.0891 28.5556 19.7148 23.9623 19.7148 23.9623Z" fill="#00225E"/>
<path d="M31.8076 34.023C32.397 32.0719 36.5229 28.698 35.6489 25.629C38.7179 26.503 39.7545 27.8241 39.7545 27.8241C39.7545 27.8241 37.4172 31.1369 35.2221 32.6003C33.0271 34.0637 31.8279 34.023 31.8279 34.023H31.8076Z" fill="#0E3999"/>
<path d="M34.084 31.7263H68.2493C69.5094 31.7263 70.5256 32.7425 70.5256 34.0027V55.6482C70.5256 56.9083 69.5094 57.9245 68.2493 57.9245H34.084C32.8238 57.9245 31.8076 56.9083 31.8076 55.6482V34.0027C31.8076 32.7425 32.8238 31.7263 34.084 31.7263Z" fill="#B0DFF4"/>
<path d="M19.5117 57.0504C19.2271 56.3188 20.6295 54.8757 21.3815 53.5953C21.3815 53.5953 25.5277 52.2336 28.5357 52.5181C29.2471 52.5791 29.6535 52.8636 31.0559 53.453C32.0925 53.9002 32.0721 54.5505 30.9746 54.4286C30.06 54.327 29.1048 53.9408 29.1048 53.9408H27.5195C27.5195 53.9408 28.7796 54.1034 29.1251 54.1441C29.4706 54.205 31.0966 54.8961 31.5437 55.018C32.1738 55.1806 32.4177 55.9529 31.3811 55.9326C30.3649 55.9123 29.7958 55.6277 29.2674 55.5668C28.5357 55.4651 27.2553 55.4245 27.2553 55.4245C28.7389 55.6887 30.8933 55.8513 31.3811 56.2578C31.8892 56.6643 31.5437 57.3553 30.4665 57.0301C28.5357 56.4204 27.0927 56.6643 27.0927 56.6643L29.8568 57.0098C29.8568 57.0098 30.7511 57.6805 29.4096 57.6805C25.9951 57.6602 23.292 58.1683 22.2148 57.8228C21.3205 57.5382 19.7352 57.5789 19.5117 57.0504Z" fill="#CC9987"/>
<path d="M109 53.0062H2.54053V88.574H109V53.0062Z" fill="#A54300"/>
<g style="mix-blend-mode:multiply" opacity="0.38">
<path d="M105.585 55.7703H6.34131V85.0781H105.585V55.7703Z" fill="#A54300"/>
</g>
<path d="M103.532 58.5548H8.21094V83.6148H103.532V58.5548Z" fill="#A54300"/>
<g style="mix-blend-mode:multiply" opacity="0.15">
<path d="M11.7279 58.5548H10.9556V83.6555H11.7279V58.5548Z" fill="#A54300"/>
</g>
<g style="mix-blend-mode:multiply" opacity="0.15">
<path d="M18.8411 58.5548H17.7842V83.6555H18.8411V58.5548Z" fill="#A54300"/>
</g>
<g style="mix-blend-mode:multiply" opacity="0.15">
<path d="M31.5843 58.5548H30.812V83.6555H31.5843V58.5548Z" fill="#A54300"/>
</g>
<g style="mix-blend-mode:multiply" opacity="0.15">
<path d="M44.6322 58.5548H43.8599V83.6555H44.6322V58.5548Z" fill="#A54300"/>
</g>
<g style="mix-blend-mode:multiply" opacity="0.15">
<path d="M50.7096 58.5548H50.0796V83.6555H50.7096V58.5548Z" fill="#A54300"/>
</g>
<g style="mix-blend-mode:multiply" opacity="0.15">
<path d="M62.5585 58.5548H61.7861V83.6555H62.5585V58.5548Z" fill="#A54300"/>
</g>
<g style="mix-blend-mode:multiply" opacity="0.15">
<path d="M68.6154 58.5548H67.9854V83.6555H68.6154V58.5548Z" fill="#A54300"/>
</g>
<g style="mix-blend-mode:multiply" opacity="0.15">
<path d="M73.798 58.5548H73.168V83.6555H73.798V58.5548Z" fill="#A54300"/>
</g>
<g style="mix-blend-mode:multiply" opacity="0.15">
<path d="M57.4366 58.5548H56.4204V83.6555H57.4366V58.5548Z" fill="#A54300"/>
</g>
<g style="mix-blend-mode:multiply" opacity="0.15">
<path d="M38.698 58.5548H37.6411V83.6555H38.698V58.5548Z" fill="#A54300"/>
</g>
<g style="mix-blend-mode:multiply" opacity="0.15">
<path d="M25.2834 58.5548H24.8159V83.6555H25.2834V58.5548Z" fill="#A54300"/>
</g>
<path d="M109 51.116H0V53.5346H109V51.116Z" fill="#E08F46"/>
<g style="mix-blend-mode:multiply" opacity="0.15">
<path d="M84.1437 58.3313H83.5137V83.7571H84.1437V58.3313Z" fill="#A54300"/>
</g>
<g style="mix-blend-mode:multiply" opacity="0.15">
<path d="M95.0163 58.3313H94.3862V83.7571H95.0163V58.3313Z" fill="#A54300"/>
</g>
<g style="mix-blend-mode:multiply" opacity="0.15">
<path d="M100.057 58.3313H99.5488V83.7571H100.057V58.3313Z" fill="#A54300"/>
</g>
<g style="mix-blend-mode:multiply" opacity="0.15">
<path d="M90.0781 58.3313H89.2041V83.7571H90.0781V58.3313Z" fill="#A54300"/>
</g>
<g style="mix-blend-mode:multiply" opacity="0.15">
<path d="M78.9199 58.3313H78.5337V83.7571H78.9199V58.3313Z" fill="#A54300"/>
</g>
<defs>
<linearGradient id="paint0_linear_25_22682" x1="87.4833" y1="26.4003" x2="59.9769" y2="10.6301" gradientUnits="userSpaceOnUse">
<stop stop-color="white"/>
<stop offset="0.52" stop-color="#C6C0B9"/>
</linearGradient>
<linearGradient id="paint1_linear_25_22682" x1="20.0317" y1="26.7728" x2="45.8504" y2="7.28268" gradientUnits="userSpaceOnUse">
<stop stop-color="white"/>
<stop offset="0.52" stop-color="#C6C0B9"/>
</linearGradient>
</defs>
</svg>
