<svg width="110" height="102" viewBox="0 0 110 102" fill="none" xmlns="http://www.w3.org/2000/svg">
<path d="M86.9148 53.9938C96.8548 44.0538 96.8548 27.9379 86.9148 17.9979C76.9748 8.0579 60.8588 8.0579 50.9189 17.9979C40.9789 27.9379 40.9789 44.0538 50.9189 53.9938C60.8588 63.9338 76.9748 63.9338 86.9148 53.9938Z" fill="#9DC9DD"/>
<path d="M51.3781 17.5506C41.1896 27.2366 40.7839 43.3493 50.4699 53.5355C56.968 60.3702 66.3613 62.802 74.9132 60.7367C74.9755 60.271 75.0031 59.8031 74.9893 59.3329C74.9455 57.6455 74.2148 55.7507 72.6081 55.2252C72.0295 55.0361 71.391 55.0454 70.8424 54.7803C68.3967 53.6024 70.2684 48.9806 67.9426 47.5791C66.435 46.6709 64.1253 47.8719 62.8898 46.6202C61.7972 45.5138 62.627 43.5729 62.0277 42.1368C61.6704 41.2793 60.8521 40.7169 60.2804 39.9861C59.7088 39.2531 59.4529 38.0568 60.1859 37.4851C60.4464 37.2822 60.7875 37.2016 61.048 36.9987C61.8502 36.3763 61.4537 35.0279 60.6815 34.3686C59.9093 33.7093 58.8789 33.3958 58.1528 32.6859C56.8781 31.4388 56.9311 29.302 57.7148 27.6999C58.4986 26.0979 59.8517 24.8647 61.048 23.5392C62.2421 22.2161 63.3462 20.6486 63.42 18.8668C63.4891 17.1956 62.6501 15.6396 61.8318 14.1805C61.4145 13.4336 60.995 12.6868 60.5778 11.9399C57.2446 13.0925 54.0981 14.9596 51.3758 17.5483L51.3781 17.5506Z" fill="#74A7CB"/>
<path d="M87.3629 18.4587C84.0182 14.9411 79.9059 12.5899 75.5377 11.4166C74.5742 12.2833 73.7213 13.2492 73.251 14.4409C72.5503 16.2274 73.1012 18.6593 74.8923 19.3531C75.321 19.5191 75.8005 19.5813 76.167 19.8556C77.3956 20.7684 76.3445 22.8592 77.0821 24.2007C77.7437 25.4017 79.4333 25.4201 80.7956 25.2772C81.6577 25.1873 82.5199 25.0997 83.382 25.0098C84.1957 24.9245 85.0347 24.8439 85.8162 25.0813C86.5976 25.3187 87.3168 25.9595 87.3859 26.7755C87.4989 28.1448 85.9429 28.9377 84.7766 29.6661C82.997 30.7772 81.6969 32.4945 80.4383 34.1726C79.733 35.1154 78.9907 36.1757 79.0876 37.349C79.1682 38.3356 79.8459 39.2484 79.7192 40.2304C79.5278 41.7103 77.7068 42.3834 77.0268 43.7134C76.439 44.8637 76.8216 46.279 77.4602 47.4016C78.0987 48.5242 78.9792 49.5108 79.4725 50.7048C80.1594 52.3714 80.028 54.2985 80.7749 55.9397C81.0953 56.6427 81.5678 57.249 82.1441 57.7515C83.6655 56.8249 85.1131 55.7253 86.4547 54.4483C96.6432 44.7622 97.0489 28.6496 87.3629 18.4633V18.4587Z" fill="#74A7CB"/>
<path d="M74.3736 33.3196C74.3182 33.8844 74.3667 34.5067 74.7424 34.9217C75.0559 35.2674 75.5538 35.4103 76.0263 35.3712C76.4989 35.332 76.9484 35.1314 77.3564 34.8825C78.2415 34.3385 78.9584 33.557 79.6108 32.7456C80.1525 32.0725 80.6734 31.3418 80.8555 30.5028C81.0376 29.6637 80.7956 28.6887 80.0764 28.2438C78.9308 27.5338 77.1512 28.4558 76.2845 29.3249C75.2703 30.3414 74.5142 31.9158 74.3759 33.3196H74.3736Z" fill="#74A7CB"/>
<path d="M34.1708 76.6003C33.8964 76.6003 33.6729 76.8239 33.6729 77.0982V83.3036C33.6729 83.5779 33.8964 83.8015 34.1708 83.8015C34.4451 83.8015 34.6687 83.5779 34.6687 83.3036V77.0982C34.6687 76.8239 34.4451 76.6003 34.1708 76.6003Z" fill="#74A7CB"/>
<path d="M39.0531 76.6003C38.7788 76.6003 38.5552 76.8239 38.5552 77.0982V83.3036C38.5552 83.5779 38.7788 83.8015 39.0531 83.8015C39.3274 83.8015 39.551 83.5779 39.551 83.3036V77.0982C39.551 76.8239 39.3274 76.6003 39.0531 76.6003Z" fill="#74A7CB"/>
<path d="M43.9349 76.6003C43.6606 76.6003 43.437 76.8239 43.437 77.0982V83.3036C43.437 83.5779 43.6606 83.8015 43.9349 83.8015C44.2092 83.8015 44.4328 83.5779 44.4328 83.3036V77.0982C44.4328 76.8239 44.2092 76.6003 43.9349 76.6003Z" fill="#74A7CB"/>
<path d="M48.8172 76.6003C48.5429 76.6003 48.3193 76.8239 48.3193 77.0982V83.3036C48.3193 83.5779 48.5429 83.8015 48.8172 83.8015C49.0915 83.8015 49.3151 83.5779 49.3151 83.3036V77.0982C49.3151 76.8239 49.0915 76.6003 48.8172 76.6003Z" fill="#74A7CB"/>
<path d="M53.6996 76.6003C53.4253 76.6003 53.2017 76.8239 53.2017 77.0982V83.3036C53.2017 83.5779 53.4253 83.8015 53.6996 83.8015C53.9739 83.8015 54.1975 83.5779 54.1975 83.3036V77.0982C54.1975 76.8239 53.9739 76.6003 53.6996 76.6003Z" fill="#74A7CB"/>
<path d="M58.5819 76.6003C58.3076 76.6003 58.084 76.8239 58.084 77.0982V83.3036C58.084 83.5779 58.3076 83.8015 58.5819 83.8015C58.8562 83.8015 59.0798 83.5779 59.0798 83.3036V77.0982C59.0798 76.8239 58.8562 76.6003 58.5819 76.6003Z" fill="#74A7CB"/>
<path d="M63.4618 76.6003C63.1875 76.6003 62.9639 76.8239 62.9639 77.0982V83.3036C62.9639 83.5779 63.1875 83.8015 63.4618 83.8015C63.7361 83.8015 63.9597 83.5779 63.9597 83.3036V77.0982C63.9597 76.8239 63.7361 76.6003 63.4618 76.6003Z" fill="#74A7CB"/>
<path d="M68.3441 76.6003C68.0698 76.6003 67.8462 76.8239 67.8462 77.0982V83.3036C67.8462 83.5779 68.0698 83.8015 68.3441 83.8015C68.6184 83.8015 68.842 83.5779 68.842 83.3036V77.0982C68.842 76.8239 68.6184 76.6003 68.3441 76.6003Z" fill="#74A7CB"/>
<path d="M73.2259 76.6003C72.9516 76.6003 72.728 76.8239 72.728 77.0982V83.3036C72.728 83.5779 72.9516 83.8015 73.2259 83.8015C73.5002 83.8015 73.7238 83.5779 73.7238 83.3036V77.0982C73.7238 76.8239 73.5002 76.6003 73.2259 76.6003Z" fill="#74A7CB"/>
<path d="M78.1083 76.6003C77.8339 76.6003 77.6104 76.8239 77.6104 77.0982V83.3036C77.6104 83.5779 77.8339 83.8015 78.1083 83.8015C78.3826 83.8015 78.6062 83.5779 78.6062 83.3036V77.0982C78.6062 76.8239 78.3826 76.6003 78.1083 76.6003Z" fill="#74A7CB"/>
<path d="M82.9906 76.6003C82.7163 76.6003 82.4927 76.8239 82.4927 77.0982V83.3036C82.4927 83.5779 82.7163 83.8015 82.9906 83.8015C83.2649 83.8015 83.4885 83.5779 83.4885 83.3036V77.0982C83.4885 76.8239 83.2649 76.6003 82.9906 76.6003Z" fill="#74A7CB"/>
<path d="M87.8729 76.6003C87.5986 76.6003 87.375 76.8239 87.375 77.0982V83.3036C87.375 83.5779 87.5986 83.8015 87.8729 83.8015C88.1472 83.8015 88.3708 83.5779 88.3708 83.3036V77.0982C88.3708 76.8239 88.1472 76.6003 87.8729 76.6003Z" fill="#74A7CB"/>
<path d="M39.0278 76.7225C38.8273 76.8193 38.6475 76.9691 38.4538 77.0798C38.2464 77.1973 38.032 77.2987 37.8084 77.384C37.3797 77.5477 36.9256 77.6468 36.4645 77.6491C35.5886 77.6537 34.7588 77.3126 34.1433 76.6948C34.0488 76.6003 33.8644 76.7294 33.9497 76.8446C34.5213 77.5984 35.4549 77.9903 36.3862 78.011C36.8887 78.0225 37.3958 77.928 37.866 77.7575C38.3248 77.5915 38.8918 77.3471 39.2284 76.9829C39.3598 76.84 39.1961 76.6395 39.0278 76.7225Z" fill="#74A7CB"/>
<path d="M43.979 76.7225C43.7784 76.8193 43.5986 76.9691 43.405 77.0798C43.1976 77.1973 42.9832 77.2987 42.7596 77.384C42.3308 77.5477 41.8767 77.6468 41.4157 77.6491C40.5398 77.6537 39.7099 77.3126 39.0945 76.6948C39 76.6003 38.8156 76.7294 38.9008 76.8446C39.4725 77.5984 40.4061 77.9903 41.3373 78.011C41.8399 78.0225 42.347 77.928 42.8172 77.7575C43.2759 77.5915 43.843 77.3471 44.1795 76.9829C44.3109 76.84 44.1473 76.6395 43.979 76.7225Z" fill="#74A7CB"/>
<path d="M48.9233 76.7225C48.7228 76.8193 48.543 76.9691 48.3494 77.0798C48.1419 77.1973 47.9275 77.2987 47.7039 77.384C47.2752 77.5477 46.8211 77.6468 46.36 77.6491C45.4841 77.6537 44.6543 77.3126 44.0388 76.6948C43.9443 76.6003 43.7599 76.7294 43.8452 76.8446C44.4168 77.5984 45.3504 77.9903 46.2817 78.011C46.7842 78.0225 47.2913 77.928 47.7615 77.7575C48.2203 77.5915 48.7873 77.3471 49.1239 76.9829C49.2553 76.84 49.0916 76.6395 48.9233 76.7225Z" fill="#74A7CB"/>
<path d="M53.8769 76.7225C53.6764 76.8193 53.4966 76.9691 53.303 77.0798C53.0955 77.1973 52.8811 77.2987 52.6575 77.384C52.2288 77.5477 51.7747 77.6468 51.3137 77.6491C50.4377 77.6537 49.6079 77.3126 48.9924 76.6948C48.8979 76.6003 48.7135 76.7294 48.7988 76.8446C49.3705 77.5984 50.304 77.9903 51.2353 78.011C51.7378 78.0225 52.2449 77.928 52.7152 77.7575C53.1739 77.5915 53.7409 77.3471 54.0775 76.9829C54.2089 76.84 54.0452 76.6395 53.8769 76.7225Z" fill="#74A7CB"/>
<path d="M58.5547 76.7225C58.3541 76.8193 58.1743 76.9691 57.9807 77.0798C57.7732 77.1973 57.5589 77.2987 57.3353 77.384C56.9065 77.5477 56.4524 77.6468 55.9914 77.6491C55.1155 77.6537 54.2856 77.3126 53.6702 76.6948C53.5756 76.6003 53.3912 76.7294 53.4765 76.8446C54.0482 77.5984 54.9818 77.9903 55.913 78.011C56.4155 78.0225 56.9227 77.928 57.3929 77.7575C57.8516 77.5915 58.4187 77.3471 58.7552 76.9829C58.8866 76.84 58.7229 76.6395 58.5547 76.7225Z" fill="#74A7CB"/>
<path d="M63.5078 76.7225C63.3073 76.8193 63.1275 76.9691 62.9338 77.0798C62.7264 77.1973 62.512 77.2987 62.2884 77.384C61.8596 77.5477 61.4055 77.6468 60.9445 77.6491C60.0686 77.6537 59.2387 77.3126 58.6233 76.6948C58.5288 76.6003 58.3444 76.7294 58.4297 76.8446C59.0013 77.5984 59.9349 77.9903 60.8661 78.011C61.3687 78.0225 61.8758 77.928 62.346 77.7575C62.8047 77.5915 63.3718 77.3471 63.7083 76.9829C63.8397 76.84 63.6761 76.6395 63.5078 76.7225Z" fill="#74A7CB"/>
<path d="M68.4521 76.7225C68.2516 76.8193 68.0718 76.9691 67.8782 77.0798C67.6707 77.1973 67.4563 77.2987 67.2327 77.384C66.804 77.5477 66.3499 77.6468 65.8889 77.6491C65.0129 77.6537 64.1831 77.3126 63.5676 76.6948C63.4731 76.6003 63.2887 76.7294 63.374 76.8446C63.9457 77.5984 64.8792 77.9903 65.8105 78.011C66.313 78.0225 66.8201 77.928 67.2904 77.7575C67.7491 77.5915 68.3161 77.3471 68.6527 76.9829C68.7841 76.84 68.6204 76.6395 68.4521 76.7225Z" fill="#74A7CB"/>
<path d="M73.4057 76.7225C73.2052 76.8193 73.0254 76.9691 72.8318 77.0798C72.6243 77.1973 72.4099 77.2987 72.1863 77.384C71.7576 77.5477 71.3035 77.6468 70.8425 77.6491C69.9665 77.6537 69.1367 77.3126 68.5212 76.6948C68.4267 76.6003 68.2423 76.7294 68.3276 76.8446C68.8993 77.5984 69.8328 77.9903 70.7641 78.011C71.2666 78.0225 71.7737 77.928 72.244 77.7575C72.7027 77.5915 73.2697 77.3471 73.6063 76.9829C73.7377 76.84 73.574 76.6395 73.4057 76.7225Z" fill="#74A7CB"/>
<path d="M78.0459 76.7225C77.8453 76.8193 77.6655 76.9691 77.4719 77.0798C77.2645 77.1973 77.0501 77.2987 76.8265 77.384C76.3977 77.5477 75.9436 77.6468 75.4826 77.6491C74.6067 77.6537 73.7768 77.3126 73.1614 76.6948C73.0669 76.6003 72.8825 76.7294 72.9677 76.8446C73.5394 77.5984 74.473 77.9903 75.4042 78.011C75.9067 78.0225 76.4139 77.928 76.8841 77.7575C77.3428 77.5915 77.9099 77.3471 78.2464 76.9829C78.3778 76.84 78.2142 76.6395 78.0459 76.7225Z" fill="#74A7CB"/>
<path d="M82.9995 76.7225C82.799 76.8193 82.6191 76.9691 82.4255 77.0798C82.2181 77.1973 82.0037 77.2987 81.7801 77.384C81.3513 77.5477 80.8972 77.6468 80.4362 77.6491C79.5603 77.6537 78.7304 77.3126 78.115 76.6948C78.0205 76.6003 77.8361 76.7294 77.9214 76.8446C78.493 77.5984 79.4266 77.9903 80.3578 78.011C80.8604 78.0225 81.3675 77.928 81.8377 77.7575C82.2964 77.5915 82.8635 77.3471 83.2 76.9829C83.3314 76.84 83.1678 76.6395 82.9995 76.7225Z" fill="#74A7CB"/>
<path d="M87.9443 76.7225C87.7438 76.8193 87.564 76.9691 87.3704 77.0798C87.1629 77.1973 86.9485 77.2987 86.7249 77.384C86.2962 77.5477 85.8421 77.6468 85.381 77.6491C84.5051 77.6537 83.6753 77.3126 83.0598 76.6948C82.9653 76.6003 82.7809 76.7294 82.8662 76.8446C83.4378 77.5984 84.3714 77.9903 85.3027 78.011C85.8052 78.0225 86.3123 77.928 86.7826 77.7575C87.2413 77.5915 87.8083 77.3471 88.1449 76.9829C88.2763 76.84 88.1126 76.6395 87.9443 76.7225Z" fill="#74A7CB"/>
<path d="M95.6272 77.1721C95.611 75.8144 95.3529 74.4797 94.9587 73.1843C94.848 72.8201 94.7236 72.4581 94.5922 72.1009C94.4677 71.762 94.3478 71.3817 94.1404 71.0843C94.1335 71.0728 94.1196 71.0797 94.1196 71.0935C94.1796 71.5154 94.3732 71.9326 94.5046 72.336C94.6406 72.7486 94.7674 73.1658 94.8826 73.5853C95.1085 74.4152 95.2722 75.2565 95.3598 76.1117C95.4474 76.9646 95.4266 77.8267 95.4128 78.6819C95.4059 79.1383 95.3897 79.5924 95.392 80.0489C95.392 80.473 95.3506 80.9271 95.4266 81.3443C95.4358 81.3973 95.5234 81.3973 95.535 81.3443C95.6041 81.0216 95.5834 80.6758 95.5926 80.3462C95.6018 79.9912 95.6087 79.6339 95.611 79.2789C95.6133 78.5759 95.6364 77.8728 95.6272 77.1698V77.1721Z" fill="#83BAA8"/>
<path d="M96.8389 79.1705C96.59 79.6799 96.3987 80.2147 96.2166 80.7495C96.0229 81.3212 95.8408 81.8974 95.6933 82.4829C95.6472 82.6673 95.5988 82.8517 95.5527 83.0408C95.5688 82.1072 95.6702 81.1782 95.8362 80.2447C95.9699 79.4932 96.1197 78.7417 96.2811 77.9949C96.5738 76.6441 96.9288 75.2864 97.512 74.0278C97.837 73.3271 98.2635 72.6908 98.6254 72.0108C98.6323 71.9993 98.6185 71.9901 98.6093 71.997C98.1021 72.4373 97.7379 73.0574 97.4336 73.6475C97.1132 74.2698 96.8574 74.9245 96.6407 75.5884C96.1797 76.9968 95.8915 78.4674 95.6564 79.9312C95.5873 80.3645 95.5204 80.7956 95.4651 81.2313C95.4651 81.2359 95.4651 81.2428 95.4628 81.2474C95.449 81.0307 95.4351 80.8163 95.4144 80.5997C95.2991 79.3088 95.0801 78.0087 94.6237 76.7916C94.384 76.1531 94.1212 75.4408 93.6141 74.9683C93.6072 74.9637 93.6003 74.9683 93.6026 74.9775C93.9253 75.7244 94.2641 76.4482 94.5062 77.2273C94.7505 78.0087 94.9119 78.8132 95.0363 79.6223C95.1631 80.4406 95.2369 81.2658 95.2853 82.0934C95.3106 82.5014 95.3222 82.9094 95.3337 83.3174C95.3337 83.3174 95.3337 83.322 95.3337 83.3243C95.2968 83.2275 95.2622 83.133 95.2277 83.0454C95.064 82.6212 94.8635 82.2109 94.626 81.826C94.1765 81.0929 93.5634 80.33 92.7981 79.915C92.7819 79.9058 92.7681 79.9266 92.7796 79.9381C93.0632 80.247 93.3744 80.5351 93.6487 80.8532C93.9414 81.1898 94.2019 81.5563 94.4324 81.9389C94.656 82.3124 94.8473 82.7042 94.9972 83.1099C95.0686 83.3012 95.1309 83.4972 95.1862 83.6954C95.2392 83.8821 95.2715 84.085 95.3314 84.2717C95.3314 84.2763 95.3337 84.2809 95.336 84.2855C95.3406 84.2993 95.3452 84.3155 95.3498 84.3293C95.3591 84.3962 95.3706 84.4607 95.3867 84.5229C95.4052 84.5944 95.5158 84.5967 95.5342 84.5229C95.5734 84.3524 95.5734 84.1703 95.5665 83.9882C95.6795 83.5225 95.7648 83.05 95.8869 82.589C96.0345 82.0311 96.1912 81.4779 96.3756 80.9293C96.5508 80.4083 96.7398 79.8851 96.9657 79.3826C97.187 78.8962 97.4728 78.4582 97.7425 77.9995C97.7425 77.9995 97.7425 77.9949 97.7379 77.9949C97.3253 78.2784 97.051 78.7348 96.8343 79.1774L96.8389 79.1705Z" fill="#83BAA8"/>
<path d="M100.737 72.7277C101.09 72.7347 101.839 72.5502 101.701 72.0385C101.636 71.8034 101.362 71.6858 101.152 71.6236C100.885 71.5429 100.604 71.5406 100.329 71.5775C100.159 71.6005 99.9882 71.6397 99.8199 71.6858C100.043 71.4599 100.364 71.0911 100.189 70.8214C99.979 70.4987 99.3796 70.8537 99.1514 70.992C99.0016 71.0819 98.8656 71.1902 98.7365 71.3055C98.7227 71.045 98.6189 70.7868 98.4184 70.5978C98.1049 70.3005 97.9551 71.3332 97.9597 71.4692C97.8145 71.37 97.6508 71.2986 97.4687 71.2571C97.1552 71.1856 96.6873 71.1672 96.4544 71.4369C96.2332 71.6928 96.4567 71.9509 96.7195 72.0339C96.9247 72.0984 97.1437 72.1399 97.365 72.1607C97.2105 72.2321 97.063 72.3243 96.9316 72.4396C96.7126 72.6332 96.3277 73.1265 96.5121 73.44C96.7011 73.7604 97.2382 73.4538 97.4595 73.3363C97.6462 73.2372 97.8168 73.115 97.9758 72.9767C97.9205 73.2879 97.9412 73.6106 98.0196 73.9241C98.0957 74.2307 98.2248 74.5234 98.3654 74.8046C98.4599 74.996 98.5728 75.2657 98.8103 75.3118C99.3312 75.4155 99.2828 74.558 99.2644 74.2699C99.2505 74.0624 99.2206 73.8572 99.1745 73.6544C99.2805 73.7604 99.3935 73.8595 99.5133 73.9517C99.8337 74.1961 100.392 74.5972 100.82 74.4082C101.019 74.3206 101.111 74.1085 101.051 73.901C100.975 73.629 100.71 73.4492 100.502 73.2833C100.17 73.0205 99.8245 72.7808 99.4649 72.5595C99.6055 72.5779 99.7461 72.5987 99.8867 72.6194C100.168 72.6609 100.451 72.7185 100.737 72.7254V72.7277Z" fill="#83BAA8"/>
<path d="M91.8051 75.4225C91.5101 75.4294 90.8831 75.2749 90.9983 74.8462C91.0514 74.648 91.2819 74.5512 91.4594 74.4981C91.683 74.4313 91.9181 74.4267 92.1486 74.4589C92.2915 74.4797 92.4344 74.512 92.575 74.5511C92.386 74.3621 92.1209 74.0532 92.2662 73.8273C92.4413 73.5577 92.9439 73.855 93.1329 73.9703C93.2574 74.0463 93.3726 74.1362 93.4786 74.233C93.4902 74.0141 93.5778 73.7997 93.7437 73.6406C94.0065 73.3917 94.1333 74.2561 94.1287 74.369C94.2509 74.2861 94.3869 74.2261 94.539 74.1916C94.8018 74.1316 95.1936 74.1178 95.3873 74.3437C95.574 74.5581 95.3873 74.7747 95.166 74.8439C94.9931 74.8992 94.811 74.9315 94.6266 74.9499C94.7557 75.0099 94.8778 75.0859 94.9885 75.1851C95.1729 75.3464 95.4933 75.7613 95.3389 76.0218C95.1798 76.2892 94.7326 76.0333 94.5459 75.9342C94.3892 75.8512 94.2462 75.7498 94.1149 75.6345C94.161 75.895 94.1425 76.167 94.078 76.4275C94.0134 76.6834 93.9074 76.9277 93.7898 77.1651C93.7092 77.3242 93.6169 77.5501 93.4187 77.5893C92.983 77.6746 93.0245 76.9577 93.0407 76.7156C93.0522 76.5405 93.0776 76.3699 93.1167 76.2016C93.0291 76.2915 92.9346 76.3745 92.8332 76.4506C92.5635 76.6557 92.0979 76.9899 91.7383 76.8332C91.5723 76.7594 91.4963 76.5842 91.5447 76.4091C91.6092 76.1832 91.8305 76.031 92.0034 75.8927C92.28 75.6737 92.5704 75.4732 92.8701 75.2865C92.7525 75.3026 92.635 75.3187 92.5174 75.3372C92.2823 75.3718 92.0449 75.4202 91.8051 75.4248V75.4225Z" fill="#83BAA8"/>
<path d="M93.2572 71.4486C93.0935 71.4854 92.7293 71.467 92.7477 71.2157C92.7547 71.1005 92.8722 71.0221 92.9644 70.9737C93.082 70.9115 93.2111 70.8838 93.3425 70.8769C93.4254 70.8723 93.5061 70.8746 93.5891 70.8815C93.4646 70.7985 93.2825 70.6556 93.3379 70.515C93.4047 70.3467 93.7159 70.4574 93.8358 70.4989C93.9141 70.5265 93.9856 70.5657 94.057 70.6072C94.0409 70.485 94.064 70.3559 94.14 70.2499C94.2576 70.0839 94.4236 70.5496 94.4328 70.6118C94.4927 70.5519 94.5619 70.5035 94.6402 70.4689C94.7785 70.4067 94.9952 70.3559 95.1289 70.4597C95.2557 70.5588 95.175 70.6994 95.0598 70.7616C94.9699 70.81 94.8731 70.8492 94.7716 70.8792C94.85 70.8976 94.9261 70.9276 94.9975 70.9691C95.1174 71.0383 95.341 71.2342 95.2834 71.3955C95.2234 71.5615 94.9468 71.467 94.8339 71.4347C94.7371 71.4048 94.6472 71.3656 94.5619 71.3149C94.6149 71.4532 94.6356 71.6076 94.6287 71.7597C94.6218 71.9096 94.5872 72.0571 94.548 72.2C94.5204 72.2968 94.4927 72.4328 94.389 72.4766C94.1562 72.5711 94.1008 72.1701 94.0847 72.0341C94.0709 71.9372 94.0686 71.8381 94.0709 71.739C94.0317 71.7989 93.9879 71.8543 93.9418 71.9073C93.815 72.0502 93.5937 72.2876 93.377 72.2392C93.2756 72.2162 93.2157 72.1263 93.2226 72.0248C93.2341 71.8911 93.3402 71.7828 93.4208 71.6883C93.5499 71.5362 93.6905 71.3932 93.8358 71.2572C93.7712 71.278 93.709 71.301 93.6444 71.3241C93.5177 71.3702 93.3909 71.4209 93.2595 71.4509L93.2572 71.4486Z" fill="#83BAA8"/>
<path d="M91.0007 79.786C90.7379 79.7284 90.2193 79.4541 90.4129 79.1014C90.5028 78.9401 90.7264 78.9032 90.8947 78.894C91.1068 78.8824 91.3165 78.9308 91.5102 79.0092C91.6323 79.0576 91.7522 79.1175 91.8675 79.1821C91.743 78.9746 91.5747 78.645 91.7522 78.4767C91.9643 78.2762 92.3446 78.6473 92.4875 78.7902C92.582 78.8847 92.6627 78.9885 92.7365 79.0968C92.7941 78.9055 92.9163 78.7349 93.1007 78.6312C93.3865 78.4675 93.3104 79.2582 93.2805 79.3573C93.405 79.3112 93.541 79.2881 93.6816 79.2904C93.9259 79.295 94.274 79.3665 94.3985 79.6085C94.516 79.839 94.3039 79.9889 94.0942 80.0027C93.9305 80.0142 93.7622 80.0027 93.594 79.9797C93.6954 80.0603 93.7876 80.1548 93.8637 80.2655C93.9905 80.4476 94.1841 80.8833 93.9904 81.0792C93.7922 81.282 93.4534 80.957 93.3104 80.8302C93.1906 80.7242 93.0868 80.602 92.9946 80.473C92.9785 80.7127 92.9047 80.9478 92.7895 81.1645C92.6765 81.3766 92.529 81.5702 92.3746 81.7523C92.2685 81.8768 92.1371 82.0543 91.955 82.045C91.5517 82.0266 91.743 81.4019 91.8098 81.1921C91.8582 81.04 91.9182 80.8948 91.9873 80.7542C91.8905 80.8141 91.7891 80.8671 91.683 80.9132C91.4018 81.0354 90.9177 81.2313 90.6342 81.0123C90.5028 80.9109 90.4752 80.7403 90.5558 80.5974C90.6619 80.4107 90.8901 80.3254 91.0745 80.2401C91.3672 80.1064 91.6669 79.9935 91.9712 79.8944C91.8628 79.8828 91.7568 79.8713 91.6485 79.8621C91.4341 79.8414 91.2128 79.8321 91.0007 79.786Z" fill="#83BAA8"/>
<path d="M99.912 79.2465C100.29 79.3503 101.145 79.3503 101.134 78.7625C101.129 78.4928 100.862 78.2922 100.654 78.1677C100.389 78.011 100.085 77.9303 99.7806 77.898C99.5892 77.8773 99.3956 77.8727 99.202 77.8796C99.5039 77.6975 99.9465 77.3863 99.829 77.0475C99.6907 76.6441 98.9484 76.8654 98.6672 76.953C98.4828 77.0106 98.3076 77.089 98.137 77.1812C98.1923 76.8953 98.1485 76.5934 97.9849 76.3352C97.7267 75.9318 97.2887 77.0037 97.2588 77.1512C97.1274 77.006 96.9706 76.8861 96.7885 76.7916C96.4704 76.6302 95.9702 76.4873 95.6475 76.7155C95.3409 76.9322 95.5138 77.2688 95.772 77.4301C95.9748 77.5546 96.2007 77.656 96.4336 77.739C96.2468 77.7759 96.0647 77.8335 95.8919 77.9234C95.6037 78.0732 95.0597 78.502 95.175 78.8869C95.2925 79.2811 95.9518 79.0967 96.2215 79.0275C96.4497 78.9699 96.6664 78.8846 96.8715 78.7809C96.7309 79.099 96.6664 79.4563 96.6664 79.8113C96.6664 80.1617 96.7263 80.5097 96.8024 80.8509C96.8531 81.0814 96.9038 81.4018 97.1458 81.5148C97.6783 81.7637 97.8558 80.8301 97.9111 80.5143C97.9526 80.2861 97.9734 80.0579 97.978 79.8274C98.0633 79.9703 98.1578 80.1086 98.2615 80.2377C98.5427 80.5858 99.0337 81.1667 99.5454 81.0791C99.7829 81.0376 99.9373 80.8347 99.9304 80.5973C99.9212 80.2861 99.6837 80.0187 99.504 79.7859C99.2181 79.4148 98.9069 79.0644 98.5819 78.7302C98.7271 78.7878 98.8747 78.8477 99.0199 78.9077C99.3103 79.0275 99.6008 79.1659 99.9073 79.2488L99.912 79.2465Z" fill="#83BAA8"/>
<path d="M26.6654 74.9614C26.6839 73.334 26.9951 71.7366 27.4676 70.1829C27.6013 69.7449 27.7488 69.3139 27.9079 68.8851C28.0577 68.4794 28.2006 68.023 28.4496 67.6681C28.4588 67.6565 28.475 67.6634 28.4726 67.6773C28.4012 68.1821 28.1684 68.6823 28.0093 69.1664C27.848 69.662 27.6935 70.1599 27.5575 70.6624C27.2878 71.6559 27.0896 72.6655 26.9859 73.689C26.8821 74.7124 26.9052 75.7428 26.9213 76.7686C26.9305 77.3149 26.949 77.8589 26.9467 78.4052C26.9467 78.9123 26.9974 79.4587 26.9052 79.9589C26.8937 80.0234 26.7899 80.0211 26.7761 79.9589C26.6954 79.5739 26.7162 79.1567 26.7069 78.7648C26.6954 78.3384 26.6885 77.9119 26.6862 77.4855C26.6839 76.6441 26.6562 75.8005 26.6654 74.9591V74.9614Z" fill="#83BAA8"/>
<path d="M25.2133 77.3542C25.5106 77.9627 25.7388 78.6035 25.9578 79.2443C26.1906 79.929 26.4073 80.6205 26.5848 81.3212C26.6401 81.5402 26.6978 81.7638 26.7531 81.9874C26.7346 80.8694 26.6125 79.7561 26.4142 78.6381C26.2552 77.7368 26.0731 76.8378 25.8795 75.9434C25.5291 74.3253 25.1026 72.6979 24.4042 71.1903C24.0146 70.349 23.5029 69.5883 23.0695 68.7723C23.0626 68.7584 23.0788 68.7469 23.0903 68.7561C23.6965 69.284 24.1345 70.0262 24.4987 70.7339C24.8813 71.4784 25.1879 72.2645 25.4484 73.0597C26.0016 74.7471 26.3474 76.5105 26.6263 78.2601C26.7093 78.7787 26.7877 79.2974 26.8568 79.8183C26.8568 79.8252 26.8568 79.8321 26.8591 79.8391C26.8753 79.5809 26.8937 79.3227 26.9168 79.0645C27.0551 77.5178 27.3155 75.9596 27.8641 74.5027C28.1523 73.7375 28.4658 72.8846 29.0743 72.3198C29.0812 72.3129 29.0905 72.3198 29.0882 72.329C28.7032 73.2234 28.2975 74.0901 28.0048 75.0237C27.712 75.9619 27.5184 76.9231 27.3686 77.8935C27.2164 78.8732 27.1288 79.8644 27.0712 80.8533C27.0412 81.342 27.0274 81.8307 27.0136 82.3194C27.0136 82.3217 27.0136 82.324 27.0136 82.3263C27.0574 82.211 27.1012 82.0981 27.1427 81.992C27.3386 81.4849 27.5783 80.9939 27.8641 80.5306C28.4035 79.6523 29.1366 78.7372 30.054 78.2393C30.0724 78.2301 30.0886 78.2531 30.0747 78.267C29.7336 78.6381 29.3625 78.9816 29.0328 79.3619C28.6825 79.7653 28.369 80.2033 28.0947 80.6643C27.8273 81.1115 27.5991 81.5794 27.417 82.0681C27.3317 82.2986 27.2556 82.5314 27.1888 82.7688C27.1265 82.9924 27.0873 83.2368 27.0136 83.4581C27.0136 83.4627 27.0113 83.4696 27.009 83.4742C27.002 83.4927 26.9974 83.5088 26.9905 83.5272C26.979 83.6056 26.9675 83.684 26.9467 83.76C26.9237 83.8453 26.79 83.8499 26.7715 83.76C26.7254 83.5549 26.7254 83.3359 26.7323 83.1192C26.5963 82.5637 26.4949 81.9966 26.3497 81.4411C26.1745 80.7726 25.9832 80.1088 25.7665 79.4541C25.559 78.8294 25.3308 78.2024 25.0588 77.6031C24.7961 77.0199 24.4526 76.4944 24.1276 75.948C24.1276 75.9457 24.1276 75.9411 24.1322 75.9434C24.6255 76.2823 24.9551 76.8286 25.2133 77.3588V77.3542Z" fill="#83BAA8"/>
<path d="M20.5457 69.6367C20.1216 69.6459 19.2249 69.4246 19.3908 68.8115C19.4669 68.5279 19.7965 68.3896 20.0501 68.3136C20.3705 68.2167 20.7071 68.2121 21.0367 68.2582C21.2418 68.2859 21.4447 68.332 21.6475 68.3896C21.3778 68.1199 20.9952 67.6773 21.205 67.3546C21.4562 66.9674 22.1754 67.3938 22.4474 67.5575C22.6272 67.6658 22.7886 67.7949 22.943 67.9332C22.9591 67.6197 23.0836 67.3131 23.3234 67.0849C23.6991 66.7276 23.8789 67.9655 23.872 68.1291C24.0472 68.0116 24.2431 67.924 24.4598 67.8756C24.8355 67.7903 25.3956 67.7696 25.6746 68.0923C25.9396 68.3988 25.6723 68.7077 25.3588 68.8092C25.1121 68.8875 24.8516 68.9359 24.5842 68.9613C24.771 69.0466 24.9461 69.1572 25.1029 69.2955C25.3657 69.526 25.8267 70.1184 25.6054 70.4942C25.3772 70.8768 24.7364 70.5103 24.4713 70.3697C24.2477 70.2498 24.0425 70.1046 23.8535 69.941C23.9181 70.3121 23.895 70.7016 23.8005 71.0751C23.7083 71.4416 23.5562 71.792 23.3856 72.1308C23.2703 72.359 23.1366 72.6817 22.8531 72.7394C22.2284 72.8615 22.2884 71.8358 22.3114 71.49C22.3275 71.241 22.3644 70.9944 22.4198 70.7524C22.293 70.8791 22.157 70.999 22.0141 71.1073C21.6291 71.4001 20.9629 71.8795 20.4466 71.6536C20.2092 71.5499 20.1008 71.2964 20.17 71.0474C20.2622 70.7224 20.578 70.5057 20.8292 70.3075C21.2257 69.994 21.6429 69.7058 22.0717 69.4384C21.9034 69.4615 21.7351 69.4845 21.5669 69.5099C21.2303 69.5606 20.8892 69.6298 20.548 69.6367H20.5457Z" fill="#83BAA8"/>
<path d="M31.2451 72.8638C31.6001 72.8707 32.3493 72.6863 32.211 72.1722C32.1464 71.9348 31.8698 71.8195 31.66 71.755C31.3926 71.6743 31.1091 71.6697 30.8348 71.7089C30.6619 71.732 30.4913 71.7711 30.3231 71.8172C30.549 71.5913 30.8671 71.2225 30.6942 70.9505C30.4844 70.6255 29.8828 70.9828 29.6546 71.1211C29.5048 71.211 29.3688 71.3193 29.2397 71.4369C29.2258 71.1741 29.1221 70.9183 28.9216 70.7269C28.6081 70.4273 28.4559 71.4646 28.4606 71.6006C28.313 71.5014 28.1494 71.43 27.9696 71.3885C27.6561 71.317 27.1858 71.2986 26.953 71.5706C26.7294 71.8288 26.9553 72.0869 27.2181 72.1699C27.4233 72.2368 27.6445 72.276 27.8658 72.2967C27.7114 72.3682 27.5639 72.4604 27.4325 72.5779C27.2135 72.7716 26.8285 73.2672 27.0129 73.5806C27.2043 73.9011 27.7414 73.5945 27.9626 73.4769C28.1494 73.3778 28.3222 73.2556 28.479 73.1173C28.4237 73.4285 28.4444 73.7535 28.5228 74.067C28.5989 74.3736 28.7279 74.6663 28.8686 74.9499C28.9631 75.1412 29.076 75.4109 29.3134 75.4593C29.8344 75.563 29.786 74.7032 29.7675 74.4151C29.7537 74.2053 29.7237 74.0002 29.6776 73.7973C29.7837 73.9034 29.8966 74.0048 30.0165 74.0947C30.3392 74.339 30.897 74.7424 31.3281 74.5534C31.5286 74.4658 31.6185 74.2537 31.5609 74.0463C31.4848 73.7743 31.2198 73.5922 31.01 73.4262C30.6781 73.1634 30.33 72.9237 29.9704 72.7001C30.111 72.7185 30.2516 72.7393 30.3945 72.76C30.6758 72.8015 30.9616 72.8591 31.2474 72.8661L31.2451 72.8638Z" fill="#83BAA8"/>
<path d="M29.505 68.1038C29.701 68.1476 30.1366 68.1268 30.1159 67.8249C30.1067 67.6866 29.9661 67.5921 29.8554 67.5344C29.7148 67.4607 29.5581 67.4284 29.4036 67.4192C29.3045 67.4146 29.2077 67.4169 29.1086 67.4238C29.2584 67.3224 29.4751 67.1518 29.4082 66.9835C29.3275 66.7807 28.9541 66.9121 28.8135 66.9651C28.7213 66.9997 28.6337 67.0435 28.5484 67.0942C28.5692 66.9466 28.5392 66.7922 28.4493 66.6654C28.3064 66.4649 28.1104 67.025 28.0989 67.1011C28.0275 67.0296 27.9445 66.972 27.85 66.9305C27.684 66.8567 27.4258 66.7968 27.2668 66.9213C27.1146 67.0388 27.2115 67.2071 27.3475 67.2832C27.4558 67.3431 27.5711 67.3869 27.6932 67.4238C27.5987 67.4468 27.5088 67.4814 27.4212 67.5321C27.2783 67.6151 27.0109 67.8479 27.0801 68.0416C27.1515 68.2398 27.4812 68.1292 27.6172 68.0877C27.7324 68.0531 27.8408 68.0047 27.9445 67.9447C27.8799 68.1107 27.8569 68.2951 27.8661 68.4772C27.8753 68.657 27.9145 68.8322 27.9629 69.0051C27.9952 69.1227 28.0275 69.284 28.1542 69.3347C28.4332 69.4477 28.5 68.9659 28.5208 68.8045C28.5369 68.687 28.5415 68.5694 28.5369 68.4519C28.5853 68.5233 28.636 68.5902 28.6936 68.6547C28.8458 68.8253 29.1109 69.1088 29.3713 69.0512C29.4912 69.0235 29.565 68.9175 29.5557 68.7953C29.5419 68.6363 29.4151 68.5072 29.3183 68.3919C29.1616 68.2098 28.9956 68.0393 28.8204 67.8756C28.8965 67.9009 28.9726 67.9286 29.0486 67.954C29.2008 68.0093 29.3529 68.0715 29.5096 68.1061L29.505 68.1038Z" fill="#83BAA8"/>
<path d="M32.2088 78.094C32.5223 78.0249 33.1446 77.6975 32.9118 77.2757C32.8035 77.0821 32.5361 77.0383 32.3355 77.0268C32.082 77.0129 31.8307 77.0729 31.5979 77.1651C31.4504 77.2227 31.3098 77.2942 31.1715 77.3725C31.3213 77.1259 31.5242 76.7294 31.3098 76.5289C31.0539 76.2891 30.5998 76.734 30.4292 76.9046C30.3163 77.0175 30.2195 77.142 30.1319 77.2734C30.0627 77.0452 29.9152 76.84 29.6962 76.7156C29.355 76.5196 29.4449 77.467 29.4795 77.5869C29.3297 77.5316 29.1683 77.5039 29.0001 77.5062C28.7073 77.5108 28.2901 77.5984 28.1426 77.8866C28.002 78.1609 28.2578 78.3407 28.5068 78.3568C28.7027 78.3706 28.9056 78.3568 29.1061 78.3268C28.9839 78.4236 28.8756 78.5366 28.7834 78.668C28.6312 78.887 28.3984 79.4079 28.6312 79.643C28.8687 79.8851 29.2767 79.4978 29.4473 79.3457C29.5902 79.2166 29.7169 79.0714 29.8253 78.9169C29.8437 79.2028 29.9336 79.4863 30.0696 79.7445C30.2033 79.998 30.3808 80.2285 30.5675 80.4475C30.6943 80.5951 30.8511 80.8094 31.07 80.8002C31.5518 80.7772 31.3236 80.0303 31.2429 79.779C31.1853 79.5969 31.1138 79.4218 31.0286 79.2535C31.1461 79.3249 31.266 79.3872 31.3928 79.4425C31.7293 79.5877 32.3102 79.8228 32.649 79.5624C32.8058 79.4425 32.8404 79.235 32.7436 79.0645C32.6168 78.8409 32.3425 78.7394 32.1235 78.638C31.7731 78.479 31.4135 78.3407 31.0493 78.2231C31.1784 78.2093 31.3075 78.1954 31.4366 78.1839C31.6947 78.1609 31.9575 78.1493 32.2111 78.0917L32.2088 78.094Z" fill="#83BAA8"/>
<path d="M21.5318 77.4487C21.0776 77.5731 20.0542 77.5731 20.068 76.8678C20.0749 76.5428 20.393 76.3053 20.6443 76.1555C20.9624 75.9665 21.3243 75.872 21.6908 75.8328C21.919 75.8097 22.1518 75.8028 22.3823 75.8097C22.0204 75.5907 21.4903 75.2173 21.6309 74.8139C21.7968 74.3299 22.6843 74.5972 23.0232 74.701C23.2444 74.7701 23.4542 74.8646 23.6571 74.973C23.5925 74.6318 23.6432 74.2676 23.8392 73.9587C24.148 73.4747 24.6736 74.7586 24.7105 74.9361C24.8672 74.7632 25.0539 74.618 25.2752 74.5073C25.6556 74.3137 26.2549 74.1431 26.6422 74.4151C27.011 74.6756 26.8035 75.079 26.4923 75.2703C26.248 75.4202 25.9783 75.5423 25.6994 75.6391C25.923 75.6829 26.1397 75.7521 26.3471 75.8604C26.6906 76.0402 27.3452 76.5543 27.2069 77.0153C27.064 77.4878 26.2757 77.2642 25.9529 77.1836C25.6809 77.1144 25.4205 77.013 25.1738 76.8862C25.3444 77.2689 25.4205 77.693 25.4205 78.1217C25.4205 78.5413 25.349 78.9585 25.2568 79.3665C25.1946 79.6431 25.1369 80.0258 24.8465 80.1618C24.208 80.4614 23.9982 79.3411 23.9291 78.9631C23.8807 78.6911 23.853 78.4145 23.8484 78.1402C23.747 78.3108 23.6317 78.4767 23.5072 78.6312C23.1707 79.0484 22.5806 79.7445 21.9674 79.6385C21.6839 79.5901 21.4995 79.3458 21.5064 79.0599C21.5179 78.6865 21.8014 78.3684 22.0158 78.0872C22.3593 77.6423 22.7304 77.2228 23.12 76.8217C22.9448 76.8908 22.7696 76.9623 22.5944 77.0337C22.2463 77.179 21.8983 77.3426 21.5318 77.4417V77.4487Z" fill="#83BAA8"/>
<path d="M7.01598 82.6928C-5.7088 80.5297 -0.245995 97.9542 16.3277 97.9542C37.0137 97.9542 101.077 106.83 109.897 96.3021C111.093 94.8752 101.482 84.938 102.575 82.6928L7.01599 77.8286L7.01598 82.6928Z" fill="#9DC9DD"/>
<path d="M101.394 84.9218C101.795 84.2257 102.19 83.4834 102.572 82.6951H19.7407C20.2986 83.4696 20.8841 84.2095 21.4926 84.9218H101.394Z" fill="#74A7CB"/>
<path d="M47.7132 94.8107C53.7348 94.8107 58.6163 93.9169 58.6163 92.8145C58.6163 91.712 53.7348 90.8182 47.7132 90.8182C41.6916 90.8182 36.8101 91.712 36.8101 92.8145C36.8101 93.9169 41.6916 94.8107 47.7132 94.8107Z" fill="#74A7CB"/>
<path d="M28.0158 92.524C28.0158 93.4322 24.6596 94.1699 20.5196 94.1699C16.3797 94.1699 13.0234 93.4322 13.0234 92.524C13.0234 91.6158 16.3797 90.8782 20.5196 90.8782C24.6596 90.8782 28.0158 91.6158 28.0158 92.524Z" fill="#D5F2F9"/>
<path d="M50.5068 36.0975C45.2166 36.5793 44.7325 41.1088 45.4102 44.0363C46.0902 46.9638 41.0421 53.7615 44.7302 58.5239C48.4184 63.2862 54.7275 61.8985 56.0368 56.1911C57.3461 50.486 57.0556 35.5005 50.5045 36.0952L50.5068 36.0975Z" fill="#222859"/>
<path d="M49.2874 48.2338C46.3599 49.1051 44.2369 55.6585 43.2734 58.556C42.3075 61.4512 44.1654 64.7199 47.0238 64.9804C49.8821 65.2408 53.893 63.4959 55.0801 60.3402C56.2672 57.1845 56.6407 52.4682 56.4908 50.3522C56.341 48.2361 55.6379 47.3809 54.8196 47.2702C54.0013 47.1596 50.6612 47.8281 49.2874 48.2361V48.2338Z" fill="#697BAE"/>
<path d="M50.4099 91.5327C50.0503 91.7586 49.9972 93.0656 50.3937 93.4045C50.7879 93.7433 53.7523 93.7894 54.5775 93.6073C55.4027 93.4252 55.4027 92.5792 54.8633 92.2634C54.3239 91.9476 51.8275 91.3552 51.8275 91.3552L50.4099 91.5327Z" fill="#222859"/>
<path d="M50.1909 88.7344C50.1909 88.7344 50.2163 90.9519 50.3431 91.4613C50.4698 91.9684 52.3669 92.1551 52.5444 91.8094C52.7219 91.4613 53.2014 88.5753 53.2014 88.5753L50.1909 88.7367V88.7344Z" fill="#EBBA9D"/>
<path d="M39.2971 89.6912C38.8822 89.7788 38.382 90.9866 38.6356 91.4407C38.8891 91.8948 41.6552 92.9621 42.492 93.0774C43.3287 93.1926 43.6192 92.3974 43.225 91.9156C42.8285 91.4338 40.6894 90.0139 40.6894 90.0139L39.2971 89.6912Z" fill="#222859"/>
<path d="M40.0576 86.9918C40.0576 86.9918 39.3154 89.0826 39.2578 89.6035C39.2001 90.1245 40.9174 90.9543 41.2033 90.6892C41.4891 90.4241 42.9367 87.8816 42.9367 87.8816L40.0553 86.9918H40.0576Z" fill="#EBBA9D"/>
<path d="M50.212 89.7394C51.1548 89.714 52.0976 89.6426 53.0335 89.5319C53.1303 88.9949 53.1994 88.5753 53.1994 88.5753L50.189 88.7367C50.189 88.7367 50.1936 89.1931 50.212 89.7417V89.7394Z" fill="#EB977D"/>
<path d="M39.645 88.2066C40.0069 88.285 40.378 88.3242 40.7492 88.3611C41.3508 88.4233 41.9547 88.4832 42.5564 88.5455C42.78 88.1628 42.939 87.8816 42.939 87.8816L40.0576 86.9918C40.0576 86.9918 39.8502 87.5773 39.645 88.2066Z" fill="#EB977D"/>
<path d="M43.8866 71.3101C43.8866 71.3101 40.021 84.085 39.1289 87.3467L43.0314 88.4693C43.0314 88.4693 49.3382 76.4966 50.8365 72.0063C50.8365 72.0063 49.8753 84.9148 49.82 89.1101L53.5612 89.4836C53.5612 89.4836 56.8759 77.7252 56.8229 72.1653C56.7699 66.6054 50.8365 67.675 50.8365 67.675L43.8866 71.3101Z" fill="#ED6C6B"/>
<path d="M54.6584 68.166C53.5635 67.9494 52.4617 67.7557 51.3575 67.6151C51.0348 67.6405 50.8343 67.675 50.8343 67.675L43.8844 71.3102C43.8844 71.3102 43.6769 71.9925 43.3496 73.0828C43.5801 73.1935 43.8245 73.2718 44.0688 73.341C46.0443 73.8965 48.1327 74.0371 50.1658 73.7628C50.4378 73.1013 50.6637 72.5065 50.832 72.0063C50.832 72.0063 50.7467 73.1428 50.6268 74.8508C52.7245 74.6826 54.7991 74.2308 56.7768 73.5093C56.8068 73.0321 56.8229 72.5826 56.8183 72.1677C56.7976 69.9225 55.8156 68.7584 54.6538 68.1683L54.6584 68.166Z" fill="#222859"/>
<path d="M37.1162 62.8458C36.5099 63.2376 35.8507 63.8623 35.5487 64.4501C35.2467 65.0379 35.5487 65.93 35.9406 66.285C36.3324 66.64 37.0263 66.5708 37.2775 66.4095C37.5265 66.2481 37.5795 65.8032 37.3121 65.7502C37.0447 65.6972 36.8672 65.2684 36.8672 65.2684C36.8672 65.2684 37.402 64.7867 37.5265 64.9111C37.651 65.0356 38.7021 64.4132 38.951 64.0744C39.2 63.7355 38.0613 62.7374 38.0613 62.7374L37.1162 62.8435V62.8458Z" fill="#EBBA9D"/>
<path d="M38.0616 62.7397L37.1165 62.8458C37.0681 62.8757 37.022 62.9103 36.9736 62.9449C37.3701 63.5281 37.845 64.0583 38.3705 64.5285C38.3774 64.5331 38.3844 64.54 38.389 64.5446C38.631 64.3856 38.8546 64.2081 38.9514 64.0744C39.2004 63.7355 38.0616 62.7374 38.0616 62.7374V62.7397Z" fill="#EB977D"/>
<path d="M65.9417 39.9263C65.9417 39.9263 66.3267 38.8175 66.7116 38.1974C67.0966 37.5774 68.0417 37.3999 68.0417 37.3999C68.0417 37.3999 69.1504 36.0399 69.3417 35.8762C69.5331 35.7125 69.918 35.8324 69.888 36.0675C69.8581 36.3049 69.1181 37.3676 69.1181 37.3676C69.1181 37.3676 69.3994 37.5751 69.3994 37.8701C69.3994 37.8701 69.6645 38.0476 69.5907 38.4026C69.5907 38.4026 69.8419 38.5939 69.7682 38.889C69.6944 39.184 69.3325 39.5229 69.0951 39.9677C68.8577 40.4103 68.3782 40.8137 68.2145 41.0189C68.0509 41.2263 67.417 41.7427 67.417 41.7427C67.417 41.7427 65.9094 40.3665 65.9394 39.924L65.9417 39.9263Z" fill="#EBBA9D"/>
<path d="M67.4193 41.7449C67.4193 41.7449 67.8181 41.4198 68.0647 41.1824C67.4539 40.7675 66.8753 40.3065 66.3405 39.7993C66.2552 39.7187 66.1676 39.6357 66.0731 39.5665C65.9901 39.7809 65.9394 39.9284 65.9394 39.9284C65.9094 40.371 67.417 41.7472 67.417 41.7472L67.4193 41.7449Z" fill="#EB977D"/>
<path d="M48.054 39.4422C49.1781 39.4422 50.0894 38.5309 50.0894 37.4067C50.0894 36.2826 49.1781 35.3713 48.054 35.3713C46.9298 35.3713 46.0186 36.2826 46.0186 37.4067C46.0186 38.5309 46.9298 39.4422 48.054 39.4422Z" fill="#222859"/>
<path d="M49.2848 48.0309C46.9866 48.6463 46.0784 49.0198 45.0089 49.981C43.9393 50.9422 36.7773 62.7029 36.7773 62.7029C36.7773 62.7029 38.1673 64.2888 39.1285 64.5562L47.4131 55.2735C47.4131 55.2735 43.6719 67.9424 42.3349 71.3631C42.3349 71.3631 51.8504 75.48 57.5164 72.9675C57.5164 72.9675 59.5472 58.6413 58.4776 52.3345C58.4776 52.3345 65.8263 46.0808 67.8594 41.8048L65.8309 39.5481C65.8309 39.5481 61.0547 45.8111 55.0315 46.9636L52.3852 47.5791L49.2848 48.0332V48.0309Z" fill="#FFCE5E"/>
<path d="M50.1934 45.3846C50.1934 45.3846 50.221 46.4012 50.1934 46.9613C50.1657 47.5215 49.2852 48.0309 49.2852 48.0309C49.2852 48.0309 52.0121 49.5269 52.8926 49.7413C52.8926 49.7413 54.603 48.0839 55.0318 46.9613C55.0318 46.9613 54.55 47.0143 54.2042 46.7746C53.8562 46.5349 53.5634 44.8499 53.5634 44.8499L50.1957 45.3846H50.1934Z" fill="#EBBA9D"/>
<path d="M53.8283 45.9955C53.6669 45.4584 53.5609 44.8499 53.5609 44.8499L50.1931 45.3846C50.1931 45.3846 50.2208 46.4012 50.1931 46.9613C50.1862 47.0904 50.1332 47.2195 50.0571 47.3371C50.2577 47.4316 50.472 47.4915 50.6933 47.5053C50.9676 47.5238 51.2443 47.4777 51.5093 47.4085C52.3991 47.178 53.2128 46.6755 53.8283 45.9955Z" fill="#EB977D"/>
<path d="M47.5211 42.2959C47.5211 42.2959 46.2948 42.4757 46.7028 43.536C47.1085 44.5964 47.8945 44.0063 47.8945 44.0063C47.8945 44.0063 49.3974 47.1458 51.9884 46.6617C55.0403 46.0901 55.3861 42.6416 54.4687 40.4841C54.4687 40.4841 52.832 39.7649 51.8892 38.7714C51.8892 38.7714 50.7229 40.2097 49.9553 40.2858C49.1854 40.3596 49.1116 42.2705 47.5234 42.2959H47.5211Z" fill="#EBBA9D"/>
<path d="M47.7037 43.2732C47.6369 43.1602 47.5378 43.0634 47.4225 43.0012C47.3603 42.9666 47.2888 42.9366 47.2173 42.9251C47.1759 42.9182 47.1344 42.9136 47.0929 42.9136C47.0698 42.9136 47.0445 42.9136 47.0214 42.9205C46.9984 42.9274 46.9753 42.9389 46.9523 42.9505C46.9085 42.9735 46.8854 43.0288 46.8923 43.0772C46.8992 43.1303 46.9338 43.1648 46.9822 43.181C47.003 43.1879 47.0191 43.1948 47.0399 43.1971C47.0445 43.1971 47.0491 43.1971 47.0537 43.1971C47.0583 43.1971 47.0652 43.1971 47.0698 43.1994C47.0975 43.204 47.1251 43.2132 47.1528 43.2225C47.1666 43.2271 47.1805 43.2317 47.1943 43.2363C47.1943 43.2363 47.1897 43.2363 47.1874 43.234C47.1874 43.234 47.192 43.234 47.1943 43.2363C47.1943 43.2363 47.1943 43.2363 47.1966 43.2363C47.2058 43.2409 47.2127 43.2432 47.1966 43.2363C47.2012 43.2363 47.2058 43.2409 47.2104 43.2432C47.2381 43.257 47.2634 43.2709 47.2888 43.2893C47.2888 43.2893 47.2934 43.2939 47.298 43.2962C47.3072 43.3031 47.3165 43.3124 47.3257 43.3216C47.3049 43.3423 47.2888 43.3654 47.2773 43.3907C47.2312 43.4806 47.2335 43.5913 47.2888 43.6743C47.3626 43.7872 47.5009 43.8195 47.6207 43.7619C47.7152 43.7181 47.7683 43.6212 47.7752 43.5198C47.7821 43.4322 47.7475 43.3446 47.706 43.2709L47.7037 43.2732Z" fill="#EB977D"/>
<path d="M54.4692 40.4841C54.4692 40.4841 52.8326 39.7649 51.8898 38.7714C51.8898 38.7714 50.7234 40.2097 49.9558 40.2858C49.1859 40.3596 49.1121 42.2705 47.5239 42.2959C48.0587 42.4203 48.7525 42.501 49.0476 41.9386C49.3427 41.3784 49.6631 40.4956 50.3039 40.5209C50.9447 40.5486 51.6132 39.8271 51.8806 39.2116C51.8806 39.2116 53.2406 40.4725 54.4715 40.4841H54.4692Z" fill="#EB977D"/>
<path d="M69.6573 38.391C69.6642 38.3357 69.6665 38.2781 69.6573 38.2227C69.6481 38.1397 69.6297 38.0498 69.5836 37.9784C69.5536 37.9323 69.5029 37.8908 69.4499 37.8862C69.4591 37.8263 69.4637 37.7663 69.4545 37.7064C69.4268 37.5404 69.3046 37.3791 69.1271 37.3745C69.2424 37.2108 69.3577 37.0494 69.4706 36.8858C69.5559 36.7636 69.6458 36.6437 69.7288 36.517C69.8002 36.404 69.8463 36.2911 69.8786 36.162C69.8786 36.1551 69.8717 36.1504 69.8671 36.1551C69.5098 36.5769 69.1963 37.0379 68.8759 37.4874C68.7422 37.4183 68.5716 37.3883 68.4471 37.3721C68.1452 37.333 67.834 37.3768 67.5528 37.4943C67.4121 37.5543 67.2761 37.6257 67.1517 37.7133C67.0664 37.7755 66.8981 37.8747 66.9004 37.9945C66.9004 37.9968 66.9027 38.0014 66.9073 38.0014C67.0018 37.9968 67.0848 37.8908 67.1563 37.8401C67.2577 37.7663 67.366 37.7041 67.4813 37.6557C67.7072 37.5635 67.9654 37.5197 68.2097 37.5266C68.3319 37.5289 68.4541 37.545 68.5716 37.575C68.6615 37.5957 68.8667 37.6303 68.8805 37.741C68.8989 37.8862 68.7238 37.9507 68.6154 37.9738C68.4679 38.0061 68.3181 38.0222 68.1705 38.0522C68.1152 38.0637 68.076 38.1328 68.0945 38.1858C68.1544 38.3518 68.1544 38.5224 68.0991 38.6884C68.0414 38.8612 67.9285 38.9788 67.7925 39.0918C67.7003 39.1678 67.8178 39.3061 67.917 39.2508C68.1751 39.1079 68.3204 38.8174 68.3434 38.5201C68.3665 38.557 68.3987 38.5869 68.4333 38.6146C68.4794 38.6492 68.5324 38.6653 68.5831 38.6745C68.567 38.7898 68.6269 38.9097 68.7307 38.9673C68.7791 38.9949 68.8321 39.0065 68.8874 39.0111C68.8828 39.0364 68.8805 39.0595 68.8782 39.0779C68.8736 39.1471 68.8989 39.2231 68.9381 39.2808C69.0303 39.4168 69.1802 39.4352 69.3346 39.4145C69.4798 39.3937 69.6112 39.3038 69.708 39.1932C69.7979 39.0895 69.8671 38.935 69.8602 38.7967C69.8533 38.6515 69.791 38.4924 69.6758 38.4002C69.6688 38.3956 69.6619 38.3933 69.655 38.3887L69.6573 38.391ZM68.6546 38.5293C68.5785 38.5247 68.5048 38.4855 68.4679 38.4187C68.4517 38.3887 68.4425 38.3541 68.4402 38.3195C68.4402 38.2919 68.4402 38.2619 68.4356 38.2343C68.7053 38.1928 69.0188 38.119 69.0741 37.8378C69.0972 37.7225 69.058 37.6372 68.9911 37.5727C69.028 37.5197 69.0649 37.469 69.1018 37.4159C69.1018 37.4229 69.1064 37.4298 69.1156 37.4344C69.2562 37.5035 69.3484 37.6442 69.3369 37.8032C69.3231 37.9853 69.2032 38.1397 69.0741 38.2596C69.0096 38.3219 68.9404 38.3795 68.8713 38.4371C68.809 38.4855 68.7376 38.5362 68.6546 38.5316V38.5293ZM68.7007 38.6791C68.7745 38.6699 68.8459 38.6423 68.9105 38.5962C69.058 38.4878 69.2032 38.3518 69.3139 38.2043C69.3577 38.1467 69.3899 38.0821 69.4176 38.0153C69.4337 38.0199 69.4476 38.0268 69.4591 38.0452C69.4775 38.0729 69.4821 38.1052 69.4914 38.1374C69.5098 38.2066 69.519 38.2757 69.5144 38.3449C69.5052 38.4947 69.4222 38.6031 69.3092 38.6976C69.2032 38.7852 69.0718 38.882 68.9266 38.8843C68.8113 38.8843 68.6846 38.8036 68.7007 38.6791ZM69.7057 38.8359C69.685 38.9696 69.5928 39.0895 69.4914 39.1793C69.4337 39.2301 69.3738 39.2623 69.2977 39.2739C69.2355 39.2831 69.1502 39.2923 69.0949 39.2554C69.0349 39.2162 69.0119 39.1494 68.9958 39.0825C68.9911 39.0595 68.9888 39.0387 68.9865 39.0157C69.0534 39.0065 69.1202 38.988 69.1802 38.9581C69.3162 38.8935 69.4568 38.7921 69.549 38.6722C69.5789 38.633 69.602 38.5892 69.6181 38.5454C69.6988 38.6215 69.7196 38.7275 69.7034 38.8382L69.7057 38.8359Z" fill="#EB977D"/>
<path d="M37.3098 65.7202C37.1646 65.7317 37.0194 65.7548 36.8742 65.7202C36.7405 65.6879 36.6206 65.6211 36.5261 65.5197C36.4362 65.4205 36.3763 65.2891 36.3578 65.1578C36.344 65.0609 36.3578 64.9687 36.3878 64.8811C36.427 64.8627 36.4616 64.8281 36.4915 64.8028C36.5284 64.7728 36.5791 64.7405 36.6229 64.7106C36.669 64.6806 36.7197 64.6552 36.7681 64.6299C36.8212 64.6045 36.8719 64.5815 36.9157 64.54C36.941 64.5169 36.9272 64.4778 36.8972 64.4685C36.8327 64.4455 36.7681 64.4593 36.7059 64.4824C36.646 64.5054 36.5883 64.5354 36.5353 64.5723C36.5261 64.5792 36.5192 64.5861 36.51 64.593C36.5238 64.5584 36.5307 64.5239 36.5261 64.4893C36.5123 64.4201 36.4477 64.3971 36.3878 64.434C36.321 64.4731 36.2679 64.5815 36.2357 64.6506C36.1988 64.7313 36.1642 64.8143 36.1458 64.9019C36.0835 65.1969 36.1734 65.515 36.3924 65.7271C36.5146 65.8447 36.6736 65.9277 36.8419 65.9576C37.0125 65.9876 37.2061 65.983 37.3513 65.8816C37.4136 65.8378 37.3997 65.7156 37.3075 65.7248L37.3098 65.7202Z" fill="#EB977D"/>
<path d="M36.987 65.8932C37.3728 65.8932 37.6855 65.5805 37.6855 65.1948C37.6855 64.809 37.3728 64.4963 36.987 64.4963C36.6013 64.4963 36.2886 64.809 36.2886 65.1948C36.2886 65.5805 36.6013 65.8932 36.987 65.8932Z" fill="#ED6C6B"/>
<path d="M32.0912 73.4976C32.0105 73.4976 31.9299 73.4769 31.8584 73.4308C31.6509 73.3017 31.5864 73.0297 31.7155 72.8223L36.6115 64.9596C36.7406 64.7521 37.0149 64.6899 37.2201 64.8166C37.4275 64.9457 37.4921 65.2177 37.363 65.4252L32.4669 73.2879C32.384 73.4216 32.2387 73.4976 32.0912 73.4976Z" fill="#222859"/>
<path d="M43.5315 87.1417C43.0406 87.0126 42.5519 86.872 42.0655 86.7221C41.5791 86.5723 41.0974 86.4132 40.6179 86.245C40.3874 86.1643 40.1546 86.0813 39.9264 85.9937C39.8042 85.9476 39.6797 85.8946 39.5529 85.8462C39.5368 85.8992 39.523 85.9545 39.5068 86.0052C39.6152 86.049 39.7258 86.0882 39.8342 86.132C39.9264 86.1689 40.0163 86.2012 40.1085 86.2358C40.0716 86.2957 40.0347 86.3487 40.0093 86.4179C39.9771 86.5008 39.9494 86.5861 39.9218 86.6714C39.8664 86.842 39.8134 87.0126 39.765 87.1855C39.735 87.2915 39.7097 87.3975 39.682 87.5059L39.8757 87.5612C39.9033 87.4552 39.931 87.3468 39.9609 87.2408C40.0093 87.0679 40.0555 86.8973 40.1062 86.7244C40.1315 86.6391 40.1569 86.5539 40.1799 86.4663C40.1984 86.3994 40.2007 86.3372 40.2053 86.2726C40.3113 86.3118 40.4174 86.3533 40.5234 86.3925C40.694 86.4547 40.8645 86.5147 41.0328 86.5746C40.9706 86.6922 40.9452 86.8397 40.9106 86.9619C40.8645 87.1278 40.8161 87.2938 40.77 87.4598C40.7401 87.5681 40.7055 87.6788 40.6732 87.7871L40.8715 87.8447C40.9014 87.7341 40.9314 87.6211 40.9614 87.5128C41.0075 87.3468 41.0559 87.1808 41.102 87.0149C41.1342 86.8973 41.1896 86.7636 41.2011 86.6345C41.4639 86.7244 41.7266 86.8143 41.9917 86.8973C42.0217 86.9065 42.054 86.9158 42.0839 86.925C42.0332 87.0679 41.9963 87.2131 41.9526 87.3583C41.9018 87.5289 41.8511 87.6995 41.7981 87.8678C41.7751 87.9415 41.7474 88.0153 41.7197 88.0868L41.9018 88.1398C41.9249 88.0637 41.9479 87.9876 41.971 87.9162C42.0655 87.6119 42.1715 87.2869 42.2084 86.9642C42.4505 87.0402 42.6925 87.114 42.9368 87.1832C42.9023 87.2431 42.8838 87.3122 42.8631 87.3745C42.8354 87.4575 42.8077 87.5381 42.7778 87.6211C42.7201 87.7848 42.6602 87.9484 42.5957 88.1098C42.568 88.179 42.5404 88.2458 42.5127 88.315L42.6902 88.3657C42.7155 88.3034 42.7409 88.2389 42.7663 88.1767C42.8262 88.013 42.8861 87.8493 42.9414 87.6857C42.9691 87.6027 42.9968 87.522 43.0244 87.439C43.0475 87.3699 43.0774 87.2984 43.0844 87.2246C43.2065 87.2592 43.3287 87.2961 43.4509 87.3284C43.5016 87.3422 43.55 87.3537 43.6007 87.3676C43.633 87.3076 43.6652 87.2454 43.6975 87.1785C43.6422 87.1647 43.5846 87.1509 43.5292 87.1347L43.5315 87.1417Z" fill="#222859"/>
<path d="M53.8562 88.1144C53.349 88.0775 52.8419 88.0291 52.3371 87.9715C51.8323 87.9138 51.3275 87.8447 50.8249 87.7663C50.5829 87.7294 50.3409 87.6902 50.0988 87.6464C50.0205 87.6326 49.9421 87.6165 49.8614 87.6003C49.8614 87.6557 49.8568 87.711 49.8545 87.7663C49.9144 87.7778 49.9744 87.7871 50.032 87.7986C50.1288 87.817 50.2256 87.8332 50.3201 87.8516C50.2925 87.9161 50.2671 87.9761 50.2556 88.0498C50.2394 88.1374 50.2279 88.2273 50.2164 88.3149C50.1933 88.4924 50.1726 88.6699 50.1565 88.8474C50.1472 88.9442 50.1403 89.0433 50.1334 89.1401L50.3386 89.1609C50.3455 89.0618 50.3524 88.9627 50.3616 88.8658C50.3777 88.6883 50.3916 88.5109 50.41 88.3311C50.4192 88.2412 50.4285 88.1536 50.4354 88.0637C50.44 87.9945 50.4331 87.9346 50.4239 87.87C50.5345 87.8908 50.6474 87.9115 50.7581 87.93C50.9356 87.9599 51.1154 87.9876 51.2929 88.0153C51.2537 88.142 51.256 88.2919 51.2445 88.4187C51.2283 88.5915 51.2122 88.7621 51.1961 88.935C51.1868 89.0364 51.1753 89.1402 51.1638 89.2439L51.3689 89.2646C51.3782 89.1609 51.3851 89.0549 51.3943 88.9534C51.4104 88.7806 51.4266 88.61 51.4404 88.4371C51.4519 88.3149 51.4796 88.1743 51.4681 88.0452C51.7424 88.0867 52.0167 88.1236 52.2933 88.1582C52.3256 88.1628 52.3578 88.1651 52.3901 88.1697C52.3671 88.3172 52.3578 88.4694 52.3417 88.6192C52.3233 88.7967 52.3048 88.9719 52.2818 89.1494C52.2725 89.2162 52.261 89.2854 52.2495 89.3522L52.4385 89.3707C52.4477 89.3015 52.4546 89.23 52.4616 89.1632C52.4984 88.8451 52.5445 88.5062 52.5215 88.1835C52.7728 88.2135 53.0263 88.2412 53.2776 88.2665C53.2545 88.3311 53.2499 88.4025 53.2407 88.4694C53.2292 88.5547 53.2153 88.6422 53.2015 88.7275C53.1738 88.9004 53.1462 89.071 53.1139 89.2416C53.1024 89.3061 53.0886 89.3707 53.0747 89.4352L53.2614 89.4536C53.273 89.3937 53.2845 89.3361 53.2937 89.2761C53.3237 89.1056 53.3513 88.9327 53.3767 88.7621C53.3882 88.6768 53.3997 88.5892 53.4113 88.5039C53.4205 88.4325 53.4366 88.3564 53.4297 88.2827C53.5565 88.2942 53.6833 88.308 53.8101 88.3172C53.8308 88.3172 53.8538 88.3195 53.8746 88.3218C53.893 88.2573 53.9092 88.1881 53.9276 88.119C53.9023 88.119 53.8769 88.1167 53.8515 88.1144H53.8562Z" fill="#222859"/>
<path d="M55.5527 46.8484C55.5181 46.9452 55.4812 47.0398 55.4397 47.1366C55.2553 47.5561 55.0294 47.9572 54.7805 48.3398C54.2826 49.1074 53.6971 49.8128 53.1047 50.5066C52.2933 50.1931 51.5026 49.8266 50.7443 49.4002C50.3639 49.1858 49.9859 48.9645 49.6194 48.7248C49.4396 48.6072 49.2621 48.4874 49.0846 48.3652C48.9901 48.3007 48.8979 48.2292 48.8011 48.1623C48.7342 48.1808 48.672 48.1992 48.6074 48.2154C48.7135 48.3168 48.8402 48.3998 48.9555 48.4874C49.1399 48.6257 49.3312 48.7571 49.5225 48.8861C49.8914 49.1351 50.2717 49.3725 50.659 49.5892C51.445 50.0272 52.2633 50.4098 53.1047 50.7325C53.137 50.7441 53.1854 50.7325 53.2084 50.7049C53.8331 49.9742 54.4647 49.2411 54.981 48.4274C55.3014 47.9226 55.6057 47.3625 55.8063 46.777C55.721 46.8 55.6357 46.8231 55.5504 46.8438L55.5527 46.8484Z" fill="#ED6C6B"/>
<path d="M66.679 41.5144C66.3794 41.1732 66.0889 40.8252 65.8008 40.4748C65.6786 40.3273 65.5587 40.1774 65.4389 40.0276C65.4089 40.0622 65.3813 40.0967 65.3467 40.1359C65.455 40.2835 65.5634 40.4287 65.674 40.5739C65.9483 40.9335 66.2364 41.2862 66.5246 41.6342C66.8104 41.98 67.1032 42.3235 67.4005 42.66C67.4443 42.5863 67.4835 42.5148 67.525 42.441C67.2392 42.1368 66.9556 41.8279 66.6813 41.5144H66.679Z" fill="#ED6C6B"/>
<path d="M39.899 63.6941C39.4979 63.4728 39.106 63.24 38.7257 62.9795C38.32 62.7029 37.9304 62.4032 37.5593 62.0851C37.4717 62.009 37.3864 61.9284 37.2988 61.8523C37.2711 61.8984 37.2435 61.9445 37.2158 61.9883C37.3034 62.0713 37.3864 62.1566 37.4763 62.2372C37.8359 62.5577 38.2139 62.8596 38.6058 63.1408C38.97 63.4013 39.3503 63.648 39.7445 63.8716L39.899 63.6987V63.6941Z" fill="#ED6C6B"/>
<path d="M57.6501 71.9671C57.6594 71.891 57.6709 71.8103 57.6801 71.725C57.309 71.8726 56.9286 71.997 56.5368 72.0985C55.4073 72.3912 54.2386 72.5088 53.0722 72.5019C51.8228 72.495 50.5781 72.3405 49.3541 72.1054C48.1831 71.8818 47.0236 71.6029 45.8826 71.2548C45.2418 71.0589 44.6056 70.8445 43.9786 70.6094C43.5775 70.4595 43.181 70.2959 42.7845 70.1345C42.7707 70.176 42.7546 70.2175 42.7407 70.259C43.6051 70.667 44.5157 70.9989 45.4146 71.3032C46.5626 71.6928 47.7336 72.0201 48.923 72.2621C51.3203 72.7508 53.8167 72.9606 56.2187 72.3981C56.6981 72.2852 57.1799 72.1423 57.6501 71.9671Z" fill="#ED6C6B"/>
<path d="M47.8881 52.8509C47.8765 52.8302 47.8512 52.8302 47.835 52.844C47.7336 52.9339 47.729 53.116 47.706 53.2428C47.6737 53.411 47.6391 53.577 47.6045 53.743C47.5331 54.0864 47.4616 54.4276 47.3856 54.7711C47.3371 54.9947 47.2841 55.2159 47.2311 55.4372C47.2311 55.4372 47.2288 55.4372 47.2265 55.4372C47.1781 55.4672 47.1481 55.5179 47.1136 55.564C47.079 55.6101 47.0444 55.6539 47.0098 55.7C46.9752 55.7438 46.943 55.7876 46.9084 55.8314C46.8738 55.8775 46.8439 55.9259 46.8139 55.972C46.7885 56.0112 46.8462 56.055 46.8784 56.0204C46.9153 55.9789 46.9545 55.9397 46.9891 55.8983C47.0237 55.8545 47.0605 55.8084 47.0951 55.7646C47.1251 55.7277 47.1527 55.6908 47.1827 55.6562C47.1735 55.6931 47.1666 55.7323 47.1573 55.7692C47.079 56.0965 46.9937 56.4238 46.966 56.7604C46.9637 56.7949 47.0167 56.8088 47.0329 56.7788C47.1781 56.4745 47.2588 56.1472 47.3418 55.8199C47.427 55.481 47.5077 55.1399 47.5815 54.7964C47.6553 54.4622 47.7244 54.1279 47.7843 53.7937C47.8166 53.6162 47.8466 53.4387 47.8765 53.2612C47.8973 53.1367 47.9549 52.9662 47.8904 52.8509H47.8881Z" fill="#ED6C6B"/>
<path d="M58.8579 51.8666C58.8118 51.8827 58.7703 51.9127 58.7312 51.9427C58.6897 51.9726 58.6528 52.0118 58.6205 52.051C58.5882 52.0902 58.5583 52.1294 58.5283 52.1732C58.5191 52.1847 58.5122 52.1985 58.503 52.2123C58.503 52.2031 58.5007 52.1962 58.4983 52.187C58.4776 52.0602 58.4569 51.9357 58.4338 51.809C58.4177 51.7144 58.4131 51.6153 58.337 51.5508H58.3324C58.2794 51.6338 58.307 51.7306 58.3162 51.8228C58.3324 51.9496 58.3485 52.0763 58.3646 52.2031C58.3969 52.4567 58.4246 52.7102 58.4569 52.9638C58.5191 53.4594 58.5675 53.9573 58.6574 54.4506C58.6666 54.5082 58.7588 54.4944 58.7565 54.4368C58.745 53.925 58.6758 53.4179 58.609 52.9108C58.5859 52.7333 58.556 52.5558 58.5283 52.3806C58.5375 52.3783 58.5468 52.376 58.5514 52.3691C58.5859 52.3345 58.6067 52.2861 58.6343 52.2446C58.6597 52.2054 58.6851 52.1709 58.7104 52.1386C58.7404 52.1017 58.7727 52.0694 58.8026 52.0326C58.8349 51.9957 58.8695 51.9611 58.8971 51.9219C58.9156 51.8965 58.8856 51.8574 58.8556 51.8666H58.8579Z" fill="#ED6C6B"/>
<path d="M56.6408 62.9289C56.5094 62.9888 56.4034 63.0925 56.2881 63.1778C56.1706 63.2654 56.053 63.3507 55.9308 63.4314C55.6865 63.5904 55.4283 63.7311 55.1632 63.8486C54.6331 64.0837 54.0614 64.2267 53.4851 64.2751C52.298 64.3765 51.1155 64.0768 50.0782 63.5052C49.4742 63.1709 48.9602 62.7376 48.4231 62.3111C48.4024 62.295 48.3655 62.3157 48.3839 62.3411C48.7435 62.8298 49.2391 63.2124 49.7462 63.5397C50.2672 63.874 50.8412 64.1344 51.4382 64.3027C52.6299 64.6416 53.9185 64.5978 55.0756 64.1506C55.3914 64.0284 55.6957 63.8786 55.9815 63.6942C56.1245 63.602 56.2651 63.5029 56.3965 63.3945C56.5232 63.2885 56.6615 63.1801 56.7376 63.0303C56.7699 62.9635 56.7053 62.9035 56.6408 62.9335V62.9289Z" fill="#ED6C6B"/>
<path d="M50.1357 41.6158C50.1552 41.6182 50.1576 41.6134 50.1406 41.6158C50.1406 41.6158 50.1406 41.6158 50.1382 41.6158H50.1357Z" fill="#222859"/>
<path d="M50.3477 41.4753C50.3108 41.3416 50.1679 41.3254 50.0504 41.3347C49.8936 41.3462 49.7392 41.3969 49.6124 41.4914C49.534 41.549 49.4695 41.6136 49.4142 41.6942C49.3542 41.7795 49.3289 41.8763 49.3058 41.9778C49.2897 42.0538 49.322 42.1322 49.398 42.1645C49.4649 42.1921 49.5617 42.1714 49.594 42.0999C49.6262 42.0262 49.6608 41.9524 49.7046 41.8856C49.7069 41.881 49.7115 41.8763 49.7161 41.8694C49.7161 41.8694 49.7161 41.8671 49.7184 41.8671C49.73 41.8487 49.7277 41.8556 49.723 41.8625C49.73 41.8533 49.7415 41.8418 49.7438 41.8372C49.7553 41.8256 49.7668 41.8141 49.7784 41.8026C49.7853 41.798 49.7922 41.7911 49.7968 41.7864C49.8222 41.7703 49.8452 41.7519 49.8729 41.738C49.8775 41.7357 49.9121 41.7219 49.919 41.715C49.9259 41.7127 49.9351 41.7104 49.942 41.7058C49.9697 41.6966 49.9996 41.6896 50.0296 41.6827C50.0273 41.6827 50.0296 41.6827 50.025 41.6827C50.025 41.6827 50.0296 41.6827 50.0319 41.6827C50.0365 41.6827 50.0411 41.6827 50.0434 41.6827C50.0619 41.6827 50.0803 41.6827 50.0988 41.6827C50.1541 41.6827 50.2117 41.6966 50.2624 41.662C50.327 41.6205 50.3685 41.5536 50.3477 41.4753Z" fill="#222859"/>
<path d="M49.8218 41.7989C49.8218 41.7989 49.827 41.7936 49.8297 41.791L49.8244 41.7963L49.8218 41.7989Z" fill="#222859"/>
<path d="M53.229 40.484C53.1345 40.3895 52.9754 40.3503 52.844 40.3342C52.7103 40.318 52.572 40.3296 52.4429 40.3757C52.3277 40.4171 52.224 40.4886 52.1387 40.5785C52.0972 40.6223 52.0626 40.6707 52.0326 40.7214C52.0188 40.7445 52.005 40.7698 51.9958 40.7975C51.975 40.8528 51.9773 40.8943 51.9911 40.9496C52.0119 41.0372 52.1387 41.0672 52.2055 41.0165C52.2562 40.9773 52.2793 40.9312 52.3069 40.8782C52.3092 40.8736 52.3069 40.8736 52.3069 40.8736C52.3069 40.8736 52.3069 40.8713 52.3116 40.8666C52.3185 40.8574 52.3231 40.8505 52.33 40.8413C52.3438 40.8228 52.36 40.8067 52.3761 40.7906C52.3784 40.7883 52.3761 40.7883 52.3784 40.7883C52.3876 40.7791 52.3991 40.7721 52.4084 40.7629C52.4245 40.7514 52.4406 40.7376 52.4591 40.7283C52.466 40.7237 52.4706 40.7214 52.4775 40.7168C52.4775 40.7168 52.4937 40.7076 52.496 40.7076C52.5167 40.6984 52.5398 40.6892 52.5605 40.6822C52.5697 40.6799 52.5812 40.6753 52.5905 40.673C52.5928 40.673 52.5997 40.6707 52.602 40.6707C52.6274 40.6661 52.6504 40.6615 52.6758 40.6615C52.7357 40.6569 52.7449 40.6569 52.7979 40.6638C52.8233 40.6684 52.8509 40.673 52.8763 40.6776C52.8878 40.6799 52.8994 40.6845 52.9109 40.6868C52.9155 40.6868 52.9178 40.6868 52.9178 40.6868C52.9201 40.6868 52.9247 40.6892 52.927 40.6915C52.9846 40.7122 53.0377 40.7376 53.0976 40.7514C53.1644 40.7675 53.2359 40.726 53.2636 40.6661C53.2935 40.6016 53.2728 40.5301 53.2244 40.4817L53.229 40.484Z" fill="#222859"/>
<path d="M50.6797 42.4664C50.6244 42.282 50.5183 42.0999 50.3385 42.0515C50.2256 42.0215 50.108 42.0515 50.0204 42.1298C49.889 42.2474 49.8729 42.4318 49.8983 42.5955C49.919 42.7384 49.9951 42.8882 50.1057 42.9804C50.3708 43.2017 50.7419 43.0657 50.7212 42.7038C50.7166 42.63 50.7027 42.5471 50.6797 42.4641V42.4664Z" fill="#222859"/>
<path d="M53.3516 41.5766C53.2963 41.3922 53.1902 41.2101 53.0104 41.1617C52.8975 41.1317 52.7799 41.1617 52.6923 41.2401C52.5609 41.3576 52.5448 41.542 52.5701 41.7057C52.5909 41.8486 52.667 41.9984 52.7776 42.0906C53.0427 42.3119 53.4138 42.1759 53.3931 41.814C53.3885 41.7403 53.3746 41.6573 53.3516 41.5743V41.5766Z" fill="#222859"/>
<path d="M52.3533 42.7937C52.3372 42.7338 52.2726 42.7015 52.215 42.7153C52.1943 42.7199 52.1758 42.7315 52.1597 42.743C52.1459 42.7499 52.1343 42.7591 52.1228 42.7707C52.1182 42.7776 52.1159 42.7799 52.1136 42.7845C52.1136 42.7845 52.1136 42.7845 52.109 42.7914C52.0905 42.8121 52.0698 42.8306 52.0491 42.8513C52.0421 42.8559 52.0375 42.8606 52.0306 42.8629C52.0191 42.8698 52.0076 42.879 51.996 42.8859C51.9753 42.8997 51.9453 42.9205 51.92 42.9274C51.92 42.9274 51.92 42.9274 51.9177 42.9274C51.9107 42.9274 51.9038 42.932 51.8969 42.9343C51.8831 42.9389 51.8669 42.9435 51.8531 42.9458C51.8462 42.9458 51.8393 42.9481 51.8324 42.9505C51.8278 42.9505 51.8139 42.9505 51.8162 42.9505C51.807 42.9505 51.7955 42.9505 51.7863 42.9505C51.7563 42.9505 51.7263 42.9505 51.6964 42.9505C51.6825 42.9505 51.671 42.9481 51.6572 42.9505C51.6387 42.9505 51.6226 42.9574 51.6065 42.962C51.5834 42.9666 51.565 42.9966 51.5742 43.0196C51.5903 43.0611 51.6111 43.0865 51.6503 43.1095C51.6825 43.1279 51.7171 43.1418 51.7563 43.1487C51.837 43.1648 51.9177 43.1625 51.9983 43.1487C52.0721 43.1349 52.1436 43.1072 52.2035 43.0611C52.2865 42.9989 52.381 42.909 52.3533 42.7937Z" fill="#EB977D"/>
<path d="M51.1451 44.0962C51.2211 43.944 53.0929 43.2594 53.2704 43.3355C53.4479 43.4115 53.4824 44.412 52.6618 44.76C51.8412 45.1081 51.0229 44.3428 51.1474 44.0962H51.1451Z" fill="#222859"/>
<path d="M52.9455 44.1605C52.6758 44.0891 52.3853 44.1467 52.1364 44.2712C51.9335 44.3726 51.7537 44.5178 51.5854 44.6723C51.8736 44.8382 52.2678 44.9281 52.6619 44.7599C52.9201 44.6492 53.0953 44.474 53.2059 44.285C53.1276 44.2297 53.04 44.1859 52.9478 44.1605H52.9455Z" fill="#ED6C6B"/>
<path d="M53.2703 43.3354C53.0928 43.2616 51.2234 43.9439 51.145 44.0961C51.122 44.1399 51.1312 44.2021 51.1658 44.2713C51.1888 44.2759 51.2119 44.2805 51.2326 44.2805C51.3294 44.2851 51.4262 44.2574 51.5184 44.2298C51.795 44.1491 52.0694 44.0661 52.346 43.9854C52.6318 43.9001 52.9199 43.8149 53.1689 43.6512C53.2357 43.6074 53.3003 43.5544 53.3579 43.4991C53.3395 43.4115 53.3095 43.3515 53.2703 43.3354Z" fill="white"/>
<path d="M50.4355 41.9061C50.1888 41.9061 50.1888 42.2888 50.4355 42.2888C50.6821 42.2888 50.6821 41.9061 50.4355 41.9061Z" fill="white"/>
<path d="M53.0932 41.0233C52.8465 41.0233 52.8465 41.406 53.0932 41.406C53.3398 41.406 53.3398 41.0233 53.0932 41.0233Z" fill="white"/>
<path d="M54.5288 41.9433C54.5887 42.1115 54.4043 42.3328 54.1162 42.4342C53.828 42.5357 53.5468 42.4827 53.4869 42.3121C53.427 42.1438 53.6114 41.9225 53.8995 41.8211C54.1876 41.7197 54.4689 41.7727 54.5288 41.941V41.9433Z" fill="#ED6C6B"/>
<path d="M50.6428 43.4345C50.7096 43.6258 50.5021 43.8748 50.1771 43.9901C49.8521 44.1053 49.534 44.0454 49.4648 43.8541C49.3957 43.6627 49.6055 43.4138 49.9305 43.2985C50.2555 43.1833 50.5736 43.2432 50.6428 43.4345Z" fill="#ED6C6B"/>
<path d="M31.7372 71.832L27.4591 69.3621C26.7315 68.942 25.801 69.1913 25.3809 69.919L15.6269 86.8135C15.2068 87.5411 15.4561 88.4716 16.1837 88.8917L20.4618 91.3616C21.1894 91.7817 22.1199 91.5324 22.54 90.8048L32.294 73.9103C32.7141 73.1826 32.4648 72.2522 31.7372 71.832Z" fill="#697BAE"/>
<path d="M22.6013 91.7218C22.6013 92.4641 21.9997 93.0657 21.2574 93.0657C20.5152 93.0657 19.9136 92.4641 19.9136 91.7218C19.9136 90.9796 20.5152 90.3779 21.2574 90.3779C21.9997 90.3779 22.6013 90.9796 22.6013 91.7218Z" fill="#222859"/>
<path d="M21.2573 92.3327C21.5947 92.3327 21.8682 92.0592 21.8682 91.7218C21.8682 91.3845 21.5947 91.111 21.2573 91.111C20.92 91.111 20.6465 91.3845 20.6465 91.7218C20.6465 92.0592 20.92 92.3327 21.2573 92.3327Z" fill="#9DC9DD"/>
<path d="M26.5357 71.0589L16.8243 87.4782C16.6468 87.7778 17.1125 88.0521 17.2899 87.7525L27.0013 71.3332C27.1788 71.0335 26.7132 70.7592 26.5357 71.0589Z" fill="#495E84"/>
<path d="M28.2716 72.0225L18.5602 88.4418C18.3827 88.7414 18.8483 89.0157 19.0258 88.7161L28.7372 72.2968C28.9147 71.9972 28.4491 71.7229 28.2716 72.0225Z" fill="#495E84"/>
<path d="M30.0098 72.9837L20.2984 89.403C20.1209 89.7026 20.5866 89.9769 20.7641 89.6773L30.4755 73.258C30.653 72.9583 30.1873 72.684 30.0098 72.9837Z" fill="#495E84"/>
<path d="M48.3216 48.2339C48.6189 48.9761 48.2109 54.0266 47.8029 55.6217C47.3949 57.2192 46.0579 58.593 46.0579 58.593L45.5762 60.0775C45.5762 60.0775 47.0238 60.1881 48.1763 58.185C49.3289 56.1819 49.3635 53.9159 49.4026 51.8367C49.4395 49.7575 49.2897 48.0333 49.2897 48.0333L48.3262 48.2362L48.3216 48.2339Z" fill="#697BAE"/>
<path d="M55.0317 46.9614C55.0317 46.9614 56.7513 55.9191 58.9043 57.8853C58.9043 57.8853 59.2017 57.4404 58.9781 56.6221C58.7545 55.8038 56.1197 49.308 56.046 46.7448C56.046 46.7448 55.2069 46.8393 55.0317 46.9591V46.9614Z" fill="#697BAE"/>
<path d="M77.2571 92.6208C85.0712 92.6208 91.4058 91.7044 91.4058 90.5739C91.4058 89.4434 85.0712 88.527 77.2571 88.527C69.443 88.527 63.1084 89.4434 63.1084 90.5739C63.1084 91.7044 69.443 92.6208 77.2571 92.6208Z" fill="#74A7CB"/>
<path d="M66.126 67.3985V66.9352L76.9992 62.129L86.8166 66.8845V67.4331L66.126 67.3985Z" fill="#222859"/>
<path d="M77.0429 62.7791L66.126 67.3985L77.0429 70.538L86.8166 67.4331L77.0429 62.7791Z" fill="#697BAE"/>
<path d="M67.9727 82.0082C65.5339 82.0082 63.5562 83.986 63.5562 86.4248C63.5562 88.8636 65.5339 90.8413 67.9727 90.8413H90.2492V82.0105H67.9727V82.0082Z" fill="#FFCE5E"/>
<path d="M74.4429 82.0082C72.0041 82.0082 70.0264 83.986 70.0264 86.4248C70.0264 88.8636 72.0041 90.8413 74.4429 90.8413H90.249V82.0105H74.4429V82.0082Z" fill="#FF8F3D"/>
<path d="M90.2514 82.801H74.8879C72.8871 82.801 71.2666 84.4215 71.2666 86.4223C71.2666 88.4232 72.8871 90.0437 74.8879 90.0437H90.2514V82.801Z" fill="white"/>
<path d="M85.0858 76.2754C87.1143 76.2754 88.7602 77.5593 88.7602 79.1406C88.7602 80.7242 87.1143 82.0059 85.0858 82.0059H66.5459V76.2731H85.0858V76.2754Z" fill="#697BAE"/>
<path d="M83.2003 79.1405C83.2003 77.5569 81.5544 76.2753 79.5259 76.2753H66.5459V82.0081H79.5259C81.5544 82.0081 83.2003 80.7241 83.2003 79.1428V79.1405Z" fill="#222859"/>
<path d="M66.5459 76.7894H79.3323C80.9966 76.7894 82.3474 77.8429 82.3474 79.1406C82.3474 80.4384 80.9989 81.4918 79.3323 81.4918H66.5459V76.7894Z" fill="white"/>
<path d="M70.1996 71.7159C68.6852 71.7159 67.4565 72.7371 67.4565 73.9957C67.4565 75.2543 68.6852 76.2754 70.1996 76.2754H84.0372V71.7159H70.1996Z" fill="#74A7CB"/>
<path d="M74.1342 71.7159C72.6197 71.7159 71.3911 72.7371 71.3911 73.9957C71.3911 75.2543 72.6197 76.2754 74.1342 76.2754H84.0369V71.7159H74.1342Z" fill="#697BAE"/>
<path d="M84.0366 72.1239H74.4934C73.251 72.1239 72.2437 72.9607 72.2437 73.9933C72.2437 75.026 73.251 75.8628 74.4934 75.8628H84.0366V72.1239Z" fill="white"/>
<path d="M73.3735 83.9743C74.1019 83.9858 74.8326 83.9858 75.561 83.9858C76.981 83.9881 78.4032 83.9905 79.8232 83.9905C82.6838 83.9905 85.5445 83.9858 88.4028 83.9858C89.0182 83.9858 89.6337 83.9858 90.2515 83.9858V83.6747C89.8043 83.6747 89.3548 83.6747 88.9076 83.6747C87.4877 83.6747 86.0654 83.6747 84.6455 83.6747C81.7848 83.6747 78.9265 83.67 76.0659 83.6747C75.2798 83.6747 74.4961 83.6723 73.71 83.6839C73.3182 83.6885 72.9148 83.6793 72.5137 83.6908C72.4192 83.7738 72.327 83.8614 72.2417 83.9559C72.6197 83.9743 73.0001 83.9674 73.3735 83.9743Z" fill="#D5F2F9"/>
<path d="M90.2514 88.5801C89.5529 88.5847 88.8522 88.5962 88.1583 88.5962C86.6485 88.5962 85.141 88.5939 83.6311 88.5916C80.6506 88.5893 77.6701 88.5962 74.6896 88.5985C73.8321 88.5985 72.9769 88.6054 72.1194 88.61C72.0826 88.61 72.0457 88.61 72.0088 88.61C72.071 88.6907 72.1356 88.7691 72.2047 88.8452C72.8294 88.8498 73.4518 88.8521 74.0765 88.8567C75.5863 88.8636 77.0938 88.859 78.6037 88.8613C81.5842 88.8613 84.5647 88.8636 87.5452 88.8613C88.4442 88.8613 89.3501 88.8797 90.2537 88.882V88.5801H90.2514Z" fill="#D5F2F9"/>
<path d="M78.5991 87.2453C81.5796 87.2476 84.5601 87.2476 87.5406 87.2453C88.4396 87.2453 89.3455 87.2615 90.2491 87.2661V86.9641C89.5506 86.9687 88.8499 86.9802 88.156 86.9802C86.6462 86.9802 85.1386 86.9779 83.6288 86.9756C80.6483 86.9733 77.6678 86.9802 74.6873 86.9825C73.8298 86.9825 72.9746 86.9895 72.1171 86.9941C71.8497 86.9941 71.5823 86.9941 71.3149 86.9941C71.3265 87.0725 71.3403 87.1508 71.3587 87.2269C71.5178 87.2269 71.6791 87.2269 71.8382 87.2269C72.5827 87.2315 73.3296 87.2361 74.0742 87.2407C75.584 87.2476 77.0915 87.243 78.6014 87.2453H78.5991Z" fill="#D5F2F9"/>
<path d="M71.8381 85.6111C72.5827 85.6157 73.3295 85.6203 74.0741 85.6249C75.5839 85.6318 77.0915 85.6272 78.6013 85.6295C81.5818 85.6295 84.5623 85.6318 87.5428 85.6295C88.4418 85.6295 89.3477 85.6456 90.2513 85.6502V85.3506C89.5529 85.3552 88.8521 85.3667 88.1583 85.3667C86.6484 85.3667 85.1409 85.3644 83.631 85.3621C80.6505 85.3598 77.67 85.3667 74.6895 85.369C73.832 85.369 72.9769 85.3759 72.1194 85.3806C71.8888 85.3806 71.656 85.3806 71.4232 85.3806C71.4002 85.4566 71.3817 85.535 71.3633 85.6134C71.5223 85.6134 71.6814 85.6134 71.8404 85.6134L71.8381 85.6111Z" fill="#D5F2F9"/>
<path d="M66.5459 77.4048C66.7972 77.4048 67.0484 77.4002 67.2997 77.4002C68.6528 77.4002 70.0059 77.4002 71.3613 77.4025C74.0352 77.4025 76.7091 77.4002 79.383 77.3979C80.0354 77.3979 80.6877 77.3933 81.34 77.391C81.2548 77.331 81.1672 77.2757 81.075 77.225C80.6946 77.225 80.3143 77.2204 79.9339 77.2204C78.5808 77.2158 77.2277 77.2204 75.8723 77.2181C73.1984 77.2181 70.5245 77.2181 67.8506 77.2181C67.4172 77.2181 66.9816 77.2135 66.5459 77.2112V77.4071V77.4048Z" fill="#D5F2F9"/>
<path d="M80.5609 80.5859C79.9063 80.579 79.2539 80.579 78.5993 80.5767C77.3246 80.5767 76.0498 80.5721 74.7751 80.5744C72.2095 80.5744 69.644 80.579 67.0784 80.5767H66.5459V80.7911H66.6266C67.9013 80.7911 69.176 80.7911 70.4507 80.7911C73.0163 80.7911 75.5819 80.7957 78.1475 80.7911C78.8528 80.7911 79.5559 80.7911 80.2613 80.7841C80.667 80.7795 81.0842 80.7887 81.4968 80.7749C81.5636 80.7196 81.6282 80.6643 81.6881 80.6043C81.3147 80.5859 80.9344 80.5882 80.5632 80.5836L80.5609 80.5859Z" fill="#D5F2F9"/>
<path d="M71.3613 78.5182C74.0352 78.5182 76.7091 78.5159 79.383 78.5136C80.1506 78.5136 80.9205 78.509 81.6881 78.5044C81.8679 78.5044 82.05 78.5044 82.2321 78.5044C82.2114 78.4491 82.1906 78.396 82.1653 78.343C82.0892 78.343 82.0154 78.343 81.9394 78.343C81.2709 78.3407 80.6024 78.3361 79.9339 78.3338C78.5808 78.3292 77.2277 78.3338 75.8723 78.3315C73.1984 78.3315 70.5245 78.3315 67.8506 78.3315C67.4172 78.3315 66.9816 78.3292 66.5459 78.3246V78.5182C66.7972 78.5182 67.0484 78.5159 67.2997 78.5159C68.6528 78.5159 70.0059 78.5159 71.3613 78.5182Z" fill="#D5F2F9"/>
<path d="M81.9394 79.4587C81.2709 79.4564 80.6024 79.4518 79.9339 79.4495C78.5808 79.4449 77.2277 79.4495 75.8723 79.4472C73.1984 79.4472 70.5245 79.4472 67.8506 79.4472C67.4172 79.4472 66.9816 79.4449 66.5459 79.4403V79.6339C66.7972 79.6339 67.0484 79.6316 67.2997 79.6316C68.6528 79.6316 70.0059 79.6316 71.3613 79.6339C74.0352 79.6339 76.7091 79.6316 79.383 79.6293C80.1506 79.6293 80.9205 79.6247 81.6881 79.6201C81.8864 79.6201 82.0846 79.6201 82.2828 79.6201C82.2967 79.5671 82.3059 79.5141 82.3151 79.4587C82.1883 79.4587 82.0639 79.4587 81.9394 79.4587Z" fill="#D5F2F9"/>
<path d="M73.6543 72.7093C74.0854 72.7162 74.5164 72.7162 74.9498 72.7162C75.7911 72.7162 76.6325 72.7185 77.4716 72.7185C79.1635 72.7185 80.8578 72.7162 82.5497 72.7162C83.0153 72.7162 83.4787 72.7162 83.9443 72.7162C83.9766 72.7162 84.0065 72.7162 84.0388 72.7162V72.5318C83.6423 72.5318 83.2459 72.5318 82.8494 72.5318C82.008 72.5318 81.1666 72.5318 80.3276 72.5318C78.6356 72.5318 76.9414 72.5295 75.2494 72.5318C74.7838 72.5318 74.3205 72.5318 73.8549 72.5364C73.599 72.541 73.3339 72.5364 73.0734 72.5456C73.0066 72.5894 72.9443 72.6378 72.8867 72.6885C73.1426 72.707 73.4031 72.7047 73.6566 72.707L73.6543 72.7093Z" fill="#D5F2F9"/>
<path d="M84.0366 75.4387C83.4926 75.4387 82.9463 75.4456 82.4023 75.4456C81.5103 75.4456 80.6159 75.4456 79.7238 75.4433C77.9604 75.4433 76.1947 75.4456 74.4313 75.4479C73.9841 75.4479 73.5346 75.4526 73.0874 75.4549C73.1658 75.5079 73.2488 75.554 73.3341 75.5978C73.5784 75.5978 73.8227 75.6001 74.0671 75.6024C74.9591 75.607 75.8535 75.6024 76.7456 75.6047C78.509 75.6047 80.2724 75.6047 82.0381 75.6047C82.702 75.6047 83.3705 75.6208 84.0366 75.6162V75.441V75.4387Z" fill="#D5F2F9"/>
<path d="M76.7476 74.6456C78.511 74.6456 80.2744 74.6456 82.0401 74.6456C82.704 74.6456 83.3725 74.6617 84.0387 74.6571V74.4819C83.4924 74.4819 82.9484 74.4888 82.4044 74.4888C81.5123 74.4888 80.6179 74.4888 79.7258 74.4865C77.9624 74.4865 76.1967 74.4889 74.4333 74.4912C73.9262 74.4912 73.4191 74.4958 72.9119 74.4981C72.7183 74.4981 72.5247 74.4981 72.3311 74.4981C72.3472 74.5442 72.3656 74.5903 72.3841 74.6341C72.5039 74.6341 72.6261 74.6341 72.746 74.6341C73.1862 74.6364 73.6288 74.6387 74.0691 74.641C74.9612 74.6456 75.8556 74.641 76.7476 74.6433V74.6456Z" fill="#D5F2F9"/>
<path d="M72.7464 73.6775C73.1867 73.6798 73.6292 73.6821 74.0695 73.6844C74.9616 73.689 75.856 73.6844 76.7481 73.6844C78.5115 73.6844 80.2749 73.6844 82.0406 73.6844C82.7044 73.6844 83.3729 73.7005 84.0391 73.6959V73.5184C83.4951 73.5184 82.9488 73.5276 82.4048 73.5276C81.5127 73.5276 80.6183 73.5277 79.7262 73.5253C77.9628 73.5253 76.1971 73.5277 74.4337 73.53C73.9266 73.53 73.4195 73.5346 72.9124 73.5369C72.7141 73.5369 72.5159 73.5369 72.3153 73.5369C72.3015 73.5807 72.29 73.6268 72.2808 73.6729C72.4352 73.6729 72.5919 73.6729 72.7464 73.6729V73.6775Z" fill="#D5F2F9"/>
<path d="M81.4685 71.7159H71.5496L70.3579 66.8936C70.3579 66.8936 76.2221 65.0034 82.8677 66.6239L81.4685 71.7159Z" fill="#222859"/>
<path d="M81.7547 68.4034C81.81 68.2167 81.7801 67.9885 81.674 67.8272C81.6464 67.7834 81.6118 67.7419 81.5749 67.705C81.5426 67.652 81.5035 67.6059 81.4527 67.5713C81.5565 66.8936 81.6579 66.209 81.6464 65.5198C81.6418 65.1809 81.6026 64.8351 81.5242 64.5078C81.462 64.2497 81.3882 63.9523 81.1393 63.8117C80.9871 63.7264 80.8073 63.9385 80.9479 64.0606C81.1323 64.2243 81.1416 64.6069 81.1669 64.8328C81.1969 65.1187 81.2015 65.4068 81.1946 65.6926C81.1761 66.2897 81.0793 66.8775 80.9802 67.4653C80.9756 67.4906 80.9733 67.5183 80.9756 67.5436C80.8373 67.5944 80.7197 67.6981 80.6437 67.8203C80.5791 67.9263 80.5538 68.0508 80.5491 68.1729C80.5491 68.2398 80.5584 68.3159 80.5837 68.3827C80.5883 68.3965 80.5906 68.4127 80.5953 68.4265C80.6068 68.4542 80.616 68.4818 80.6298 68.5095C80.5953 68.5487 80.5607 68.5902 80.5307 68.6293C80.4247 68.7677 80.3417 68.9129 80.2771 69.0765C80.2172 69.2287 80.1872 69.3946 80.1965 69.5583C80.2057 69.7427 80.2633 70.0032 80.4639 70.0677C80.4961 70.0793 80.5353 70.0746 80.5722 70.0631C80.5745 70.0746 80.5768 70.0885 80.5791 70.1C80.6183 70.2429 80.6713 70.4112 80.7912 70.5057C80.8742 70.5702 80.9825 70.5887 81.0655 70.5103C81.1346 70.4458 81.1439 70.3397 81.1231 70.2521C81.1185 70.2314 81.1116 70.2129 81.107 70.1922C81.1208 70.183 81.1346 70.1738 81.1462 70.1622C81.2107 70.0885 81.2499 70.0032 81.2822 69.911C81.3329 69.9801 81.4205 70.0193 81.5058 69.9663C81.7317 69.8257 81.7501 69.5122 81.7224 69.2748C81.7086 69.1572 81.6902 69.0489 81.6487 68.9405C81.6233 68.8691 81.5887 68.7838 81.5357 68.7169C81.5496 68.7077 81.5634 68.7008 81.5772 68.6893C81.6648 68.6155 81.7247 68.5141 81.757 68.4058L81.7547 68.4034Z" fill="#FFCE5E"/>
</svg>
