<svg width="99" height="99" viewBox="0 0 99 99" fill="none" xmlns="http://www.w3.org/2000/svg">
<path d="M49.5 0C39.7098 0 30.1395 2.90312 21.9993 8.34225C13.8591 13.7814 7.51452 21.5122 3.76798 30.5572C0.0214476 39.6021 -0.958817 49.5549 0.951151 59.157C2.86112 68.759 7.57554 77.5791 14.4982 84.5018C21.4209 91.4245 30.241 96.1389 39.843 98.0489C49.4451 99.9588 59.3979 98.9786 68.4428 95.232C77.4878 91.4855 85.2186 85.1409 90.6578 77.0007C96.0969 68.8605 99 59.2902 99 49.5C98.9861 36.376 93.7665 23.7936 84.4865 14.5135C75.2064 5.23347 62.624 0.0138591 49.5 0ZM36.9489 68.5385H62.0511C59.4952 77.2676 55.2115 85.1352 49.5 91.3322C43.7885 85.1352 39.5048 77.2676 36.9489 68.5385ZM35.2212 60.9231C33.9583 53.36 33.9583 45.6399 35.2212 38.0769H63.7789C65.0417 45.6399 65.0417 53.36 63.7789 60.9231H35.2212ZM7.61541 49.5C7.61209 45.6373 8.14551 41.7928 9.20036 38.0769H27.5058C26.3699 45.6499 26.3699 53.35 27.5058 60.9231H9.20036C8.14551 57.2072 7.61209 53.3627 7.61541 49.5ZM62.0511 30.4615H36.9489C39.5048 21.7324 43.7885 13.8648 49.5 7.66774C55.2115 13.8648 59.4952 21.7324 62.0511 30.4615ZM71.4942 38.0769H89.7997C91.913 45.5457 91.913 53.4543 89.7997 60.9231H71.4942C72.6301 53.35 72.6301 45.6499 71.4942 38.0769ZM86.8011 30.4615H69.9378C67.9946 22.8153 64.7313 15.567 60.2948 9.04327C65.9628 10.5664 71.2493 13.259 75.8143 16.9477C80.3793 20.6364 84.1218 25.2397 86.8011 30.4615ZM38.7052 9.04327C34.2687 15.567 31.0054 22.8153 29.0622 30.4615H12.1989C14.8782 25.2397 18.6207 20.6364 23.1857 16.9477C27.7507 13.259 33.0372 10.5664 38.7052 9.04327ZM12.1989 68.5385H29.0622C31.0054 76.1847 34.2687 83.433 38.7052 89.9567C33.0372 88.4335 27.7507 85.741 23.1857 82.0523C18.6207 78.3635 14.8782 73.7603 12.1989 68.5385ZM60.2948 89.9567C64.7313 83.433 67.9946 76.1847 69.9378 68.5385H86.8011C84.1218 73.7603 80.3793 78.3635 75.8143 82.0523C71.2493 85.741 65.9628 88.4335 60.2948 89.9567Z" fill="#FFF4C7"/>
<path d="M50.026 28.618L38.0155 38.3455C36.0179 39.9585 35.6332 42.8619 37.147 44.9339C38.7475 47.1425 41.8618 47.5767 44.0083 45.9017L56.3291 36.3231C57.1976 35.6531 58.4384 35.8019 59.1208 36.6705C59.8032 37.539 59.6419 38.7798 58.7734 39.4622L56.1802 41.4722L73.4267 57.3539V33.9284H73.3399L72.856 33.6182L63.8481 27.8487C61.9497 26.6327 59.7288 25.9875 57.4706 25.9875C54.7657 25.9875 52.1353 26.9181 50.026 28.618ZM52.855 44.053L46.4402 49.0408C42.5318 52.0931 36.8616 51.299 33.9334 47.279C31.1789 43.4946 31.8737 38.209 35.5092 35.2684L45.8323 26.9181C44.393 26.3101 42.842 26 41.2663 26C38.9336 25.9875 36.6631 26.6824 34.7151 27.9728L25.7816 33.9284V61.7214H29.2805L40.6211 72.0693C43.053 74.2903 46.8125 74.1166 49.0334 71.6847C49.7158 70.9278 50.1749 70.0469 50.4107 69.1287L52.52 71.0643C54.9394 73.2853 58.7113 73.124 60.9323 70.7045C61.4906 70.0965 61.9001 69.3893 62.1606 68.6572C64.5677 70.2702 67.8433 69.9352 69.8657 67.7267C72.0867 65.3072 71.9254 61.5353 69.5059 59.3143L52.855 44.053ZM11.8851 33.9284C10.7932 33.9284 9.8999 34.8217 9.8999 35.9136V61.7214C9.8999 63.9175 11.6742 65.6918 13.8703 65.6918H17.8408C20.0369 65.6918 21.8112 63.9175 21.8112 61.7214V33.9284H11.8851ZM15.8555 57.751C16.3821 57.751 16.887 57.9601 17.2593 58.3324C17.6316 58.7047 17.8408 59.2097 17.8408 59.7362C17.8408 60.2627 17.6316 60.7676 17.2593 61.1399C16.887 61.5122 16.3821 61.7214 15.8555 61.7214C15.329 61.7214 14.8241 61.5122 14.4518 61.1399C14.0795 60.7676 13.8703 60.2627 13.8703 59.7362C13.8703 59.2097 14.0795 58.7047 14.4518 58.3324C14.8241 57.9601 15.329 57.751 15.8555 57.751ZM77.3972 33.9284V61.7214C77.3972 63.9175 79.1714 65.6918 81.3676 65.6918H85.338C87.5341 65.6918 89.3084 63.9175 89.3084 61.7214V35.9136C89.3084 34.8217 88.4151 33.9284 87.3232 33.9284H77.3972ZM81.3676 59.7362C81.3676 59.2097 81.5767 58.7047 81.949 58.3324C82.3213 57.9601 82.8263 57.751 83.3528 57.751C83.8793 57.751 84.3843 57.9601 84.7566 58.3324C85.1289 58.7047 85.338 59.2097 85.338 59.7362C85.338 60.2627 85.1289 60.7676 84.7566 61.1399C84.3843 61.5122 83.8793 61.7214 83.3528 61.7214C82.8263 61.7214 82.3213 61.5122 81.949 61.1399C81.5767 60.7676 81.3676 60.2627 81.3676 59.7362Z" fill="#FFCF00"/>
</svg>
