<svg width="102" height="96" viewBox="0 0 102 96" fill="none" xmlns="http://www.w3.org/2000/svg">
<path d="M45.7107 21.1967L44.4177 28.4032L41.9268 31.6357C41.9268 31.6357 46.8706 45.0791 50.1601 46.277C53.4496 47.4749 56.6821 38.8993 56.606 36.6366C56.549 34.3738 55.8264 21.8622 55.8264 21.8622L45.7297 21.1967H45.7107Z" fill="#DDAC9E"/>
<path d="M62.7665 32.0921C62.7285 31.1033 56.6819 29.392 56.5107 26.3877C56.3016 22.5087 56.2255 21.1207 56.2255 21.1207L51.4338 22.5468L49.6274 47.5129C52.898 48.5968 62.8426 34.3358 62.7665 32.0921Z" fill="#E8C8BA"/>
<path style="mix-blend-mode:multiply" d="M44.5887 19.2763C43.8091 17.3368 53.2403 22.2425 55.8073 24.0299L45.9577 36.9598C44.3605 36.4274 45.045 31.3695 44.4746 30.704C45.2922 29.411 45.9197 22.6799 44.5697 19.2763H44.5887Z" fill="url(#paint0_linear_25_22861)"/>
<path d="M58.66 13.4958C58.717 8.85624 57.8994 4.92021 51.2633 4.7681C42.973 4.57795 43.5624 9.67386 43.2962 15.3212C43.049 20.9685 46.3576 27.1863 50.5788 27.3765C53.7923 27.5096 56.6064 24.125 57.8614 19.9988C58.7551 19.5615 59.4586 18.4016 59.5727 16.9945C59.7248 15.1501 59.8579 13.6859 58.66 13.4958Z" fill="#E8C8BA"/>
<path d="M43.3336 12.9824C43.2195 12.9634 43.0864 12.9443 42.9723 12.9443C41.6793 12.9824 41.7174 14.5226 41.7744 16.405C41.8314 18.0403 42.6681 19.3713 43.7329 19.6755C44.7787 23.7446 47.4027 27.1863 50.5401 27.3194C50.6732 27.3194 50.8063 27.3194 50.9585 27.3194L51.1486 4.73004C44.0752 4.57792 43.5237 8.34281 43.3336 12.9824Z" fill="#DDAC9E"/>
<path d="M48.9431 4.38782L49.0952 3.9695C49.0952 3.9695 51.7002 1.15533 51.3579 1.15533C51.1678 1.15533 48.1254 1.6307 47.7261 2.56241L49.7227 1.45957L46.0719 3.03778C46.0719 3.03778 45.1782 2.90468 44.5317 3.43709C43.8852 3.9695 43.3908 4.38782 43.3908 4.38782C43.3908 4.38782 43.5239 5.07234 43.619 4.1026C42.7253 4.40683 42.1739 6.63154 42.1929 8.26679C42.1168 8.76117 42.0598 9.29358 42.0217 9.90205C41.8696 12.3359 42.364 12.9824 42.364 12.9824L43.3528 13.2486L44.0943 13.781L44.3986 11.7655C44.3986 11.7655 43.8091 9.92106 45.8817 8.22877C47.9353 6.53647 50.9206 7.52523 50.9206 7.52523L48.9431 4.38782Z" fill="black"/>
<path d="M59.2678 7.08785C58.5642 5.66176 58.0699 4.38778 57.0431 3.8934C56.5107 2.75252 54.0007 1.30741 53.8296 1.49756C53.7345 1.61165 55.0656 2.75252 54.9895 3.45606C54.4191 2.35322 53.088 0.489785 52.8409 0.584858C52.8409 0.584858 52.8599 2.29617 52.9169 3.18986C52.7648 1.76376 52.5366 -0.422916 52.5366 0.0714635C52.5366 0.489785 51.8521 1.85884 51.5098 2.92365C51.4148 2.90464 51.6049 2.92365 51.5098 2.92365C51.6429 1.87785 52.7078 1.1553 52.0613 0.0144197C52.3845 1.4215 49.8746 1.74475 48.8668 3.32296C48.7337 3.41803 48.6196 3.53212 48.5245 3.68424C48.4295 3.83635 48.3914 4.0265 48.3534 4.25468C48.3534 4.2927 48.3154 4.31172 48.3154 4.33073C48.3154 4.33073 46.9844 6.27022 48.2583 7.4111C48.8478 7.94351 51.8901 7.81041 53.8867 7.88646C55.3318 8.4569 56.4917 9.71187 56.872 10.4154C57.3853 11.3661 57.4614 13.6669 57.4614 13.6669L58.8685 13.5148L59.6671 13.9711C59.6671 13.9711 60.6559 9.95905 59.2678 7.08785Z" fill="#232121"/>
<path d="M44.152 27.6046C43.9428 29.5821 50.2937 43.748 57.8996 27.9088C63.3187 30.9322 64.992 30.8371 64.992 30.8371L58.6411 48.8629C58.6411 48.8629 36.7743 46.7713 37.9152 39.6979C39.0561 32.6055 38.8469 31.0463 38.8469 31.0463L44.171 27.6046H44.152Z" fill="#4686D3"/>
<path d="M69.7452 31.6167C70.1825 32.0921 74.3658 36.6746 78.9483 50.6313C80.4504 55.2328 82.8653 61.8879 81.6483 64.1697C79.3095 68.6381 66.1705 68.429 66.1705 68.429L65.2197 44.5847L68.3952 34.2597C68.3952 34.2597 69.441 31.2934 69.7452 31.6357V31.6167Z" fill="black"/>
<path d="M46.6431 88.6795C46.6431 88.6795 32.6674 86.9492 32.6674 86.2456C32.6674 75.3883 35.7668 65.5958 35.8429 62.9908C35.9379 59.5491 33.9224 49.7946 33.428 48.3115C32.9336 46.8283 28.0659 41.219 28.7504 37.9105C29.0546 36.4654 30.5568 32.6625 31.8498 32.111C36.4323 30.1716 38.3338 30.2096 43.6008 27.0151C43.6008 27.0151 41.8515 34.697 46.3009 38.7471C49.3622 41.5233 51.2257 72.441 51.2257 72.441L47.2706 88.4323L46.6431 88.6795Z" fill="black"/>
<path d="M52.1004 87.5767L49.3433 69.6839L55.1998 38.481C55.1998 38.481 60.4858 31.8829 57.2914 26.6729C57.2914 26.6729 65.1824 29.9624 69.2515 31.3505C70.5826 31.8069 69.5748 34.8872 69.5748 34.8872C69.5748 34.8872 66.1522 46.8094 65.6578 48.2735C65.1634 49.7566 64.5549 58.8456 64.669 62.3063C64.7261 64.3408 68.0917 80.2941 68.0917 87.3105L52.1004 87.5957V87.5767Z" fill="#1E1E1E"/>
<path d="M32.496 32.9096C26.2021 32.6244 19.0717 61.2794 20.1175 62.4964C22.6464 65.4626 29.4346 70.0832 30.1382 69.3036C31.6213 67.6493 33.1044 65.3676 35.158 59.9484L32.2298 56.5258L37.9341 48.7488L32.496 32.9096Z" fill="black"/>
<path d="M73.1491 67.0028C73.1491 67.8204 72.4646 68.4669 71.6089 68.4669H35.8615C35.0248 68.4669 34.3213 67.8204 34.3213 67.0028V40.4204C34.3213 39.6027 35.0058 38.9562 35.8615 38.9562H71.6089C72.4646 38.9562 73.1491 39.6027 73.1491 40.4204V67.0028Z" fill="#B0DFF4"/>
<path d="M27.8945 53.9779C27.8945 53.9779 31.7354 51.6961 32.5531 51.4489C33.3707 51.2017 34.9109 51.2968 36.6412 51.8292C37.9342 52.2095 37.3067 53.1793 35.9757 53.1603C34.8729 53.1603 33.5608 53.1032 33.5608 53.1032L32.439 53.9399L32.1918 54.13C32.1918 54.13 35.8616 54.2821 36.2609 54.2821C36.6602 54.2821 38.6948 54.9286 39.2462 55.0047C40.0258 55.1188 40.5012 56.0695 39.2842 56.1646C38.0673 56.2596 35.6525 55.9934 34.8348 55.9744C34.0362 55.9364 33.8651 56.0885 33.8651 56.0885C36.1088 56.2026 38.8469 56.3737 39.4934 56.8111C40.1399 57.2484 39.8547 57.8949 38.5237 57.8569C37.1926 57.7998 33.5418 57.5716 33.5418 57.5716L37.8962 58.5034C37.8962 58.5034 39.0941 59.6252 37.0785 59.5492C32.9904 59.397 29.6248 59.9104 28.9593 59.8534C27.4762 59.6823 26.1642 57.5907 27.8945 54.0349V53.9779Z" fill="#DDAC9E"/>
<path d="M101.975 62.7246H2.37695V96.0002H101.975V62.7246Z" fill="#A54300"/>
<g style="mix-blend-mode:multiply" opacity="0.38">
<path d="M98.7814 65.3106H5.93311V92.7297H98.7814V65.3106Z" fill="#A54300"/>
</g>
<path d="M96.8606 67.8965H7.68213V91.3415H96.8606V67.8965Z" fill="#A54300"/>
<g style="mix-blend-mode:multiply" opacity="0.15">
<path d="M10.9716 67.8965H10.249V91.3796H10.9716V67.8965Z" fill="#A54300"/>
</g>
<g style="mix-blend-mode:multiply" opacity="0.15">
<path d="M17.6269 67.8965H16.6382V91.3796H17.6269V67.8965Z" fill="#A54300"/>
</g>
<g style="mix-blend-mode:multiply" opacity="0.15">
<path d="M29.5492 67.8965H28.8267V91.3796H29.5492V67.8965Z" fill="#A54300"/>
</g>
<g style="mix-blend-mode:multiply" opacity="0.15">
<path d="M41.7562 67.8965H41.0337V91.3796H41.7562V67.8965Z" fill="#A54300"/>
</g>
<g style="mix-blend-mode:multiply" opacity="0.15">
<path d="M47.442 67.8965H46.8525V91.3796H47.442V67.8965Z" fill="#A54300"/>
</g>
<g style="mix-blend-mode:multiply" opacity="0.15">
<path d="M58.5268 67.8965H57.8042V91.3796H58.5268V67.8965Z" fill="#A54300"/>
</g>
<g style="mix-blend-mode:multiply" opacity="0.15">
<path d="M64.1939 67.8965H63.6045V91.3796H64.1939V67.8965Z" fill="#A54300"/>
</g>
<g style="mix-blend-mode:multiply" opacity="0.15">
<path d="M69.0421 67.8965H68.4526V91.3796H69.0421V67.8965Z" fill="#A54300"/>
</g>
<g style="mix-blend-mode:multiply" opacity="0.15">
<path d="M53.7349 67.8965H52.7842V91.3796H53.7349V67.8965Z" fill="#A54300"/>
</g>
<g style="mix-blend-mode:multiply" opacity="0.15">
<path d="M36.2036 67.8965H35.2148V91.3796H36.2036V67.8965Z" fill="#A54300"/>
</g>
<g style="mix-blend-mode:multiply" opacity="0.15">
<path d="M23.6541 67.8965H23.2168V91.3796H23.6541V67.8965Z" fill="#A54300"/>
</g>
<path d="M101.975 60.9373H0V63.2H101.975V60.9373Z" fill="#E08F46"/>
<g style="mix-blend-mode:multiply" opacity="0.15">
<path d="M78.7208 67.6874H78.1313V91.4747H78.7208V67.6874Z" fill="#A54300"/>
</g>
<g style="mix-blend-mode:multiply" opacity="0.15">
<path d="M88.8932 67.6874H88.3037V91.4747H88.8932V67.6874Z" fill="#A54300"/>
</g>
<g style="mix-blend-mode:multiply" opacity="0.15">
<path d="M93.6087 67.6874H93.1333V91.4747H93.6087V67.6874Z" fill="#A54300"/>
</g>
<g style="mix-blend-mode:multiply" opacity="0.15">
<path d="M84.2732 67.6874H83.4556V91.4747H84.2732V67.6874Z" fill="#A54300"/>
</g>
<g style="mix-blend-mode:multiply" opacity="0.15">
<path d="M73.8339 67.6874H73.4727V91.4747H73.8339V67.6874Z" fill="#A54300"/>
</g>
<defs>
<linearGradient id="paint0_linear_25_22861" x1="44.4081" y1="27.9325" x2="55.9252" y2="27.5685" gradientUnits="userSpaceOnUse">
<stop stop-color="white"/>
<stop offset="0.64" stop-color="#C6C0B9"/>
</linearGradient>
</defs>
</svg>
