<svg width="160" height="160" viewBox="0 0 160 160" fill="none" xmlns="http://www.w3.org/2000/svg">
<path d="M80 0C64.1775 0 48.7103 4.69192 35.5544 13.4824C22.3985 22.2729 12.1447 34.7672 6.08967 49.3853C0.0346628 64.0034 -1.5496 80.0887 1.53721 95.6072C4.62403 111.126 12.2433 125.38 23.4315 136.569C34.6197 147.757 48.8743 155.376 64.3928 158.463C79.9113 161.55 95.9966 159.965 110.615 153.91C125.233 147.855 137.727 137.602 146.518 124.446C155.308 111.29 160 95.8225 160 80C159.978 58.7895 151.542 38.4542 136.544 23.4562C121.546 8.45814 101.21 0.0223986 80 0ZM59.7154 110.769H100.285C96.1539 124.877 89.2308 137.592 80 147.608C70.7692 137.592 63.8462 124.877 59.7154 110.769ZM56.9231 98.4615C54.8821 86.2384 54.8821 73.7615 56.9231 61.5384H103.077C105.118 73.7615 105.118 86.2384 103.077 98.4615H56.9231ZM12.3077 80C12.3024 73.7572 13.1645 67.5439 14.8693 61.5384H44.4539C42.618 73.7777 42.618 86.2223 44.4539 98.4615H14.8693C13.1645 92.456 12.3024 86.2428 12.3077 80ZM100.285 49.2308H59.7154C63.8462 35.1231 70.7692 22.4077 80 12.3923C89.2308 22.4077 96.1539 35.1231 100.285 49.2308ZM115.546 61.5384H145.131C148.546 73.6092 148.546 86.3908 145.131 98.4615H115.546C117.382 86.2223 117.382 73.7777 115.546 61.5384ZM140.285 49.2308H113.031C109.89 36.8732 104.616 25.1588 97.4462 14.6154C106.607 17.0771 115.15 21.4286 122.528 27.3902C129.906 33.3518 135.954 40.7915 140.285 49.2308ZM62.5539 14.6154C55.3838 25.1588 50.1097 36.8732 46.9693 49.2308H19.7154C24.0456 40.7915 30.0941 33.3518 37.4719 27.3902C44.8497 21.4286 53.3935 17.0771 62.5539 14.6154ZM19.7154 110.769H46.9693C50.1097 123.127 55.3838 134.841 62.5539 145.385C53.3935 142.923 44.8497 138.571 37.4719 132.61C30.0941 126.648 24.0456 119.209 19.7154 110.769ZM97.4462 145.385C104.616 134.841 109.89 123.127 113.031 110.769H140.285C135.954 119.209 129.906 126.648 122.528 132.61C115.15 138.571 106.607 142.923 97.4462 145.385Z" fill="#6E6336"/>
<path d="M80.8503 46.2512L61.4393 61.9724C58.2108 64.5793 57.5892 69.2716 60.0356 72.6204C62.6224 76.1898 67.6557 76.8916 71.1248 74.1845L91.0371 58.7039C92.4407 57.621 94.446 57.8617 95.5489 59.2653C96.6518 60.669 96.3911 62.6743 94.9874 63.7772L90.7964 67.0257L118.67 92.6931V54.8337H118.529L117.747 54.3324L103.189 45.0079C100.121 43.0427 96.5315 42 92.8819 42C88.5104 42 84.2593 43.5039 80.8503 46.2512ZM85.4223 71.1967L75.0551 79.2578C68.7385 84.1908 59.5744 82.9074 54.842 76.4104C50.3903 70.2943 51.5133 61.7519 57.3887 56.9994L74.0725 43.5039C71.7464 42.5214 69.2398 42.0201 66.6931 42.0201C62.9232 42 59.2536 43.1229 56.1053 45.2084L41.6674 54.8337V99.7517H47.3223L65.6504 116.476C69.5807 120.065 75.6567 119.784 79.2461 115.854C80.349 114.631 81.0909 113.207 81.4719 111.723L84.8809 114.851C88.7912 118.441 94.8872 118.18 98.4766 114.27C99.379 113.287 100.041 112.144 100.462 110.961C104.352 113.568 109.646 113.027 112.914 109.457C116.504 105.547 116.243 99.4509 112.333 95.8614L85.4223 71.1967ZM19.2084 54.8337C17.4438 54.8337 16 56.2775 16 58.0421V99.7517C16 103.301 18.8675 106.169 22.4169 106.169H28.8337C32.383 106.169 35.2506 103.301 35.2506 99.7517V54.8337H19.2084ZM25.6253 93.3348C26.4762 93.3348 27.2923 93.6728 27.894 94.2745C28.4957 94.8762 28.8337 95.6923 28.8337 96.5432C28.8337 97.3942 28.4957 98.2102 27.894 98.8119C27.2923 99.4136 26.4762 99.7517 25.6253 99.7517C24.7743 99.7517 23.9583 99.4136 23.3566 98.8119C22.7549 98.2102 22.4169 97.3942 22.4169 96.5432C22.4169 95.6923 22.7549 94.8762 23.3566 94.2745C23.9583 93.6728 24.7743 93.3348 25.6253 93.3348ZM125.086 54.8337V99.7517C125.086 103.301 127.954 106.169 131.503 106.169H137.92C141.469 106.169 144.337 103.301 144.337 99.7517V58.0421C144.337 56.2775 142.893 54.8337 141.129 54.8337H125.086ZM131.503 96.5432C131.503 95.6923 131.841 94.8762 132.443 94.2745C133.045 93.6728 133.861 93.3348 134.712 93.3348C135.563 93.3348 136.379 93.6728 136.98 94.2745C137.582 94.8762 137.92 95.6923 137.92 96.5432C137.92 97.3942 137.582 98.2102 136.98 98.8119C136.379 99.4136 135.563 99.7517 134.712 99.7517C133.861 99.7517 133.045 99.4136 132.443 98.8119C131.841 98.2102 131.503 97.3942 131.503 96.5432Z" fill="#FFCF00"/>
</svg>
