<svg width="106" height="94" viewBox="0 0 106 94" fill="none" xmlns="http://www.w3.org/2000/svg">
<path d="M66.411 44.1578C66.747 46.0355 70.4629 57.0248 69.0793 58.2305C67.676 59.4362 64.4938 59.1595 63.9009 58.4084C63.3079 57.6573 59.4537 46.8854 60.1257 45.1263C60.7977 43.3672 66.4308 44.1776 66.4308 44.1776L66.411 44.1578Z" fill="#CC9987"/>
<path d="M58.9395 4.1727C58.6233 3.55998 64.8888 6.32709 65.0469 11.0707C65.5015 24.8865 65.1655 33.1878 64.7109 47.3593C64.6319 49.8497 46.0132 48.8813 46.0132 47.6361C46.0132 46.3909 57.6746 3.87622 57.6746 3.87622L58.9395 4.19246V4.1727Z" fill="#84372D"/>
<path d="M53.3863 0.377808C49.374 1.78113 44.2153 3.93552 39.2938 17.3758C37.8905 21.1904 29.8857 40.1846 30.1228 42.9913C30.3205 45.4619 47.3975 49.3556 47.7533 48.1499C48.1288 46.9443 51.4493 7.07816 51.4493 7.07816L53.3863 0.377808Z" fill="#380F01"/>
<path d="M60.4227 41.3705L59.6519 29.5905L54.256 26.8827L54.5525 17.5141L45.9744 14.7865C45.9744 14.7865 46.1918 24.2342 41.3692 26.1712C39.0962 26.4676 35.2222 26.6258 34.4909 27.8314C33.7201 29.0766 36.0128 40.3427 36.0128 40.3427C36.0128 40.3427 35.3211 43.9795 36.0128 44.1574C36.6849 44.3155 55.5012 42.2995 60.4029 41.3903L60.4227 41.3705Z" fill="#E0B8AA"/>
<path style="mix-blend-mode:multiply" d="M39.7275 26.3887C44.7281 26.9224 46.1907 14.2135 46.1907 14.2135C48.9974 12.4939 56.8045 13.7589 55.8954 15.7551C55.8954 15.7551 54.4723 19.8465 54.5513 22.6531C54.6106 24.4913 42.6528 36.4887 42.6528 36.4887L39.7275 26.369V26.3887Z" fill="url(#paint0_linear_25_22748)"/>
<path d="M62.9523 30.6779C65.3834 32.6939 66.4507 39.9081 68.2296 47.1224C64.6521 48.4071 60.5015 48.4862 60.5015 48.4862C60.5015 48.4862 60.5015 36.2318 60.7979 33.6426C61.1142 31.0534 62.9523 30.6976 62.9523 30.6976V30.6779Z" fill="#327C34"/>
<path d="M56.627 28.0096C57.0223 30.5 56.4886 34.2553 51.7253 33.8995C47.4955 33.6031 42.3764 26.7841 42.0799 25.5192C38.9373 26.2109 34.6878 26.7248 34.4901 27.8119C35.4191 29.6501 37.6328 42.0428 37.9095 44.8296C38.1862 47.6165 37.6723 53.4274 36.1109 56.9061C34.0158 61.5509 33.6402 62.2624 33.1263 64.5551C33.0078 65.0888 33.4031 66.2747 33.2449 66.7886C32.8892 67.8954 32.4346 69.1406 32.4346 69.1406C32.4346 69.1406 48.3454 76.2165 61.173 72.0066C61.0148 70.1487 60.7777 69.5952 60.7777 69.5952C60.7777 69.5952 62.181 69.2988 61.6671 64.654C61.1532 60.0092 61.2718 43.3077 61.3904 41.0347C61.509 38.7618 62.9518 30.6778 62.9518 30.6778L56.627 28.0096Z" fill="#3C9E3C"/>
<g style="mix-blend-mode:overlay" opacity="0.8">
<path d="M61.7267 67.6385C61.786 67.1246 61.786 66.4724 61.7267 65.6818C57.0819 67.5595 51.0141 67.6583 45.5787 67.0061C40.163 66.3736 35.2415 64.9307 33.2848 64.1006C33.2453 64.2982 33.186 64.4959 33.1464 64.7133C33.0674 65.0098 33.186 65.5434 33.2453 66.0376C35.795 67.0258 40.2223 68.1722 45.381 68.8244C50.7373 69.4569 56.7459 69.4569 61.7465 67.6583L61.7267 67.6385Z" fill="white"/>
<path d="M45.4406 64.3377C50.6981 64.9505 56.7264 64.99 61.5293 63.0925C61.4898 62.5194 61.47 61.8869 61.4503 61.1951C57.102 63.1123 50.9946 63.1914 45.658 62.5391C42.6339 62.1834 39.8668 61.5904 37.7915 61.0567C36.7439 60.78 35.8743 60.5033 35.2616 60.2859C35.0639 60.2266 34.886 60.1476 34.7477 60.0883C34.4512 60.7405 34.214 61.2939 34.0361 61.7485C34.807 62.0648 35.8545 62.4008 37.3567 62.8158C39.5111 63.389 42.3572 63.982 45.4801 64.3575L45.4406 64.3377Z" fill="white"/>
<path d="M61.3903 59.8116C61.3903 59.1989 61.3508 58.5665 61.3508 57.8944C56.8443 59.3768 51.1915 59.3966 46.2898 58.8036C41.8822 58.2897 38.0083 57.2224 36.2887 56.5504C36.2294 56.7085 36.1701 56.8864 36.1108 57.0248C35.9132 57.4596 35.7353 57.8351 35.5771 58.2107C37.6525 59.0606 41.4474 60.0291 46.0922 60.6022C50.9741 61.1952 56.6072 61.2347 61.4101 59.7919L61.3903 59.8116Z" fill="white"/>
<path d="M61.2924 51.9845C61.2924 51.3718 61.2924 50.7393 61.2924 50.1464C58.5055 50.7591 53.7026 50.68 49.1764 50.0871C44.5712 49.5534 40.0647 48.5652 37.9499 47.8339C37.9104 48.4268 37.8708 49.0593 37.8115 49.7115C40.3217 50.5219 44.4921 51.352 48.959 51.9055C53.4655 52.3996 58.0312 52.6763 61.3122 52.0043L61.2924 51.9845Z" fill="white"/>
<path d="M61.2912 47.4978C61.2912 46.8654 61.2912 46.2526 61.2912 45.6795C56.1522 46.3712 50.9343 46.4108 46.3092 45.8376C43.0678 45.4423 40.1623 44.7505 37.751 43.8413C37.8103 44.2761 37.8696 44.6714 37.8893 44.9482C37.9091 45.2051 37.9289 45.5213 37.9486 45.8376C40.3402 46.6677 43.0875 47.2804 46.0918 47.6362C50.7959 48.2094 56.0732 48.1699 61.2714 47.4978H61.2912Z" fill="white"/>
</g>
<path d="M43.0481 25.3016C43.3446 25.9539 48.7602 33.6623 52.6934 33.3262C55.6977 33.0693 56.0732 28.7012 55.8558 27.3572C56.8836 27.792 57.4568 28.0885 57.4568 28.0885C57.4568 28.0885 58.2276 34.8284 52.7922 35.1644C46.4872 35.5399 43.0283 28.721 42.0796 25.5191C42.5144 25.3807 43.0481 25.3016 43.0481 25.3016Z" fill="white"/>
<path d="M62.9727 14.2135C60.9369 21.2894 55.4818 25.7563 52.853 24.5506C47.299 22.0207 45.362 17.2968 46.8049 9.70706C47.9908 3.48106 51.4102 -1.97409 58.8023 0.69419C65.7201 3.22412 64.7318 8.16538 62.9727 14.2135Z" fill="#E0B8AA"/>
<path d="M56.4883 7.05864C57.9707 10.0432 63.5049 10.2803 62.4178 15.4588C62.0423 17.2574 61.1528 19.985 59.6902 21.6453C58.1683 23.3846 61.1924 21.0721 61.1924 21.0721C61.1924 21.0721 67.5567 11.7232 63.9397 4.68683C62.3783 1.64302 58.5043 0.279227 58.2276 0.575703C57.9707 0.872179 56.4883 7.07841 56.4883 7.07841V7.05864Z" fill="#84372D"/>
<path d="M60.4821 10.1222C56.7663 10.3791 53.2284 9.39085 50.6589 12.6126C48.7812 14.9448 46.3897 16.5458 45.6386 18.8188C44.6503 21.8428 45.8758 8.81766 45.8758 8.81766C45.8758 8.81766 45.8758 2.19637 53.3865 0.377981C58.2289 -0.807923 61.9448 2.05801 61.7866 2.55214C61.668 2.92767 60.4821 10.1419 60.4821 10.1419V10.1222Z" fill="#380F01"/>
<path d="M52.6145 7.78967C49.8276 15.9922 43.9574 21.5066 46.3292 37.9314C42.9494 35.2829 39.6684 31.1717 40.0835 21.1706C40.38 13.7587 52.6145 7.78967 52.6145 7.78967Z" fill="#380F01"/>
<path d="M62.3005 10.6361C62.8342 15.5971 57.8731 36.805 57.0825 37.7735C58.6835 36.5086 61.8261 32.101 62.9725 28.7607C64.9095 23.1474 64.2968 14.1938 64.0991 13.7788C63.8817 13.3637 62.3005 10.6559 62.3005 10.6559V10.6361Z" fill="#84372D"/>
<path d="M56.6471 59.1592L53.1685 54.7516L92.7974 48.407L76.8272 55.6608L56.6471 59.1592Z" fill="#A80000"/>
<path d="M76.2533 54.7912L90.6225 47.1619L55.0454 54.1982L63.5049 56.3724L76.2533 54.7912Z" fill="white"/>
<path d="M75.9372 54.5146L86.3732 46.6481L53.9189 52.7752L62.4377 55.8191L75.9372 54.5146Z" fill="#CFE0E8"/>
<path d="M75.6998 55.2853L59.532 45.047L50.6772 46.8456L61.1923 54.9493L75.6998 55.2853Z" fill="white"/>
<path d="M75.4235 55.6017L56.9036 45.9958L48.0884 48.7037L59.4928 55.5819L75.4235 55.6017Z" fill="#CFE0E8"/>
<path d="M56.6464 59.1593L33.0469 51.4114L51.7644 46.0551L76.7869 55.7399L56.6464 59.1593Z" fill="#700000"/>
<path d="M69.2771 55.0089C68.6249 54.495 68.1505 54.5147 67.0042 53.8625C65.6404 53.0916 65.3637 52.7754 65.6799 53.5265C65.8578 53.902 66.174 54.238 66.431 54.5147C67.0042 55.1472 66.8263 55.1472 66.8263 55.1472C66.8263 55.1472 66.8856 55.1472 65.2055 54.9298C62.6756 54.5938 62.3791 52.9138 62.1024 53.6055C61.9048 54.1392 63.1895 55.0286 63.9011 55.4437C62.6163 54.9298 61.5095 53.6253 61.4897 54.1194C61.4897 54.495 62.142 55.6611 62.893 55.8983C62.7744 55.9971 61.4502 55.1472 61.4699 55.5425C61.5095 56.175 62.5175 56.7877 63.3476 57.2818C62.9128 57.0447 62.4187 56.7877 62.221 56.6691C61.8652 56.4319 61.5095 56.4912 61.5095 56.7284C61.5095 57.0051 63.0314 57.9143 63.8418 58.3689V58.3887C63.901 58.4084 65.9764 59.3967 68.3087 59.7525C70.4038 59.9106 70.9572 57.9341 70.9374 57.8155C70.5026 56.0959 69.791 55.4042 69.2376 54.9693L69.2771 55.0089Z" fill="#CC9987"/>
<path d="M57.932 57.8547C57.932 57.8547 59.8689 56.8862 59.9282 56.0363C59.9678 55.5818 58.2285 56.5898 58.1099 56.4712C59.0191 56.3328 60.0073 55.1272 60.0666 54.6923C60.1457 54.1389 58.6238 55.4236 57.0425 55.7596C57.9517 55.4236 59.5922 54.633 59.4736 53.9808C59.2958 53.1111 58.6238 55.0086 55.659 54.9097C53.6825 54.8504 53.7418 54.8504 53.7418 54.8504C53.7418 54.8504 53.5441 54.8109 54.3347 54.1982C54.6905 53.9215 55.1056 53.625 55.3823 53.2099C55.8962 52.4193 55.5206 52.7158 53.8011 53.3483C52.3582 53.882 51.7653 53.6052 51.1723 54.1982C50.5794 54.7911 50.0655 54.7911 49.3935 55.2457C49.2749 55.3248 36.2497 50.5021 36.2497 50.5021C36.3288 49.7906 38.661 44.118 38.5227 41.2126C38.4832 40.2638 35.5579 27.9897 34.0756 29.057C33.1664 29.1756 32.0595 29.9465 31.1503 32.2195C29.6482 35.9748 28.6402 52.5577 29.4308 56.2933C29.4308 56.2933 34.1744 60.9183 49.0772 59.7126C51.0142 59.6336 54.1173 59.6138 56.2717 59.2185C56.9635 59.2185 58.9795 58.1117 59.2365 57.7559C59.4144 57.4594 59.1376 57.3408 57.8924 57.8745L57.932 57.8547Z" fill="#E0B8AA"/>
<path d="M34.6491 27.4165C33.8981 27.0804 30.1625 29.0965 28.0278 44.3353C28.0278 44.3353 36.6849 48.4662 37.3767 48.5453C38.0487 48.6244 39.5311 42.0426 39.5311 42.0426C39.5311 42.0426 39.1358 29.4325 34.6491 27.3967V27.4165Z" fill="#327C34"/>
<path d="M106 58.8234H2.4707V93.4122H106V58.8234Z" fill="#A54300"/>
<g style="mix-blend-mode:multiply" opacity="0.38">
<path d="M102.68 61.5114H6.16748V90.0126H102.68V61.5114Z" fill="#A54300"/>
</g>
<path d="M100.683 64.2192H7.98486V88.5896H100.683V64.2192Z" fill="#A54300"/>
<g style="mix-blend-mode:multiply" opacity="0.15">
<path d="M11.4044 64.2192H10.6533V88.6291H11.4044V64.2192Z" fill="#A54300"/>
</g>
<g style="mix-blend-mode:multiply" opacity="0.15">
<path d="M18.3227 64.2192H17.2949V88.6291H18.3227V64.2192Z" fill="#A54300"/>
</g>
<g style="mix-blend-mode:multiply" opacity="0.15">
<path d="M30.7149 64.2192H29.9639V88.6291H30.7149V64.2192Z" fill="#A54300"/>
</g>
<g style="mix-blend-mode:multiply" opacity="0.15">
<path d="M43.4044 64.2192H42.6533V88.6291H43.4044V64.2192Z" fill="#A54300"/>
</g>
<g style="mix-blend-mode:multiply" opacity="0.15">
<path d="M49.3139 64.2192H48.7012V88.6291H49.3139V64.2192Z" fill="#A54300"/>
</g>
<g style="mix-blend-mode:multiply" opacity="0.15">
<path d="M60.8365 64.2192H60.0854V88.6291H60.8365V64.2192Z" fill="#A54300"/>
</g>
<g style="mix-blend-mode:multiply" opacity="0.15">
<path d="M66.727 64.2192H66.1143V88.6291H66.727V64.2192Z" fill="#A54300"/>
</g>
<g style="mix-blend-mode:multiply" opacity="0.15">
<path d="M71.7665 64.2192H71.1538V88.6291H71.7665V64.2192Z" fill="#A54300"/>
</g>
<g style="mix-blend-mode:multiply" opacity="0.15">
<path d="M55.8559 64.2192H54.8677V88.6291H55.8559V64.2192Z" fill="#A54300"/>
</g>
<g style="mix-blend-mode:multiply" opacity="0.15">
<path d="M37.6333 64.2192H36.6055V88.6291H37.6333V64.2192Z" fill="#A54300"/>
</g>
<g style="mix-blend-mode:multiply" opacity="0.15">
<path d="M24.5879 64.2192H24.1333V88.6291H24.5879V64.2192Z" fill="#A54300"/>
</g>
<path d="M106 56.9851H0V59.3372H106V56.9851Z" fill="#E08F46"/>
<g style="mix-blend-mode:multiply" opacity="0.15">
<path d="M81.8285 64.0017H81.2158V88.7278H81.8285V64.0017Z" fill="#A54300"/>
</g>
<g style="mix-blend-mode:multiply" opacity="0.15">
<path d="M92.4018 64.0017H91.7891V88.7278H92.4018V64.0017Z" fill="#A54300"/>
</g>
<g style="mix-blend-mode:multiply" opacity="0.15">
<path d="M97.3037 64.0017H96.8096V88.7278H97.3037V64.0017Z" fill="#A54300"/>
</g>
<g style="mix-blend-mode:multiply" opacity="0.15">
<path d="M87.5994 64.0017H86.7495V88.7278H87.5994V64.0017Z" fill="#A54300"/>
</g>
<g style="mix-blend-mode:multiply" opacity="0.15">
<path d="M76.7476 64.0017H76.3721V88.7278H76.7476V64.0017Z" fill="#A54300"/>
</g>
<defs>
<linearGradient id="paint0_linear_25_22748" x1="46.6816" y1="32.2065" x2="48.6998" y2="12.7329" gradientUnits="userSpaceOnUse">
<stop stop-color="white"/>
<stop offset="0.53" stop-color="#C6C0B9"/>
</linearGradient>
</defs>
</svg>
