<svg width="146" height="140" viewBox="0 0 146 140" fill="none" xmlns="http://www.w3.org/2000/svg">
<path d="M79.791 21.9555C108.225 21.9555 131.355 45.091 131.355 73.5199C131.355 101.949 108.225 125.089 79.791 125.089C51.3575 125.089 28.2221 101.958 28.2221 73.5199C28.2221 62.7724 31.533 52.7868 37.1821 44.5151L26.9119 34.6212C18.9247 45.5246 14.2026 58.9704 14.2026 73.5222C14.2026 109.918 43.7054 139.42 80.1008 139.42C116.496 139.42 145.999 109.918 145.999 73.5222C145.999 37.1268 116.496 7.62402 80.1008 7.62402C62.9723 7.62402 47.3697 14.1611 35.6517 24.8741L46.7135 33.9994C55.6735 26.4871 67.2126 21.9555 79.791 21.9555Z" fill="#FFCF00"/>
<path d="M47.6657 54.6155C44.4029 60.1613 42.5283 66.6226 42.5283 73.5199C42.5283 94.1429 59.2438 110.858 79.8622 110.858C100.481 110.858 117.201 94.1429 117.201 73.5199C117.201 52.8969 100.485 36.186 79.8622 36.186C71.6823 36.186 64.115 38.8178 57.9635 43.2829L71.2463 54.2438C73.8047 53.1332 76.6269 52.5137 79.5937 52.5137C91.1971 52.5137 100.605 61.9189 100.605 73.5245C100.605 85.1301 91.1971 94.5353 79.5937 94.5353C67.9904 94.5353 58.583 85.1278 58.583 73.5245C58.583 71.0051 59.0373 68.5936 59.8518 66.3542L47.668 54.6155H47.6657Z" fill="#FFCF00"/>
<circle cx="81" cy="74" r="6" fill="#FFCF00"/>
<g filter="url(#filter0_d_48_4440)">
<path d="M4.1163 18.2293L15.8045 29.5618C15.6714 29.7591 16.642 30.1056 17.5965 30.1377L27.0017 28.7381L27.596 29.3071L65.1777 65.5121L65.0905 65.6085C64.8495 65.8792 64.8725 66.2922 65.1432 66.5332L65.1524 66.5423C65.4232 66.7833 65.8362 66.7603 66.0771 66.4896L66.1735 66.3817C67.5662 67.3179 69.3743 67.3133 70.7556 66.4161L79.6927 73.3111C79.7684 73.3708 79.9221 73.3111 80.0415 73.178L80.046 73.1735C80.1654 73.0404 80.2044 72.8821 80.1378 72.8132L72.2539 64.7044C72.94 63.2474 72.7243 61.4944 71.655 60.2416L71.7514 60.1338C71.9923 59.863 71.9694 59.45 71.6986 59.2091L71.6895 59.1999C71.4187 58.959 71.0057 58.9819 70.7648 59.2527L70.6776 59.3491L30.4228 26.1361L28.9153 24.8925L29.8239 25.6428L30.1383 16.2996C30.1635 15.5378 29.8331 14.8059 29.2434 14.324L16.759 4.08592C16.5112 3.88401 16.1418 4.06068 16.1441 4.37962L16.2382 14.4273L11.4335 10.4624C11.1948 10.265 10.8943 10.1801 10.6052 10.2031C10.4262 10.2168 10.2518 10.2765 10.0935 10.3706C10.0591 10.3912 10.0247 10.4073 9.99253 10.4325C9.98105 10.4417 9.97188 10.4532 9.9627 10.4601C9.91451 10.4991 9.86862 10.5381 9.82503 10.5863V10.5885L9.81126 10.6046L9.80897 10.6069C9.72178 10.7056 9.65753 10.818 9.60934 10.9327C9.60017 10.9534 9.58869 10.9717 9.58181 10.9947C9.58181 10.9947 9.58181 10.9993 9.58181 11.0016C9.53363 11.1392 9.51298 11.2838 9.51986 11.426C9.52904 11.7174 9.64835 12.0066 9.87321 12.2222L12.8951 15.1294L14.3314 16.513L4.34805 17.5661C4.01993 17.6006 3.88226 18.0021 4.1186 18.2315L4.1163 18.2293Z" fill="#FFCF00"/>
</g>
<defs>
<filter id="filter0_d_48_4440" x="0" y="0" width="84.1699" height="77.3342" filterUnits="userSpaceOnUse" color-interpolation-filters="sRGB">
<feFlood flood-opacity="0" result="BackgroundImageFix"/>
<feColorMatrix in="SourceAlpha" type="matrix" values="0 0 0 0 0 0 0 0 0 0 0 0 0 0 0 0 0 0 127 0" result="hardAlpha"/>
<feOffset/>
<feGaussianBlur stdDeviation="2"/>
<feComposite in2="hardAlpha" operator="out"/>
<feColorMatrix type="matrix" values="0 0 0 0 0 0 0 0 0 0 0 0 0 0 0 0 0 0 0.1 0"/>
<feBlend mode="normal" in2="BackgroundImageFix" result="effect1_dropShadow_48_4440"/>
<feBlend mode="normal" in="SourceGraphic" in2="effect1_dropShadow_48_4440" result="shape"/>
</filter>
</defs>
</svg>
