<svg width="101" height="97" viewBox="0 0 101 97" fill="none" xmlns="http://www.w3.org/2000/svg">
<path style="mix-blend-mode:multiply" d="M78.76 14.0392L59.25 26.6092L66.62 46.1092L81.71 46.3092L81.25 22.7392L83.12 17.1092L78.76 14.0392Z" fill="url(#paint0_linear_25_22202)"/>
<path style="mix-blend-mode:multiply" d="M6.83 25.3692L0 30.6092V46.7392H5.42L9.12 39.3592L6.83 25.3692Z" fill="url(#paint1_linear_25_22202)"/>
<path d="M97.7804 13.4892C100.24 14.4992 99.3404 17.6392 97.2004 17.9792C92.0404 18.0592 78.8204 18.1992 78.8204 18.1992C78.8204 18.1992 78.2704 17.8392 79.0804 17.5092C79.2904 16.7692 80.1704 15.1592 78.7504 14.0392C78.1704 13.8392 78.3704 13.6292 78.6704 13.5192C88.4204 13.6592 97.7704 13.4792 97.7704 13.4792L97.7804 13.4892Z" fill="#00225E"/>
<path d="M97.2205 14.1192C97.6205 14.1692 100.08 16.1492 96.7104 17.3992C96.9004 14.4392 97.2205 14.1192 97.2205 14.1192Z" fill="#1E1E1E"/>
<path d="M97.1005 14.1992C98.3205 15.0892 98.0805 17.1192 96.4705 17.3792C91.7305 17.4592 78.9405 17.4992 78.9405 17.4992C78.9405 17.4992 79.9005 15.8592 78.7505 14.0392C87.7005 14.0992 97.1005 14.1992 97.1005 14.1992Z" fill="#C7DDE2"/>
<path d="M87.8302 17.6492L99.8801 18.5992C99.8801 18.5992 101.72 21.0692 99.4602 22.3292C96.6802 22.6292 87.1602 22.5792 87.1602 22.5792C87.1602 22.5792 88.5302 20.0292 88.5302 19.2092C88.5302 18.3892 87.8302 17.6492 87.8302 17.6492Z" fill="#B80000"/>
<path d="M78.6404 21.5092C78.0804 21.5592 77.0704 21.8892 77.4804 22.1492C77.8804 22.4092 87.1704 22.5792 87.1704 22.5792C87.1704 22.5792 88.2704 22.0492 88.7304 21.0492C89.4204 19.5392 88.6504 17.5592 87.7704 17.6492C83.3204 18.1092 77.0704 18.4792 77.2504 18.7792C77.5104 19.2192 78.4204 19.2192 78.4204 19.2192L78.6604 21.5092H78.6404Z" fill="#850000"/>
<path d="M87.7502 18.1792C88.4902 18.6292 88.9502 21.2092 86.8602 22.0192C81.8702 21.9192 78.1902 21.8192 78.1902 21.8192C78.1902 21.8192 79.0302 20.7992 77.9102 19.0592C83.2802 18.5892 87.7502 18.1792 87.7502 18.1792Z" fill="#C7DDE2"/>
<path d="M100.72 25.2492C100.72 26.1092 100.22 26.7992 99.5903 26.7992H79.4503C78.8303 26.7992 78.3203 26.1092 78.3203 25.2492V23.8892C78.3203 23.0292 78.8203 22.3392 79.4503 22.3392H99.5903C100.21 22.3392 100.72 23.0292 100.72 23.8892V25.2492Z" fill="#00225E"/>
<g opacity="0.55">
<path d="M98.6002 24.6792C98.6002 25.3392 98.3502 25.8792 98.0402 25.8792C97.7302 25.8792 97.4702 25.3392 97.4702 24.6792C97.4702 24.0192 97.7202 23.4792 98.0402 23.4792C98.3602 23.4792 98.6002 24.0192 98.6002 24.6792Z" fill="#94CDED"/>
<path d="M96.7305 23.3592H96.2705V25.9892H96.7305V23.3592Z" fill="#94CDED"/>
<path d="M95.6504 23.3592H95.4004V25.9892H95.6504V23.3592Z" fill="#94CDED"/>
</g>
<path d="M40.1499 24.9592C41.6299 22.3092 49.8399 22.1092 50.7299 22.9092C51.6199 23.7192 55.1699 23.9192 50.9099 27.7292C46.6399 31.5392 43.7899 32.3192 42.6599 30.8892C41.5299 29.4592 40.1499 24.9492 40.1499 24.9492V24.9592Z" fill="#00225E"/>
<path d="M34.4001 29.9892C32.7701 31.8592 26.9401 39.3592 26.3701 42.9292C26.3701 42.9292 27.2001 45.7492 27.5701 45.8292C27.9401 45.8992 28.9501 46.4792 30.4101 45.5292C31.8601 44.5792 37.0201 37.6892 37.6401 36.4492C38.2601 35.1992 34.4101 29.9892 34.4101 29.9892H34.4001Z" fill="#CC9987"/>
<path d="M42.2503 19.0992L42.0103 27.6292C42.0103 27.6292 46.9503 33.8692 49.2503 34.0092C51.5503 34.1592 51.6603 29.0092 51.2003 27.5892C50.7303 26.1692 48.3103 17.5592 48.3103 17.5592L42.2503 19.0992Z" fill="#CC9987"/>
<path style="mix-blend-mode:multiply" d="M40.99 20.0992C40.15 19.0092 47.61 19.7992 49.56 20.4592L46.4 35.2292C45.3 35.1792 42.73 30.0292 42.25 29.7092C42.53 28.7392 42.48 21.9992 41 20.0892L40.99 20.0992Z" fill="url(#paint2_linear_25_22202)"/>
<path d="M48.29 28.3592C41.73 29.6792 41.83 23.5092 41.83 23.5092C41.83 23.5092 35.99 26.2792 33.26 28.1992C32.39 28.8192 35.36 34.8192 35.69 35.4792C36.78 37.6292 37.52 40.5592 37.67 41.3192C37.98 42.8292 37.12 53.4392 37.81 53.4092C38.77 53.3692 48.2 56.1892 50.69 55.7192C51.83 55.8392 49.62 28.0892 48.28 28.3692L48.29 28.3592Z" fill="#00225E"/>
<path d="M48.0101 39.1392C47.7801 32.7492 47.1001 28.5692 47.1501 28.5692C50.4801 28.2992 50.7301 22.9192 50.7301 22.9192C50.7301 22.9192 55.5601 24.6792 58.1001 25.1692C60.2001 25.5692 59.0401 30.1692 58.7901 32.5292C58.4401 35.9092 58.1901 37.2992 57.7601 40.5792C57.6801 41.2092 58.1001 50.4792 58.7801 56.6792C58.9401 58.1892 51.6201 58.2392 48.7601 58.2792C47.7701 58.2792 48.1801 44.1992 48.0001 39.1492L48.0101 39.1392Z" fill="#0E3999"/>
<path d="M33.7099 27.9392C31.8299 27.6892 29.6199 35.2592 27.9899 37.1092C27.4799 37.6992 35.0699 41.6392 35.0699 41.6392L37.3099 37.0992L33.7099 27.9292V27.9392Z" fill="#00225E"/>
<path d="M49.4903 15.6592C48.6403 12.7392 46.8603 10.5692 42.6503 11.7292C37.4003 13.1892 38.1803 16.1692 39.3103 19.5692C40.4603 23.0992 43.8603 26.7592 46.5503 26.0692C48.6003 25.5392 50.5003 23.1292 50.0003 19.7192C50.4703 19.2692 50.7403 18.3492 50.5403 17.4392C50.2903 16.2592 50.2703 15.5392 49.4903 15.6492V15.6592Z" fill="#E0B8AA"/>
<path d="M41.1302 12.9192C38.6202 14.0992 37.6102 15.7192 38.5002 18.4592C38.4202 18.4692 38.7502 18.6492 38.6802 18.6692C37.7802 18.8692 38.1002 19.4892 38.6402 20.7092C39.0702 21.6892 39.6302 22.5592 40.3702 22.5492C41.9002 25.8292 44.5302 26.5792 46.5102 26.0692C46.6102 26.0392 46.6902 26.0092 46.7802 25.9792C46.7802 25.9792 43.8402 26.5992 41.1402 12.9292L41.1302 12.9192Z" fill="#CC9987"/>
<path d="M41.4703 10.1792C40.6703 9.98922 38.5503 10.3992 37.4003 12.6592C36.9103 13.6292 36.7903 15.5692 37.1603 17.1392C37.5203 18.6992 38.3403 19.9192 38.3403 19.9192L39.1003 19.8892L39.0503 19.1392C39.0503 19.1392 38.7403 18.6292 39.7203 17.1792C40.6903 15.7092 43.3703 14.5992 43.3703 14.5992L41.4703 10.1892V10.1792Z" fill="black"/>
<path d="M40.0901 16.1092C40.7501 16.5592 42.6601 17.1492 44.0301 16.6792C45.3901 16.2092 47.1701 15.2592 47.6801 15.7692C48.1901 16.2792 48.9301 17.5592 48.9301 17.5592L49.4401 16.7292L50.1501 15.8292C50.1501 15.8292 49.9501 12.6392 48.5301 11.1092C47.4601 9.9392 47.0301 9.22921 45.2301 9.21921C44.4101 9.21921 39.9201 8.9692 39.6801 11.2392C39.6201 11.8792 40.0901 16.1192 40.0901 16.1192V16.1092Z" fill="#282626"/>
<path d="M48.55 45.3992C48.55 45.3992 48.61 45.6592 48.57 45.6892C48.53 45.7192 48.29 45.5792 48.29 45.5792L48.55 45.3992Z" fill="black"/>
<path d="M48.5598 45.4092C48.4998 45.1092 48.0798 44.3392 47.9898 44.1892L47.3398 44.6592C47.4998 44.8692 48.1398 45.4792 48.2998 45.5892C48.4498 45.4792 48.5398 45.4192 48.5498 45.3992L48.5598 45.4092Z" fill="white"/>
<path d="M44.5599 38.9792L43.9199 39.2092L44.4499 38.7892C44.4499 38.7892 41.8999 35.1592 41.7499 35.0092C41.4899 35.1792 41.3099 35.3092 41.2099 35.3892C41.0899 35.4692 40.9199 35.5992 40.6699 35.7792C40.7599 35.9792 43.3399 39.4792 43.3599 39.5192C43.3599 39.5192 47.0699 44.3792 47.3799 44.6592C47.7699 44.3992 47.9499 44.2492 48.0099 44.1992C47.8399 43.8192 44.5699 38.9592 44.5699 38.9592L44.5599 38.9792Z" fill="#6A7B9B"/>
<path d="M47.9997 44.2192C47.8597 43.8992 45.4897 40.3692 44.7697 39.2992C44.7697 39.2992 41.8897 35.1592 41.7297 35.0092C41.4897 35.1892 41.3597 35.2792 41.2197 35.3892L44.1497 39.5292L47.6897 44.4492C47.8697 44.3292 47.9597 44.2492 47.9997 44.2192Z" fill="#8FA4BC"/>
<path d="M30.37 39.9492C32.88 39.8492 39.96 41.3692 41.65 40.9092C43.96 40.2792 44.06 39.8292 44.61 39.8092C45.27 39.7792 45.59 39.9192 46.47 40.6092C47.73 41.6092 48.37 42.9192 48 43.3092C47.88 43.4492 47.42 42.9292 46.97 42.4392C46.32 41.7292 45.81 41.6492 45.81 41.6492C45.81 41.6492 46.35 42.2492 47.22 42.9392C47.87 43.4492 48 43.9192 47.82 44.1092C47.44 44.5092 45.17 42.9792 45.17 42.9792C45.17 42.9792 47.64 44.4492 47.33 44.7292C46.7 45.2892 44.69 44.1392 44.69 44.1392C44.69 44.1392 46.96 44.9492 46.8 45.2292C46.55 45.6792 45.24 45.4092 44.42 45.0392C43.61 44.6692 42.33 45.8692 40.82 45.2092C38.5 44.1892 29.99 47.0792 28.03 44.7592C25.31 41.5292 30.39 39.9492 30.39 39.9492H30.37Z" fill="#CC9987"/>
<path d="M60.4602 27.8592C62.0902 29.7292 68.4902 37.7292 69.0602 41.2892C69.0602 41.2892 67.6602 43.6292 67.3002 43.6992C66.9302 43.7692 65.9202 44.3492 64.4602 43.3992C63.0102 42.4492 59.2702 36.7692 58.6502 35.5292C58.0302 34.2792 60.4702 27.8592 60.4702 27.8592H60.4602Z" fill="#E0B8AA"/>
<path d="M58.42 25.3992C60.22 24.8192 64.21 32.6592 66.11 34.6192C66.65 35.1792 60.02 39.5292 60.02 39.5292L57.21 36.2592L58.42 25.3992Z" fill="#00225E"/>
<path d="M65.95 38.8292C63.54 38.9392 56.87 40.9592 55.21 40.6492C52.95 40.2192 52.81 39.8092 52.29 39.8292C51.66 39.8592 51.36 40.0092 50.57 40.7392C49.44 41.7892 48.93 43.1092 49.31 43.4492C49.44 43.5692 49.84 43.0392 50.23 42.5292C50.79 41.7892 51.29 41.6792 51.29 41.6792C51.29 41.6792 50.82 42.2992 50.04 43.0292C49.46 43.5692 49.37 44.0292 49.56 44.1992C49.95 44.5492 52.01 42.9092 52.01 42.9092C52.01 42.9092 49.76 44.5192 50.08 44.7592C50.73 45.2492 52.57 43.9892 52.57 43.9892C52.57 43.9892 50.46 44.9492 50.63 45.1992C50.91 45.6092 52.14 45.2492 52.9 44.8292C53.65 44.3992 54.97 45.4492 56.36 44.6992C58.5 43.5492 66.89 45.6292 68.58 43.2492C70.93 39.9392 65.94 38.8292 65.94 38.8292H65.95Z" fill="#CC9987"/>
<path d="M41.2902 94.2992C41.2902 94.2992 40.3702 96.0692 41.1102 97.0792C41.6902 97.8792 42.1102 98.2692 44.3302 98.0792C46.2102 97.9192 46.7802 96.7092 46.9302 95.9692C47.4102 93.5292 47.0502 93.6691 47.0502 93.6691L41.2902 94.2992Z" fill="#1E1E1E"/>
<path d="M42.5602 88.7391C42.7002 93.3391 40.2802 94.8091 40.9702 96.1191C41.4902 97.1191 41.6202 97.0391 42.9302 97.2191C44.5602 97.4391 46.3602 96.6591 46.9802 95.0891C47.6102 93.5191 47.0802 92.6091 47.0002 89.7791C46.9302 86.9491 42.5602 88.7391 42.5602 88.7391Z" fill="black"/>
<path d="M40.2004 46.1292C38.0304 55.7392 39.5204 56.1591 39.2104 70.7391C39.6404 77.9591 39.3904 83.9291 40.1704 92.6091C45.3404 94.4591 48.5404 91.9891 48.5404 91.9891C48.5404 91.9891 48.9304 75.5991 48.8504 72.6691C48.7604 69.7291 51.0204 51.5291 51.0204 51.5291L40.2004 46.1391V46.1292Z" fill="black"/>
<path d="M62.6 57.6192C61.46 67.5992 60.37 71.2292 60.37 71.2292C60.37 71.2292 60.53 85.8392 58.94 93.4192C54.54 94.0592 51.08 93.4192 51.08 93.4192C51.08 93.4192 50.99 93.1792 51.23 87.1892C51.45 81.5892 51.39 73.7492 51.38 68.2192C51.36 61.5892 51.6 55.2292 51.15 50.1192C50.7 45.0092 63.68 48.1692 62.6 57.6192Z" fill="black"/>
<path d="M59.4502 94.5292C57.8002 93.5592 57.6602 90.6292 58.1202 87.9292L53.5702 88.0592C53.5702 88.0592 53.6102 88.3892 53.6602 88.9292L53.1502 89.4892C52.6902 91.9092 51.9602 94.5992 52.9302 95.4192C53.5502 95.9492 54.2802 95.7292 54.7802 96.4592C54.7802 96.5092 56.0402 98.3092 59.7402 98.4592C62.4302 98.5692 61.9602 96.0092 59.4402 94.5292H59.4502Z" fill="black"/>
<path d="M58.9801 93.3092C60.5801 85.7292 60.6601 68.7492 60.6601 68.7492C60.6601 68.7492 61.5501 67.6892 61.9001 57.6492C62.3201 46.0792 58.6001 55.3492 57.8901 65.9792C57.2701 75.2792 55.9901 88.2892 55.6001 93.6392C57.8901 93.4392 57.7701 93.6292 58.9801 93.3092Z" fill="#1E1E1E"/>
<path d="M65.4603 96.2292H63.7103L60.5503 66.3492H63.4903L65.4603 96.2292Z" fill="#1E1E1E"/>
<path d="M35.9604 96.2292H34.2104L36.8405 66.3492H39.7804L35.9604 96.2292Z" fill="#1E1E1E"/>
<path d="M0.000234375 45.5892H92.4102C92.6802 45.5992 93.0502 45.6492 93.7102 45.8092L99.8502 47.6392C99.8502 47.7492 99.6302 47.8392 99.3702 47.8392L-0.00976562 47.6992V45.5892H0.000234375Z" fill="#D88241"/>
<path d="M90.8802 68.4792C90.8802 68.9292 90.3902 69.2992 89.7702 69.2992H1.30018C0.690176 69.2992 0.180176 68.9292 0.180176 68.4792V52.6692C0.180176 52.2192 0.680176 51.8492 1.30018 51.8492H89.7602C90.3802 51.8492 90.8702 52.2192 90.8702 52.6692V68.4792H90.8802Z" fill="#A54300"/>
<path d="M91.8701 51.7092H88.6201V98.1592H91.8701V51.7092Z" fill="#A54300"/>
<path d="M29.5099 60.5092H0.189941V98.1592H29.5099V60.5092Z" fill="#A54300"/>
<path style="mix-blend-mode:multiply" d="M0 50.4792V69.0492L81.62 68.5092L98.71 50.8992L0 50.4792Z" fill="url(#paint3_linear_25_22202)"/>
<path d="M0 47.5492H99.54C99.8 47.5492 100.01 47.7992 100.01 48.1192V51.8292C100.01 52.1492 99.8 52.3992 99.54 52.3992H0V47.5492Z" fill="#A54300"/>
<path d="M23.5602 41.6192H5.30023C4.30023 41.6192 3.49023 42.6592 3.49023 43.9392C3.49023 45.2192 4.20023 46.2492 5.17023 46.2892C5.24023 46.3092 5.39023 46.3092 5.47023 46.3092H23.5602C24.0802 46.3092 23.2402 45.8092 23.2402 45.1792V42.7392C23.2402 42.1192 24.0802 41.6092 23.5602 41.6092V41.6192Z" fill="black"/>
<path d="M5.42047 42.4092C4.76047 42.9692 4.39047 45.2692 5.42047 45.5092C7.39047 45.4592 23.3505 45.6492 23.3505 45.6492C23.3505 45.6492 23.0705 42.6892 23.3505 42.3592C18.5605 42.4092 5.42047 42.4092 5.42047 42.4092Z" fill="#C7DDE2"/>
<path d="M99.8002 41.6192H81.5502C80.5502 41.6192 79.7402 42.6592 79.7402 43.9392C79.7402 45.2192 80.4502 46.2492 81.4202 46.2892C81.4902 46.3092 81.6402 46.3092 81.7202 46.3092H99.8002C100.32 46.3092 99.4802 45.8092 99.4802 45.1792V42.7392C99.4802 42.1192 100.32 41.6092 99.8002 41.6092V41.6192Z" fill="black"/>
<path d="M81.6602 42.4092C81.0002 42.9692 80.6302 45.2692 81.6602 45.5092C83.6302 45.4592 99.5902 45.6492 99.5902 45.6492C99.5902 45.6492 99.3102 42.6892 99.5902 42.3592C94.8002 42.4092 81.6602 42.4092 81.6602 42.4092Z" fill="#C7DDE2"/>
<path d="M6.43018 37.1792L13.5202 36.7092L22.9202 36.9692L17.8102 38.1492L6.43018 37.1792Z" fill="#0E3999"/>
<path d="M16.3501 39.1892L18.0601 42.5492L22.6701 41.4892C22.6701 41.4892 23.0501 41.4392 22.6701 40.8692C22.3901 40.4392 22.7101 37.5892 22.7101 37.5892C22.7101 37.5892 23.1601 36.9192 22.8201 36.9192C22.4801 36.9192 18.1301 37.2592 18.1301 37.2592L16.3601 39.1792L16.3501 39.1892Z" fill="#00225E"/>
<path d="M17.8503 41.4291C17.8503 41.6691 18.3103 42.5592 18.0603 42.5592L6.68029 41.8491C5.69029 41.7391 4.46029 37.6092 6.62029 37.1292L17.9403 37.3491C18.1903 37.3491 17.8003 38.0291 17.8003 38.2691L17.8503 41.4391V41.4291Z" fill="#00225E"/>
<path d="M16.7402 39.5492L17.8602 41.9192L22.7102 41.0092L22.7802 37.5492L17.8102 38.0492L16.7402 39.5492Z" fill="#C7DDE2"/>
<path d="M17.8602 41.9192L6.93018 41.3592C5.57018 40.0492 6.29018 38.0292 6.52018 38.0292L17.8102 38.0492C18.0402 38.0492 17.1902 39.0092 17.8602 41.9192Z" fill="#F4EFEA"/>
<path d="M6.83 25.3692C4.69 26.7892 5.52 31.0292 7.4 31.4392C11.91 31.4392 23.46 31.3292 23.46 31.3292C23.46 31.3292 23.93 30.8392 23.22 30.3992C23.03 29.3992 22.23 27.2492 23.46 25.6992C23.96 25.4192 23.79 25.1292 23.52 24.9992C15 25.4092 6.83 25.3692 6.83 25.3692Z" fill="#327C34"/>
<path d="M7.31983 26.2192C6.96983 26.2892 4.84983 29.0392 7.80983 30.6592C7.59983 26.6492 7.31983 26.2192 7.31983 26.2192Z" fill="#1E1E1E"/>
<path d="M7.42995 26.3192C6.36995 27.5492 6.61995 30.2992 8.02995 30.6092C12.1699 30.6092 23.3499 30.3892 23.3499 30.3892C23.3499 30.3892 22.4899 28.1892 23.4599 25.6992C15.6399 25.9792 7.42995 26.3192 7.42995 26.3192Z" fill="#C7DDE2"/>
<path d="M17.1702 24.0092C13.3402 23.2092 10.6502 18.4192 10.6602 13.4292C10.6602 12.7492 10.7102 12.0592 10.8102 11.3892C11.7802 5.09918 15.7002 1.52918 20.8302 1.51918C21.4602 1.51918 22.1202 1.57918 22.7902 1.68918L22.9102 1.00918C22.2002 0.889182 21.5102 0.829182 20.8402 0.829182C15.3602 0.819182 11.1202 4.74918 10.1502 11.2792C10.0402 11.9892 9.99023 12.6992 9.99023 13.4192C9.99023 18.6092 12.7302 23.7092 17.0402 24.6692L17.1902 23.9992L17.1702 24.0092Z" fill="#1E1E1E"/>
<path d="M10.8701 24.4392C10.8701 24.8492 11.2101 25.1892 11.6201 25.1892H18.7401C19.1601 25.1892 19.4901 24.8492 19.4901 24.4392V24.0592C19.4901 23.6492 19.1601 23.3092 18.7401 23.3092H11.6201C11.2101 23.3092 10.8701 23.6492 10.8701 24.0592V24.4392Z" fill="#1E1E1E"/>
<path d="M28.6201 1.82918C27.4001 -0.0908195 24.7101 -0.58082 22.6101 0.74918C20.5101 2.07918 19.7901 4.70918 21.0101 6.63918L28.6201 1.82918Z" fill="#1E1E1E"/>
<path d="M20.9804 6.63917L23.7304 4.89917C22.9904 4.07917 22.5504 2.93917 22.6004 1.68917C22.6204 1.32917 22.6804 0.97917 22.7704 0.64917C22.7104 0.67917 22.6404 0.70917 22.5804 0.73917C20.4804 2.06917 19.7604 4.69917 20.9804 6.62917V6.63917Z" fill="black"/>
<path d="M19.5004 24.4692C19.5004 24.8892 19.1604 25.2192 18.7504 25.2192H11.6304C11.2104 25.2192 10.8804 24.8892 10.8804 24.4692V24.0892C10.8804 24.0192 10.9004 23.9592 10.9204 23.8992H19.4704C19.4804 23.9592 19.5104 24.0192 19.5104 24.0892V24.4692H19.5004Z" fill="black"/>
<path d="M16.2904 30.3292L5.7404 31.6492C5.7404 31.6492 4.1304 35.0592 6.1104 36.7892C8.5404 37.2092 16.8804 37.1292 16.8804 37.1292C16.8804 37.1292 15.6904 33.6092 15.6904 32.4792C15.6904 31.3492 16.3004 30.3192 16.3004 30.3192L16.2904 30.3292Z" fill="#B80000"/>
<path d="M24.3406 35.6492C24.8306 35.7192 25.7106 36.1792 25.3606 36.5292C25.0106 36.8792 16.8706 37.1292 16.8706 37.1292C16.8706 37.1292 15.9106 36.3992 15.5106 35.0192C14.9106 32.9292 15.5806 30.1992 16.3506 30.3292C20.2506 30.9592 25.7106 31.4792 25.5606 31.8892C25.3306 32.4992 24.5406 32.4892 24.5406 32.4892L24.3306 35.6592L24.3406 35.6492Z" fill="#850000"/>
<path d="M16.3605 31.0491C15.7105 31.6691 15.3005 35.2191 17.1305 36.3491C21.5005 36.2091 24.7205 36.0691 24.7205 36.0691C24.7205 36.0691 23.9805 34.6591 24.9705 32.2691C20.2705 31.6191 16.3605 31.0491 16.3605 31.0491Z" fill="#C7DDE2"/>
<path d="M13.8705 31.0491C13.1105 31.7091 12.7605 35.1891 14.1805 36.6391L13.2105 36.5291C13.2105 36.5291 11.3005 34.1891 12.9005 31.2491C13.5805 31.1591 13.8705 31.0491 13.8705 31.0491Z" fill="#8FA4BC"/>
<path d="M12.4404 31.2792C11.7304 31.8992 11.4004 35.1592 12.7304 36.5092L11.8304 36.3992C11.8304 36.3992 10.0504 34.2092 11.5404 31.4592C12.1804 31.3692 12.4404 31.2692 12.4404 31.2692V31.2792Z" fill="#8FA4BC"/>
<path d="M80.6099 30.2492C80.6099 30.3792 80.8599 30.4892 81.1799 30.4892H96.6799C96.9899 30.4892 97.2499 30.3792 97.2499 30.2492V27.0292C97.2499 26.8992 96.9999 26.7992 96.6799 26.7992H81.1799C80.8699 26.7992 80.6099 26.9092 80.6099 27.0292V30.2492Z" fill="#850000"/>
<path d="M80.6001 29.6992C80.6001 29.7892 80.8301 29.8592 81.1201 29.8592H95.4001C95.6801 29.8592 95.9201 29.7892 95.9201 29.6992V27.5792C95.9201 27.4892 95.6801 27.4192 95.4001 27.4192H81.1201C80.8301 27.4192 80.6001 27.4892 80.6001 27.5792V29.6992Z" fill="#F4EFEA"/>
<path d="M97.2601 41.4292C97.2601 41.6692 97.0201 41.8592 96.7401 41.8592H82.6401C82.3501 41.8592 82.1201 41.6692 82.1201 41.4292V36.4392C82.1201 36.2092 82.3501 36.0192 82.6401 36.0192H96.7401C97.0301 36.0192 97.2601 36.2092 97.2601 36.4392V41.4292Z" fill="#00225E"/>
<path d="M97.2701 40.4392C97.2701 40.5892 97.0601 40.7192 96.7901 40.7192H83.8101C83.5501 40.7192 83.3301 40.5892 83.3301 40.4392V37.4392C83.3301 37.2892 83.5501 37.1592 83.8101 37.1592H96.7901C97.0501 37.1592 97.2701 37.2892 97.2701 37.4392V40.4392Z" fill="#E5E0DA"/>
<path d="M80.8101 36.0692C80.8101 36.2992 81.0401 36.4992 81.3201 36.4992H95.4201C95.7101 36.4992 95.9401 36.3092 95.9401 36.0692V31.0892C95.9401 30.8492 95.7101 30.6592 95.4201 30.6592H81.3201C81.0401 30.6592 80.8101 30.8492 80.8101 31.0892V36.0692Z" fill="#327C34"/>
<path d="M80.8101 35.2792C80.8101 35.4592 81.0201 35.6092 81.2901 35.6092H94.5801C94.8501 35.6092 95.0701 35.4592 95.0701 35.2792V31.7392C95.0701 31.5592 94.8501 31.4092 94.5801 31.4092H81.2901C81.0301 31.4092 80.8101 31.5592 80.8101 31.7392V35.2792Z" fill="#F4EFEA"/>
<path d="M41.5601 45.1592L43.1901 44.0492L65.3401 44.1192L68.4601 44.8692L41.5601 45.1592Z" fill="white"/>
<path d="M67.3699 44.7392H41.6499V46.7192H67.3699V44.7392Z" fill="#6CB1E0"/>
<path d="M82.7903 41.6192C82.7903 42.1692 82.3303 42.6092 81.7503 42.6092H57.5803C57.0103 42.6092 56.5503 42.1592 56.5503 41.6192V23.6492C56.5503 23.0992 57.0103 22.6592 57.5803 22.6592H81.7503C82.3203 22.6592 82.7903 23.0992 82.7903 23.6492V41.6192Z" fill="#94CDED"/>
<path d="M68.3203 34.7192L66.3203 46.8692H73.7403L71.1703 34.7192H68.3203Z" fill="#6CB1E0"/>
<defs>
<linearGradient id="paint0_linear_25_22202" x1="67.93" y1="38.6692" x2="91.93" y2="17.9192" gradientUnits="userSpaceOnUse">
<stop offset="0.18" stop-color="white"/>
<stop offset="0.3" stop-color="#ECECEC"/>
<stop offset="0.54" stop-color="#BBBBBB"/>
<stop offset="0.87" stop-color="#737373"/>
</linearGradient>
<linearGradient id="paint1_linear_25_22202" x1="-0.14" y1="41.1292" x2="14.47" y2="28.5092" gradientUnits="userSpaceOnUse">
<stop offset="0.18" stop-color="white"/>
<stop offset="0.3" stop-color="#ECECEC"/>
<stop offset="0.54" stop-color="#BBBBBB"/>
<stop offset="0.87" stop-color="#737373"/>
</linearGradient>
<linearGradient id="paint2_linear_25_22202" x1="41.018" y1="33.5812" x2="50.8084" y2="11.2418" gradientUnits="userSpaceOnUse">
<stop stop-color="white"/>
<stop offset="0.64" stop-color="#C6C0B9"/>
</linearGradient>
<linearGradient id="paint3_linear_25_22202" x1="49.36" y1="91.2392" x2="49.36" y2="53.4792" gradientUnits="userSpaceOnUse">
<stop offset="0.7" stop-color="white"/>
<stop offset="0.74" stop-color="#F7F7F7"/>
<stop offset="0.79" stop-color="#E3E3E3"/>
<stop offset="0.86" stop-color="#C2C2C2"/>
<stop offset="0.94" stop-color="#959595"/>
<stop offset="0.96" stop-color="#8C8C8C"/>
</linearGradient>
</defs>
</svg>
