<svg width="142" height="136" viewBox="0 0 142 136" fill="none" xmlns="http://www.w3.org/2000/svg">
<path d="M75.791 17.9555C104.225 17.9555 127.355 41.091 127.355 69.5199C127.355 97.9488 104.225 121.089 75.791 121.089C47.3575 121.089 24.2221 97.958 24.2221 69.5199C24.2221 58.7724 27.533 48.7868 33.1821 40.5151L22.9119 30.6212C14.9247 41.5246 10.2026 54.9704 10.2026 69.5222C10.2026 105.918 39.7054 135.42 76.1008 135.42C112.496 135.42 141.999 105.918 141.999 69.5222C141.999 33.1268 112.496 3.62402 76.1008 3.62402C58.9723 3.62402 43.3697 10.1611 31.6517 20.8741L42.7135 29.9994C51.6735 22.4871 63.2126 17.9555 75.791 17.9555Z" fill="#FFCF00"/>
<path d="M43.6657 50.6155C40.4029 56.1613 38.5283 62.6226 38.5283 69.5199C38.5283 90.1429 55.2438 106.858 75.8622 106.858C96.4806 106.858 113.201 90.1429 113.201 69.5199C113.201 48.8969 96.4852 32.186 75.8622 32.186C67.6823 32.186 60.115 34.8178 53.9635 39.2829L67.2463 50.2438C69.8047 49.1332 72.6269 48.5137 75.5937 48.5137C87.1971 48.5137 96.6045 57.9189 96.6045 69.5245C96.6045 81.1301 87.1971 90.5353 75.5937 90.5353C63.9904 90.5353 54.583 81.1278 54.583 69.5245C54.583 67.0051 55.0373 64.5936 55.8518 62.3542L43.668 50.6155H43.6657Z" fill="#FFCF00"/>
<path d="M0.116301 14.2293L11.8045 25.5618C11.6714 25.7591 12.642 26.1056 13.5965 26.1377L23.0017 24.7381L23.596 25.3071L61.1777 61.5121L61.0905 61.6085C60.8495 61.8792 60.8725 62.2922 61.1432 62.5332L61.1524 62.5423C61.4232 62.7833 61.8362 62.7603 62.0771 62.4896L62.1735 62.3817C63.5662 63.3179 65.3743 63.3133 66.7556 62.4161L75.6927 69.3111C75.7684 69.3708 75.9221 69.3111 76.0415 69.178L76.046 69.1735C76.1654 69.0404 76.2044 68.8821 76.1378 68.8132L68.2539 60.7044C68.94 59.2474 68.7243 57.4944 67.655 56.2416L67.7514 56.1338C67.9923 55.863 67.9694 55.45 67.6986 55.2091L67.6895 55.1999C67.4187 54.959 67.0057 54.9819 66.7648 55.2527L66.6776 55.3491L26.4228 22.1361L24.9153 20.8925L25.8239 21.6428L26.1383 12.2996C26.1635 11.5378 25.8331 10.8059 25.2434 10.324L12.759 0.0859239C12.5112 -0.115992 12.1418 0.0606844 12.1441 0.379621L12.2382 10.4273L7.43348 6.46235C7.19485 6.26502 6.89427 6.18013 6.60516 6.20307C6.42619 6.21684 6.25181 6.2765 6.09349 6.37057C6.05907 6.39122 6.02465 6.40728 5.99253 6.43252C5.98105 6.4417 5.97188 6.45317 5.9627 6.46006C5.91451 6.49906 5.86862 6.53807 5.82503 6.58626V6.58855L5.81126 6.60461L5.80897 6.60691C5.72178 6.70557 5.65753 6.818 5.60934 6.93273C5.60017 6.95338 5.58869 6.97173 5.58181 6.99468C5.58181 6.99468 5.58181 6.99927 5.58181 7.00156C5.53363 7.13923 5.51298 7.28379 5.51986 7.42604C5.52904 7.71745 5.64835 8.00655 5.87321 8.22224L8.89508 11.1294L10.3314 12.513L0.348046 13.5661C0.0199321 13.6006 -0.117738 14.0021 0.118596 14.2315L0.116301 14.2293Z" fill="#FFCF00"/>
</svg>
