<svg width="112" height="60" viewBox="0 0 112 60" fill="none" xmlns="http://www.w3.org/2000/svg">
<path d="M77.9913 34.349H72.764C71.161 34.349 69.9761 34.8369 69.2094 36.4399L59.173 59.3006H66.2822C66.2822 59.3006 67.5367 56.2339 67.7458 55.537H76.458C76.7368 56.3733 77.2943 59.2309 77.2943 59.2309H83.6368L77.9913 34.4187V34.349ZM69.6973 50.3794C70.3246 48.9157 72.4155 43.4096 72.4155 43.4096C72.4155 43.549 73.0428 41.946 73.2519 41.1096L73.7398 43.3399L75.3428 50.5885H69.6973V50.4491V50.3794ZM59.6609 51.0763C59.6609 56.2339 54.9912 59.6491 47.8124 59.6491C44.7457 59.6491 41.8184 59.0218 40.2154 58.3249L41.1911 52.6794L42.0275 53.0279C44.2578 54.0036 45.7214 54.3521 48.3699 54.3521C50.3215 54.3521 52.4124 53.5854 52.4124 51.9127C52.4124 50.7975 51.576 50.1006 48.8578 48.846C46.279 47.5915 42.8639 45.6399 42.8639 42.1551C42.8639 37.2763 47.6033 33.9308 54.3639 33.9308C56.9427 33.9308 59.1033 34.4187 60.4973 35.0459L59.5215 40.4126L59.0336 39.9248C57.7791 39.4369 56.2457 38.949 53.876 38.949C51.2972 39.0884 50.1124 40.2035 50.1124 41.1793C50.1124 42.2945 51.576 43.1308 53.876 44.246C57.7791 46.0581 59.5912 48.149 59.5912 51.0763H59.6609ZM0 34.5581L0.139395 34.0702H10.6637C12.1273 34.0702 13.2425 34.5581 13.591 36.1611L15.891 47.1733C13.591 41.3187 8.15459 36.5096 0 34.5581Z" fill="#FFCF00"/>
<path d="M30.6677 34.3492L20.004 59.1615H12.7554L6.62207 38.3917C11.013 41.1796 14.707 45.6402 16.0312 48.6372L16.7979 51.216L23.4191 34.2098H30.6677V34.3492ZM33.5252 34.2098H40.2162L35.9646 59.1615H29.2737L33.5252 34.2098Z" fill="#FFCF00"/>
<path d="M94.5516 42.9967L94.0142 36.5472H93.4767C88.3888 36.5472 84.0712 34.7736 80.524 31.2263C76.9767 27.6791 75.2031 23.3615 75.2031 18.2736C75.2031 13.1856 76.9767 8.86806 80.524 5.32084C84.0712 1.77361 88.3888 0 93.4767 0C96.0207 0 98.3948 0.474396 100.599 1.42319C102.803 2.37198 104.738 3.6798 106.404 5.34664C108.069 7.01347 109.376 8.94832 110.325 11.1512C111.274 13.354 111.749 15.7282 111.75 18.2736C111.75 20.9609 111.312 23.5407 110.435 26.013C109.557 28.4853 108.356 30.7784 106.831 32.8924C105.309 35.0065 103.5 36.9234 101.403 38.6433C99.3063 40.3631 97.0225 41.8143 94.5516 42.9967ZM93.423 30.0439C94.0321 30.0439 94.5516 29.8289 94.9816 29.399C95.4116 28.969 95.6265 28.4495 95.6265 27.8403C95.6265 27.2312 95.4116 26.7117 94.9816 26.2817C94.5516 25.8517 94.0321 25.6368 93.423 25.6368C92.8138 25.6368 92.2943 25.8517 91.8643 26.2817C91.4344 26.7117 91.2194 27.2312 91.2194 27.8403C91.2194 28.4495 91.4344 28.969 91.8643 29.399C92.2943 29.8289 92.8138 30.0439 93.423 30.0439ZM91.8643 23.2182H95.0891C95.0891 22.1433 95.1966 21.3908 95.4116 20.9609C95.6265 20.5309 96.3073 19.7426 97.4539 18.5961C98.0989 17.9511 98.6363 17.2524 99.0663 16.5C99.4962 15.7475 99.7112 14.9413 99.7112 14.0814C99.7112 12.2541 99.0935 10.8832 97.8581 9.96878C96.6226 9.05438 95.1622 8.5979 93.4767 8.59933C91.9002 8.59933 90.5744 9.03862 89.4995 9.91718C88.4246 10.7957 87.6722 11.8613 87.2422 13.114L90.252 14.2964C90.4311 13.6873 90.7715 13.0875 91.2731 12.497C91.7748 11.9065 92.5093 11.6105 93.4767 11.6091C94.4441 11.6091 95.1701 11.8778 95.6545 12.4153C96.1389 12.9527 96.3804 13.544 96.379 14.1889C96.379 14.798 96.1998 15.3448 95.8415 15.8292C95.4832 16.3137 95.0533 16.806 94.5516 17.3062C93.2976 18.3811 92.5365 19.2324 92.2685 19.8602C92.0005 20.4879 91.8658 21.6073 91.8643 23.2182Z" fill="#FFCF00"/>
</svg>
