<svg width="91" height="96" viewBox="0 0 91 96" fill="none" xmlns="http://www.w3.org/2000/svg">
<path d="M4.32661 80.8983C4.32661 80.8983 -0.871984 85.0494 3.98853 90.2453L27.4321 83.3397L4.32384 80.8983H4.32661Z" fill="#3F90A8"/>
<path d="M84.1535 82.8047L42.756 95.4604L3.98828 90.2452L6.5377 89.4332L45.7765 76.8524H45.8042L64.2487 80.7098L82.2581 82.6052L84.1535 82.8047Z" fill="#3F90A8"/>
<path d="M83.7238 75.3394L81.6011 76.3952L83.7099 75.6387L83.6961 76.2511L75.7181 79.6568L83.6822 76.5504L83.5686 79.6707L80.5065 81.0091L83.5547 80.1972L83.4827 82.1785L82.2579 82.6053L42.8833 94.5487L42.7835 94.5349L6.53747 89.4333L4.64204 89.1617C3.64444 86.712 3.8301 84.1321 4.92746 81.4553L45.7763 76.8524H45.804L81.8284 74.6827L83.7515 74.4693L83.7238 75.3394Z" fill="#F4F1E5"/>
<path d="M4.92188 81.4497L47.3669 72.0197L83.757 74.4749L43.6896 86.6594L4.92188 81.4497Z" fill="#F8DCC2"/>
<g style="mix-blend-mode:multiply">
<path d="M4.92188 81.4497L47.3669 72.0197L83.757 74.4749L43.1243 86.5818L4.92188 81.4497Z" fill="#F8DCC2"/>
</g>
<path d="M4.32617 80.8983L43.8726 72.4935C45.7874 71.8146 47.8159 71.5042 49.8471 71.579L84.4582 73.7821L43.0939 86.1079L4.32617 80.8983Z" fill="#3F90A8"/>
<g style="mix-blend-mode:multiply">
<path d="M84.1534 82.8048L42.7559 95.4604L42.7836 94.5349L43.0967 86.1135L64.2485 80.7098L81.8312 74.6827L83.7543 74.4693L83.7239 75.3394L81.6012 76.3924L83.71 75.6387L83.6961 76.2511L75.7181 79.6568L83.6823 76.5504L83.5687 79.6707L80.5038 81.0091L83.5548 80.1972L83.4828 82.1785L82.2579 82.6053L84.1534 82.8048Z" fill="#F8DCC2"/>
</g>
<path d="M2.41401 69.9469C2.41401 69.9469 -2.78458 74.098 2.07593 79.2938L25.5195 72.3882L2.41124 69.9469H2.41401Z" fill="#EC925D"/>
<path d="M82.2409 71.8534L40.8434 84.509L2.07568 79.2938L4.6251 78.4819L43.8639 65.9011H43.8916L62.3361 69.7584L80.3455 71.6539L82.2409 71.8534Z" fill="#EC925D"/>
<path d="M81.8151 64.3881L79.6924 65.4411L81.8012 64.6874L81.7874 65.2998L73.8094 68.7055L81.7735 65.599L81.6599 68.7193L78.5979 70.0577L81.6461 69.2458L81.574 71.2272L80.3492 71.6539L40.9746 83.5974L40.8748 83.5835L4.62878 78.4819L2.73335 78.2103C1.73575 75.7607 1.92141 73.1808 3.01877 70.5039L43.8676 65.9011H43.8953L79.9197 63.7313L81.8428 63.5179L81.8151 64.3881Z" fill="#F4F1E5"/>
<path d="M3.00977 70.4983L45.4548 61.0655L81.8449 63.5235L41.7775 75.708L3.00977 70.4983Z" fill="#F8DCC2"/>
<g style="mix-blend-mode:multiply">
<path d="M3.00977 70.4983L45.4548 61.0655L81.8449 63.5235L41.2122 75.6304L3.00977 70.4983Z" fill="#F8DCC2"/>
</g>
<path d="M2.41455 69.9469L41.961 61.5421C43.8758 60.8632 45.9042 60.5529 47.9355 60.6277L82.5466 62.8307L41.1823 75.1566L2.41455 69.9469Z" fill="#EC925D"/>
<g style="mix-blend-mode:multiply">
<path d="M82.2413 71.8534L40.8438 84.5091L40.8715 83.5835L41.1846 75.1621L62.3364 69.7585L79.9191 63.7313L81.8422 63.5179L81.8145 64.3881L79.6891 65.4411L81.7979 64.6874L81.784 65.2998L73.806 68.7027L81.7702 65.599L81.6566 68.7193L78.5945 70.0577L81.6427 69.2458L81.5707 71.2272L80.3458 71.6539L82.2413 71.8534Z" fill="#F8DCC2"/>
</g>
<path d="M8.35297 60.902C8.35297 60.902 3.15438 65.0532 8.0149 70.249L31.4584 63.3434L8.3502 60.902H8.35297Z" fill="#A64C49"/>
<path d="M88.1799 62.8085L46.7824 75.4641L8.01465 70.2489L10.5641 69.437L49.8029 56.8561H49.8306L68.2751 60.7135L86.2845 62.609L88.1799 62.8085Z" fill="#A64C49"/>
<path d="M87.7502 55.3431L85.6275 56.3961L87.7363 55.6424L87.7224 56.2548L79.7444 59.6605L87.7086 56.5541L87.595 59.6744L84.5329 61.0128L87.5811 60.2009L87.5091 62.1822L86.2842 62.6089L46.9096 74.5524L46.8099 74.5385L10.5638 69.4369L8.6684 69.1654C7.67081 66.7157 7.85647 64.1358 8.95383 61.4562L49.8027 56.8534H49.8304L85.8575 54.6836L87.7806 54.4702L87.7529 55.3403L87.7502 55.3431Z" fill="#F4F1E5"/>
<path d="M8.94873 61.4534L51.3937 52.0206L87.7839 54.4785L47.7165 66.6631L8.94873 61.4534Z" fill="#F8DCC2"/>
<g style="mix-blend-mode:multiply">
<path d="M8.94873 61.4534L51.3937 52.0206L87.7839 54.4785L47.1512 66.5855L8.94873 61.4534Z" fill="#F8DCC2"/>
</g>
<path d="M8.35254 60.902L47.899 52.4972C49.8138 51.8211 51.8422 51.5107 53.8735 51.5828L88.4873 53.7858L47.123 66.1117L8.35531 60.902H8.35254Z" fill="#A64C49"/>
<g style="mix-blend-mode:multiply">
<path d="M88.1797 62.8085L46.7822 75.4641L46.8099 74.5386L47.1231 66.1172L68.2749 60.7135L85.8575 54.6864L87.7807 54.473L87.7502 55.3431L85.6275 56.3962L87.7364 55.6424L87.7225 56.2548L79.7445 59.6578L87.7086 56.5541L87.595 59.6744L84.5302 61.0128L87.5812 60.2009L87.5091 62.1822L86.2843 62.609L88.1797 62.8085Z" fill="#F8DCC2"/>
</g>
<path d="M88.9921 58.8791L85.9023 58.1919L64.127 53.3147L65.7148 53.0737L68.0536 52.7051L70.9162 52.2451L85.603 49.9368L87.5317 49.6403C87.5317 49.6403 93.1903 53.1429 88.9893 58.8819L88.9921 58.8791Z" fill="#3F90A8"/>
<path d="M88.9919 58.8791L50.6925 64.8951L7.8623 56.9753L26.6393 52.8962L28.2077 52.5138L36.8176 48.9114L45.4523 46.7915L54.5166 49.4739L66.9145 52.3559L67.9371 52.6635L68.0534 52.7023L68.1975 52.7383L86.412 58.1142L88.9919 58.8791Z" fill="#3F90A8"/>
<path d="M11.0211 54.7002L7.82051 53.7331L7.33557 50.6516L15.6184 52.7771L7.29123 50.3551L7.19424 49.7427L9.38341 50.2526L7.1499 49.449L87.5424 49.6374C89.0637 55.3597 88.9196 55.332 88.2158 57.8731L50.5315 63.8171L8.21678 56.216L7.90641 54.2513L11.0267 54.7002H11.0211Z" fill="#F8DCC2"/>
<path d="M87.013 50.2554L43.8835 44.17L7.01123 48.5983L48.7136 56.2742L87.013 50.2554Z" fill="#F8DCC2"/>
<g style="mix-blend-mode:multiply">
<path d="M87.6199 49.9478L87.5367 49.6374L43.8835 44.17L7.01123 48.5983L49.326 56.1911L87.6199 49.9478Z" fill="#F8DCC2"/>
</g>
<path d="M87.5372 49.6374L47.4088 44.2255C45.4247 43.7821 43.3769 43.7156 41.3678 44.0315L6.29395 48.0718L49.2377 55.6591L87.5372 49.6374Z" fill="#3F90A8"/>
<g style="mix-blend-mode:multiply">
<path d="M88.992 58.8791L50.6954 64.8951L50.5291 63.8172L49.3292 56.1911L49.2378 55.6535L66.9174 52.3587L85.4783 49.9118L87.5344 49.6375C87.5344 49.6375 93.193 53.1401 88.992 58.8791Z" fill="#F8DCC2"/>
</g>
<path d="M80.3735 72.3467C79.5504 72.9314 79.0627 73.4468 76.9456 72.8649C75.79 72.5462 74.4932 71.7398 73.7228 71.2687C73.2933 70.9999 72.8194 70.8142 72.3234 70.6951C72.1765 70.6591 72.038 70.6286 71.9105 70.5898C71.8939 70.5842 71.88 70.5787 71.8551 70.5648C70.1425 70.0937 70.0622 69.5229 69.9984 69.304C69.9236 69.049 70.2866 64.7899 70.2866 64.7899L75.0308 65.8207C75.0308 65.8207 75.6293 66.8682 76.5826 67.8214C77.7658 69.0019 79.6336 70.3847 80.1518 70.7727C80.9443 71.3685 80.8279 72.0307 80.3707 72.3467H80.3735Z" fill="#3B5765"/>
<g style="mix-blend-mode:multiply" opacity="0.28">
<path d="M75.5129 66.5523C75.5129 66.5523 76.0866 67.5721 71.9798 67.8658C69.4304 68.0487 71.3424 70.2988 71.8551 70.5676C70.1425 70.0966 70.0622 69.5257 69.9984 69.3068C69.9236 69.0519 70.2866 64.7927 70.2866 64.7927L75.0308 65.8235C75.0308 65.8235 75.1776 66.1173 75.5129 66.5523Z" fill="#3B5765"/>
</g>
<path d="M76.142 49.2883C76.0671 51.1671 74.8645 51.7407 74.0359 53.1845C73.4678 53.0238 72.6116 52.9129 71.5558 52.8298C70.5693 52.7467 69.4026 52.7023 68.1446 52.6663C61.6962 52.4612 52.704 52.5582 51.3738 50.9427C51.0136 50.5104 49.4313 44.2588 49.1764 43.8071C48.6415 42.8455 48.3589 41.8535 48.3312 40.9418C48.2896 39.2874 49.071 37.8908 50.6561 37.331C51.5567 37.004 52.7289 36.9652 54.1422 37.3144C54.7102 37.5278 55.8215 36.8128 56.4145 36.9957C56.9271 37.1537 57.437 37.3227 57.9441 37.4973C59.1828 37.9074 60.4049 38.3508 61.602 38.8108C66.3323 40.6148 71.0099 42.8898 73.9556 44.5054C75.7734 45.7081 76.2168 47.4566 76.142 49.2911V49.2883Z" fill="#EC925D"/>
<path d="M76.1114 47.9803C76.3552 54.1765 75.172 64.2855 75.4546 66.1505C74.7923 67.2728 70.1563 67.5582 70.0233 66.652C69.9291 65.9122 69.9318 65.8872 69.9207 65.7791C69.4247 62.573 67.5902 52.4224 67.3242 51.3749C67.3242 51.3528 67.3325 51.3112 67.3602 51.2696C67.5764 50.8429 69.0506 49.6375 70.6551 48.4154C72.7611 46.8193 76.0975 47.4926 76.1169 47.9776L76.1114 47.9803Z" fill="#EC925D"/>
<g style="mix-blend-mode:multiply" opacity="0.4">
<path d="M71.7778 54.5645C70.7525 58.0006 69.8686 65.0642 70.118 67.3919C69.6219 64.1857 67.9814 53.9908 67.7154 52.9434C67.7154 52.9212 68.12 52.7051 68.1449 52.6635C61.6966 52.4584 52.7043 52.5554 51.3742 50.9399C51.014 50.5076 49.4317 44.256 49.1767 43.8043C48.6419 42.8427 48.3593 41.8506 48.3315 40.939L57.9445 37.4917C59.1832 37.9018 60.4052 38.3452 61.6024 38.8052C61.6024 38.8052 62.0928 38.8966 61.2671 40.2961C60.9317 40.8614 61.9183 42.2857 62.4753 42.6349C65.5207 44.5358 68.8432 46.5809 70.65 48.4126C71.994 49.776 72.382 52.5222 71.7751 54.5617L71.7778 54.5645Z" fill="#EC925D"/>
</g>
<path d="M62.9843 20.0781C62.9039 20.552 61.2607 27.452 60.5817 30.3063V30.3201C60.4127 31.0462 60.3019 31.5062 60.3019 31.5256C58.8304 31.3371 56.0427 30.6166 54.876 29.159C54.4687 28.6519 54.2636 28.0478 54.3883 27.3495C54.6017 26.1579 55.5633 23.3979 55.8681 22.2729C56.2893 20.7016 56.8352 19.4048 57.4809 18.4238C58.1986 17.3043 59.041 16.5949 59.9721 16.3372C62.1751 15.733 62.7377 16.9606 63.1506 18.0663C63.3639 18.6566 63.0397 19.8149 62.9871 20.0781H62.9843Z" fill="#F8C650"/>
<path d="M67.1777 37.8409C67.1777 37.8409 68.2889 39.0047 68.8708 39.2154C69.4528 39.426 70.564 39.0574 71.7251 39.2154C72.8889 39.3733 73.2132 40.9584 73.4182 41.3297C73.6233 41.701 73.6759 42.8538 72.4899 42.912C71.3039 42.9702 69.9682 41.1634 69.9349 41.8036C70.3839 42.5961 70.758 43.0589 70.1926 43.0755C69.6273 43.0894 68.7434 41.4378 67.9093 41.1801C67.0724 40.9223 66.4378 40.6203 66.2272 40.1049C66.0166 39.5867 67.1777 37.8437 67.1777 37.8437V37.8409Z" fill="#FCC7A9"/>
<path d="M65.2601 40.4014C65.2601 40.4014 64.9581 40.224 64.4537 39.9414C64.4454 39.9414 64.4399 39.9414 64.4316 39.9275C62.2424 38.6861 56.4619 35.3857 55.8245 35.0199C55.0486 34.5737 53.8432 33.0081 53.4663 32.4511C53.555 31.0212 54.0953 29.8823 54.8713 29.1562C56.3566 27.7818 58.7148 27.8898 60.5797 30.3146C60.588 30.334 67.7874 37.8575 68.0479 38.0598C68.3277 38.2843 66.3242 40.8697 65.2601 40.3986V40.4014Z" fill="#F8C650"/>
<path d="M54.2287 13.9817L53.5415 13.009C53.5415 13.009 54.456 12.2442 55.5838 12.7209L54.2287 13.9817Z" fill="#F8C650"/>
<g style="mix-blend-mode:multiply">
<path d="M53.5415 13.009C53.5415 13.009 54.456 12.2442 55.5838 12.7209C56.7116 13.1975 54.2287 13.9817 54.2287 13.9817L53.5415 13.009Z" fill="#F8C650"/>
</g>
<path d="M64.844 7.4003C62.7934 9.15441 62.5246 12.1112 58.5813 12.1112C54.638 12.1112 55.3308 13.0894 54.178 10.648C53.053 8.27043 52.9892 6.99295 52.8119 4.67077C52.7232 3.52353 54.0228 1.80268 56.5861 1.07942C59.5484 -0.741198 62.059 1.08496 63.5804 1.42581C65.8111 1.9246 66.0023 3.29907 65.7252 4.10823C65.7474 6.19765 65.5395 6.33897 64.844 7.40308V7.4003Z" fill="#3B5765"/>
<path d="M68.0702 47.548C68.0951 47.7586 67.0948 50.1335 66.1748 52.2118C66.1221 52.3337 66.0722 52.4529 66.0113 52.5748C65.349 54.0934 64.7615 55.3625 64.7227 55.3681C63.448 55.1104 62.1899 54.8527 60.954 54.5672C60.5439 54.4813 60.1393 54.3982 59.7264 54.2957C54.8493 53.1845 50.2049 51.8432 45.6021 49.8259C41.7586 48.1494 40.2816 44.1035 40.7139 41.5403C40.761 41.241 40.8109 40.9556 40.8552 40.6895C41.5591 36.4969 41.6006 36.5828 47.1068 36.8516C48.1016 36.8931 50.6926 38.0431 51.668 38.3507C54.1593 39.1571 53.3224 37.827 55.4035 39.1405C55.5282 39.2153 55.6501 39.3012 55.7748 39.376C56.789 40.0079 57.7174 40.5981 58.5736 41.1385C62.4559 43.5909 64.8585 45.187 66.7955 46.5975C66.8842 46.653 66.9729 46.7167 67.0532 46.7804C67.3747 47.0132 67.6878 47.2487 67.9926 47.476C68.0286 47.4954 68.0564 47.5259 68.0758 47.548H68.0702Z" fill="#EC925D"/>
<path d="M58.4791 76.7638C57.839 76.9827 54.6273 76.3232 53.3498 74.8795C53.239 74.7603 53.0062 74.3031 52.7152 73.7544C52.7152 73.7544 52.7152 73.7489 52.7152 73.7378C52.2137 72.7873 51.5486 71.5431 51.0775 71.2189C50.3238 70.7062 49.6836 68.8939 49.9413 68.3563C50.1991 67.8187 54.1063 64.7788 54.1063 64.7788L56.725 67.7106C56.725 67.7106 56.3232 68.6584 56.5144 70.3321C56.5892 70.9944 56.7583 71.7703 57.0908 72.6598C58.4985 74.68 60.7376 75.9907 58.4819 76.7638H58.4791Z" fill="#3B5765"/>
<g style="mix-blend-mode:multiply" opacity="0.28">
<path d="M56.7221 67.7107C56.7221 67.7107 56.3203 68.6584 56.5115 70.3321C56.0432 70.4762 55.198 70.4568 53.8013 69.6144C51.3489 68.1402 51.2658 69.6477 51.3489 70.1049C51.4348 70.5704 52.1802 72.2303 52.7123 73.735C52.2107 72.7846 51.5457 71.5403 51.0746 71.2161C50.3208 70.7035 49.6807 68.8912 49.9384 68.3536C50.1961 67.816 54.1034 64.7761 54.1034 64.7761L56.7221 67.7079V67.7107Z" fill="#3B5765"/>
</g>
<path d="M70.6637 53.9465C69.0343 59.2283 57.5841 68.3591 57.113 69.1987C56.944 69.5035 56.6281 69.6144 56.2457 69.5756C56.2457 69.5756 56.2373 69.5756 56.229 69.5756C54.5885 69.4093 51.6428 66.6465 52.4215 65.5408C52.4215 65.5408 54.3114 62.5564 56.7528 58.8071C56.7611 58.7987 56.7666 58.7821 56.7722 58.771C57.1989 58.1171 57.6367 57.4437 58.094 56.762C58.6233 55.9473 59.1692 55.1159 59.7234 54.2902C59.7788 54.2098 59.8342 54.1211 59.898 54.0324C60.4162 53.2455 60.9399 52.4557 61.4609 51.6909C61.605 51.1671 64.4066 45.8023 64.5451 45.2203C65.3848 45.6831 66.133 46.1376 66.7897 46.5893C66.8784 46.6447 66.9671 46.7084 67.0474 46.7722C67.3689 47.0049 67.682 47.2405 67.9868 47.4677C68.0228 47.4871 68.0506 47.5176 68.07 47.5397C71.0821 49.9755 71.4618 52.0954 70.6637 53.9382V53.9465Z" fill="#EC925D"/>
<g style="mix-blend-mode:multiply" opacity="0.43">
<path d="M50.6896 45.3062C57.1989 43.0948 58.9891 42.0363 58.8948 41.3435C58.0386 40.8004 56.7805 40.0023 55.7663 39.3705L51.327 39.3816L40.9963 40.5537L40.8467 40.684C40.8023 40.95 40.7524 41.2354 40.7053 41.5347C40.2758 44.098 41.75 48.1438 45.5936 49.8203C50.1991 51.8377 54.8407 53.1789 59.7179 54.2901C59.6098 54.4203 52.416 65.5408 52.416 65.5408C51.6401 66.6437 54.583 69.4092 56.2235 69.5755C55.4171 69.0351 53.3055 66.5883 54.3475 65.5713C58.2686 61.7388 60.2388 59.073 60.2388 59.073C62.2368 57.2995 60.6517 54.4397 63.8911 53.1789C62.2174 53.5807 45.6323 47.0187 50.6868 45.3034L50.6896 45.3062Z" fill="#EC925D"/>
</g>
<g style="mix-blend-mode:multiply" opacity="0.51">
<path d="M64.4345 39.9276C62.2453 38.6861 56.4648 35.3857 55.8275 35.0199C55.0515 34.5738 53.8461 33.0081 53.4692 32.4511C53.5579 31.0212 54.0983 29.8823 54.8742 29.1563C54.4668 28.6492 54.2618 28.0451 54.3865 27.3467C54.5998 26.1552 55.5614 23.3952 55.8662 22.2701C56.2875 20.6989 56.8334 19.402 57.479 18.421L60.9678 18.9974C60.9678 18.9974 60.8653 29.0343 60.5827 30.3007C60.5827 30.3063 61.0427 31.3759 61.1951 32.5481C61.3309 33.5734 62.1705 38.5032 64.4345 39.9248V39.9276Z" fill="#F8C650"/>
</g>
<path d="M62.9627 18.3684C62.9627 18.457 62.9627 18.5457 62.9544 18.6261V18.687C62.9627 24.2431 58.6425 33.2187 58.4874 34.9312C58.4874 34.9451 57.911 37.4696 59.4766 38.4783C59.4766 38.4783 60.7707 39.6144 56.1652 41.9504C56.1208 41.9227 56.0626 41.895 56.0017 41.8701C55.6248 41.6733 55.2923 41.4766 55.0623 41.2272C54.8046 40.9501 54.6937 40.6175 54.8406 40.1631C54.6189 40.6702 54.4859 41.0859 54.3972 41.4156C54.3667 41.532 54.3446 41.6401 54.3224 41.7343C54.2199 42.2497 54.2476 42.5352 54.2559 42.7097C53.9095 43.6796 51.1135 44.0842 48.8356 44.256C48.7996 44.256 48.7691 44.2615 48.7331 44.2615C46.7379 44.4029 44.7261 44.2338 42.7891 43.7406C41.0211 43.2861 39.0259 42.6349 39.1367 41.9504C39.7935 38.0875 41.7028 34.9368 42.3762 26.7953C42.4205 26.1856 45.2082 19.0223 47.1674 16.7112C47.3808 16.4618 47.5886 16.2706 47.766 16.1487C47.8907 16.0683 47.9877 15.9991 48.068 15.9381C48.6583 15.5391 48.9104 15.3146 49.7833 14.8601C49.9828 14.7521 50.2128 14.6357 50.4844 14.4999C55.4835 12.0669 60.3191 12.5684 62.6856 17.2793C62.7881 17.5038 62.7438 17.3818 62.8768 17.828C62.9211 18.0109 62.9516 18.1799 62.9572 18.3628L62.9627 18.3684Z" fill="#F8C650"/>
<path d="M61.4947 13.9595L59.5356 15.758C59.5273 16.0434 59.5134 16.3676 59.494 16.7112C59.4081 18.1799 59.1975 19.9479 58.6377 20.0864C58.5103 18.4155 58.1583 17.2516 57.6041 16.3676C57.2633 15.8134 56.8393 15.3645 56.346 14.9654C55.6283 14.3752 54.7582 13.893 53.7495 13.3222C53.8049 13.2169 56.2324 9.93033 56.2324 9.93033C56.9307 8.96876 61.9935 13.0257 61.4947 13.9595Z" fill="#FCC7A9"/>
<g style="mix-blend-mode:multiply" opacity="0.39">
<path d="M61.4801 14.4721L59.5209 16.121C59.5126 16.3814 59.3935 20.0116 58.6231 20.0892C58.9501 19.9395 59.1635 18.8588 59.2522 18.2242C59.3436 17.5619 59.3076 17.0493 58.3599 17.0465C58.0911 16.9745 57.8361 16.847 57.5895 16.6779C57.2486 16.1708 56.8247 15.7579 56.3314 15.3922C52.2468 14.8934 54.7879 12.5573 54.7879 12.5573L61.4801 14.4694V14.4721Z" fill="#FCC7A9"/>
</g>
<path d="M57.756 16.6087C57.7422 16.7029 57.6951 17.1158 57.8752 17.5315C57.8752 17.5315 56.1543 17.4982 55.7137 16.9024C55.2842 16.3205 57.4789 16.484 57.7366 16.5754C57.7505 16.581 57.7588 16.5948 57.756 16.6087Z" fill="#F8C650"/>
<g style="mix-blend-mode:multiply" opacity="0.51">
<path d="M50.9918 30.1206C52.2943 27.1583 51.1249 23.7831 51.413 20.8291C51.7096 17.7865 51.3881 16.2707 50.8062 15.5169C50.3185 14.9821 51.9063 13.8986 52.4467 14.1452C51.413 14.4168 51.7871 15.2731 52.0504 15.4892C53.1062 16.2845 53.6715 19.3023 53.6715 19.3023C53.6715 19.3023 56.8084 17.3597 57.6286 17.3653C56.3927 17.1436 52.7321 13.6104 52.7321 13.6104C51.4962 13.8404 48.3427 15.6638 48.4286 15.6472C48.3427 15.7248 47.8993 16.0712 47.7718 16.1515C47.5945 16.2734 47.3866 16.4646 47.1733 16.714C45.2141 19.0251 42.4264 26.1885 42.382 26.7981C41.7086 34.9368 39.8021 38.0903 39.1426 41.9533C39.0318 42.6377 41.027 43.2889 42.7949 43.7434C44.7319 44.2394 46.7437 44.4085 48.7389 44.2644C46.4694 43.8099 37.0892 42.5352 43.0388 38.0903C43.7925 37.5278 51.0528 41.3021 54.3726 41.4323C54.3809 41.4268 54.3864 41.4184 54.4031 41.4184C54.6552 41.3104 55.5281 41.6429 56.0075 41.8729C56.0657 41.9006 56.1267 41.9283 56.171 41.9533C57.8503 40.7672 57.4734 39.2653 57.4818 38.6418C57.4956 37.5306 49.6395 33.2049 50.9974 30.1206H50.9918Z" fill="#F8C650"/>
</g>
<g style="mix-blend-mode:multiply">
<path d="M54.561 16.7805C55.5669 16.8193 57.6896 16.5006 57.7533 16.5921C57.7561 16.5976 57.7561 16.6059 57.7533 16.6115C57.7423 16.6863 57.6896 17.1463 57.8753 17.5342C56.7668 16.6419 54.6857 17.3264 54.561 16.7805Z" fill="#F8C650"/>
</g>
<path d="M57.739 16.5782C57.57 16.5173 57.1931 16.6891 56.7331 16.9717C56.1678 17.3236 55.475 17.8418 54.8958 18.2991C54.2086 18.8422 53.671 19.3022 53.671 19.3022C53.671 19.3022 53.7098 16.1653 52.4933 15.2813C51.2906 14.4112 52.9034 13.5134 53.1112 13.3277C53.344 13.1227 53.5297 12.9924 53.6738 12.9176C53.6738 12.9176 54.2723 12.549 54.6658 12.5851C55.0566 12.6211 54.3776 12.6488 54.1948 13.336C54.3444 14.8324 57.279 16.3316 57.7473 16.581L57.739 16.5782Z" fill="#F8C650"/>
<g style="mix-blend-mode:multiply" opacity="0.55">
<path d="M59.4766 17.3735C59.834 17.0521 60.4437 18.8173 60.984 19.1637C61.1919 18.1938 61.4274 16.642 61.4801 16.1986C60.549 15.7109 59.6733 16.6364 59.4766 17.3763V17.3735Z" fill="#F8C650"/>
</g>
<g style="mix-blend-mode:multiply">
<path d="M59.4766 17.4289C59.4766 17.4289 59.6179 16.6945 60.1749 16.4285C60.6737 16.1902 59.7481 16.4257 59.5542 16.4756C59.532 16.4812 59.5181 16.4978 59.5181 16.52L59.4766 17.4289Z" fill="#F8C650"/>
</g>
<path d="M59.5352 16.484C59.5352 16.484 59.8455 16.3315 60.2473 17.5314C60.6491 18.7313 60.9706 19.0001 60.9706 19.0001C60.9706 19.0001 61.051 16.8719 61.317 16.5893C61.583 16.3038 61.051 15.2758 61.051 15.2758L59.5379 16.484H59.5352Z" fill="#F8C650"/>
<path d="M64.4567 8.46442C64.3181 8.77201 64.2571 9.10732 64.2821 9.44539C64.3624 10.5843 63.9135 11.6928 63.1681 12.9702C61.1369 16.4535 60.9817 15.9852 59.1832 15.5751C58.072 15.3229 57.0606 14.741 56.2819 13.9124C55.2039 12.7624 54.2507 11.1468 53.4554 8.81912C53.1561 7.94899 53.2115 6.98465 53.6299 6.1644C55.6972 2.12691 59.5823 3.78125 63.0462 4.54885C65.6565 5.12524 65.0303 7.19802 64.4567 8.46442Z" fill="#FCC7A9"/>
<path d="M64.8446 7.40035C64.8446 7.40035 62.0402 6.09239 62.5501 4.9507C62.7164 4.5766 61.9432 4.37985 61.5359 4.36322C59.1112 4.26346 57.3986 5.35251 56.8998 6.79071C56.7973 7.08445 56.7474 7.39204 56.7502 7.70794C56.7862 10.0357 55.2787 8.9106 54.9074 9.78904C54.7051 10.2657 54.3698 10.371 54.3061 10.928C53.4858 9.68097 53.0785 7.18975 52.7432 5.45781C52.7792 3.7425 53.4914 2.47333 55.5364 1.49513C58.956 -0.13982 61.8878 1.182 63.3981 2.71996C63.3981 2.71996 63.3981 2.72273 63.4008 2.72827C66.837 3.55129 67.5436 5.83468 64.8418 7.40035H64.8446Z" fill="#3B5765"/>
<path d="M54.9095 9.78623C54.7072 10.2656 54.8652 11.3159 54.8014 11.8756C53.2358 9.49527 51.2489 3.54848 55.5358 1.49786L54.9095 9.789V9.78623Z" fill="#3B5765"/>
<path d="M55.738 9.39551C55.3168 10.1576 55.9375 11.1746 55.4276 11.3658C54.9178 11.557 54.2305 10.9861 53.8924 10.0911C53.5544 9.19599 53.28 8.46719 54.2028 8.1208C55.3805 7.67743 56.2008 8.55587 55.738 9.39551Z" fill="#FCC7A9"/>
<path d="M47.7577 30.9187L50.3154 23.6473C52.9341 18.3018 51.313 16.0018 51.0359 15.6942C50.6895 15.3063 49.7224 15.2148 49.2818 15.3229C47.2284 15.8328 44.7676 18.4404 42.2986 25.3349C42.2598 25.443 40.4004 31.1958 40.3477 31.3759C40.3256 31.459 45.3052 30.4975 47.7521 30.9187H47.7577Z" fill="#F8C650"/>
<g style="mix-blend-mode:multiply" opacity="0.69">
<path d="M58.6315 20.4688C58.6814 23.8274 58.1355 27.2663 56.6197 30.2924C55.9546 31.8331 55.6027 33.4902 55.3477 35.1473C55.0983 36.8072 54.9321 38.4838 54.8489 40.1658H54.8323C54.8185 38.481 54.9182 36.7906 55.1759 35.1224C55.4364 33.4597 55.7939 31.7832 56.531 30.2536C57.3568 28.7766 57.8057 27.1361 58.08 25.4817C58.3572 23.8246 58.54 22.1536 58.6121 20.4688H58.6287H58.6315Z" fill="#F8C650"/>
</g>
<g style="mix-blend-mode:multiply" opacity="0.14">
<path d="M54.8959 18.1855C55.0206 17.0521 53.308 14.511 54.192 14.8879C54.7296 15.9409 56.1872 16.5976 56.7331 16.9745C56.1678 17.3264 55.475 17.8446 54.8959 18.3019C54.8876 18.2686 54.8931 18.2298 54.8959 18.1882V18.1855Z" fill="#F8C650"/>
</g>
<path d="M65.5565 40.2657C65.3847 40.213 65.2018 40.2186 65.0328 40.2795L54.3391 44.2006C54.2754 44.1452 54.1562 44.0538 54.1368 44.087C54.1063 44.1369 54.0675 44.342 54.0758 44.4112C54.0758 44.4112 54.0758 44.4223 54.0758 44.4251C54.0758 44.4251 54.0758 44.4251 54.0786 44.4251C54.0842 44.4861 54.1146 44.5442 54.1839 44.5692L64.9552 48.5651C65.0633 48.6067 65.1852 48.6011 65.2905 48.5568L76.4054 43.6104L65.5565 40.2657Z" fill="#3B5765"/>
<path d="M65.3349 48.2991L76.6355 43.4109L65.601 40.0107C65.4291 39.9581 65.2463 39.9636 65.0772 40.0246L54.2311 44.0011C54.087 44.0538 54.087 44.2588 54.2311 44.3115L65.0024 48.3074C65.1105 48.349 65.2324 48.3434 65.3377 48.2991H65.3349Z" fill="#ABE3EF"/>
<path d="M81.2213 31.8359C80.9387 31.5144 80.8583 31.5477 80.7142 31.5948L69.3582 35.3524C69.1088 35.4356 68.9149 35.6323 68.8345 35.8817L64.93 48.0856C64.8691 48.2741 65.0603 48.4431 65.2404 48.3628L76.6573 43.2944C76.8624 43.203 77.0204 43.0312 77.0979 42.8205L80.9747 31.9661C81.0495 31.9495 81.1327 31.9163 81.2241 31.8359H81.2213Z" fill="#3B5765"/>
<g style="mix-blend-mode:multiply">
<path d="M65.3349 48.2991L76.6355 43.4109L65.601 40.0107C65.4291 39.9581 65.2463 39.9636 65.0772 40.0246L54.2311 44.0011C54.087 44.0538 54.087 44.2588 54.2311 44.3115L65.0024 48.3074C65.1105 48.349 65.2324 48.3434 65.3377 48.2991H65.3349Z" fill="#ABE3EF"/>
</g>
<g style="mix-blend-mode:multiply">
<path d="M65.7119 47.9001L75.9373 43.4774L69.0123 41.5931C68.8571 41.5459 68.6908 41.5487 68.5384 41.6069L58.7232 45.2066C58.5929 45.2537 58.5929 45.4393 58.7232 45.4864L65.4098 47.9084C65.5068 47.9444 65.6177 47.9416 65.7119 47.9001Z" fill="#ABE3EF"/>
</g>
<g style="mix-blend-mode:multiply">
<path d="M62.1148 43.5689L65.3127 42.4493C65.3709 42.4299 65.3709 42.3468 65.3127 42.3274L63.1595 41.5875C63.1069 41.5875 63.057 41.5875 63.0043 41.5875L59.9146 42.7209C59.9146 42.7652 59.9146 42.7652 59.9146 42.8096L62.0123 43.5689C62.0483 43.5689 62.0816 43.5689 62.1176 43.5689H62.1148Z" fill="#ABE3EF"/>
</g>
<path d="M65.5011 48.5346L76.9181 43.4663C77.1231 43.3748 77.2811 43.203 77.3587 42.9924L81.2632 32.0577C81.3269 31.8775 81.1579 31.7029 80.975 31.7639L69.619 35.5215C69.3696 35.6047 69.1756 35.8014 69.0953 36.0508L65.1908 48.2547C65.1298 48.4432 65.321 48.6122 65.5011 48.5319V48.5346Z" fill="#ABE3EF"/>
<g style="mix-blend-mode:screen" opacity="0.54">
<path d="M74.3214 40.0772C74.3214 40.0772 74.3269 40.0717 74.3297 40.0689C74.8756 39.4205 75.0613 38.6778 74.7398 38.4063C74.4211 38.1375 73.7173 38.4423 73.1714 39.0907C73.019 39.2708 72.8998 39.4565 72.8056 39.6366C72.0685 39.6505 71.4838 39.9276 71.4616 40.3072C71.4367 40.7257 72.1045 41.1025 72.9497 41.1524C73.7949 41.2023 74.5015 40.903 74.5265 40.4846C74.5348 40.3405 74.4572 40.2019 74.3186 40.0772H74.3214Z" fill="#ABE3EF"/>
</g>
<g style="mix-blend-mode:multiply" opacity="0.45">
<path d="M80.9751 31.7667L80.7368 31.847C80.734 31.8609 80.7368 31.8748 80.7285 31.8886C80.7285 31.8886 79.0132 35.4883 77.3838 38.5697C76.0453 41.0998 73.9365 43.1338 71.3594 44.3752L65.5373 47.1851L65.1937 48.2575C65.1327 48.446 65.3239 48.615 65.5041 48.5346L76.921 43.4663C77.1261 43.3748 77.284 43.203 77.3616 42.9924L81.2661 32.0577C81.3298 31.8775 81.1608 31.7029 80.9779 31.7639L80.9751 31.7667Z" fill="#ABE3EF"/>
</g>
<path d="M53.2997 36.9652C53.2997 36.9652 56.7469 39.2846 57.3455 39.4426C57.9441 39.6005 59.4737 39.6864 60.0224 39.7141C60.5738 39.7419 62.2365 41.5237 62.5164 42.4077C62.7963 43.2889 62.8018 44.2588 62.533 44.5774C62.2642 44.8961 60.6791 44.7492 59.4986 44.2837C58.3154 43.8181 57.8415 42.4298 57.4286 42.2608C57.0157 42.089 51.3267 39.3872 51.3267 39.3872L53.2997 36.968V36.9652Z" fill="#FCC7A9"/>
<path d="M47.7051 31.6392L47.8824 30.5834C45.6933 31.6697 42.1934 28.5716 40.4226 31.2346C40.4254 31.2401 40.2647 31.9246 40.4226 32.6091C40.6138 33.4376 41.0738 34.3188 41.7029 34.9396C42.1462 35.3802 42.9277 35.7626 43.2159 35.9039C45.6988 37.9739 49.8471 39.9636 55.2979 41.8867C56.229 42.2747 57.7476 38.9743 57.476 38.639L47.7051 31.6364V31.6392Z" fill="#F8C650"/>
<path d="M60.0169 39.8527C60.3716 39.9275 60.754 39.9913 61.117 40.0328C61.2972 40.0522 61.48 40.0661 61.6435 40.0661C61.7932 40.0772 61.9899 40.0218 61.9373 40.0578C62.159 39.8915 62.4749 39.9359 62.6439 40.1575C62.8102 40.3792 62.7658 40.6951 62.5441 40.8642C62.1534 41.1136 61.94 41.0859 61.7045 41.1274C61.4773 41.1496 61.2667 41.1524 61.0533 41.1496C60.6321 41.1413 60.233 41.1163 59.8118 41.0665C59.4738 41.0277 59.2299 40.7229 59.2687 40.3848C59.3075 40.0467 59.6123 39.8028 59.9504 39.8416C59.9698 39.8416 59.9947 39.8472 60.0141 39.8527H60.0169Z" fill="#FCC7A9"/>
</svg>
