<svg width="67" height="85" viewBox="0 0 67 85" fill="none" xmlns="http://www.w3.org/2000/svg">
<path d="M56.9638 76.9379C57.5538 80.0379 57.5038 81.5978 55.8138 81.6078C55.2138 81.6078 54.6438 81.5778 53.7238 81.9878C51.7238 82.8978 50.2638 82.8779 49.5338 82.8979C46.5938 82.9778 46.5638 80.9479 48.6738 80.2279C50.7938 79.4979 52.7338 75.9178 52.7338 75.9178L56.9638 76.9478V76.9379Z" fill="black"/>
<path d="M55.1538 76.6479C54.5738 77.1779 53.3738 78.5879 52.9038 79.0679C51.2138 80.7579 48.8738 81.1979 48.3438 81.1279C47.8238 81.0579 47.5938 80.7579 48.1338 80.4879C48.6738 80.2179 49.2738 79.7579 50.5938 78.7879C52.4638 77.4179 52.7438 75.4779 53.0738 75.4179C53.4038 75.3479 54.4438 75.8479 54.4438 75.8479L55.1638 76.6379L55.1538 76.6479Z" fill="#232121"/>
<path d="M65.2838 78.2978C65.9538 81.5478 66.1538 82.9778 64.3538 83.3578C63.7338 83.4878 62.6838 83.3078 62.0838 83.5778C59.5738 84.7178 58.1938 84.7078 57.4238 84.7478C54.3338 84.8778 54.3938 82.6778 56.6138 81.8778C58.8238 81.0778 60.8138 77.2778 60.8138 77.2778L65.2838 78.2878V78.2978Z" fill="black"/>
<path d="M62.0237 79.3179C61.4137 79.8879 60.9937 80.4279 60.4537 80.8979C59.9237 81.3679 56.8237 82.9179 56.2637 82.8479C55.7137 82.7779 55.4637 82.4679 56.0337 82.1679C56.6037 81.8679 57.0437 81.7279 58.2237 80.4879C59.4037 79.2579 59.8537 78.5179 60.2037 78.4479C60.5437 78.3779 61.9237 78.8679 61.9237 78.8679L62.0137 79.2979L62.0237 79.3179Z" fill="#232121"/>
<path d="M59.2839 32.2279C60.9639 36.1079 61.1539 35.8879 62.2139 43.2479C62.6139 46.0179 63.1639 56.2079 63.7639 58.4379C66.7939 69.6779 66.3339 80.4479 66.3339 80.4479L60.8339 78.8379C60.8339 78.8379 54.2839 35.8379 53.9339 34.4379C53.5839 33.0279 59.2939 32.2379 59.2939 32.2379L59.2839 32.2279Z" fill="#0E3999"/>
<path d="M49.8138 61.2278C52.1638 71.3478 50.8438 77.7078 50.8438 77.7078L57.5938 78.3178C58.1838 66.8678 56.2638 64.8278 55.9738 59.7578C55.7038 54.8978 54.6538 50.7378 54.6538 50.7378C54.6538 50.7378 57.2538 60.8978 57.6238 62.2978C60.1538 71.6578 58.7638 79.2078 58.7638 79.2078L63.9038 79.7178C64.6638 76.0278 62.5838 64.5578 61.3738 59.0978C60.6738 55.9178 58.3438 37.2978 55.4138 31.7678L46.8638 32.6478C46.8638 32.6478 48.2038 54.2778 49.8238 61.2278H49.8138Z" fill="#00225E"/>
<path d="M55.7738 10.3679C55.7438 10.1879 53.9338 6.04785 53.9338 6.04785L51.1738 7.32785L50.4238 10.2779L49.9038 13.8279L53.0038 19.5579C55.7138 20.4579 57.3938 13.0779 58.1538 12.2579C57.8538 12.5779 57.0238 11.8979 55.7838 10.3779L55.7738 10.3679Z" fill="#E0B8AA"/>
<path style="mix-blend-mode:multiply" d="M54.2239 10.1979L50.7539 18.0979L50.0039 14.5179L50.3439 9.82788L54.2239 10.1979Z" fill="url(#paint0_linear_25_22557)"/>
<path d="M46.5136 14.2978C45.2436 14.4378 46.1936 19.3178 46.5136 20.1278C46.5136 20.1278 46.5936 23.7278 46.5136 27.8278C46.3536 35.8278 46.5736 38.3878 46.5136 38.8378C46.3136 40.1578 62.2536 39.9178 61.6836 37.3178C60.1736 30.4578 59.4836 21.0078 60.1336 18.2378C60.7836 15.4778 59.2736 13.8078 58.9536 13.3178C58.6236 12.8278 56.5836 11.1578 56.5836 11.1578C56.5836 11.1578 54.5536 14.2878 51.9736 14.1478C50.5136 14.0678 50.1736 13.1878 50.1736 12.0978L46.5036 14.2978H46.5136Z" fill="black"/>
<path d="M56.6336 11.1378C57.9336 12.2778 59.3836 13.1278 60.9436 13.5778C63.1036 14.1878 58.9836 23.7078 62.5836 38.0778C62.5836 38.0778 60.8336 38.9878 58.2536 39.0678C56.4536 19.4978 58.6936 15.1478 58.6936 15.1478L54.9136 13.0578L56.6336 11.1378Z" fill="#232121"/>
<path d="M53.0939 4.88783C52.1739 2.91783 51.0239 1.42783 48.1839 2.71783C47.2939 3.12783 46.7139 3.55783 46.3539 4.00783C45.2039 5.02783 49.0139 13.0278 51.8539 12.7478C51.9139 12.7478 52.4839 12.4278 52.5239 12.4078C54.4939 11.2178 54.4039 9.79783 54.0939 7.79783C54.3739 7.42783 54.4339 6.79783 54.2039 6.17783C53.8939 5.36783 53.6439 4.71783 53.0939 4.88783Z" fill="#F4DAD3"/>
<path d="M46.694 8.7278C46.694 8.7278 47.314 9.3178 47.504 9.8678C47.864 10.8878 49.734 13.3378 51.644 12.7878C51.664 12.7878 51.654 12.8078 51.704 12.7878C49.184 11.9378 47.424 9.4878 46.464 4.6978L46.394 3.9978C46.394 3.9978 46.384 4.0178 46.374 4.0178C45.224 5.0478 46.024 7.1878 46.704 8.7278H46.694Z" fill="#E0B8AA"/>
<path d="M53.474 1.04786C52.444 0.167861 50.594 -0.142139 49.404 0.377861C48.214 0.897861 47.814 2.46786 47.814 2.46786C47.814 2.46786 48.404 2.46786 49.134 2.61786C48.834 3.14786 48.244 5.31786 48.244 5.31786C48.854 4.76786 49.714 4.47786 50.554 4.94786C51.134 5.27786 50.894 6.06786 51.484 6.18786C52.074 6.31786 52.184 6.54786 52.574 6.81786C52.754 6.93786 52.974 6.15786 52.974 6.15786C52.974 6.15786 54.034 7.91786 55.174 8.72786C55.544 10.1579 55.794 8.83786 55.794 8.83786C56.434 8.04786 55.644 8.15786 55.574 7.03786C55.514 6.08786 55.444 2.74786 53.474 1.04786Z" fill="#232121"/>
<path d="M47.2538 6.04786C46.4638 6.77786 45.5238 6.78786 45.3438 7.55786C45.2238 8.04786 44.3538 5.46786 44.9038 5.20786C44.9038 5.20786 44.9338 3.58786 46.1438 4.08786C45.6038 3.64786 44.8038 4.48786 44.8638 4.35786C45.1938 3.73786 45.3838 2.15786 46.3938 2.04786C46.3438 1.57786 45.5538 2.23786 46.3438 1.57786C47.1338 0.917862 49.6938 -0.772138 50.8738 0.407862C51.0138 0.547862 50.1038 0.967862 49.4238 2.57786C49.2338 3.01786 48.8738 3.65786 48.7838 4.62786C48.6938 5.59786 47.2438 6.03786 47.2438 6.03786L47.2538 6.04786Z" fill="black"/>
<path d="M52.7139 5.99789C52.8739 5.52789 53.2739 4.81789 53.7239 5.43789C54.1739 6.05789 54.8739 8.20789 53.9239 8.04789C53.2039 7.92789 52.7139 5.99789 52.7139 5.99789Z" fill="#F4DAD3"/>
<path d="M47.4136 7.94788C48.0836 9.73788 47.8736 10.6979 47.9436 10.8379C48.2536 11.4779 48.8536 10.9179 49.3736 10.6679C49.7436 10.4979 47.4136 7.94788 47.4136 7.94788Z" fill="#F4DAD3"/>
<path style="mix-blend-mode:multiply" d="M49.704 27.9479L45.564 29.5279L46.294 39.1779C46.294 39.1779 54.434 40.4979 55.204 39.3979C55.974 38.2979 61.474 29.0579 61.474 29.0579L57.624 28.5079L49.704 27.9579V27.9479Z" fill="url(#paint1_linear_25_22557)"/>
<path d="M62.264 15.8579C62.264 15.8579 61.884 13.5579 59.654 15.9079C57.424 18.2579 58.454 25.3279 58.214 25.7279L53.314 28.2279C52.924 28.0679 52.524 27.8879 52.404 27.7379C52.144 27.4279 51.614 27.0979 50.944 27.0279C50.064 26.9379 49.704 26.6779 49.724 26.8979C49.764 27.3579 50.134 27.1879 50.294 27.3379C50.364 27.3979 50.424 27.4579 50.484 27.4979C50.344 27.4579 50.164 27.4179 49.914 27.4079C48.484 27.3279 47.714 27.7279 47.944 27.9379L49.264 27.8979L49.304 28.0679C49.304 28.0679 47.954 28.1979 47.844 28.4279C47.734 28.6679 49.604 28.9879 49.604 28.9879C49.604 28.9879 48.794 28.9479 48.164 28.9679C47.784 28.9879 47.754 29.1979 48.024 29.3579C48.444 29.6079 49.414 29.4279 49.364 29.6879C49.254 29.6879 48.904 29.6679 48.754 29.6679C48.264 29.6579 48.054 29.5579 48.054 29.7379C48.054 29.8979 49.034 30.5179 49.614 30.5479C49.614 30.5479 51.834 31.4279 53.534 30.6879C61.914 30.6879 62.614 28.5079 62.614 28.5079C63.104 27.5679 63.174 26.1579 62.254 15.8379L62.264 15.8579Z" fill="#E0B8AA"/>
<path d="M61.4942 14.3679C62.6042 16.4679 62.8242 22.3879 62.7342 24.3179C59.4342 24.6079 57.9642 24.6879 57.9642 24.6879C57.9642 24.6879 57.0442 19.8779 57.6742 16.9479C58.3742 13.7179 61.4942 14.3779 61.4942 14.3779V14.3679Z" fill="black"/>
<path d="M59.5044 14.4779C59.7844 14.0979 61.2144 13.4579 62.0444 14.4179C64.0144 16.6979 64.2744 23.1879 63.9044 24.1779C62.8244 24.2379 61.8444 24.3479 61.8444 24.3479C62.0644 19.0979 61.6844 18.0079 61.0044 16.5479C60.1944 14.8279 59.5044 14.4779 59.5044 14.4779Z" fill="#232121"/>
<path d="M43.4337 24.7578C43.1437 26.6678 42.7737 30.6278 43.2837 31.2078C43.7937 31.7978 46.1437 30.0378 46.8037 28.4978C47.4637 26.9578 46.6537 24.6078 46.3637 24.0978C46.0637 23.5878 43.4237 24.7578 43.4237 24.7578H43.4337Z" fill="#CC9987"/>
<path d="M46.7338 14.1979C44.1338 14.8179 44.7538 21.0179 42.5538 24.1779C41.9238 25.0879 47.7138 24.9679 47.7138 24.9679L46.7338 14.1979Z" fill="black"/>
<path d="M41.8439 24.8678C42.1139 25.7478 44.5439 30.8078 43.9339 31.4678C43.3239 32.1278 41.7839 32.1878 41.4539 31.8478C41.1239 31.5178 38.6439 26.5678 38.8639 25.6878C39.0839 24.8078 41.8339 24.8678 41.8339 24.8678H41.8439Z" fill="#CC9987"/>
<path d="M35.9436 6.08793C35.7536 5.80793 38.9336 6.77793 39.2736 9.04793C40.2936 15.6579 40.6136 19.6679 41.2136 26.4979C41.3136 27.6979 32.3236 28.3179 32.2536 27.7179C32.1836 27.1179 35.3236 6.00793 35.3236 6.00793L35.9436 6.08793Z" fill="#84372D"/>
<path d="M33.0436 4.58789C31.2036 5.49789 28.8436 6.82789 27.2536 13.5679C26.8036 15.4779 24.0636 25.0779 24.3336 26.4079C24.5736 27.5879 33.0036 28.4579 33.1036 27.8679C33.2236 27.2679 32.4936 7.92789 32.4936 7.92789L33.0336 4.58789H33.0436Z" fill="#380F01"/>
<path d="M38.8037 23.878L37.7537 18.268L35.0037 17.278L34.6037 12.758L30.3237 11.948C30.3237 11.948 30.9737 16.478 28.7737 17.688C27.7037 17.968 25.8437 18.268 25.5637 18.878C25.2737 19.518 27.0237 24.798 27.0237 24.798C27.0237 24.798 26.9037 26.588 27.2537 26.628C27.5937 26.668 36.5137 24.598 38.8137 23.888L38.8037 23.878Z" fill="#F4DAD3"/>
<path style="mix-blend-mode:multiply" d="M27.9937 17.8779C30.4237 17.8479 30.3937 11.6579 30.3937 11.6579C31.6437 10.6679 35.4737 10.8279 35.1437 11.8379C35.1437 11.8379 34.7037 13.8879 34.9037 15.2279C35.0337 16.1079 29.9837 22.5679 29.9837 22.5679L27.9937 17.8779Z" fill="url(#paint2_linear_25_22557)"/>
<path d="M39.3937 18.5979C40.6737 19.4179 41.6137 22.8279 42.8837 26.1879C41.2337 27.0179 39.2537 27.2879 39.2537 27.2879C39.2537 27.2879 38.5337 21.3979 38.5337 20.1379C38.5337 18.8779 39.3937 18.5979 39.3937 18.5979Z" fill="#327C34"/>
<path d="M9.53367 66.1379C8.16367 69.2279 9.27367 71.7979 7.83367 76.9479L7.26367 78.9479C7.26367 78.9479 14.9737 81.1379 14.9737 79.9479C14.9737 78.7579 11.6537 78.1279 11.6537 75.9779C11.6537 73.8279 12.0437 68.4979 12.0437 68.4979L9.54367 66.1479L9.53367 66.1379Z" fill="#F4DAD3"/>
<path d="M14.2541 78.7379C14.0141 78.0279 13.5541 77.1279 13.2541 76.9979C12.6341 76.7279 12.2441 76.9779 12.2741 77.5979C12.3141 78.2179 13.2941 79.7079 13.2941 79.7079L14.2441 78.7379H14.2541Z" fill="#2B55B2"/>
<path d="M7.13385 77.948C6.80385 79.038 6.32385 80.058 6.89385 81.208C7.97385 81.948 17.1039 81.808 17.1039 81.808C17.1039 81.808 18.0439 81.748 17.8439 80.738C17.7039 80.048 15.7239 79.808 14.1239 78.528C12.9739 79.578 12.5639 77.998 11.6639 78.508C9.46385 79.748 7.13385 77.938 7.13385 77.938V77.948Z" fill="#2B55B2"/>
<path d="M9.54406 80.868C7.63406 80.688 6.73406 80.868 6.73406 80.868C6.72406 81.138 6.64406 81.808 6.91406 81.858C7.17406 81.918 14.4341 82.728 16.9941 82.278C17.6241 82.168 17.9641 81.188 17.8841 81.118C17.8241 81.428 17.5641 81.568 17.1641 81.618C13.0741 82.098 11.5841 81.058 9.55406 80.868H9.54406Z" fill="#232121"/>
<path d="M11.5239 33.1179C11.1539 34.5179 8.28391 38.2579 8.55391 41.4779C8.70391 43.3279 9.17391 44.9379 9.36391 45.6479C9.94391 47.8379 8.99391 54.6179 8.29391 59.6779C8.29391 59.6779 5.24391 64.6779 7.66391 75.7079C10.5639 76.3879 12.3239 75.4479 12.3239 75.4479C12.3239 75.4479 12.2039 64.4579 12.9439 61.7279C14.3739 56.4479 15.3039 45.9979 15.6939 44.3379C16.8539 39.3679 16.1339 37.6279 16.5739 36.2979L11.5139 33.1079L11.5239 33.1179Z" fill="#232121"/>
<path d="M6.16357 72.598C6.82357 73.188 12.1836 72.678 13.0636 72.158C12.9936 74.288 13.2336 75.698 13.2336 75.698C13.2336 75.698 8.76357 76.648 6.85357 75.768C6.26357 75.498 6.17357 72.598 6.17357 72.598H6.16357Z" fill="black"/>
<path d="M22.8337 7.99792C23.3637 12.5779 21.2037 19.1779 22.0837 20.5379C20.8737 21.5279 17.0837 22.0279 16.5037 21.1579C15.9237 20.2879 15.8137 13.3679 17.2937 11.0979C18.7737 8.82792 22.8237 7.98792 22.8237 7.98792L22.8337 7.99792Z" fill="black"/>
<path d="M11.1539 14.8179C12.0739 14.4179 13.8839 12.6379 14.3639 9.14795L19.0039 12.9479C17.7639 13.8479 16.8139 15.6379 16.9539 16.3479C17.3139 18.148 17.9739 19.3879 17.9739 19.3879C18.2439 25.5179 10.9539 14.4979 11.1539 14.8179Z" fill="#E0B8AA"/>
<path d="M14.2439 9.48791C14.1739 12.4679 16.5339 14.9179 17.9539 15.1379C18.8239 15.2779 20.5139 14.3679 21.6939 10.7179C22.6639 7.71791 22.7339 4.22791 18.8339 3.63791C15.1739 3.09791 14.3139 6.35791 14.2339 9.47791L14.2439 9.48791Z" fill="#E0B8AA"/>
<path d="M20.3539 6.70784C22.2439 6.53784 22.5339 8.66784 22.5839 10.0078C23.5139 9.49784 22.8239 5.24784 20.7639 4.02784C18.5939 2.74784 17.3539 3.15784 17.1639 4.05784C16.9239 5.22784 20.3539 6.70784 20.3539 6.70784Z" fill="black"/>
<path d="M18.3537 3.23789C17.7837 2.88789 14.6837 3.05789 13.3537 4.72789C12.2337 5.87789 11.0537 7.80789 9.85368 11.2979C7.95368 16.7979 5.82368 19.7479 5.32368 19.8779C4.83368 20.0079 8.79367 21.4579 9.07367 21.2679C9.36368 21.0779 12.1337 13.4279 12.2137 13.1679C12.2437 13.0679 12.7037 11.7379 13.2737 10.0879C13.5737 11.7479 14.0937 12.2479 14.0937 12.2479L15.7737 8.37789L20.5537 5.83789L18.3637 3.24789L18.3537 3.23789Z" fill="#232121"/>
<path d="M1.58394 64.2279C-0.456063 68.7679 1.64394 72.0479 1.82394 77.6879L1.24394 79.6779C1.24394 79.6779 8.07394 82.7679 8.07394 81.5779C8.07394 80.3779 5.23394 78.3079 5.23394 76.1579C5.23394 74.0079 5.41394 64.9879 5.41394 64.9879L1.57394 64.2279H1.58394Z" fill="#F4DAD3"/>
<path d="M8.67425 79.6579C8.43425 78.9579 7.70425 78.2478 7.41425 78.1178C6.79425 77.8478 5.35425 78.4878 5.38425 79.1078C5.42425 79.7278 6.40425 81.2278 6.40425 81.2278L8.68425 79.6678L8.67425 79.6579Z" fill="#4686D3"/>
<path d="M1.39413 78.6178C1.06413 79.7078 0.584128 80.7278 1.14413 81.8778C2.21413 82.6178 7.88413 84.0078 7.88413 84.0078C7.88413 84.0078 8.50413 83.8878 9.20413 83.6778C10.1741 83.3878 11.5541 83.0678 11.5841 82.4678C11.6541 80.9978 9.96413 80.5078 8.36413 79.2278C6.00413 81.1078 4.84413 78.9278 3.95413 79.4278C1.74413 80.6578 1.38413 78.6278 1.38413 78.6278L1.39413 78.6178Z" fill="#4686D3"/>
<path d="M3.19406 82.2078C1.35406 81.6678 0.984063 81.5479 0.984063 81.5479C0.974063 81.8179 0.894063 82.4778 1.16406 82.5378C1.29406 82.5678 1.90406 82.8979 3.19406 83.1579C4.47406 83.4179 7.41406 85.0279 10.5641 84.2579C11.9841 83.9079 11.6741 82.5278 11.5941 82.4578C11.5341 82.7678 10.9241 83.1379 10.5241 83.1879C6.43406 83.6679 5.43406 82.8578 3.19406 82.1978V82.2078Z" fill="#232121"/>
<path d="M5.35378 33.9979C4.99378 35.3979 2.11378 39.1479 2.38378 42.3579C2.53378 44.2079 3.00378 45.8179 3.19378 46.5279C3.77378 48.7179 2.20378 56.0079 1.50378 61.0679C1.50378 61.0679 -1.47622 65.1479 0.953782 76.1779C3.85378 76.8579 6.66378 75.9879 6.66378 75.9879C6.66378 75.9879 5.82378 63.9179 7.70378 61.7979C9.43378 59.8579 12.2238 46.8779 12.6238 45.2179C13.7838 40.2479 15.0038 42.2379 14.3838 37.2979L5.35378 33.9979Z" fill="black"/>
<path d="M14.7136 17.9079C17.2136 20.3979 18.1136 19.1979 18.1136 19.1979C18.7536 21.0079 19.7136 23.5879 19.9136 24.5079C20.2036 25.7979 19.3036 26.8479 18.8336 27.4479C18.3536 28.0479 18.2436 29.8879 18.1436 30.7179C17.3236 37.5079 16.0736 42.6979 16.0736 42.6979C16.0736 42.6979 9.29364 42.2279 5.85364 39.9379C5.29364 39.5679 9.69364 30.6279 8.82364 21.9579C8.48364 18.5979 8.82364 18.2579 12.1036 14.8279C13.0736 15.7579 13.7336 16.9379 14.7136 17.9079Z" fill="#4686D3"/>
<path d="M7.66398 19.2379C7.45398 22.5479 8.10398 24.6079 7.50398 27.1379C5.93398 33.7179 2.51398 38.3579 2.92398 38.6179C4.10398 39.3579 5.82398 40.2779 7.62398 40.7279C7.62398 40.7279 11.204 32.2679 11.394 31.7979C15.124 22.8879 9.82398 19.5579 9.95398 17.9879C10.054 16.8279 12.274 15.9979 13.244 15.4379C12.504 14.7179 12.154 15.2979 12.104 14.4879C8.56398 17.1779 7.85398 16.2079 7.66398 19.2379Z" fill="#2B55B2"/>
<path d="M15.434 11.1679C15.214 12.4679 14.284 19.5579 15.434 20.2579C14.364 19.8379 13.234 15.5479 13.454 13.7379C13.184 17.3279 14.114 20.3579 15.024 20.7179C13.354 19.7679 11.854 16.9679 11.854 16.9679L10.584 15.5579C10.584 15.5579 14.124 2.95794 20.434 5.66794L21.124 6.80794C19.044 6.49794 15.874 8.60794 15.434 11.1579V11.1679Z" fill="#232121"/>
<path d="M16.7338 8.95798C16.7338 8.62798 15.9138 8.32798 15.5938 8.80798C15.1138 9.49798 14.6738 11.198 15.7138 11.318C16.3838 11.398 16.7438 8.95798 16.7438 8.95798H16.7338Z" fill="#E0B8AA"/>
<path d="M17.3836 32.6779L17.7736 32.7979L19.7736 40.5179L10.1136 43.9279L9.69355 43.7879L7.14355 35.9879L17.3836 32.6779Z" fill="#C6D1DB"/>
<g style="mix-blend-mode:multiply">
<path d="M7.14355 35.9879L7.74355 36.0679L10.2136 43.8879L10.1136 43.9279L9.69355 43.7879L7.14355 35.9879Z" fill="#C6D1DB"/>
</g>
<path d="M17.7736 32.7979L20.0736 40.9279L10.1136 43.9279L7.70361 36.0879L17.7736 32.7979Z" fill="#850000"/>
<path d="M16.7235 34.4279L18.4035 39.8979L10.9935 42.3179L9.31348 36.8579L16.7235 34.4379V34.4279Z" fill="#6A7B9B"/>
<g style="mix-blend-mode:soft-light">
<path d="M11.4636 37.1878C11.9336 37.0378 12.5636 37.7378 12.8736 38.7578C13.1836 39.7778 13.0636 40.7278 12.6036 40.8778C12.1436 41.0278 11.5036 40.3278 11.1936 39.3078C10.8836 38.2878 11.0036 37.3378 11.4636 37.1878Z" fill="white"/>
</g>
<path d="M18.2435 33.0779L18.5735 33.2079L20.9835 40.6879L11.7735 44.4179L10.9735 44.1179L8.31348 35.5079L18.2435 33.0779Z" fill="white"/>
<path opacity="0.51" d="M8.31348 35.5079L9.14348 35.6679L11.7735 44.4179L10.9835 44.2079L8.31348 35.5079Z" fill="#C6D1DB"/>
<path d="M18.5737 33.2079L21.1537 40.9379L11.7737 44.4179L9.05371 35.6279L18.5737 33.2079Z" fill="#00225E"/>
<path d="M18.8836 42.7379C18.9736 42.2379 18.7136 41.2379 18.2936 40.7779C18.0236 40.4879 16.5936 39.3079 16.1336 38.9979C15.0636 37.3479 12.9936 32.4279 12.6636 31.9579C11.7136 30.6479 11.0536 22.2279 11.0536 22.2279L7.06359 20.9279C6.03359 24.5379 8.48359 30.9979 9.01359 32.4479C9.87359 34.7679 13.6436 39.4679 14.9036 40.6579C15.2936 41.3279 16.0436 42.6879 16.2936 42.8479C16.5836 43.0379 17.2036 43.6579 17.5536 43.6479C17.7936 43.6479 17.4836 43.3479 17.2436 43.1379C17.4636 43.3079 17.7936 43.5179 17.9736 43.4479C18.0936 43.4079 18.0736 43.2479 17.9936 43.0679C18.0936 43.1779 18.2136 43.2779 18.3336 43.2979C18.5736 43.3379 18.5636 42.9079 18.5036 42.5379C18.5836 42.7079 18.7936 43.1479 18.8636 42.7379H18.8836Z" fill="#F4DAD3"/>
<path d="M9.91361 16.7179C8.80361 16.5779 8.25361 17.6979 7.56361 18.4479C6.46361 19.6279 7.12361 25.0479 7.12361 25.0479L11.8736 25.6779C11.8736 25.6779 12.6636 20.2879 12.4236 19.0479C11.9036 16.4179 9.91361 16.7279 9.91361 16.7279V16.7179Z" fill="#4686D3"/>
<path d="M7.84379 17.6679C6.74379 18.8479 5.63379 24.8679 5.63379 24.8679L8.92379 25.3179C9.50379 23.4279 9.33379 19.2679 10.7038 16.8279C9.29379 16.2079 8.52379 16.9179 7.83379 17.6579L7.84379 17.6679Z" fill="#2B55B2"/>
<path d="M0.223633 73.4778C0.883633 74.0678 6.24363 73.5478 7.12363 73.0378C7.05363 75.1678 7.27363 76.9978 7.27363 76.9978C7.27363 76.9978 2.79363 77.9478 0.893633 77.0678C0.293633 76.7978 0.233633 73.4778 0.233633 73.4778H0.223633Z" fill="#232121"/>
<path d="M43.3136 80.3079C43.1036 80.1879 39.4736 78.8679 39.1536 77.1079C38.2636 72.2479 37.5236 70.0879 38.5836 67.2979C39.1936 65.6979 35.4736 61.0679 35.5036 66.3079C33.6736 69.4579 35.5136 77.3879 35.5136 77.3879C35.1636 78.9279 34.2836 80.4279 35.0936 81.0079C35.8936 81.5979 36.8536 81.7279 37.4636 81.3079C38.0736 80.8879 41.5736 81.9479 43.0836 81.7179C44.6036 81.4979 44.1136 80.7679 43.3136 80.3079Z" fill="#F4DAD3"/>
<path d="M35.064 78.1979C34.614 79.1279 34.444 80.8579 34.794 81.3479C35.144 81.8379 36.994 81.9079 37.484 81.7479C37.984 81.5879 38.474 81.2979 39.314 81.5679C40.154 81.8379 43.684 82.3079 44.334 81.5079C44.984 80.6979 43.164 80.0579 42.504 79.7079C41.844 79.3679 41.264 80.1679 40.444 80.2179C39.624 80.2679 35.054 78.1879 35.054 78.1879L35.064 78.1979Z" fill="black"/>
<path d="M33.1137 81.5778C32.9037 81.4578 29.2737 80.1378 28.9537 78.3678C28.0637 73.5078 28.0837 70.4778 29.1437 67.6978C29.7437 66.1078 26.0337 61.4578 26.0637 66.7078C24.2437 69.8578 25.3137 78.6578 25.3137 78.6578C24.9637 80.1978 24.0937 81.6978 24.8937 82.2778C25.6937 82.8678 26.6537 82.9978 27.2637 82.5778C27.8737 82.1578 31.3737 83.2178 32.8837 82.9878C34.3937 82.7678 33.9037 82.0378 33.1137 81.5778Z" fill="#F4DAD3"/>
<path d="M24.8638 79.4778C24.4138 80.4078 24.2538 82.1378 24.5938 82.6278C24.9438 83.1178 25.9438 83.1378 26.4438 82.9778C26.9438 82.8178 27.5138 82.8378 28.2838 83.2678C29.8238 84.1478 32.1738 84.1178 33.1238 83.7078C36.2038 82.3878 32.9738 81.3378 32.3138 80.9978C31.6538 80.6578 29.8338 81.8278 29.0138 81.8778C28.1938 81.9278 24.8638 79.4778 24.8638 79.4778Z" fill="#232121"/>
<path d="M40.4438 41.8378C40.4438 39.1978 40.6438 37.8878 40.0538 36.1278L28.9038 36.3478C26.9738 36.7578 26.0038 41.5578 26.5938 44.7878C27.1838 48.0178 25.5138 61.2478 25.5138 61.2478C23.4638 66.2378 24.7438 78.0378 24.7438 78.0378C24.7438 78.0378 27.1638 79.2078 30.0238 77.8178C30.0238 76.0578 30.5038 65.8678 31.0938 64.1078C31.6838 62.3478 31.6738 62.8578 32.0838 60.9178C32.2838 59.9478 33.6438 53.4478 34.5238 48.8078C34.8038 52.0978 34.1738 56.8078 34.5938 60.9478C32.5338 66.6378 34.5438 76.9478 34.5438 76.9478C34.5438 76.9478 37.7838 78.2978 40.0638 76.9778C40.3538 75.5878 39.4738 63.8478 40.0638 62.0878C40.6538 60.3278 40.4538 44.4878 40.4538 41.8378H40.4438Z" fill="#850000"/>
<path d="M40.4238 61.8778C41.4138 59.2378 41.0338 44.2578 41.0338 41.6178C41.0338 38.9778 40.6738 37.8878 40.0838 36.1278L38.5538 36.1578C40.3538 44.0878 39.6438 55.2878 39.6438 57.3078C39.6438 59.5078 39.6038 61.1578 38.7238 62.9778C38.0538 64.3578 37.7738 73.7378 38.3938 77.4878C38.9638 77.4378 39.5438 77.2778 40.0838 76.9678C40.3738 75.5778 39.7738 63.6178 40.4238 61.8778Z" fill="#B80000"/>
<path d="M34.9937 46.9878C34.6937 48.2378 32.2937 61.6378 31.5837 63.1278C31.2037 63.9278 30.2437 65.2778 30.0237 77.8278C30.0237 77.8278 29.0237 78.4278 28.0737 78.4278C28.2237 71.7478 29.0537 64.4878 29.9337 62.8678C30.8137 61.2578 34.9937 46.9778 34.9937 46.9778V46.9878Z" fill="#B80000"/>
<path d="M36.2037 17.6779C36.5337 18.8479 36.4937 20.6879 34.1837 20.7979C32.1337 20.8979 29.2837 17.9179 29.0637 17.3279C27.5937 17.8379 25.5837 18.3379 25.5537 18.8679C26.1037 19.6979 27.8837 25.5279 28.1837 26.8479C28.4737 28.1679 28.5737 30.9979 28.0237 32.7579C27.2937 35.1079 27.1437 35.4679 27.0337 36.6079C27.0037 36.8679 27.2637 37.4179 27.2137 37.6679C27.1037 38.2179 26.9537 38.8379 26.9537 38.8379C26.9537 38.8379 35.0037 41.3179 40.9237 38.5479C40.7437 37.6679 40.5937 37.4079 40.5937 37.4079C40.5937 37.4079 41.2537 37.1879 40.7437 34.9879C40.2337 32.7879 39.3137 24.7579 39.2337 23.6579C39.1637 22.5579 39.3837 18.5979 39.3837 18.5979L36.1937 17.6779H36.2037Z" fill="#3C9E3C"/>
<g style="mix-blend-mode:overlay" opacity="0.8">
<path d="M40.9439 36.4178C40.9439 36.1678 40.9039 35.8478 40.8339 35.4778C38.7139 36.6478 35.8039 37.0478 33.1439 37.0478C30.5039 37.0578 28.0639 36.6478 27.0639 36.3578C27.0539 36.4578 27.0439 36.5478 27.0239 36.6578C27.0139 36.8078 27.0839 37.0578 27.1539 37.2878C28.4339 37.6078 30.6239 37.9078 33.1439 37.9278C35.7539 37.9278 38.6439 37.5678 40.9339 36.4178H40.9439Z" fill="white"/>
<path d="M32.944 35.7778C35.504 35.7778 38.404 35.4378 40.604 34.2478C40.554 33.9678 40.504 33.6778 40.454 33.3378C38.474 34.5178 35.554 34.9078 32.954 34.8978C31.484 34.8978 30.114 34.7778 29.084 34.6378C28.564 34.5678 28.134 34.4878 27.824 34.4178C27.724 34.3978 27.634 34.3778 27.564 34.3478C27.464 34.6778 27.384 34.9578 27.314 35.1878C27.704 35.2978 28.224 35.3978 28.964 35.5078C30.034 35.6578 31.434 35.7778 32.954 35.7778H32.944Z" fill="white"/>
<path d="M40.3438 32.6778C40.3038 32.3778 40.2537 32.0778 40.2137 31.7578C38.1337 32.7278 35.4237 33.0678 33.0337 33.0678C30.8837 33.0778 28.9638 32.7878 28.0938 32.5578C28.0738 32.6378 28.0538 32.7178 28.0338 32.7978C27.9638 33.0178 27.9037 33.2078 27.8438 33.3978C28.8837 33.6878 30.7737 33.9278 33.0337 33.9378C35.4137 33.9378 38.1237 33.6378 40.3537 32.6678L40.3438 32.6778Z" fill="white"/>
<path d="M39.834 28.9278C39.794 28.6278 39.764 28.3378 39.724 28.0378C38.424 28.4878 36.104 28.7378 33.894 28.7078C31.654 28.7078 29.424 28.4978 28.374 28.2778C28.394 28.5678 28.404 28.8678 28.414 29.1878C29.674 29.4278 31.714 29.5878 33.894 29.5878C36.084 29.5678 38.294 29.4378 39.834 28.9178V28.9278Z" fill="white"/>
<path d="M39.5737 26.7778C39.5337 26.4678 39.5037 26.1778 39.4737 25.8978C37.0437 26.5178 34.5337 26.8478 32.2837 26.8478C30.7037 26.8478 29.2637 26.6878 28.0537 26.3878C28.1037 26.5978 28.1537 26.7778 28.1837 26.9078C28.2137 27.0378 28.2337 27.1878 28.2637 27.3378C29.4637 27.5978 30.8137 27.7278 32.2837 27.7278C34.5837 27.7278 37.1037 27.4078 39.5737 26.7778Z" fill="white"/>
</g>
<path d="M29.5337 17.1678C29.7137 17.4578 32.7537 20.8578 34.6337 20.4678C36.0637 20.1778 35.9937 18.0478 35.8037 17.4178C36.3237 17.5678 36.6137 17.6778 36.6137 17.6778C36.6137 17.6778 37.3737 20.8678 34.7837 21.3478C31.7737 21.8978 29.7237 18.8178 29.0737 17.3278C29.2737 17.2378 29.5337 17.1678 29.5337 17.1678Z" fill="white"/>
<path d="M38.4536 10.6778C37.8836 14.1978 35.5236 16.6578 34.1936 16.2278C31.3836 15.3378 30.1736 13.1778 30.4236 9.44785C30.6336 6.38785 31.9636 3.56785 35.6636 4.42785C39.1336 5.23785 38.9436 7.66785 38.4536 10.6778Z" fill="#F4DAD3"/>
<path d="M34.9238 7.61786C35.8138 8.96786 38.4838 8.76786 38.2638 11.3079C38.1838 12.1979 37.9138 13.5579 37.3138 14.4379C36.6838 15.3579 37.9938 14.0679 37.9938 14.0679C37.9938 14.0679 40.5138 9.20786 38.3638 6.03786C37.4438 4.66786 35.4938 4.23786 35.3838 4.38786C35.2838 4.54786 34.9238 7.61786 34.9238 7.61786Z" fill="#84372D"/>
<path d="M37.0237 8.86782C35.2537 9.20782 33.4937 8.93782 32.4437 10.6278C31.6837 11.8578 30.6137 12.7678 30.3937 13.8978C30.0937 15.4078 29.9237 9.07782 29.9237 9.07782C29.9237 9.07782 29.5437 5.89782 33.0437 4.58782C35.3037 3.73782 37.2537 4.89782 37.2037 5.14782C37.1737 5.33782 37.0137 8.86782 37.0137 8.86782H37.0237Z" fill="#380F01"/>
<path d="M33.1138 8.19788C32.2538 12.2979 29.7438 15.2879 31.8438 23.0379C30.0638 21.9579 28.2538 20.1779 27.8738 15.3479C27.5838 11.7679 33.1138 8.19788 33.1138 8.19788Z" fill="#380F01"/>
<path d="M37.9339 8.9978C38.4739 11.3478 37.3139 21.8278 37.0039 22.3378C37.7039 21.6378 38.9539 19.3378 39.3139 17.6678C39.9139 14.8578 39.1139 10.5978 38.9839 10.4078C38.8539 10.2178 37.9339 9.0078 37.9339 9.0078V8.9978Z" fill="#84372D"/>
<path d="M38.0137 32.6478L36.0938 30.7178L54.7738 25.3878L47.5137 29.7878L38.0137 32.6478Z" fill="#A80000"/>
<path d="M47.1939 29.4078L53.6539 24.9078L36.9639 30.3478L41.1539 30.9078L47.1939 29.4078Z" fill="white"/>
<path d="M47.0238 29.2878L51.5838 24.9078L36.3438 29.7278L40.6138 30.6978L47.0238 29.2878Z" fill="#CFE0E8"/>
<path d="M46.9541 29.6679L38.5941 25.6879L34.4341 27.0679L39.9641 30.3579L46.9541 29.6679Z" fill="white"/>
<path d="M46.8437 29.8379L37.3837 26.2979L33.3037 28.1179L39.1837 30.7579L46.8437 29.8379Z" fill="#CFE0E8"/>
<path d="M38.0139 32.6478L26.2339 30.2878L34.9139 26.6278L47.4939 29.8378L38.0139 32.6478Z" fill="#700000"/>
<path d="M46.4636 25.5078C46.4636 25.5078 46.3836 25.2678 46.0836 25.2478C45.8536 25.2278 45.6036 25.3978 45.6136 25.6778C45.6236 26.1978 45.7436 26.6978 45.8436 26.8778C45.9436 27.0578 46.1936 27.6978 46.3736 27.6678C46.5436 27.6378 46.5236 27.5378 46.5036 27.0078C46.4936 26.4878 46.4636 25.4978 46.4636 25.4978V25.5078Z" fill="#E0B8AA"/>
<path d="M45.6434 25.5278C45.4834 25.2078 44.9234 25.0078 44.6934 25.4178C44.4634 25.8278 44.8434 26.3978 44.8934 26.8178C44.9434 27.2378 45.3035 27.9178 45.6835 28.0378C46.0635 28.1578 46.0434 27.9178 45.9234 27.4878C45.8034 27.0678 45.6535 25.5178 45.6535 25.5178L45.6434 25.5278Z" fill="#E0B8AA"/>
<path d="M44.6134 25.6478C44.2834 25.3878 43.8134 25.5178 43.7334 25.9378C43.6434 26.3478 44.0934 27.1978 44.2934 27.4878C44.4934 27.7778 44.7534 28.1378 44.9334 28.1078C45.1134 28.0778 45.1634 27.5578 45.0734 27.1678C44.9834 26.7778 44.6134 25.6478 44.6134 25.6478Z" fill="#E0B8AA"/>
<path d="M43.8036 26.1278C43.4536 26.1078 43.0736 26.0578 43.0536 26.4778C43.0336 26.8978 43.8736 28.1478 44.1036 28.0578C44.4136 27.9278 44.1736 27.4878 44.0236 27.0278C43.8736 26.5678 43.8036 26.1278 43.8036 26.1278Z" fill="#E0B8AA"/>
<path d="M43.8438 29.9179C43.5038 29.7079 43.2738 29.7479 42.6838 29.4979C41.9838 29.2079 41.8338 29.0779 42.0338 29.4179C42.1438 29.5879 42.3138 29.7279 42.4538 29.8479C42.7638 30.1179 42.6838 30.1279 42.6838 30.1279C42.6838 30.1279 42.7138 30.1279 41.8938 30.1279C40.6638 30.1079 40.4238 29.3179 40.3338 29.6779C40.2638 29.9479 40.9338 30.2979 41.3038 30.4579C40.6538 30.2879 40.0438 29.7279 40.0738 29.9679C40.0938 30.1479 40.4738 30.6679 40.8538 30.7379C40.8038 30.7879 40.1138 30.4579 40.1438 30.6479C40.2038 30.9479 40.7238 31.1879 41.1538 31.3779C40.9238 31.2879 40.6738 31.1979 40.5838 31.1479C40.4038 31.0579 40.2238 31.1079 40.2438 31.2179C40.2638 31.3479 41.0438 31.6979 41.4638 31.8779V31.8879C41.4938 31.8879 42.5438 32.2479 43.6938 32.2779C44.7138 32.2379 44.8638 31.2479 44.8438 31.1979C44.5438 30.3979 44.1538 30.1079 43.8538 29.9279L43.8438 29.9179Z" fill="#CC9987"/>
<path d="M38.5636 31.9378C38.5636 31.9378 39.4336 31.3578 39.4236 30.9478C39.4236 30.7178 38.6436 31.3178 38.5736 31.2578C39.0036 31.1378 39.4136 30.4978 39.4136 30.2878C39.4136 30.0078 38.7636 30.7178 38.0236 30.9678C38.4436 30.7478 39.1836 30.2778 39.0836 29.9778C38.9536 29.5678 38.7336 30.5178 37.3136 30.6378C36.3636 30.7278 36.3936 30.7178 36.3936 30.7178C36.3936 30.7178 36.2936 30.7178 36.6436 30.3678C36.7936 30.2178 36.9836 30.0478 37.0936 29.8378C37.3036 29.4278 37.1236 29.5978 36.3436 29.9978C35.6836 30.3378 35.3836 30.2378 35.1336 30.5578C34.8836 30.8778 34.6336 30.9078 34.3436 31.1678C34.2936 31.2078 27.7536 29.6478 27.7536 29.6478C27.7536 29.2978 28.5436 26.4378 28.3136 25.0578C28.2336 24.6078 26.1236 18.8778 25.4736 19.4778C25.0436 19.5878 24.5536 20.0278 24.2536 21.1678C23.7436 23.0578 24.2236 31.0778 24.8136 32.8278C24.8136 32.8278 27.3636 34.7778 34.4536 33.3378C35.3836 33.1878 36.8736 32.9978 37.8736 32.6778C38.2036 32.6478 39.1136 31.9978 39.2136 31.7978C39.2836 31.6478 39.1436 31.6078 38.5836 31.9378H38.5636Z" fill="#F4DAD3"/>
<path d="M25.6038 18.6678C25.2238 18.5478 23.5438 19.7378 23.4038 27.1778C23.4038 27.1778 27.8038 28.6578 28.1338 28.6578C28.4638 28.6578 28.7938 25.4078 28.7938 25.4078C28.7938 25.4078 27.8738 19.3778 25.6038 18.6578V18.6678Z" fill="#327C34"/>
<defs>
<linearGradient id="paint0_linear_25_22557" x1="51.6439" y1="15.3379" x2="52.6439" y2="6.96788" gradientUnits="userSpaceOnUse">
<stop stop-color="white"/>
<stop offset="0.64" stop-color="#C6C0B9"/>
</linearGradient>
<linearGradient id="paint1_linear_25_22557" x1="48.014" y1="36.1879" x2="65.704" y2="23.3879" gradientUnits="userSpaceOnUse">
<stop stop-color="#FEFEFE"/>
<stop offset="0.17" stop-color="#E5E3E0"/>
<stop offset="0.34" stop-color="#D4CFCA"/>
<stop offset="0.5" stop-color="#C9C3BD"/>
<stop offset="0.64" stop-color="#C6C0B9"/>
</linearGradient>
<linearGradient id="paint2_linear_25_22557" x1="31.6715" y1="20.275" x2="31.5183" y2="10.802" gradientUnits="userSpaceOnUse">
<stop stop-color="white"/>
<stop offset="0.53" stop-color="#C6C0B9"/>
</linearGradient>
</defs>
</svg>
