<svg width="95" height="105" viewBox="0 0 95 105" fill="none" xmlns="http://www.w3.org/2000/svg">
<path opacity="0.2" d="M83.2243 39.5176C88.3307 34.4112 88.3307 26.132 83.2243 21.0256C78.1179 15.9192 69.8387 15.9192 64.7323 21.0256C59.6259 26.132 59.6259 34.4112 64.7323 39.5176C69.8387 44.624 78.1179 44.624 83.2243 39.5176Z" fill="#E0C537"/>
<path opacity="0.1" d="M84.335 40.6281C90.0547 34.9084 90.0547 25.6349 84.335 19.9151C78.6153 14.1954 69.3418 14.1954 63.6221 19.9151C57.9024 25.6349 57.9024 34.9084 63.6221 40.6281C69.3418 46.3478 78.6153 46.3478 84.335 40.6281Z" fill="#E0C537"/>
<path opacity="0.4" d="M82.039 38.3323C86.4908 33.8805 86.4908 26.6627 82.039 22.2109C77.5872 17.7591 70.3694 17.7591 65.9176 22.2109C61.4658 26.6627 61.4658 33.8805 65.9176 38.3323C70.3694 42.7841 77.5872 42.7841 82.039 38.3323Z" fill="#E0C537"/>
<path d="M80.9098 37.2031C84.738 33.375 84.738 27.1683 80.9098 23.3401C77.0816 19.5119 70.8749 19.5119 67.0468 23.3401C63.2186 27.1683 63.2186 33.375 67.0468 37.2031C70.8749 41.0313 77.0816 41.0313 80.9098 37.2031Z" fill="#F4CD2A"/>
<path d="M66.0617 35.6536C66.0617 35.6536 70.2969 39.2875 69.2628 43.1474C65.9247 55.6196 53.5078 56.6898 53.5078 56.6898" stroke="#F26E25" stroke-width="0.961987" stroke-linecap="round" stroke-linejoin="round"/>
<path d="M70.5612 45.1052C70.5612 45.1052 70.6935 44.8719 70.6382 44.653C70.5829 44.4366 70.1861 44.1119 69.948 43.8137C69.8494 43.691 69.6089 43.6333 69.3563 43.6069C68.8321 44.4246 68.1899 45.3793 67.4805 46.4087C68.3871 46.6083 69.7604 46.6636 69.8397 46.6636C69.9383 46.6636 70.4795 46.4688 70.5949 46.3052C70.7103 46.1417 70.4939 45.9878 70.4939 45.9878C70.4939 45.9878 70.7055 45.7665 70.6983 45.6487C70.6911 45.5308 70.5612 45.1052 70.5612 45.1052Z" fill="#F7986A"/>
<path d="M39.4944 22.2892L29.5811 16.8348L0 44.6723L39.6651 61.9688L61.9279 34.6315L39.4944 22.2892Z" fill="#F7AA21"/>
<path d="M66.1104 32.9288L57.7195 0L39.4946 22.2892L61.9282 34.6315L66.1104 32.9288Z" fill="#F48B22"/>
<path d="M61.9282 34.6315L39.4946 22.2892L61.9282 34.6315Z" fill="#F48B22"/>
<path d="M66.1104 32.9288L66.7477 35.4276L66.1104 32.9288Z" fill="#F48B22"/>
<path d="M61.9278 34.6315L39.665 61.9688L44.0902 64.0515L66.7474 35.4276L61.9278 34.6315Z" fill="#F26E25"/>
<path d="M66.7473 35.4276L66.11 32.9288L61.9277 34.6316L66.7473 35.4276Z" fill="#F48B22"/>
<path d="M58.3274 57.7841C58.3274 57.7841 53.479 72.9402 51.8268 75.997C50.177 79.0537 36.5505 91.4369 36.5505 91.4369L32.9839 88.9116L45.9803 74.2991L45.7254 73.8614L46.4325 73.7844L46.2665 73.212L50.9586 59.0059L55.0254 55.2108L58.3274 57.7865V57.7841Z" fill="#4889C5"/>
<path d="M55.5882 55.7567L51.9254 60.4224L47.8249 74.1547L47.166 74.5371L47.3848 75.2899L33.8857 89.3277" stroke="#0B1135" stroke-width="0.480994" stroke-linecap="round" stroke-linejoin="round"/>
<path d="M49.8261 51.0622L39.0807 62.7504L39.1962 63.52L38.6286 63.265L38.1019 63.6546L23.2993 67.4617V72.8729C23.2993 72.8729 38.9484 70.2755 41.7286 68.1519C44.5087 66.0283 51.8559 59.8187 51.8559 59.8187L53.6356 59.2824L56.661 56.4301L49.8237 51.0598L49.8261 51.0622Z" fill="#5CA9C7"/>
<path d="M53.2409 53.6548C53.2409 53.6548 49.6166 58.5898 46.4541 55.0328" stroke="#0B1135" stroke-width="0.480994" stroke-linecap="round" stroke-linejoin="round"/>
<path d="M47.0194 55.5524L40.1364 63.2819L39.7756 64.648L38.6044 64.3401L23.3569 68.6619" stroke="#0B1135" stroke-width="0.480994" stroke-linecap="round" stroke-linejoin="round"/>
<path d="M68.8616 36.3943C68.8616 36.3943 68.0007 37.277 65.3552 37.5175C62.7097 37.758 60.1244 37.6978 55.6752 43.3495C51.226 49.0012 48.1597 51.7068 48.1597 51.7068C48.1597 51.7068 54.6531 58.3806 58.5612 58.7413C58.5612 58.7413 68.0608 46.0551 70.2854 42.0869L71.9809 39.0615L68.8616 36.3943Z" fill="#80C7A9"/>
<path d="M25.036 72.4232L26.6065 72.2765C26.6065 72.2765 26.7845 73.2216 25.8634 73.77C24.9422 74.3183 19.6802 74.6863 19.6802 74.6863L21.0654 73.96L25.036 72.4232Z" fill="white"/>
<path d="M14.7787 72.9788C16.3876 70.8672 17.5348 67.9452 17.9773 66.7162C18.0807 66.7355 18.1842 66.7595 18.2924 66.7932C20.0697 67.3319 20.1466 67.7023 20.6949 67.9211C21.4044 68.2049 23.8358 66.091 24.1124 67.255C24.1124 67.255 23.4559 67.8995 23.5448 69.0202C23.6675 70.5498 26.0099 72.1226 24.6415 72.8946C23.9176 73.3034 22.9556 73.5776 22.2125 73.746C21.3395 73.9432 20.4977 74.2558 19.7041 74.6719L19.6776 74.6863C19.6776 74.6863 16.9336 74.7801 15.6397 75.6844C14.5959 76.4155 12.862 78.2409 10.938 77.7743C11.8711 76.2784 13.153 75.1144 14.7787 72.9788Z" fill="#0B1135"/>
<path d="M10.0121 76.4684C11.2363 75.112 14.3868 71.531 14.7788 70.2179C15.2429 68.6595 15.9019 66.3218 17.9774 66.7162C17.5349 67.9452 16.3877 70.8672 14.7788 72.9788C13.153 75.1144 11.8712 76.2784 10.938 77.7743C10.6879 77.7142 10.4354 77.618 10.1805 77.4713C9.81733 77.2644 9.73075 76.7786 10.0097 76.4684H10.0121Z" fill="white"/>
<path d="M10.2234 77.6396C10.2715 77.6276 10.3147 77.5939 10.3364 77.5434C10.6899 76.757 12.0415 74.9821 14.1459 72.5507C15.7379 70.7085 17.3493 66.9182 17.4166 66.7571C17.4527 66.6705 17.4118 66.5695 17.3252 66.5334C17.2386 66.4974 17.1376 66.5383 17.1016 66.6248C17.0847 66.6633 15.4445 70.5257 13.8885 72.327C12.3854 74.0658 10.4951 76.3577 10.0261 77.4039C9.98767 77.4905 10.0261 77.5915 10.1127 77.63C10.1488 77.6468 10.1897 77.6492 10.2258 77.6396H10.2234Z" fill="#0A2138"/>
<path d="M17.2798 70.3405C17.4049 71.0548 18.0855 71.5334 18.7998 71.4059C19.5141 71.2808 19.9926 70.6002 19.8652 69.8859C19.7401 69.1717 19.0595 68.6931 18.3452 68.8205C17.631 68.948 17.1524 69.6262 17.2798 70.3405Z" fill="white"/>
<path d="M18.1118 74.465C18.2056 75.0229 18.3691 75.4583 18.4797 75.439C18.5904 75.4198 18.6048 74.9532 18.511 74.3977C18.4172 73.8397 18.2513 73.4044 18.1431 73.4236C18.0324 73.4429 18.018 73.9094 18.1118 74.465Z" fill="#0A2138"/>
<path d="M19.1479 74.2918C19.2417 74.8498 19.4052 75.2851 19.5159 75.2659C19.6265 75.2466 19.6409 74.78 19.5471 74.2245C19.4534 73.6665 19.2874 73.2313 19.1792 73.2505C19.0686 73.2697 19.0541 73.7363 19.1479 74.2918Z" fill="#0A2138"/>
<path d="M20.2304 74.1115C20.3242 74.6694 20.4878 75.1047 20.5984 75.0855C20.709 75.0663 20.7235 74.5997 20.6297 74.0441C20.5359 73.4862 20.3699 73.0509 20.2617 73.0701C20.1511 73.0894 20.1366 73.5559 20.2304 74.1115Z" fill="#0A2138"/>
<path d="M21.3589 73.9214C21.4527 74.4794 21.6186 74.9147 21.7268 74.8954C21.8374 74.8762 21.8519 74.4096 21.7581 73.8541C21.6643 73.2961 21.5007 72.8608 21.3901 72.8801C21.2795 72.8993 21.2651 73.3659 21.3589 73.9214Z" fill="#0A2138"/>
<path d="M27.3584 92.0814C28.3925 90.7851 30.7735 90.0059 32.178 89.0656C33.847 87.9497 33.4213 87.411 34.0851 89.0223C34.7489 90.6336 35.7734 90.1334 36.7811 90.9439C37.7887 91.7568 34.7801 93.5557 34.7801 93.5557C34.7801 93.5557 33.9552 95.0468 35.1601 96.0256C36.365 97.0044 34.6022 98.2093 36.1173 99.5994C37.4521 100.823 38.7243 102.651 37.9667 103.664C36.5021 102.586 33.3901 99.7124 27.3584 92.0814Z" fill="#0B1135"/>
<path d="M37.5388 104.029C36.0044 104.897 33.1377 100.66 30.3527 97.7619C27.5678 94.8639 26.4038 94.6715 26.9329 92.8702C27.0171 92.584 27.1638 92.3219 27.3586 92.079C33.3902 99.7123 36.5022 102.584 37.9669 103.661C37.8635 103.801 37.724 103.923 37.5388 104.027V104.029Z" fill="white"/>
<path d="M35.1609 96.0255C33.956 95.0467 34.7809 93.5556 34.7809 93.5556C34.7809 93.5556 35.5505 93.0963 36.1806 92.5359C36.1806 92.5359 37.8304 92.4277 37.6813 92.8053C37.5322 93.1828 36.5101 93.6807 35.9257 94.4743C35.3412 95.2656 36.7337 99.0534 36.1181 99.6017C34.6029 98.2116 36.3658 97.0067 35.1609 96.0279V96.0255Z" fill="white"/>
<path d="M27.0486 93.2887C33.0755 100.701 37.3876 104.13 37.4309 104.164C37.5054 104.222 37.6136 104.21 37.6714 104.135C37.7291 104.061 37.717 103.952 37.6425 103.895C37.5992 103.861 33.3136 100.451 27.3132 93.0722C27.2314 92.9712 27.1472 92.8678 27.063 92.7644C27.0029 92.6922 26.8971 92.6802 26.8225 92.7403C26.748 92.8005 26.7384 92.9063 26.7961 92.9808C26.8803 93.0842 26.962 93.1877 27.0462 93.2887H27.0486Z" fill="#0A2138"/>
<path d="M35.5311 97.4757C36.0867 97.5623 36.5508 97.543 36.5677 97.4348C36.5845 97.3242 36.1492 97.1655 35.5937 97.0789C35.0381 96.9923 34.5739 97.0115 34.5571 97.1198C34.5403 97.2304 34.9756 97.3891 35.5311 97.4781V97.4757Z" fill="#0A2138"/>
<path d="M35.1005 96.0904C35.656 96.177 36.1202 96.1578 36.137 96.0496C36.1538 95.9389 35.7185 95.7802 35.163 95.6936C34.6074 95.607 34.1433 95.6263 34.1264 95.7345C34.1096 95.8451 34.5449 96.0039 35.1005 96.0904Z" fill="#0A2138"/>
<path d="M34.7494 94.965C35.3049 95.0515 35.7691 95.0323 35.7859 94.9241C35.8028 94.8134 35.3675 94.6547 34.8119 94.5681C34.2564 94.4816 33.7922 94.5008 33.7754 94.609C33.7585 94.7196 34.1938 94.8784 34.7494 94.965Z" fill="#0A2138"/>
<path d="M34.8143 93.8226C35.3699 93.9091 35.834 93.8899 35.8509 93.7817C35.8677 93.671 35.4324 93.5123 34.8769 93.4257C34.3213 93.3392 33.8572 93.3584 33.8403 93.4666C33.8235 93.5773 34.2588 93.736 34.8143 93.8226Z" fill="#0A2138"/>
<path d="M30.1585 91.509C29.5645 91.9203 29.4154 92.7332 29.8267 93.3272C30.2379 93.9212 31.0508 94.0703 31.6448 93.6591C32.2388 93.2478 32.3879 92.4349 31.9767 91.8409C31.5654 91.2469 30.7526 91.0978 30.1585 91.509Z" fill="white"/>
<path d="M68.9239 36.3944C68.9239 36.3944 69.4891 35.911 69.4289 35.4276C70.3236 34.9658 69.5107 34.3285 69.5107 34.3285C69.5107 34.3285 68.467 33.4916 68.9407 32.9336C69.4145 32.3757 70.1697 33.3761 70.1697 33.3761C71.0186 32.7532 70.0494 32.5657 69.9556 32.1688C69.8618 31.772 70.1985 32.063 70.4294 31.7576C70.6627 31.4522 69.6334 30.5359 70.0975 29.9996C70.5617 29.4633 71.5165 29.8312 71.9109 29.6605C72.1586 29.5546 72.4712 29.3671 72.553 29.0159C72.8608 29.4825 73.3394 30.2377 73.5318 30.7066C73.8252 31.4209 73.8012 31.8538 74.489 31.7985C75.1768 31.7408 74.2028 32.5897 74.2028 32.5897C74.2028 32.5897 75.0902 33.8571 74.6141 34.3742C74.6141 34.3742 74.6141 34.3742 74.6116 34.3766C74.3423 34.6676 74.0946 34.9778 73.9166 35.3314L72.0407 39.0639L68.9215 36.3968L68.9239 36.3944Z" fill="#F7986A"/>
<path d="M66.7764 31.8418C66.5455 30.4204 67.7528 30.7451 67.8033 29.5138C67.8322 28.8091 68.3685 28.4508 68.8206 28.2728C69.0226 28.1934 69.0779 27.9361 68.924 27.7846C68.7605 27.6235 68.6619 27.4022 68.823 27.1328C69.191 26.5172 71.3266 26.6975 72.1298 27.8616C72.481 28.3714 72.5555 28.7418 72.4906 29.0135C72.4088 29.3647 72.0962 29.5498 71.8485 29.6581C71.454 29.8288 70.5017 29.4609 70.0351 29.9972C69.5685 30.5335 70.6003 31.4498 70.367 31.7552C70.1337 32.0606 69.7994 31.7696 69.8932 32.1664C69.987 32.5633 70.9562 32.7509 70.1073 33.3737C70.1073 33.3737 69.3497 32.3709 68.8783 32.9312C68.4045 33.4892 69.4483 34.3261 69.4483 34.3261C69.4483 34.3261 70.2612 34.9658 69.3665 35.4252C69.3665 35.4252 67.0097 33.2607 66.7788 31.8394L66.7764 31.8418Z" fill="#5D3444"/>
<path d="M73.0775 31.5003C73.1256 31.671 73.027 31.849 72.8563 31.8971C72.6855 31.9452 72.5075 31.8466 72.4594 31.6758C72.4113 31.5051 72.5099 31.3271 72.6807 31.279C72.8515 31.2309 73.0294 31.3295 73.0775 31.5003Z" fill="#181028"/>
<path d="M71.8431 31.5171C71.8143 31.5291 71.783 31.5291 71.7517 31.5195C71.6796 31.4978 71.6411 31.4209 71.6627 31.3487C71.6772 31.3054 72.0018 30.3098 72.9542 30.2689C73.0288 30.2665 73.0913 30.3242 73.0961 30.3987C73.0985 30.4733 73.0432 30.5358 72.9662 30.5406C72.2015 30.5719 71.9225 31.4233 71.9201 31.4305C71.9081 31.4714 71.8768 31.5002 71.8407 31.5146L71.8431 31.5171Z" fill="#562A35"/>
<path d="M73.8921 33.316C73.6948 33.3905 73.5121 33.3905 73.3509 33.316C73.0984 33.2006 73.0022 32.9408 72.9974 32.9288C72.9709 32.8591 73.0166 32.7845 73.0792 32.7556C73.1489 32.7292 73.2259 32.7653 73.2523 32.835C73.2764 32.8975 73.4159 33.203 73.7983 33.0611C73.868 33.0346 73.9474 33.0707 73.9714 33.1404C73.9979 33.2102 73.9618 33.2871 73.8945 33.3136L73.8921 33.316Z" fill="#BA6349"/>
<path d="M69.2513 33.631C69.2513 33.631 69.232 33.6431 69.22 33.6479C69.1647 33.6671 69.1046 33.6383 69.0853 33.5829C69.0084 33.3641 69.1286 33.2246 69.2032 33.1813C69.2537 33.1525 69.3186 33.1693 69.3475 33.2198C69.3763 33.2703 69.3595 33.3328 69.3114 33.3617C69.2969 33.3713 69.2488 33.4122 69.2849 33.5132C69.2994 33.5565 69.2849 33.6022 69.2513 33.631Z" fill="#BA6349"/>
<path d="M69.7418 33.7393C69.7274 33.7513 69.7082 33.7585 69.6889 33.7609C69.345 33.8018 69.0997 33.4531 69.0901 33.4386C69.0564 33.3905 69.066 33.328 69.1166 33.2919C69.1647 33.2583 69.2296 33.2703 69.2633 33.3184C69.2633 33.3208 69.4484 33.5781 69.6649 33.5517C69.7226 33.5445 69.7755 33.5853 69.7803 33.6431C69.7851 33.6815 69.7683 33.7152 69.7418 33.7369V33.7393Z" fill="#BA6349"/>
<g style="mix-blend-mode:multiply">
<path d="M72.5649 32.4285C72.5649 32.4285 72.7789 32.0942 72.9617 32.2578C73.1829 32.455 72.4855 32.9288 72.4855 32.9288C72.4855 32.9288 71.9516 32.3275 72.2209 32.1784C72.4903 32.0317 72.5649 32.4285 72.5649 32.4285Z" fill="#FF7694"/>
</g>
<path d="M69.6307 37.0533C69.6307 37.0533 66.2637 38.8979 62.8198 38.8618" stroke="#0B1135" stroke-width="0.480994" stroke-linecap="round" stroke-linejoin="round"/>
<path d="M68.2598 36.3944L69.0702 35.6344L72.1438 39.0615L71.3453 40.9253L68.2598 36.3944Z" fill="white"/>
<path d="M64.4795 43.9219L66.5886 45.4226" stroke="#0B1135" stroke-width="0.480994" stroke-linecap="round" stroke-linejoin="round"/>
<path d="M60.4443 29.0159C62.6713 31.9139 56.1947 23.7297 54.3645 16.1132C52.532 8.49668 54.3645 1.12305 54.3645 1.12305L41.2983 18.7539C42.0198 19.2012 42.7654 19.6461 43.5302 20.0814C51.3463 24.5306 56.3174 23.6384 60.4443 29.0159Z" fill="#E8EAE9"/>
<path d="M30.0621 10.3413C30.0621 10.3413 18.7588 21.8852 12.2653 27.5368C5.77192 33.1885 0 34.2659 0 34.2659L3.24671 35.6344L1.7893 37.0533V42.9888L29.5811 16.8347L38.9148 21.9693L41.2981 18.7539C34.6604 14.6462 30.0621 10.3413 30.0621 10.3413Z" fill="white"/>
<path d="M57.3967 3.68677L54.3616 1.12067C54.3616 1.12067 52.529 8.4967 54.3616 16.1108C56.1942 23.7274 62.6684 31.9115 60.4414 29.0135C56.3121 23.6384 51.3434 24.5282 43.5272 20.079C42.7601 19.6437 42.0169 19.1988 41.2954 18.7515L38.9121 21.9669L60.2418 33.7008C60.8695 34.0471 61.5717 34.2539 62.2884 34.2611C63.1301 34.2708 64.1017 34.0278 64.4697 32.9745C64.614 32.5632 64.6116 32.1159 64.5058 31.695L57.3967 3.68436V3.68677Z" fill="white"/>
<path d="M62.4498 35.0981C62.4498 35.0981 66.0861 39.3308 64.4796 42.9888C59.2921 54.8116 46.856 53.9915 46.856 53.9915" stroke="#F26E25" stroke-width="0.961987" stroke-linecap="round" stroke-linejoin="round"/>
<path d="M61.4948 44.2033C61.4948 44.2033 61.6703 44.2658 61.9084 44.2033C62.1465 44.1383 62.5265 43.8112 62.5265 43.8112C62.5265 43.8112 63.6304 43.7247 63.8709 44.0253C64.1114 44.3259 64.5082 44.6482 64.5611 44.8646C64.6164 45.0811 64.4842 45.3168 64.4842 45.3168C64.4842 45.3168 64.614 45.7424 64.6212 45.8603C64.6285 45.9781 64.4168 46.1994 64.4168 46.1994C64.4168 46.1994 64.6333 46.3509 64.5178 46.5168C64.4024 46.6804 63.8613 46.8776 63.7627 46.8752C63.6641 46.8752 61.5814 46.7886 60.8599 46.4519L61.4948 44.2009V44.2033Z" fill="#F7986A"/>
<path d="M54.9532 42.5751C57.9305 41.9666 61.7665 41.7261 61.7665 41.7261C63.0098 39.2803 62.7068 37.8685 62.7068 37.8685C62.7068 37.8685 49.1211 37.0364 48.1591 42.5679C47.1972 48.0993 59.703 46.5361 61.5067 46.8968C61.5067 46.8968 62.108 45.3937 61.5668 44.1311C61.5668 44.1311 58.2456 42.6328 54.9941 42.5751H54.9532Z" fill="#87D6B2"/>
<path d="M62.618 38.857C59.0707 38.7945 49.9655 39.7685 49.7538 42.9888C49.5398 46.2355 61.5045 46.173 61.5045 46.173" stroke="#0B1135" stroke-width="0.480994" stroke-linecap="round" stroke-linejoin="round"/>
<path d="M56.541 42.2938L54.9946 42.5751C54.023 42.5583 53.0562 42.6689 52.188 42.9888C52.188 42.9888 52.1952 42.0388 54.2034 41.7478C55.7353 41.5266 56.541 42.2938 56.541 42.2938Z" fill="#0B1135"/>
<path d="M64.4818 45.3168C64.4818 45.3168 63.8205 45.3553 63.1206 45.1364" stroke="#562A35" stroke-width="0.240497" stroke-linecap="round" stroke-linejoin="round"/>
<path d="M64.4144 46.2018C64.3302 46.2066 63.8011 46.3557 62.8872 46.1032" stroke="#562A35" stroke-width="0.240497" stroke-linecap="round" stroke-linejoin="round"/>
<path d="M70.5616 45.1051C70.5616 45.1051 69.3519 45.348 68.9311 45.1051C68.5102 44.8622 69.311 44.2393 69.3423 44.249" stroke="#562A35" stroke-width="0.240497" stroke-linecap="round" stroke-linejoin="round"/>
<path d="M70.4943 45.9902C70.4943 45.9902 68.9118 46.2956 68.5607 45.9036C68.2096 45.514 68.9311 45.1052 68.9311 45.1052" stroke="#562A35" stroke-width="0.240497" stroke-linecap="round" stroke-linejoin="round"/>
</svg>
