<svg id="Слой_1" data-name="Слой 1" xmlns="http://www.w3.org/2000/svg" xmlns:xlink="http://www.w3.org/1999/xlink" viewBox="0 0 996 1043.5"><defs><style>.cls-1{fill:url(#Безымянный_градиент_4);}.cls-2,.cls-3,.cls-7{fill:#fff;}.cls-3,.cls-4,.cls-5{stroke:#fff;}.cls-3,.cls-4,.cls-5,.cls-6,.cls-7,.cls-8{stroke-miterlimit:10;}.cls-3,.cls-5{stroke-width:16px;}.cls-4,.cls-5,.cls-8{fill:none;}.cls-4{stroke-width:17px;}.cls-6{fill:#29abe2;}.cls-6,.cls-7{stroke:#1b1464;stroke-width:28px;}.cls-8{stroke:#29abe2;stroke-width:20px;}</style><radialGradient id="Безымянный_градиент_4" cx="672.5" cy="383.5" r="354" gradientUnits="userSpaceOnUse"><stop offset="0" stop-color="#fff"/><stop offset="0.06" stop-color="#e3f4fb"/><stop offset="0.19" stop-color="#b2e1f5"/><stop offset="0.32" stop-color="#88d0ef"/><stop offset="0.45" stop-color="#66c3ea"/><stop offset="0.58" stop-color="#4bb8e7"/><stop offset="0.72" stop-color="#38b1e4"/><stop offset="0.85" stop-color="#2dace3"/><stop offset="1" stop-color="#29abe2"/></radialGradient></defs><path class="cls-1" d="M672.5,737.5A354,354,0,0,1,422.18,133.18,354,354,0,0,1,922.82,633.82,351.7,351.7,0,0,1,672.5,737.5Z" transform="translate(-306 -16.5)"/><path class="cls-2" d="M672.5,42A341.59,341.59,0,0,1,805.42,698.17,341.59,341.59,0,0,1,539.58,68.83,339.38,339.38,0,0,1,672.5,42m0-25C470.09,17,306,181.09,306,383.5S470.09,750,672.5,750,1039,585.91,1039,383.5,874.91,17,672.5,17Z" transform="translate(-306 -16.5)"/><line class="cls-3" x1="0.5" y1="367" x2="724" y2="367"/><line class="cls-3" x1="366.5" x2="366.5" y2="733"/><path class="cls-4" d="M415.42,644.7S532.5,531.89,672.5,531.89s269,100.51,269,100.51" transform="translate(-306 -16.5)"/><path class="cls-4" d="M930.18,122.54S813.1,235.35,673.1,235.35s-269-100.51-269-100.51" transform="translate(-306 -16.5)"/><path class="cls-5" d="M774.5,44.5q143.13,338,0,676" transform="translate(-306 -16.5)"/><path class="cls-5" d="M568.41,45.47q-143.13,338,0,676" transform="translate(-306 -16.5)"/><rect class="cls-6" x="351" y="365.5" width="631" height="263"/><rect class="cls-7" x="351" y="627.5" width="631" height="402"/><path class="cls-2" d="M821.88,588.1,775.33,445.49h19.89l22.22,70.25c6.14,19.25,11.43,36.6,15.24,53.32h.42c4-16.51,9.94-34.49,16.29-53.11l24.12-70.46h19.68l-51,142.61Z" transform="translate(-306 -16.5)"/><path class="cls-2" d="M927,445.49V588.1h-18.4V445.49Z" transform="translate(-306 -16.5)"/><path class="cls-2" d="M956.67,565.67a65.2,65.2,0,0,0,33,9.31c18.83,0,29.83-9.94,29.83-24.33,0-13.33-7.62-20.95-26.87-28.35C969.36,514,955,502,955,481.88c0-22.21,18.41-38.72,46.13-38.72,14.6,0,25.18,3.39,31.53,7l-5.08,15a56.78,56.78,0,0,0-27.08-6.77c-19.47,0-26.88,11.63-26.88,21.37,0,13.33,8.68,19.89,28.36,27.5,24.12,9.31,36.39,21,36.39,41.9,0,22-16.29,41.05-49.93,41.05-13.76,0-28.78-4-36.4-9.1Z" transform="translate(-306 -16.5)"/><path class="cls-2" d="M1086.58,543.25l-14.81,44.85h-19l48.45-142.61h22.22l48.67,142.61h-19.68l-15.24-44.85Zm46.77-14.39-14-41.05c-3.17-9.31-5.29-17.78-7.41-26h-.42c-2.11,8.47-4.44,17.14-7.19,25.82l-14,41.26Z" transform="translate(-306 -16.5)"/><line class="cls-8" x1="405" y1="796.5" x2="928" y2="796.5"/><line class="cls-8" x1="404" y1="724.5" x2="927" y2="724.5"/><line class="cls-8" x1="406" y1="940.5" x2="929" y2="940.5"/><line class="cls-8" x1="405" y1="868.5" x2="928" y2="868.5"/></svg>