<svg width="514" height="514" viewBox="0 0 514 514" fill="none" xmlns="http://www.w3.org/2000/svg">
<path opacity="0.2" d="M125.628 472.706C161.005 472.706 189.685 469.257 189.685 465.002C189.685 460.748 161.005 457.299 125.628 457.299C90.2497 457.299 61.5703 460.748 61.5703 465.002C61.5703 469.257 90.2497 472.706 125.628 472.706Z" fill="#28364D"/>
<path opacity="0.2" d="M402.944 476.753C440.922 476.753 471.71 473.304 471.71 469.049C471.71 464.795 440.922 461.346 402.944 461.346C364.965 461.346 334.177 464.795 334.177 469.049C334.177 473.304 364.965 476.753 402.944 476.753Z" fill="#28364D"/>
<path d="M326.3 120.814H202.786V224.488H326.3V120.814Z" fill="#FAE8CD" stroke="#8D6C0C" stroke-width="3.14182" stroke-miterlimit="10"/>
<path d="M317.421 129.353H211.665V215.955H317.421V129.353Z" fill="white"/>
<path d="M306.607 201.827L290.371 179.159L295.331 171.713L314.503 199.25L309.004 198.216L306.607 201.827Z" fill="url(#paint0_radial_70_7019)"/>
<path d="M306.607 201.827L290.371 179.159L295.331 171.713L314.503 199.25L309.004 198.216L306.607 201.827Z" fill="#987000" fill-opacity="0.92"/>
<g style="mix-blend-mode:multiply" opacity="0.3">
<path d="M295.331 171.713L295.267 171.803L314.202 198.993L308.695 197.959L306.357 201.48L306.607 201.827L309.004 198.216L314.504 199.25L295.331 171.713Z" fill="#211915"/>
</g>
<path d="M281.903 205.984L289.067 179.198L281.768 173.904L273.583 206.261L278.376 203.414L281.903 205.984Z" fill="url(#paint1_radial_70_7019)"/>
<path d="M281.903 205.984L289.067 179.198L281.768 173.904L273.583 206.261L278.376 203.414L281.903 205.984Z" fill="#987000" fill-opacity="0.92"/>
<g style="mix-blend-mode:multiply" opacity="0.3">
<path opacity="0.2" d="M282.019 174.083L281.768 173.903L273.583 206.26L273.93 206.054L282.019 174.083Z" fill="#211915"/>
<path opacity="0.2" d="M278.704 203.292L278.428 203.453L281.904 205.984L281.987 205.682L278.704 203.292Z" fill="#211915"/>
</g>
<g style="mix-blend-mode:multiply" opacity="0.3">
<g style="mix-blend-mode:multiply" opacity="0.8">
<path d="M278.048 203.536L273.602 206.177L273.583 206.26L278.1 203.575L278.048 203.536Z" fill="#211915"/>
</g>
<g style="mix-blend-mode:multiply" opacity="0.8">
<path d="M281.768 173.903L281.691 174.205L288.733 179.32L281.659 205.803L281.903 205.983L289.067 179.198L281.768 173.903Z" fill="#211915"/>
</g>
</g>
<path d="M302.952 172.298C302.99 172.516 302.444 172.818 302.47 173.036C302.496 173.255 303.099 173.416 303.112 173.634C303.132 173.852 302.56 174.103 302.566 174.321C302.566 174.54 303.157 174.758 303.151 174.977C303.151 175.195 302.553 175.394 302.54 175.613C302.528 175.831 303.087 176.101 303.061 176.32C303.035 176.538 302.431 176.679 302.393 176.898C302.361 177.116 302.894 177.438 302.849 177.65C302.804 177.868 302.187 177.952 302.129 178.164C302.071 178.376 302.579 178.748 302.515 178.954C302.451 179.166 301.827 179.192 301.757 179.397C301.686 179.603 302.149 180.02 302.065 180.22C301.982 180.425 301.358 180.393 301.268 180.592C301.178 180.791 301.602 181.248 301.5 181.44C301.397 181.633 300.78 181.543 300.671 181.736C300.562 181.922 300.941 182.417 300.825 182.603C300.709 182.79 300.099 182.642 299.97 182.822C299.842 183.002 300.183 183.522 300.041 183.696C299.906 183.869 299.315 183.67 299.174 183.837C299.026 184.004 299.315 184.556 299.167 184.717C299.02 184.878 298.448 184.621 298.287 184.775C298.127 184.929 298.364 185.507 298.197 185.649C298.037 185.797 297.49 185.488 297.317 185.623C297.143 185.758 297.323 186.355 297.15 186.484C296.97 186.612 296.462 186.259 296.276 186.381C296.09 186.503 296.218 187.114 296.026 187.223C295.839 187.332 295.357 186.934 295.165 187.037C294.972 187.139 295.036 187.756 294.837 187.853C294.638 187.949 294.201 187.506 293.995 187.589C293.796 187.673 293.802 188.296 293.597 188.373C293.391 188.45 292.993 187.968 292.787 188.032C292.575 188.097 292.53 188.72 292.318 188.778C292.106 188.836 291.753 188.322 291.541 188.367C291.329 188.411 291.22 189.028 291.001 189.06C290.783 189.099 290.481 188.553 290.262 188.579C290.044 188.604 289.883 189.208 289.665 189.221C289.446 189.24 289.196 188.668 288.977 188.675C288.759 188.675 288.54 189.266 288.322 189.26C288.104 189.26 287.904 188.662 287.686 188.649C287.467 188.636 287.198 189.195 286.979 189.17C286.761 189.144 286.619 188.54 286.401 188.508C286.182 188.476 285.861 189.009 285.649 188.964C285.431 188.919 285.347 188.302 285.142 188.251C284.93 188.193 284.557 188.701 284.351 188.636C284.139 188.572 284.114 187.949 283.908 187.878C283.702 187.808 283.285 188.27 283.086 188.187C282.88 188.103 282.912 187.48 282.713 187.39C282.514 187.3 282.058 187.724 281.865 187.621C281.672 187.518 281.756 186.902 281.569 186.792C281.383 186.683 280.888 187.062 280.702 186.947C280.516 186.825 280.663 186.221 280.483 186.092C280.304 185.964 279.783 186.298 279.61 186.163C279.436 186.028 279.635 185.437 279.468 185.295C279.301 185.154 278.749 185.437 278.588 185.289C278.427 185.141 278.684 184.569 278.53 184.409C278.376 184.248 277.798 184.486 277.656 184.319C277.509 184.152 277.817 183.612 277.682 183.439C277.547 183.265 276.95 183.445 276.821 183.271C276.693 183.092 277.046 182.584 276.924 182.398C276.802 182.218 276.192 182.34 276.082 182.147C275.973 181.961 276.371 181.479 276.269 181.286C276.166 181.093 275.543 181.158 275.453 180.958C275.356 180.759 275.8 180.322 275.716 180.117C275.633 179.918 275.009 179.924 274.932 179.718C274.855 179.513 275.337 179.115 275.273 178.909C275.209 178.697 274.585 178.652 274.527 178.44C274.47 178.228 274.99 177.881 274.939 177.662C274.894 177.45 274.277 177.341 274.238 177.123C274.2 176.904 274.746 176.602 274.72 176.384C274.695 176.165 274.091 176.005 274.071 175.786C274.052 175.568 274.624 175.317 274.617 175.099C274.611 174.88 274.026 174.662 274.033 174.444C274.033 174.225 274.63 174.026 274.643 173.807C274.656 173.589 274.097 173.319 274.116 173.101C274.142 172.882 274.746 172.741 274.778 172.522C274.81 172.304 274.277 171.983 274.322 171.771C274.367 171.552 274.984 171.469 275.035 171.257C275.086 171.045 274.585 170.672 274.65 170.466C274.714 170.254 275.337 170.229 275.408 170.023C275.485 169.818 275.016 169.4 275.099 169.201C275.183 168.995 275.806 169.027 275.896 168.828C275.986 168.629 275.562 168.173 275.665 167.98C275.768 167.787 276.384 167.877 276.494 167.684C276.603 167.492 276.224 167.003 276.339 166.817C276.461 166.631 277.065 166.779 277.194 166.599C277.322 166.419 276.982 165.898 277.123 165.725C277.258 165.551 277.849 165.751 277.991 165.583C278.132 165.416 277.849 164.864 277.997 164.703C278.151 164.543 278.717 164.793 278.877 164.645C279.031 164.491 278.8 163.913 278.967 163.772C279.134 163.624 279.674 163.932 279.847 163.791C280.021 163.656 279.841 163.058 280.014 162.93C280.188 162.801 280.702 163.155 280.888 163.033C281.068 162.911 280.946 162.3 281.139 162.191C281.325 162.082 281.807 162.48 282 162.377C282.193 162.275 282.128 161.658 282.327 161.561C282.527 161.465 282.964 161.908 283.169 161.825C283.368 161.741 283.362 161.118 283.567 161.041C283.773 160.964 284.171 161.446 284.377 161.382C284.583 161.317 284.634 160.694 284.846 160.636C285.058 160.578 285.405 161.099 285.623 161.047C285.835 161.002 285.945 160.386 286.163 160.354C286.382 160.315 286.684 160.861 286.902 160.835C287.12 160.81 287.281 160.206 287.5 160.193C287.718 160.18 287.969 160.745 288.187 160.739C288.405 160.733 288.624 160.148 288.842 160.154C289.061 160.154 289.26 160.745 289.478 160.765C289.697 160.778 289.967 160.219 290.185 160.238C290.404 160.264 290.545 160.868 290.763 160.9C290.982 160.932 291.303 160.398 291.515 160.443C291.734 160.488 291.817 161.105 292.029 161.157C292.241 161.208 292.607 160.707 292.819 160.771C293.031 160.835 293.057 161.459 293.263 161.529C293.468 161.606 293.886 161.137 294.085 161.221C294.291 161.304 294.259 161.928 294.458 162.018C294.657 162.108 295.113 161.683 295.306 161.786C295.499 161.889 295.409 162.506 295.601 162.615C295.788 162.724 296.283 162.345 296.469 162.461C296.655 162.577 296.507 163.187 296.687 163.315C296.867 163.444 297.394 163.11 297.561 163.245C297.735 163.38 297.535 163.971 297.702 164.112C297.87 164.253 298.422 163.971 298.583 164.119C298.743 164.266 298.493 164.838 298.641 164.999C298.795 165.159 299.373 164.922 299.514 165.089C299.662 165.256 299.354 165.796 299.495 165.969C299.63 166.142 300.227 165.963 300.356 166.136C300.484 166.316 300.131 166.823 300.253 167.01C300.375 167.19 300.986 167.068 301.095 167.26C301.204 167.447 300.806 167.929 300.909 168.121C301.011 168.314 301.628 168.25 301.725 168.449C301.821 168.648 301.378 169.085 301.461 169.291C301.545 169.49 302.168 169.483 302.245 169.689C302.322 169.895 301.84 170.293 301.904 170.499C301.969 170.711 302.592 170.756 302.65 170.968C302.708 171.18 302.187 171.527 302.239 171.745C302.283 171.957 302.9 172.066 302.932 172.285L302.952 172.298Z" fill="#AE7F07"/>
<path d="M299.231 172.927C300.221 178.8 296.263 184.357 290.397 185.347C284.531 186.336 278.967 182.379 277.977 176.513C276.988 170.647 280.946 165.082 286.812 164.093C292.678 163.104 298.242 167.061 299.231 172.927Z" fill="#D2D4D4"/>
<g style="mix-blend-mode:multiply" opacity="0.1">
<path d="M278.408 176.757C277.425 170.923 281.357 165.397 287.184 164.414C290.018 163.939 292.781 164.62 294.984 166.123C292.723 164.446 289.812 163.65 286.818 164.157C280.984 165.14 277.052 170.666 278.042 176.5C278.549 179.494 280.252 181.987 282.578 183.574C280.438 181.987 278.883 179.597 278.408 176.763V176.757Z" fill="#211915"/>
</g>
<g style="mix-blend-mode:multiply" opacity="0.1">
<path d="M294.625 165.867C296.765 167.46 298.319 169.844 298.795 172.677C299.778 178.511 295.846 184.037 290.012 185.02C287.178 185.495 284.416 184.814 282.212 183.311C284.474 184.988 287.384 185.784 290.378 185.277C296.212 184.294 300.138 178.768 299.155 172.934C298.647 169.94 296.944 167.447 294.619 165.86L294.625 165.867Z" fill="#211915"/>
</g>
<path d="M269.997 159.46H216.323V162.004H269.997V159.46Z" fill="#92959C"/>
<path d="M269.997 164.433H216.323V166.977H269.997V164.433Z" fill="#92959C"/>
<path d="M269.997 169.406H216.323V171.951H269.997V169.406Z" fill="#92959C"/>
<path d="M269.997 174.379H216.323V176.923H269.997V174.379Z" fill="#92959C"/>
<path d="M262.416 178.863H216.323V181.408H262.416V178.863Z" fill="#92959C"/>
<path d="M259.235 183.837H216.323V186.381H259.235V183.837Z" fill="#92959C"/>
<path d="M256.999 188.811H216.323V191.355H256.999V188.811Z" fill="#92959C"/>
<path d="M253.575 193.783H216.323V196.328H253.575V193.783Z" fill="#92959C"/>
<path d="M253.575 198.756H216.323V201.3H253.575V198.756Z" fill="#92959C"/>
<path d="M218.84 141.062V135.455H219.519V140.46H222.125V141.062H218.84ZM224.852 141.15C224.447 141.15 224.097 141.061 223.804 140.882C223.511 140.701 223.286 140.449 223.127 140.126C222.97 139.801 222.892 139.423 222.892 138.993C222.892 138.562 222.97 138.182 223.127 137.854C223.286 137.523 223.507 137.266 223.79 137.082C224.075 136.895 224.407 136.802 224.786 136.802C225.005 136.802 225.222 136.839 225.435 136.912C225.649 136.985 225.843 137.103 226.018 137.268C226.194 137.43 226.333 137.646 226.437 137.914C226.541 138.182 226.593 138.513 226.593 138.905V139.179H223.352V138.62H225.936C225.936 138.383 225.889 138.171 225.794 137.985C225.701 137.799 225.568 137.652 225.394 137.544C225.223 137.437 225.02 137.383 224.786 137.383C224.529 137.383 224.306 137.447 224.118 137.574C223.932 137.7 223.789 137.865 223.689 138.067C223.588 138.27 223.538 138.487 223.538 138.719V139.091C223.538 139.409 223.593 139.678 223.702 139.899C223.814 140.118 223.968 140.285 224.165 140.4C224.362 140.513 224.591 140.57 224.852 140.57C225.022 140.57 225.175 140.546 225.312 140.498C225.451 140.449 225.57 140.376 225.671 140.279C225.771 140.181 225.849 140.059 225.903 139.913L226.528 140.088C226.462 140.3 226.352 140.486 226.196 140.646C226.041 140.805 225.85 140.929 225.621 141.019C225.393 141.106 225.137 141.15 224.852 141.15ZM229.405 136.857V137.405H227.226V136.857H229.405ZM227.861 135.849H228.507V139.858C228.507 140.04 228.534 140.177 228.587 140.269C228.641 140.358 228.711 140.418 228.795 140.449C228.881 140.478 228.971 140.493 229.066 140.493C229.137 140.493 229.195 140.489 229.241 140.482C229.287 140.473 229.323 140.466 229.351 140.46L229.482 141.041C229.438 141.057 229.377 141.073 229.299 141.09C229.22 141.108 229.121 141.117 229 141.117C228.818 141.117 228.639 141.078 228.463 141C228.29 140.921 228.146 140.801 228.031 140.641C227.918 140.48 227.861 140.278 227.861 140.033V135.849ZM232.206 136.857V137.405H230.027V136.857H232.206ZM230.662 135.849H231.308V139.858C231.308 140.04 231.335 140.177 231.388 140.269C231.442 140.358 231.512 140.418 231.596 140.449C231.681 140.478 231.772 140.493 231.867 140.493C231.938 140.493 231.996 140.489 232.042 140.482C232.088 140.473 232.124 140.466 232.151 140.46L232.283 141.041C232.239 141.057 232.178 141.073 232.099 141.09C232.021 141.108 231.921 141.117 231.801 141.117C231.618 141.117 231.44 141.078 231.264 141C231.091 140.921 230.947 140.801 230.832 140.641C230.719 140.48 230.662 140.278 230.662 140.033V135.849ZM234.896 141.15C234.491 141.15 234.141 141.061 233.848 140.882C233.556 140.701 233.33 140.449 233.171 140.126C233.014 139.801 232.936 139.423 232.936 138.993C232.936 138.562 233.014 138.182 233.171 137.854C233.33 137.523 233.551 137.266 233.834 137.082C234.119 136.895 234.451 136.802 234.831 136.802C235.05 136.802 235.266 136.839 235.479 136.912C235.693 136.985 235.887 137.103 236.063 137.268C236.238 137.43 236.377 137.646 236.481 137.914C236.586 138.182 236.638 138.513 236.638 138.905V139.179H233.396V138.62H235.98C235.98 138.383 235.933 138.171 235.838 137.985C235.745 137.799 235.612 137.652 235.438 137.544C235.267 137.437 235.064 137.383 234.831 137.383C234.573 137.383 234.35 137.447 234.162 137.574C233.976 137.7 233.833 137.865 233.733 138.067C233.632 138.27 233.582 138.487 233.582 138.719V139.091C233.582 139.409 233.637 139.678 233.746 139.899C233.858 140.118 234.012 140.285 234.209 140.4C234.406 140.513 234.635 140.57 234.896 140.57C235.066 140.57 235.219 140.546 235.356 140.498C235.495 140.449 235.614 140.376 235.715 140.279C235.815 140.181 235.893 140.059 235.948 139.913L236.572 140.088C236.506 140.3 236.396 140.486 236.241 140.646C236.085 140.805 235.894 140.929 235.666 141.019C235.437 141.106 235.181 141.15 234.896 141.15ZM237.62 141.062V136.857H238.245V137.492H238.289C238.365 137.284 238.504 137.115 238.705 136.986C238.905 136.856 239.132 136.791 239.384 136.791C239.431 136.791 239.49 136.792 239.562 136.794C239.633 136.796 239.687 136.799 239.723 136.802V137.459C239.701 137.454 239.651 137.446 239.573 137.435C239.496 137.422 239.415 137.416 239.329 137.416C239.124 137.416 238.942 137.458 238.781 137.544C238.623 137.628 238.497 137.745 238.404 137.895C238.312 138.043 238.267 138.211 238.267 138.401V141.062H237.62ZM244.366 141.15C243.986 141.15 243.653 141.06 243.367 140.879C243.082 140.698 242.859 140.446 242.699 140.121C242.54 139.796 242.46 139.416 242.46 138.982C242.46 138.544 242.54 138.161 242.699 137.834C242.859 137.508 243.082 137.254 243.367 137.073C243.653 136.893 243.986 136.802 244.366 136.802C244.746 136.802 245.078 136.893 245.363 137.073C245.649 137.254 245.872 137.508 246.031 137.834C246.191 138.161 246.272 138.544 246.272 138.982C246.272 139.416 246.191 139.796 246.031 140.121C245.872 140.446 245.649 140.698 245.363 140.879C245.078 141.06 244.746 141.15 244.366 141.15ZM244.366 140.57C244.654 140.57 244.892 140.496 245.078 140.348C245.264 140.2 245.402 140.006 245.491 139.765C245.581 139.524 245.625 139.263 245.625 138.982C245.625 138.701 245.581 138.439 245.491 138.196C245.402 137.953 245.264 137.757 245.078 137.607C244.892 137.458 244.654 137.383 244.366 137.383C244.078 137.383 243.84 137.458 243.654 137.607C243.468 137.757 243.33 137.953 243.241 138.196C243.151 138.439 243.107 138.701 243.107 138.982C243.107 139.263 243.151 139.524 243.241 139.765C243.33 140.006 243.468 140.2 243.654 140.348C243.84 140.496 244.078 140.57 244.366 140.57ZM249.131 136.857V137.405H246.864V136.857H249.131ZM247.543 141.062V136.277C247.543 136.036 247.599 135.835 247.712 135.674C247.826 135.514 247.973 135.393 248.153 135.313C248.334 135.233 248.525 135.192 248.725 135.192C248.884 135.192 249.014 135.205 249.114 135.231C249.215 135.256 249.289 135.28 249.339 135.302L249.153 135.86C249.12 135.849 249.074 135.836 249.016 135.819C248.959 135.803 248.884 135.795 248.791 135.795C248.578 135.795 248.423 135.849 248.328 135.956C248.235 136.064 248.189 136.222 248.189 136.43V141.062H247.543ZM252.292 141.062V135.455H254.187C254.625 135.455 254.985 135.53 255.266 135.68C255.547 135.828 255.755 136.031 255.89 136.29C256.025 136.549 256.093 136.844 256.093 137.175C256.093 137.505 256.025 137.798 255.89 138.054C255.755 138.309 255.548 138.51 255.268 138.656C254.989 138.8 254.632 138.872 254.198 138.872H252.665V138.259H254.176C254.475 138.259 254.716 138.215 254.899 138.127C255.083 138.04 255.216 137.916 255.299 137.755C255.383 137.593 255.425 137.399 255.425 137.175C255.425 136.95 255.383 136.754 255.299 136.586C255.215 136.418 255.08 136.288 254.896 136.197C254.712 136.104 254.468 136.058 254.165 136.058H252.971V141.062H252.292ZM254.932 138.544L256.312 141.062H255.523L254.165 138.544H254.932ZM258.854 141.15C258.449 141.15 258.1 141.061 257.806 140.882C257.514 140.701 257.288 140.449 257.13 140.126C256.973 139.801 256.894 139.423 256.894 138.993C256.894 138.562 256.973 138.182 257.13 137.854C257.288 137.523 257.509 137.266 257.792 137.082C258.077 136.895 258.409 136.802 258.789 136.802C259.008 136.802 259.224 136.839 259.438 136.912C259.651 136.985 259.846 137.103 260.021 137.268C260.196 137.43 260.336 137.646 260.44 137.914C260.544 138.182 260.596 138.513 260.596 138.905V139.179H257.354V138.62H259.939C259.939 138.383 259.891 138.171 259.796 137.985C259.703 137.799 259.57 137.652 259.397 137.544C259.225 137.437 259.022 137.383 258.789 137.383C258.531 137.383 258.309 137.447 258.121 137.574C257.934 137.7 257.791 137.865 257.691 138.067C257.59 138.27 257.54 138.487 257.54 138.719V139.091C257.54 139.409 257.595 139.678 257.705 139.899C257.816 140.118 257.97 140.285 258.167 140.4C258.364 140.513 258.593 140.57 258.854 140.57C259.024 140.57 259.178 140.546 259.314 140.498C259.453 140.449 259.573 140.376 259.673 140.279C259.773 140.181 259.851 140.059 259.906 139.913L260.53 140.088C260.464 140.3 260.354 140.486 260.199 140.646C260.044 140.805 259.852 140.929 259.624 141.019C259.396 141.106 259.139 141.15 258.854 141.15ZM263.287 141.15C262.893 141.15 262.553 141.057 262.269 140.871C261.984 140.685 261.765 140.428 261.612 140.101C261.458 139.775 261.382 139.401 261.382 138.982C261.382 138.555 261.46 138.178 261.617 137.851C261.776 137.522 261.997 137.266 262.28 137.082C262.564 136.895 262.897 136.802 263.276 136.802C263.572 136.802 263.838 136.857 264.076 136.967C264.313 137.076 264.507 137.229 264.659 137.427C264.81 137.624 264.904 137.854 264.941 138.116H264.295C264.245 137.925 264.136 137.755 263.966 137.607C263.798 137.458 263.572 137.383 263.287 137.383C263.035 137.383 262.814 137.448 262.625 137.58C262.437 137.709 262.29 137.893 262.184 138.13C262.08 138.366 262.028 138.642 262.028 138.96C262.028 139.285 262.079 139.568 262.181 139.809C262.285 140.049 262.431 140.237 262.619 140.37C262.809 140.503 263.032 140.57 263.287 140.57C263.455 140.57 263.607 140.54 263.744 140.482C263.881 140.424 263.997 140.34 264.092 140.23C264.187 140.121 264.255 139.989 264.295 139.836H264.941C264.904 140.084 264.814 140.308 264.67 140.507C264.527 140.704 264.339 140.861 264.103 140.978C263.869 141.093 263.597 141.15 263.287 141.15ZM267.594 141.15C267.214 141.15 266.881 141.06 266.595 140.879C266.31 140.698 266.087 140.446 265.927 140.121C265.768 139.796 265.688 139.416 265.688 138.982C265.688 138.544 265.768 138.161 265.927 137.834C266.087 137.508 266.31 137.254 266.595 137.073C266.881 136.893 267.214 136.802 267.594 136.802C267.974 136.802 268.306 136.893 268.591 137.073C268.877 137.254 269.1 137.508 269.259 137.834C269.419 138.161 269.499 138.544 269.499 138.982C269.499 139.416 269.419 139.796 269.259 140.121C269.1 140.446 268.877 140.698 268.591 140.879C268.306 141.06 267.974 141.15 267.594 141.15ZM267.594 140.57C267.882 140.57 268.12 140.496 268.306 140.348C268.492 140.2 268.63 140.006 268.719 139.765C268.809 139.524 268.853 139.263 268.853 138.982C268.853 138.701 268.809 138.439 268.719 138.196C268.63 137.953 268.492 137.757 268.306 137.607C268.12 137.458 267.882 137.383 267.594 137.383C267.306 137.383 267.068 137.458 266.882 137.607C266.696 137.757 266.558 137.953 266.469 138.196C266.379 138.439 266.334 138.701 266.334 138.982C266.334 139.263 266.379 139.524 266.469 139.765C266.558 140.006 266.696 140.2 266.882 140.348C267.068 140.496 267.306 140.57 267.594 140.57ZM270.486 141.062V136.857H271.11V137.514H271.165C271.252 137.29 271.394 137.115 271.589 136.991C271.785 136.865 272.019 136.802 272.293 136.802C272.57 136.802 272.801 136.865 272.986 136.991C273.172 137.115 273.317 137.29 273.421 137.514H273.465C273.572 137.297 273.734 137.124 273.949 136.997C274.165 136.867 274.423 136.802 274.724 136.802C275.1 136.802 275.408 136.92 275.647 137.155C275.886 137.389 276.005 137.753 276.005 138.248V141.062H275.359V138.248C275.359 137.938 275.274 137.716 275.105 137.583C274.935 137.449 274.735 137.383 274.505 137.383C274.209 137.383 273.98 137.472 273.818 137.651C273.655 137.828 273.574 138.053 273.574 138.325V141.062H272.917V138.182C272.917 137.943 272.84 137.751 272.684 137.604C272.529 137.457 272.329 137.383 272.085 137.383C271.917 137.383 271.76 137.427 271.614 137.517C271.47 137.606 271.353 137.73 271.263 137.889C271.176 138.046 271.132 138.228 271.132 138.434V141.062H270.486ZM277.187 141.062V136.857H277.811V137.514H277.866C277.954 137.29 278.095 137.115 278.29 136.991C278.486 136.865 278.72 136.802 278.994 136.802C279.271 136.802 279.502 136.865 279.687 136.991C279.873 137.115 280.018 137.29 280.122 137.514H280.166C280.273 137.297 280.435 137.124 280.65 136.997C280.866 136.867 281.124 136.802 281.425 136.802C281.801 136.802 282.109 136.92 282.348 137.155C282.587 137.389 282.707 137.753 282.707 138.248V141.062H282.06V138.248C282.06 137.938 281.976 137.716 281.806 137.583C281.636 137.449 281.436 137.383 281.206 137.383C280.91 137.383 280.681 137.472 280.519 137.651C280.357 137.828 280.275 138.053 280.275 138.325V141.062H279.618V138.182C279.618 137.943 279.541 137.751 279.385 137.604C279.23 137.457 279.03 137.383 278.786 137.383C278.618 137.383 278.461 137.427 278.315 137.517C278.171 137.606 278.054 137.73 277.964 137.889C277.877 138.046 277.833 138.228 277.833 138.434V141.062H277.187ZM285.651 141.15C285.246 141.15 284.896 141.061 284.603 140.882C284.311 140.701 284.085 140.449 283.926 140.126C283.769 139.801 283.691 139.423 283.691 138.993C283.691 138.562 283.769 138.182 283.926 137.854C284.085 137.523 284.306 137.266 284.589 137.082C284.874 136.895 285.206 136.802 285.585 136.802C285.805 136.802 286.021 136.839 286.234 136.912C286.448 136.985 286.642 137.103 286.818 137.268C286.993 137.43 287.132 137.646 287.236 137.914C287.341 138.182 287.393 138.513 287.393 138.905V139.179H284.151V138.62H286.735C286.735 138.383 286.688 138.171 286.593 137.985C286.5 137.799 286.367 137.652 286.193 137.544C286.022 137.437 285.819 137.383 285.585 137.383C285.328 137.383 285.105 137.447 284.917 137.574C284.731 137.7 284.588 137.865 284.488 138.067C284.387 138.27 284.337 138.487 284.337 138.719V139.091C284.337 139.409 284.392 139.678 284.501 139.899C284.613 140.118 284.767 140.285 284.964 140.4C285.161 140.513 285.39 140.57 285.651 140.57C285.821 140.57 285.974 140.546 286.111 140.498C286.25 140.449 286.369 140.376 286.47 140.279C286.57 140.181 286.648 140.059 286.703 139.913L287.327 140.088C287.261 140.3 287.151 140.486 286.996 140.646C286.84 140.805 286.649 140.929 286.421 141.019C286.192 141.106 285.936 141.15 285.651 141.15ZM289.022 138.533V141.062H288.375V136.857H289V137.514H289.054C289.153 137.301 289.303 137.129 289.503 136.999C289.704 136.868 289.963 136.802 290.281 136.802C290.566 136.802 290.815 136.861 291.028 136.978C291.242 137.093 291.408 137.268 291.527 137.503C291.645 137.737 291.705 138.033 291.705 138.39V141.062H291.059V138.434C291.059 138.104 290.973 137.846 290.801 137.662C290.63 137.476 290.394 137.383 290.095 137.383C289.889 137.383 289.704 137.427 289.542 137.517C289.381 137.606 289.254 137.737 289.161 137.908C289.068 138.08 289.022 138.288 289.022 138.533ZM294.473 141.15C294.123 141.15 293.814 141.062 293.545 140.885C293.277 140.706 293.067 140.454 292.916 140.129C292.764 139.802 292.688 139.416 292.688 138.971C292.688 138.529 292.764 138.146 292.916 137.821C293.067 137.496 293.278 137.245 293.548 137.068C293.818 136.891 294.13 136.802 294.484 136.802C294.758 136.802 294.975 136.848 295.133 136.939C295.294 137.029 295.416 137.131 295.5 137.246C295.586 137.359 295.653 137.452 295.7 137.525H295.755V135.455H296.401V141.062H295.777V140.416H295.7C295.653 140.493 295.585 140.59 295.497 140.707C295.41 140.822 295.285 140.925 295.122 141.016C294.96 141.105 294.744 141.15 294.473 141.15ZM294.561 140.57C294.82 140.57 295.039 140.502 295.218 140.367C295.397 140.23 295.533 140.041 295.626 139.8C295.719 139.558 295.766 139.277 295.766 138.96C295.766 138.646 295.72 138.371 295.629 138.136C295.538 137.898 295.403 137.714 295.224 137.583C295.045 137.449 294.824 137.383 294.561 137.383C294.287 137.383 294.059 137.453 293.877 137.594C293.696 137.732 293.56 137.921 293.469 138.16C293.379 138.398 293.335 138.664 293.335 138.96C293.335 139.259 293.38 139.531 293.471 139.776C293.564 140.018 293.701 140.212 293.882 140.356C294.065 140.498 294.291 140.57 294.561 140.57ZM298.912 141.161C298.645 141.161 298.403 141.111 298.186 141.01C297.969 140.908 297.796 140.761 297.669 140.57C297.541 140.376 297.477 140.143 297.477 139.869C297.477 139.628 297.524 139.433 297.619 139.283C297.714 139.131 297.841 139.013 298 138.927C298.159 138.841 298.334 138.777 298.526 138.735C298.719 138.691 298.913 138.657 299.109 138.631C299.364 138.598 299.572 138.574 299.73 138.557C299.891 138.539 300.008 138.509 300.081 138.467C300.156 138.425 300.193 138.352 300.193 138.248V138.226C300.193 137.956 300.119 137.746 299.971 137.596C299.825 137.447 299.603 137.372 299.306 137.372C298.997 137.372 298.756 137.439 298.58 137.574C298.405 137.709 298.282 137.854 298.211 138.007L297.597 137.788C297.707 137.532 297.853 137.333 298.036 137.191C298.22 137.047 298.421 136.946 298.638 136.89C298.857 136.831 299.072 136.802 299.284 136.802C299.419 136.802 299.574 136.819 299.749 136.852C299.927 136.883 300.097 136.947 300.261 137.046C300.428 137.145 300.565 137.293 300.675 137.492C300.784 137.691 300.839 137.958 300.839 138.292V141.062H300.193V140.493H300.16C300.116 140.584 300.043 140.682 299.941 140.786C299.839 140.89 299.703 140.979 299.533 141.052C299.363 141.125 299.156 141.161 298.912 141.161ZM299.01 140.581C299.266 140.581 299.481 140.53 299.656 140.43C299.833 140.33 299.967 140.2 300.056 140.041C300.147 139.882 300.193 139.715 300.193 139.54V138.949C300.166 138.982 300.105 139.012 300.012 139.039C299.921 139.065 299.815 139.088 299.695 139.108C299.576 139.126 299.46 139.142 299.347 139.157C299.236 139.17 299.145 139.181 299.076 139.19C298.908 139.212 298.751 139.247 298.605 139.297C298.461 139.344 298.344 139.416 298.255 139.513C298.167 139.608 298.123 139.737 298.123 139.902C298.123 140.126 298.206 140.296 298.372 140.411C298.54 140.524 298.753 140.581 299.01 140.581ZM303.847 136.857V137.405H301.668V136.857H303.847ZM302.303 135.849H302.949V139.858C302.949 140.04 302.976 140.177 303.029 140.269C303.084 140.358 303.153 140.418 303.237 140.449C303.323 140.478 303.413 140.493 303.508 140.493C303.579 140.493 303.638 140.489 303.683 140.482C303.729 140.473 303.765 140.466 303.793 140.46L303.924 141.041C303.88 141.057 303.819 141.073 303.741 141.09C303.662 141.108 303.563 141.117 303.442 141.117C303.26 141.117 303.081 141.078 302.906 141C302.732 140.921 302.588 140.801 302.473 140.641C302.36 140.48 302.303 140.278 302.303 140.033V135.849ZM304.819 141.062V136.857H305.466V141.062H304.819ZM305.148 136.156C305.022 136.156 304.913 136.113 304.822 136.027C304.733 135.942 304.688 135.839 304.688 135.718C304.688 135.598 304.733 135.494 304.822 135.409C304.913 135.323 305.022 135.28 305.148 135.28C305.274 135.28 305.382 135.323 305.471 135.409C305.562 135.494 305.608 135.598 305.608 135.718C305.608 135.839 305.562 135.942 305.471 136.027C305.382 136.113 305.274 136.156 305.148 136.156ZM308.358 141.15C307.978 141.15 307.645 141.06 307.358 140.879C307.073 140.698 306.851 140.446 306.69 140.121C306.531 139.796 306.452 139.416 306.452 138.982C306.452 138.544 306.531 138.161 306.69 137.834C306.851 137.508 307.073 137.254 307.358 137.073C307.645 136.893 307.978 136.802 308.358 136.802C308.737 136.802 309.069 136.893 309.354 137.073C309.641 137.254 309.863 137.508 310.022 137.834C310.183 138.161 310.263 138.544 310.263 138.982C310.263 139.416 310.183 139.796 310.022 140.121C309.863 140.446 309.641 140.698 309.354 140.879C309.069 141.06 308.737 141.15 308.358 141.15ZM308.358 140.57C308.646 140.57 308.883 140.496 309.069 140.348C309.256 140.2 309.393 140.006 309.483 139.765C309.572 139.524 309.617 139.263 309.617 138.982C309.617 138.701 309.572 138.439 309.483 138.196C309.393 137.953 309.256 137.757 309.069 137.607C308.883 137.458 308.646 137.383 308.358 137.383C308.069 137.383 307.832 137.458 307.646 137.607C307.459 137.757 307.322 137.953 307.232 138.196C307.143 138.439 307.098 138.701 307.098 138.982C307.098 139.263 307.143 139.524 307.232 139.765C307.322 140.006 307.459 140.2 307.646 140.348C307.832 140.496 308.069 140.57 308.358 140.57ZM311.896 138.533V141.062H311.249V136.857H311.874V137.514H311.928C312.027 137.301 312.177 137.129 312.377 136.999C312.578 136.868 312.837 136.802 313.155 136.802C313.44 136.802 313.689 136.861 313.902 136.978C314.116 137.093 314.282 137.268 314.401 137.503C314.519 137.737 314.579 138.033 314.579 138.39V141.062H313.933V138.434C313.933 138.104 313.847 137.846 313.675 137.662C313.504 137.476 313.268 137.383 312.969 137.383C312.763 137.383 312.578 137.427 312.416 137.517C312.255 137.606 312.128 137.737 312.035 137.908C311.942 138.08 311.896 138.288 311.896 138.533Z" fill="#28364D"/>
<path d="M477.223 474.421C477.178 468.799 476.831 459.804 474.119 455.615L461.937 433.114L449.383 438.543L457.922 459.791L428.071 474.421H477.223Z" fill="#561717"/>
<path d="M417.297 448.232C417.297 448.232 426.69 459.65 426.767 469.049H377.616L407.653 454.33L417.297 448.232Z" fill="#561717"/>
<path d="M447.848 275.515C428.843 278.965 410.743 285.757 410.743 285.757L407.659 287.723C407.659 287.723 378.271 344.134 373.735 360.923L402.121 455.614L422.34 450.911C422.34 450.911 402.918 375.026 404.518 366.294C405.346 361.752 413.423 349.403 420.985 338.596C420.355 339.129 419.719 339.65 419.07 340.164C419.719 339.656 420.355 339.129 420.985 338.596C427.962 328.624 434.497 319.957 434.497 319.957L431.805 327.108C442.714 312.581 448.06 294.096 447.848 275.509V275.515Z" fill="#694D17"/>
<path d="M490.728 287.054C488.408 271.949 467.636 271.923 447.841 275.515C439.039 291.378 437.195 304.517 431.798 327.114L417.296 365.632L450.475 452.267C450.475 452.267 463.756 456.295 471.53 446.895L450.475 366.981C450.475 366.981 495.277 316.673 490.734 287.061L490.728 287.054Z" fill="#7B5B00"/>
<path d="M331.452 123.931C325.85 114.634 315.152 120.641 306.305 119.902C307.211 121.091 308.682 122.376 310.905 122.537C310.905 122.537 320.947 120.641 323.382 121.592C325.817 122.537 326.299 135.162 326.299 135.162L317.6 138.946C317.6 138.946 315.165 140.841 315.165 144.311L318.512 145.994C318.512 145.994 323.993 140.861 327.951 142.904C329.268 143.585 330.264 144.221 331.015 144.774C334.767 138.419 335.493 130.215 331.452 123.924V123.931Z" fill="#F7C7AC"/>
<path d="M342.562 125.061L329.589 112.436L305.123 117.8C305.123 117.8 305.476 118.809 306.305 119.895C315.152 120.634 325.85 114.626 331.453 123.923C335.494 130.207 334.768 138.418 331.016 144.773C332.513 145.878 333.001 146.623 333.001 146.623L345.601 145.993L342.555 125.061H342.562Z" fill="#F5B591" stroke="#F5B591" stroke-width="0.32125" stroke-miterlimit="10"/>
<path d="M390.087 198.763C373.401 203.505 354.043 194.895 346.564 180.298C344.245 175.903 343.91 171.232 342.394 166.664C340.814 161.627 338.751 156.5 337.389 151.334L331.754 152.831C331.754 152.831 349.185 232.578 419.681 211.575L433.623 159.301L428.284 157.354C424.319 175.929 411.579 192.878 390.087 198.763Z" fill="#C0C2C2"/>
<path d="M389.361 177.637C368.762 177.567 346.089 149.021 346.089 149.021L337.389 151.334C338.751 156.499 340.814 161.626 342.394 166.664C343.904 171.232 344.245 175.909 346.564 180.297C354.043 194.889 373.401 203.498 390.087 198.763C411.579 192.884 424.319 175.935 428.284 157.354L425.347 156.281C425.347 156.281 409.953 177.708 389.355 177.637H389.361Z" fill="#D2D4D4"/>
<path d="M347.168 142.904L352.019 149.824L332.005 168.611L326.3 149.316C326.3 149.316 335.828 144.78 347.168 142.904Z" fill="#E8E9E9"/>
<path d="M334.472 154.642C334.35 155.336 333.592 155.767 332.783 155.613C331.973 155.458 331.414 154.771 331.536 154.083C331.658 153.39 332.416 152.959 333.226 153.113C334.036 153.268 334.595 153.949 334.472 154.642Z" fill="#A16F0E"/>
<path d="M427.834 166.014C427.834 166.014 427.86 165.989 427.873 166.014C427.86 165.989 427.847 166.04 427.834 166.014Z" fill="#F7C7AC"/>
<path d="M427.448 166.015C427.59 166.317 427.718 165.777 427.827 166.015C427.699 165.745 427.57 166.279 427.448 166.015Z" fill="#F7C7AC"/>
<path d="M427.975 166.014C428.02 166.104 428.059 165.93 428.097 166.014C428.059 165.93 428.014 166.104 427.975 166.014Z" fill="#F7C7AC"/>
<path d="M427.931 166.014C427.931 166.014 427.957 165.989 427.976 166.014C427.963 165.982 427.95 166.047 427.931 166.014Z" fill="#F7C7AC"/>
<path d="M427.23 166.014C427.301 166.161 427.371 165.853 427.448 166.014C427.378 165.866 427.307 166.181 427.23 166.014Z" fill="#F7C7AC"/>
<path d="M426.915 166.014C426.915 166.014 426.941 165.989 426.954 166.014C426.941 165.989 426.928 166.04 426.915 166.014Z" fill="#F7C7AC"/>
<path d="M426.761 166.014C426.812 166.124 426.864 165.912 426.909 166.014C426.812 165.815 426.761 166.014 426.761 166.014Z" fill="#F7C7AC"/>
<path d="M427.005 166.014C427.005 166.014 427.031 165.982 427.044 166.014C427.031 165.982 427.018 166.047 427.005 166.014Z" fill="#F7C7AC"/>
<path d="M427.044 166.014C427.108 166.149 427.172 165.885 427.23 166.014C427.166 165.872 427.102 166.136 427.044 166.014Z" fill="#F7C7AC"/>
<path d="M426.954 166.014C426.973 166.053 426.986 165.975 427.005 166.014C426.986 165.975 426.967 166.053 426.954 166.014Z" fill="#F7C7AC"/>
<path d="M428.097 166.014C428.123 166.079 428.156 165.956 428.181 166.014C428.156 165.956 428.13 166.079 428.097 166.014Z" fill="#F7C7AC"/>
<path d="M428.573 166.015C428.586 166.047 428.586 166.047 428.573 166.015V166.015Z" fill="#F7C7AC"/>
<path d="M428.528 166.014C428.547 166.053 428.56 165.994 428.573 166.014C428.567 165.994 428.547 166.059 428.528 166.014Z" fill="#F7C7AC"/>
<path d="M452.275 123.468C451.671 113.908 456.027 83.0097 456.027 83.0097C456.027 83.0097 425.63 70.8022 411.007 72.19C404.903 80.6582 398.819 89.1649 392.914 97.9736C390.55 101.398 388.417 105.208 388.654 109.918C388.654 114.242 390.479 119.003 395.022 118.758C395.285 120.962 396.499 137.976 396.499 137.976C396.801 139.113 397.193 140.237 397.694 141.342C401.067 147.799 408.206 148.847 414.412 148.339C422.887 147.709 427.789 157.077 433.173 166.014C433.629 166.683 434.086 165.147 434.49 166.014H451.979C451.979 166.014 452.879 133.035 452.268 123.474L452.275 123.468Z" fill="#F7C7AC"/>
<path d="M433.179 166.014C427.795 157.077 422.893 147.709 414.418 148.339C408.212 148.846 401.067 147.805 397.701 141.342C397.199 140.237 396.808 139.119 396.506 137.975C396.467 135.726 395.291 120.962 395.028 118.758C390.485 119.002 388.661 114.241 388.661 109.917C388.429 105.208 390.556 101.391 392.92 97.973C398.825 89.1643 404.909 80.6576 411.013 72.1895C407.91 72.485 405.52 73.3845 404.273 75.1514L377.79 110.476L390.087 123.32L394.912 156.787C394.912 156.787 422.893 147.709 426.761 166.014H434.49C434.092 165.146 433.636 166.682 433.173 166.014H433.179Z" fill="#F5B591" stroke="#F5B591" stroke-width="0.32125" stroke-miterlimit="10"/>
<path d="M428.232 166.014C428.303 166.168 428.373 165.898 428.425 166.014C428.373 165.905 428.309 166.181 428.232 166.014Z" fill="#F7C7AC"/>
<path d="M467.579 78.2292C467.579 78.2292 414.682 53.8207 402.822 51.9574L390.961 50.1006L401.742 58.2282L393.145 60.085L402.295 76.9635C402.295 76.9635 434.041 79.9897 443.325 83.517C452.609 87.0443 429.01 106.808 429.01 106.808L431.085 111.633C431.085 111.633 441.892 103.717 442.078 108.016C442.265 112.307 440.427 116.317 438.108 118.27C435.782 120.223 452.39 145.994 452.39 145.994L457.248 141.663C457.248 141.663 456.065 116.779 458.089 107.707C460.107 98.635 467.585 78.2292 467.585 78.2292H467.579Z" fill="black"/>
<path d="M456.033 158.728C456.033 158.728 490.285 197.374 490.735 282.114C490.735 282.114 468.607 301.961 410.743 285.75C410.743 285.75 406.484 238.148 422.341 164.446C422.341 164.446 448.728 168.97 456.04 158.722L456.033 158.728Z" fill="#D2D4D4"/>
<path d="M456.034 154.359L429.273 159.557V174.547L460.647 164.453L456.034 154.359Z" fill="#C0C2C2"/>
<path d="M430.083 166.014L425.791 176.481C425.617 178.061 426.665 179.777 426.465 181.621C424.487 200.228 421.64 230.913 422.334 247.67L413.943 269.084L404.511 251.39C404.511 251.39 409.542 220.017 418.543 180.528C418.89 179.006 421.094 177.464 421.454 175.915C422.328 172.15 421.383 168.327 422.328 164.453L430.076 166.014H430.083Z" fill="#946902"/>
<path d="M347.965 228.921C348.62 226.975 348.993 225.426 348.993 225.426L339.252 215.949H317.42C310.218 215.949 305.123 216.605 305.123 216.605C305.123 216.605 304.827 221.854 310.667 221.488C316.501 221.121 325.368 221.488 325.368 221.488L312.1 225.426L291.36 225.767L304.975 233.502C310.751 236.304 316.668 232.584 325.368 227.675C333.695 222.818 340.891 223.672 347.965 228.921Z" fill="#F7C7AC"/>
<path d="M324.667 225.651C318.853 228.664 311.984 231.678 304.975 233.509L312.466 238.469C312.466 238.469 337.093 233.072 341.34 236.31C344.18 238.475 346.647 232.873 347.971 228.928C340.89 223.679 333 220.8 324.674 225.658L324.667 225.651Z" fill="#F5B591" stroke="#F5B591" stroke-width="0.32125" stroke-miterlimit="10"/>
<path d="M425.167 230.516C415.787 245.589 389.239 255.458 374.275 249.759C369.719 248.088 366.462 244.844 362.395 242.486C357.975 239.832 353.143 237.436 348.8 234.531L345.568 239.543C345.568 239.543 413.442 285.899 448.863 222.465C470.785 183.215 449.004 170.911 449.004 170.911L443.774 173.153C452.775 189.736 437.388 211.26 425.161 230.509L425.167 230.516Z" fill="#C0C2C2"/>
<path d="M404.447 218.174C389.052 232.373 353.805 226.79 353.805 226.79L348.812 234.532C353.149 237.436 357.987 239.832 362.408 242.486C366.475 244.844 369.732 248.095 374.288 249.759C389.251 255.452 417.393 248.77 426.773 233.697C439 214.447 452.788 189.743 443.793 173.16L440.915 174.394C440.915 174.394 419.847 203.974 404.459 218.174H404.447Z" fill="#D2D4D4"/>
<path d="M350.669 221.489L358.733 223.282L355.912 251.121L339.246 240.7C339.246 240.7 343.428 230.728 350.663 221.489H350.669Z" fill="#E8E9E9"/>
<path d="M348.761 239.01C349.115 239.608 348.832 240.456 348.132 240.906C347.425 241.356 346.57 241.227 346.217 240.63C345.864 240.032 346.146 239.184 346.853 238.734C347.553 238.291 348.408 238.413 348.768 239.01H348.761Z" fill="#A16F0E"/>
<path d="M78.2755 440.593L75.3457 461.41H125.628C125.628 461.41 114.545 451.335 105.473 451.001C96.4069 450.667 92.4491 437.907 92.4491 437.907L78.2691 440.593H78.2755Z" fill="#241E15"/>
<path d="M114.005 261.124C114.005 261.124 119.563 355.301 112.842 377.461C106.121 399.621 97.9617 445.476 97.9617 445.476L75.3393 446.131C75.3393 446.131 70.9703 348.838 63.1961 326.003C55.4218 303.169 41.1776 279.666 47.654 266.231C54.1304 252.803 113.999 261.124 113.999 261.124H114.005Z" fill="#2B2419"/>
<path d="M62.194 448.233L59.2642 469.049H109.546C109.546 469.049 98.4631 458.975 89.391 458.641C80.3253 458.307 76.3675 445.547 76.3675 445.547L62.1875 448.233H62.194Z" fill="#2B2419"/>
<path d="M114.005 273.55C114.005 273.55 103.481 362.941 96.7605 385.101C90.04 407.261 81.8802 453.116 81.8802 453.116L59.2578 453.771C59.2578 453.771 63.4855 347.495 55.7112 324.661C47.937 301.826 33.6927 278.324 40.1691 264.889C46.6455 251.461 114.005 273.55 114.005 273.55Z" fill="#342B1E"/>
<path d="M198.693 118.674C205.67 110.438 215.295 118.16 224.142 118.912C223.063 119.934 221.412 120.955 219.188 120.743C219.188 120.743 209.57 117.19 207.02 117.717C204.469 118.244 202.027 130.625 202.027 130.625L210.02 135.816C210.02 135.816 212.127 138.091 211.588 141.522L208.022 142.62C208.022 142.62 203.415 136.639 199.194 137.988C197.787 138.438 196.701 138.9 195.879 139.318C193.161 132.417 193.726 124.2 198.693 118.674Z" fill="#F7C7AC"/>
<path d="M187.552 117.936L202.323 107.649L225.633 117.043C225.633 117.043 225.125 117.981 224.142 118.912C215.295 118.161 205.67 110.438 198.693 118.675C193.726 124.2 193.161 132.424 195.879 139.318C194.227 140.153 193.63 140.815 193.63 140.815L181.294 138.085L187.558 117.936H187.552Z" fill="#F5B591" stroke="#F5B591" stroke-width="0.32125" stroke-miterlimit="10"/>
<path d="M129.174 182.706C144.903 190.178 165.353 184.922 175.004 171.77C177.972 167.825 179.039 163.27 181.242 159.01C183.588 154.307 186.421 149.591 188.573 144.721L193.9 147.143C193.9 147.143 164.274 222.92 97.9744 190.39L92.3525 136.471L97.923 135.443C98.9446 154.442 108.878 173.299 129.174 182.706Z" fill="#C0C2C2"/>
<path d="M133.184 161.984C153.525 165.364 180.343 140.988 180.343 140.988L188.567 144.727C186.415 149.597 183.588 154.313 181.236 159.016C179.033 163.269 177.972 167.831 174.998 171.776C165.347 184.922 144.897 190.184 129.168 182.711C108.872 173.312 98.9386 154.448 97.917 135.449L100.982 134.884C100.982 134.884 112.836 158.605 133.171 161.984H133.184Z" fill="#D2D4D4"/>
<path d="M180.227 134.769L174.361 140.782L191.188 162.672L199.824 144.586C199.824 144.586 191.124 138.514 180.227 134.769Z" fill="#E8E9E9"/>
<path d="M190.931 148.473C190.944 149.173 191.619 149.732 192.448 149.713C193.27 149.7 193.932 149.116 193.919 148.415C193.906 147.715 193.225 147.156 192.403 147.175C191.58 147.188 190.918 147.773 190.931 148.473Z" fill="#A16F0E"/>
<path d="M99.0091 149.63C99.0091 149.63 98.9832 149.604 98.9702 149.63C98.9832 149.604 98.9962 149.656 99.0091 149.63Z" fill="#F7C7AC"/>
<path d="M99.3937 149.63C99.2524 149.932 99.1239 149.393 99.0146 149.63C99.1431 149.36 99.2716 149.894 99.3937 149.63Z" fill="#F7C7AC"/>
<path d="M98.8672 149.63C98.8222 149.726 98.7837 149.546 98.7451 149.63C98.7837 149.546 98.8286 149.72 98.8672 149.63Z" fill="#F7C7AC"/>
<path d="M98.9124 149.63C98.9124 149.63 98.8865 149.604 98.8735 149.63C98.8865 149.597 98.8995 149.662 98.9124 149.63Z" fill="#F7C7AC"/>
<path d="M99.613 149.63C99.5423 149.778 99.4716 149.469 99.3945 149.63C99.4652 149.482 99.5359 149.797 99.613 149.63Z" fill="#F7C7AC"/>
<path d="M99.9281 149.63C99.9281 149.63 99.9021 149.604 99.8892 149.63C99.9021 149.604 99.9151 149.656 99.9281 149.63Z" fill="#F7C7AC"/>
<path d="M100.081 149.63C100.03 149.739 99.9786 149.527 99.9336 149.63C100.03 149.43 100.081 149.63 100.081 149.63Z" fill="#F7C7AC"/>
<path d="M99.8377 149.63C99.8377 149.63 99.8118 149.597 99.7988 149.63C99.8118 149.597 99.8248 149.662 99.8377 149.63Z" fill="#F7C7AC"/>
<path d="M99.7991 149.63C99.7349 149.765 99.6706 149.501 99.6128 149.63C99.677 149.489 99.7413 149.752 99.7991 149.63Z" fill="#F7C7AC"/>
<path d="M99.8893 149.629C99.8698 149.668 99.8569 149.59 99.8374 149.629C99.8569 149.59 99.8763 149.668 99.8893 149.629Z" fill="#F7C7AC"/>
<path d="M98.7459 149.629C98.72 149.694 98.6876 149.571 98.6616 149.629C98.6876 149.571 98.7135 149.694 98.7459 149.629Z" fill="#F7C7AC"/>
<path d="M98.2695 149.63C98.2565 149.662 98.2565 149.662 98.2695 149.63V149.63Z" fill="#F7C7AC"/>
<path d="M98.3154 149.63C98.296 149.669 98.283 149.611 98.27 149.63C98.2765 149.611 98.296 149.675 98.3154 149.63Z" fill="#F7C7AC"/>
<path d="M68.6698 102.746C69.2738 93.186 66.2026 66.0982 66.2026 66.0982C66.2026 66.0982 92.3524 46.624 115.836 55.7989C121.94 64.267 128.024 72.7737 133.929 81.5824C136.293 85.0069 138.426 88.817 138.188 93.5265C138.188 97.8505 136.364 102.611 131.821 102.367C131.558 104.571 130.343 121.584 130.343 121.584C130.041 122.722 129.65 123.846 129.148 124.951C125.775 131.408 118.631 132.456 112.424 131.948C103.95 131.318 99.0472 140.686 93.6631 149.623C93.2069 150.291 92.7507 148.756 92.346 149.623L70.8094 142.344C70.8094 142.344 68.0595 112.307 68.6634 102.746H68.6698Z" fill="#F7C7AC"/>
<path d="M93.6627 149.629C99.0469 140.692 103.949 131.324 112.424 131.954C118.63 132.461 125.775 131.421 129.148 124.957C129.649 123.852 130.041 122.734 130.343 121.59C130.382 119.342 131.557 104.577 131.821 102.373C136.363 102.617 138.188 97.8563 138.188 93.5323C137.713 89.1055 136.293 85.0063 133.928 81.5882C128.024 72.7795 121.939 64.2728 115.835 55.8047C118.939 56.1002 121.329 56.9997 122.575 58.7666L150.28 107.648L136.755 106.928L131.93 140.396C131.93 140.396 103.949 131.318 100.081 149.623H92.3521C92.7504 148.755 93.2066 150.291 93.6692 149.623L93.6627 149.629Z" fill="#F5B591" stroke="#F5B591" stroke-width="0.32125" stroke-miterlimit="10"/>
<path d="M98.6102 149.63C98.5396 149.785 98.4689 149.515 98.4175 149.63C98.4689 149.521 98.5331 149.797 98.6102 149.63Z" fill="#F7C7AC"/>
<path d="M70.8098 142.351C70.8098 142.351 36.5581 185.476 36.1084 270.215C36.1084 270.215 58.2361 290.062 116.1 273.852C116.1 273.852 120.359 221.771 104.503 148.069C104.503 148.069 78.115 152.593 70.8034 142.345L70.8098 142.351Z" fill="#D2D4D4"/>
<path d="M70.8099 137.982L97.5701 143.174V158.163L66.1968 148.07L70.8099 137.982Z" fill="#C0C2C2"/>
<path d="M96.7603 149.631L101.052 160.097C101.226 161.677 100.178 163.393 100.378 165.237C102.356 183.844 105.203 214.53 104.509 231.286L112.9 252.7L122.332 235.006C122.332 235.006 117.301 203.633 108.3 164.145C107.953 162.622 105.749 161.08 105.389 159.532C104.515 155.766 105.46 151.944 104.515 148.069L96.7667 149.631H96.7603Z" fill="#946902"/>
<path d="M178.878 227.257C178.223 225.31 177.85 223.762 177.85 223.762L187.59 214.285H209.423C216.625 214.285 221.72 214.941 221.72 214.941C221.72 214.941 222.016 220.19 216.175 219.824C210.341 219.457 201.475 219.824 201.475 219.824L214.742 223.762L235.482 224.103L221.868 231.838C216.092 234.64 210.174 230.919 201.475 226.011C193.148 221.153 185.952 222.008 178.872 227.257H178.878Z" fill="#F7C7AC"/>
<path d="M202.176 223.98C207.99 226.994 214.859 230.007 221.868 231.838L214.377 236.798C214.377 236.798 189.75 231.401 185.503 234.639C182.663 236.805 180.196 231.202 178.872 227.257C185.952 222.008 193.842 219.129 202.169 223.987L202.176 223.98Z" fill="#F5B591" stroke="#F5B591" stroke-width="0.32125" stroke-miterlimit="10"/>
<path d="M101.354 218.519C108.319 234.941 133.029 249.038 148.668 245.864C153.416 244.964 157.129 242.292 161.505 240.628C166.278 238.732 171.412 237.158 176.141 235.006L178.57 240.486C178.57 240.486 104.483 275.13 79.1812 206.691C63.5235 164.337 86.904 155.76 86.904 155.76L91.7292 158.831C80.312 173.73 92.2239 197.509 101.36 218.519H101.354Z" fill="#C0C2C2"/>
<path d="M123.7 209.73C136.73 226.274 172.395 226.544 172.395 226.544L176.147 235.006C171.419 237.158 166.285 238.732 161.511 240.628C157.136 242.285 153.422 244.965 148.674 245.864C133.036 249.032 106.263 237.82 99.298 221.398C90.1617 200.388 80.3122 173.731 91.723 158.831L94.3765 160.521C94.3765 160.521 110.67 193.186 123.7 209.723V209.73Z" fill="#D2D4D4"/>
<path d="M176.296 221.821L168.059 222.271L166.594 250.219L184.642 242.657C184.642 242.657 182.033 232.127 176.296 221.814V221.821Z" fill="#E8E9E9"/>
<path d="M175.505 239.432C175.061 239.965 175.216 240.846 175.839 241.405C176.468 241.964 177.329 241.983 177.773 241.443C178.216 240.91 178.062 240.023 177.432 239.471C176.809 238.918 175.942 238.899 175.505 239.432Z" fill="#A16F0E"/>
<path d="M66.1967 45.2822C66.1967 45.2822 91.7682 25.1334 116.164 32.5221C140.56 39.9109 126.129 61.4025 138.202 60.7279C138.202 60.7279 121.773 77.3751 105.582 72.0744C89.3909 66.7738 75.6479 69.5366 76.3675 72.1837C77.0871 74.8308 92.3464 98.0443 92.3464 98.0443H86.5768C86.5768 98.0443 80.8328 90.9447 76.3675 94.9731C71.9021 99.0016 72.4097 103.518 76.3675 107.637C80.3253 111.762 73.7782 128.749 73.7782 128.749L66.1967 120.795C66.1967 120.795 57.0089 96.9777 51.175 88.9208C45.3476 80.8638 59.2577 62.7325 59.2577 62.7325C59.2577 62.7325 56.3793 51.4952 66.1967 45.2693V45.2822Z" fill="#DEDACA"/>
<path d="M116.164 90.4318C116.222 90.7787 117.018 90.5281 116.961 90.1555C116.209 85.3817 124.221 84.8549 126.058 88.4272C126.155 88.6135 126.547 88.4786 126.502 88.273C125.487 83.4349 115.316 85.2532 116.164 90.4318Z" fill="#342B1E"/>
<path d="M126.83 77.4266C126.83 77.4266 114.841 71.22 106.417 79.8295C106.417 79.8295 120.347 77.5487 126.83 77.4266Z" fill="#84776B"/>
<path d="M111.788 103.409C111.056 102.825 110.317 102.221 109.546 101.578C109.546 101.578 109.109 111.627 113.542 118.842C113.831 117.551 114.044 116.336 114.044 115.263C113.562 111.402 111.628 107.547 111.788 103.416V103.409Z" fill="#342B1E"/>
<path d="M111.789 103.41C111.634 107.541 113.562 111.402 114.044 115.257C114.044 116.33 113.825 117.551 113.543 118.836C116.068 122.948 120.167 126.135 126.836 126.019L131.366 124.233L133.209 114.904C133.209 114.904 125.589 114.429 111.789 103.403V103.41Z" fill="white"/>
<path d="M403.381 99.0338C403.381 100.698 402.591 102.047 401.614 102.047C400.637 102.047 399.847 100.698 399.847 99.0338C399.847 97.3698 400.637 96.0205 401.614 96.0205C402.591 96.0205 403.381 97.3698 403.381 99.0338Z" fill="#342B1E"/>
<path d="M411.225 104.489C409.002 104.63 406.811 105.144 404.646 105.684C405.141 105.401 405.616 105.093 406.098 104.771C406.285 104.643 406.246 104.424 405.995 104.463C404.531 104.714 403.143 105.17 401.736 105.619C401.273 105.767 400.804 105.896 400.329 106.011C400.701 105.921 401.119 105.472 401.414 105.247C402.153 104.675 402.86 104.071 403.535 103.422C403.663 103.3 403.567 103.178 403.406 103.204C400.663 103.608 397.964 104.726 395.844 106.532C395.683 106.667 395.94 106.725 396.05 106.641C397.701 105.401 399.481 104.489 401.459 103.885C401.935 103.75 402.417 103.641 402.899 103.557C402.924 103.557 402.063 104.341 402.044 104.36C401.286 105.003 400.483 105.587 399.693 106.178C399.538 106.294 399.673 106.435 399.827 106.41C401.035 106.185 402.185 105.806 403.355 105.44C403.997 105.24 404.961 105.112 405.385 104.829C404.627 105.33 403.869 105.767 403.021 106.095C402.783 106.185 402.757 106.513 403.066 106.442C405.758 105.774 408.443 105.273 411.168 104.791C411.341 104.759 411.515 104.469 411.245 104.489H411.225Z" fill="#F5B591" stroke="#F5B591" stroke-width="0.32125" stroke-miterlimit="10"/>
<path d="M400.644 89.2357C400.644 89.2357 406.593 80.1636 417.239 93.1228C417.239 93.1228 406.972 85.8176 400.644 89.2357Z" fill="black"/>
<path d="M393.987 129.533C393.987 129.533 407.267 126.147 415.69 114.903C415.69 114.903 416.063 136.125 397.739 135.444L393.987 129.533Z" fill="white"/>
<defs>
<radialGradient id="paint0_radial_70_7019" cx="0" cy="0" r="1" gradientUnits="userSpaceOnUse" gradientTransform="translate(346.09 188.429) rotate(0.57) scale(21.5946 15.8464)">
<stop offset="0.24" stop-color="#C1421D"/>
<stop offset="0.53" stop-color="#B9002E"/>
<stop offset="0.91" stop-color="#811728"/>
<stop offset="0.98" stop-color="#66141F"/>
</radialGradient>
<radialGradient id="paint1_radial_70_7019" cx="0" cy="0" r="1" gradientUnits="userSpaceOnUse" gradientTransform="translate(248.145 202.775) rotate(159.42) scale(21.4392 15.8464)">
<stop offset="0.24" stop-color="#C1421D"/>
<stop offset="0.53" stop-color="#B9002E"/>
<stop offset="0.91" stop-color="#811728"/>
<stop offset="0.98" stop-color="#66141F"/>
</radialGradient>
</defs>
</svg>
