<svg width="524" height="485" viewBox="0 0 524 485" fill="none" xmlns="http://www.w3.org/2000/svg">
<path d="M168.136 96.4189V90.7194C168.136 88.5821 166.355 86.801 164.217 86.801H155.906C154.125 86.801 152.462 85.4948 152.106 83.7137C151.631 81.5764 151.156 79.5578 150.444 77.5393C149.85 75.8769 150.562 73.9771 152.225 73.0271L159.349 68.8712C161.249 67.8026 161.843 65.309 160.774 63.4092L157.924 58.4221C156.856 56.5223 154.362 55.9286 152.462 56.9972L145.338 61.1531C143.794 62.103 141.776 61.7468 140.588 60.4407C139.163 58.8971 137.738 57.3534 136.076 55.9286C134.77 54.7412 134.414 52.7226 135.364 51.179L139.52 44.0546C140.588 42.1547 139.994 39.7799 138.095 38.5925L133.108 35.7427C131.208 34.6741 128.833 35.2678 127.646 37.1676L123.49 44.292C122.54 45.8357 120.759 46.5481 118.977 46.0731C116.959 45.3607 114.94 44.8857 112.803 44.4108C111.022 44.0546 109.716 42.5109 109.716 40.6111V32.2993C109.716 30.162 107.935 28.3809 105.797 28.3809H100.098C97.9605 28.3809 96.1794 30.162 96.1794 32.2993V40.6111C96.1794 42.3922 94.8733 44.0546 93.0922 44.4108C90.9548 44.8857 88.9362 45.3607 86.9177 46.0731C85.2553 46.6668 83.3555 45.9544 82.4056 44.292L78.2496 37.1676C77.181 35.2678 74.6874 34.6741 72.7876 35.7427L67.8005 38.5925C65.9007 39.6612 65.307 42.1547 66.3756 44.0546L70.5315 51.179C71.4815 52.7226 71.1252 54.7412 69.8191 55.9286C68.2755 57.3534 66.7319 58.7783 65.307 60.4407C64.1196 61.7468 62.101 62.103 60.5574 61.1531L53.433 56.9972C51.5331 55.9286 49.1583 56.5223 47.9709 58.4221L45.1212 63.4092C44.0525 65.309 44.6462 67.6838 46.546 68.8712L53.6705 73.0271C55.2141 73.9771 55.9265 75.7582 55.4516 77.5393C54.7391 79.5578 54.2641 81.5764 53.7892 83.7137C53.433 85.4948 51.8893 86.801 49.9895 86.801H41.6777C39.5404 86.801 37.7593 88.5821 37.7593 90.7194V96.4189C37.7593 98.5563 39.5404 100.337 41.6777 100.337H49.9895C51.7706 100.337 53.433 101.643 53.7892 103.425C54.2641 105.562 54.7391 107.581 55.4516 109.599C56.0453 111.261 55.3328 113.161 53.6705 114.111L46.546 118.267C44.6462 119.336 44.0525 121.829 45.1212 123.729L47.9709 128.716C49.0396 130.616 51.5331 131.21 53.433 130.141L60.5574 125.985C62.101 125.035 64.1196 125.392 65.307 126.698C66.7319 128.241 68.1567 129.785 69.8191 131.21C71.1252 132.397 71.4815 134.416 70.5315 135.959L66.3756 143.084C65.307 144.984 65.9007 147.358 67.8005 148.546L72.7876 151.396C74.6874 152.464 77.0622 151.871 78.2496 149.971L82.4056 142.846C83.3555 141.303 85.1366 140.59 86.9177 141.065C88.9362 141.778 90.9548 142.253 93.0922 142.728C94.8733 143.084 96.1794 144.627 96.1794 146.527V154.839C96.1794 156.976 97.9605 158.757 100.098 158.757H105.797C107.935 158.757 109.716 156.976 109.716 154.839V146.527C109.716 144.746 111.022 143.084 112.803 142.728C114.94 142.253 116.959 141.778 118.977 141.065C120.64 140.472 122.54 141.184 123.49 142.846L127.646 149.971C128.714 151.871 131.208 152.464 133.108 151.396L138.095 148.546C139.994 147.477 140.588 144.984 139.52 143.084L135.364 135.959C134.414 134.416 134.77 132.397 136.076 131.21C137.62 129.785 139.163 128.36 140.588 126.698C141.776 125.392 143.794 125.035 145.338 125.985L152.462 130.141C154.362 131.21 156.737 130.616 157.924 128.716L160.774 123.729C161.843 121.829 161.249 119.455 159.349 118.267L152.225 114.111C150.681 113.161 149.969 111.38 150.444 109.599C151.156 107.581 151.631 105.562 152.106 103.425C152.462 101.643 154.006 100.337 155.906 100.337H164.217C166.355 100.456 168.136 98.675 168.136 96.4189ZM131.089 89.8882C133.464 108.293 117.909 123.848 99.5041 121.473C86.9177 119.929 76.8248 109.718 75.1624 97.1314C72.7876 78.7267 88.3426 63.1717 106.747 65.5465C119.334 67.2089 129.427 77.4205 131.089 89.8882Z" fill="#DBB21F"/>
<path d="M267.996 53.7894V50.5834C267.996 49.396 267.046 48.3274 265.74 48.3274H261.109C260.041 48.3274 259.21 47.6149 258.972 46.665C258.735 45.4776 258.378 44.2902 258.022 43.2215C257.666 42.2716 258.141 41.2029 258.972 40.728L263.009 38.3532C264.078 37.7595 264.434 36.3346 263.84 35.2659L262.297 32.5349C261.703 31.4663 260.278 31.11 259.21 31.7037L255.172 34.0785C254.341 34.5535 253.154 34.4348 252.56 33.6036C251.729 32.6537 250.898 31.8225 250.067 31.11C249.354 30.3976 249.117 29.3289 249.592 28.4978L251.966 24.4606C252.56 23.3919 252.204 22.0858 251.135 21.3734L248.404 19.8297C247.336 19.236 246.029 19.5923 245.317 20.6609L242.942 24.6981C242.467 25.5293 241.399 26.0042 240.449 25.648C239.38 25.2918 238.193 24.9356 237.005 24.6981C236.055 24.4606 235.343 23.6294 235.343 22.5608V17.9299C235.343 16.7425 234.393 15.6738 233.087 15.6738H229.881C228.693 15.6738 227.625 16.6237 227.625 17.9299V22.5608C227.625 23.6294 226.912 24.4606 225.962 24.6981C224.775 24.9356 223.588 25.2918 222.519 25.648C221.569 26.0042 220.5 25.5293 220.025 24.6981L217.651 20.6609C217.057 19.5923 215.632 19.236 214.563 19.8297L211.832 21.3734C210.764 21.9671 210.407 23.3919 211.001 24.4606L213.376 28.4978C213.851 29.3289 213.732 30.5163 212.901 31.11C211.951 31.9412 211.12 32.7724 210.407 33.6036C209.695 34.316 208.626 34.5535 207.795 34.0785L203.758 31.7037C202.689 31.11 201.383 31.4663 200.671 32.5349L199.127 35.2659C198.533 36.3346 198.89 37.6407 199.958 38.3532L203.995 40.728C204.827 41.2029 205.302 42.2716 204.945 43.2215C204.589 44.2902 204.233 45.4776 203.995 46.665C203.758 47.6149 202.927 48.3274 201.858 48.3274H197.227C196.04 48.3274 194.971 49.2773 194.971 50.5834V53.7894C194.971 54.9768 195.921 56.0455 197.227 56.0455H201.858C202.927 56.0455 203.758 56.7579 203.995 57.7078C204.233 58.8952 204.589 60.0826 204.945 61.1513C205.302 62.1012 204.827 63.1699 203.995 63.6448L199.958 66.0196C198.89 66.6133 198.533 68.0382 199.127 69.1069L200.671 71.8379C201.264 72.9065 202.689 73.2628 203.758 72.6691L207.795 70.2943C208.626 69.8193 209.814 69.938 210.407 70.7692C211.239 71.7191 212.07 72.5503 212.901 73.2628C213.613 73.9752 213.851 75.0439 213.376 75.875L211.001 79.9122C210.407 80.9809 210.764 82.287 211.832 82.9995L214.563 84.5431C215.632 85.1368 216.938 84.7806 217.651 83.7119L220.025 79.6747C220.5 78.8435 221.569 78.3686 222.519 78.7248C223.588 79.081 224.775 79.4372 225.962 79.6747C226.912 79.9122 227.625 80.7434 227.625 81.8121V86.4429C227.625 87.6303 228.575 88.699 229.881 88.699H233.087C234.274 88.699 235.343 87.7491 235.343 86.4429V81.8121C235.343 80.7434 236.055 79.9122 237.005 79.6747C238.193 79.4372 239.38 79.081 240.449 78.7248C241.399 78.3686 242.467 78.8435 242.942 79.6747L245.317 83.7119C245.911 84.7806 247.336 85.1368 248.404 84.5431L251.135 82.9995C252.204 82.4058 252.56 80.9809 251.966 79.9122L249.592 75.875C249.117 75.0439 249.235 73.8565 250.067 73.2628C251.017 72.4316 251.848 71.6004 252.56 70.7692C253.273 70.0568 254.341 69.8193 255.172 70.2943L259.21 72.6691C260.278 73.2628 261.584 72.9065 262.297 71.8379L263.84 69.1069C264.434 68.0382 264.078 66.7321 263.009 66.0196L258.972 63.6448C258.141 63.1699 257.666 62.1012 258.022 61.1513C258.378 60.0826 258.735 58.8952 258.972 57.7078C259.21 56.7579 260.041 56.0455 261.109 56.0455H265.74C266.928 56.0455 267.996 55.0955 267.996 53.7894ZM247.217 50.2272C248.523 60.5576 239.855 69.2256 229.525 67.9195C222.519 67.0883 216.819 61.3888 215.869 54.2644C214.563 43.934 223.231 35.2659 233.562 36.5721C240.686 37.522 246.267 43.1028 247.217 50.2272Z" fill="#DBB21F"/>
<path d="M424.878 168.129C429.86 161.952 412.338 139.557 385.743 118.107C359.148 96.6577 333.55 84.2765 328.569 90.453C323.587 96.6296 341.108 119.025 367.703 140.475C394.299 161.924 419.896 174.306 424.878 168.129Z" fill="#684B00"/>
<path d="M292.458 278.803H231.544V348.741H292.458V278.803Z" fill="#6A5302"/>
<path d="M292.458 278.803H231.544V293.052L292.458 309.675V278.803Z" fill="#352600"/>
<path d="M412.861 286.164H111.143C106.631 286.164 103.068 282.483 103.068 278.09V98.5548C103.068 94.0427 106.749 90.4805 111.143 90.4805H412.861C417.373 90.4805 420.936 94.1614 420.936 98.5548V278.09C420.936 282.602 417.373 286.164 412.861 286.164Z" fill="#5F3E00"/>
<path d="M412.861 90.4805H111.142C108.055 90.4805 105.443 92.1428 104.018 94.6364C105.324 93.6865 106.987 93.0928 108.768 93.0928H410.486C414.998 93.0928 418.561 96.7737 418.561 101.167V280.702C418.561 282.127 418.204 283.433 417.492 284.621C419.51 283.196 420.817 280.702 420.817 278.09V98.5548C420.935 94.1614 417.373 90.4805 412.861 90.4805Z" fill="#A57A00"/>
<path d="M414.524 104.492H109.599V264.554H414.524V104.492Z" fill="#DEB95A" fill-opacity="0.66"/>
<path d="M241.401 104.492H109.599V264.554H241.401V104.492Z" fill="#EFD67F"/>
<path d="M231.545 122.539H158.876V124.914H231.545V122.539Z" fill="white"/>
<path d="M231.545 135.365H127.885V137.74H231.545V135.365Z" fill="white"/>
<path d="M231.545 148.188H127.885V150.562H231.545V148.188Z" fill="white"/>
<path d="M231.545 161.129H127.885V163.504H231.545V161.129Z" fill="white"/>
<path d="M231.545 173.955H127.885V176.33H231.545V173.955Z" fill="white"/>
<path d="M231.545 192.834H158.876V195.209H231.545V192.834Z" fill="white"/>
<path d="M231.545 205.66H127.885V208.035H231.545V205.66Z" fill="white"/>
<path d="M231.545 218.48H127.885V220.855H231.545V218.48Z" fill="white"/>
<path d="M231.545 231.307H127.885V233.681H231.545V231.307Z" fill="white"/>
<path d="M231.545 244.129H127.885V246.504H231.545V244.129Z" fill="white"/>
<path d="M111.143 106.155H414.524V104.492H109.599V264.554H111.143V106.155Z" fill="#FFE394"/>
<path d="M420.935 166.83V118.147C415.117 110.785 405.143 99.0298 395.169 90.4805H328.556C329.506 91.0742 388.757 127.29 420.935 166.83Z" fill="#805E00"/>
<path d="M258.737 140.349C264.574 140.349 269.305 135.617 269.305 129.781C269.305 123.944 264.574 119.213 258.737 119.213C252.901 119.213 248.169 123.944 248.169 129.781C248.169 135.617 252.901 140.349 258.737 140.349Z" fill="white"/>
<path d="M258.737 167.425C264.574 167.425 269.305 162.693 269.305 156.857C269.305 151.02 264.574 146.289 258.737 146.289C252.901 146.289 248.169 151.02 248.169 156.857C248.169 162.693 252.901 167.425 258.737 167.425Z" fill="white"/>
<path d="M258.737 221.569C264.574 221.569 269.305 216.838 269.305 211.001C269.305 205.165 264.574 200.434 258.737 200.434C252.901 200.434 248.169 205.165 248.169 211.001C248.169 216.838 252.901 221.569 258.737 221.569Z" fill="white"/>
<path d="M258.737 248.642C264.574 248.642 269.305 243.91 269.305 238.074C269.305 232.237 264.574 227.506 258.737 227.506C252.901 227.506 248.169 232.237 248.169 238.074C248.169 243.91 252.901 248.642 258.737 248.642Z" fill="white"/>
<path d="M260.518 133.939C259.568 134.651 258.262 134.651 257.431 133.82L252.325 129.189C251.85 128.714 251.85 128.002 252.206 127.646C252.681 127.171 253.393 127.171 253.75 127.527L258.618 131.92C258.856 132.039 259.093 132.039 259.33 131.92L270.255 122.777C270.73 122.421 271.442 122.421 271.798 122.896C272.154 123.371 272.154 124.083 271.679 124.44L260.518 133.939Z" fill="#8E6F00"/>
<path d="M260.518 160.779C259.568 161.491 258.262 161.491 257.431 160.66L252.325 156.029C251.85 155.554 251.85 154.842 252.207 154.486C252.682 154.011 253.394 154.011 253.75 154.367L258.619 158.76C258.856 158.879 259.093 158.879 259.331 158.76L270.255 149.617C270.73 149.261 271.442 149.261 271.799 149.736C272.155 150.211 272.155 150.923 271.68 151.28L260.518 160.779Z" fill="#8E6F00"/>
<path d="M260.518 214.449C259.568 215.161 258.262 215.161 257.431 214.33L252.325 209.699C251.85 209.224 251.85 208.512 252.207 208.155C252.682 207.681 253.394 207.681 253.75 208.037L258.619 212.43C258.856 212.549 259.093 212.549 259.331 212.43L270.255 203.287C270.73 202.931 271.442 202.931 271.799 203.406C272.155 203.881 272.155 204.593 271.68 204.949L260.518 214.449Z" fill="#8E6F00"/>
<path d="M260.518 241.398C259.568 242.11 258.262 242.11 257.431 241.279L252.325 236.648C251.85 236.173 251.85 235.461 252.207 235.105C252.682 234.63 253.394 234.63 253.75 234.986L258.619 239.379C258.856 239.498 259.093 239.498 259.331 239.379L270.255 230.236C270.73 229.88 271.442 229.88 271.799 230.355C272.155 230.83 272.155 231.542 271.68 231.899L260.518 241.398Z" fill="#8E6F00"/>
<path d="M366.789 356.576H157.212C157.212 348.027 164.218 341.021 172.767 341.021H351.115C359.783 341.021 366.789 348.027 366.789 356.576Z" fill="#6A5302"/>
<path d="M172.887 344.347H351.234C358.715 344.347 365.008 349.571 366.433 356.696H366.789C366.789 348.146 359.783 341.141 351.234 341.141H172.887C164.337 341.141 157.332 348.146 157.332 356.696H157.688C159.113 349.571 165.406 344.347 172.887 344.347Z" fill="#886400"/>
<path d="M287.796 132.104C287.73 132.039 287.609 131.95 287.432 131.838C287.264 131.726 287.054 131.619 286.802 131.516C286.559 131.404 286.293 131.311 286.004 131.236C285.715 131.161 285.421 131.124 285.122 131.124C284.59 131.124 284.193 131.222 283.932 131.418C283.671 131.614 283.54 131.889 283.54 132.244C283.54 132.449 283.587 132.622 283.68 132.762C283.783 132.893 283.927 133.009 284.114 133.112C284.301 133.215 284.534 133.308 284.814 133.392C285.103 133.476 285.435 133.565 285.808 133.658C286.293 133.789 286.732 133.929 287.124 134.078C287.525 134.227 287.861 134.414 288.132 134.638C288.412 134.862 288.626 135.132 288.776 135.45C288.925 135.758 289 136.14 289 136.598C289 137.13 288.897 137.587 288.692 137.97C288.496 138.343 288.225 138.646 287.88 138.879C287.544 139.113 287.152 139.285 286.704 139.397C286.265 139.5 285.803 139.551 285.318 139.551C284.571 139.551 283.834 139.439 283.106 139.215C282.378 138.991 281.725 138.674 281.146 138.264L282 136.598C282.084 136.682 282.234 136.794 282.448 136.934C282.672 137.064 282.934 137.2 283.232 137.34C283.531 137.47 283.862 137.582 284.226 137.676C284.59 137.769 284.963 137.816 285.346 137.816C286.41 137.816 286.942 137.475 286.942 136.794C286.942 136.579 286.881 136.397 286.76 136.248C286.639 136.098 286.466 135.968 286.242 135.856C286.018 135.744 285.747 135.641 285.43 135.548C285.113 135.454 284.758 135.352 284.366 135.24C283.89 135.109 283.475 134.969 283.12 134.82C282.775 134.661 282.486 134.479 282.252 134.274C282.019 134.059 281.842 133.817 281.72 133.546C281.608 133.266 281.552 132.935 281.552 132.552C281.552 132.048 281.646 131.6 281.832 131.208C282.019 130.816 282.276 130.49 282.602 130.228C282.938 129.967 283.326 129.771 283.764 129.64C284.203 129.5 284.674 129.43 285.178 129.43C285.878 129.43 286.522 129.542 287.11 129.766C287.698 129.981 288.211 130.238 288.65 130.536L287.796 132.104ZM289.858 134.4C289.858 133.793 289.965 133.196 290.18 132.608C290.404 132.011 290.726 131.479 291.145 131.012C291.565 130.546 292.079 130.168 292.685 129.878C293.292 129.589 293.983 129.444 294.757 129.444C295.672 129.444 296.46 129.645 297.123 130.046C297.795 130.448 298.294 130.97 298.621 131.614L297.137 132.636C297.006 132.356 296.848 132.123 296.661 131.936C296.474 131.74 296.274 131.586 296.059 131.474C295.844 131.362 295.62 131.283 295.387 131.236C295.154 131.18 294.925 131.152 294.701 131.152C294.216 131.152 293.791 131.25 293.427 131.446C293.073 131.642 292.774 131.899 292.531 132.216C292.298 132.524 292.121 132.879 291.999 133.28C291.878 133.672 291.817 134.064 291.817 134.456C291.817 134.894 291.887 135.319 292.027 135.73C292.167 136.131 292.363 136.486 292.615 136.794C292.877 137.102 293.185 137.349 293.539 137.536C293.903 137.722 294.3 137.816 294.729 137.816C294.953 137.816 295.186 137.788 295.429 137.732C295.672 137.676 295.9 137.587 296.115 137.466C296.339 137.344 296.544 137.19 296.731 137.004C296.918 136.808 297.067 136.574 297.179 136.304L298.761 137.214C298.602 137.587 298.374 137.918 298.075 138.208C297.786 138.488 297.454 138.726 297.081 138.921C296.717 139.117 296.325 139.267 295.905 139.369C295.485 139.472 295.074 139.523 294.673 139.523C293.964 139.523 293.315 139.374 292.727 139.075C292.139 138.777 291.631 138.39 291.201 137.914C290.782 137.428 290.45 136.882 290.208 136.276C289.974 135.66 289.858 135.034 289.858 134.4ZM308.414 129.5V139.439H306.496V135.198H301.988V139.439H300.056V129.5H301.988V133.518H306.496V129.5H308.414ZM314.729 139.509C314.001 139.509 313.338 139.369 312.741 139.089C312.153 138.8 311.644 138.422 311.215 137.956C310.795 137.48 310.469 136.938 310.235 136.332C310.002 135.725 309.885 135.104 309.885 134.47C309.885 133.807 310.007 133.173 310.249 132.566C310.501 131.959 310.842 131.423 311.271 130.956C311.71 130.49 312.228 130.121 312.825 129.85C313.422 129.57 314.071 129.43 314.771 129.43C315.489 129.43 316.143 129.58 316.731 129.878C317.328 130.168 317.837 130.55 318.257 131.026C318.677 131.502 319.003 132.043 319.236 132.65C319.47 133.257 319.586 133.873 319.586 134.498C319.586 135.16 319.465 135.795 319.222 136.402C318.98 136.999 318.644 137.531 318.215 137.998C317.785 138.455 317.272 138.824 316.675 139.103C316.077 139.374 315.429 139.509 314.729 139.509ZM311.845 134.47C311.845 134.899 311.91 135.314 312.041 135.716C312.172 136.117 312.358 136.472 312.601 136.78C312.853 137.088 313.156 137.335 313.511 137.522C313.875 137.708 314.286 137.802 314.743 137.802C315.209 137.802 315.62 137.708 315.975 137.522C316.339 137.326 316.642 137.069 316.885 136.752C317.137 136.434 317.323 136.08 317.445 135.688C317.575 135.286 317.641 134.88 317.641 134.47C317.641 134.041 317.571 133.625 317.431 133.224C317.3 132.823 317.109 132.468 316.857 132.16C316.614 131.852 316.311 131.609 315.947 131.432C315.592 131.245 315.191 131.152 314.743 131.152C314.276 131.152 313.861 131.25 313.497 131.446C313.133 131.633 312.83 131.885 312.587 132.202C312.344 132.51 312.158 132.865 312.027 133.266C311.906 133.658 311.845 134.059 311.845 134.47ZM321.068 139.439V129.5H323V137.746H328.068V139.439H321.068ZM332.856 139.509C332.128 139.509 331.466 139.369 330.868 139.089C330.281 138.8 329.772 138.422 329.343 137.956C328.923 137.48 328.596 136.938 328.363 136.332C328.129 135.725 328.013 135.104 328.013 134.47C328.013 133.807 328.134 133.173 328.377 132.566C328.629 131.959 328.969 131.423 329.399 130.956C329.837 130.49 330.355 130.121 330.952 129.85C331.55 129.57 332.198 129.43 332.898 129.43C333.617 129.43 334.27 129.58 334.858 129.878C335.455 130.168 335.964 130.55 336.384 131.026C336.804 131.502 337.131 132.043 337.364 132.65C337.597 133.257 337.714 133.873 337.714 134.498C337.714 135.16 337.593 135.795 337.35 136.402C337.107 136.999 336.771 137.531 336.342 137.998C335.913 138.455 335.399 138.824 334.802 139.103C334.205 139.374 333.556 139.509 332.856 139.509ZM329.973 134.47C329.973 134.899 330.038 135.314 330.169 135.716C330.299 136.117 330.486 136.472 330.728 136.78C330.98 137.088 331.284 137.335 331.638 137.522C332.002 137.708 332.413 137.802 332.87 137.802C333.337 137.802 333.748 137.708 334.102 137.522C334.466 137.326 334.769 137.069 335.012 136.752C335.264 136.434 335.451 136.08 335.572 135.688C335.703 135.286 335.768 134.88 335.768 134.47C335.768 134.041 335.698 133.625 335.558 133.224C335.427 132.823 335.236 132.468 334.984 132.16C334.741 131.852 334.438 131.609 334.074 131.432C333.72 131.245 333.318 131.152 332.87 131.152C332.404 131.152 331.988 131.25 331.624 131.446C331.26 131.633 330.957 131.885 330.714 132.202C330.472 132.51 330.285 132.865 330.155 133.266C330.033 133.658 329.973 134.059 329.973 134.47ZM339.196 139.439V129.5H343.591C344.049 129.5 344.469 129.598 344.851 129.794C345.243 129.981 345.579 130.233 345.859 130.55C346.139 130.858 346.359 131.213 346.517 131.614C346.676 132.006 346.755 132.403 346.755 132.804C346.755 133.448 346.592 134.036 346.265 134.568C345.948 135.09 345.514 135.468 344.963 135.702L347.231 139.439H345.061L343.031 136.108H341.128V139.439H339.196ZM341.128 134.414H343.549C343.727 134.414 343.89 134.372 344.039 134.288C344.198 134.204 344.333 134.092 344.445 133.952C344.557 133.803 344.646 133.63 344.711 133.434C344.777 133.238 344.809 133.028 344.809 132.804C344.809 132.571 344.772 132.356 344.697 132.16C344.623 131.964 344.52 131.796 344.389 131.656C344.268 131.507 344.123 131.395 343.955 131.32C343.797 131.236 343.633 131.194 343.465 131.194H341.128V134.414ZM354.427 132.104C354.362 132.039 354.24 131.95 354.063 131.838C353.895 131.726 353.685 131.619 353.433 131.516C353.191 131.404 352.925 131.311 352.635 131.236C352.346 131.161 352.052 131.124 351.753 131.124C351.221 131.124 350.825 131.222 350.563 131.418C350.302 131.614 350.171 131.889 350.171 132.244C350.171 132.449 350.218 132.622 350.311 132.762C350.414 132.893 350.559 133.009 350.745 133.112C350.932 133.215 351.165 133.308 351.445 133.392C351.735 133.476 352.066 133.565 352.439 133.658C352.925 133.789 353.363 133.929 353.755 134.078C354.156 134.227 354.492 134.414 354.763 134.638C355.043 134.862 355.258 135.132 355.407 135.45C355.556 135.758 355.631 136.14 355.631 136.598C355.631 137.13 355.528 137.587 355.323 137.97C355.127 138.343 354.856 138.646 354.511 138.879C354.175 139.113 353.783 139.285 353.335 139.397C352.897 139.5 352.435 139.551 351.949 139.551C351.203 139.551 350.465 139.439 349.737 139.215C349.01 138.991 348.356 138.674 347.778 138.264L348.632 136.598C348.716 136.682 348.865 136.794 349.08 136.934C349.304 137.064 349.565 137.2 349.863 137.34C350.162 137.47 350.493 137.582 350.857 137.676C351.221 137.769 351.595 137.816 351.977 137.816C353.041 137.816 353.573 137.475 353.573 136.794C353.573 136.579 353.513 136.397 353.391 136.248C353.27 136.098 353.097 135.968 352.873 135.856C352.649 135.744 352.379 135.641 352.061 135.548C351.744 135.454 351.389 135.352 350.997 135.24C350.521 135.109 350.106 134.969 349.751 134.82C349.406 134.661 349.117 134.479 348.884 134.274C348.65 134.059 348.473 133.817 348.352 133.546C348.24 133.266 348.184 132.935 348.184 132.552C348.184 132.048 348.277 131.6 348.464 131.208C348.65 130.816 348.907 130.49 349.234 130.228C349.57 129.967 349.957 129.771 350.395 129.64C350.834 129.5 351.305 129.43 351.809 129.43C352.509 129.43 353.153 129.542 353.741 129.766C354.329 129.981 354.842 130.238 355.281 130.536L354.427 132.104ZM365.448 129.5V139.439H363.53V135.198H359.023V139.439H357.091V129.5H359.023V133.518H363.53V129.5H365.448ZM367.522 139.439V129.5H369.453V139.439H367.522ZM371.527 139.439V129.5H375.741C376.198 129.5 376.618 129.598 377.001 129.794C377.393 129.981 377.729 130.233 378.009 130.55C378.289 130.858 378.508 131.213 378.667 131.614C378.825 132.006 378.905 132.403 378.905 132.804C378.905 133.224 378.83 133.635 378.681 134.036C378.531 134.428 378.321 134.778 378.051 135.086C377.78 135.394 377.453 135.641 377.071 135.828C376.688 136.014 376.268 136.108 375.811 136.108H373.459V139.439H371.527ZM373.459 134.414H375.699C376.053 134.414 376.347 134.269 376.581 133.98C376.823 133.691 376.945 133.299 376.945 132.804C376.945 132.552 376.907 132.328 376.833 132.132C376.758 131.927 376.66 131.754 376.539 131.614C376.417 131.474 376.273 131.371 376.105 131.306C375.946 131.231 375.783 131.194 375.615 131.194H373.459V134.414Z" fill="white"/>
<path d="M287.393 146.165H284.934V152.547H283.45V146.165H280.99V144.854H287.393V146.165ZM293.69 151.236V152.547H288.348V144.854H293.592V146.165H289.844V148.018H293.083V149.231H289.844V151.236H293.69ZM294.856 152.547V144.854H298.258C298.612 144.854 298.937 144.93 299.233 145.082C299.536 145.226 299.796 145.421 300.013 145.667C300.23 145.905 300.399 146.18 300.522 146.49C300.645 146.794 300.706 147.101 300.706 147.411C300.706 147.91 300.58 148.365 300.327 148.776C300.082 149.181 299.746 149.473 299.32 149.654L301.075 152.547H299.395L297.824 149.968H296.351V152.547H294.856ZM296.351 148.657H298.225C298.363 148.657 298.489 148.625 298.604 148.56C298.727 148.495 298.832 148.408 298.919 148.3C299.005 148.184 299.074 148.05 299.125 147.899C299.175 147.747 299.2 147.585 299.2 147.411C299.2 147.231 299.172 147.064 299.114 146.913C299.056 146.761 298.976 146.631 298.875 146.523C298.781 146.407 298.669 146.32 298.539 146.263C298.417 146.198 298.29 146.165 298.16 146.165H296.351V148.657ZM308.335 152.547V147.455L306.352 151.247H305.539L303.556 147.455V152.547H302.061V144.854H303.665L305.94 149.231L308.237 144.854H309.83V152.547H308.335ZM316.019 146.869C315.968 146.819 315.874 146.75 315.737 146.664C315.607 146.577 315.445 146.494 315.25 146.414C315.062 146.328 314.856 146.255 314.632 146.198C314.408 146.14 314.181 146.111 313.95 146.111C313.538 146.111 313.231 146.187 313.029 146.339C312.826 146.49 312.725 146.703 312.725 146.978C312.725 147.137 312.761 147.27 312.834 147.379C312.913 147.48 313.025 147.57 313.169 147.65C313.314 147.729 313.494 147.801 313.711 147.866C313.935 147.931 314.191 148 314.48 148.072C314.856 148.173 315.196 148.282 315.499 148.397C315.809 148.513 316.07 148.657 316.279 148.831C316.496 149.004 316.662 149.213 316.777 149.459C316.893 149.697 316.951 149.993 316.951 150.347C316.951 150.759 316.871 151.113 316.712 151.409C316.561 151.698 316.351 151.933 316.084 152.113C315.824 152.294 315.521 152.428 315.174 152.514C314.834 152.594 314.477 152.634 314.101 152.634C313.523 152.634 312.953 152.547 312.389 152.374C311.826 152.2 311.32 151.955 310.872 151.637L311.533 150.347C311.598 150.412 311.714 150.499 311.88 150.607C312.053 150.709 312.256 150.813 312.487 150.922C312.718 151.023 312.974 151.109 313.256 151.182C313.538 151.254 313.827 151.29 314.123 151.29C314.946 151.29 315.358 151.026 315.358 150.499C315.358 150.333 315.311 150.192 315.217 150.077C315.123 149.961 314.99 149.86 314.816 149.773C314.643 149.686 314.433 149.607 314.188 149.535C313.942 149.463 313.668 149.383 313.364 149.296C312.996 149.195 312.675 149.087 312.4 148.971C312.133 148.849 311.909 148.708 311.728 148.549C311.548 148.383 311.411 148.195 311.317 147.985C311.23 147.769 311.187 147.512 311.187 147.216C311.187 146.826 311.259 146.479 311.403 146.176C311.548 145.873 311.746 145.62 311.999 145.418C312.259 145.215 312.559 145.064 312.899 144.963C313.238 144.854 313.603 144.8 313.993 144.8C314.535 144.8 315.033 144.887 315.488 145.06C315.943 145.226 316.34 145.425 316.68 145.656L316.019 146.869Z" fill="white"/>
<path d="M372.012 223.352C372.012 223.352 319.054 196.398 308.486 166.595C300.412 158.639 285.57 165.763 281.889 174.194C277.139 185.118 280.226 192.955 286.163 195.448C296.256 199.604 330.572 233.208 337.815 246.15C342.684 256.125 355.389 258.143 364.888 252.088C374.387 245.913 380.918 230.596 372.012 223.352Z" fill="#E5E5E5"/>
<path d="M357.645 238.907L350.521 231.902C350.521 231.902 354.677 226.915 359.545 225.371C364.176 229.052 368.451 234.514 368.451 234.514C368.451 234.514 367.382 232.377 364.414 231.427C361.445 230.358 357.17 232.852 357.645 238.907Z" fill="#EFEFEF"/>
<path d="M289.369 162.676C289.369 162.676 320.598 208.509 352.658 225.371C341.496 231.308 337.222 247.219 343.752 252.681C338.646 249.356 335.44 244.369 332.116 239.026C328.672 233.801 318.817 222.758 312.049 216.228C305.399 209.697 287.232 195.923 279.514 193.073C273.577 187.136 274.883 180.487 276.308 175.618C277.851 170.75 282.839 164.101 289.369 162.676Z" fill="#EFEFEF"/>
<path d="M343.278 205.54C343.278 205.54 339.359 202.334 333.185 203.759C327.01 205.303 321.905 210.171 320.836 215.396C319.767 220.62 320.717 223.232 322.261 227.032C313.83 218.127 305.281 210.409 305.281 210.409C305.281 210.409 302.669 203.284 308.012 196.991C313.355 190.698 321.548 189.985 327.604 192.835C328.435 193.191 343.278 205.54 343.278 205.54Z" fill="#6A4E00"/>
<path d="M328.563 201.516C329.22 198.437 326.165 195.176 321.739 194.232C317.314 193.287 313.194 195.017 312.537 198.096C311.88 201.174 314.935 204.435 319.36 205.38C323.786 206.324 327.906 204.594 328.563 201.516Z" fill="#B38400"/>
<path d="M326.508 200.613C327 198.304 324.748 195.866 321.477 195.168C318.206 194.47 315.155 195.776 314.663 198.085C314.17 200.394 316.422 202.831 319.693 203.529C322.964 204.227 326.015 202.922 326.508 200.613Z" fill="#FFE394"/>
<path d="M348.264 254.697C362.869 257.785 369.4 248.76 369.875 248.048C370.35 247.692 375.1 243.773 376.287 234.512C376.881 230.118 376.05 226.912 374.031 224.775C372.25 222.994 369.4 222.163 366.194 222.638C361.801 223.231 353.37 226.912 348.739 233.443C347.908 234.63 347.196 235.818 346.721 237.005C344.821 241.399 344.702 244.961 346.246 247.454C347.552 249.473 349.927 250.66 353.014 250.66C359.307 250.779 366.788 247.098 368.688 239.736C369.519 236.411 368.688 233.562 366.432 231.899C364.769 230.593 362.513 230.237 361.207 231.068C358.476 232.731 357.289 235.224 357.645 238.786H358.239C357.882 235.343 358.951 233.087 361.563 231.543C362.513 230.949 364.532 231.187 366.194 232.374C367.382 233.324 369.281 235.462 368.213 239.617C366.432 246.742 359.307 250.304 353.133 250.067C350.283 249.948 348.027 248.879 346.84 247.098C345.415 244.723 345.533 241.399 347.315 237.243C347.79 236.055 348.502 234.868 349.333 233.68C353.964 227.268 362.038 223.588 366.432 223.113C369.4 222.756 372.012 223.469 373.794 225.131C375.693 227.031 376.406 230.237 375.931 234.393C374.744 243.773 369.756 247.573 369.756 247.573L369.638 247.692C369.519 247.811 363.344 257.31 348.621 254.104C348.383 254.104 348.146 253.985 347.908 253.985C341.734 252.56 341.021 246.742 341.14 243.536C341.259 240.924 343.515 230.237 353.014 225.725L352.777 225.25C343.99 229.525 340.784 239.38 340.665 243.536C340.546 246.979 341.259 253.154 347.908 254.579C347.79 254.579 348.027 254.697 348.264 254.697Z" fill="#C6C6C6"/>
<path d="M348.858 182.27V286.167H412.859C417.371 286.167 420.934 282.486 420.934 278.093V182.27H348.858Z" fill="#E2E2E2"/>
<path d="M490.397 176.926H357.526V358.123H490.397V176.926Z" fill="white"/>
<path d="M479.473 188.918H368.569V346.249H479.473V188.918Z" fill="#FFE394"/>
<path d="M390.299 309.676L392.318 313.713L396.83 314.425L393.624 317.513L394.336 321.906L390.299 319.887L386.381 321.906L387.093 317.513L383.887 314.425L388.399 313.713L390.299 309.676Z" fill="#AA7E00"/>
<path d="M407.16 309.676L409.179 313.713L413.572 314.425L410.366 317.513L411.079 321.906L407.16 319.887L403.123 321.906L403.955 317.513L400.749 314.425L405.142 313.713L407.16 309.676Z" fill="#AA7E00"/>
<path d="M423.903 309.676L425.921 313.713L430.315 314.425L427.109 317.513L427.94 321.906L423.903 319.887L419.984 321.906L420.697 317.513L417.491 314.425L422.003 313.713L423.903 309.676Z" fill="#AA7E00"/>
<path d="M440.764 309.676L442.663 313.713L447.176 314.425L443.97 317.513L444.682 321.906L440.764 319.887L436.726 321.906L437.558 317.513L434.233 314.425L438.745 313.713L440.764 309.676Z" fill="#AA7E00"/>
<path d="M457.506 309.676L459.524 313.713L463.918 314.425L460.712 317.513L461.543 321.906L457.506 319.887L453.587 321.906L454.3 317.513L451.094 314.425L455.487 313.713L457.506 309.676Z" fill="#AA7E00"/>
<path d="M459.287 229.887H388.518V230.955H459.287V229.887Z" fill="white"/>
<path d="M459.287 237.246H388.518V238.315H459.287V237.246Z" fill="white"/>
<path d="M459.287 244.729H388.518V245.797H459.287V244.729Z" fill="white"/>
<path d="M459.287 252.088H388.518V253.157H459.287V252.088Z" fill="white"/>
<path d="M459.287 259.451H388.518V260.52H459.287V259.451Z" fill="white"/>
<path d="M459.287 266.928H388.518V267.996H459.287V266.928Z" fill="white"/>
<path d="M459.287 274.295H388.518V275.364H459.287V274.295Z" fill="white"/>
<path d="M459.287 281.654H388.518V282.723H459.287V281.654Z" fill="white"/>
<path d="M459.287 289.137H388.518V290.205H459.287V289.137Z" fill="white"/>
<path d="M459.287 296.498H388.518V297.567H459.287V296.498Z" fill="white"/>
<path d="M459.287 303.861H388.518V304.93H459.287V303.861Z" fill="white"/>
<path d="M500.846 359.19H467.836V354.44C467.836 345.297 475.198 337.936 484.341 337.936C493.484 337.936 500.846 345.297 500.846 354.44V359.19Z" fill="#684B00"/>
<path d="M484.341 345.178C483.154 345.178 482.085 344.228 482.085 342.922V338.885C482.085 337.698 483.035 336.629 484.341 336.629C485.528 336.629 486.597 337.579 486.597 338.885V342.922C486.478 344.11 485.528 345.178 484.341 345.178Z" fill="#896B00"/>
<path d="M227.15 349.691H217.294V346.723C217.294 346.129 217.769 345.535 218.482 345.535H226.081C226.675 345.535 227.269 346.01 227.269 346.723V349.691H227.15Z" fill="#FFE394"/>
<path d="M238.549 349.691H228.575V346.723C228.575 346.129 229.05 345.535 229.762 345.535H237.361C237.955 345.535 238.549 346.01 238.549 346.723V349.691Z" fill="#FFE394"/>
<path d="M249.948 349.691H239.974V346.723C239.974 346.129 240.449 345.535 241.161 345.535H248.76C249.354 345.535 249.948 346.01 249.948 346.723V349.691Z" fill="#FFE394"/>
<path d="M261.228 349.691H251.254V346.723C251.254 346.129 251.729 345.535 252.441 345.535H260.041C260.634 345.535 261.228 346.01 261.228 346.723V349.691Z" fill="#FFE394"/>
<path d="M272.627 349.691H262.653V346.723C262.653 346.129 263.128 345.535 263.84 345.535H271.44C272.033 345.535 272.627 346.01 272.627 346.723V349.691Z" fill="#FFE394"/>
<path d="M283.907 349.691H273.933V346.723C273.933 346.129 274.408 345.535 275.121 345.535H282.72C283.314 345.535 283.907 346.01 283.907 346.723V349.691Z" fill="#FFE394"/>
<path d="M295.306 349.691H285.332V346.723C285.332 346.129 285.807 345.535 286.519 345.535H294.119C294.712 345.535 295.306 346.01 295.306 346.723V349.691Z" fill="#FFE394"/>
<path d="M306.586 349.691H296.612V346.723C296.612 346.129 297.087 345.535 297.8 345.535H305.399C305.993 345.535 306.586 346.01 306.586 346.723V349.691Z" fill="#FFE394"/>
<path d="M317.986 349.691H308.012V346.723C308.012 346.129 308.487 345.535 309.199 345.535H316.798C317.392 345.535 317.986 346.01 317.986 346.723V349.691Z" fill="#FFE394"/>
<path d="M329.266 349.691H319.411V346.723C319.411 346.129 319.886 345.535 320.598 345.535H328.197C328.791 345.535 329.385 346.01 329.385 346.723V349.691H329.266Z" fill="#FFE394"/>
<path d="M340.665 349.691H330.691V346.723C330.691 346.129 331.166 345.535 331.878 345.535H339.478C340.071 345.535 340.665 346.01 340.665 346.723V349.691Z" fill="#FFE394"/>
<path d="M352.064 349.691H342.09V346.723C342.09 346.129 342.565 345.535 343.278 345.535H350.877C351.471 345.535 352.064 346.01 352.064 346.723V349.691Z" fill="#FFE394"/>
<path d="M363.345 349.691H353.371V346.723C353.371 346.129 353.846 345.535 354.558 345.535H362.157C362.751 345.535 363.345 346.01 363.345 346.723V349.691Z" fill="#FFE394"/>
<path d="M374.743 349.691H364.769V346.723C364.769 346.129 365.244 345.535 365.956 345.535H373.556C374.15 345.535 374.743 346.01 374.743 346.723V349.691Z" fill="#FFE394"/>
<path d="M386.023 349.691H376.049V346.723C376.049 346.129 376.524 345.535 377.237 345.535H384.836C385.43 345.535 386.023 346.01 386.023 346.723V349.691Z" fill="#FFE394"/>
<path d="M397.423 349.691H387.449V346.723C387.449 346.129 387.924 345.535 388.636 345.535H396.236C396.829 345.535 397.423 346.01 397.423 346.723V349.691Z" fill="#FFE394"/>
<path d="M408.703 349.691H398.729V346.723C398.729 346.129 399.204 345.535 399.916 345.535H407.516C408.109 345.535 408.703 346.01 408.703 346.723V349.691Z" fill="#FFE394"/>
<path d="M420.102 349.691H410.128V346.723C410.128 346.129 410.603 345.535 411.315 345.535H418.915C419.508 345.535 420.102 346.01 420.102 346.723V349.691Z" fill="#FFE394"/>
<path d="M426.514 348.623H214.801V356.579H426.514V348.623Z" fill="#896B00"/>
<path d="M129.902 91.6683C129.902 94.6368 134.533 97.1303 135.126 99.9801C135.839 102.83 132.752 107.104 133.939 109.717C135.245 112.329 140.47 112.567 142.251 114.823C144.032 117.079 143.082 122.303 145.457 124.084C147.713 125.865 152.462 123.847 155.193 125.153V156.025L171.461 149.02L187.728 156.025V128.359V125.153C190.459 124.084 194.971 125.984 197.227 124.203C199.484 122.422 198.534 117.197 200.433 114.941C202.215 112.685 207.439 112.448 208.745 109.835C210.051 107.223 206.964 102.949 207.558 100.099C208.152 97.2491 212.782 94.8743 212.782 91.787C212.782 91.4308 212.664 91.0746 212.545 90.5996H129.902C130.021 90.8371 129.902 91.1933 129.902 91.6683Z" fill="black" fill-opacity="0.17"/>
<path d="M184.523 150.563L168.255 143.557L151.988 150.563V110.072H184.523V150.563Z" fill="#6A4E00"/>
<path d="M151.988 123.015C154.6 124.321 156.025 129.308 158.875 130.021C161.724 130.614 165.049 126.696 168.136 126.696C171.105 126.696 174.548 130.614 177.398 130.021C180.248 129.308 181.673 124.321 184.285 123.015C184.404 123.015 184.404 123.015 184.523 122.896V110.072H151.988V123.015Z" fill="#8D6B0A"/>
<path d="M209.695 86.2059C209.695 89.1744 205.064 91.668 204.47 94.5177C203.758 97.3675 206.845 101.642 205.658 104.254C204.352 106.867 199.127 107.104 197.346 109.36C195.565 111.616 196.515 116.841 194.14 118.622C191.884 120.403 187.016 118.384 184.403 119.691C181.791 120.997 180.366 125.984 177.516 126.696C174.667 127.29 171.342 123.372 168.255 123.372C165.286 123.372 161.843 127.29 158.993 126.696C156.143 125.984 154.718 120.997 152.106 119.691C149.494 118.384 144.625 120.522 142.369 118.622C140.113 116.841 141.063 111.616 139.163 109.36C137.382 107.104 132.158 106.867 130.852 104.254C129.545 101.642 132.633 97.3675 132.039 94.5177C131.445 91.668 126.814 89.2932 126.814 86.2059C126.814 83.2374 131.445 80.7439 132.039 77.8941C132.751 75.0443 129.664 70.7697 130.852 68.1574C132.158 65.5451 137.382 65.3077 139.163 63.0516C140.945 60.7955 139.995 55.571 142.369 53.7899C144.625 52.0088 149.494 54.0273 152.106 52.7212C154.718 51.4151 156.143 46.428 158.993 45.7155C161.843 45.1218 165.167 49.0403 168.255 49.0403C171.223 49.0403 174.667 45.1218 177.516 45.7155C180.366 46.428 181.791 51.4151 184.403 52.7212C187.016 54.0273 191.884 51.89 194.14 53.7899C196.396 55.571 195.446 60.7955 197.346 63.0516C199.127 65.3077 204.352 65.5451 205.658 68.1574C206.964 70.7697 203.877 75.0443 204.47 77.8941C205.064 80.7439 209.695 83.2374 209.695 86.2059Z" fill="#7D5D00"/>
<path d="M168.137 117.196C184.072 117.196 196.99 104.278 196.99 88.3421C196.99 72.4066 184.072 59.4883 168.137 59.4883C152.201 59.4883 139.283 72.4066 139.283 88.3421C139.283 104.278 152.201 117.196 168.137 117.196Z" fill="#E29700"/>
<path d="M168.137 115.059C184.072 115.059 196.99 102.141 196.99 86.2054C196.99 70.2699 184.072 57.3516 168.137 57.3516C152.201 57.3516 139.283 70.2699 139.283 86.2054C139.283 102.141 152.201 115.059 168.137 115.059Z" fill="#FFE394"/>
<path d="M168.136 57.3516C164.93 57.3516 161.724 57.9453 158.874 58.8952C157.212 62.1012 156.262 65.7821 156.262 69.7005C156.262 82.9994 167.067 93.8048 180.366 93.8048C186.778 93.8048 192.596 91.3112 196.871 87.1553C196.871 86.7991 196.871 86.4429 196.871 86.0867C196.99 70.2942 184.047 57.3516 168.136 57.3516Z" fill="#FFE394"/>
<path d="M168.136 64.7129L170.392 71.4811H177.398L171.698 75.5182L173.836 82.2864L168.136 78.1305L162.437 82.2864L164.693 75.5182L158.993 71.4811H165.999L168.136 64.7129Z" fill="#7D5D00"/>
<path d="M190.341 80.3896C190.578 81.6958 189.51 82.4082 189.51 82.4082C189.51 82.4082 188.322 82.052 188.085 80.7458C187.847 79.4397 188.678 77.7773 188.678 77.7773C188.678 77.7773 190.103 79.0835 190.341 80.3896Z" fill="#7D5D00"/>
<path d="M192.003 83.238C191.29 84.3067 190.103 84.0692 190.103 84.0692C190.103 84.0692 189.509 83.0006 190.222 81.9319C190.934 80.8632 192.715 80.2695 192.715 80.2695C192.715 80.2695 192.834 82.2881 192.003 83.238Z" fill="#7D5D00"/>
<path d="M187.49 84.0693C188.559 84.7818 189.628 84.1881 189.628 84.1881C189.628 84.1881 189.865 83.0007 188.797 82.1695C187.728 81.457 185.828 81.457 185.828 81.457C185.828 81.457 186.422 83.2381 187.49 84.0693Z" fill="#7D5D00"/>
<path d="M192.122 86.5662C191.291 87.5161 190.103 87.1599 190.103 87.1599C190.103 87.1599 189.628 85.9725 190.46 85.0225C191.291 84.0726 193.191 83.5977 193.191 83.5977C193.191 83.5977 192.953 85.6162 192.122 86.5662Z" fill="#7D5D00"/>
<path d="M187.491 86.8052C188.441 87.6364 189.629 87.1615 189.629 87.1615C189.629 87.1615 189.985 85.9741 189.035 85.1429C188.085 84.3117 186.185 84.0742 186.185 84.0742C186.185 84.0742 186.541 85.9741 187.491 86.8052Z" fill="#7D5D00"/>
<path d="M191.765 89.7701C190.815 90.72 189.628 90.245 189.628 90.245C189.628 90.245 189.272 89.0576 190.222 88.2265C191.172 87.3953 193.071 87.0391 193.071 87.0391C193.071 87.0391 192.715 88.8202 191.765 89.7701Z" fill="#7D5D00"/>
<path d="M187.135 89.6525C188.085 90.6024 189.153 90.2462 189.153 90.2462C189.153 90.2462 189.509 89.0588 188.678 88.1089C187.847 87.159 185.947 86.8027 185.947 86.8027C185.947 86.8027 186.303 88.7026 187.135 89.6525Z" fill="#7D5D00"/>
<path d="M190.934 92.976C189.866 93.6884 188.797 93.0947 188.797 93.0947C188.797 93.0947 188.559 91.9073 189.628 91.1949C190.697 90.4824 192.597 90.4824 192.597 90.4824C192.597 90.4824 191.884 92.2635 190.934 92.976Z" fill="#7D5D00"/>
<path d="M186.303 92.1443C187.016 93.2129 188.203 92.9755 188.203 92.9755C188.203 92.9755 188.797 91.9068 188.084 90.8381C187.372 89.7695 185.591 89.1758 185.591 89.1758C185.591 89.1758 185.591 91.0756 186.303 92.1443Z" fill="#7D5D00"/>
<path d="M189.748 95.9466C188.679 96.5403 187.61 95.8279 187.61 95.8279C187.61 95.8279 187.61 94.6405 188.679 93.928C189.748 93.3343 191.648 93.4531 191.648 93.4531C191.648 93.4531 190.935 95.3529 189.748 95.9466Z" fill="#7D5D00"/>
<path d="M185.354 94.7576C185.948 95.8262 187.254 95.8262 187.254 95.8262C187.254 95.8262 187.966 94.7576 187.372 93.6889C186.779 92.6202 184.998 91.7891 184.998 91.7891C184.998 91.7891 184.76 93.5702 185.354 94.7576Z" fill="#7D5D00"/>
<path d="M188.204 98.7961C187.016 99.271 186.066 98.4399 186.066 98.4399C186.066 98.4399 186.185 97.2525 187.373 96.7775C188.56 96.3025 190.46 96.7775 190.46 96.7775C190.46 96.7775 189.391 98.3211 188.204 98.7961Z" fill="#7D5D00"/>
<path d="M184.048 97.013C184.522 98.2004 185.71 98.3192 185.71 98.3192C185.71 98.3192 186.541 97.3692 186.066 96.1818C185.591 94.9944 184.048 93.9258 184.048 93.9258C184.048 93.9258 183.573 95.8256 184.048 97.013Z" fill="#7D5D00"/>
<path d="M186.304 101.524C185.117 101.88 184.286 100.93 184.286 100.93C184.286 100.93 184.523 99.7431 185.829 99.3869C187.017 99.0306 188.798 99.7431 188.798 99.7431C188.798 99.7431 187.61 101.168 186.304 101.524Z" fill="#7D5D00"/>
<path d="M182.267 99.1501C182.623 100.338 183.81 100.694 183.81 100.694C183.81 100.694 184.76 99.8626 184.404 98.6752C184.048 97.4878 182.623 96.1816 182.623 96.1816C182.623 96.1816 181.911 97.9627 182.267 99.1501Z" fill="#7D5D00"/>
<path d="M184.167 103.896C182.861 104.134 182.148 103.065 182.148 103.065C182.148 103.065 182.505 101.878 183.811 101.64C185.117 101.403 186.779 102.234 186.779 102.234C186.779 102.234 185.354 103.659 184.167 103.896Z" fill="#7D5D00"/>
<path d="M180.367 101.168C180.604 102.474 181.792 102.83 181.792 102.83C181.792 102.83 182.742 102.118 182.623 100.812C182.385 99.5054 181.079 98.1992 181.079 98.1992C181.079 98.1992 180.129 99.8616 180.367 101.168Z" fill="#7D5D00"/>
<path d="M181.672 106.037C180.366 106.037 179.772 104.969 179.772 104.969C179.772 104.969 180.247 103.9 181.553 103.781C182.859 103.781 184.403 104.85 184.403 104.85C184.403 104.85 182.978 106.037 181.672 106.037Z" fill="#7D5D00"/>
<path d="M178.347 102.83C178.347 104.136 179.535 104.611 179.535 104.611C179.535 104.611 180.603 104.017 180.603 102.711C180.603 101.405 179.416 99.8613 179.416 99.8613C179.416 99.8613 178.228 101.524 178.347 102.83Z" fill="#7D5D00"/>
<path d="M178.942 107.816C177.636 107.698 177.279 106.51 177.279 106.51C177.279 106.51 177.992 105.441 179.179 105.679C180.485 105.798 181.91 107.104 181.91 107.104C181.91 107.104 180.248 108.054 178.942 107.816Z" fill="#7D5D00"/>
<path d="M176.092 104.254C175.973 105.561 176.923 106.154 176.923 106.154C176.923 106.154 178.11 105.798 178.229 104.492C178.348 103.186 177.517 101.523 177.517 101.523C177.517 101.523 176.211 102.948 176.092 104.254Z" fill="#7D5D00"/>
<path d="M176.211 109.242C174.904 109.004 174.667 107.817 174.667 107.817C174.667 107.817 175.498 106.867 176.686 107.105C177.992 107.342 179.179 108.767 179.179 108.767C179.179 108.767 177.398 109.479 176.211 109.242Z" fill="#7D5D00"/>
<path d="M173.717 105.324C173.479 106.63 174.429 107.342 174.429 107.342C174.429 107.342 175.617 107.105 175.854 105.799C176.092 104.492 175.379 102.83 175.379 102.83C175.379 102.83 173.954 104.017 173.717 105.324Z" fill="#7D5D00"/>
<path d="M173.123 110.431C171.936 109.956 171.698 108.769 171.698 108.769C171.698 108.769 172.529 107.938 173.836 108.294C175.023 108.769 176.21 110.194 176.21 110.194C176.21 110.194 174.429 110.787 173.123 110.431Z" fill="#7D5D00"/>
<path d="M171.105 106.275C170.63 107.463 171.58 108.413 171.58 108.413C171.58 108.413 172.767 108.294 173.242 106.988C173.717 105.8 173.123 103.9 173.123 103.9C173.123 103.9 171.58 104.969 171.105 106.275Z" fill="#7D5D00"/>
<path d="M169.917 111.025C168.73 110.431 168.73 109.244 168.73 109.244C168.73 109.244 169.68 108.531 170.867 109.125C172.055 109.719 172.886 111.381 172.886 111.381C172.886 111.381 171.105 111.5 169.917 111.025Z" fill="#7D5D00"/>
<path d="M168.493 106.63C167.899 107.817 168.611 108.767 168.611 108.767C168.611 108.767 169.799 108.767 170.392 107.58C170.986 106.392 170.63 104.611 170.63 104.611C170.63 104.611 169.086 105.443 168.493 106.63Z" fill="#7D5D00"/>
<path d="M146.169 80.3896C145.932 81.6958 147 82.4082 147 82.4082C147 82.4082 148.188 82.052 148.425 80.7458C148.663 79.4397 147.832 77.7773 147.832 77.7773C147.832 77.7773 146.407 79.0835 146.169 80.3896Z" fill="#7D5D00"/>
<path d="M144.507 83.238C145.22 84.3067 146.407 84.0692 146.407 84.0692C146.407 84.0692 147.001 83.0006 146.288 81.9319C145.576 80.8632 143.795 80.2695 143.795 80.2695C143.795 80.2695 143.676 82.2881 144.507 83.238Z" fill="#7D5D00"/>
<path d="M149.019 84.0693C147.951 84.7818 146.882 84.1881 146.882 84.1881C146.882 84.1881 146.644 83.0007 147.713 82.1695C148.782 81.457 150.682 81.457 150.682 81.457C150.682 81.457 150.088 83.2381 149.019 84.0693Z" fill="#7D5D00"/>
<path d="M144.388 86.5662C145.22 87.5161 146.407 87.1599 146.407 87.1599C146.407 87.1599 146.882 85.9725 146.051 85.0225C145.22 84.0726 143.32 83.5977 143.32 83.5977C143.32 83.5977 143.557 85.6162 144.388 86.5662Z" fill="#7D5D00"/>
<path d="M149.019 86.8052C148.069 87.6364 146.882 87.1615 146.882 87.1615C146.882 87.1615 146.526 85.9741 147.476 85.1429C148.425 84.3117 150.325 84.0742 150.325 84.0742C150.325 84.0742 149.969 85.9741 149.019 86.8052Z" fill="#7D5D00"/>
<path d="M144.745 89.7701C145.695 90.72 146.882 90.245 146.882 90.245C146.882 90.245 147.238 89.0576 146.288 88.2265C145.338 87.3953 143.438 87.0391 143.438 87.0391C143.438 87.0391 143.795 88.8202 144.745 89.7701Z" fill="#7D5D00"/>
<path d="M149.376 89.6525C148.426 90.6024 147.357 90.2462 147.357 90.2462C147.357 90.2462 147.001 89.0588 147.832 88.1089C148.663 87.159 150.563 86.8027 150.563 86.8027C150.563 86.8027 150.326 88.7026 149.376 89.6525Z" fill="#7D5D00"/>
<path d="M145.694 92.976C146.763 93.6884 147.831 93.0947 147.831 93.0947C147.831 93.0947 148.069 91.9073 147 91.1949C145.932 90.4824 144.032 90.4824 144.032 90.4824C144.032 90.4824 144.625 92.2635 145.694 92.976Z" fill="#7D5D00"/>
<path d="M150.206 92.1443C149.494 93.2129 148.307 92.9755 148.307 92.9755C148.307 92.9755 147.713 91.9068 148.425 90.8381C149.138 89.7695 150.919 89.1758 150.919 89.1758C150.919 89.1758 150.919 91.0756 150.206 92.1443Z" fill="#7D5D00"/>
<path d="M146.763 95.9466C147.832 96.5403 148.9 95.8279 148.9 95.8279C148.9 95.8279 148.9 94.6405 147.832 93.928C146.763 93.3343 144.863 93.4531 144.863 93.4531C144.863 93.4531 145.576 95.3529 146.763 95.9466Z" fill="#7D5D00"/>
<path d="M151.156 94.7576C150.563 95.8262 149.256 95.8262 149.256 95.8262C149.256 95.8262 148.544 94.7576 149.138 93.6889C149.731 92.6202 151.512 91.7891 151.512 91.7891C151.512 91.7891 151.869 93.5702 151.156 94.7576Z" fill="#7D5D00"/>
<path d="M148.306 98.7961C149.494 99.271 150.444 98.4399 150.444 98.4399C150.444 98.4399 150.325 97.2525 149.138 96.7775C147.95 96.3025 146.05 96.7775 146.05 96.7775C146.05 96.7775 147.119 98.3211 148.306 98.7961Z" fill="#7D5D00"/>
<path d="M152.581 97.013C152.106 98.2004 150.919 98.3192 150.919 98.3192C150.919 98.3192 150.088 97.3692 150.563 96.1818C151.038 94.9944 152.581 93.9258 152.581 93.9258C152.581 93.9258 153.056 95.8256 152.581 97.013Z" fill="#7D5D00"/>
<path d="M150.207 101.524C151.394 101.88 152.225 100.93 152.225 100.93C152.225 100.93 151.988 99.7431 150.682 99.3869C149.494 99.0306 147.713 99.7431 147.713 99.7431C147.713 99.7431 149.02 101.168 150.207 101.524Z" fill="#7D5D00"/>
<path d="M154.245 99.1501C153.888 100.338 152.701 100.694 152.701 100.694C152.701 100.694 151.751 99.8626 152.107 98.6752C152.463 97.4878 153.888 96.1816 153.888 96.1816C153.888 96.1816 154.601 97.9627 154.245 99.1501Z" fill="#7D5D00"/>
<path d="M152.463 103.896C153.769 104.134 154.481 103.065 154.481 103.065C154.481 103.065 154.125 101.878 152.819 101.64C151.513 101.403 149.851 102.234 149.851 102.234C149.851 102.234 151.157 103.659 152.463 103.896Z" fill="#7D5D00"/>
<path d="M156.143 101.168C155.906 102.474 154.718 102.83 154.718 102.83C154.718 102.83 153.768 102.118 153.887 100.812C154.125 99.5054 155.431 98.1992 155.431 98.1992C155.431 98.1992 156.381 99.8616 156.143 101.168Z" fill="#7D5D00"/>
<path d="M154.837 106.037C156.143 106.037 156.737 104.969 156.737 104.969C156.737 104.969 156.262 103.9 154.956 103.781C153.65 103.781 152.106 104.85 152.106 104.85C152.106 104.85 153.65 106.037 154.837 106.037Z" fill="#7D5D00"/>
<path d="M158.28 102.83C158.28 104.136 157.093 104.611 157.093 104.611C157.093 104.611 156.024 104.017 156.024 102.711C156.024 101.405 157.211 99.8613 157.211 99.8613C157.211 99.8613 158.28 101.524 158.28 102.83Z" fill="#7D5D00"/>
<path d="M157.569 107.816C158.875 107.698 159.231 106.51 159.231 106.51C159.231 106.51 158.519 105.441 157.331 105.679C156.025 105.798 154.6 107.104 154.6 107.104C154.6 107.104 156.262 108.054 157.569 107.816Z" fill="#7D5D00"/>
<path d="M160.418 104.254C160.537 105.561 159.587 106.154 159.587 106.154C159.587 106.154 158.4 105.798 158.281 104.492C158.162 103.186 158.994 101.523 158.994 101.523C158.994 101.523 160.3 102.948 160.418 104.254Z" fill="#7D5D00"/>
<path d="M160.418 109.242C161.724 109.004 161.962 107.817 161.962 107.817C161.962 107.817 161.131 106.867 159.943 107.105C158.637 107.342 157.45 108.767 157.45 108.767C157.45 108.767 159.112 109.479 160.418 109.242Z" fill="#7D5D00"/>
<path d="M162.793 105.324C163.031 106.63 162.081 107.342 162.081 107.342C162.081 107.342 160.893 107.105 160.656 105.799C160.418 104.492 161.131 102.83 161.131 102.83C161.131 102.83 162.556 104.017 162.793 105.324Z" fill="#7D5D00"/>
<path d="M163.387 110.431C164.574 109.956 164.811 108.769 164.811 108.769C164.811 108.769 163.98 107.938 162.674 108.294C161.487 108.769 160.299 110.194 160.299 110.194C160.299 110.194 162.199 110.787 163.387 110.431Z" fill="#7D5D00"/>
<path d="M165.405 106.275C165.88 107.463 164.931 108.413 164.931 108.413C164.931 108.413 163.743 108.294 163.268 106.988C162.793 105.8 163.387 103.9 163.387 103.9C163.387 103.9 164.931 104.969 165.405 106.275Z" fill="#7D5D00"/>
<path d="M166.593 111.025C167.78 110.431 167.78 109.244 167.78 109.244C167.78 109.244 166.83 108.531 165.643 109.125C164.456 109.719 163.625 111.381 163.625 111.381C163.625 111.381 165.406 111.5 166.593 111.025Z" fill="#7D5D00"/>
<path d="M168.018 106.63C168.611 107.817 167.899 108.767 167.899 108.767C167.899 108.767 166.712 108.767 166.118 107.58C165.524 106.392 165.88 104.611 165.88 104.611C165.88 104.611 167.424 105.443 168.018 106.63Z" fill="#7D5D00"/>
<path d="M145.22 82.168L157.568 84.7803L145.22 87.3925C142.132 87.9862 139.757 90.361 139.164 93.4483L136.67 105.085L134.177 93.4483C133.464 90.361 131.089 87.9862 128.121 87.3925L115.772 84.7803L128.121 82.168C131.208 81.5743 133.583 79.0807 134.295 75.9935L136.908 63.6445L139.52 75.9935C139.757 79.0807 142.132 81.4555 145.22 82.168Z" fill="white"/>
<path d="M132.039 34.4375L144.388 37.0498L132.039 39.6621C128.952 40.2558 126.577 42.6306 125.984 45.7178L123.49 57.3544L120.997 45.7178C120.284 42.6306 117.909 40.2558 114.941 39.6621L102.592 37.0498L114.703 34.4375C117.791 33.8438 120.165 31.3503 120.878 28.263L123.49 15.9141L126.102 28.263C126.577 31.469 128.952 33.8438 132.039 34.4375Z" fill="white"/>
<path d="M54.027 99.9823L61.0327 101.407L54.027 102.832C52.2459 103.188 50.9398 104.494 50.5836 106.276L49.1587 112.925L47.7338 106.276C47.3776 104.494 45.9527 103.188 44.2903 102.832L37.2847 101.407L44.2903 99.9823C46.0714 99.6261 47.3776 98.2012 47.7338 96.5389L49.1587 89.5332L50.5836 96.5389C50.9398 98.2012 52.3647 99.6261 54.027 99.9823Z" fill="white"/>
<path d="M97.4858 67.5634L103.185 68.7508L97.3671 70.0569C95.9422 70.2944 94.8736 71.4818 94.5173 72.9067L93.3299 78.25L92.1425 72.9067C91.7863 71.4818 90.7177 70.4131 89.2928 70.0569L83.5933 68.8695L89.2928 67.6821C90.7177 67.3259 91.7863 66.2572 92.1425 64.8323L93.3299 59.1328L94.5173 64.8323C94.8736 66.2572 96.061 67.3259 97.4858 67.5634Z" fill="white"/>
<path d="M69.1073 45.7173L74.8069 46.9047L69.1073 48.0921C67.6825 48.3295 66.6138 49.5169 66.2576 50.9418L65.0702 56.2851L63.8828 50.9418C63.5266 49.5169 62.4579 48.4483 61.033 48.0921L55.3335 46.9047L61.033 45.7173C62.4579 45.361 63.5266 44.2924 63.8828 42.8675L65.0702 37.168L66.2576 42.8675C66.6138 44.2924 67.6825 45.361 69.1073 45.7173Z" fill="white"/>
<path d="M204.946 37.8774L210.646 39.0648L204.946 40.2522C203.521 40.4897 202.453 41.6771 202.096 43.102L200.909 48.4453L199.722 43.102C199.365 41.6771 198.297 40.6084 196.872 40.2522L191.172 39.0648L196.872 37.8774C198.297 37.5212 199.365 36.4525 199.722 35.0276L200.909 29.3281L202.096 35.0276C202.334 36.4525 203.521 37.5212 204.946 37.8774Z" fill="white"/>
<path d="M172.411 52.9594L175.023 53.5531L172.411 54.1468C171.699 54.2656 171.224 54.7405 171.105 55.453L170.511 57.9465L169.917 55.453C169.799 54.8593 169.205 54.2656 168.611 54.1468L165.999 53.5531L168.611 52.9594C169.324 52.8407 169.799 52.3657 169.917 51.6533L170.511 49.041L171.105 51.6533C171.224 52.247 171.699 52.8407 172.411 52.9594Z" fill="white"/>
<path d="M180.01 12.3501L182.622 12.9438L180.01 13.5375C179.298 13.6562 178.823 14.1312 178.704 14.8436L178.11 17.3371L177.517 14.8436C177.398 14.2499 176.804 13.6562 176.21 13.5375L173.598 12.9438L176.21 12.3501C176.923 12.2313 177.398 11.7564 177.517 11.0439L178.11 8.43164L178.704 11.0439C178.823 11.7564 179.298 12.2313 180.01 12.3501Z" fill="white"/>
<path d="M290.914 88.2269L297.445 89.6518L290.914 91.0767C289.251 91.4329 288.064 92.6203 287.708 94.2827L286.402 100.457L285.096 94.2827C284.739 92.6203 283.433 91.4329 281.89 91.0767L275.359 89.6518L281.89 88.2269C283.552 87.8707 284.858 86.5646 285.096 85.0209L286.52 78.4902L287.945 85.0209C287.945 86.6833 289.251 87.8707 290.914 88.2269Z" fill="white"/>
<path d="M467.836 476.502L444.919 402.408H417.847L447.175 476.502H467.836Z" fill="#684B00"/>
<path d="M76.8253 476.502L106.273 402.408H79.2001L56.1646 476.502H76.8253Z" fill="#684B00"/>
<path d="M477.217 379.137H46.7837V410.84H477.217V379.137Z" fill="#6A5302"/>
<path d="M477.217 363.342H46.7837V395.045H477.217V363.342Z" fill="#352600"/>
<path d="M511.652 356.574H12.3496V386.734H511.652V356.574Z" fill="#FFE394"/>
<path d="M511.652 371.652H12.3496V386.732H511.652V371.652Z" fill="#857000"/>
<path d="M131.09 199.723H39.8975V243.775H131.09V199.723Z" fill="#493900"/>
<path d="M85.4927 244.487C110.675 244.487 131.089 224.073 131.089 198.891C131.089 173.709 110.675 153.295 85.4927 153.295C60.3106 153.295 39.8965 173.709 39.8965 198.891C39.8965 224.073 60.3106 244.487 85.4927 244.487Z" fill="#684B00"/>
<path d="M85.4927 236.531C106.281 236.531 123.133 219.679 123.133 198.891C123.133 178.102 106.281 161.25 85.4927 161.25C64.7043 161.25 47.8521 178.102 47.8521 198.891C47.8521 219.679 64.7043 236.531 85.4927 236.531Z" fill="#E2E2E2"/>
<path d="M84.6615 236.531C104.991 236.531 121.471 220.051 121.471 199.722C121.471 179.392 104.991 162.912 84.6615 162.912C64.3322 162.912 47.8521 179.392 47.8521 199.722C47.8521 220.051 64.3322 236.531 84.6615 236.531Z" fill="white"/>
<path d="M85.4929 233.682C86.411 233.682 87.1553 232.938 87.1553 232.02C87.1553 231.102 86.411 230.357 85.4929 230.357C84.5748 230.357 83.8306 231.102 83.8306 232.02C83.8306 232.938 84.5748 233.682 85.4929 233.682Z" fill="#182C31"/>
<path d="M85.4924 168.852C86.4105 168.852 87.1548 168.108 87.1548 167.19C87.1548 166.272 86.4105 165.527 85.4924 165.527C84.5743 165.527 83.8301 166.272 83.8301 167.19C83.8301 168.108 84.5743 168.852 85.4924 168.852Z" fill="#182C31"/>
<path d="M53.3147 200.555C54.2328 200.555 54.9771 199.811 54.9771 198.893C54.9771 197.975 54.2328 197.23 53.3147 197.23C52.3966 197.23 51.6523 197.975 51.6523 198.893C51.6523 199.811 52.3966 200.555 53.3147 200.555Z" fill="#182C31"/>
<path d="M117.79 200.555C118.708 200.555 119.453 199.811 119.453 198.893C119.453 197.975 118.708 197.23 117.79 197.23C116.872 197.23 116.128 197.975 116.128 198.893C116.128 199.811 116.872 200.555 117.79 200.555Z" fill="#182C31"/>
<path d="M88.8167 201.029C88.3417 201.622 87.5105 201.741 86.9168 201.385L58.6567 181.912C58.063 181.437 57.9443 180.605 58.3005 180.012C58.7754 179.418 59.6066 179.299 60.2003 179.655L88.4605 199.129C89.0542 199.604 89.1729 200.435 88.8167 201.029Z" fill="#997100"/>
<path d="M90.4795 220.265L90.0045 220.383C89.4108 220.502 88.8171 220.146 88.6984 219.552L84.305 199.01C84.1862 198.416 84.5425 197.823 85.1362 197.704L85.6111 197.585C86.2048 197.467 86.7985 197.823 86.9173 198.416L91.3106 218.958C91.4294 219.552 90.9544 220.146 90.4795 220.265Z" fill="#997100"/>
<path d="M85.4921 203.403C87.9841 203.403 90.0042 201.383 90.0042 198.891C90.0042 196.399 87.9841 194.379 85.4921 194.379C83.0001 194.379 80.98 196.399 80.98 198.891C80.98 201.383 83.0001 203.403 85.4921 203.403Z" fill="#182C31"/>
<path d="M85.4917 200.91C86.6066 200.91 87.5103 200.006 87.5103 198.892C87.5103 197.777 86.6066 196.873 85.4917 196.873C84.3769 196.873 83.4731 197.777 83.4731 198.892C83.4731 200.006 84.3769 200.91 85.4917 200.91Z" fill="#E6E2D5"/>
<path d="M155.431 351.712H31.4665C28.8542 351.712 26.5981 349.574 26.5981 346.843V335.325C26.5981 332.713 28.7355 330.457 31.4665 330.457H155.431V351.712Z" fill="#E6E2D5"/>
<path d="M31.4663 330.574H158.518V326.537H29.329C26.123 326.537 23.5107 329.149 23.5107 332.355V350.76C23.5107 353.966 26.123 356.578 29.329 356.578H158.518V351.71H31.4663C28.854 351.71 26.598 349.573 26.598 346.842V335.324C26.598 332.712 28.854 330.574 31.4663 330.574Z" fill="#6A5302"/>
<path d="M89.5302 351.71H31.4663C28.854 351.71 26.598 349.573 26.598 346.842V335.324C26.598 332.712 28.7353 330.456 31.4663 330.456H89.5302V326.537H29.329C26.123 326.537 23.5107 329.149 23.5107 332.355V350.76C23.5107 353.966 26.123 356.578 29.329 356.578H89.5302V351.71Z" fill="#8E6F00"/>
<path d="M87.0369 330.574H31.4665C28.8542 330.574 26.5981 332.712 26.5981 335.443V346.96C26.5981 349.573 28.7355 351.829 31.4665 351.829H87.0369V330.574Z" fill="#F0F4F7"/>
<path d="M27.1918 333.068C26.8356 333.781 26.5981 334.493 26.5981 335.324V346.842C26.5981 347.673 26.8356 348.386 27.1918 349.098C28.9729 343.992 29.2104 338.412 27.1918 333.068Z" fill="#B0C0CC"/>
<path d="M155.432 291.629H31.467C28.8547 291.629 26.5986 289.492 26.5986 286.761V275.243C26.5986 272.631 28.736 270.375 31.467 270.375H155.432V291.629Z" fill="#E6E2D5"/>
<path d="M31.4663 270.494H158.518V266.457H29.329C26.123 266.457 23.5107 269.069 23.5107 272.275V290.68C23.5107 293.886 26.123 296.498 29.329 296.498H158.518V291.63H31.4663C28.854 291.63 26.598 289.493 26.598 286.762V275.244C26.598 272.632 28.854 270.494 31.4663 270.494Z" fill="#CB9600"/>
<path d="M89.5302 291.63H31.4663C28.854 291.63 26.598 289.492 26.598 286.761V275.243C26.598 272.631 28.7353 270.375 31.4663 270.375H89.5302V266.338H29.329C26.123 266.338 23.5107 268.95 23.5107 272.156V290.561C23.5107 293.767 26.123 296.379 29.329 296.379H89.5302V291.63Z" fill="#CB9600"/>
<path d="M87.0373 270.494H31.467C28.8547 270.494 26.5986 272.631 26.5986 275.362V286.88C26.5986 289.493 28.736 291.749 31.467 291.749H87.0373V270.494Z" fill="#F0F4F7"/>
<path d="M27.1923 272.986C26.8361 273.699 26.5986 274.411 26.5986 275.242V286.76C26.5986 287.591 26.8361 288.304 27.1923 289.016C28.9734 283.91 29.2109 278.33 27.1923 272.986Z" fill="#B0C0CC"/>
<path d="M33.2476 262.776H128.121C130.139 262.776 131.802 261.113 131.802 259.095V250.308C131.802 248.289 130.139 246.627 128.121 246.627H33.2476V262.776Z" fill="#E6E2D5"/>
<path d="M128.121 246.626H30.873V243.539H129.665C132.158 243.539 134.058 245.558 134.058 247.932V262.063C134.058 264.556 132.04 266.456 129.665 266.456H30.873V262.775H128.121C130.14 262.775 131.802 261.113 131.802 259.094V250.307C131.802 248.289 130.14 246.626 128.121 246.626Z" fill="#826000"/>
<path d="M83.5933 262.775H128.002C130.021 262.775 131.683 261.113 131.683 259.094V250.307C131.683 248.289 130.021 246.626 128.002 246.626H83.5933V243.539H129.664C132.158 243.539 134.058 245.558 134.058 247.932V262.063C134.058 264.556 132.039 266.456 129.664 266.456H83.5933V262.775Z" fill="#4D3800"/>
<path d="M85.4932 246.627H128.002C130.021 246.627 131.683 248.289 131.683 250.308V259.095C131.683 261.113 130.021 262.776 128.002 262.776H85.4932V246.627Z" fill="#F0F4F7"/>
<path d="M131.327 248.525C131.564 249 131.802 249.594 131.802 250.306V259.093C131.802 259.687 131.683 260.281 131.327 260.756C130.021 256.837 129.783 252.563 131.327 248.525Z" fill="#B0C0CC"/>
<path d="M41.4404 321.669H165.405C168.017 321.669 170.273 319.531 170.273 316.8V305.282C170.273 302.67 168.136 300.414 165.405 300.414H41.4404V321.669Z" fill="#E6E2D5"/>
<path d="M165.405 300.533H38.353V296.496H167.542C170.748 296.496 173.361 299.108 173.361 302.314V320.719C173.361 323.925 170.748 326.537 167.542 326.537H38.353V321.669H165.405C168.017 321.669 170.273 319.532 170.273 316.801V305.283C170.155 302.671 168.017 300.533 165.405 300.533Z" fill="#5F3E00"/>
<path d="M107.222 321.669H165.286C167.898 321.669 170.154 319.531 170.154 316.8V305.282C170.154 302.67 168.017 300.414 165.286 300.414H107.222V296.377H167.423C170.629 296.377 173.242 298.989 173.242 302.195V320.6C173.242 323.806 170.629 326.418 167.423 326.418H107.222V321.669Z" fill="#856200"/>
<path d="M109.716 300.533H165.286C167.898 300.533 170.155 302.671 170.155 305.402V316.919C170.155 319.532 168.017 321.788 165.286 321.788H109.716V300.533Z" fill="#F0F4F7"/>
<path d="M169.561 303.025C169.917 303.738 170.155 304.45 170.155 305.281V316.799C170.155 317.63 169.917 318.343 169.561 319.055C167.78 313.949 167.542 308.369 169.561 303.025Z" fill="#B0C0CC"/>
<path d="M163.743 318.108L159.943 315.971L155.431 318.108V305.047H163.743V318.108Z" fill="#997100"/>
<path d="M125.983 260.756L122.777 259.094L118.859 260.756V250.426H125.983V260.756Z" fill="#826000"/>
<path d="M44.4095 289.016L40.0161 286.76L34.7915 289.016V275.123H44.4095V289.016Z" fill="#CB9600"/>
<path d="M46.7839 349.098L42.5092 346.842L37.2847 349.098V335.205H46.7839V349.098Z" fill="#6D5500"/>
<path d="M326.297 10.6836L446.818 56.161L503.457 168.252L502.507 169.32L392.317 117.431L325.347 11.871L326.297 10.6836Z" fill="#7C6100"/>
<path d="M325.347 11.8711L445.868 57.3485L502.507 169.32L391.367 118.5L325.347 11.8711Z" fill="#6A5300"/>
<path d="M420.576 72.5475C393.978 51.0556 368.331 38.7066 363.344 44.8811L328.315 90.8334C333.303 84.659 356.932 97.008 383.529 118.5C410.127 139.992 427.701 162.434 422.714 168.608L459.76 122.656C464.748 116.481 447.174 94.0395 420.576 72.5475Z" fill="#583F00"/>
<path d="M456.792 110.188C452.042 102.47 443.137 92.3769 431.619 81.9277L394.572 127.88C406.09 138.329 415.114 148.422 419.745 156.14L456.792 110.188Z" fill="#534100"/>
<path d="M431.501 140.821H429.363V49.5098L431.501 50.3409V140.821Z" fill="#B88800"/>
<path d="M436.369 182.618V138.091C436.369 134.766 433.638 132.035 430.314 132.035C426.989 132.035 424.258 134.766 424.258 138.091V182.618H436.369Z" fill="#8A6600"/>
<path d="M460.239 330.218C460.239 330.218 410.368 328.912 399.919 328.912C389.47 328.912 385.67 331.287 380.089 334.493C374.508 337.699 358.241 353.491 357.529 354.916C356.816 356.341 364.178 357.41 367.978 353.848C371.777 350.167 385.908 335.205 390.063 332.949C394.219 330.693 460.239 335.324 460.239 335.324V330.218Z" fill="#141414"/>
<path d="M365.009 330.218C365.009 330.218 414.88 328.912 425.329 328.912C435.778 328.912 439.578 331.287 445.159 334.493C450.74 337.699 467.007 353.491 467.719 354.916C468.313 356.341 461.07 357.41 457.27 353.848C453.471 350.285 439.341 335.205 435.185 332.949C431.029 330.693 365.009 335.324 365.009 335.324V330.218Z" fill="#141414"/>
<path opacity="0.77" d="M422.834 326.301C421.646 327.964 420.934 330.22 421.171 334.376C421.409 339.838 424.377 353.611 439.932 355.393C455.487 357.174 459.999 344.943 461.306 340.313C462.612 335.8 463.443 328.676 459.05 323.689C454.775 318.821 428.058 319.296 422.834 326.301Z" fill="#D6F5FC"/>
<path d="M456.081 326.183C452.519 322.145 430.433 322.502 426.158 328.32C426.04 328.439 426.04 328.557 425.921 328.676C433.876 325.708 448.719 326.064 451.569 329.27C455.131 333.307 454.537 339.244 453.35 342.925C452.756 344.825 451.569 348.387 448.719 351.237C454.775 348.624 456.912 342.688 457.743 339.838C459.049 336.157 459.643 330.22 456.081 326.183Z" fill="white"/>
<path opacity="0.77" d="M404.429 326.301C405.617 327.964 406.329 330.22 406.092 334.376C405.854 339.838 402.886 353.611 387.331 355.393C371.776 357.174 367.264 344.943 365.958 340.313C364.651 335.8 363.82 328.676 368.214 323.689C372.607 318.821 399.323 319.296 404.429 326.301Z" fill="#D6F5FC"/>
<path d="M401.223 328.319C396.948 322.62 374.862 322.145 371.3 326.182C371.063 326.419 370.825 326.657 370.707 326.894C378.187 324.994 393.386 326.182 396.829 330.813C397.898 332.237 398.373 334.019 398.254 337.462C398.135 340.549 396.948 346.961 392.08 350.998C400.629 347.674 402.41 338.768 402.648 334.85C402.766 331.525 402.173 329.625 401.223 328.319Z" fill="white"/>
<path d="M457.625 321.907C453.944 320.126 447.176 319.651 441.832 319.889C435.776 320.126 428.652 321.314 424.615 323.926C422.121 324.757 419.272 325.232 417.491 325.232C415.828 325.232 414.522 325.232 413.928 325.232C413.691 325.232 413.453 325.232 413.453 325.232C412.86 325.232 411.554 325.232 409.891 325.232C407.991 325.232 405.142 324.876 402.767 323.926C398.73 321.314 391.605 320.126 385.549 319.889C380.206 319.651 373.438 320.126 369.757 321.907C365.126 323.332 359.664 324.52 359.664 324.52V328.913C359.664 328.913 363.108 332 364.651 336.75C364.889 338.175 365.245 339.481 365.482 340.431C368.57 350.761 375.1 356.105 384.481 356.105C385.431 356.105 386.499 356.105 387.568 355.986C404.904 354.086 406.685 337.7 406.804 334.375C406.804 333.425 406.804 332.594 406.804 331.763C408.11 328.438 412.028 328.201 412.028 328.201C412.503 328.201 412.86 328.201 413.216 328.201C413.216 328.201 413.453 328.201 414.166 328.201C414.522 328.201 414.878 328.201 415.353 328.201C415.353 328.201 419.272 328.438 420.578 331.763C420.578 332.594 420.578 333.425 420.578 334.375C420.696 337.7 422.478 354.086 439.814 355.986C440.882 356.105 441.832 356.105 442.901 356.105C452.281 356.105 458.931 350.761 461.899 340.431C462.137 339.6 462.493 338.294 462.73 336.75C464.274 332 467.718 328.913 467.718 328.913V324.52C467.718 324.639 462.256 323.332 457.625 321.907ZM405.498 334.375C405.379 337.462 403.717 352.899 387.331 354.798C377 355.986 369.757 350.88 366.551 340.193C365.601 337.106 364.057 329.507 368.688 324.164C370.469 322.026 377.356 320.839 385.431 321.195C393.742 321.551 400.629 323.451 403.36 326.063C404.073 327.132 404.667 328.082 405.142 329.151C405.498 330.457 405.616 332.119 405.498 334.375ZM460.712 340.075C457.506 350.761 450.382 355.867 439.932 354.68C423.546 352.899 421.884 337.344 421.765 334.256C421.646 332 421.765 330.338 422.121 328.913C422.596 327.963 423.19 326.895 423.902 325.826C426.633 323.214 433.52 321.314 441.832 320.958C449.907 320.601 456.675 321.907 458.575 323.926C463.205 329.388 461.662 337.106 460.712 340.075Z" fill="#141414"/>
</svg>
