<svg width="473" height="452" viewBox="0 0 473 452" fill="none" xmlns="http://www.w3.org/2000/svg">
<g clip-path="url(#clip0_115_12)">
<path d="M75.0199 412.4C-15.9201 359.9 -15.9201 274.78 75.0199 222.28C165.96 169.78 313.39 169.78 404.33 222.28C495.27 274.78 495.27 359.9 404.33 412.4C313.4 464.9 165.96 464.9 75.0199 412.4Z" fill="#FFE394" fill-opacity="0.26"/>
<path d="M388.41 420.03C421.215 420.03 447.81 404.678 447.81 385.74C447.81 366.802 421.215 351.45 388.41 351.45C355.604 351.45 329.01 366.802 329.01 385.74C329.01 404.678 355.604 420.03 388.41 420.03Z" fill="#E6C465"/>
<path d="M451.46 405.58C462.815 405.58 472.02 400.265 472.02 393.71C472.02 387.154 462.815 381.84 451.46 381.84C440.105 381.84 430.9 387.154 430.9 393.71C430.9 400.265 440.105 405.58 451.46 405.58Z" fill="#E6C465"/>
<path d="M43.3 392.42L16.1 376.72C13.77 375.37 13.77 373.19 16.1 371.85L229.41 248.7C231.74 247.35 235.52 247.35 237.85 248.7L265.05 264.4C267.38 265.75 267.38 267.93 265.05 269.27L51.74 392.42C49.41 393.77 45.63 393.77 43.3 392.42Z" fill="#E6C465"/>
<path d="M166.05 413L87.3803 367.58C85.0503 366.23 85.0503 364.05 87.3803 362.71L284.85 248.7C287.18 247.35 290.96 247.35 293.29 248.7L371.96 294.12C374.29 295.47 374.29 297.65 371.96 298.99L174.49 413C172.16 414.35 168.38 414.35 166.05 413Z" fill="#E6C465"/>
<path d="M42.4699 372.45C47.7199 347.15 40.3699 329.65 34.4699 318.8C28.5799 307.95 15.7899 296.91 6.7999 298.29C-1.5701 299.58 -2.57011 310.09 5.7799 318.66C14.1299 327.23 32.1299 343.46 34.2299 356.08L35.3299 367.16L42.4699 372.45Z" fill="#FFE394"/>
<path opacity="0.15" d="M42.4699 372.45C47.7199 347.15 40.3699 329.65 34.4699 318.8C28.5799 307.95 15.7899 296.91 6.7999 298.29C-1.5701 299.58 -2.57011 310.09 5.7799 318.66C14.1299 327.23 32.1299 343.46 34.2299 356.08L35.3299 367.16L42.4699 372.45Z" fill="black"/>
<path d="M38.8899 360.89C38.6599 360.83 38.4799 360.63 38.4799 360.38C37.5199 334.56 20.4699 311 9.05989 304.59C8.79989 304.44 8.70989 304.11 8.84989 303.85C8.99989 303.59 9.31989 303.49 9.58989 303.64C21.2199 310.17 38.5899 334.12 39.5699 360.34C39.5799 360.64 39.3499 360.89 39.0499 360.9C38.9999 360.9 38.9499 360.9 38.8999 360.89H38.8899Z" fill="white"/>
<path d="M43.5599 376.42C40.5799 378.85 36.1599 377.85 34.4299 374.42C32.8199 371.22 30.5299 367.89 26.4299 363.82C18.5499 356.02 7.68986 351.14 5.92986 345.85C3.81986 339.49 9.67986 334.89 18.6999 337.68C26.5999 340.12 41.6599 350.97 43.5599 376.42Z" fill="#FFE394"/>
<path d="M40.3598 378.881C40.1598 378.831 39.9998 378.661 39.9598 378.441C36.1198 355.691 21.1398 345.271 13.7598 342.941C13.4698 342.851 13.3198 342.551 13.4098 342.261C13.4998 341.971 13.7898 341.811 14.0898 341.911C22.2498 344.491 37.1098 355.041 41.0298 378.261C41.0798 378.551 40.8798 378.841 40.5798 378.891C40.4998 378.901 40.4198 378.891 40.3498 378.891L40.3598 378.881Z" fill="white"/>
<path d="M328.66 273.69C328.66 273.69 324.37 254.94 330.12 236.06C333.34 225.5 339.87 220.36 344.01 219.69C348.65 218.94 353.6 223.11 349.82 230.15C346.23 236.84 338.76 239.87 335.19 257.04C332.84 268.36 333.73 276.62 333.73 276.62L328.66 273.69Z" fill="#FFE394"/>
<path opacity="0.5" d="M328.66 273.69C328.66 273.69 324.37 254.94 330.12 236.06C333.34 225.5 339.87 220.36 344.01 219.69C348.65 218.94 353.6 223.11 349.82 230.15C346.23 236.84 338.76 239.87 335.19 257.04C332.84 268.36 333.73 276.62 333.73 276.62L328.66 273.69Z" fill="white"/>
<path d="M331.23 268.76C331.39 268.74 331.5 268.59 331.48 268.43C328.39 247.82 337.46 229.98 344.89 223.9C345.01 223.8 345.03 223.61 344.93 223.49C344.83 223.36 344.64 223.35 344.52 223.45C336.98 229.62 327.78 247.69 330.9 268.52C330.92 268.68 331.07 268.79 331.23 268.77V268.76Z" fill="white"/>
<path d="M333.74 276.62C334.18 271.82 336.51 265.88 341.89 260.41C347.27 254.94 354.8 249.8 353.43 245.25C352.06 240.69 345.97 241.94 341.77 244.68C337.58 247.41 328.35 258.31 331.09 275.1L333.73 276.62H333.74Z" fill="#FFE394"/>
<path opacity="0.65" d="M333.74 276.62C334.18 271.82 336.51 265.88 341.89 260.41C347.27 254.94 354.8 249.8 353.43 245.25C352.06 240.69 345.97 241.94 341.77 244.68C337.58 247.41 328.35 258.31 331.09 275.1L333.73 276.62H333.74Z" fill="white"/>
<path d="M332.23 270.44C332.37 270.42 332.47 270.3 332.48 270.16C332.8 260.05 343.8 246.88 349.06 244.7C349.21 244.64 349.28 244.47 349.22 244.32C349.16 244.17 348.99 244.1 348.84 244.16C343.32 246.45 332.22 259.63 331.9 270.14C331.9 270.3 332.02 270.44 332.18 270.44C332.2 270.44 332.22 270.44 332.23 270.44Z" fill="white"/>
<path d="M38.1099 216.601L248.05 95.3906L256.45 100.241C258.62 101.491 260.4 104.571 260.4 107.081V261.951C260.4 264.461 258.62 267.541 256.45 268.791L54.4099 385.441C52.2399 386.691 48.6799 386.691 46.5099 385.441L42.0599 382.871C39.8899 381.621 38.1099 378.541 38.1099 376.031V216.601Z" fill="#FFE394"/>
<path opacity="0.25" d="M38.1099 216.601L248.05 95.3906L256.45 100.241C258.62 101.491 260.4 104.571 260.4 107.081V261.951C260.4 264.461 258.62 267.541 256.45 268.791L54.4099 385.441C52.2399 386.691 48.6799 386.691 46.5099 385.441L42.0599 382.871C39.8899 381.621 38.1099 378.541 38.1099 376.031V216.601Z" fill="white"/>
<path d="M246.89 81.7803L247.75 81.3103L244.49 79.4103C244.21 79.2503 243.92 79.1103 243.62 79.0003L151.23 44.7603C148.78 43.8503 145.61 44.8603 144.13 47.0203L40.7701 197.96C39.3001 200.11 38.1001 203.97 38.1001 206.58C38.1001 210.89 38.1001 216.6 38.1001 216.6L41.3001 218.46L248.04 95.3903V85.3603C248.04 84.1403 247.59 82.8703 246.88 81.7703L246.89 81.7803Z" fill="#FFE394"/>
<path opacity="0.4" d="M148.41 47.7504C148 48.0604 147.64 48.4604 147.34 48.8804L43.9703 199.81C43.2103 200.93 42.5203 202.5 42.0503 204.12L38.8403 202.26C39.0803 201.47 39.3603 200.7 39.6703 199.98C39.6903 199.95 39.6903 199.93 39.7003 199.92C39.8403 199.61 39.9803 199.31 40.1403 199.01C40.1703 198.96 40.1903 198.92 40.2203 198.87C40.3903 198.54 40.5803 198.22 40.7703 197.96L144.12 47.0304C144.28 46.7904 144.45 46.6104 144.64 46.4004C144.81 46.2304 145 46.0504 145.19 45.9004L148.4 47.7604L148.41 47.7504Z" fill="white"/>
<path opacity="0.7" d="M247.71 81.2901C247.43 81.1201 247.13 80.9801 246.83 80.8701L154.42 46.6201C152.47 45.9001 150.04 46.4001 148.41 47.7501L145.2 45.8901C146.85 44.5501 149.26 44.0301 151.23 44.7601L243.62 78.9901C243.92 79.1001 244.2 79.2401 244.49 79.4101L247.72 81.2801L247.71 81.2901Z" fill="white"/>
<path d="M147.33 48.8807L43.9801 199.821C42.5101 201.971 41.3101 205.831 41.3101 208.441C41.3101 212.751 41.3101 218.461 41.3101 218.461L251.25 97.2407V87.2207C251.25 84.6107 249.27 81.7607 246.82 80.8607L154.43 46.6207C151.98 45.7107 148.81 46.7207 147.33 48.8807Z" fill="#FFE394"/>
<path opacity="0.25" d="M147.33 48.8807L43.9801 199.821C42.5101 201.971 41.3101 205.831 41.3101 208.441C41.3101 212.751 41.3101 218.461 41.3101 218.461L251.25 97.2407V87.2207C251.25 84.6107 249.27 81.7607 246.82 80.8607L154.43 46.6207C151.98 45.7107 148.81 46.7207 147.33 48.8807Z" fill="white"/>
<path d="M44.3999 216.621L69.7499 201.721L95.1499 186.921L146.02 157.431L197 128.131L222.53 113.551L248.1 99.0508L222.75 113.941L197.35 128.751L146.48 158.231L95.4999 187.531L69.9799 202.111L44.3999 216.621Z" fill="#FFE394"/>
<path d="M260.32 106.09H260.3C260.11 104.96 259.51 104.64 258.74 105.18C258.44 105.38 258.09 105.73 257.73 106.22L257.29 106.83L170.96 238.08L158.07 256.04C156.62 258.09 153.44 259.27 150.97 258.7L139.84 256.06L54.8903 224.79C54.2803 224.65 53.6903 224.63 53.1603 224.73C52.9403 224.78 52.7203 224.84 52.5103 224.93L55.7103 223.08L137.15 252.93L147.87 256.76C150.33 257.34 153.5 256.16 154.97 254.1L167.86 236.16L254.62 104.29C254.9 103.9 255.25 103.61 255.6 103.39L248.09 99.06L251.24 97.25L256.43 100.24C258.32 101.34 259.91 103.81 260.3 106.1L260.32 106.09Z" fill="#FFE394"/>
<path d="M255.07 264.011C255.01 264.121 254.94 264.211 254.85 264.321L167.36 236.581C160.49 233.531 152.45 236.011 148.45 242.401L54.92 381.411L51.46 383.411L51.43 383.431C50.38 384.011 49.44 384.091 48.75 383.731L144.94 240.441C148.93 234.051 156.99 231.571 163.86 234.601L255.06 264.011H255.07Z" fill="#FFE394"/>
<path opacity="0.4" d="M256.44 100.23L251.25 97.2402L248.1 99.0502L255.61 103.38C255.61 103.38 255.62 103.38 255.63 103.39H255.62C255.24 103.62 254.91 103.91 254.64 104.28L168.02 235.93L167.58 236.56L168.16 236.75L171.19 237.72L257.29 106.82L257.73 106.21C258.09 105.72 258.44 105.38 258.74 105.17C259.51 104.63 260.11 104.95 260.3 106.08H260.32C259.93 103.8 258.34 101.33 256.45 100.22L256.44 100.23Z" fill="white"/>
<path d="M56.6299 227.301L38.1099 216.601V376.031C38.1099 378.541 39.8899 381.621 42.0599 382.871L46.5099 385.441C48.6799 386.691 52.2399 386.691 54.4099 385.441L56.6299 384.161V227.301Z" fill="#FFE394"/>
<path opacity="0.5" d="M56.6299 227.301L38.1099 216.601V376.031C38.1099 378.541 39.8899 381.621 42.0599 382.871L46.5099 385.441C48.6799 386.691 52.2399 386.691 54.4099 385.441L56.6299 384.161V227.301Z" fill="white"/>
<path d="M260.4 107.081V261.941C260.4 263.251 259.93 264.681 259.17 265.941C258.54 266.981 257.75 267.911 256.86 268.541L256.7 268.621C256.61 268.681 256.54 268.751 256.45 268.791L54.41 385.421C53.32 386.031 52.38 386.111 51.69 385.751C51.08 385.441 50.65 384.791 50.51 383.861C50.48 383.641 50.46 383.401 50.46 383.151V228.271C50.46 225.771 52.43 224.191 54.9 224.781L139.85 256.051L150.98 258.691C153.45 259.261 156.63 258.081 158.08 256.031L170.97 238.071L257.3 106.821L257.74 106.211C259.2 104.181 260.4 104.561 260.4 107.081Z" fill="#FFE394"/>
<path opacity="0.7" d="M260.4 107.081V261.941C260.4 263.251 259.93 264.681 259.17 265.941C258.54 266.981 257.75 267.911 256.86 268.541L256.7 268.621C256.61 268.681 256.54 268.751 256.45 268.791L54.41 385.421C53.32 386.031 52.38 386.111 51.69 385.751C51.08 385.441 50.65 384.791 50.51 383.861C50.48 383.641 50.46 383.401 50.46 383.151V228.271C50.46 225.771 52.43 224.191 54.9 224.781L139.85 256.051L150.98 258.691C153.45 259.261 156.63 258.081 158.08 256.031L170.97 238.071L257.3 106.821L257.74 106.211C259.2 104.181 260.4 104.561 260.4 107.081Z" fill="white"/>
<path d="M254.72 264.521L167.58 236.561C160.72 233.511 152.45 236.011 148.45 242.401L144.99 240.391C148.99 234.031 156.03 231.671 164.11 234.281L254.72 264.521Z" fill="#FFE394"/>
<path opacity="0.8" d="M254.72 264.521L167.58 236.561C160.72 233.511 152.45 236.011 148.45 242.401L144.99 240.391C148.99 234.031 156.03 231.671 164.11 234.281L254.72 264.521Z" fill="white"/>
<path opacity="0.3" d="M256.45 268.79C256.54 268.74 256.62 268.68 256.71 268.62L256.86 268.53C257.76 267.91 258.55 266.98 259.17 265.95C259.92 264.71 260.38 263.29 260.4 262.02L170.98 238.09L230.86 283.57L256.45 268.79Z" fill="#FFE394"/>
<path d="M259.17 265.95C258.55 266.98 257.76 267.91 256.86 268.53L256.71 268.62L54.4202 385.42L54.3902 385.44C53.3402 386.03 52.4002 386.11 51.7002 385.74L148.45 242.35C152.46 235.95 160.56 233.46 167.47 236.51L259.18 265.93L259.17 265.95Z" fill="#FFE394"/>
<path opacity="0.7" d="M259.17 265.95C258.55 266.98 257.76 267.91 256.86 268.53H256.88L54.5902 385.34L54.3902 385.44C53.3402 386.03 52.4002 386.11 51.7002 385.74L148.45 242.35C152.46 235.95 160.56 233.46 167.47 236.51L259.18 265.93L259.17 265.95Z" fill="white"/>
<path opacity="0.5" d="M38.8401 202.27L42.0501 204.13C41.5901 205.64 41.3101 207.18 41.3101 208.44V218.45L38.1001 216.59V206.56C38.1001 205.32 38.3801 203.77 38.8401 202.26V202.27Z" fill="white"/>
<path d="M55.7303 223.07L52.5203 224.93L49.2803 223.05L41.3003 218.46L44.4003 216.62L55.7303 223.07Z" fill="#FFE394"/>
<path opacity="0.4" d="M55.8703 223.14L44.4003 216.62L41.3003 218.46L49.2803 223.06L52.5203 224.93L52.5503 224.91C52.7403 224.82 52.9503 224.76 53.1603 224.72C53.7003 224.63 54.2803 224.64 54.8903 224.78L61.3503 227.16L135.53 254.47L136.66 252.74L55.8603 223.14H55.8703Z" fill="white"/>
<path d="M148.42 242.391L51.6802 385.751C50.9202 385.361 50.4502 384.461 50.4502 383.151V380.581L144.95 240.441C144.95 240.421 144.97 240.411 144.98 240.391L148.41 242.391H148.42Z" fill="#FFE394"/>
<path opacity="0.5" d="M148.42 242.391L51.6802 385.751C50.9202 385.361 50.4502 384.461 50.4502 383.151V380.581L144.95 240.441C144.95 240.421 144.97 240.411 144.98 240.391L148.41 242.391H148.42Z" fill="white"/>
<path d="M359.39 292.25V297.07L171.73 405.41L169.64 404.21C143.91 389.35 127.93 361.66 127.93 331.95V108.34L315.58 0L319.76 2.41V223.61C319.76 251.91 334.87 278.09 359.39 292.24V292.25Z" fill="#F0F0F0"/>
<path d="M171.73 400.06C147.57 385.99 132.57 359.93 132.57 331.96V111.02L319.3 3.20996V223.62C319.3 251.74 334.29 277.96 358.48 292.25L171.74 400.06H171.73Z" fill="#FAFAFA"/>
<path d="M318.84 4.01016V223.61C318.84 251.63 333.64 277.78 357.57 292.24L171.74 399.52C147.86 385.51 133.04 359.67 133.04 331.95V111.28L318.84 4.01016ZM319.76 2.41016L132.11 110.75V331.95C132.11 360.27 147.22 386.43 171.73 400.58L359.39 292.24C334.86 278.08 319.76 251.91 319.76 223.61V2.41016Z" fill="#E0E0E0"/>
<path d="M132.11 331.96V110.75L127.93 108.34V331.96C127.93 361.67 143.91 389.36 169.64 404.22L171.73 405.42V400.6C147.22 386.44 132.11 360.28 132.11 331.97V331.96Z" fill="#E0E0E0"/>
<path opacity="0.15" d="M171.73 400.59V405.41L359.39 297.07V292.25L171.73 400.59Z" fill="black"/>
<path d="M200.81 144.25C200.9 144.2 200.98 144.2 201.04 144.27C201.1 144.33 201.14 144.43 201.14 144.57V145.91C201.14 146.05 201.11 146.19 201.04 146.33C200.97 146.47 200.9 146.56 200.81 146.62L195.43 149.73C195.34 149.78 195.26 149.78 195.2 149.71C195.13 149.65 195.1 149.55 195.1 149.41V137.19C195.1 137.05 195.13 136.91 195.2 136.77C195.27 136.63 195.34 136.54 195.43 136.48L196.43 135.91C196.52 135.86 196.6 135.86 196.66 135.93C196.72 135.99 196.76 136.09 196.76 136.23V146.6L200.82 144.26L200.81 144.25Z" fill="#455A64"/>
<path d="M208.05 140.07C208.14 140.02 208.22 140.02 208.28 140.09C208.35 140.15 208.38 140.25 208.38 140.39V141.73C208.38 141.87 208.35 142.01 208.28 142.15C208.21 142.29 208.14 142.38 208.05 142.44L202.66 145.55C202.57 145.6 202.49 145.6 202.43 145.53C202.36 145.47 202.33 145.37 202.33 145.23V133.01C202.33 132.87 202.36 132.73 202.43 132.59C202.49 132.45 202.57 132.36 202.66 132.3L207.96 129.24C208.05 129.19 208.13 129.19 208.19 129.26C208.25 129.32 208.29 129.42 208.29 129.56V130.9C208.29 131.04 208.26 131.18 208.19 131.32C208.12 131.46 208.05 131.55 207.96 131.61L203.99 133.9V136.91L207.69 134.77C207.78 134.72 207.86 134.72 207.92 134.79C207.99 134.85 208.02 134.95 208.02 135.09V136.43C208.02 136.57 207.99 136.71 207.92 136.85C207.85 136.99 207.78 137.08 207.69 137.14L203.99 139.28V142.42L208.06 140.07H208.05Z" fill="#455A64"/>
<path d="M215.63 124.81C215.72 124.76 215.8 124.76 215.86 124.83C215.93 124.89 215.96 124.99 215.96 125.13V126.47C215.96 126.61 215.93 126.75 215.86 126.89C215.79 127.03 215.72 127.12 215.63 127.18L213.42 128.46V138.83C213.42 138.97 213.39 139.11 213.32 139.25C213.25 139.39 213.18 139.48 213.09 139.54L212.09 140.11C212 140.16 211.92 140.16 211.86 140.09C211.79 140.03 211.76 139.93 211.76 139.79V129.42L209.55 130.7C209.46 130.75 209.38 130.75 209.32 130.68C209.25 130.62 209.22 130.52 209.22 130.38V129.04C209.22 128.9 209.25 128.76 209.32 128.62C209.38 128.48 209.46 128.39 209.55 128.33L215.63 124.82V124.81Z" fill="#455A64"/>
<path d="M222.92 120.61C223.01 120.56 223.09 120.56 223.15 120.63C223.21 120.69 223.25 120.79 223.25 120.93V122.27C223.25 122.41 223.22 122.55 223.15 122.69C223.08 122.83 223.01 122.92 222.92 122.98L220.71 124.26V134.63C220.71 134.77 220.68 134.91 220.61 135.05C220.54 135.19 220.47 135.28 220.38 135.34L219.38 135.91C219.29 135.96 219.21 135.96 219.15 135.89C219.08 135.83 219.05 135.73 219.05 135.59V125.22L216.84 126.5C216.75 126.55 216.67 126.55 216.61 126.48C216.54 126.42 216.51 126.32 216.51 126.18V124.84C216.51 124.7 216.54 124.56 216.61 124.42C216.68 124.28 216.75 124.19 216.84 124.13L222.92 120.62V120.61Z" fill="#455A64"/>
<path d="M230.21 127.28C230.3 127.23 230.38 127.23 230.44 127.3C230.51 127.36 230.54 127.46 230.54 127.6V128.94C230.54 129.08 230.51 129.22 230.44 129.36C230.37 129.5 230.3 129.59 230.21 129.65L224.82 132.76C224.73 132.81 224.65 132.81 224.59 132.74C224.52 132.68 224.49 132.58 224.49 132.44V120.22C224.49 120.08 224.52 119.94 224.59 119.8C224.65 119.66 224.73 119.57 224.82 119.51L230.12 116.45C230.21 116.4 230.29 116.4 230.35 116.47C230.41 116.53 230.45 116.63 230.45 116.77V118.11C230.45 118.25 230.42 118.39 230.35 118.53C230.28 118.67 230.21 118.76 230.12 118.82L226.15 121.11V124.12L229.85 121.98C229.94 121.93 230.02 121.93 230.08 122C230.15 122.06 230.18 122.16 230.18 122.3V123.64C230.18 123.78 230.15 123.92 230.08 124.06C230.01 124.2 229.94 124.29 229.85 124.35L226.15 126.49V129.63L230.22 127.28H230.21Z" fill="#455A64"/>
<path d="M235.56 113.31C236.58 112.72 237.36 112.63 237.9 113.06C238.43 113.49 238.7 114.35 238.7 115.65C238.7 116.57 238.56 117.44 238.29 118.24C238.02 119.05 237.61 119.76 237.08 120.39L238.78 124.08C238.81 124.14 238.82 124.2 238.82 124.27C238.82 124.38 238.79 124.5 238.74 124.61C238.69 124.72 238.62 124.8 238.55 124.84L237.51 125.44C237.35 125.53 237.23 125.54 237.15 125.47C237.07 125.4 237.02 125.32 236.98 125.23L235.37 121.75L233.74 122.69V127.1C233.74 127.24 233.71 127.38 233.64 127.52C233.57 127.66 233.5 127.75 233.41 127.81L232.41 128.38C232.32 128.43 232.24 128.43 232.18 128.36C232.11 128.3 232.08 128.2 232.08 128.06V115.84C232.08 115.7 232.11 115.56 232.18 115.42C232.24 115.28 232.32 115.19 232.41 115.13L235.58 113.3L235.56 113.31ZM233.72 120.33L235.5 119.3C235.97 119.03 236.34 118.69 236.62 118.28C236.9 117.87 237.04 117.31 237.04 116.6C237.04 115.89 236.9 115.5 236.62 115.42C236.34 115.34 235.97 115.44 235.5 115.71L233.72 116.74V120.34V120.33Z" fill="#455A64"/>
<path d="M242.8 114.06C242.82 113.34 242.91 112.62 243.06 111.91C243.21 111.2 243.44 110.53 243.73 109.9C244.02 109.27 244.39 108.69 244.84 108.16C245.28 107.63 245.81 107.2 246.41 106.85C247.01 106.5 247.53 106.34 247.97 106.35C248.41 106.35 248.78 106.51 249.08 106.81C249.38 107.11 249.6 107.52 249.76 108.05C249.92 108.58 250.01 109.19 250.03 109.9C250.03 110.14 250.04 110.4 250.05 110.68C250.05 110.97 250.05 111.27 250.05 111.58C250.05 111.89 250.05 112.19 250.05 112.48C250.05 112.77 250.05 113.04 250.03 113.29C250.01 114.01 249.92 114.73 249.77 115.44C249.62 116.15 249.39 116.82 249.1 117.45C248.81 118.08 248.43 118.66 247.99 119.18C247.54 119.7 247.02 120.14 246.42 120.48C245.81 120.83 245.29 121 244.85 120.99C244.41 120.99 244.04 120.83 243.74 120.54C243.45 120.25 243.22 119.84 243.07 119.3C242.92 118.76 242.83 118.15 242.81 117.46C242.81 117.22 242.8 116.96 242.79 116.68C242.79 116.39 242.79 116.09 242.79 115.78C242.79 115.47 242.79 115.17 242.79 114.88C242.79 114.59 242.79 114.32 242.81 114.07L242.8 114.06ZM248.37 110.94C248.34 110.05 248.15 109.46 247.8 109.16C247.45 108.86 246.99 108.88 246.42 109.21C245.85 109.54 245.39 110.06 245.04 110.75C244.69 111.45 244.5 112.26 244.47 113.19C244.45 113.68 244.45 114.22 244.45 114.8C244.45 115.38 244.45 115.92 244.47 116.39C244.5 117.28 244.69 117.87 245.04 118.16C245.39 118.45 245.85 118.43 246.42 118.1C246.99 117.77 247.46 117.26 247.8 116.56C248.15 115.87 248.34 115.06 248.37 114.13C248.39 113.64 248.39 113.1 248.39 112.52C248.39 111.94 248.39 111.41 248.37 110.94Z" fill="#455A64"/>
<path d="M257.23 100.8C257.32 100.75 257.4 100.75 257.46 100.82C257.53 100.88 257.56 100.98 257.56 101.12V102.46C257.56 102.6 257.53 102.74 257.46 102.88C257.39 103.02 257.32 103.11 257.23 103.17L253.31 105.43V109.1L256.98 106.98C257.07 106.93 257.15 106.93 257.21 107C257.28 107.06 257.31 107.16 257.31 107.3V108.64C257.31 108.78 257.28 108.92 257.21 109.06C257.14 109.2 257.07 109.29 256.98 109.35L253.31 111.47V115.8C253.31 115.94 253.28 116.08 253.21 116.22C253.14 116.36 253.07 116.45 252.98 116.51L251.98 117.08C251.89 117.13 251.81 117.13 251.75 117.06C251.68 117 251.65 116.9 251.65 116.76V104.54C251.65 104.4 251.68 104.26 251.75 104.12C251.82 103.98 251.89 103.89 251.98 103.83L257.23 100.8Z" fill="#455A64"/>
<path d="M173.8 172.7C174.82 172.11 175.6 172.02 176.13 172.45C176.66 172.88 176.93 173.74 176.93 175.04C176.93 175.96 176.79 176.83 176.52 177.63C176.25 178.44 175.84 179.15 175.31 179.78L177.01 183.47C177.04 183.53 177.05 183.59 177.05 183.66C177.05 183.77 177.02 183.89 176.97 184C176.92 184.11 176.85 184.19 176.78 184.23L175.74 184.83C175.58 184.92 175.46 184.93 175.38 184.86C175.3 184.79 175.25 184.71 175.21 184.62L173.6 181.14L171.97 182.08V186.49C171.97 186.63 171.94 186.77 171.87 186.91C171.8 187.05 171.73 187.14 171.64 187.2L170.64 187.77C170.55 187.82 170.47 187.82 170.41 187.75C170.34 187.69 170.31 187.59 170.31 187.45V175.23C170.31 175.09 170.34 174.95 170.41 174.81C170.48 174.67 170.55 174.58 170.64 174.52L173.81 172.69L173.8 172.7ZM171.96 179.72L173.74 178.69C174.21 178.42 174.58 178.08 174.86 177.67C175.14 177.26 175.28 176.7 175.28 175.99C175.28 175.28 175.14 174.89 174.86 174.81C174.58 174.73 174.21 174.83 173.74 175.1L171.96 176.13V179.73V179.72Z" fill="#455A64"/>
<path d="M184.26 177.54C184.35 177.49 184.43 177.5 184.49 177.56C184.56 177.62 184.59 177.72 184.59 177.86V179.2C184.59 179.34 184.56 179.48 184.49 179.62C184.42 179.76 184.35 179.85 184.26 179.91L178.87 183.03C178.78 183.08 178.7 183.08 178.64 183.01C178.57 182.95 178.54 182.85 178.54 182.71V170.49C178.54 170.35 178.57 170.21 178.64 170.07C178.7 169.93 178.78 169.84 178.87 169.78L184.17 166.72C184.26 166.67 184.34 166.67 184.4 166.74C184.46 166.8 184.5 166.9 184.5 167.04V168.38C184.5 168.52 184.47 168.66 184.4 168.8C184.33 168.94 184.26 169.03 184.17 169.09L180.2 171.38V174.39L183.9 172.25C183.99 172.2 184.07 172.21 184.13 172.27C184.2 172.33 184.23 172.43 184.23 172.57V173.91C184.23 174.05 184.2 174.19 184.13 174.33C184.06 174.47 183.99 174.56 183.9 174.62L180.2 176.76V179.9L184.27 177.55L184.26 177.54Z" fill="#455A64"/>
<path d="M191.33 171.63C191.35 171.46 191.39 171.31 191.46 171.19C191.53 171.07 191.61 170.98 191.69 170.94L192.69 170.36C192.78 170.31 192.86 170.31 192.93 170.36C193 170.41 193.03 170.52 193.02 170.68C193 171.21 192.91 171.78 192.77 172.38C192.63 172.98 192.41 173.57 192.11 174.16C191.82 174.75 191.44 175.3 190.99 175.83C190.54 176.35 189.99 176.8 189.36 177.17C188.8 177.5 188.3 177.66 187.86 177.65C187.42 177.65 187.06 177.5 186.75 177.21C186.45 176.93 186.21 176.51 186.04 175.96C185.87 175.41 185.77 174.77 185.74 174.03C185.72 173.56 185.72 173.03 185.72 172.45C185.72 171.87 185.72 171.33 185.74 170.85C185.77 170.07 185.87 169.32 186.04 168.58C186.21 167.84 186.44 167.15 186.75 166.52C187.05 165.89 187.42 165.31 187.86 164.8C188.29 164.29 188.79 163.87 189.36 163.55C190 163.18 190.54 163 190.99 163C191.44 163 191.81 163.13 192.11 163.38C192.4 163.63 192.62 163.97 192.77 164.41C192.91 164.85 193 165.32 193.02 165.81C193.02 165.96 193 166.1 192.93 166.23C192.86 166.37 192.78 166.46 192.69 166.51L191.69 167.09C191.61 167.14 191.53 167.14 191.46 167.1C191.39 167.06 191.34 166.96 191.33 166.81C191.31 166.57 191.25 166.36 191.16 166.17C191.07 165.98 190.95 165.84 190.79 165.74C190.63 165.64 190.44 165.6 190.2 165.62C189.96 165.64 189.68 165.74 189.36 165.92C189.04 166.1 188.76 166.34 188.52 166.63C188.28 166.92 188.08 167.24 187.92 167.58C187.76 167.92 187.64 168.3 187.55 168.7C187.46 169.1 187.41 169.51 187.4 169.91C187.38 170.4 187.38 170.93 187.38 171.51C187.38 172.09 187.38 172.62 187.4 173.08C187.42 173.47 187.47 173.82 187.55 174.12C187.64 174.42 187.76 174.65 187.92 174.81C188.08 174.97 188.28 175.06 188.52 175.07C188.76 175.08 189.04 175 189.36 174.82C189.68 174.64 189.96 174.41 190.2 174.16C190.44 173.9 190.64 173.63 190.8 173.35C190.96 173.07 191.09 172.78 191.18 172.49C191.27 172.2 191.33 171.92 191.35 171.65L191.33 171.63Z" fill="#455A64"/>
<path d="M194.16 165.89C194.18 165.17 194.27 164.45 194.42 163.74C194.57 163.03 194.8 162.36 195.09 161.73C195.39 161.1 195.75 160.52 196.2 159.99C196.65 159.46 197.17 159.03 197.77 158.68C198.37 158.33 198.89 158.17 199.33 158.18C199.77 158.18 200.14 158.34 200.44 158.64C200.74 158.94 200.96 159.35 201.12 159.88C201.28 160.41 201.37 161.02 201.39 161.73C201.39 161.96 201.4 162.23 201.41 162.51C201.41 162.8 201.41 163.1 201.41 163.41C201.41 163.72 201.41 164.02 201.41 164.31C201.41 164.6 201.41 164.87 201.39 165.11C201.37 165.83 201.28 166.55 201.13 167.26C200.98 167.97 200.75 168.64 200.46 169.27C200.17 169.9 199.79 170.48 199.35 171C198.9 171.52 198.38 171.96 197.78 172.3C197.17 172.65 196.65 172.82 196.21 172.81C195.77 172.81 195.4 172.65 195.1 172.36C194.81 172.07 194.58 171.66 194.43 171.12C194.28 170.58 194.19 169.97 194.17 169.28C194.17 169.05 194.16 168.78 194.15 168.5C194.15 168.21 194.15 167.91 194.15 167.6C194.15 167.29 194.15 166.99 194.15 166.7C194.15 166.41 194.15 166.14 194.17 165.9L194.16 165.89ZM199.73 162.77C199.7 161.88 199.51 161.29 199.16 160.99C198.81 160.69 198.35 160.71 197.78 161.04C197.21 161.37 196.75 161.89 196.4 162.58C196.05 163.28 195.86 164.09 195.83 165.02C195.81 165.51 195.81 166.05 195.81 166.63C195.81 167.21 195.81 167.75 195.83 168.21C195.86 169.1 196.05 169.69 196.4 169.98C196.75 170.27 197.21 170.25 197.78 169.92C198.35 169.59 198.82 169.08 199.16 168.38C199.51 167.69 199.7 166.88 199.73 165.95C199.75 165.46 199.75 164.92 199.75 164.34C199.75 163.76 199.75 163.22 199.73 162.76V162.77Z" fill="#455A64"/>
<path d="M207.03 160.27L209.37 152.68C209.4 152.6 209.46 152.47 209.54 152.28C209.62 152.1 209.74 151.96 209.9 151.86L210.74 151.38C210.83 151.33 210.91 151.33 210.97 151.4C211.03 151.46 211.07 151.56 211.07 151.7V163.92C211.07 164.06 211.04 164.2 210.97 164.34C210.9 164.48 210.83 164.57 210.74 164.63L209.74 165.21C209.65 165.26 209.57 165.26 209.51 165.19C209.44 165.13 209.41 165.03 209.41 164.89V157.49L207.81 162.67C207.77 162.79 207.71 162.93 207.64 163.08C207.57 163.23 207.47 163.34 207.36 163.4L206.72 163.77C206.61 163.84 206.51 163.84 206.44 163.77C206.37 163.71 206.31 163.63 206.27 163.56L204.67 160.22V167.62C204.67 167.76 204.64 167.9 204.57 168.04C204.5 168.18 204.43 168.27 204.34 168.33L203.34 168.9C203.25 168.95 203.17 168.95 203.11 168.88C203.04 168.82 203.01 168.72 203.01 168.58V156.36C203.01 156.22 203.04 156.08 203.11 155.94C203.17 155.8 203.25 155.71 203.34 155.65L204.17 155.17C204.33 155.08 204.45 155.08 204.53 155.17C204.61 155.26 204.66 155.33 204.7 155.38L207.03 160.28V160.27Z" fill="#455A64"/>
<path d="M217.01 154.51L219.35 146.92C219.38 146.84 219.44 146.71 219.52 146.52C219.6 146.34 219.72 146.2 219.88 146.1L220.72 145.62C220.81 145.57 220.89 145.57 220.95 145.64C221.02 145.7 221.05 145.8 221.05 145.94V158.16C221.05 158.3 221.02 158.44 220.95 158.58C220.88 158.72 220.81 158.81 220.72 158.87L219.72 159.45C219.63 159.5 219.55 159.5 219.49 159.43C219.42 159.37 219.39 159.27 219.39 159.13V151.73L217.79 156.91C217.75 157.03 217.69 157.17 217.62 157.32C217.55 157.47 217.45 157.58 217.34 157.64L216.7 158.01C216.59 158.08 216.49 158.08 216.42 158.01C216.35 157.95 216.29 157.87 216.25 157.8L214.65 154.47V161.87C214.65 162.01 214.62 162.15 214.55 162.29C214.48 162.43 214.41 162.52 214.32 162.58L213.32 163.15C213.23 163.2 213.15 163.2 213.09 163.13C213.02 163.07 212.99 162.97 212.99 162.83V150.61C212.99 150.47 213.02 150.33 213.09 150.19C213.16 150.05 213.23 149.96 213.32 149.9L214.16 149.42C214.32 149.33 214.44 149.33 214.52 149.42C214.6 149.51 214.65 149.58 214.69 149.63L217.02 154.53L217.01 154.51Z" fill="#455A64"/>
<path d="M228.69 151.89C228.78 151.84 228.86 151.84 228.92 151.91C228.98 151.97 229.02 152.07 229.02 152.21V153.55C229.02 153.69 228.99 153.83 228.92 153.97C228.85 154.11 228.78 154.2 228.69 154.26L223.29 157.37C223.2 157.42 223.12 157.42 223.06 157.35C222.99 157.29 222.96 157.19 222.96 157.05V144.83C222.96 144.69 222.99 144.55 223.06 144.41C223.13 144.27 223.2 144.18 223.29 144.12L228.59 141.06C228.68 141.01 228.76 141.01 228.82 141.08C228.89 141.14 228.92 141.24 228.92 141.38V142.72C228.92 142.86 228.89 143 228.82 143.14C228.75 143.28 228.68 143.37 228.59 143.43L224.62 145.72V148.73L228.32 146.6C228.41 146.55 228.49 146.55 228.55 146.62C228.62 146.68 228.65 146.78 228.65 146.92V148.26C228.65 148.4 228.62 148.54 228.55 148.68C228.48 148.82 228.41 148.91 228.32 148.97L224.62 151.1V154.24L228.69 151.89Z" fill="#455A64"/>
<path d="M236.12 149.97C235.98 150.05 235.87 150.06 235.8 149.98C235.73 149.91 235.67 149.85 235.64 149.81L232.2 143.93V151.73C232.2 151.87 232.17 152.01 232.1 152.15C232.03 152.29 231.96 152.38 231.87 152.44L230.87 153.01C230.78 153.06 230.7 153.06 230.64 152.99C230.57 152.93 230.54 152.83 230.54 152.69V140.47C230.54 140.33 230.57 140.19 230.64 140.05C230.71 139.91 230.78 139.82 230.87 139.76L231.73 139.26C231.87 139.18 231.98 139.17 232.05 139.25C232.12 139.32 232.18 139.38 232.21 139.42L235.65 145.3V137.5C235.65 137.36 235.68 137.22 235.75 137.08C235.82 136.94 235.89 136.85 235.98 136.79L236.98 136.22C237.07 136.17 237.15 136.17 237.21 136.24C237.27 136.3 237.31 136.4 237.31 136.54V148.76C237.31 148.9 237.28 149.04 237.21 149.18C237.14 149.32 237.07 149.41 236.98 149.47L236.12 149.97Z" fill="#455A64"/>
<path d="M242.6 132.98C243.21 132.63 243.73 132.45 244.18 132.44C244.63 132.43 245 132.56 245.3 132.85C245.6 133.13 245.83 133.55 245.99 134.1C246.15 134.65 246.25 135.31 246.28 136.09C246.31 137 246.31 137.94 246.28 138.89C246.25 139.7 246.15 140.48 245.99 141.21C245.83 141.95 245.6 142.63 245.31 143.25C245.01 143.87 244.65 144.44 244.21 144.93C243.77 145.43 243.26 145.85 242.67 146.19L239.57 147.98C239.48 148.03 239.4 148.03 239.34 147.96C239.27 147.9 239.24 147.8 239.24 147.66V135.44C239.24 135.3 239.27 135.16 239.34 135.02C239.4 134.88 239.48 134.79 239.57 134.73L242.61 132.98H242.6ZM244.62 137.04C244.6 136.65 244.55 136.3 244.47 136C244.38 135.7 244.26 135.47 244.09 135.31C243.92 135.15 243.71 135.07 243.46 135.07C243.21 135.07 242.9 135.17 242.55 135.38L240.9 136.33V144.84L242.61 143.85C242.95 143.66 243.24 143.42 243.48 143.13C243.73 142.84 243.93 142.53 244.09 142.18C244.25 141.83 244.38 141.46 244.47 141.06C244.56 140.66 244.61 140.25 244.62 139.84C244.65 138.89 244.65 137.95 244.62 137.04Z" fill="#455A64"/>
<path d="M251.74 127.7C251.87 127.62 251.97 127.62 252.03 127.69C252.09 127.76 252.15 127.89 252.2 128.07L255.21 138.29C255.21 138.29 255.22 138.37 255.22 138.42C255.22 138.56 255.19 138.7 255.12 138.84C255.05 138.98 254.98 139.07 254.89 139.13L254 139.64C253.84 139.73 253.72 139.75 253.66 139.68C253.59 139.61 253.55 139.53 253.52 139.45L252.99 137.66L249.11 139.9L248.58 142.31C248.56 142.42 248.51 142.55 248.44 142.7C248.38 142.85 248.26 142.97 248.1 143.06L247.22 143.57C247.13 143.62 247.05 143.62 246.99 143.55C246.92 143.49 246.89 143.39 246.89 143.25C246.89 143.2 246.89 143.15 246.9 143.11L249.91 129.41C249.96 129.17 250.02 128.97 250.08 128.83C250.15 128.69 250.24 128.58 250.38 128.5L251.73 127.72L251.74 127.7ZM252.41 135.61L251.06 131L249.71 137.17L252.41 135.61Z" fill="#455A64"/>
<path d="M261.21 122.24C261.3 122.19 261.38 122.19 261.44 122.26C261.5 122.32 261.54 122.42 261.54 122.56V123.9C261.54 124.04 261.51 124.18 261.44 124.32C261.37 124.46 261.3 124.55 261.21 124.61L259 125.89V136.26C259 136.4 258.97 136.54 258.9 136.68C258.83 136.82 258.76 136.91 258.67 136.97L257.67 137.55C257.58 137.6 257.5 137.6 257.44 137.53C257.37 137.47 257.34 137.37 257.34 137.23V126.86L255.13 128.14C255.04 128.19 254.96 128.19 254.9 128.12C254.83 128.06 254.8 127.96 254.8 127.82V126.48C254.8 126.34 254.83 126.2 254.9 126.06C254.97 125.92 255.04 125.83 255.13 125.77L261.21 122.26V122.24Z" fill="#455A64"/>
<path d="M263.1 134.389C263.01 134.439 262.93 134.439 262.87 134.369C262.8 134.309 262.77 134.21 262.77 134.07V121.849C262.77 121.709 262.8 121.569 262.87 121.429C262.93 121.289 263.01 121.199 263.1 121.139L264.1 120.569C264.19 120.519 264.27 120.519 264.33 120.589C264.4 120.649 264.43 120.749 264.43 120.889V133.109C264.43 133.249 264.4 133.389 264.33 133.529C264.26 133.669 264.19 133.76 264.1 133.82L263.1 134.389Z" fill="#455A64"/>
<path d="M266.05 124.38C266.07 123.66 266.16 122.94 266.31 122.23C266.46 121.52 266.68 120.85 266.98 120.22C267.27 119.59 267.64 119.01 268.09 118.48C268.53 117.95 269.06 117.52 269.66 117.17C270.26 116.83 270.78 116.66 271.22 116.67C271.66 116.67 272.03 116.83 272.33 117.13C272.62 117.43 272.85 117.84 273.01 118.37C273.17 118.9 273.26 119.51 273.28 120.22C273.28 120.46 273.29 120.72 273.3 121.01C273.3 121.3 273.3 121.6 273.3 121.9C273.3 122.2 273.3 122.51 273.3 122.8C273.3 123.09 273.3 123.36 273.28 123.61C273.26 124.33 273.17 125.05 273.02 125.76C272.87 126.47 272.64 127.14 272.35 127.77C272.06 128.4 271.68 128.98 271.24 129.5C270.79 130.02 270.27 130.46 269.67 130.8C269.06 131.15 268.54 131.32 268.1 131.31C267.66 131.31 267.29 131.15 266.99 130.86C266.69 130.57 266.47 130.16 266.32 129.62C266.17 129.08 266.08 128.47 266.06 127.78C266.06 127.54 266.05 127.28 266.04 126.99C266.04 126.7 266.04 126.4 266.04 126.09C266.04 125.78 266.04 125.48 266.04 125.19C266.04 124.9 266.05 124.63 266.06 124.38H266.05ZM271.62 121.26C271.59 120.37 271.4 119.78 271.05 119.48C270.7 119.18 270.24 119.2 269.67 119.53C269.1 119.86 268.64 120.38 268.29 121.08C267.94 121.78 267.75 122.59 267.72 123.52C267.7 124.01 267.7 124.55 267.7 125.13C267.7 125.71 267.7 126.25 267.72 126.72C267.75 127.61 267.94 128.2 268.29 128.49C268.64 128.78 269.1 128.76 269.67 128.43C270.24 128.1 270.7 127.59 271.05 126.89C271.4 126.2 271.59 125.39 271.62 124.46C271.64 123.97 271.64 123.43 271.64 122.85C271.64 122.27 271.64 121.74 271.62 121.26Z" fill="#455A64"/>
<path d="M280.48 124.36C280.34 124.44 280.23 124.45 280.16 124.38C280.09 124.31 280.03 124.25 280 124.21L276.56 118.33V126.13C276.56 126.27 276.53 126.41 276.46 126.55C276.39 126.69 276.32 126.78 276.23 126.84L275.23 127.42C275.14 127.47 275.06 127.47 275 127.4C274.93 127.34 274.9 127.24 274.9 127.1V114.88C274.9 114.74 274.93 114.6 275 114.46C275.07 114.32 275.14 114.23 275.23 114.17L276.09 113.67C276.23 113.59 276.34 113.58 276.41 113.66C276.48 113.73 276.54 113.79 276.57 113.83L280.01 119.71V111.92C280.01 111.78 280.04 111.64 280.11 111.5C280.18 111.36 280.25 111.27 280.34 111.21L281.34 110.64C281.43 110.59 281.51 110.59 281.57 110.66C281.63 110.72 281.67 110.82 281.67 110.96V123.18C281.67 123.32 281.64 123.46 281.57 123.6C281.5 123.74 281.43 123.83 281.34 123.89L280.48 124.39V124.36Z" fill="#455A64"/>
<path d="M261.29 60.82L306.08 34.96C307.18 34.32 308.08 34.78 308.08 35.97C308.08 37.16 307.18 38.65 306.08 39.29L261.29 65.15C260.19 65.79 259.29 65.34 259.29 64.14C259.29 62.94 260.19 61.46 261.29 60.82Z" fill="#E0E0E0"/>
<path d="M261.29 78.1501L306.08 52.2901C307.18 51.6501 308.08 52.1101 308.08 53.3001C308.08 54.4901 307.18 55.9801 306.08 56.6201L261.29 82.4801C260.19 83.1201 259.29 82.6601 259.29 81.4701C259.29 80.2801 260.19 78.7901 261.29 78.1501Z" fill="#E0E0E0"/>
<path d="M278.05 59.8099L306.07 43.6299C307.17 42.9899 308.07 43.4499 308.07 44.6399C308.07 45.8299 307.17 47.3199 306.07 47.9599L278.05 64.1399C276.95 64.7799 276.05 64.3199 276.05 63.1299C276.05 61.9399 276.95 60.4499 278.05 59.8099Z" fill="#E0E0E0"/>
<path d="M154.2 215.21L300.57 130.71C301.67 130.07 302.57 130.53 302.57 131.72C302.57 132.91 301.67 134.4 300.57 135.04L154.2 219.54C153.1 220.18 152.2 219.72 152.2 218.53C152.2 217.34 153.1 215.85 154.2 215.21Z" fill="#E0E0E0"/>
<path d="M154.2 223.88L300.57 139.38C301.67 138.74 302.57 139.2 302.57 140.39C302.57 141.58 301.67 143.07 300.57 143.71L154.2 228.21C153.1 228.85 152.2 228.39 152.2 227.2C152.2 226.01 153.1 224.52 154.2 223.88Z" fill="#E0E0E0"/>
<path d="M154.2 232.54L300.57 148.04C301.67 147.4 302.57 147.86 302.57 149.05C302.57 150.24 301.67 151.73 300.57 152.37L154.2 236.87C153.1 237.51 152.2 237.05 152.2 235.86C152.2 234.67 153.1 233.18 154.2 232.54Z" fill="#E0E0E0"/>
<path d="M154.2 241.21L300.57 156.71C301.67 156.07 302.57 156.53 302.57 157.72C302.57 158.91 301.67 160.4 300.57 161.04L154.2 245.54C153.1 246.18 152.2 245.72 152.2 244.53C152.2 243.34 153.1 241.85 154.2 241.21Z" fill="#E0E0E0"/>
<path d="M303.13 259.25L159.95 341.9C159.07 342.41 158.07 342.04 157.76 341.07L157.72 340.94C157.41 339.97 157.89 338.76 158.77 338.25L301.95 255.59C302.83 255.08 303.78 255.46 304.09 256.43C304.11 256.48 304.12 256.52 304.14 256.57C304.46 257.54 304.02 258.73 303.13 259.25Z" fill="#E0E0E0"/>
<path d="M305.97 266.26L162.79 348.92C161.91 349.43 160.84 349.09 160.43 348.16L160.4 348.08C159.99 347.14 160.4 345.96 161.29 345.45L304.47 262.79C305.35 262.28 306.38 262.64 306.78 263.57C306.79 263.6 306.8 263.62 306.81 263.65C307.22 264.59 306.86 265.75 305.97 266.26Z" fill="#E0E0E0"/>
<path d="M154.2 301.97C154.11 301.97 154.02 301.95 153.95 301.9C153.79 301.81 153.69 301.64 153.69 301.46V284.55C153.69 284.37 153.79 284.2 153.95 284.11L168.49 275.71C168.65 275.62 168.84 275.62 169 275.71C169.16 275.8 169.26 275.97 169.26 276.15V293.06C169.26 293.24 169.16 293.41 169 293.5L154.46 301.89C154.38 301.93 154.29 301.96 154.21 301.96L154.2 301.97ZM154.71 284.85V300.58L168.23 292.77V277.04L154.71 284.85Z" fill="#455A64"/>
<path d="M175.73 273.271V274.441C175.73 275.071 176.17 275.331 176.72 275.011L225.97 246.581C226.52 246.261 226.96 245.491 226.96 244.861V243.691C226.96 243.061 226.52 242.801 225.97 243.121L176.72 271.551C176.17 271.871 175.73 272.641 175.73 273.271Z" fill="#E0E0E0"/>
<path d="M175.73 280.63V281.8C175.73 282.43 176.17 282.69 176.72 282.37L298.73 211.93C299.28 211.61 299.72 210.84 299.72 210.21V209.04C299.72 208.41 299.28 208.15 298.73 208.47L176.72 278.91C176.17 279.23 175.73 280 175.73 280.63Z" fill="#E0E0E0"/>
<path d="M175.73 287.64V288.81C175.73 289.44 176.17 289.7 176.72 289.38L298.73 218.94C299.28 218.62 299.72 217.85 299.72 217.22V216.05C299.72 215.42 299.28 215.16 298.73 215.48L176.72 285.92C176.17 286.24 175.73 287.01 175.73 287.64Z" fill="#E0E0E0"/>
<path d="M161.291 294.06L157.911 290.81L159.041 288.41L160.961 290.26L169.301 272.62L170.761 274.02L161.291 294.06Z" fill="#FFE394"/>
<path d="M154.2 327.97C154.11 327.97 154.02 327.95 153.95 327.9C153.79 327.81 153.69 327.64 153.69 327.46V310.55C153.69 310.37 153.79 310.2 153.95 310.11L168.49 301.71C168.65 301.62 168.84 301.62 169 301.71C169.16 301.8 169.26 301.97 169.26 302.15V319.06C169.26 319.24 169.16 319.41 169 319.5L154.46 327.89C154.38 327.93 154.29 327.96 154.21 327.96L154.2 327.97ZM154.71 310.85V326.58L168.23 318.78V303.05L154.71 310.86V310.85Z" fill="#455A64"/>
<path d="M175.73 299.271V300.441C175.73 301.071 176.17 301.331 176.72 301.011L225.97 272.581C226.52 272.261 226.96 271.491 226.96 270.861V269.691C226.96 269.061 226.52 268.801 225.97 269.121L176.72 297.551C176.17 297.871 175.73 298.641 175.73 299.271Z" fill="#E0E0E0"/>
<path d="M175.73 306.63V307.8C175.73 308.43 176.17 308.69 176.72 308.37L298.73 237.93C299.28 237.61 299.72 236.84 299.72 236.21V235.04C299.72 234.41 299.28 234.15 298.73 234.47L176.72 304.91C176.17 305.23 175.73 306 175.73 306.63Z" fill="#E0E0E0"/>
<path d="M175.73 313.64V314.81C175.73 315.44 176.17 315.7 176.72 315.38L298.73 244.94C299.28 244.62 299.72 243.85 299.72 243.22V242.05C299.72 241.42 299.28 241.16 298.73 241.48L176.72 311.92C176.17 312.24 175.73 313.01 175.73 313.64Z" fill="#E0E0E0"/>
<path d="M161.291 320.06L157.911 316.81L159.041 314.41L160.961 316.26L169.301 298.62L170.761 300.02L161.291 320.06Z" fill="#FFE394"/>
<path d="M154.2 275.97C154.11 275.97 154.02 275.95 153.95 275.9C153.79 275.81 153.69 275.64 153.69 275.46V258.55C153.69 258.37 153.79 258.2 153.95 258.11L168.49 249.72C168.65 249.63 168.84 249.63 169 249.72C169.16 249.81 169.26 249.98 169.26 250.16V267.07C169.26 267.25 169.16 267.42 169 267.51L154.46 275.9C154.38 275.94 154.29 275.97 154.21 275.97H154.2ZM154.71 258.85V274.58L168.23 266.78V251.05L154.71 258.86V258.85Z" fill="#455A64"/>
<path d="M175.73 247.271V248.441C175.73 249.071 176.17 249.331 176.72 249.011L225.97 220.581C226.52 220.261 226.96 219.491 226.96 218.861V217.691C226.96 217.061 226.52 216.801 225.97 217.121L176.72 245.551C176.17 245.871 175.73 246.641 175.73 247.271Z" fill="#E0E0E0"/>
<path d="M175.73 254.63V255.8C175.73 256.43 176.17 256.69 176.72 256.37L298.73 185.93C299.28 185.61 299.72 184.84 299.72 184.21V183.04C299.72 182.41 299.28 182.15 298.73 182.47L176.72 252.91C176.17 253.23 175.73 254 175.73 254.63Z" fill="#E0E0E0"/>
<path d="M175.73 261.64V262.81C175.73 263.44 176.17 263.7 176.72 263.38L298.73 192.94C299.28 192.62 299.72 191.85 299.72 191.22V190.05C299.72 189.42 299.28 189.16 298.73 189.48L176.72 259.92C176.17 260.24 175.73 261.01 175.73 261.64Z" fill="#E0E0E0"/>
<path d="M161.291 268.06L157.911 264.81L159.041 262.41L160.961 264.26L169.301 246.62L170.761 248.02L161.291 268.06Z" fill="#FFE394"/>
<path d="M179.277 132.779C185.871 121.358 185.87 109.012 179.274 105.204C172.678 101.396 161.986 107.568 155.392 118.989C148.797 130.411 148.798 142.757 155.394 146.565C161.99 150.373 172.682 144.201 179.277 132.779Z" fill="#455A64"/>
<path d="M167.34 145.39C171.26 143.13 174.85 139.5 177.72 135.26C176.45 134.92 175.13 134.71 173.42 134.57C171.33 134.4 168.71 134.54 166.55 135.31C163.24 136.5 161.43 137.87 158.67 139.98C155.99 142.03 155.04 143.61 154.27 145.79C157.37 148.37 162.07 148.44 167.34 145.4V145.39Z" fill="#FFE394"/>
<path opacity="0.6" d="M167.34 145.39C171.26 143.13 174.85 139.5 177.72 135.26C176.45 134.92 175.13 134.71 173.42 134.57C171.33 134.4 168.71 134.54 166.55 135.31C163.24 136.5 161.43 137.87 158.67 139.98C155.99 142.03 155.04 143.61 154.27 145.79C157.37 148.37 162.07 148.44 167.34 145.4V145.39Z" fill="white"/>
<path d="M176.57 118.1C176.74 117.88 176.88 117.64 176.98 117.38C177.24 116.69 177.19 115.91 176.8 115.41C177.08 115.11 177.36 114.81 177.57 114.45C177.78 114.09 177.9 113.67 177.82 113.3C177.69 112.65 177.03 112.39 176.44 112.22C176.85 112 177.22 111.62 177.54 111.17C177.81 110.79 178.04 110.07 177.87 109.69C176.68 110.05 175.46 110.2 174.29 110.15C172.7 110.08 171.17 109.77 169.55 109.86C167.92 109.95 166.24 110.34 164.66 111.09C161.61 112.54 159.47 114.8 159.45 117.44C158.04 118.07 156.74 121.77 158.42 125.11C160.18 128.62 162.84 131.11 163.11 133.1C164.4 131.56 165.68 130.03 166.97 128.49C168.41 126.77 169.86 125.04 171.3 123.32C171.97 122.52 172.64 121.72 173.31 120.92C173.6 120.58 173.89 120.23 174.18 119.89C174.6 119.39 175.01 119.23 175.55 118.95C175.94 118.75 176.29 118.46 176.57 118.09V118.1Z" fill="#263238"/>
<path d="M177.05 127.931C176.64 129.971 175.66 131.611 174.01 132.261C173.02 132.651 171.38 132.861 171.38 132.861V135.201C172.12 135.791 173.75 137.371 171.46 138.691C168.39 140.461 164.67 138.931 162.88 137.371L162.36 129.941C162.36 129.941 161.38 130.951 159.64 130.151C158.45 129.601 157.53 127.701 158.28 125.611C159.03 123.551 160.9 123.551 161.65 124.071C162.52 124.661 162.52 125.641 162.89 125.851C163.31 126.091 163.91 125.571 164.08 124.721C164.27 123.761 164.18 123.391 164.05 122.541C164.5 122.181 165.34 121.301 165.62 120.701C166.24 119.391 166.13 118.731 165.93 117.851C168.14 115.591 173.9 113.991 175.45 114.891C176.39 116.321 176.9 119.791 177.14 121.931C177.4 124.251 177.39 126.241 177.05 127.941V127.931Z" fill="#B16668"/>
<path d="M171.38 132.851C169.53 133.151 165.78 133.051 164.75 132.171C163.71 131.291 163.19 129.131 163.19 129.131C163.19 129.131 163.47 131.941 164.29 133.021C165.11 134.101 167.06 134.221 168.25 134.271C169.43 134.321 171.39 134.111 171.39 134.111V132.841L171.38 132.851Z" fill="#9A4A4D"/>
<path d="M169.73 122.611C169.75 123.071 169.44 123.511 169.03 123.601C168.62 123.691 168.27 123.401 168.25 122.941C168.23 122.481 168.54 122.041 168.95 121.951C169.36 121.861 169.71 122.151 169.73 122.611Z" fill="#263238"/>
<path d="M168.81 120.291L167.35 121.711C167.05 121.311 167.14 120.661 167.54 120.271C167.94 119.881 168.51 119.891 168.81 120.291Z" fill="#263238"/>
<path d="M175.7 119.071L174.01 118.591C174.19 118.041 174.72 117.711 175.18 117.841C175.65 117.971 175.88 118.521 175.7 119.071Z" fill="#263238"/>
<path d="M175.49 121.01C175.51 121.47 175.2 121.91 174.79 122C174.38 122.09 174.03 121.8 174.01 121.34C173.99 120.88 174.3 120.44 174.71 120.35C175.12 120.26 175.47 120.55 175.5 121.01H175.49Z" fill="#263238"/>
<path d="M171.19 121.021L172.43 126.221L174.96 124.521L171.19 121.021Z" fill="#9A4A4D"/>
<path d="M170.88 127.911L172.75 127.841C172.7 128.421 172.24 128.911 171.72 128.931C171.2 128.951 170.83 128.491 170.88 127.911Z" fill="#9A4A4D"/>
<path d="M385.76 80.8998L388.76 75.2698L386.35 68.3098V64.0498L393.73 68.3098V72.5698L390.56 78.0598C390.51 78.1498 390.43 78.2098 390.34 78.2498L385.76 80.8998Z" fill="#FFE394"/>
<path opacity="0.3" d="M385.76 80.8998L388.76 75.2698L386.35 68.3098V64.0498L393.73 68.3098V72.5698L390.56 78.0598C390.51 78.1498 390.43 78.2098 390.34 78.2498L385.76 80.8998Z" fill="black"/>
<path d="M372.52 32.7502C372.52 31.3402 373.51 29.6202 374.73 28.9202L376.53 27.8802C377.75 27.1702 379.73 27.1702 380.95 27.8802L403.39 40.8102C404.61 41.5202 405.6 43.2302 405.6 44.6402V75.0302C405.6 76.4402 404.61 78.1602 403.39 78.8602L401.59 79.9002C400.37 80.6102 398.39 80.6102 397.17 79.9002L389.09 75.2502L385.92 80.7302C385.72 81.0802 385.2 81.0302 385.06 80.6502L381.71 70.9902L374.72 66.9702C373.5 66.2702 372.51 64.5502 372.51 63.1402V32.7502H372.52Z" fill="#FFE394"/>
<path opacity="0.3" d="M405.61 75.03C405.61 76.44 404.62 78.16 403.4 78.86L401.6 79.9C400.5 80.54 398.78 80.59 397.55 80.08C398.59 80.47 399.38 79.89 399.38 78.62V48.23C399.38 47.52 399.13 46.74 398.73 46.05L404.95 42.46C405.35 43.15 405.6 43.93 405.6 44.64V75.03H405.61Z" fill="black"/>
<path opacity="0.3" d="M372.59 32.1205C372.85 31.1805 373.7 30.8805 374.73 31.4705L397.17 44.4005C397.78 44.7505 398.34 45.3505 398.73 46.0505L404.95 42.4605C404.55 41.7605 404 41.1605 403.39 40.8105L380.96 27.8805C379.73 27.1805 377.75 27.1805 376.53 27.8805L374.72 28.9205C373.68 29.5205 372.8 30.8605 372.58 32.1205H372.59Z" fill="white"/>
<path d="M382.81 65.3499C382.72 65.3499 382.63 65.3499 382.54 65.3299C381.87 65.2399 381.29 64.8099 381 64.1999L377.02 55.7299C376.55 54.7299 376.98 53.5399 377.98 53.0699C378.98 52.5999 380.17 53.0299 380.64 54.0299L383.31 59.6999L392.49 49.0099C393.21 48.1699 394.47 48.0799 395.31 48.7999C396.15 49.5199 396.24 50.7799 395.52 51.6199L384.32 64.6599C383.94 65.0999 383.38 65.3599 382.8 65.3599L382.81 65.3499Z" fill="#FAFAFA"/>
<path d="M83.0301 138.19L67.8101 147L73.8501 160.59C73.9801 160.89 74.1901 161.1 74.4301 161.24C75.1501 161.65 79.4201 164.12 79.6601 164.26C80.3801 164.68 81.4201 164.38 81.7001 163.45L88.2601 141.23L83.0201 138.21L83.0301 138.19Z" fill="#263238"/>
<path d="M104.5 45.2002L41.6402 81.4902C40.8402 81.9502 40.2002 83.0702 40.2002 83.9902V161.24C40.2002 162.16 40.8502 163.27 41.6502 163.72L46.8202 166.62C47.6202 167.07 48.9202 167.07 49.7102 166.61L112.57 130.32C113.37 129.86 114.01 128.74 114.01 127.82V50.5602C114.01 49.6402 113.36 48.5302 112.56 48.0702L107.39 45.1702C106.59 44.7202 105.29 44.7202 104.5 45.1802V45.2002Z" fill="#263238"/>
<path d="M113.99 50.2999C113.88 49.5699 113.28 49.3099 112.56 49.7299L49.7004 86.0199C49.3004 86.2499 48.9404 86.6499 48.6804 87.0999L40.6304 82.5099C40.8904 82.0799 41.2404 81.6999 41.6204 81.4799L104.48 45.1899C105.27 44.7299 106.57 44.7199 107.37 45.1799L112.54 48.0799C113.27 48.4899 113.87 49.4499 113.97 50.3099L113.99 50.2999Z" fill="#455A64"/>
<path d="M112.57 49.7299L49.71 86.0198C48.91 86.4798 48.27 87.5998 48.27 88.5198V165.77C48.27 166.69 48.92 167.06 49.71 166.6L74.15 152.49L79.1 163.62C79.63 164.8 81.34 164.69 81.71 163.45L87.16 144.98L112.57 130.31C113.37 129.85 114.01 128.73 114.01 127.81V50.5599C114.01 49.6399 113.36 49.2699 112.57 49.7299Z" fill="#37474F"/>
<path d="M67.9203 107.68L60.8103 111.75C60.2403 112.08 59.7803 112.87 59.7803 113.53L59.8203 143.08C59.8203 143.74 60.2803 144 60.8503 143.67L67.9303 139.58C68.5003 139.25 68.9603 138.45 68.9603 137.8V108.28C68.9603 107.62 68.5003 107.36 67.9303 107.68H67.9203ZM99.8103 101.7C101.74 100.13 102.9 97.4003 102.9 95.4703C102.9 92.0703 100.38 92.8303 100.38 92.8303C101.07 91.9703 102.42 89.8303 102.42 87.3603C102.42 86.3103 102.02 85.0802 101.09 84.6302C100.52 84.3202 99.6903 84.3502 98.6403 84.9602L85.9503 92.2802C86.5403 89.3302 86.7103 86.8103 86.3803 84.4803C86.1703 82.9603 85.7603 81.5103 85.1203 80.1103C84.8103 79.4203 84.3803 78.9903 83.8803 78.7503C81.6903 77.6803 78.2503 80.1802 78.2503 81.2002C78.2503 82.4802 78.8003 89.1403 78.2503 91.0403C77.7303 92.9403 71.9503 106.09 71.9503 106.09L71.9703 133.5C71.9703 133.5 90.2303 122.95 92.9603 121.35C95.7203 119.76 97.6403 116.36 97.6203 114.08C97.6203 112.15 97.1003 111.04 97.1003 111.04C98.8603 110.02 100.64 106.29 100.64 104.72C100.64 102.34 99.8103 101.7 99.8103 101.7Z" fill="#FFE394"/>
<path opacity="0.8" d="M67.9203 107.68L60.8103 111.75C60.2403 112.08 59.7803 112.87 59.7803 113.53L59.8203 143.08C59.8203 143.74 60.2803 144 60.8503 143.67L67.9303 139.58C68.5003 139.25 68.9603 138.45 68.9603 137.8V108.28C68.9603 107.62 68.5003 107.36 67.9303 107.68H67.9203ZM99.8103 101.7C101.74 100.13 102.9 97.4003 102.9 95.4703C102.9 92.0703 100.38 92.8303 100.38 92.8303C101.07 91.9703 102.42 89.8303 102.42 87.3603C102.42 86.3103 102.02 85.0802 101.09 84.6302C100.52 84.3202 99.6903 84.3502 98.6403 84.9602L85.9503 92.2802C86.5403 89.3302 86.7103 86.8103 86.3803 84.4803C86.1703 82.9603 85.7603 81.5103 85.1203 80.1103C84.8103 79.4203 84.3803 78.9903 83.8803 78.7503C81.6903 77.6803 78.2503 80.1802 78.2503 81.2002C78.2503 82.4802 78.8003 89.1403 78.2503 91.0403C77.7303 92.9403 71.9503 106.09 71.9503 106.09L71.9703 133.5C71.9703 133.5 90.2303 122.95 92.9603 121.35C95.7203 119.76 97.6403 116.36 97.6203 114.08C97.6203 112.15 97.1003 111.04 97.1003 111.04C98.8603 110.02 100.64 106.29 100.64 104.72C100.64 102.34 99.8103 101.7 99.8103 101.7Z" fill="white"/>
<path d="M419.08 356.531C419.43 358.661 420.11 361.121 420.64 365.481C421.16 369.751 420.22 369.991 422.84 380.911C424.41 387.471 424.05 390.051 419.95 395.471C415.56 401.261 411.13 399.981 408.35 393.391C405.98 387.761 406.18 385.171 406.29 379.391C406.4 373.611 406.37 371.921 406.2 367.331C406.05 363.291 406.44 360.531 406.25 357.431L419.07 356.541L419.08 356.531Z" fill="#37474F"/>
<path d="M420.07 372.391C419.39 366.771 419.32 360.971 419.11 357.171C418.63 348.671 420.7 331.951 419.75 319.171L398.29 316.551C398.91 321.541 404.39 344.151 406.27 357.771C406.27 357.771 406.74 376.211 407.76 384.351C407.89 385.381 408.97 386.031 409.92 385.601C412.87 384.271 416.93 384.181 419.67 385.171C420.69 385.541 421.77 384.821 421.78 383.731C421.79 380.731 420.59 376.601 420.08 372.391H420.07Z" fill="#FFA8A7"/>
<path d="M361.22 319.65C361.3 337.31 361.12 352.95 360.5 357.53C359.87 362.11 359.61 363.66 358.43 366.87C357.25 370.08 355.29 374.34 353.53 376.41C353.53 376.41 348.48 381.79 349.61 382.35C350.73 382.91 361.3 384.02 366.04 382.59C370.77 381.16 371.28 377.15 372.89 369.82C374.5 362.49 375.89 351.78 375.89 351.78C375.89 351.78 375.69 351.5 375.4 350.54C374.77 348.43 376.7 342.93 377.18 337.61L361.22 319.66V319.65Z" fill="#FFA8A7"/>
<path d="M380.58 362.72C380.27 364.43 378.8 366.37 378.14 369.03C377.48 371.7 376.97 374.48 376.76 378.29C376.55 382.1 376.52 382.65 376.52 382.65L375.34 382.58C375.34 382.58 375.64 377.06 375.78 374.64C375.91 372.22 375.78 370.44 374.63 370.11C374.63 370.11 374.86 362.39 380.59 362.71L380.58 362.72Z" fill="#263238"/>
<path d="M375.69 350.78C376.46 352.8 379.03 355.65 380.13 357.58C380.77 358.7 381 359.9 381.03 360.9C381.07 361.87 380.68 362.81 379.98 363.5C378.99 364.48 377.39 366.11 376.3 367.57C374.85 369.51 372.14 374.04 371.39 377.24C370.64 380.44 370.2 383.26 367.45 384.85C365.31 386.09 356.51 387.82 352.06 388.1C345.99 388.49 344.42 385.56 346.69 383.23C348.96 380.9 352.82 376.9 353.52 376.4C353.52 376.4 356.25 375.94 359.17 377.19C362.57 378.65 363.65 380.63 367.23 378.85C370.46 377.24 371.75 371.26 371.48 362.65C371.17 352.88 375.68 350.79 375.68 350.79L375.69 350.78Z" fill="#37474F"/>
<path d="M405.43 194.811C405.82 197.031 406.27 199.111 407.06 200.221C411.9 207.011 416.82 215.221 417.64 227.831C419.61 258.251 417.91 287.591 417.91 287.591C418.12 290.281 420.15 296.801 420.44 312.131C420.67 324.351 419.85 343.331 419.85 343.331C419.85 343.331 411.08 347.571 403.47 344.651C400.48 332.981 395.52 304.951 392.58 291.601C389.48 277.531 387.68 266.701 387.68 266.701L384.7 289.751C384.7 289.751 385.58 296.541 384.5 305.621C383.53 313.771 376.89 342.511 376.89 342.511C376.89 342.511 367.16 345.471 360.62 340.881C360.62 340.881 360.06 300.201 360.05 291.221C360.05 282.241 358.14 224.471 363.79 201.031C364.05 199.941 364.15 195.571 364.15 195.571C370.55 200.911 396.83 200.541 405.42 194.821L405.43 194.811Z" fill="#37474F"/>
<path d="M420.04 339.101C416.7 342.141 406.5 342.891 402.51 340.741L403.72 347.091C403.72 347.091 406.35 348.891 412.15 348.401C418 347.911 419.81 345.601 419.81 345.601L420.04 339.101Z" fill="#455A64"/>
<path d="M377.88 338.471C374.42 339.611 364.15 339.011 360.39 336.671L360.55 342.121C360.55 342.121 362.67 344.161 368.45 344.771C374.26 345.391 376.76 343.771 376.76 343.771L377.88 338.461V338.471Z" fill="#455A64"/>
<path d="M387.69 266.69L382.54 230.66C382.54 230.66 373.73 231.31 367.35 223.33C367.35 223.33 367.1 230.85 379.46 234.31L385.18 264.72L384.71 289.74L387.69 266.69Z" fill="#263238"/>
<path d="M363.87 200.58C363.87 200.58 370.09 205.32 384.79 204.71C399.49 204.1 406.61 199.46 406.52 199.21C406.1 198.19 405.8 196.83 405.53 195.38C405.48 195.16 405.45 194.96 405.43 194.82C396.84 200.54 370.56 200.91 364.16 195.57C364.16 195.57 364.08 199.08 363.88 200.59L363.87 200.58Z" fill="#263238"/>
<path d="M395.51 200.261C393.82 203.781 391.31 211.141 391.11 216.201C394.69 218.031 398.68 217.891 398.68 217.891C398.68 217.891 399.69 209.031 398.07 201.461L395.5 200.261H395.51Z" fill="#263238"/>
<path d="M399.81 198.33C402.42 201.23 406.89 207.6 408.48 212.4C405.55 215.15 401.68 216.14 401.68 216.14C401.68 216.14 398.23 207.92 397.67 200.19L399.8 198.32L399.81 198.33Z" fill="#263238"/>
<path d="M366.63 151.209C360.23 155.469 345.27 165.839 340.81 169.139C340.81 169.139 325.72 161.379 320.13 158.039C317.67 156.569 317.13 155.679 316.79 154.589C316.24 152.809 315.98 151.779 315.22 150.369C314.39 148.839 313.95 148.329 312.97 146.399C311.99 144.469 310.93 140.489 311.11 138.659C310.55 137.859 308.47 138.039 307.8 140.279C307.13 142.519 307.69 144.879 307.87 145.979C308.06 147.209 308.39 148.499 308.04 148.739C307.69 148.979 305.84 148.259 304.03 148.029C302.22 147.799 300.58 147.199 298.69 147.989C296.8 148.779 297.09 150.589 297.41 151.219C297.75 151.879 298.58 152.289 298.58 152.289C298.58 152.289 297.53 152.229 296.76 153.069C295.99 153.899 296.21 155.849 297.07 156.499C297.07 156.499 295.82 156.599 295.71 157.999C295.62 159.179 295.87 160.309 297.07 160.649C297.07 160.649 296.14 160.969 296.13 161.539C296.13 162.109 296.26 163.439 297.29 163.999C298.32 164.549 300.68 164.439 300.68 164.439C300.68 164.439 300.9 164.839 302.06 165.289C302.47 165.449 303.44 165.839 305.03 166.349C306.8 166.919 307.88 167.099 309.29 167.209C310.7 167.319 311.5 167.029 315.62 170.259C318.27 172.339 328.63 179.999 334.14 183.639C342.52 189.159 343.77 187.719 352 182.979C360.12 178.299 372.17 171.189 372.17 171.189L379.54 146.219C379.54 146.219 374.13 146.219 366.65 151.209H366.63Z" fill="#FFA8A7"/>
<path d="M302.33 149.129C302.59 149.279 302.83 149.449 303.06 149.649C303.28 149.849 303.49 150.069 303.65 150.349L303.58 150.289C304.86 150.449 306.19 150.869 307.14 151.859C307.37 152.109 307.58 152.389 307.72 152.709C307.86 153.029 307.93 153.429 307.79 153.799C307.72 153.959 307.65 154.149 307.46 154.299C307.27 154.449 307.04 154.459 306.87 154.459C306.52 154.459 306.21 154.399 305.9 154.389C305.28 154.349 304.63 154.389 303.98 154.369C303.32 154.349 302.66 154.209 302.04 153.999C300.82 153.549 299.63 153.019 298.57 152.279C299.13 152.599 299.73 152.819 300.33 153.059C300.93 153.289 301.52 153.529 302.13 153.699C302.74 153.869 303.36 153.969 303.98 153.979C304.61 153.989 305.25 153.939 305.91 153.969C306.24 153.979 306.57 154.019 306.86 154.019C307.17 154.029 307.26 153.939 307.38 153.649C307.57 153.159 307.24 152.549 306.84 152.119C306.01 151.199 304.78 150.709 303.54 150.469H303.49L303.47 150.409C303.36 150.159 303.18 149.919 302.98 149.709C302.78 149.499 302.56 149.299 302.32 149.119L302.33 149.129Z" fill="#F28F8F"/>
<path d="M305.62 154.179C306.18 154.119 306.76 154.509 306.96 155.079C307.18 155.659 306.89 156.319 306.46 156.699C305.67 157.509 304.68 158.129 303.49 158.339C302.89 158.399 302.32 158.249 301.78 158.099C301.24 157.939 300.71 157.779 300.19 157.599C299.14 157.249 298.09 156.889 297.06 156.489C298.15 156.719 299.22 156.989 300.29 157.279C301.36 157.539 302.43 157.979 303.45 157.909C303.94 157.869 304.46 157.629 304.93 157.399C305.4 157.149 305.82 156.809 306.24 156.459C306.65 156.139 306.9 155.629 306.77 155.119C306.66 154.609 306.18 154.199 305.62 154.169V154.179Z" fill="#F28F8F"/>
<path d="M304.1 157.979C304.59 157.909 305.15 157.979 305.57 158.339C305.78 158.519 305.91 158.819 305.89 159.099C305.86 159.379 305.83 159.619 305.7 159.889C305.41 160.419 304.92 160.639 304.5 160.919C304.06 161.169 303.6 161.459 303.02 161.499C302.44 161.529 301.96 161.279 301.5 161.179C301.03 161.069 300.53 161.029 300.04 160.969C299.05 160.859 298.05 160.769 297.05 160.639C298.06 160.589 299.06 160.589 300.06 160.639C300.56 160.649 301.07 160.699 301.58 160.799C302.1 160.909 302.55 161.109 302.99 161.069C303.42 161.059 303.87 160.819 304.29 160.579C304.71 160.329 305.17 160.079 305.4 159.729C305.51 159.559 305.57 159.289 305.61 159.079C305.64 158.869 305.57 158.649 305.41 158.489C305.1 158.139 304.58 157.999 304.09 157.979H304.1Z" fill="#F28F8F"/>
<path d="M303.45 161.209C303.63 161.319 303.75 161.529 303.79 161.759C303.82 161.989 303.76 162.219 303.68 162.419C303.48 162.829 303.23 163.129 302.96 163.469C302.81 163.619 302.66 163.769 302.49 163.899C302.33 164.039 302.09 164.159 301.9 164.209C301.5 164.339 301.09 164.409 300.67 164.429L301.77 163.899C301.95 163.789 302.09 163.739 302.23 163.599C302.37 163.469 302.51 163.329 302.64 163.179C302.91 162.899 303.18 162.569 303.38 162.269C303.58 161.969 303.68 161.569 303.45 161.209Z" fill="#F28F8F"/>
<path d="M307.58 153.749C307.02 154.849 306.8 158.209 308.45 160.249C310.1 162.289 311.62 162.729 311.62 162.729C311.62 162.729 309.67 162.339 308.1 160.909C306.54 159.479 306.17 158.299 306.17 158.299L305.76 159.059C305.62 158.569 305.59 158.169 304.41 157.979C304.41 157.979 305.68 157.299 306.2 156.719C306.72 156.139 307.5 155.229 306.24 154.219C306.24 154.219 306.72 154.289 307.16 154.219C307.6 154.159 307.58 153.749 307.58 153.749Z" fill="#F28F8F"/>
<path d="M326.7 161.719C328.24 165.779 325.8 173.009 321.87 175.669C321.87 175.669 331.68 182.789 335.95 185.469C340.22 188.149 341.88 188.809 346.2 186.839C350.52 184.869 373.25 171.789 373.25 171.789L380.76 145.379C380.76 145.379 379.65 145.099 376.03 145.979C372.41 146.859 370.19 148.189 361.34 154.169C352.48 160.149 340.81 168.389 340.81 168.389L326.7 161.719Z" fill="#FFE394"/>
<path opacity="0.2" d="M340.81 168.39C345.86 170.39 347.58 174.93 347.58 174.93C347.58 174.93 346.97 169.58 342.42 167.26L340.81 168.39Z" fill="black"/>
<path d="M392.56 142.09L406.01 146.27C408.32 147.06 417.04 152.38 413.99 165.52C412.98 169.86 411.61 175.96 410.37 182.05C409.42 186.71 412.9 195.67 415.72 209.94C415.72 209.94 404.18 219.11 381.26 216.52C363.77 214.55 361.88 208 361.88 208C362.37 191.72 363.81 185.43 363.78 179.24C363.78 179.24 361.22 176.12 361.12 170.59C361.01 164.79 362.53 161.67 367.73 155.09C372.68 148.83 377.26 144.49 377.26 144.49L392.57 142.09H392.56Z" fill="#FAFAFA"/>
<path d="M367.69 162.329C363.64 171.539 366.38 224.1 366.01 220.16C366.01 220.16 358.48 217.239 357.77 214.729C357.77 205.269 359.51 186.259 359.62 179.749C359.74 172.279 359.67 166.869 362.08 162.279C364.49 157.689 373.62 146.429 377.23 144.479C373.5 147.719 369.2 156.809 367.67 162.329H367.69Z" fill="#FFE394"/>
<g opacity="0.2">
<path d="M367.69 162.329C363.64 171.539 366.38 224.1 366.01 220.16C366.01 220.16 358.48 217.239 357.77 214.729C357.77 205.269 359.51 186.259 359.62 179.749C359.74 172.279 359.67 166.869 362.08 162.279C364.49 157.689 373.62 146.429 377.23 144.479C373.5 147.719 369.2 156.809 367.67 162.329H367.69Z" fill="black"/>
</g>
<path d="M382.41 145.01C379.86 146.76 368.47 154.59 366.21 169.83C366.21 163.11 368.74 154.88 371.14 150.97C374.06 146.21 378.88 143.06 382.31 141.06L382.41 145.01Z" fill="#263238"/>
<path d="M397.7 142.25C397.7 142.25 397.82 142.45 397.7 145.31C397.58 148.17 393.06 169.76 392.99 180.12C392.83 201.86 395.49 221.78 395.49 221.78C395.49 221.78 412.18 223.3 418.33 214.99C418.33 214.99 414.73 205.85 412.67 193.24C411.45 185.77 416.42 167.5 415.13 156.68C414.59 152.16 414.55 149.13 411.16 148.06C408.36 147.18 404.25 144.99 404.25 144.99L397.69 142.25H397.7Z" fill="#FFE394"/>
<g opacity="0.2">
<path d="M397.7 142.25C397.7 142.25 397.82 142.45 397.7 145.31C397.58 148.17 393.06 169.76 392.99 180.12C392.83 201.86 395.49 221.78 395.49 221.78C395.49 221.78 412.18 223.3 418.33 214.99C418.33 214.99 414.73 205.85 412.67 193.24C411.45 185.77 416.42 167.5 415.13 156.68C414.59 152.16 414.55 149.13 411.16 148.06C408.36 147.18 404.25 144.99 404.25 144.99L397.69 142.25H397.7Z" fill="black"/>
</g>
<path d="M369.49 102.86C364.59 103.18 360.34 112.39 365.24 119.89C373.93 133.18 393.97 126.14 393.97 126.14L397.81 137.01C397.81 137.01 400.65 133.79 404.26 129.31C410.75 121.28 409.76 107.57 401.93 106.03C403.09 98.0798 377.4 87.2598 369.49 102.85V102.86Z" fill="#E0E0E0"/>
<path d="M369.79 106.86C368.63 109.2 366.67 113.54 367.1 126.53C367.44 136.68 370.97 138.9 374.3 140.19C375.93 140.82 378.44 140.82 381.93 140.44L382.02 145.2C382.02 145.2 375.69 151.02 377.7 162.74C397.36 154.54 397.67 144.51 397.67 144.51L397.99 128.78C398.63 129.82 401.89 131.13 404.33 128C407.21 124.32 406.57 119.93 404 118.31C401.35 116.64 398.31 118.23 397.14 121.23C394.38 122.38 390.72 119.52 390.9 108.84C387.53 107.08 380.97 109.57 378.87 109.33C375.72 108.97 373.05 105.11 369.8 106.85L369.79 106.86Z" fill="#FFA8A7"/>
<path d="M369.79 106.859C372.62 105.949 373.98 111.319 378.04 115.059C382.1 118.809 388.49 120.159 393.91 117.859C393.91 117.369 396.02 108.219 388.04 103.999C380.07 99.7794 371.62 101.549 369.79 106.849V106.859Z" fill="#E0E0E0"/>
<path d="M402.79 126.599C402.9 127.389 402.35 128.119 401.55 128.239C400.75 128.349 400.02 127.799 399.9 127.009C399.79 126.219 400.34 125.489 401.14 125.369C401.94 125.259 402.67 125.809 402.79 126.599Z" fill="#FFE394"/>
<path d="M381.929 140.44C390.469 138.6 395.259 135.13 396.129 131.68C396.129 131.68 395.589 136.2 393.189 138.19C389.829 140.99 381.969 142.8 381.969 142.8L381.919 140.44H381.929Z" fill="#F28F8F"/>
<path d="M377.41 131.511L383.37 129.311C384.05 130.931 383.27 132.741 381.62 133.351C379.98 133.961 378.09 133.131 377.41 131.511Z" fill="#B16668"/>
<path d="M380.25 133.53C380.7 133.56 381.159 133.51 381.609 133.35C382.759 132.93 383.469 131.92 383.579 130.8C381.959 130.9 380.64 132.03 380.25 133.54V133.53Z" fill="#F28F8F"/>
<path d="M383.709 122.43C384.665 122.43 385.439 121.66 385.439 120.71C385.439 119.76 384.665 118.99 383.709 118.99C382.754 118.99 381.979 119.76 381.979 120.71C381.979 121.66 382.754 122.43 383.709 122.43Z" fill="#263238"/>
<path d="M373.25 120.23C373.25 121.18 372.48 121.95 371.52 121.95C370.56 121.95 369.79 121.18 369.79 120.23C369.79 119.28 370.56 118.51 371.52 118.51C372.48 118.51 373.25 119.28 373.25 120.23Z" fill="#263238"/>
<path d="M378.859 117.48L377.939 129.04L372.439 126.86L378.859 117.48Z" fill="#F28F8F"/>
<path d="M368.76 117.371L372.72 116.001C372.38 114.891 371.21 114.301 370.12 114.681C369.03 115.061 368.42 116.261 368.76 117.371Z" fill="#455A64"/>
<path d="M386.48 117.46L382.58 115.78C383.01 114.69 384.23 114.17 385.31 114.64C386.39 115.1 386.91 116.37 386.48 117.46Z" fill="#455A64"/>
<path d="M397.77 139.28C399.05 139.22 399.39 140.01 401.08 141.93C402.77 143.85 404.26 144.99 404.26 144.99C402.7 154.49 395.21 166.34 393.08 177.5C392.99 168.47 395.41 156.05 397.7 142.24L397.77 139.27V139.28Z" fill="#263238"/>
<path d="M446.86 193.53C453.12 195.17 455.38 194.01 456.57 193.53C457.76 193.05 459.19 192.23 460.94 190.22C462.69 188.2 462.8 187.28 463.44 187.21C464.7 187.07 465.26 188.95 464.81 190.74C464.03 193.88 462.96 194.85 462.96 194.85L463.65 209.4C462.33 210.9 459.21 211.83 454.77 210.88C451.69 210.22 450.24 208.64 445.31 207.24C444.32 201.9 446.86 193.53 446.86 193.53Z" fill="#F28F8F"/>
<path d="M411.69 148.26C418.64 150.77 421.81 152.76 424.83 160.77C428.15 169.59 433.29 185.94 433.29 185.94L449.45 193.96C447.16 195.91 444.66 203.31 446.67 207.86C446.67 207.86 438.88 205.61 431.48 203.31C421.16 200.09 420.03 200.24 417.52 194.74C411.39 181.31 408.35 173.76 408.35 173.76C408.35 173.76 402.19 153.31 411.69 148.26Z" fill="#FFE394"/>
<path d="M438.84 361.41C438.84 361.41 438.84 361.33 438.84 361.29L437.57 103.7C437.57 103.7 437.57 103.7 437.57 103.68V103.62C437.57 103.62 437.57 103.51 437.57 103.45C437.58 103.12 437.64 102.78 437.75 102.45C437.85 102.1 438 101.75 438.19 101.41C438.78 100.38 439.78 99.4004 441.19 98.5804C446.05 95.7404 453.96 95.7004 458.84 98.4904C460.75 99.5804 461.91 100.95 462.34 102.37C462.46 102.77 462.52 103.17 462.52 103.57L463.78 358.89V361.32C463.78 361.32 463.78 361.32 463.78 361.33C463.8 363.15 462.59 364.97 460.18 366.39C455.3 369.23 447.38 369.27 442.5 366.48C440.07 365.09 438.82 363.25 438.82 361.4L438.84 361.41Z" fill="#E6E6E6"/>
<path d="M449.4 392.01L449.27 385.73C449.25 385.41 449.45 385.1 449.86 384.85C450.66 384.38 451.96 384.38 452.77 384.84C453.17 385.07 453.38 385.37 453.38 385.68L453.54 391.95C453.54 392.29 453.45 392.63 453.27 392.94C452.7 393.93 451.44 394.28 450.45 393.71C449.81 393.35 449.44 392.69 449.41 392.01H449.4Z" fill="#455A64"/>
<path d="M449.46 392.4C449.44 392.27 449.41 392.14 449.41 392.02C449.41 392.02 449.41 392.01 449.41 392C450.17 393.09 452.75 393.22 453.52 392.07C453.52 392.11 453.52 392.16 453.52 392.19C453.52 392.23 453.52 392.31 453.52 392.31C453.49 392.53 453.41 392.74 453.29 392.94C452.72 393.93 451.46 394.27 450.46 393.7C449.94 393.4 449.6 392.93 449.48 392.39L449.46 392.4Z" fill="#263238"/>
<path d="M446.38 381.26C449.17 382.86 453.69 382.83 456.47 381.21C457.52 380.6 458.18 379.85 458.42 379.05L463.41 363.15C462.89 364.33 461.81 365.45 460.2 366.4C455.32 369.24 447.4 369.28 442.52 366.49C440.85 365.54 439.74 364.37 439.21 363.12L444.34 378.95C444.37 379.05 444.41 379.16 444.45 379.26C444.74 380 445.37 380.69 446.37 381.26H446.38Z" fill="#E0E0E0"/>
<path opacity="0.1" d="M445.02 374.04C448.48 376.02 454.08 375.99 457.54 373.97C459.24 372.96 460.1 371.68 460.09 370.39C460.11 369.08 459.26 367.76 457.5 366.76C454.05 364.77 448.45 364.8 445 366.81C443.27 367.82 442.4 369.13 442.42 370.45C442.42 371.76 443.31 373.06 445.03 374.04H445.02Z" fill="black"/>
<path d="M446.38 381.26C449.17 382.86 453.69 382.83 456.47 381.21C457.52 380.6 458.18 379.85 458.42 379.05L463.41 363.15C462.89 364.33 461.81 365.45 460.2 366.4C455.32 369.24 447.4 369.28 442.52 366.49C440.85 365.54 439.74 364.37 439.21 363.12L444.34 378.95C444.37 379.05 444.41 379.16 444.45 379.26C444.74 380 445.37 380.69 446.37 381.26H446.38Z" fill="#E0E0E0"/>
<path d="M447.36 386.04H447.35L442.67 371.6C442.62 371.47 442.57 371.34 442.54 371.21C442.12 369.66 442.94 368.03 445 366.82C448.43 364.82 454.02 364.79 457.47 366.76C459.46 367.9 460.31 369.45 460.02 370.95C460.01 370.99 460 371.02 460 371.05L459.87 371.45L455.27 386.07C455.13 386.52 454.77 386.95 454.17 387.3C452.61 388.21 450.06 388.22 448.49 387.33C447.85 386.97 447.49 386.51 447.36 386.03V386.04Z" fill="#FFE394"/>
<path opacity="0.2" d="M447.36 386.04H447.35L442.67 371.6C442.62 371.47 442.57 371.34 442.54 371.21C442.12 369.66 442.94 368.03 445 366.82C448.43 364.82 454.02 364.79 457.47 366.76C459.46 367.9 460.31 369.45 460.02 370.95C460.01 370.99 460 371.02 460 371.05L459.87 371.45L455.27 386.07C455.13 386.52 454.77 386.95 454.17 387.3C452.61 388.21 450.06 388.22 448.49 387.33C447.85 386.97 447.49 386.51 447.36 386.03V386.04Z" fill="black"/>
<path d="M445.02 374.04C448.48 376.02 454.08 375.99 457.54 373.97C459.24 372.96 460.1 371.68 460.09 370.39C460.11 369.08 459.26 367.76 457.5 366.76C454.05 364.77 448.45 364.8 445 366.81C443.27 367.82 442.4 369.13 442.42 370.45C442.42 371.76 443.31 373.06 445.03 374.04H445.02Z" fill="#FFE394"/>
<path d="M445.02 374.04C448.48 376.02 454.08 375.99 457.54 373.97C459.24 372.96 460.1 371.68 460.09 370.39C460.11 369.08 459.26 367.76 457.5 366.76C454.05 364.77 448.45 364.8 445 366.81C443.27 367.82 442.4 369.13 442.42 370.45C442.42 371.76 443.31 373.06 445.03 374.04H445.02Z" fill="#FFE394"/>
<path opacity="0.05" d="M442.41 370.451C442.39 369.341 443.02 368.231 444.25 367.311C448.46 368.971 454.05 368.971 458.3 367.311C459.51 368.221 460.1 369.311 460.08 370.401C460.1 371.691 459.24 372.971 457.53 373.981C454.08 375.991 448.47 376.021 445.01 374.051C443.29 373.071 442.41 371.761 442.4 370.461L442.41 370.451Z" fill="black"/>
<path d="M448.49 387.34C450.06 388.24 452.6 388.23 454.17 387.31C454.76 386.96 455.13 386.53 455.26 386.08H455.27L457.49 379.01C457.21 379.61 456.66 380.18 455.85 380.65C453.34 382.12 449.26 382.14 446.75 380.7C445.89 380.21 445.32 379.61 445.05 378.97L447.34 386.04H447.35C447.47 386.5 447.84 386.97 448.47 387.33L448.49 387.34Z" fill="#FFE394"/>
<path d="M445.88 130.13C445.87 129.47 446.3 128.82 447.17 128.31C448.89 127.31 451.69 127.29 453.41 128.29C454.29 128.79 454.73 129.44 454.72 130.1L454.89 168.2C454.81 167.63 454.37 167.07 453.61 166.63C451.87 165.64 449.05 165.65 447.33 166.66C446.54 167.12 446.12 167.71 446.06 168.3L445.89 130.13H445.88Z" fill="#FAFAFA"/>
<path d="M447.18 131.93C448.91 132.92 451.7 132.9 453.43 131.9C454.28 131.4 454.71 130.75 454.7 130.11C454.71 129.45 454.29 128.8 453.41 128.3C451.69 127.3 448.89 127.32 447.17 128.32C446.3 128.83 445.87 129.48 445.88 130.14C445.88 130.79 446.32 131.44 447.18 131.93Z" fill="#E0E0E0"/>
<path d="M438.88 115.08V114.96C438.88 114.91 438.88 114.85 438.88 114.8L438.84 103.85C438.84 103.73 438.84 103.62 438.84 103.5V103.42C438.94 101.85 440.02 100.29 442.09 99.0801C446.47 96.5301 453.58 96.5001 457.97 99.0101C460.18 100.27 461.28 101.94 461.28 103.61L461.33 114.75C461.33 114.78 461.33 114.8 461.33 114.83V114.92C461.28 116.54 460.19 118.15 458.06 119.39C453.68 121.94 446.57 121.97 442.18 119.46C440.07 118.25 438.97 116.68 438.88 115.08Z" fill="#FFE394"/>
<path opacity="0.05" d="M438.88 115.08V114.96C438.88 114.91 438.88 114.85 438.88 114.8L438.84 103.85C438.84 103.73 438.84 103.62 438.84 103.5V103.42C438.94 101.85 440.02 100.29 442.09 99.0801C446.47 96.5301 453.58 96.5001 457.97 99.0101C460.18 100.27 461.28 101.94 461.28 103.61L461.33 114.75C461.33 114.78 461.33 114.8 461.33 114.83V114.92C461.28 116.54 460.19 118.15 458.06 119.39C453.68 121.94 446.57 121.97 442.18 119.46C440.07 118.25 438.97 116.68 438.88 115.08Z" fill="black"/>
<path d="M446.96 370.51L446.89 354.63L445.93 168.63C445.93 168.63 445.92 168.59 445.93 168.57V168.23C445.99 167.64 446.41 167.05 447.2 166.59C448.92 165.59 451.75 165.57 453.48 166.56C454.24 167 454.68 167.56 454.76 168.13V168.14V168.58L455.71 354.57L455.8 370.47C455.8 371.11 455.38 371.76 454.53 372.26C453.29 372.99 451.48 373.19 449.94 372.88C449.72 372.84 449.52 372.79 449.31 372.73C448.94 372.62 448.59 372.47 448.28 372.29C447.42 371.8 446.97 371.15 446.96 370.5V370.51Z" fill="#455A64"/>
<path d="M447.23 170.19C448.96 171.18 451.75 171.16 453.48 170.16C454.33 169.66 454.76 169.01 454.75 168.37C454.76 167.71 454.34 167.06 453.46 166.56C451.74 165.56 448.94 165.58 447.22 166.58C446.36 167.09 445.92 167.74 445.93 168.4C445.93 169.05 446.37 169.7 447.23 170.19Z" fill="#263238"/>
<path d="M446.96 370.51V368.11C449.79 368.71 452.94 368.7 455.78 368.07V370.49C455.8 371.13 455.37 371.78 454.52 372.28C453.28 373.01 451.47 373.21 449.93 372.9C449.32 372.79 448.76 372.59 448.27 372.32C447.41 371.83 446.96 371.18 446.95 370.53L446.96 370.51Z" fill="#263238"/>
<path d="M441.26 108.81C446.14 111.6 454.06 111.56 458.94 108.72C461.34 107.3 462.56 105.48 462.54 103.66C462.57 101.8 461.37 99.9504 458.89 98.5304C454.02 95.7104 446.11 95.7604 441.23 98.5904C438.78 100.02 437.55 101.87 437.59 103.73C437.59 105.57 438.84 107.42 441.27 108.81H441.26Z" fill="#E0E0E0"/>
<path d="M441.26 107.57C446.14 110.36 454.06 110.32 458.94 107.48C461.34 106.06 462.56 104.24 462.54 102.42V102.34L462.55 99.8997C462.55 99.8497 462.55 99.8097 462.55 99.7597C462.55 99.6297 462.53 99.5097 462.52 99.3797C462.51 99.2097 462.47 99.0397 462.42 98.8697C462.39 98.7697 462.36 98.6597 462.33 98.5497C462.33 98.5297 462.33 98.5097 462.31 98.4897C462.28 98.3997 462.24 98.2897 462.19 98.1797C462.01 97.7397 461.75 97.3097 461.41 96.8997C461.31 96.7797 461.22 96.6697 461.12 96.5597C461.07 96.4897 461.02 96.4397 460.96 96.3997C460.87 96.2997 460.77 96.1997 460.67 96.1197C460.18 95.6497 459.58 95.2197 458.88 94.8197C453.99 92.0297 446.09 92.0697 441.23 94.8997C439.81 95.7297 438.81 96.6997 438.22 97.7297L438.2 97.7597C438.11 97.9197 438.03 98.0897 437.96 98.2497L437.78 98.7397C437.75 98.8397 437.72 98.9497 437.7 99.0497L437.66 99.2397C437.64 99.3697 437.62 99.4897 437.61 99.6297V99.7097C437.59 99.8297 437.58 99.9597 437.58 100.09V102.22C437.58 102.15 437.57 102.34 437.57 102.51C437.57 104.35 438.82 106.2 441.25 107.59L441.26 107.57Z" fill="#FFE394"/>
<path opacity="0.3" d="M441.27 105.11C446.15 107.9 454.07 107.86 458.94 105.02C461.34 103.6 462.56 101.78 462.54 99.9602C462.57 98.1002 461.37 96.2502 458.89 94.8302C454.02 92.0102 446.11 92.0602 441.23 94.8902C438.78 96.3202 437.55 98.1702 437.59 100.03C437.59 101.87 438.84 103.72 441.27 105.11Z" fill="white"/>
<path d="M462.96 194.84C463.83 195.71 464.71 196.55 465.52 197.48C466.07 198.12 466.63 198.84 466.71 199.68C466.81 200.74 466.15 201.76 466.29 202.81C466.4 203.64 467 204.39 466.89 205.21C466.83 205.63 466.59 206.02 466.56 206.45C466.53 206.85 466.7 207.24 466.81 207.63C467.15 208.8 466.98 210.07 466.55 211.22C466.13 212.36 465.46 213.4 464.79 214.42C464.38 215.04 464.02 215.72 463.37 216.09L461.22 217.29C460.9 217.47 460.58 217.65 460.23 217.73C459.88 217.82 459.48 217.8 459.18 217.6C458.86 217.39 458.68 217.01 458.64 216.63C458.59 216.25 458.66 215.87 458.75 215.49C458.12 215.35 457.72 214.67 457.69 214.02C457.66 213.37 457.9 212.74 458.14 212.14C458.39 211.5 458.65 210.86 458.9 210.22C458.92 210.16 458.95 210.09 458.92 210.03C458.89 209.97 458.81 209.95 458.74 209.93C458.22 209.77 457.91 209.22 457.87 208.68C457.84 208.14 458.03 207.61 458.23 207.11C458.58 206.25 458.97 205.42 459.5 204.67C460.33 203.48 460.93 202.06 461.6 200.78C462.06 199.9 462.52 199.01 462.97 198.13L462.95 194.85L462.96 194.84Z" fill="#FFA8A7"/>
</g>
<defs>
<clipPath id="clip0_115_12">
<rect width="472.52" height="451.77" fill="white"/>
</clipPath>
</defs>
</svg>
