<svg width="639" height="510" viewBox="0 0 639 510" fill="none" xmlns="http://www.w3.org/2000/svg">
<g clip-path="url(#clip0_101_2207)">
<path d="M595.37 480.73C623.086 433.406 638.999 378.308 638.999 319.499C638.999 143.04 495.958 0 319.499 0C143.04 0 0 143.04 0 319.499C0 378.308 15.9128 433.39 43.6289 480.73H595.37Z" fill="#FFE394" fill-opacity="0.32"/>
<path d="M610.995 474.438H26.4097V509.482H610.995V474.438Z" fill="#8A6600"/>
<g style="mix-blend-mode:multiply" opacity="0.5">
<path d="M292.42 483.995H26.4097V488.774H292.42V483.995Z" fill="#8A6600"/>
</g>
<g style="mix-blend-mode:multiply" opacity="0.5">
<path d="M176.14 496.738H26.4097V501.517H176.14V496.738Z" fill="#8A6600"/>
</g>
<g style="mix-blend-mode:multiply" opacity="0.5">
<path d="M610.996 496.738H489.937V501.517H610.996V496.738Z" fill="#8A6600"/>
</g>
<g style="mix-blend-mode:multiply" opacity="0.5">
<path d="M434.186 496.738H265.341V501.517H434.186V496.738Z" fill="#8A6600"/>
</g>
<g style="mix-blend-mode:multiply" opacity="0.5">
<path d="M610.996 483.995H438.965V488.774H610.996V483.995Z" fill="#8A6600"/>
</g>
<path d="M260.961 399.095H495.56C515.853 399.095 532.308 415.549 532.308 435.842C532.308 456.136 515.853 472.59 495.56 472.59H260.961" fill="#F4F1F1"/>
<path d="M260.961 399.095H495.56C515.853 399.095 532.308 415.549 532.308 435.842C532.308 456.136 515.853 472.59 495.56 472.59H260.961" stroke="#503B00" stroke-width="12.743" stroke-miterlimit="10"/>
<path d="M440.081 399.095H495.56C515.854 399.095 532.308 415.549 532.308 435.842C532.308 456.136 515.854 472.59 495.56 472.59H440.081" fill="#F4F1F1"/>
<path d="M440.081 399.095H495.56C515.854 399.095 532.308 415.549 532.308 435.842C532.308 456.136 515.854 472.59 495.56 472.59H440.081" stroke="#553F00" stroke-width="12.743" stroke-miterlimit="10"/>
<path d="M260.961 314.308H495.56C515.853 314.308 532.308 330.762 532.308 351.055C532.308 371.349 515.853 387.803 495.56 387.803H260.961" fill="#F4F1F1"/>
<path d="M260.961 314.308H495.56C515.853 314.308 532.308 330.762 532.308 351.055C532.308 371.349 515.853 387.803 495.56 387.803H260.961" stroke="#6D4200" stroke-width="12.743" stroke-miterlimit="10"/>
<path d="M440.081 314.308H495.56C515.854 314.308 532.308 330.762 532.308 351.055C532.308 371.349 515.854 387.803 495.56 387.803H440.081" fill="#F4F1F1"/>
<path d="M440.081 314.308H495.56C515.854 314.308 532.308 330.762 532.308 351.055C532.308 371.349 515.854 387.803 495.56 387.803H440.081" stroke="#5F3900" stroke-width="12.743" stroke-miterlimit="10"/>
<path d="M260.961 229.518H495.56C515.853 229.518 532.308 245.972 532.308 266.265C532.308 286.559 515.853 303.013 495.56 303.013H260.961" fill="#F4F1F1"/>
<path d="M260.961 229.518H495.56C515.853 229.518 532.308 245.972 532.308 266.265C532.308 286.559 515.853 303.013 495.56 303.013H260.961" stroke="#583B00" stroke-width="12.743" stroke-miterlimit="10"/>
<path d="M440.081 229.518H495.56C515.854 229.518 532.308 245.972 532.308 266.265C532.308 286.559 515.854 303.013 495.56 303.013H440.081" fill="#FCFCFC"/>
<path d="M440.081 229.518H495.56C515.854 229.518 532.308 245.972 532.308 266.265C532.308 286.559 515.854 303.013 495.56 303.013H440.081" stroke="#5F3900" stroke-width="12.743" stroke-miterlimit="10"/>
<path d="M462.858 295.415L476.397 282.703L489.937 295.415V254.621H462.858V295.415Z" fill="#835800"/>
<path d="M380.029 456.518L393.568 443.807L407.108 456.518V434.616H380.029V456.518Z" fill="#503B00"/>
<g style="mix-blend-mode:multiply" opacity="0.1">
<path d="M260.961 416.792V404.75H495.56C506.344 404.75 513.416 409.401 520.138 416.792H260.961Z" fill="#222223"/>
</g>
<path opacity="0.1" d="M324.278 458.51H260.563V461.696H324.278V458.51Z" fill="#222223"/>
<path opacity="0.1" d="M324.278 431.43H260.563V434.615H324.278V431.43Z" fill="#222223"/>
<path opacity="0.1" d="M276.492 444.174H260.563V447.36H276.492V444.174Z" fill="#222223"/>
<path opacity="0.1" d="M276.492 421.873H260.563V425.059H276.492V421.873Z" fill="#222223"/>
<g style="mix-blend-mode:multiply" opacity="0.1">
<path d="M260.961 332.004V319.962H495.56C506.344 319.962 513.416 324.613 520.138 332.004H260.961Z" fill="#222223"/>
</g>
<path opacity="0.1" d="M324.278 375.679H260.563V377.272H324.278V375.679Z" fill="#222223"/>
<path opacity="0.1" d="M324.278 348.6H260.563V351.785H324.278V348.6Z" fill="#222223"/>
<path opacity="0.1" d="M276.492 361.343H260.563V364.529H276.492V361.343Z" fill="#222223"/>
<path opacity="0.1" d="M276.492 339.043H260.563V340.636H276.492V339.043Z" fill="#222223"/>
<g style="mix-blend-mode:multiply" opacity="0.1">
<path d="M260.961 247.199V235.157H495.56C506.344 235.157 513.416 239.792 520.138 247.199H260.961Z" fill="#222223"/>
</g>
<path opacity="0.1" d="M324.278 289.664H260.563V292.85H324.278V289.664Z" fill="#222223"/>
<path opacity="0.1" d="M324.278 264.178H260.563V265.771H324.278V264.178Z" fill="#222223"/>
<path opacity="0.1" d="M276.492 276.921H260.563V278.514H276.492V276.921Z" fill="#222223"/>
<path opacity="0.1" d="M276.492 253.028H260.563V256.214H276.492V253.028Z" fill="#222223"/>
<path d="M389.937 96.3043C389.937 73.2872 408.541 54.5391 431.574 54.5391C454.591 54.5391 473.212 73.1279 473.212 96.1609V130.376" stroke="#805500" stroke-width="11.1501" stroke-miterlimit="10"/>
<path d="M364.96 34.9131L165.691 133.958L262.729 187.781L364.96 188.005L467.175 187.781L564.229 133.958L364.96 34.9131Z" fill="black"/>
<path d="M364.1 35.3742V22.6631L563.21 123.269V134.308L364.1 35.3742Z" fill="#333333"/>
<path d="M364.1 35.3742V22.6631L164.991 123.269V134.308L364.1 35.3742Z" fill="#333333"/>
<path d="M262.362 120.706C262.362 108.281 308.46 103.423 365.326 103.423C422.192 103.423 468.289 108.281 468.289 120.706C468.289 133.13 422.192 143.197 365.326 143.197C308.46 143.197 262.362 133.13 262.362 120.706Z" fill="#222223"/>
<path d="M466.044 122.41H262.155V225.947H466.044V122.41Z" fill="#222223"/>
<g style="mix-blend-mode:soft-light" opacity="0.3">
<path d="M364.306 103.423C346.195 103.423 329.056 103.917 314.72 105V240.697C329.056 241.764 346.18 242.274 364.306 242.274C382.433 242.274 400.736 241.748 415.071 240.617V105.111C400.736 103.98 382.911 103.455 364.306 103.455V103.423Z" fill="#FCFCFC"/>
</g>
<path d="M454.639 61.7207C465.837 69.1913 473.212 81.6635 473.212 96.1428V170.18" stroke="#805500" stroke-width="11.1501" stroke-miterlimit="10"/>
<path d="M467.063 168.604L460.246 219.577H466.474L469.293 206.101L471.507 219.577H485.19L479.695 168.604H467.063Z" fill="#805500"/>
<path d="M478.787 154.271H466.044V168.606H478.787V154.271Z" fill="#616161"/>
<path d="M152.422 130.376C138.214 130.376 125.168 141.526 125.168 157.455V453.73H335.428L336.272 156.26L361.981 130.376H152.422Z" fill="#FCFCFC"/>
<path d="M361.981 130.36C347.788 130.36 336.272 141.941 336.272 156.245H387.706C387.706 141.941 376.189 130.36 361.997 130.36H361.981Z" fill="#785900"/>
<path d="M285.491 453.731H74.4985C75.2472 468.8 86.4133 479.217 100.144 479.217H309.703L285.507 453.731H285.491Z" fill="#785900"/>
<path d="M309.686 479.137C295.478 479.137 283.977 467.62 283.977 453.428H335.411C335.411 467.636 323.895 479.137 309.702 479.137H309.686Z" fill="#FCFCFC"/>
<path d="M306.757 189.312H179.327V195.684H306.757V189.312Z" fill="#785900"/>
<path d="M306.756 216.392H155.433V222.763H306.756V216.392Z" fill="#785900"/>
<path d="M306.756 243.471H155.433V249.842H306.756V243.471Z" fill="#785900"/>
<path d="M306.756 270.549H155.433V276.92H306.756V270.549Z" fill="#785900"/>
<path d="M306.756 300.813H155.433V307.185H306.756V300.813Z" fill="#785900"/>
<path d="M306.756 331.078H155.433V337.45H306.756V331.078Z" fill="#785900"/>
<path d="M230.298 361.344H155.433V367.715H230.298V361.344Z" fill="#785900"/>
<path d="M230.298 391.608H155.433V397.98H230.298V391.608Z" fill="#785900"/>
<path d="M230.298 421.873H155.433V428.245H230.298V421.873Z" fill="#785900"/>
<path d="M289.234 418.371L276.491 404.242L263.748 418.371V374.089H289.234V418.371Z" fill="#503B00"/>
<path d="M305.466 368.911C305.466 383.995 293.233 396.228 278.148 396.228C263.064 396.228 250.831 383.995 250.831 368.911C250.831 353.826 263.064 341.593 278.148 341.593C293.233 341.593 305.466 353.826 305.466 368.911Z" fill="#644300"/>
<path d="M297.152 368.91C297.152 379.407 288.646 387.913 278.149 387.913C267.651 387.913 259.146 379.407 259.146 368.91C259.146 358.413 267.651 349.907 278.149 349.907C288.646 349.907 297.152 358.413 297.152 368.91Z" fill="#AC8F00"/>
</g>
<defs>
<clipPath id="clip0_101_2207">
<rect width="638.999" height="509.482" fill="white"/>
</clipPath>
</defs>
</svg>
