<svg width="1272" height="557" viewBox="0 0 1272 557" fill="none" xmlns="http://www.w3.org/2000/svg">
<g clip-path="url(#clip0_109_2765)">
<path d="M1133.01 259.536C1133.01 259.536 1007.27 205.498 958.707 278.735C910.146 351.973 978.179 347.413 978.179 347.413C978.179 347.413 981.956 381.275 1046.18 301.137C1076.45 263.364 1133.01 259.536 1133.01 259.536H1133.01Z" fill="#BBD070"/>
<path d="M1154.93 50.7681C1154.93 50.7681 1043.32 16.1507 969.828 157.725C896.341 299.299 830.271 310.493 830.271 310.493C830.271 310.493 1082.72 355.793 1154.93 50.7681H1154.93Z" fill="#97A43C"/>
<path d="M876.69 318.665C886.465 365.734 994.205 274.968 1004.81 193.577C1015.42 112.186 994.297 52.4633 1015.71 0.253906C1015.71 0.253906 828.557 86.8826 876.69 318.665Z" fill="#48753A"/>
<path d="M847.54 82.8894C851.981 82.8894 856.232 83.5436 860.143 84.7412C865.303 72.2209 878.127 63.3535 893.13 63.3535C909.805 63.3535 923.79 74.3122 927.545 89.0621C930.424 87.9749 933.565 87.3715 936.854 87.3715C950.734 87.3715 961.992 98.0677 961.992 111.265H812.13C812.13 95.594 827.986 82.8894 847.54 82.8894Z" fill="white"/>
<path d="M1069.6 177.279C1072.98 177.279 1076.22 177.777 1079.21 178.689C1083.14 169.144 1092.92 162.382 1104.36 162.382C1117.07 162.382 1127.74 170.738 1130.6 181.987C1132.8 181.158 1135.19 180.697 1137.7 180.697C1148.29 180.697 1156.87 188.855 1156.87 198.916H1042.6C1042.6 186.966 1054.68 177.279 1069.6 177.279Z" fill="white"/>
<path d="M1088.78 248.181C1057.85 248.181 1028.71 255.86 1003.15 269.403C953.276 201.472 872.852 157.36 782.119 157.36C673.803 157.36 580.173 220.215 535.679 311.432C519.612 304.393 501.877 300.464 483.216 300.464C410.886 300.464 352.26 359.09 352.26 431.402C352.26 443.655 353.941 455.517 357.106 466.761H1268.57C1270.84 455.323 1272.01 443.494 1272.01 431.402C1272.01 330.217 1189.97 248.181 1088.78 248.181Z" fill="url(#paint0_linear_109_2765)"/>
<path d="M33.9219 452.684H276.732V516.879H33.9219C24.1425 516.879 16.2056 508.942 16.2056 499.163V470.405C16.2056 460.625 24.1425 452.688 33.9219 452.688V452.684Z" fill="url(#paint1_linear_109_2765)"/>
<path d="M318.43 459.294V510.273H322.686V516.879H146.688C136.904 516.879 128.972 508.947 128.972 499.163V470.4C128.972 460.616 136.904 452.684 146.688 452.684H322.686V459.289H318.43V459.294Z" fill="#FF9F55"/>
<path d="M159.683 459.294H318.425V510.273H159.683C149.903 510.273 141.966 502.337 141.966 492.557V477.01C141.966 467.231 149.903 459.294 159.683 459.294Z" fill="#EFF7FE"/>
<path d="M22.2634 378.027H288.074V452.684H22.2634C9.97804 452.684 0.000488281 442.711 0.000488281 430.421V400.285C0.000488281 388 9.97344 378.022 22.2634 378.022V378.027Z" fill="url(#paint2_linear_109_2765)"/>
<path d="M335.225 385.715V445.005H338.892V452.689H194.323C182.029 452.689 172.061 442.72 172.061 430.426V400.29C172.061 387.996 182.029 378.027 194.323 378.027H338.892V385.711H335.225V385.715Z" fill="#5284FC"/>
<path d="M205.513 385.712H335.226V445.001H205.513C193.228 445.001 183.25 435.028 183.25 422.738V407.97C183.25 395.685 193.223 385.707 205.513 385.707V385.712Z" fill="#EFF7FE"/>
<path d="M298.6 378.014H96.5704V286.484H298.6C311.899 286.484 322.691 297.277 322.691 310.575V353.922C322.691 367.221 311.899 378.014 298.6 378.014Z" fill="url(#paint3_linear_109_2765)"/>
<path d="M60.3772 295.907V368.597H56.6828V378.017H200.722C214.025 378.017 224.813 367.229 224.813 353.926V310.579C224.813 297.276 214.025 286.487 200.722 286.487H56.6782V295.907H60.3726H60.3772Z" fill="#FF9F55"/>
<path d="M187.754 368.594H60.3769V295.904H187.754C200.97 295.904 211.703 306.632 211.703 319.853V344.645C211.703 357.861 200.975 368.594 187.754 368.594Z" fill="#EFF7FE"/>
<path d="M33.6324 194.931H247.855V286.461H33.6324C19.6518 286.461 8.30615 275.11 8.30615 261.134V220.261C8.30615 206.281 19.6564 194.935 33.6324 194.935V194.931Z" fill="url(#paint4_linear_109_2765)"/>
<path d="M286.198 204.356V277.045H290.113V286.466H137.322C123.333 286.466 111.996 275.124 111.996 261.139V220.262C111.996 206.272 123.337 194.936 137.322 194.936H290.113V204.356H286.198Z" fill="#5284FC"/>
<path d="M150.511 204.351H286.194V277.04H150.511C136.591 277.04 125.291 265.741 125.291 251.82V229.575C125.291 215.655 136.591 204.355 150.511 204.355V204.351Z" fill="#EFF7FE"/>
<path d="M84.4459 125.641H308.278V194.908H84.4459C75.7674 194.908 68.7241 187.864 68.7241 179.186V141.362C68.7241 132.684 75.7674 125.641 84.4459 125.641Z" fill="url(#paint5_linear_109_2765)"/>
<path d="M346.617 132.771V187.782H350.532V194.912H188.137C179.454 194.912 172.415 187.874 172.415 179.191V141.362C172.415 132.679 179.454 125.641 188.137 125.641H350.532V132.771H346.617Z" fill="#5284FC"/>
<path d="M200.082 132.771H346.613V187.777H200.082C191.403 187.777 184.36 180.733 184.36 172.055V148.488C184.36 139.81 191.403 132.767 200.082 132.767V132.771Z" fill="#EFF7FE"/>
<path d="M1111.28 423.19H917.498V354.518H1111.28C1118.27 354.518 1123.95 360.193 1123.95 367.181V410.527C1123.95 417.515 1118.27 423.19 1111.28 423.19Z" fill="url(#paint6_linear_109_2765)"/>
<path d="M1092.52 526.08H856.361V479.081H1092.52C1097.54 479.081 1101.62 483.157 1101.62 488.183V516.978C1101.62 521.999 1097.55 526.08 1092.52 526.08Z" fill="url(#paint7_linear_109_2765)"/>
<path d="M831.201 484.217V520.94H824.964V526.076H935.768C939.236 526.076 942.055 523.261 942.055 519.788V485.369C942.055 481.896 939.236 479.081 935.768 479.081H824.964V484.217H831.201Z" fill="#F08533"/>
<path d="M930.396 520.938H831.206V484.216H930.396C933.731 484.216 936.44 486.925 936.44 490.26V514.895C936.44 518.23 933.731 520.938 930.396 520.938Z" fill="#FAE6DE"/>
<path d="M884.452 361.584V416.119H881.075V423.19H1021.49C1028.72 423.19 1034.58 417.331 1034.58 410.099V367.604C1034.58 360.377 1028.72 354.513 1021.49 354.513H881.075V361.584H884.452Z" fill="#F08533"/>
<path d="M1014.31 416.119H884.456V361.584H1014.31C1021.53 361.584 1027.4 367.448 1027.4 374.675V403.033C1027.4 410.255 1021.53 416.124 1014.31 416.124V416.119Z" fill="#FAE6DE"/>
<path d="M1149.61 479.081H959.344V423.191H1149.61C1158.54 423.191 1165.79 430.442 1165.79 439.374V462.899C1165.79 471.831 1158.54 479.081 1149.61 479.081H1149.61Z" fill="url(#paint8_linear_109_2765)"/>
<path d="M926.301 428.948V473.332H922.925V479.085H1060.25C1069.18 479.085 1076.43 471.839 1076.43 462.903V439.373C1076.43 430.436 1069.18 423.19 1060.25 423.19H922.925V428.944H926.301V428.948Z" fill="#495DA1"/>
<path d="M1053.5 473.331H926.306V428.948H1053.5C1062.44 428.948 1069.69 436.199 1069.69 445.131V457.154C1069.69 466.085 1062.44 473.336 1053.5 473.336V473.331Z" fill="#FAE6DE"/>
<path d="M948.744 444.499H1003.23V443.094H948.744V444.499Z" fill="#DECCC5"/>
<path d="M970.592 448.766H1028.77V447.361H970.592V448.766Z" fill="#DECCC5"/>
<path d="M844.307 495.12H898.792V493.715H844.307V495.12Z" fill="#DECCC5"/>
<path d="M866.15 499.385H924.334V497.98H866.15V499.385Z" fill="#DECCC5"/>
<path d="M906.089 503.283H930.157V501.878H906.089V503.283Z" fill="#DECCC5"/>
<path d="M948.155 399.863H1006.33V398.458H948.155V399.863Z" fill="#DECCC5"/>
<path d="M943.363 403.76H967.432V402.355H943.363V403.76Z" fill="#DECCC5"/>
<path d="M952.001 407.709C952.001 407.004 952.752 405.931 953.931 406.857C955.106 407.783 953.655 411.164 952.706 410.864C951.757 410.565 952.005 408.437 952.005 407.709H952.001Z" fill="#EEA886"/>
<path d="M626.191 65.3748C625.021 60.8513 623.229 56.5811 620.917 52.6565L626.288 44.5768L618.839 37.1281L611.386 29.6749L603.311 35.046C599.386 32.729 595.116 30.9371 590.592 29.7716L588.681 20.2686H567.606L565.694 29.7716C561.171 30.9417 556.901 32.7336 552.976 35.046L544.901 29.6749L537.452 37.1281L529.999 44.5768L535.37 52.6565C533.053 56.5811 531.261 60.8513 530.096 65.3748L520.593 67.2865V88.361L530.096 90.2727C531.266 94.7962 533.058 99.0664 535.37 102.991L529.999 111.066L537.452 118.515L544.901 125.963L552.976 120.592C556.901 122.909 561.171 124.701 565.694 125.867L567.606 135.37H588.681L590.592 125.867C595.116 124.697 599.386 122.905 603.311 120.592L611.386 125.963L618.839 118.515L626.288 111.066L620.917 102.991C623.234 99.0664 625.025 94.7962 626.191 90.2727L635.694 88.361V67.2865L626.191 65.3748ZM578.136 114.747C557.744 114.747 541.216 98.2142 541.216 77.8214C541.216 57.4287 557.748 40.9008 578.136 40.9008C598.525 40.9008 615.057 57.4333 615.057 77.8214C615.057 98.2096 598.525 114.747 578.136 114.747Z" fill="url(#paint9_linear_109_2765)"/>
<path d="M687.857 22.5631C687.323 20.4902 686.498 18.5324 685.439 16.7313L687.898 13.0278L684.48 9.61438L681.062 6.1964L677.359 8.66084C675.558 7.60136 673.6 6.77681 671.527 6.24246L670.652 1.88477H660.992L660.117 6.24246C658.044 6.77681 656.086 7.60136 654.285 8.66084L650.582 6.1964L647.168 9.61438L643.75 13.0278L646.21 16.7313C645.151 18.5324 644.326 20.4902 643.792 22.5631L639.434 23.4383V33.098L643.792 33.9732C644.326 36.0461 645.151 38.0039 646.21 39.805L643.75 43.5086L647.168 46.922L650.582 50.3399L654.285 47.8755C656.086 48.935 658.044 49.7595 660.117 50.2939L660.992 54.6516H670.652L671.527 50.2939C673.6 49.7595 675.558 48.935 677.359 47.8755L681.062 50.3399L684.48 46.922L687.898 43.5086L685.439 39.805C686.498 38.0039 687.323 36.0461 687.857 33.9732L692.21 33.098V23.4383L687.857 22.5631ZM665.829 45.1991C656.483 45.1991 648.9 37.6215 648.9 28.2705C648.9 18.9194 656.478 11.3418 665.829 11.3418C675.18 11.3418 682.758 18.9194 682.758 28.2705C682.758 37.6215 675.18 45.1991 665.829 45.1991Z" fill="url(#paint10_linear_109_2765)"/>
<g style="mix-blend-mode:hard-light">
<path d="M413.705 164.402H799.467C813.682 164.402 825.221 175.941 825.221 190.157V441.332C825.221 455.548 813.682 467.087 799.467 467.087H413.705C399.489 467.087 387.95 455.548 387.95 441.332V190.157C387.95 175.941 399.489 164.402 413.705 164.402Z" fill="white"/>
</g>
<path d="M607.971 178.252H604.798V452.998H607.971V178.252Z" fill="#E8E8E8"/>
<path d="M578.137 181.627H417.474V187.698H578.137V181.627Z" fill="#C1DBD1"/>
<path d="M578.137 203.885H417.474V209.956H578.137V203.885Z" fill="#C1DBD1"/>
<path d="M578.137 226.148H417.474V232.22H578.137V226.148Z" fill="#C1DBD1"/>
<path d="M578.137 248.406H417.474V254.478H578.137V248.406Z" fill="#C1DBD1"/>
<path d="M578.137 270.67H417.474V276.741H578.137V270.67Z" fill="#C1DBD1"/>
<path d="M578.137 292.927H417.474V298.998H578.137V292.927Z" fill="#C1DBD1"/>
<path d="M578.137 315.19H417.474V321.262H578.137V315.19Z" fill="#C1DBD1"/>
<path d="M578.137 337.449H417.474V343.521H578.137V337.449Z" fill="#C1DBD1"/>
<path d="M578.137 359.711H417.474V365.782H578.137V359.711Z" fill="#C1DBD1"/>
<path d="M578.137 381.97H417.474V388.041H578.137V381.97Z" fill="#C1DBD1"/>
<path d="M578.137 404.233H417.474V410.309H578.137V404.233Z" fill="#C1DBD1"/>
<path d="M794.796 181.627H634.132V187.698H794.796V181.627Z" fill="#C1DBD1"/>
<path d="M794.796 203.885H634.132V209.956H794.796V203.885Z" fill="#C1DBD1"/>
<path d="M794.796 226.148H634.132V232.22H794.796V226.148Z" fill="#C1DBD1"/>
<path d="M794.796 248.406H634.132V254.478H794.796V248.406Z" fill="#C1DBD1"/>
<path d="M794.796 270.67H634.132V276.741H794.796V270.67Z" fill="#C1DBD1"/>
<path d="M794.796 292.927H634.132V298.998H794.796V292.927Z" fill="#C1DBD1"/>
<path d="M794.796 315.19H634.132V321.262H794.796V315.19Z" fill="#C1DBD1"/>
<path d="M794.796 337.449H634.132V343.521H794.796V337.449Z" fill="#C1DBD1"/>
<path d="M794.796 359.711H634.132V365.782H794.796V359.711Z" fill="#C1DBD1"/>
<path d="M794.796 381.97H634.132V388.041H794.796V381.97Z" fill="#C1DBD1"/>
<path d="M794.796 404.233H634.132V410.309H794.796V404.233Z" fill="#C1DBD1"/>
<path d="M698.006 234.524C698.006 234.524 695.564 230.249 699.438 218.798C703.183 207.724 716.15 208.728 720.269 215.822C724.391 222.916 722.996 227.324 716.934 235.335C710.867 243.345 700.53 238.181 698.01 234.519L698.006 234.524Z" fill="#EEA886"/>
<path d="M728.117 431.556C728.117 431.556 728.757 436.259 728.84 436.964C728.919 437.669 735.976 436.549 735.976 436.549L736.547 430.953C736.547 430.953 729.002 430.893 728.117 431.556Z" fill="#EEA886"/>
<path d="M728.767 436.365C728.767 436.365 726.533 439.198 724.368 440.432C722.203 441.667 718.808 442.155 717.528 443.436C716.606 444.357 714.165 448.332 723.148 448.254C732.125 448.176 736.456 448.816 737.418 447.291C738.381 445.766 736.027 436.047 736.027 436.047C736.027 436.047 733.83 436.669 728.763 436.365H728.767Z" fill="#152B3D"/>
<path d="M679.262 431.556C679.262 431.556 679.902 436.259 679.985 436.964C680.063 437.669 687.12 436.549 687.12 436.549L687.692 430.953C687.692 430.953 680.146 430.893 679.262 431.556Z" fill="#EEA886"/>
<path d="M679.907 436.364C679.907 436.364 677.673 439.197 675.508 440.432C673.347 441.666 665.387 442.68 664.111 443.96C663.19 444.882 661.651 448.599 674.292 448.249C683.27 448 687.604 448.811 688.562 447.286C689.525 445.762 687.171 436.042 687.171 436.042C687.171 436.042 684.38 436.539 679.907 436.36V436.364Z" fill="#152B3D"/>
<path d="M725.745 314.449C725.745 314.449 729.361 325.694 728.887 335.381C728.412 345.068 730.757 355.672 731.715 365.793C732.784 377.078 737.165 403.787 737.321 409.826C737.483 415.86 736.644 435.133 736.644 435.133L727.883 435.345C727.883 435.345 720.522 388.645 718.619 383.882C716.712 379.119 707.26 345.147 706.942 341.332C706.624 337.518 725.75 314.449 725.75 314.449H725.745Z" fill="#323657"/>
<path d="M689.41 313.276C689.41 313.276 684.089 343.001 683.454 348.934C682.818 354.863 682.394 377.632 682.076 381.336C681.758 385.044 679.957 429.837 678.262 435.342H688.032C688.032 435.342 698.065 402.779 698.065 387.375C698.065 371.971 704.708 353.881 708.996 343.715C713.285 333.549 723.101 333.309 725.736 314.45C725.736 314.45 692.975 307.296 689.405 313.28L689.41 313.276Z" fill="#323657"/>
<path d="M701.552 237.55C701.552 237.55 702.653 240.756 701.552 243.045C700.451 245.335 715.634 243.962 715.634 243.962C715.634 243.962 714.948 239.231 716.933 235.339C718.919 231.446 701.552 237.55 701.552 237.55Z" fill="#EEA886"/>
<path d="M726.45 316.896C726.45 316.896 720.987 322.507 688.926 316.021L689.415 313.275L725.865 314.648L726.45 316.896Z" fill="#323657"/>
<path d="M699.253 243.788C699.253 243.788 693.647 244.359 692.044 244.667C690.441 244.971 679.657 242.737 677.442 242.512C675.23 242.281 665.792 235.818 665.488 235.054C665.184 234.289 659.748 220.53 659.444 217.554C659.14 214.578 654.151 216.117 654.58 218.167C655.381 222.004 656.409 231.313 656.97 234.013C657.579 236.929 659.209 243.525 660.126 244.34C661.043 245.151 669.537 251.614 677.852 254.359C686.171 257.105 692.431 261.149 692.431 261.149H733.419C733.419 261.149 749.362 238.361 749.703 234.925C750.044 231.488 738.569 208.668 736.28 205.807C733.99 202.947 730.678 206.743 730.678 206.743C730.678 206.743 737.537 226.868 738.454 229.729C739.371 232.589 730.476 245.16 728.034 245.202C725.593 245.239 719.323 244.437 716.536 244.322C713.75 244.207 710.815 242.986 710.815 242.986L699.258 243.788H699.253Z" fill="#EEA886"/>
<path d="M681.588 259.012C681.588 259.012 686.605 262.347 687.065 268.069C687.521 273.79 689.355 282.832 690.271 285.923C691.188 289.014 689.47 311.443 689.239 313.046C689.009 314.649 720.955 318.454 725.861 314.649C725.861 314.649 727.233 293.703 727.805 287.752C728.376 281.8 731.126 267.382 732.038 265.434C732.955 263.49 744.056 247.915 744.512 245.866C744.512 245.866 738.768 236.708 734.65 236.593C734.65 236.593 728.104 244.263 725.971 244.603C723.838 244.949 710.761 242.549 710.756 242.53C710.756 242.53 709.328 244.474 701.741 242.185C701.741 242.185 692.703 243.203 691.234 243.392C689.451 243.618 677.078 241.84 677.078 241.84C677.078 241.84 672.113 250.223 672.983 254.457L681.579 259.008L681.588 259.012Z" fill="#254380"/>
<path d="M659.73 219.341C659.73 219.341 658.611 214.039 659.961 212.515C660.73 211.649 662.573 209.355 662.743 209.014C662.914 208.677 664.894 207.54 664.894 206.992C664.894 206.443 662.955 205.771 661.269 207.328C659.583 208.889 658.528 209.226 657.856 209.055C657.183 208.885 656.211 203.279 656.128 201.888C656.045 200.496 655.506 196.83 654.636 197.083C653.765 197.336 653.807 198.939 653.807 198.939C653.807 198.939 652.793 196.157 652.121 196.705C651.448 197.253 651.531 198.603 651.531 198.603C651.531 198.603 650.264 197.042 649.928 198.179C649.592 199.317 649.928 200.331 649.928 200.331C649.928 200.331 648.62 199.612 648.537 201.385C648.454 203.154 648.915 208.341 649.845 210.198C650.771 212.054 654.244 216.905 654.659 218.798C655.073 220.691 659.735 219.341 659.735 219.341H659.73Z" fill="#EEA886"/>
<path d="M731.794 210.027C731.794 210.027 727.98 203.615 726.681 203.044C725.386 202.473 723.553 202.146 721.95 201.003C720.347 199.856 718.232 198.903 718.343 198.525C718.458 198.143 720.347 198.295 722.369 199.174C724.391 200.054 725.276 199.626 725.469 199.174C725.658 198.718 724.391 195.485 723.779 194.72C723.166 193.955 718.817 189.584 719.545 188.934C720.269 188.285 723.092 190.689 723.553 191.187C723.553 191.187 721.3 186.456 722.18 186.226C723.055 185.995 724.695 187.677 724.695 187.677C724.695 187.677 724.506 183.632 728.855 190.197C728.855 190.197 727.938 188.022 729.274 188.745C730.61 189.469 731.904 193.555 732.324 195.614C732.743 197.673 734.645 204.237 736.271 205.822C737.893 207.406 731.789 210.036 731.789 210.036L731.794 210.027Z" fill="#EEA886"/>
<path d="M716.929 235.34C716.929 235.34 714.92 235.519 710.646 234.041C706.371 232.566 706.053 225.095 705.132 225.979C703.248 227.785 701.465 226.537 700.756 225.473C700.756 225.473 702.842 222.727 701.875 221.405C700.908 220.083 699.337 219.116 699.337 219.116C699.337 219.116 702.34 204.628 716.017 211.229C732.043 218.964 716.934 235.34 716.934 235.34H716.929Z" fill="#353A3D"/>
<path d="M701.553 243.046L702.036 240.95C702.036 240.95 710.766 240.775 715.529 241.461L716.031 243.962C716.031 243.962 709.932 246.726 701.557 243.041L701.553 243.046Z" fill="#254380"/>
<path d="M703.704 224.15C704.496 222.833 707.43 221.944 707.771 225.675C708.038 228.568 702.534 231.728 702.483 229.033C702.432 226.338 703.174 225.025 703.704 224.15Z" fill="#EEA886"/>
<path d="M659.524 218.134C659.524 218.134 656.373 218.212 654.848 219.589C654.848 219.589 654.747 220.465 655.102 221.156C655.102 221.156 657.833 219.88 659.925 219.645C659.925 219.645 659.888 218.498 659.524 218.134Z" fill="#E55353"/>
<path d="M655.811 218.922C655.521 219.613 655.843 220.405 656.529 220.695C657.22 220.986 658.013 220.663 658.303 219.977C658.593 219.286 658.271 218.493 657.58 218.203C656.889 217.913 656.096 218.236 655.806 218.926L655.811 218.922Z" fill="#353A3D"/>
<path d="M745.402 449.604H659.856L686.817 532.404L684.293 533.229L656.203 446.95H747.327L775.155 532.404L772.635 533.229L745.402 449.604Z" fill="#FFBB55"/>
<path d="M716.289 532.404L743.25 449.604H657.699L630.471 533.229L627.946 532.404L655.774 446.95H746.903L718.808 533.229L716.289 532.404Z" fill="#FFBB55"/>
<path d="M753.361 473.022H648.652V475.676H753.361V473.022Z" fill="#FFBB55"/>
<path d="M764.15 501.817H638.873V504.471H764.15V501.817Z" fill="#FFBB55"/>
<path d="M934.754 420.568C934.754 420.568 935.325 425.216 936.08 427.27C936.836 429.32 940.936 434.055 939.203 438.602C937.324 443.535 929.125 438.782 925.776 437.275C922.427 435.769 923.191 433.042 922.837 429.698C922.482 426.353 920.847 426.261 921.45 423.912C922.054 421.563 925.711 417.058 925.711 417.058L934.754 420.568Z" fill="#213A70"/>
<path d="M927.286 414.627C927.286 414.627 925.185 417.566 925.245 417.644C925.3 417.722 934.237 423.162 934.863 421.398C935.356 419.998 935.563 417.966 935.563 417.966L927.286 414.622V414.627Z" fill="#EEA886"/>
<path d="M896.999 423.853C896.999 423.853 894.272 426.244 891.826 429.915C889.38 433.587 882.88 433.785 882.599 438.796C882.323 443.808 891.434 443.965 896.22 442.33C901.006 440.699 901.729 435.802 904.622 434.577C907.515 433.352 909.017 432.361 908.796 429.971C908.575 427.58 906.972 423.701 906.972 423.701C906.972 423.701 905.175 424.277 904.116 424.392C903.061 424.507 899.505 424.549 896.999 423.853Z" fill="#213A70"/>
<path d="M929.791 288.051C929.791 288.051 927.958 298.955 926.479 306.159C925.881 309.08 925.337 311.392 925.001 312.12C924.577 313.037 921.136 316.731 916.921 321.07C909.528 328.68 899.762 338.261 899.762 338.261L895.943 331.016C895.943 331.016 904.617 320.844 910.5 314.059C913.222 310.918 915.346 308.504 915.733 308.158C916.963 307.057 918.391 296.223 920.394 287.291C922.398 278.364 926.42 273.426 926.42 273.426L929.782 288.051H929.791Z" fill="#FAE6DE"/>
<path d="M916.926 321.07C909.533 328.679 899.767 338.261 899.767 338.261L895.948 331.015C895.948 331.015 904.622 320.844 910.505 314.059C912.306 314.943 915.618 317.053 916.926 321.07Z" fill="#EEA886"/>
<path d="M897.422 420.514L896.994 423.853C896.994 423.853 901.738 425.53 906.967 423.706L907.073 420.735L897.422 420.514Z" fill="#EEA886"/>
<path d="M964.773 336.787C965.044 337.759 914.521 336.787 914.521 336.787C914.521 336.787 928.497 326.616 929.404 323.898C930.312 321.18 925.848 304.873 925.263 299.567C924.798 295.324 923.628 276.327 926.429 273.425C929.354 270.389 939.889 267.211 939.889 267.211L955.247 267.782C955.247 267.782 957.78 268.312 959.595 269.155C961.405 269.998 971.765 273.688 973.451 278.865C975.133 284.043 963.114 300.686 963.114 300.686C963.114 300.686 963.091 301.432 963.054 302.657C963.008 304.293 962.939 306.776 962.879 309.47C962.801 312.962 962.727 316.804 962.727 319.609C962.727 326.21 964.51 335.815 964.782 336.787H964.773Z" fill="#FAE6DE"/>
<path d="M964.773 336.786C964.773 336.786 971.646 346.879 971.743 353.77C971.84 360.662 959.55 383.74 957.689 387.043C952.096 396.97 936.757 418.38 936.757 418.38C936.757 418.38 934.113 418.316 925.863 415.11C925.863 415.11 936.066 386.831 937.36 383.892C942.847 371.441 945.905 362.61 944.063 360.473C942.22 358.335 937.19 356.198 935.734 354.936C934.279 353.674 908.916 359.726 906.258 360.417C899.376 362.2 902.513 374.177 904.037 379.543C906.585 388.521 908.81 420.955 908.81 420.955C908.81 420.955 903.908 423.042 895.7 421.278C895.7 421.278 879.577 362.721 879.061 356.893C878.545 351.071 878.287 341.467 918.018 334.17L964.773 336.786Z" fill="#303669"/>
<path d="M944.1 233.851C944.1 233.851 930.769 230.843 933.813 247.62C936.858 264.396 940.064 265.714 948.107 262.241C956.15 258.767 955.432 248.021 955.832 242.751C956.238 237.481 948.351 234.031 944.1 233.851Z" fill="#EEA886"/>
<path d="M940.575 271.523C940.575 271.523 946.481 277.783 955.809 272.094C955.809 272.094 953.722 258.528 954.818 251.923C955.915 245.317 942.643 262.158 942.643 262.158C942.819 262.25 942.934 262.881 942.961 263.775C942.984 264.535 942.943 265.488 942.823 266.465C942.551 268.662 941.865 270.979 940.575 271.523Z" fill="#EEA886"/>
<path d="M955.187 251.36C955.187 251.36 954.842 246.076 952.912 245.911C950.982 245.745 950.682 247.873 950.682 247.873L948.734 248.242C948.734 248.242 949.351 243.607 947.421 242.801C945.491 241.991 934.928 245.353 933.385 243.99C931.837 242.631 932.565 233.234 935.366 231.949C938.167 230.663 945.892 227.78 951.557 231.612C951.557 231.612 955.97 231.11 956.625 234.671C957.279 238.232 956.385 248.711 955.187 251.36Z" fill="#3A3F47"/>
<path d="M942.823 266.466C952.451 263.499 953.174 257.7 953.183 257.612C950.014 263.057 942.961 263.78 942.961 263.78C942.984 264.54 942.943 265.494 942.823 266.47V266.466Z" fill="#A77860"/>
<path d="M959.748 269.228C959.748 269.228 952.7 283.259 941.313 282.357C929.926 281.449 939.374 267.344 939.89 267.215C940.461 267.072 951.571 264.304 959.752 269.228H959.748Z" fill="#EEA886"/>
<path d="M908.745 336.078C908.745 336.078 943.639 340.38 964.778 336.787L924.384 331.738C924.384 331.738 924.144 332.77 908.745 336.073V336.078Z" fill="#FAE6DE"/>
<path d="M934.841 330.153L932.243 331.471C932.243 331.471 932.837 335.598 934.261 336.851L937.177 336.105C937.177 336.105 936.569 331.577 934.841 330.153Z" fill="#EEA886"/>
<path d="M975.216 321.696C974.695 322.299 967.836 325.058 960.088 328.043C949.503 332.125 937.558 335.98 937.558 335.98L934.84 330.153C934.84 330.153 947.347 323.358 955.795 318.591C959.789 316.338 962.875 314.542 963.308 314.127C964.667 312.833 965.017 310.76 964.018 307.139C963.018 303.519 960.719 286.885 960.461 284.945C960.203 283.006 961.106 277.828 965.961 277.57C970.817 277.313 973.286 278.681 973.286 278.681C973.286 278.681 974.502 279.187 975.409 290.966C976.317 302.74 976.446 320.277 975.216 321.7V321.696Z" fill="#FAE6DE"/>
<path d="M963.046 302.657C963 304.292 962.931 306.775 962.871 309.47C958.135 297.861 960.872 288.593 960.918 288.437C960.406 291.587 963.014 302.5 963.05 302.652L963.046 302.657Z" fill="#968A86"/>
<path d="M926.479 306.158C925.881 309.078 925.337 311.39 925.001 312.118C923.384 304.287 924.839 294.264 924.839 294.264C925.061 299.05 926.479 306.153 926.479 306.153V306.158Z" fill="#968A86"/>
<path d="M960.088 328.044C949.503 332.126 937.176 336.106 937.176 336.106L934.84 330.154C934.84 330.154 947.347 323.359 955.795 318.592C955.795 318.592 958.868 320.089 960.088 328.044Z" fill="#EEA886"/>
<path d="M934.09 336.45L884.492 335.718L909.533 348.436L934.09 336.45Z" fill="#807571"/>
<path d="M909.533 348.437L934.09 338.925V336.451L907.593 346.01L909.533 348.437Z" fill="#DBCAC2"/>
<path d="M932.805 331.558C932.805 331.558 929.705 331.074 927.563 330.577C925.905 330.19 921.786 330.724 920.736 331.784C919.686 332.848 916.351 340.255 915.72 340.711C915.089 341.163 916.042 342.208 917.152 341.683C917.152 341.683 918.17 344.926 920.681 343.71C923.191 342.498 924.896 339.845 926.213 339.38C927.531 338.915 935.187 336.556 935.187 336.556C935.187 336.556 934.777 330.766 932.8 331.554L932.805 331.558Z" fill="#EEA886"/>
<path d="M921.491 331.3C921.491 331.3 919.501 332.263 918.981 332.691C918.46 333.119 916.355 334.695 915.844 335.068C915.333 335.436 916.613 336.491 920.377 334.861C924.14 333.23 921.487 331.3 921.487 331.3H921.491Z" fill="#EEA886"/>
<path d="M909.533 348.436L894.783 308.157L847.226 308.931L861.285 346.05L909.533 348.436Z" fill="#DBCAC2"/>
<path d="M879.563 325.975C881.014 328.877 880.577 332.037 878.582 333.032C876.592 334.027 873.8 332.484 872.349 329.582C870.898 326.68 871.336 323.52 873.326 322.525C875.316 321.53 878.107 323.073 879.558 325.975H879.563Z" fill="#B0A29C"/>
<path d="M950.723 245.634C950.898 244.155 953.823 243.612 954.058 245.832C954.293 248.052 952.727 251.945 951.617 251.562C950.507 251.18 950.479 247.675 950.719 245.634H950.723Z" fill="#EEA886"/>
<path d="M577.155 407.44C577.155 407.44 576.676 410.038 575.22 410.421C573.981 410.748 572.613 412.065 572.194 412.471C571.632 413.014 569.282 414.028 569.955 414.746C570.632 415.465 573.907 413.258 574.69 412.931C575.469 412.604 574.354 416.216 574.667 417.036C574.985 417.856 581.07 419.367 581.549 416.801C582.028 414.235 580.849 411.176 581.02 410.739C581.195 410.306 581.443 408.887 581.443 408.887L577.159 407.44H577.155Z" fill="#EEA886"/>
<path d="M574.635 416.409C574.635 416.409 573.686 424.364 574.068 424.949C574.451 425.534 574.884 425.557 575.003 424.816C575.123 424.074 576.141 417.155 576.141 417.155C576.141 417.155 576.602 426.76 576.809 427.308C576.929 427.626 577.767 427.727 577.869 427.335C577.97 426.944 578.058 417.399 578.058 417.399C578.058 417.399 578.504 426.363 578.813 426.769C579.085 427.123 579.877 427.022 579.886 426.354C579.9 425.686 579.955 417.339 579.955 417.339C579.955 417.339 580.692 423.844 581.153 424.033C581.439 424.148 582.157 424.267 581.913 422.595C581.669 420.923 581.512 416.916 581.512 416.916L574.63 416.404L574.635 416.409Z" fill="#EEA886"/>
<path d="M491.71 309.833C491.71 309.833 490.402 307.392 489.955 305.448C489.508 303.499 487.076 300.906 486.086 300.293C485.095 299.681 477.918 294.535 477.089 294.535C476.26 294.535 476.739 296.129 477.458 296.594C478.176 297.06 484.008 301.601 484.008 301.601C484.008 301.601 476.753 296.599 475.997 296.732C475.242 296.871 474.703 297.829 475.514 298.824C475.514 298.824 473.86 299.911 475.583 301.233L479.01 303.882C479.01 303.882 476.992 302.831 477.743 304.453C478.144 305.314 482.359 307.829 483.036 308.599C483.713 309.368 489.029 311.957 489.029 311.957L491.71 309.829V309.833Z" fill="#EEA886"/>
<path d="M534.218 532.794H532.422C532.422 532.794 533.021 526.004 531.358 525.935C529.695 525.866 525.568 531.463 523.103 532.329C520.639 533.195 507.989 533.927 507.925 531.596C507.86 529.265 512.785 528.335 514.314 527.667C515.843 526.999 523.301 519.744 524.633 518.878C525.964 518.012 528.161 513.617 528.161 513.617H534.951C534.951 513.617 535.697 517.302 536.126 520.283C536.287 521.384 536.402 522.388 536.416 523.074C536.48 525.603 534.218 532.794 534.218 532.794Z" fill="#EEA886"/>
<path d="M565.46 531.451H563.963V525.131C562.714 525.237 558.518 529.207 557.219 530.354C555.92 531.501 554.142 531.451 548.674 531.801C543.206 532.151 542.69 528.876 543.556 527.761C544.422 526.646 547.218 526.158 548.674 525.462C550.129 524.767 555.874 518.29 557.403 516.756C558.932 515.222 559.868 510.837 559.868 510.837L566.257 511.394C566.257 511.394 566.215 515.406 566.943 518.774C566.943 518.774 566.948 518.792 566.948 518.801C567.008 519.087 567.077 519.368 567.15 519.644C568.099 523.145 565.455 531.451 565.455 531.451H565.46Z" fill="#EEA886"/>
<path d="M550.511 320.17C550.511 320.17 553.629 326.752 551.966 332.133C551.966 332.133 561.566 330.825 561.852 329.701C562.137 328.577 560.65 318.489 561.76 315.393C562.87 312.297 550.515 320.17 550.515 320.17H550.511Z" fill="#EEA886"/>
<path d="M550.281 329.954C550.281 329.954 544.726 332.34 542.192 333.073C539.659 333.805 534.449 336.68 535.563 345.998C536.678 355.317 538.875 363.309 539.751 367.285C540.626 371.26 541.004 381.514 540.414 386.549C540.414 386.549 554.316 388.921 570.144 384.393C570.144 384.393 566.68 376.125 566.597 373.927C566.509 371.73 574.626 353.005 574.861 350.126C575.091 347.247 576.082 334.542 571.572 332.082C567.062 329.618 563.58 330.24 561.663 329.13C559.747 328.019 552.888 328.872 550.286 329.954H550.281Z" fill="#FFC055"/>
<path d="M550.308 344.446C550.308 344.446 552.441 333.252 541.593 333.271C532.057 333.284 523.047 331.479 521.536 330.64C520.025 329.802 514.193 326.932 511.13 323.781C508.067 320.63 491.47 308.009 491.47 308.009L486.882 312.647C486.882 312.647 504.391 331.663 507.215 333.515C510.038 335.366 533.739 348.605 536.747 349.025C539.755 349.444 548.198 351.738 550.313 344.446H550.308Z" fill="#FFC055"/>
<path d="M584.401 379.031C584.728 382.974 582.582 410.184 582.582 410.184L574.866 411.073C574.866 411.073 575.414 384.195 575.847 377.994C575.976 376.166 575.552 373.365 574.893 370.334C574.474 368.404 573.963 366.382 573.433 364.451C571.973 359.122 570.402 354.488 570.402 354.488C570.402 354.488 561.76 332.013 572.604 332.92C572.604 332.92 576.635 337.075 578.339 343.888C580.043 350.706 581.996 360.918 582.07 364.986C582.144 369.053 584.171 376.124 584.41 379.026L584.401 379.031Z" fill="#FFC055"/>
<path d="M542.274 386.329C542.274 386.329 539.782 392.216 539.566 393.704C539.344 395.192 531.541 414.627 530.998 420.311C530.449 426.06 528.8 441.404 528.215 443.601C527.63 445.798 529.533 455.61 529.827 457.807C530.122 460.005 529.975 495.893 527.335 513.614C527.335 513.614 533.49 516.249 538.174 513.614C538.174 513.614 545.936 485.93 545.499 469.964C545.061 453.998 543.034 447.259 545.512 440.814C547.991 434.37 562.492 415.037 563.957 412.982C565.422 410.932 574.598 399.6 565.91 387.32C557.222 375.043 542.279 386.32 542.279 386.32L542.274 386.329Z" fill="#323657"/>
<path d="M572.263 438.769C571.494 443.896 572.304 450.635 573.912 469.384C575.524 488.132 571.093 510.837 571.093 510.837C565.528 512.744 559.116 510.837 559.116 510.837C559.264 509.52 559.116 465.136 559.116 461.184C559.116 457.232 557.978 452.741 557.688 448.199C557.49 445.108 556.048 439.4 554.431 433.578C553.948 431.832 553.446 430.081 552.957 428.382C552.681 427.428 552.414 426.493 552.151 425.586C549.871 417.676 546.803 387.131 546.803 387.131C546.803 387.131 563.801 373.441 572.079 386.329C580.357 399.218 576.105 408.592 575.815 410.205C575.524 411.817 573.032 433.642 572.258 438.769H572.263Z" fill="#323657"/>
<path d="M539.318 363.292C539.318 363.292 540.828 387.558 536.31 401.216C536.31 401.216 554.261 404.211 577.164 396.495C577.164 396.495 570.867 380.183 571.084 377.631C571.3 375.084 577.929 345.377 574.746 338.735C571.563 332.087 540.446 341.521 539.318 363.296V363.292Z" fill="#FFC055"/>
<path d="M553.984 293.116C549.88 292.95 539.4 294.54 541.353 310.335C543.307 326.126 549.009 324.762 554.657 322.662C560.304 320.566 566.284 307.792 566.044 304.508C565.804 301.219 565.694 293.591 553.984 293.121V293.116Z" fill="#EEA886"/>
<path d="M541.409 303.035C541.409 303.035 546.416 308.549 551.128 309.617C551.128 309.617 555.136 315.707 561.447 316.873C561.447 316.873 573.737 303.288 561.944 294.596C550.152 285.903 540.985 298.193 541.409 303.035Z" fill="#33373B"/>
<path d="M550.105 307.498C550.198 306.623 551.994 304.716 553.616 306.582C555.242 308.447 552.869 313.242 551.847 313.316C550.824 313.39 549.755 310.824 550.105 307.494V307.498Z" fill="#EEA886"/>
<path d="M565.215 411.222C565.081 411.512 556.614 430.315 554.435 433.577C553.952 431.831 553.45 430.08 552.961 428.381C552.961 428.381 564.934 411.636 565.219 411.222H565.215Z" fill="#23263D"/>
<path d="M575.271 351.062C575.271 351.062 575.869 363.011 574.893 370.335C574.474 368.405 573.962 366.383 573.433 364.452C573.474 364.176 575.119 352.95 575.275 351.062H575.271Z" fill="#C49441"/>
<path d="M537.871 341.784C537.871 341.784 534.199 354.894 533.425 357.644C532.417 361.219 537.507 366.484 541.648 364.416C545.789 362.347 537.875 341.784 537.875 341.784H537.871Z" fill="#FFC055"/>
<path d="M565.46 531.449H563.963V525.129C562.714 525.235 558.518 529.206 557.219 530.353C555.92 531.5 554.142 531.449 548.674 531.799C543.206 532.149 542.69 528.874 543.556 527.76C544.422 526.645 547.218 526.156 548.674 525.461C554.524 525.774 561.664 517.552 565.087 517.565C566.906 517.575 566.892 518.583 566.948 518.772C566.948 518.772 566.952 518.791 566.952 518.8C567.012 519.086 567.081 519.367 567.155 519.643C568.104 523.144 565.46 531.449 565.46 531.449Z" fill="#323657"/>
<path d="M534.218 532.795H532.422C532.422 532.795 533.021 526.005 531.358 525.936C529.695 525.867 525.568 531.464 523.103 532.33C520.639 533.196 507.989 533.928 507.925 531.597C507.86 529.266 512.785 528.336 514.314 527.668C519.533 527.654 528.018 521.914 530.649 520.749C533.279 519.584 536.126 520.284 536.126 520.284C536.287 521.385 536.402 522.389 536.416 523.075C536.48 525.604 534.218 532.795 534.218 532.795Z" fill="#323657"/>
<path d="M557.145 292.094C557.145 292.094 571.425 291.767 569.283 316.305C567.634 335.164 574.566 344.483 573.59 347.233C572.613 349.983 569.264 354.576 561.765 350.435C554.266 346.289 559.204 324.675 555.173 316.264C551.147 307.853 542.303 303.956 542.303 303.956C542.303 303.956 543.855 289.634 557.14 292.099L557.145 292.094Z" fill="#33373B"/>
<path d="M344.309 477.448C342.808 480.668 321.544 509.804 320.254 513.097C318.965 516.391 310.185 530.275 310.185 530.275L304.791 526.484C304.791 526.484 318.813 486.891 323.189 481.423C323.29 481.294 323.387 481.188 323.474 481.096C324.022 480.557 324.607 479.991 325.197 479.401C328.919 475.688 330.209 472.303 327.431 468.47C324.211 464.029 313.524 438.643 313.022 436.137C312.52 433.631 293.694 399.558 333.926 413.515C333.926 413.515 340.725 434.778 341.73 450.454C342.734 466.135 345.811 474.223 344.309 477.443V477.448Z" fill="#EEA987"/>
<path d="M325.197 479.405C325.197 479.405 325.183 489.834 324.755 493.091C324.322 496.343 324.313 500.954 324.313 500.954C324.313 500.954 319.918 487.872 323.189 481.427C323.29 481.298 323.387 481.193 323.474 481.1C324.022 480.561 324.608 479.995 325.197 479.405Z" fill="#A77860"/>
<path d="M366.692 351.9C366.692 351.9 367.95 348.832 368.415 348.132C368.88 347.432 367.429 345.912 366.522 347.736C365.61 349.56 365.052 350.726 365.052 350.726L366.692 351.9Z" fill="#EEA886"/>
<path d="M365.425 354.784L369.691 341.568C369.971 340.698 369.428 339.776 368.53 339.601L362.113 338.335C361.307 338.173 360.519 338.68 360.33 339.477L357.087 353.048C356.88 353.909 357.447 354.761 358.317 354.909L363.711 355.821C364.458 355.945 365.19 355.507 365.42 354.784H365.425Z" fill="#7D699C"/>
<path d="M367.166 353.899C367.166 353.899 367.705 352.752 365.83 350.835C363.338 348.288 359.851 345.349 359.022 345.474C357.833 345.653 358.068 346.593 359.745 347.924C361.422 349.251 361.979 349.684 361.979 349.684C361.979 349.684 358.377 347.961 357.377 348.099C356.377 348.237 355.954 349.251 356.502 349.647C357.05 350.039 358.455 350.67 358.455 350.67C358.455 350.67 356.852 350.149 356.46 350.725C356.17 351.153 355.866 351.803 357.262 352.632C357.262 352.632 355.829 353.387 357.091 354.668C358.349 355.949 358.515 356.727 358.317 358.399C358.123 360.071 359.183 362.706 359.183 362.706L364.043 362.163C364.043 362.163 364.936 357.8 365.567 356.782C366.198 355.764 367.166 353.89 367.166 353.89V353.899Z" fill="#EEA886"/>
<path d="M364.568 362.717C364.577 363.947 345.521 388.472 344.005 388.49C341.656 388.522 338.745 384.999 336.52 381.663C336.52 381.663 336.63 381.115 337.34 375.076C338.049 369.037 335.46 365.057 335.46 365.057C335.46 365.057 333.493 373.524 334.239 377.965C333.525 376.712 333.092 375.869 333.092 375.869C333.092 375.869 314.722 356.144 326.455 350.874C326.455 350.874 332.572 352.928 335.257 357.664C337.943 362.399 339.076 367.508 339.998 370.392C339.998 370.392 342.789 376.384 343.558 375.846C344.328 375.307 348.068 370.092 351.141 367.646C354.208 365.205 357.553 359.41 357.553 359.41C357.553 359.41 364.559 361.326 364.568 362.717Z" fill="#323657"/>
<path d="M337.344 375.075C336.634 381.114 336.524 381.662 336.524 381.662C335.626 380.312 334.838 378.999 334.244 377.963C333.497 373.522 335.464 365.056 335.464 365.056C335.464 365.056 338.053 369.04 337.344 375.075Z" fill="#AB3434"/>
<path d="M320.508 548.161C320.504 549.824 320.614 550.74 315.888 550.805C311.162 550.869 306.611 544.807 303.432 540.542C300.254 536.276 296.117 534.245 298.715 531.356C299.033 531.002 299.374 530.642 299.719 530.283C302.189 527.722 305.114 525.207 305.501 524.691C305.938 524.11 310.181 530.278 310.181 530.278C310.181 530.278 309.826 533.374 310.586 535.184C311.346 536.99 312.548 543.55 314.787 544.641C317.026 545.724 320.499 547.797 320.499 548.161H320.508Z" fill="#EEA987"/>
<path d="M348.939 556.536C345.553 556.472 335.963 555.979 330.633 556.536C325.303 557.098 323.235 556.283 323.613 552.46C323.631 552.252 323.659 552.041 323.686 551.829C324.165 548.088 325.663 543.39 325.764 541.823C325.874 540.17 332.618 541.086 332.618 541.086C332.618 541.086 336.151 546.31 338.095 547.379C340.039 548.443 345.922 550.617 348.179 551.617C348.345 551.69 348.524 551.76 348.713 551.824C351.099 552.63 355.13 552.745 355.71 554.021C356.337 555.403 352.325 556.592 348.939 556.532V556.536Z" fill="#EEA987"/>
<path d="M301.833 412.014C301.833 412.014 292.252 426.892 294.615 440.422C296.978 453.951 305.652 468.719 307.158 474.408C308.66 480.097 308.31 486.09 308.319 490.609C308.338 497.799 312.548 511.338 315.8 517.999C318.965 524.485 326.059 543.026 326.059 543.026L332.826 542.058C332.826 542.058 323.055 496.316 322.945 492.986C322.839 489.655 323.696 479.779 322.728 475.481C321.761 471.188 317.574 442.085 316.178 436.718C314.782 431.352 319.591 402.994 301.838 412.014H301.833Z" fill="#EEA987"/>
<path d="M333.571 408.798C333.571 408.798 335.372 415.427 336.026 417.352C336.676 419.278 342.3 443.669 344.714 462.251C344.714 462.251 336.105 476.08 304.79 475.569C304.79 475.569 293.163 446.903 293.458 436.686C293.804 424.796 299.764 408.913 303.606 405.97C307.024 403.349 333.571 408.798 333.571 408.798Z" fill="#323657"/>
<path d="M337.344 375.075C336.634 381.114 336.524 381.662 336.524 381.662C335.626 380.312 334.838 378.999 334.244 377.963C333.497 373.522 335.464 365.056 335.464 365.056C335.464 365.056 338.053 369.04 337.344 375.075Z" fill="#1D2033"/>
<path d="M299.378 376.646C301.478 380.732 302.676 387.383 303.887 388.954C306.177 391.93 305.504 396.113 305.491 397.453C305.467 401.345 300.493 410.885 300.493 410.885C302.897 412.166 334.129 413.267 333.571 408.803C333.014 404.335 333.82 388.576 334.143 385.269C334.47 381.962 334.032 378.673 334.327 377.226C334.622 375.78 336.174 373.186 336.308 369.206C336.446 365.226 333.498 361.785 332.332 358.962C330.923 355.544 328.325 350.854 325.869 350.744C323.668 350.647 320.554 349.293 320.554 349.293L311.82 348.62C311.82 348.62 309.392 349.454 305.679 349.73C301.967 350.011 299.949 350.407 296.199 352.466C292.454 354.521 294.232 368.566 294.232 368.566C294.232 368.566 297.3 372.293 299.373 376.646H299.378Z" fill="#323657"/>
<path d="M321.056 339.96C321.056 339.96 320.895 340.987 320.761 342.493C320.692 343.262 320.632 344.161 320.604 345.105C320.526 347.726 320.697 350.757 321.645 352.65C321.645 352.65 316.878 355.746 311.47 348.68C311.47 348.68 311.719 339.702 308.595 335.026C305.472 330.35 321.056 339.96 321.056 339.96Z" fill="#EEA886"/>
<path d="M309.341 349.242C309.341 349.242 311.797 361.905 319.443 360.238C327.09 358.575 320.982 349.422 320.982 349.422C320.982 349.422 317.711 346.409 309.341 349.237V349.242Z" fill="#EEA886"/>
<path d="M297.019 384.26C297.019 384.26 300.262 385.978 302.275 386.568C303.832 387.024 307.117 389.267 307.591 390.53C308.066 391.787 307.983 398.78 308.342 399.402C308.701 400.019 307.481 400.369 306.743 399.48C306.743 399.48 304.606 401.428 302.952 399.402C301.299 397.375 300.893 394.643 299.963 393.708C299.032 392.773 293.458 387.586 293.458 387.586C293.458 387.586 295.656 382.791 297.019 384.265V384.26Z" fill="#EEA886"/>
<path d="M326.754 329.272C326.754 329.272 325.252 344.068 327.989 347.781C327.989 347.781 320.752 346.206 319.075 343.714C317.398 341.222 326.754 329.272 326.754 329.272Z" fill="#323657"/>
<path d="M316.943 312.621C316.943 312.621 325.792 312.391 327.418 322.866C329.044 333.341 325.281 342.545 323.807 344.019C322.333 345.493 313.484 344.373 311.401 338.933C309.315 333.493 306.265 329.527 306.726 324.851C307.182 320.176 306.063 312.446 316.948 312.621H316.943Z" fill="#EEA886"/>
<path d="M327.79 326.827C327.79 326.827 330.158 313.763 318.416 311.423C306.67 309.083 302.552 317.116 301.432 321.898C300.313 326.679 301.635 340.153 301.635 340.153C301.635 340.153 309.466 347.017 314.141 348.795C314.141 348.795 310.226 334.455 311.7 324.187C311.7 324.187 321.245 325.684 327.583 324.123C327.583 324.123 327.772 326.269 327.79 326.827Z" fill="#323657"/>
<path d="M320.794 344.595C320.794 344.595 317.721 344.576 313.543 341.858C313.543 341.858 316.486 345.553 320.582 346.902C320.582 346.902 320.826 345.064 320.794 344.595Z" fill="#A77860"/>
<path d="M348.939 556.536C345.553 556.472 335.963 555.979 330.633 556.536C325.303 557.098 323.235 556.283 323.613 552.46C323.631 552.252 323.659 552.04 323.686 551.829C324.972 550.94 334.212 551.474 339.675 552.188C345.139 552.897 348.713 551.829 348.713 551.829C351.099 552.635 355.13 552.75 355.71 554.026C356.337 555.408 352.325 556.596 348.939 556.536Z" fill="#323657"/>
<path d="M320.656 548.103C320.651 549.766 320.614 550.742 315.888 550.807C311.162 550.871 306.611 544.809 303.432 540.544C300.254 536.278 296.117 534.247 298.715 531.358C299.033 531.004 299.374 530.644 299.719 530.285C299.867 530.41 305.98 535.937 307.928 539.793C311.171 546.2 314.64 544.616 314.792 544.643C317.03 545.726 320.651 547.739 320.651 548.107L320.656 548.103Z" fill="#323657"/>
<path d="M308.287 354.471C307.513 352.504 301.271 349.524 295.96 352.596C290.644 355.669 286.567 359.032 283.453 360.381C280.34 361.731 269.399 370.004 268.252 371.962C267.239 373.694 266.52 374.799 270.988 377.655C275.553 380.571 293.486 388.785 293.486 388.785L297.499 383.962C297.499 383.962 292.694 380.898 289.138 378.614C285.6 376.338 286.941 377.015 282.905 374.804C282.905 374.804 289.622 370.732 292.164 369.847C294.712 368.963 311.76 363.329 308.282 354.471H308.287Z" fill="#323657"/>
<path d="M77.0616 143.537C77.0616 143.537 73.4639 136.936 71.4187 134.559C69.3734 132.182 62.5743 130.404 63.5002 127.368C64.4261 124.333 73.5284 125.655 76.0389 128.621C78.5448 131.592 86.2007 132.647 86.4633 133.9C86.7259 135.153 83.8054 142.017 82.1655 143.136C80.5256 144.26 77.0616 143.537 77.0616 143.537Z" fill="white"/>
<path d="M61.7775 149.128C61.7775 149.128 55.9181 144.485 53.0989 143.117C50.2798 141.749 43.3333 142.813 42.974 139.662C42.6147 136.511 51.4959 134.107 54.9784 135.834C58.4608 137.562 65.9048 135.493 66.6419 136.539C67.3835 137.585 67.425 145.042 66.3655 146.724C65.306 148.405 61.7729 149.128 61.7729 149.128H61.7775Z" fill="white"/>
<path d="M74.7857 161.22C74.7857 161.22 77.3423 143.734 77.2271 140.698C77.1949 139.832 82.4877 140.155 82.2435 141.822C81.7046 145.452 84.1506 159.506 83.7222 162.081C83.2984 164.656 74.5692 162.846 74.7857 161.225V161.22Z" fill="#EEA886"/>
<path d="M66.7703 166.246C66.7703 166.246 61.9796 149.267 60.8602 146.443C60.3627 145.185 65.2456 143.237 65.9089 145.48C66.9499 148.999 74.6796 160.953 75.3106 163.482C75.9417 166.011 67.2125 167.817 66.7703 166.246Z" fill="#EEA886"/>
<path d="M70.1013 178.044C70.1013 178.044 64.9559 160.691 64.1636 158.84L72.2801 153.823C72.2801 153.823 76.039 164.911 76.5687 167.679C77.0985 170.448 70.1013 178.039 70.1013 178.039V178.044Z" fill="#323657"/>
<path d="M213.772 132.19C213.772 132.19 205.932 134.171 202.205 140.1C198.474 146.028 195.254 152.855 188.248 155.95C181.241 159.046 181.195 167.029 181.744 168.259C182.287 169.489 203.818 193.686 208.512 194.622C213.21 195.557 222.004 194.907 221.064 188.688C220.124 182.47 210.907 169.097 216.08 162.349C221.253 155.6 222.557 149.386 222.557 149.386L213.777 132.19H213.772Z" fill="#2E334D"/>
<path d="M212.403 161.134C212.403 161.134 212.173 161.056 211.79 161.023C211.344 160.982 210.694 160.996 209.957 161.244C209.773 161.304 209.529 161.433 209.239 161.599C207.378 162.695 202.969 165.676 202.37 165.745C201.684 165.828 202.264 155.546 202.264 155.546C202.264 155.546 204.609 151.396 204.908 148.66C205.203 145.928 212.403 161.129 212.403 161.129V161.134Z" fill="#EEA886"/>
<path d="M157.269 171.876C157.269 171.876 148.66 165.837 138.562 167.721C128.465 169.6 127.378 174.322 123.914 174.534C120.45 174.745 108.869 173.76 99.366 176.528C89.8629 179.301 81.8477 179.596 80.756 178.804C79.6688 178.011 86.6937 162.174 86.6937 159.996L74.915 156.928C74.915 156.928 71.5477 170.982 70.2303 174.151C68.8207 177.537 66.1075 183.917 69.9677 189.458C73.8279 195 84.6162 192.503 91.1481 193.618C97.68 194.737 126.922 194.019 132.026 193.747C137.567 193.452 154.298 192.66 154.298 192.66L157.269 171.876Z" fill="#323657"/>
<path d="M227.996 140.58C227.996 140.58 228.544 149.088 226.656 151.64C225.9 152.658 225.389 153.215 225.043 153.515C224.56 153.934 224.182 154.468 223.966 155.072C223.381 156.707 223.021 159.01 222.561 159.503C222.054 160.037 220.584 158.674 220.05 158.674C219.52 158.674 214.338 163.142 213.099 162.225C211.86 161.309 204.301 153.639 204.936 148.379C205.572 143.118 207.889 135.269 216.402 135.315C224.914 135.361 227.342 138.461 227.996 140.58Z" fill="#EEA886"/>
<path d="M202.274 181.181C202.112 181.531 198.98 186.529 195.553 189.426C194.129 190.633 192.655 191.472 191.32 191.472C190.914 191.472 190.513 191.476 190.126 191.486C186.193 191.591 183.171 192.195 177.855 192.457C172.336 192.734 158.95 191.965 158.554 191.965C158.158 191.965 154.298 192.656 154.298 192.656C152.911 190.974 156.573 171.968 157.269 171.871C157.96 171.775 162.414 173.456 166.67 172.76C170.927 172.069 172.608 171.673 178.942 164.248C185.276 156.822 191.61 154.943 194.286 155.537C196.958 156.131 202.269 155.537 202.269 155.537C202.269 155.537 202.499 180.679 202.269 181.172L202.274 181.181Z" fill="#95804B"/>
<path d="M265.355 197.811H232.492V201.376H265.355V197.811Z" fill="#EBE2D8"/>
<path d="M273.319 166.68L261.978 200.242L265.368 201.352L276.7 167.808L273.319 166.68Z" fill="#EBE2D8"/>
<path d="M224.417 146.674C224.417 146.674 226.002 150.783 226.845 151.349C226.845 151.349 229.908 148.111 227.941 140.123C225.974 132.136 218.558 131.385 213.772 132.196C207.811 133.204 201.814 153.371 202.122 155.334C202.431 157.296 209.11 144.914 214.96 145.909C220.811 146.904 220.857 147.231 224.422 146.674H224.417Z" fill="#2E334D"/>
<path d="M211.791 161.017C211.344 160.976 210.718 161.031 209.976 161.28C209.792 161.34 209.529 161.423 209.239 161.593C207.871 159.46 206.604 154.398 206.558 154.228C207.47 157.001 211.786 161.017 211.786 161.017H211.791Z" fill="#A77860"/>
<path d="M195.548 189.426C194.125 190.633 192.651 191.472 191.315 191.472C190.91 191.472 190.509 191.476 190.122 191.485L191.744 175.731L195.548 189.422V189.426Z" fill="#2B4724"/>
<path d="M202.656 174.178C202.656 174.178 203.145 186.588 203.393 188.67C203.642 190.743 203.37 191.968 205.609 192.166C207.825 192.36 223.385 194.147 228.135 194.94C232.884 195.732 234.676 193.871 235.533 193.604C236.389 193.336 241.774 193.171 243.377 193.7C245.059 194.258 247.237 195.58 248.624 195.778C250.011 195.976 251.922 196.75 251.793 197.413C251.66 198.072 248.592 197.975 247.67 197.975C246.749 197.975 231.981 197.579 231.258 197.943C230.336 198.404 218.406 198.998 216.232 198.998C214.057 198.998 196.765 200.352 195.249 198.238C193.734 196.123 191.785 174.349 191.983 173.363C192.181 172.373 201.588 171.866 202.661 174.178H202.656Z" fill="#EEA886"/>
<path d="M203.425 174.45C203.425 174.45 204.02 157.913 198.639 158.12C191.84 158.378 190.822 166.697 191.743 175.74C191.743 175.74 201.905 175.836 203.421 174.455L203.425 174.45Z" fill="#95804B"/>
</g>
<defs>
<linearGradient id="paint0_linear_109_2765" x1="352.26" y1="312.059" x2="1272" y2="312.059" gradientUnits="userSpaceOnUse">
<stop stop-color="#6B9E34"/>
<stop offset="0.14" stop-color="#61933C"/>
<stop offset="1" stop-color="#1F4A6E"/>
</linearGradient>
<linearGradient id="paint1_linear_109_2765" x1="146.467" y1="511.185" x2="146.467" y2="442.338" gradientUnits="userSpaceOnUse">
<stop stop-color="#FF9F55"/>
<stop offset="1" stop-color="#FFD255"/>
</linearGradient>
<linearGradient id="paint2_linear_109_2765" x1="144.039" y1="355.948" x2="144.039" y2="451.256" gradientUnits="userSpaceOnUse">
<stop stop-color="#40D5E6"/>
<stop offset="1" stop-color="#5577FF"/>
</linearGradient>
<linearGradient id="paint3_linear_109_2765" x1="209.631" y1="360.523" x2="209.631" y2="289.266" gradientUnits="userSpaceOnUse">
<stop stop-color="#FF9F55"/>
<stop offset="1" stop-color="#FFD255"/>
</linearGradient>
<linearGradient id="paint4_linear_109_2765" x1="128.078" y1="168.941" x2="128.078" y2="248.992" gradientUnits="userSpaceOnUse">
<stop stop-color="#40D5E6"/>
<stop offset="1" stop-color="#5577FF"/>
</linearGradient>
<linearGradient id="paint5_linear_109_2765" x1="188.501" y1="129.469" x2="188.501" y2="193.498" gradientUnits="userSpaceOnUse">
<stop stop-color="#40D5E6"/>
<stop offset="1" stop-color="#5577FF"/>
</linearGradient>
<linearGradient id="paint6_linear_109_2765" x1="964.784" y1="388.854" x2="1101.35" y2="388.854" gradientUnits="userSpaceOnUse">
<stop stop-color="#FF9F55"/>
<stop offset="1" stop-color="#FFD255"/>
</linearGradient>
<linearGradient id="paint7_linear_109_2765" x1="900.629" y1="502.583" x2="1035.87" y2="502.583" gradientUnits="userSpaceOnUse">
<stop stop-color="#FF9F55"/>
<stop offset="1" stop-color="#FFD255"/>
</linearGradient>
<linearGradient id="paint8_linear_109_2765" x1="1200.74" y1="451.138" x2="942.788" y2="451.138" gradientUnits="userSpaceOnUse">
<stop stop-color="#609FF0"/>
<stop offset="1" stop-color="#5A3F9E"/>
</linearGradient>
<linearGradient id="paint9_linear_109_2765" x1="520.584" y1="77.8214" x2="635.689" y2="77.8214" gradientUnits="userSpaceOnUse">
<stop stop-color="#FF9F55"/>
<stop offset="1" stop-color="#FFD255"/>
</linearGradient>
<linearGradient id="paint10_linear_109_2765" x1="639.443" y1="28.2705" x2="692.215" y2="28.2705" gradientUnits="userSpaceOnUse">
<stop stop-color="#FF9F55"/>
<stop offset="1" stop-color="#FFD255"/>
</linearGradient>
<clipPath id="clip0_109_2765">
<rect width="1272" height="556.444" fill="white" transform="translate(0 0.250977)"/>
</clipPath>
</defs>
</svg>
