<svg width="764" height="500" viewBox="0 0 764 500" fill="none" xmlns="http://www.w3.org/2000/svg">
<path d="M200.389 270.248C200.389 262.369 194.02 256 186.14 256H39.5625V284.478H186.14C194.02 284.478 200.389 278.109 200.389 270.229V270.248Z" fill="#FEC442"/>
<path d="M186.983 270.248C186.983 262.369 180.595 256 172.735 256H52.9707V284.478H172.735C180.576 284.478 186.983 278.109 186.983 270.229V270.248Z" fill="#91562F"/>
<path d="M173.233 270.248C173.233 262.369 166.845 256 158.984 256H39.584V284.478H158.984C166.826 284.478 173.233 278.109 173.233 270.229V270.248Z" fill="#FEC442"/>
<path d="M129.797 270.248C129.797 262.369 123.409 256 115.548 256H39.5625V284.478H115.548C123.39 284.478 129.797 278.109 129.797 270.229V270.248Z" fill="#91562F"/>
<path d="M116.581 270.248C116.581 262.369 110.193 256 102.332 256H39.5625V284.478H102.332C110.174 284.478 116.581 278.109 116.581 270.229V270.248Z" fill="#FEC442"/>
<path d="M86.7455 281.59H39.582V258.582H86.7455C93.0951 258.582 98.2399 263.727 98.2399 270.096C98.2399 276.464 93.0951 281.609 86.7455 281.609V281.59Z" fill="#F0F1F1"/>
<g style="mix-blend-mode:multiply" opacity="0.1">
<path d="M86.3439 277.23H39.582V278.186H86.3439V277.23Z" fill="black"/>
</g>
<g style="mix-blend-mode:multiply" opacity="0.1">
<path d="M86.3439 272.219H39.582V273.175H86.3439V272.219Z" fill="black"/>
</g>
<g style="mix-blend-mode:multiply" opacity="0.1">
<path d="M86.3439 267.188H39.582V268.145H86.3439V267.188Z" fill="black"/>
</g>
<g style="mix-blend-mode:multiply" opacity="0.1">
<path d="M86.3439 262.178H39.582V263.134H86.3439V262.178Z" fill="black"/>
</g>
<path d="M202.416 327.224C202.416 319.344 196.047 312.975 188.168 312.975H41.5898V341.453H188.168C196.047 341.453 202.416 335.084 202.416 327.204V327.224Z" fill="#DB2955"/>
<g style="mix-blend-mode:overlay" opacity="0.3">
<path d="M189.028 327.224C189.028 319.344 182.64 312.975 174.779 312.975H55.0156V341.453H174.779C182.621 341.453 189.028 335.084 189.028 327.204V327.224Z" fill="black"/>
</g>
<path d="M175.258 327.224C175.258 319.344 168.87 312.975 161.01 312.975H41.6094V341.453H161.01C168.851 341.453 175.258 335.084 175.258 327.204V327.224Z" fill="#DB2955"/>
<g style="mix-blend-mode:overlay" opacity="0.3">
<path d="M131.824 327.224C131.824 319.344 125.436 312.975 117.575 312.975H41.5898V341.453H117.575C125.417 341.453 131.824 335.084 131.824 327.204V327.224Z" fill="black"/>
</g>
<path d="M118.628 327.224C118.628 319.344 112.24 312.975 104.379 312.975H41.6094V341.453H104.379C112.221 341.453 118.628 335.084 118.628 327.204V327.224Z" fill="#DB2955"/>
<path d="M88.7924 338.566H41.6289V315.558H88.7924C95.142 315.558 100.287 320.702 100.287 327.052C100.287 333.402 95.142 338.566 88.7924 338.566Z" fill="#F0F1F1"/>
<g style="mix-blend-mode:multiply" opacity="0.1">
<path d="M88.3907 334.205H41.6289V335.161H88.3907V334.205Z" fill="black"/>
</g>
<g style="mix-blend-mode:multiply" opacity="0.1">
<path d="M88.3907 329.175H41.6289V330.131H88.3907V329.175Z" fill="black"/>
</g>
<g style="mix-blend-mode:multiply" opacity="0.1">
<path d="M88.3907 324.164H41.6289V325.12H88.3907V324.164Z" fill="black"/>
</g>
<g style="mix-blend-mode:multiply" opacity="0.1">
<path d="M88.3907 319.153H41.6289V320.109H88.3907V319.153Z" fill="black"/>
</g>
<path d="M216.627 298.746C216.627 290.866 210.258 284.497 202.378 284.497H55.8008V312.975H202.378C210.258 312.975 216.627 306.606 216.627 298.726V298.746Z" fill="#41AE9B"/>
<g style="mix-blend-mode:overlay" opacity="0.3">
<path d="M203.219 298.746C203.219 290.866 196.831 284.497 188.971 284.497H69.207V312.975H188.971C196.812 312.975 203.219 306.606 203.219 298.726V298.746Z" fill="black"/>
</g>
<path d="M189.45 298.746C189.45 290.866 183.062 284.497 175.201 284.497H55.8008V312.975H175.201C183.043 312.975 189.45 306.606 189.45 298.726V298.746Z" fill="#41AE9B"/>
<g style="mix-blend-mode:overlay" opacity="0.3">
<path d="M146.035 298.746C146.035 290.866 139.647 284.497 131.786 284.497H55.8008V312.975H131.786C139.628 312.975 146.035 306.606 146.035 298.726V298.746Z" fill="black"/>
</g>
<path d="M132.819 298.746C132.819 290.866 126.431 284.497 118.571 284.497H55.8008V312.975H118.571C126.412 312.975 132.819 306.606 132.819 298.726V298.746Z" fill="#41AE9B"/>
<path d="M102.984 310.087H55.8203V287.079H102.984C109.333 287.079 114.497 292.223 114.497 298.592C114.497 304.961 109.353 310.087 102.984 310.087Z" fill="#F0F1F1"/>
<g style="mix-blend-mode:multiply" opacity="0.1">
<path d="M102.582 305.708H55.8203V306.664H102.582V305.708Z" fill="black"/>
<path d="M102.582 300.696H55.8203V301.653H102.582V300.696Z" fill="black"/>
<path d="M102.582 295.686H55.8203V296.642H102.582V295.686Z" fill="black"/>
<path d="M102.582 290.656H55.8203V291.612H102.582V290.656Z" fill="black"/>
</g>
<path d="M202.014 405.581H212.705V358.341H202.014V405.581Z" fill="#59595B"/>
<path d="M31.3186 405.581H42.0098L42.0098 358.341H31.3186L31.3186 405.581Z" fill="#293959"/>
<path d="M9.00037 363.619H235.025V339.617H9.00037V363.619Z" fill="#293959"/>
<path d="M201.901 405.581H212.592V358.341H201.901V405.581Z" fill="#293959"/>
<g clip-path="url(#clip0_443_10017)">
<path d="M473.707 254.88C474.214 252.08 474.788 249.336 475.399 246.631C480.562 223.985 494.212 210.946 494.212 210.946C494.212 210.946 488.744 207.351 480.217 202.811C471.71 198.27 460.124 192.783 447.926 188.969L450.373 224.061L439.227 235.026L445.785 267.671L409.612 314.894L373.43 267.671L378.793 236.66L367.608 226.355L368.497 189.571C340.957 196.616 323.75 210.946 323.75 210.946C323.75 210.946 333.558 223.879 340.001 246.631C340.766 249.24 341.463 252.013 342.104 254.88C342.993 258.924 343.729 263.197 344.303 267.69C344.303 267.757 344.331 267.814 344.331 267.91C344.456 269.057 344.589 270.204 344.714 271.38C344.972 273.512 345.125 275.682 345.259 277.909C345.383 280.012 345.478 282.115 345.517 284.285C345.517 284.629 345.029 290.393 344.245 299.236C344.427 298.567 344.608 297.897 344.79 297.238C344.608 297.897 344.436 298.567 344.245 299.236C341.368 331.795 334.609 406.195 334.609 406.195C347.448 418.661 387.826 425.266 405.626 426.853L410.214 407.132L414.172 427.312C414.172 427.312 445.995 424.473 468.431 418.145C476.671 415.822 483.64 413.021 487.301 409.713C487.425 409.618 487.54 409.493 487.664 409.379C487.664 409.379 487.578 408.709 487.416 407.467C485.877 395.298 477.33 328.43 473.555 298.614C471.439 290.865 471.439 290.865 473.555 298.614C472.484 290.116 471.796 284.62 471.767 284.285C471.604 282.182 471.547 280.05 471.547 277.909C471.547 275.768 471.576 273.54 471.738 271.38C472.054 265.835 472.723 260.262 473.717 254.88H473.707Z" fill="#283044"/>
<g style="mix-blend-mode:overlay" opacity="0.5">
<path d="M409.614 314.895C408.993 322.762 408.677 330.62 408.458 338.487C408.219 346.354 408.152 354.212 408.123 362.079C408.152 369.947 408.209 377.805 408.448 385.672C408.668 393.539 408.993 401.397 409.614 409.264C410.236 401.397 410.561 393.539 410.781 385.672C411.02 377.805 411.086 369.947 411.106 362.079C411.077 354.212 411.01 346.354 410.771 338.487C410.551 330.62 410.226 322.762 409.614 314.895Z" fill="white"/>
</g>
<g style="mix-blend-mode:overlay" opacity="0.5">
<path d="M468.642 364.403H427.967V373.274H468.642V364.403Z" fill="white"/>
</g>
<g style="mix-blend-mode:overlay" opacity="0.5">
<path d="M391.261 364.403H350.576V373.274H391.261V364.403Z" fill="white"/>
</g>
<path d="M415.798 229.337L416.123 230.073L411.047 235.895L420.291 266.638L432.575 211.088L418.331 234.509L415.798 229.337Z" fill="#1B6FA1"/>
<path d="M399.95 230.111L397.789 234.509L383.498 211.012L397.264 265.758L405.312 235.579L399.95 230.111Z" fill="#1B6FA1"/>
<path d="M409.614 312.226L406.469 302.371L409.614 314.893L412.271 302.896L409.614 312.226Z" fill="#D35B30"/>
<path d="M411.048 235.895L416.124 230.074L415.799 229.338L410.781 219.119L408.066 213.574L405.666 218.459L399.95 230.112L405.313 235.58L397.264 265.759L406.469 302.371L409.614 312.227L412.272 302.897L420.292 266.638L411.048 235.895Z" fill="#DB2955"/>
<path d="M407.779 212.838L408.066 212.608L377.811 188.395L378.614 191.578L383.47 210.888L383.498 211.012L397.79 234.509L405.666 218.459L408.066 213.574L407.722 212.886L407.779 212.838Z" fill="white"/>
<path d="M383.467 210.887L383.41 210.868L383.496 211.011L383.467 210.887Z" fill="#5374A5"/>
<path d="M408.399 212.886L408.064 213.574L408.399 212.886Z" fill="white"/>
<path d="M408.065 212.608L407.778 212.837L407.721 212.885L408.065 213.574L410.78 219.118L415.798 229.337L418.332 234.509L432.575 211.088L432.613 210.945L436.963 191.281L437.441 189.083L408.065 212.608Z" fill="white"/>
<path d="M432.574 211.088L432.679 210.917L432.612 210.945L432.574 211.088Z" fill="#5374A5"/>
<path d="M450.367 224.061L447.929 188.968L447.728 186.034L439.622 179.266L439.345 180.537L438.255 185.451L437.452 189.102L436.965 191.291L432.615 210.955L432.692 210.926L432.586 211.098L420.303 266.648L412.282 302.906L409.625 314.903L406.48 302.38L397.274 265.768L383.509 211.022L383.423 210.878L383.48 210.898L378.624 191.588L377.821 188.404L377.448 186.923L376.272 182.248L376.225 182.057L368.52 189.255V189.59L367.621 226.374L378.815 236.679L373.462 267.69L409.634 314.913L445.807 267.69L439.249 235.035L450.386 224.07L450.367 224.061Z" fill="#283044"/>
<g style="mix-blend-mode:overlay" opacity="0.5">
<path d="M450.367 224.061L447.929 188.968L447.728 186.034L439.622 179.266L439.345 180.537L438.255 185.451L437.452 189.102L436.965 191.291L432.615 210.955L432.692 210.926L432.586 211.098L420.303 266.648L412.282 302.906L409.625 314.903L406.48 302.38L397.274 265.768L383.509 211.022L383.423 210.878L383.48 210.898L378.624 191.588L377.821 188.404L377.448 186.923L376.272 182.248L376.225 182.057L368.52 189.255V189.59L367.621 226.374L378.815 236.679L373.462 267.69L409.634 314.913L445.807 267.69L439.249 235.035L450.386 224.07L450.367 224.061Z" fill="white"/>
</g>
<path d="M446.341 253.81C446.064 254.651 445.624 255.568 445.089 256.477C443.827 258.627 442.011 260.778 440.501 262.069L438.971 257.968L434.373 258.379C435.845 257.165 437.518 255.339 438.723 253.446C439.459 252.29 440.023 251.114 440.252 250.053L446.341 253.81Z" fill="#FEC442"/>
<path d="M459.361 258.379L454.763 257.968L453.233 262.069C451.646 260.711 449.725 258.408 448.454 256.152C448.004 255.349 447.641 254.555 447.393 253.81L453.482 250.053C453.75 251.248 454.419 252.576 455.298 253.857C456.474 255.597 458.003 257.251 459.37 258.369L459.361 258.379Z" fill="#FEC442"/>
<g style="mix-blend-mode:multiply" opacity="0.3">
<path d="M440.26 250.052L446.349 253.809C446.072 254.65 445.632 255.568 445.097 256.476C444.485 256.658 443.826 256.457 443.424 255.95L442.64 254.975C442.344 254.602 441.895 254.392 441.417 254.382H440.164C439.533 254.382 438.979 254 438.73 253.436C439.467 252.279 440.031 251.104 440.26 250.042V250.052Z" fill="#BABCBE"/>
<path d="M455.288 253.867C455.002 254.192 454.581 254.383 454.122 254.393H452.87C452.392 254.393 451.943 254.613 451.646 254.985L450.862 255.96C450.404 256.534 449.61 256.706 448.951 256.391L448.444 256.152C447.995 255.349 447.631 254.555 447.383 253.81L453.472 250.053C453.74 251.248 454.409 252.576 455.288 253.857V253.867Z" fill="#BABCBE"/>
</g>
<path d="M459.57 243.667L458.796 244.652C458.5 245.025 458.394 245.512 458.49 245.971L458.767 247.195C458.93 247.911 458.576 248.638 457.916 248.963L456.788 249.508C456.358 249.718 456.052 250.11 455.938 250.569L455.651 251.793C455.488 252.51 454.848 253.007 454.121 253.016H452.869C452.391 253.016 451.942 253.246 451.645 253.609L450.862 254.584C450.403 255.157 449.609 255.339 448.95 255.024L447.822 254.488C447.392 254.278 446.894 254.278 446.464 254.488L445.336 255.024C444.677 255.339 443.883 255.157 443.424 254.584L442.641 253.609C442.344 253.236 441.895 253.026 441.417 253.016H440.165C439.429 253.007 438.798 252.5 438.635 251.793L438.348 250.569C438.243 250.101 437.928 249.718 437.498 249.508L436.37 248.963C435.71 248.648 435.356 247.911 435.519 247.195L435.796 245.971C435.901 245.503 435.796 245.025 435.49 244.652L434.716 243.667C434.267 243.094 434.267 242.281 434.716 241.707L435.49 240.723C435.787 240.35 435.892 239.863 435.796 239.404L435.519 238.18C435.356 237.463 435.71 236.737 436.37 236.412L437.498 235.867C437.928 235.656 438.234 235.264 438.348 234.806L438.635 233.582C438.798 232.865 439.438 232.368 440.165 232.358H441.417C441.895 232.358 442.344 232.129 442.641 231.766L443.424 230.791C443.883 230.217 444.677 230.035 445.336 230.351L446.464 230.886C446.894 231.097 447.392 231.097 447.822 230.886L448.95 230.351C449.609 230.035 450.403 230.217 450.862 230.791L451.645 231.766C451.942 232.139 452.391 232.349 452.869 232.358H454.121C454.857 232.368 455.488 232.875 455.651 233.582L455.938 234.806C456.043 235.274 456.358 235.656 456.788 235.867L457.916 236.412C458.576 236.727 458.93 237.463 458.767 238.18L458.49 239.404C458.385 239.872 458.49 240.35 458.796 240.723L459.57 241.707C460.019 242.281 460.019 243.094 459.57 243.667Z" fill="#FF902C"/>
<g style="mix-blend-mode:overlay" opacity="0.4">
<path d="M447.142 252.672C441.636 252.672 437.162 248.198 437.162 242.692C437.162 237.186 441.636 232.712 447.142 232.712C452.648 232.712 457.122 237.186 457.122 242.692C457.122 248.198 452.648 252.672 447.142 252.672ZM447.142 233.171C441.894 233.171 437.621 237.444 437.621 242.692C437.621 247.94 441.894 252.213 447.142 252.213C452.39 252.213 456.663 247.94 456.663 242.692C456.663 237.444 452.39 233.171 447.142 233.171Z" fill="white"/>
</g>
<path d="M452.705 248.255C455.777 245.183 455.777 240.202 452.705 237.129C449.632 234.057 444.651 234.057 441.579 237.129C438.506 240.202 438.506 245.183 441.579 248.255C444.651 251.328 449.632 251.328 452.705 248.255Z" fill="#FEC442"/>
<path d="M452.754 241.516C452.754 241.516 452.802 241.468 452.811 241.449C452.582 241.411 452.362 241.363 452.133 241.325C451.272 241.191 450.412 241.067 449.552 240.933C449.36 240.904 449.179 240.885 448.988 240.847C448.94 240.847 448.882 240.799 448.854 240.751C448.366 239.747 447.879 238.753 447.391 237.75C447.315 237.597 447.238 237.444 447.143 237.252C446.98 237.577 446.837 237.864 446.693 238.151C446.273 239.002 445.843 239.853 445.422 240.703C445.384 240.78 445.336 240.818 445.25 240.828C444.026 241 442.793 241.172 441.57 241.344C441.531 241.344 441.493 241.353 441.445 241.363C441.474 241.401 441.484 241.43 441.512 241.459C442.239 242.175 442.965 242.892 443.692 243.609C443.854 243.772 444.026 243.934 444.189 244.097C444.246 244.154 444.246 244.202 444.237 244.279C444.017 245.521 443.797 246.774 443.567 248.016C443.567 248.035 443.567 248.055 443.567 248.083C443.797 247.959 444.017 247.854 444.237 247.739C444.954 247.366 445.671 246.993 446.387 246.63C446.588 246.525 446.789 246.429 446.99 246.315C447.066 246.267 447.133 246.267 447.21 246.315C448.309 246.898 449.399 247.481 450.498 248.064C450.517 248.074 450.546 248.083 450.574 248.102C450.584 248.102 450.594 248.112 450.613 248.121C450.584 247.968 450.565 247.825 450.546 247.682C450.355 246.554 450.173 245.426 449.982 244.288C449.982 244.24 450.001 244.173 450.03 244.135C450.928 243.256 451.836 242.386 452.744 241.516H452.754Z" fill="white"/>
<path d="M434.811 161.867C434.428 162.46 434.046 163.043 433.645 163.617C427.718 172.124 419.936 177.841 411.19 179.332C410.387 179.466 409.584 179.581 408.771 179.648C408.322 179.714 407.882 179.743 407.433 179.743C406.869 179.762 406.295 179.762 405.731 179.743C395.866 179.428 386.775 173.749 379.787 164.582L376.814 179.198L376.26 182.238L377.436 186.913L377.808 188.394L408.054 212.618L437.44 189.092L438.243 185.441L439.332 180.527L434.811 161.867Z" fill="#E5B7AC"/>
<g style="mix-blend-mode:multiply" opacity="0.6">
<path d="M411.631 179.332C410.828 179.466 410.025 179.581 409.213 179.648C408.763 179.715 408.324 179.744 407.874 179.744C407.31 179.763 406.737 179.763 406.173 179.744C396.308 179.428 387.217 173.75 380.229 164.582L377.256 179.199C381.462 180.699 385.362 181.789 389.004 182.535C401.909 185.192 411.383 183.5 418.275 180.107C427.538 175.547 432.127 167.919 434.086 163.626C428.159 172.134 420.378 177.851 411.631 179.342V179.332Z" fill="#E5B7AC"/>
</g>
<path d="M460.707 115.466C458.155 114.596 455.832 114.778 453.748 115.59C453.652 115.772 453.595 115.877 453.595 115.877C453.595 115.877 447.573 119.825 445.374 123.62C445.278 123.792 445.173 123.964 445.087 124.136C445.087 124.136 445.183 126.918 444.839 131.048C444.791 131.583 444.743 132.138 444.686 132.711C444.523 134.221 444.303 135.866 444.007 137.586C443.873 138.313 443.749 139.049 443.596 139.766C443.433 140.569 443.242 141.381 443.041 142.204C442.984 142.414 442.927 142.624 442.879 142.844C442.822 143.073 442.764 143.312 442.697 143.542C460.478 148.962 472.331 119.424 460.717 115.476L460.707 115.466Z" fill="#E5B7AC"/>
<g style="mix-blend-mode:multiply">
<path d="M444.887 132.798C445.117 132.798 445.336 132.674 445.461 132.454C445.489 132.406 447.172 129.586 450.26 127.454C453.156 129.232 451.846 134.088 451.827 134.136C451.722 134.499 451.932 134.882 452.296 134.987C452.363 135.006 452.439 135.016 452.506 135.016C452.802 135.016 453.06 134.815 453.146 134.519C453.213 134.28 454.6 129.175 451.531 126.67C453.099 125.81 454.934 125.179 457.037 125.112C457.104 125.112 457.181 125.112 457.247 125.112C457.592 125.16 457.936 124.797 457.926 124.414C457.926 124.032 457.611 123.726 457.228 123.736C450.556 123.841 446.331 128.802 444.849 130.867C444.792 131.488 444.715 132.11 444.639 132.731C444.715 132.76 444.801 132.798 444.878 132.788L444.887 132.798Z" fill="#E5B7AC"/>
</g>
<path d="M369.053 142.233C368.116 138.533 367.562 134.958 367.246 131.995C367.189 131.412 367.132 130.857 367.084 130.322C366.787 126.842 366.807 124.548 366.807 124.548C366.663 123.965 366.405 123.382 366.061 122.808C364.178 119.634 359.809 116.767 358.069 115.715C355.737 114.769 353.127 114.549 350.317 115.686C346.493 117.264 345.489 121.546 346.512 126.316C348.5 135.503 357.993 146.458 369.235 142.911C369.177 142.682 369.12 142.462 369.063 142.233H369.053Z" fill="#E5B7AC"/>
<g style="mix-blend-mode:multiply">
<path d="M354.61 124.041C354.227 124.06 353.931 124.385 353.95 124.768C353.969 125.15 354.332 125.494 354.667 125.427C354.734 125.427 354.81 125.427 354.877 125.427C356.98 125.36 358.854 125.886 360.46 126.651C357.535 129.327 359.227 134.346 359.303 134.575C359.408 134.862 359.686 135.044 359.972 135.034C360.039 135.034 360.116 135.015 360.183 134.996C360.546 134.872 360.728 134.48 360.603 134.117C360.584 134.069 358.978 129.299 361.77 127.349C364.972 129.289 366.827 132.014 366.855 132.052C366.97 132.224 367.152 132.31 367.343 132.339C367.228 131.574 367.113 130.799 367.027 130.025C365.182 127.874 360.833 123.783 354.6 124.051L354.61 124.041Z" fill="#E5B7AC"/>
</g>
<path d="M433.646 163.617C434.048 163.043 434.43 162.46 434.813 161.868L434.641 161.16C434.449 161.715 434.124 162.575 433.646 163.617Z" fill="#E5B7AC"/>
<path d="M443.186 106.213C440.328 103.718 434.171 97.3607 433.445 88.3271C433.445 88.3271 405.493 102.561 390.762 100.831C394.175 94.0819 396.469 89.1397 396.469 89.1397C396.469 89.1397 378.383 101.175 369.435 101.653C368.546 104.721 367.495 110.142 368.642 116.174C368.766 116.795 368.9 117.426 369.063 118.076C371.615 127.702 370.468 144.823 370.353 146.448C372.705 153.35 375.926 159.496 379.798 164.572C386.786 173.74 395.877 179.418 405.742 179.734C407.166 179.571 408.638 179.399 410.225 179.208C410.56 179.246 410.875 179.284 411.2 179.323C419.947 177.831 427.728 172.115 433.655 163.607C434.133 162.565 434.821 161.858 434.821 161.858C438.11 156.715 440.748 150.664 442.564 143.982C442.392 144.603 442.201 145.215 442.01 145.836C442.01 145.836 440.242 127.454 442.708 117.302C442.775 116.996 442.851 116.699 442.899 116.413C443.692 112.684 443.597 109.138 443.195 106.194L443.186 106.213Z" fill="#E5B7AC"/>
<path d="M408.772 179.648C409.585 179.581 410.397 179.466 411.191 179.332C410.866 179.294 410.55 179.256 410.216 179.218C408.629 179.409 407.157 179.581 405.732 179.744C406.296 179.763 406.86 179.763 407.434 179.744C407.883 179.744 408.323 179.715 408.772 179.648Z" fill="#E5B7AC"/>
<path d="M443.034 142.195C442.986 142.405 442.919 142.615 442.871 142.835C442.928 142.625 442.986 142.415 443.034 142.195Z" fill="#E5B7AC"/>
<path d="M442.555 143.992C442.593 143.839 442.641 143.686 442.679 143.533C442.641 143.686 442.602 143.839 442.555 143.992Z" fill="#383838"/>
<path d="M369.227 142.902C369.552 144.125 369.924 145.359 370.345 146.592C370.345 146.592 370.345 146.534 370.355 146.458C369.963 145.292 369.58 144.106 369.236 142.902C369.236 142.902 369.236 142.902 369.227 142.902Z" fill="#383838"/>
<path d="M443.586 139.766C443.414 140.588 443.222 141.401 443.031 142.204C443.232 141.382 443.423 140.569 443.586 139.766Z" fill="#383838"/>
<path d="M442.678 143.533C442.745 143.303 442.802 143.064 442.859 142.835C442.802 143.074 442.735 143.303 442.678 143.533Z" fill="#383838"/>
<path d="M369.053 142.233C369.11 142.462 369.167 142.682 369.225 142.912C369.225 142.912 369.225 142.912 369.234 142.912C369.167 142.692 369.11 142.462 369.043 142.242L369.053 142.233Z" fill="#383838"/>
<path d="M450.661 83.7773C450.661 83.7773 454.313 59.898 434.076 51.1895C413.839 42.4618 380.467 53.933 380.467 53.933C380.467 53.933 371.797 57.4317 362.629 68.7022C362.629 68.7022 346.12 85.7847 357.324 115.275C357.324 115.275 357.601 115.428 358.06 115.705C359.8 116.757 364.168 119.625 366.052 122.799C366.396 123.372 366.654 123.955 366.797 124.538C366.797 124.538 366.778 126.833 367.074 130.312C367.122 130.838 367.18 131.402 367.237 131.985C367.552 134.948 368.107 138.533 369.044 142.223C369.101 142.443 369.168 142.672 369.235 142.892C369.579 144.097 369.952 145.282 370.353 146.448C370.468 144.823 371.615 127.693 369.063 118.076C368.9 117.426 368.757 116.795 368.642 116.174C367.485 110.132 368.547 104.712 369.436 101.653C378.383 101.175 396.469 89.1401 396.469 89.1401C396.469 89.1401 394.185 94.0822 390.762 100.831C405.484 102.561 433.445 88.3275 433.445 88.3275C434.181 97.3611 440.337 103.718 443.186 106.213C443.587 109.148 443.683 112.694 442.89 116.432C442.842 116.709 442.775 117.015 442.698 117.321C440.232 127.473 442.001 145.856 442.001 145.856C442.201 145.234 442.383 144.623 442.555 144.001C442.593 143.848 442.631 143.695 442.679 143.542C442.737 143.313 442.804 143.083 442.861 142.844C442.918 142.634 442.976 142.414 443.023 142.204C443.224 141.401 443.406 140.588 443.578 139.766C444.094 137.252 444.438 134.853 444.658 132.712C444.715 132.138 444.773 131.584 444.811 131.048C445.155 126.919 445.06 124.137 445.06 124.137C445.146 123.965 445.241 123.793 445.346 123.621C447.545 119.826 453.567 115.878 453.567 115.878C453.567 115.878 453.625 115.772 453.72 115.591C455.298 112.685 464.723 88.1268 450.642 83.7677L450.661 83.7773Z" fill="black"/>
<path d="M391.718 126.708C391.718 122.865 390.495 119.749 388.994 119.749C387.493 119.749 386.27 122.865 386.27 126.708C386.27 130.551 387.493 133.667 388.994 133.667C390.495 133.667 391.718 130.551 391.718 126.708Z" fill="black"/>
<path d="M390.172 129.414C390.172 128.278 389.81 127.356 389.366 127.356C388.922 127.356 388.561 128.278 388.561 129.414C388.561 130.551 388.922 131.473 389.366 131.473C389.81 131.473 390.172 130.551 390.172 129.414Z" fill="white"/>
<path d="M420.627 119.739C419.126 119.739 417.902 122.856 417.902 126.698C417.902 130.541 419.126 133.658 420.627 133.658C422.128 133.658 423.351 130.541 423.351 126.698C423.351 122.856 422.128 119.739 420.627 119.739Z" fill="black"/>
<g style="mix-blend-mode:multiply">
<path d="M380.496 136.076C380.572 135.417 378.995 134.69 376.988 134.47C374.98 134.241 373.288 134.595 373.212 135.264C373.135 135.923 374.712 136.65 376.72 136.87C378.727 137.099 380.419 136.745 380.496 136.076Z" fill="#E5B7AC"/>
</g>
<g style="mix-blend-mode:multiply">
<path d="M377.14 139.461C375.142 139.805 373.622 140.617 373.737 141.277C373.851 141.937 375.562 142.185 377.551 141.841C379.549 141.497 381.069 140.684 380.954 140.025C380.839 139.365 379.128 139.117 377.14 139.461Z" fill="#E5B7AC"/>
</g>
<g style="mix-blend-mode:multiply">
<path d="M431.829 138.514C431.752 139.174 433.33 139.9 435.337 140.12C437.345 140.35 439.037 139.996 439.113 139.327C439.19 138.667 437.612 137.941 435.605 137.721C433.597 137.491 431.905 137.845 431.829 138.514Z" fill="#E5B7AC"/>
</g>
<g style="mix-blend-mode:multiply">
<path d="M431.371 134.566C431.486 135.226 433.197 135.474 435.185 135.13C437.183 134.786 438.703 133.973 438.589 133.314C438.474 132.654 436.763 132.406 434.774 132.75C432.777 133.094 431.257 133.907 431.371 134.566Z" fill="#E5B7AC"/>
</g>
<g style="mix-blend-mode:multiply">
<path d="M406.498 144.527C406.584 144.527 406.67 144.527 406.746 144.527C409.308 144.45 411.794 140.971 412.711 136.086C412.778 135.713 412.539 135.35 412.157 135.283C411.784 135.216 411.421 135.465 411.354 135.838C410.474 140.474 408.161 143.265 406.574 143.15C405.485 143.083 404.223 141.525 403.926 137.329C403.219 127.397 404.691 121.728 404.71 121.671C404.806 121.307 404.586 120.925 404.223 120.829C403.85 120.724 403.477 120.954 403.381 121.317C403.315 121.556 401.833 127.244 402.559 137.434C402.999 143.657 405.465 144.47 406.507 144.527H406.498Z" fill="#E5B7AC"/>
</g>
<g style="mix-blend-mode:multiply">
<path d="M422.594 145.836C422.259 145.655 421.839 145.769 421.657 146.104C421.609 146.18 417.145 154.029 407.385 154.325C397.587 154.612 391.249 147.022 391.182 146.945C390.943 146.649 390.503 146.611 390.207 146.85C389.91 147.089 389.872 147.528 390.111 147.815C390.388 148.15 396.937 156.017 407.423 155.702C417.967 155.386 422.67 147.127 422.861 146.773C423.043 146.439 422.928 146.018 422.594 145.836Z" fill="#E5B7AC"/>
</g>
<path d="M418.12 115.61C421.017 114.482 423.579 114.396 425.749 115.361C429.19 116.891 433.023 121.976 433.234 121.9C434.247 121.527 432.373 114.042 427.393 111.796C424.229 110.371 420.625 110.429 416.705 111.958C415.692 112.35 415.195 113.488 415.587 114.501C415.979 115.514 417.117 116.011 418.13 115.619L418.12 115.61Z" fill="black"/>
<path d="M376.807 122.502C377.018 122.569 380.516 117.301 383.862 115.552C385.965 114.453 388.546 114.376 391.519 115.342C392.552 115.676 393.66 115.112 393.985 114.08C394.32 113.047 393.756 111.939 392.724 111.613C388.709 110.323 385.114 110.476 382.046 112.082C377.209 114.615 375.775 122.196 376.817 122.511L376.807 122.502Z" fill="black"/>
<path d="M345.259 277.918C345.135 275.69 344.973 273.521 344.714 271.389C344.59 270.213 344.456 269.066 344.332 267.919C344.332 267.823 344.303 267.756 344.303 267.699C343.73 263.206 342.994 258.943 342.105 254.889C341.464 252.022 340.766 249.249 340.002 246.64C333.568 223.888 323.751 210.955 323.751 210.955C323.751 210.955 315.644 212.618 304.297 254.708C290.609 305.563 285.771 342.768 285.771 342.768C285.771 342.768 291.039 332.158 293.553 335.561C294.872 337.339 296.421 339.432 298.084 341.679C305.817 352.108 323.168 349.45 323.168 349.45C333.109 334.069 337.879 322.397 344.246 299.245C345.03 290.402 345.517 284.628 345.517 284.294C345.489 282.124 345.393 280.021 345.259 277.918Z" fill="#283044"/>
<g style="mix-blend-mode:overlay" opacity="0.5">
<path d="M302.023 310.525L311.745 293.595L302.023 299.044L350.05 246.812L302.023 310.525Z" fill="white"/>
</g>
<path d="M356.711 241.764C356.711 241.764 349.207 228.352 354.856 218.726C357.504 215.218 369.893 215.304 373.66 217.636C377.436 219.969 372.092 225.924 365.037 225.207C365.037 225.207 375.839 235.159 363.469 248.656C358.623 248.723 356.701 241.774 356.701 241.774L356.711 241.764Z" fill="#E5B7AC"/>
<path d="M404.155 280.498C404.031 280.565 403.907 280.642 403.792 280.699C397.856 284.093 392.694 286.091 392.187 285.211C391.681 284.332 395.963 280.909 401.833 277.497C401.976 277.411 402.129 277.325 402.282 277.239C408.371 273.74 413.734 271.627 414.25 272.535C414.766 273.434 410.254 277 404.155 280.498Z" fill="#EAEAEA"/>
<path d="M414.249 272.535L401.182 280.039L392.186 285.211L333.215 182.591L341.006 178.108L355.278 169.906L414.249 272.535Z" fill="#EAEAEA"/>
<g style="mix-blend-mode:overlay" opacity="0.3">
<path d="M403.792 280.699C397.855 284.092 392.693 286.09 392.186 285.211L333.215 182.591L341.006 178.108L401.832 277.496L402.816 279.102L403.792 280.699Z" fill="black"/>
</g>
<path d="M355.277 169.906C355.793 170.805 351.272 174.38 345.182 177.879C339.093 181.378 333.73 183.49 333.214 182.582C332.698 181.684 337.219 178.108 343.309 174.61C349.398 171.111 354.761 168.998 355.277 169.906Z" fill="#EAEAEA"/>
<g style="mix-blend-mode:overlay" opacity="0.5">
<path d="M355.277 169.906C355.793 170.805 351.272 174.38 345.182 177.879C339.093 181.378 333.73 183.49 333.214 182.582C332.698 181.684 337.219 178.108 343.309 174.61C349.398 171.111 354.761 168.998 355.277 169.906Z" fill="white"/>
</g>
<g style="mix-blend-mode:multiply" opacity="0.5">
<path d="M350.889 172.431C351.205 172.975 348.48 175.126 344.809 177.229C341.139 179.342 337.908 180.604 337.602 180.068C337.296 179.533 340.011 177.373 343.681 175.27C347.352 173.157 350.583 171.895 350.889 172.431Z" fill="#BA9363"/>
</g>
<path d="M366.615 220.504C366.816 219.845 368.192 217.78 368.469 217.12C368.508 217.006 368.546 216.929 368.546 216.929L367.055 216.901C369.683 212.532 373.182 209.999 374.941 208.852C378.727 206.137 382.684 206.94 383.87 212.628C386.498 213.211 388.955 214.023 389.71 218.937C393.362 219.118 394.117 222.158 394.05 225.925C395.446 228.506 396.689 231.354 396.488 232.807C395.914 236.478 392.511 238.715 388.745 240.837V240.856C388.745 240.856 388.659 240.904 388.506 240.981C388.181 241.153 387.904 241.267 387.607 241.392C386.126 242.032 383.564 242.95 382.101 242.338C379.969 241.439 381.508 238.552 381.451 238.505C381.394 238.457 378.239 239.986 376.241 239.183C374.243 238.38 374.97 233.945 374.97 233.945C374.97 233.945 372.742 235.341 370.831 234.49C368.928 233.629 370.439 229.49 370.133 229.175C369.827 229.184 367.179 230.934 365.563 229.414C364.416 228.334 364.34 224.519 366.615 220.514V220.504Z" fill="#E5B7AC"/>
<path d="M360.421 235.78L341.006 263.033L367.428 274.132L377.838 248.924L360.421 235.78Z" fill="#E5B7AC"/>
<path d="M374.98 252.213C376.442 252.289 384.262 250.31 388.525 246.458C392.263 242.615 393.353 237.644 393.353 237.644L372.14 216.919C372.14 216.919 375.907 211.671 371.768 212.484C366.032 215.294 355.603 229.5 357.18 234.509C361.214 243.896 369.875 251.629 374.98 252.213Z" fill="#E5B7AC"/>
<path d="M355.611 243.743C359.34 245.32 367.322 249.029 372.904 253.771C374.281 254.947 375.533 256.17 376.508 257.461L372.761 263.932C371.728 262.89 370.629 261.848 369.472 260.826C363.354 255.396 355.946 250.511 352.304 248.207C351.826 247.911 351.424 247.653 351.09 247.452L353.547 242.902C353.547 242.902 354.35 243.208 355.611 243.743Z" fill="white"/>
<path d="M350.049 246.812C350.049 246.812 350.432 247.041 351.091 247.443C351.426 247.653 351.827 247.901 352.305 248.198C355.957 250.502 363.356 255.386 369.474 260.816C370.631 261.839 371.73 262.881 372.762 263.923C373.881 265.06 374.913 266.208 375.802 267.336C375.802 267.336 333.674 351.008 308.858 363.206C300.14 366.523 291.718 361.094 291.718 361.094C272.905 348.953 298.362 315.381 298.362 315.381L350.059 246.792L350.049 246.812Z" fill="#283044"/>
<path d="M518.829 431.661L490.447 429.042L486.327 428.669L487.302 409.713L487.417 407.466L490.677 344.451C484.444 329.997 477.198 311.959 473.556 298.614C472.476 290.116 471.797 284.629 471.769 284.285C471.606 282.182 471.539 280.05 471.539 277.909C471.539 275.767 471.568 273.549 471.74 271.38C471.74 271.351 471.74 271.313 471.749 271.284C472.065 265.778 472.724 260.233 473.709 254.88C474.216 252.079 474.789 249.345 475.391 246.63C480.554 223.984 494.204 210.945 494.204 210.945C494.204 210.945 498.974 212.848 510.216 250.789C520.779 290.164 527.958 323.707 529.249 328.535C533.426 338.993 518.82 431.661 518.82 431.661H518.829Z" fill="#283044"/>
<path d="M459.678 94.7996C459.678 94.6753 459.649 94.5606 459.601 94.4363L453.158 64.0376H359.486L352.164 94.4076C352.107 94.5319 352.068 94.6657 352.068 94.7996C352.068 94.7996 376.12 106.634 405.868 106.634C431.268 106.634 459.668 94.7996 459.668 94.7996H459.678Z" fill="#283044"/>
<path d="M507.015 57.3365L410.962 77.3251L302.148 62.1448L303.621 59.927L403.564 46.0469L505.533 55.1187L507.015 57.3365Z" fill="#283044"/>
<path d="M336.878 83.9593C336.859 83.424 336.314 70.7101 337.356 65.701C337.356 65.5576 337.681 60.1661 353.741 58.6175C371.301 56.4189 405.505 54.0577 405.849 54.0386L405.916 54.9945C405.572 55.0136 371.397 57.3748 353.846 59.5734C338.79 61.0265 338.302 65.7775 338.302 65.8252C337.28 70.7961 337.834 83.7968 337.844 83.9307L336.888 83.9689L336.878 83.9593Z" fill="white"/>
<path d="M337.107 92.6196L334.555 95.6786C334.555 95.6786 330.655 98.1736 333.159 110.763C335.062 120.313 333.14 131.345 332.395 134.05L335.664 133.209L336.62 124.165L337.107 134.059L339.354 134.413V120.313L340.902 132.778L343.885 133.209C343.885 133.209 341.82 122.971 341.954 114.033C342.097 105.095 344.64 98.1258 337.107 92.6292V92.6196Z" fill="#FEC442"/>
<path d="M340.341 90.044L334.645 89.9604L334.561 95.6572L340.258 95.7407L340.341 90.044Z" fill="#FF902C"/>
<g style="mix-blend-mode:overlay" opacity="0.5">
<path d="M507.015 57.3369L410.962 77.3255L302.148 62.1453L303.621 59.9275L411.708 74.9261L505.533 55.1191L507.015 57.3369Z" fill="white"/>
</g>
<path d="M400.047 52.2891V54.7841C400.047 55.2238 402.657 55.5775 405.878 55.5775C409.1 55.5775 411.709 55.2238 411.709 54.7841V52.2891H400.047Z" fill="#FF902C"/>
<path d="M411.709 52.289C411.709 52.7288 409.1 53.0825 405.878 53.0825C402.657 53.0825 400.047 52.7288 400.047 52.289C400.047 51.8493 402.657 51.4956 405.878 51.4956C409.1 51.4956 411.709 51.8493 411.709 52.289Z" fill="#FEC442"/>
<path d="M341.964 87.8112V87.9068C341.926 90.5452 339.756 92.6578 337.108 92.6195C334.47 92.5813 332.367 90.4018 332.405 87.7634C332.405 87.534 332.424 87.3045 332.462 87.0847C332.825 84.7713 334.842 83.0219 337.251 83.0602C339.861 83.0984 341.945 85.211 341.964 87.8112Z" fill="#FEC442"/>
<g style="mix-blend-mode:overlay" opacity="0.3">
<path d="M341.152 88.1645V88.241C341.123 90.4301 339.316 92.1795 337.118 92.1508C334.929 92.1221 333.179 90.3058 333.217 88.1167C333.217 87.9255 333.237 87.7344 333.265 87.5527C333.265 87.5527 334.307 89.9904 337.404 89.9904C339.488 89.9904 340.635 88.8815 341.152 88.155V88.1645Z" fill="black"/>
</g>
</g>
<path d="M31.591 398.169C31.591 398.169 18.5348 376.518 26.3852 352.793C34.2355 329.068 24.029 310 24.029 310C24.029 310 40.1178 325.517 40.5447 347.391C40.966 369.266 27.4275 372.567 34.9784 399.081L31.5966 398.169H31.591Z" fill="#41AE9B"/>
<g style="mix-blend-mode:overlay" opacity="0.3">
<path d="M31.591 398.169C31.591 398.169 18.5348 376.518 26.3852 352.793C34.2355 329.068 24.029 310 24.029 310C24.029 310 40.1178 325.517 40.5447 347.391C40.966 369.266 27.4275 372.567 34.9784 399.081L31.5966 398.169H31.591Z" fill="black"/>
</g>
<path d="M26.0138 399.721C26.0138 399.721 36.0374 372.015 22.8537 354.53C9.66998 337.04 15.6742 319.51 15.6742 319.51C15.6742 319.51 0.988026 344.884 15.1863 364.241C29.3846 383.599 22.6375 403.803 22.6375 403.803L26.0138 399.721Z" fill="#41AE9B"/>
<path d="M40.4556 400.116C40.4556 400.116 38.0883 376.308 48.3503 359.914C58.6123 343.52 50.7176 325.956 46.931 321.663C46.931 321.663 50.4958 335.518 41.4535 344.3C32.4057 353.083 31.1472 376.698 38.2491 399.432L40.4611 400.116H40.4556Z" fill="#41AE9B"/>
<path d="M45.6008 398.261L45.3402 400.168L45.1295 401.707L45.1129 401.847L45.0741 402.15L44.3423 407.464H18.3907L17.6533 402.15L17.3817 400.168L17.3706 400.089L17.1211 398.261H45.6008Z" fill="#91562F"/>
<g style="mix-blend-mode:overlay" opacity="0.3">
<path d="M45.606 398.256L45.3454 400.172L45.1292 401.707L45.1126 401.852L45.0738 402.15L44.342 407.468H33.0931C34.8284 405.386 35.4882 403.312 35.7321 402.15H17.6585L17.3813 400.172L17.3703 400.093L17.1152 398.261H45.606V398.256Z" fill="black"/>
</g>
<path d="M47.952 400.168H14.466L13.457 391.693H48.9555L47.952 400.168Z" fill="#91562F"/>
<path d="M718 499H727L728.946 424.945L729 423H720L719.947 424.945L718 499Z" fill="#FF6200"/>
<path d="M420.566 130C420.566 128.896 420.214 128 419.783 128C419.352 128 419 128.896 419 130C419 131.104 419.352 132 419.783 132C420.214 132 420.566 131.104 420.566 130Z" fill="white"/>
<path d="M634.325 232.13C634.275 232.517 634.208 232.836 634.124 233.189C633.401 236.801 632.595 240.177 631.671 243.269C630.092 248.577 628.361 252.996 626.093 256.339C625.052 257.901 623.859 259.229 622.498 260.321C619.911 262.404 616.702 263.58 612.586 263.714L551.131 265.865C546.83 266.016 543.454 264.974 540.665 262.925C539.371 261.984 538.229 260.825 537.17 259.447C534.667 256.272 532.634 251.988 530.702 246.797C529.577 243.789 528.518 240.48 527.561 236.918C527.46 236.582 527.376 236.246 527.292 235.91C516.17 193.843 516.422 118.578 537.456 95.1756C546.091 85.5827 556.894 77.0146 575.307 76.3762C589.889 75.8722 600.07 80.6603 608.285 87.1451C610.436 88.8251 612.452 90.6227 614.367 92.4876C615.14 93.2436 615.896 94.05 616.618 94.9236C637.366 119.452 642.205 190.903 634.342 232.147L634.325 232.13Z" fill="#3C2417"/>
<path d="M599.145 227.51V206.09H565.545V227.51L557.145 229.173L565.545 282.329H599.145L607.545 229.173L599.145 227.51Z" fill="#F7CDB9"/>
<g style="mix-blend-mode:multiply">
<path d="M565.545 206.224V214.019L599.145 227.51V206.224H565.545Z" fill="#DEB4A0"/>
</g>
<path d="M560.135 225.944L561.412 228.869C563.613 232.728 569.258 233.466 582.681 233.466C597.818 233.466 603.58 230.993 605.378 227.514L606.067 225.934C633.938 232.327 625.387 285.659 625.387 285.659L625.555 329.95H583.017H538.211L539.387 285.659C539.387 285.659 532.264 232.338 560.135 225.934V225.944Z" fill="#B4A6CE"/>
<path d="M582.43 233.466L592.963 240.249L610.99 227.114L599.751 223.697L595.517 226.088L582.43 233.476V233.466Z" fill="#9B88BE"/>
<path d="M565.092 223.697L582.429 233.466L571.879 240.249L553.869 227.104L565.092 223.697Z" fill="#9B88BE"/>
<path d="M519.513 241.379C522.252 231.599 531.576 231.599 559.464 225.206C559.464 225.206 582.43 255.817 582.43 255.827L605.395 225.206C633.267 231.599 642.608 231.609 645.346 241.379C645.346 241.379 640.541 255.869 640.44 255.776C640.44 255.776 649.479 419.917 651.293 436.829C651.293 436.829 620.835 442.986 582.446 442.986C544.058 442.986 513.6 436.829 513.6 436.829C514.759 425.951 528.468 310.042 528.468 310.042L524.452 257.829C524.335 257.921 515.112 257.172 519.547 241.379H519.513Z" fill="#32303A"/>
<path d="M544.025 228.397L582.379 278.26L620.801 228.386C617.424 227.75 613.795 227.042 609.948 226.211L582.413 262.898L554.861 226.211C551.013 227.042 547.401 227.75 544.008 228.386L544.025 228.397Z" fill="#FF9201"/>
<path d="M666.044 64.6823L672.142 95.9473L692.185 92.0329L686.086 60.7679C684.877 54.5854 679.417 50.4526 673.89 51.5446C668.362 52.6366 664.851 58.4999 666.061 64.6823H666.044Z" fill="#F7CDB9"/>
<path d="M661.423 71.7716C663.556 82.6749 671.083 89.1262 671.519 89.3782C673.233 90.3526 675.266 89.647 676.072 87.7822C676.879 85.9341 676.156 83.6493 674.459 82.6749C674.426 82.6581 674.09 82.3221 673.603 81.7341C673.115 81.1461 672.443 80.2893 671.755 79.2141C670.36 77.0637 668.798 74.0397 668.109 70.4444C667.706 68.378 665.891 67.0004 664.043 67.37C662.195 67.7228 661.036 69.6884 661.439 71.7548L661.423 71.7716Z" fill="#F7CDB9"/>
<path d="M640.424 276.213L706.935 178.201C709.388 175.093 710.346 171.078 709.59 167.18L691.227 81.6338L667.875 86.8418L681.685 166.273C681.685 166.273 647.698 222.301 620.818 231.373C618.936 232.012 634.728 248.14 634.728 248.14L640.424 276.213Z" fill="#32303A"/>
<path d="M646.213 8.58307e-06L628.754 10.0801L686 109.234L703.459 99.1537L646.213 8.58307e-06Z" fill="#F3F3F2"/>
<path d="M665.743 33.8042L667.423 36.7274L649.346 45.7155L647.666 42.8259L665.743 33.8042Z" fill="#DB4930"/>
<path d="M661.021 29.1838C658.367 30.343 657.493 34.4927 657.207 36.6095C654.687 35.5511 648.959 33.5183 646.506 35.7527C645.347 36.8111 645.145 38.4575 645.918 40.6583C646.355 41.9183 647.211 42.7919 648.404 43.1783C651.159 44.0855 655.191 42.1199 657.325 40.8599C657.459 45.2279 656.569 49.6632 654.906 53.6616C657.308 54.048 659.727 54.4344 662.13 54.804C661.895 49.848 660.719 44.7239 658.4 40.2719C661.088 44.5055 664.936 48.0672 669.119 50.772C669.992 48.4872 670.866 46.2192 671.74 43.9343C667.523 43.3799 663.289 41.9687 659.627 39.7343C661.357 38.5919 664.852 36.1223 666.179 33.8207C666.498 33.2831 666.683 32.7455 666.716 32.2415C666.75 31.4687 666.431 30.763 665.826 30.2758C663.675 28.5622 662.029 28.7302 661.021 29.167V29.1838ZM649.244 40.6583C648.959 40.5575 648.639 40.3895 648.438 39.8015C648.119 38.8775 648.051 38.1551 648.236 37.8359C648.253 37.8023 648.287 37.7687 648.303 37.7351C649.127 36.9791 652.52 37.6679 655.527 38.8271C653.327 40.0535 650.605 41.1119 649.227 40.6583H649.244ZM659.459 39.6503C658.854 39.2639 658.249 38.8607 657.678 38.4407L657.375 38.0039L657.527 37.6847L658.215 37.7351L659.459 39.6503ZM664.028 32.2751C663.76 33.0311 662.079 34.6775 659.996 36.2567C660.349 34.2743 661.105 32.0735 662.113 31.6367C662.667 31.4014 663.44 31.8215 664.045 32.2751H664.028Z" fill="#F05D44"/>
<path d="M661.088 37.8863C662.012 39.4991 661.458 41.5487 659.862 42.4727C658.266 43.3967 656.2 42.8423 655.276 41.2463C654.352 39.6335 654.906 37.5839 656.502 36.6599C658.115 35.7359 660.164 36.2903 661.088 37.8863Z" fill="#DB4930"/>
<path d="M686.707 59.5925C688.656 66.8502 688.908 73.0998 683.65 74.4942C678.408 75.9054 672.578 71.151 670.629 63.8933C668.681 56.6357 671.352 49.6132 676.593 48.202C681.835 46.7908 684.742 52.3181 686.69 59.5925H686.707Z" fill="#F7CDB9"/>
<path d="M532.045 362.918C529.71 362.918 509.936 367.253 517.11 372.528C519.613 374.359 525.275 370.277 528.03 369.706C530.046 369.286 533.121 369.874 534.381 367.891C535.506 366.11 534.381 362.918 532.029 362.935C524.25 362.935 533.49 362.935 532.029 362.935L532.045 362.918Z" fill="#F7CDB9"/>
<path d="M533.153 367.035C526.769 366.531 518.655 357.946 517.563 358.416C517.092 358.618 508.826 372.629 509.314 374.158C509.851 375.821 526.366 389.295 533.17 389.933C538.915 390.454 546.66 385.179 547.467 378.307C548.156 372.495 538.882 367.438 533.136 367.035H533.153Z" fill="#F7CDB9"/>
<path d="M514.941 382.02C503.702 372.276 495.621 358.299 489.287 346.051C485.843 339.382 481.962 331.368 479.476 322.632C476.082 310.737 479.19 301.01 482.281 293.87C487.691 281.404 505.18 243.974 544.022 231.407L539.553 243.537L549.28 264.268C537.033 270.451 510.455 293.534 505.869 304.101C503.366 309.881 503.349 312.686 504.189 315.593C506.07 322.161 509.246 328.73 512.118 334.274C517.73 345.11 522.115 354.737 528.465 362.868L514.941 382.054V382.02Z" fill="#32303A"/>
<path d="M619.309 146.886L618.704 129.43C618.049 110.883 595.772 88.203 578.77 88.791C561.769 89.379 541.121 113.571 541.777 132.102L542.381 149.557C537.66 149.725 533.964 153.606 534.132 158.243L534.435 166.979C534.603 171.616 538.551 175.244 543.272 175.076C543.927 193.624 566.237 216.976 583.222 216.388C600.224 215.8 620.838 190.936 620.199 172.405C624.92 172.237 628.616 168.356 628.448 163.719L628.146 154.983C627.978 150.347 624.03 146.718 619.309 146.886Z" fill="#F7CDB9"/>
<g style="mix-blend-mode:multiply">
<path d="M582.131 185.341L583.223 216.404C600.225 215.816 620.838 190.952 620.2 172.422C624.921 172.254 628.617 168.373 628.449 163.736L628.146 155C627.978 150.363 624.03 146.734 619.31 146.902L618.705 129.447C618.05 110.9 595.773 88.2196 578.771 88.8076L581.14 156.814C575.361 170.053 573.529 183.98 573.529 183.98L582.131 185.358V185.341Z" fill="#F7CDB9"/>
</g>
<g style="mix-blend-mode:multiply">
<path d="M566.858 159.855C567.11 163.518 564.355 166.676 560.709 166.945C557.047 167.197 553.888 164.442 553.62 160.796C553.368 157.134 556.123 153.975 559.768 153.706C563.431 153.454 566.589 156.21 566.858 159.855Z" fill="#F7CDB9"/>
</g>
<path d="M566.807 158.176C567.059 161.838 564.304 164.996 560.658 165.265C556.996 165.517 553.838 162.762 553.569 159.116C553.317 155.454 556.072 152.296 559.718 152.027C563.38 151.775 566.538 154.53 566.807 158.176Z" fill="#3C2417"/>
<path d="M564.019 156.378C564.086 157.285 563.398 158.091 562.474 158.142C561.566 158.209 560.76 157.52 560.71 156.596C560.642 155.689 561.331 154.883 562.255 154.832C563.162 154.765 563.969 155.454 564.019 156.378Z" fill="white"/>
<path d="M568.068 153.051C566.74 150.246 563.532 148.213 560.087 147.961C557.971 147.81 554.023 148.263 550.763 152.682C550.595 152.699 550.444 152.715 550.259 152.682C549.873 152.665 549.352 152.564 548.831 152.362C547.773 151.976 546.866 151.136 546.866 151.136C546.799 151.086 546.698 151.069 546.631 151.102C546.53 151.153 546.496 151.287 546.547 151.388C546.547 151.388 546.681 151.674 546.95 152.077C547.202 152.48 547.622 153.018 548.126 153.471C548.63 153.925 549.235 154.311 549.722 154.547C549.974 154.664 550.192 154.748 550.36 154.799C550.511 154.849 550.679 154.883 550.663 154.866C551.116 154.899 551.536 154.631 551.721 154.244C553.838 151.052 556.761 149.422 559.953 149.658C562.776 149.859 565.48 151.556 566.539 153.791C566.74 154.211 567.244 154.395 567.664 154.194C568.084 153.992 568.269 153.488 568.068 153.068V153.051Z" fill="#3C2417"/>
<g style="mix-blend-mode:multiply">
<path d="M608.838 158.393C609.09 162.056 606.335 165.214 602.69 165.483C599.027 165.735 595.869 162.98 595.6 159.334C595.348 155.672 598.103 152.513 601.749 152.245C605.411 151.993 608.57 154.748 608.838 158.393Z" fill="#F7CDB9"/>
</g>
<path d="M608.772 156.714C609.024 160.376 606.269 163.535 602.623 163.803C598.961 164.055 595.802 161.3 595.534 157.654C595.282 153.992 598.037 150.834 601.682 150.565C605.345 150.313 608.503 153.068 608.772 156.714Z" fill="#3C2417"/>
<path d="M606 154.899C606.067 155.806 605.378 156.613 604.454 156.663C603.547 156.73 602.74 156.042 602.69 155.118C602.623 154.21 603.312 153.404 604.236 153.354C605.143 153.286 605.949 153.975 606 154.899Z" fill="white"/>
<path d="M593.903 152.161C595.029 149.271 598.087 147.02 601.514 146.533C603.614 146.23 607.579 146.398 611.14 150.598C611.308 150.598 611.46 150.598 611.644 150.581C612.014 150.531 612.552 150.397 613.056 150.161C614.08 149.708 614.92 148.801 614.92 148.801C614.988 148.733 615.072 148.717 615.156 148.75C615.256 148.801 615.307 148.918 615.256 149.019C615.256 149.019 615.139 149.305 614.904 149.741C614.668 150.161 614.299 150.716 613.828 151.203C613.358 151.69 612.787 152.11 612.3 152.379C612.064 152.513 611.846 152.614 611.678 152.665C611.527 152.732 611.359 152.765 611.392 152.765C610.939 152.833 610.519 152.597 610.3 152.228C607.965 149.187 604.924 147.759 601.766 148.213C598.96 148.616 596.373 150.497 595.483 152.799C595.315 153.236 594.827 153.437 594.391 153.269C593.954 153.101 593.752 152.614 593.92 152.177L593.903 152.161Z" fill="#3C2417"/>
<path d="M595.721 191.07C595.956 197.656 590.126 203.217 582.701 203.486C575.275 203.738 569.076 198.614 568.857 192.011L595.721 191.07Z" fill="#F05D44"/>
<path d="M570.961 191.933L593.342 191.152L593.44 193.955C593.472 194.879 592.743 195.661 591.819 195.693L572.796 196.357C571.873 196.39 571.091 195.66 571.059 194.737L570.961 191.933Z" fill="white"/>
<path d="M625.137 143.005L619.24 143.206C615.779 141.039 609.614 141.257 604.036 141.459C594.628 141.795 588.395 143.845 585.489 147.591C584.413 147.037 582.868 146.902 581.137 146.969C579.39 147.037 577.861 147.255 576.837 147.893C573.678 144.382 567.311 142.753 557.903 143.072C552.308 143.257 546.143 143.475 542.85 145.877L536.953 146.079L537.172 152.463L539.776 153.79C540.179 163.736 545.437 175.11 559.012 174.639C570.167 174.253 576.87 167.953 578.937 155.924C579.088 155.05 579.121 154.21 579.088 153.404C579.239 152.732 580.079 152.043 581.322 151.993C582.565 151.942 583.456 152.581 583.657 153.236C583.657 154.042 583.775 154.882 583.977 155.739C586.866 167.6 593.99 173.413 605.145 173.01C618.719 172.539 623.171 160.83 622.886 150.867L625.389 149.355L625.171 142.971L625.137 143.005ZM575.929 155.42C574.115 165.987 568.554 171.279 558.877 171.615C544.16 172.136 542.867 156.63 542.766 153.522C542.598 148.75 553.232 147.944 558.054 147.776C568.689 147.406 576.769 150.917 575.929 155.42ZM605.01 170.002C595.35 170.338 589.42 165.45 586.883 155.034C585.741 150.598 593.553 146.533 604.187 146.163C609.009 145.995 619.677 146.045 619.828 150.833C619.929 153.942 619.727 169.498 605.01 170.002Z" fill="#383643"/>
<path d="M542.983 212.659C529.442 172.59 520.085 147.76 525.746 120.208C536.767 66.6992 601.448 61.2896 609.176 94.3522C610.822 101.391 625.472 111.707 619.306 146.886C618.735 146.701 617.408 145.374 615.66 143.274C610.419 136.991 601.28 123.769 596.592 113.74C539.59 115.554 561.615 199.403 542.966 212.642L542.983 212.659Z" fill="#3C2417"/>
<path d="M655.496 82.4241L576.938 119.804L495.979 88.0017L574.418 47.2446L655.496 82.4241Z" fill="#32303A"/>
<path d="M627.171 113.723C627.171 113.723 595.15 124.928 577.157 125.55C559.164 126.171 526.438 117.234 526.438 117.234L528.991 94.0329C528.991 94.0329 548.95 86.6072 575.578 85.6832C602.206 84.7592 623.005 90.7568 623.005 90.7568L627.171 113.723Z" fill="#3C3A44"/>
<path d="M511.705 123.702C511.016 123.719 510.428 123.182 510.395 122.493L508.916 79.9548C508.9 79.266 509.437 78.678 510.126 78.6444C510.815 78.6276 511.403 79.1652 511.436 79.854L512.915 122.392C512.932 123.081 512.394 123.669 511.705 123.702Z" fill="#FF9201"/>
<path d="M507.068 159.083C506.413 159.1 505.875 158.596 505.858 157.941C505.153 137.68 506.564 126.105 510.058 123.551C510.848 122.98 511.654 122.946 512.125 123.114C512.729 123.333 513.049 124.005 512.83 124.626C512.629 125.164 512.074 125.466 511.537 125.382C511.133 125.567 507.152 128.188 508.193 157.857C508.21 158.512 507.706 159.05 507.051 159.067L507.068 159.083Z" fill="#FF9201"/>
<path d="M510.074 161.217C509.419 161.234 508.881 160.73 508.864 160.075C508.327 144.82 508.226 126.088 510.729 123.501C511.116 123.098 511.536 123.014 511.737 123.047C512.393 123.047 512.913 123.585 512.913 124.223C512.913 124.626 512.712 124.979 512.393 125.198C512.006 125.903 510.192 130.758 511.217 159.991C511.233 160.646 510.729 161.183 510.074 161.2V161.217Z" fill="#FF9201"/>
<path d="M518.81 158.663C518.155 158.68 517.617 158.176 517.6 157.521C516.559 127.852 512.409 125.517 511.989 125.365C511.452 125.483 510.88 125.214 510.645 124.693C510.376 124.105 510.645 123.4 511.25 123.148C511.72 122.946 512.51 122.913 513.35 123.433C517.012 125.735 519.23 137.176 519.952 157.454C519.969 158.109 519.465 158.646 518.81 158.663Z" fill="#FF9201"/>
<path d="M515.955 161.015C515.3 161.032 514.762 160.528 514.745 159.873C513.721 130.641 511.587 125.92 511.15 125.248C510.831 125.063 510.596 124.727 510.562 124.324C510.512 123.668 510.999 123.114 511.654 123.064C511.873 123.03 512.276 123.064 512.679 123.45C515.367 125.852 516.56 144.551 517.097 159.806C517.114 160.461 516.61 160.998 515.955 161.015Z" fill="#FF9201"/>
<path d="M513.098 163.351C512.443 163.368 511.905 162.864 511.888 162.209L510.561 124.257C510.544 123.602 511.048 123.065 511.703 123.048C512.359 123.031 512.896 123.535 512.913 124.19L514.24 162.142C514.257 162.797 513.753 163.334 513.098 163.351Z" fill="#FF9201"/>
<path d="M515.801 120.611C515.885 122.93 514.071 124.878 511.752 124.962C509.434 125.046 507.485 123.232 507.401 120.914C507.317 118.595 509.132 116.646 511.45 116.562C513.768 116.478 515.717 118.293 515.801 120.611Z" fill="#EE9D25"/>
<path d="M511.788 125.802C509.016 125.903 506.664 123.719 506.58 120.947C506.479 118.175 508.663 115.823 511.435 115.739C514.207 115.638 516.559 117.822 516.643 120.594C516.727 123.366 514.56 125.718 511.788 125.802ZM511.502 117.402C509.654 117.47 508.192 119.032 508.26 120.88C508.327 122.728 509.889 124.19 511.737 124.122C513.585 124.055 515.047 122.493 514.98 120.645C514.912 118.797 513.35 117.335 511.502 117.402Z" fill="#FF9201"/>
<path d="M545.451 405.342H0V424.93H316.066H764V405.342H545.451Z" fill="#FF8600"/>
<path d="M733.998 415.391H286.064V499.204H733.998V415.391Z" fill="#FF8600"/>
<path d="M554.225 306.565L511.838 400.372L540.77 405.276L594.044 405.249L594.26 313.271L554.225 306.565Z" fill="#DB2955"/>
<g style="mix-blend-mode:overlay" opacity="0.4">
<path d="M583.075 311.46L569.571 341.358L550.962 382.568L540.705 405.276L511.855 400.372L522.543 376.707L541.152 335.497L554.226 306.565L583.075 311.46Z" fill="white"/>
</g>
<g style="mix-blend-mode:overlay" opacity="0.3">
<path d="M569.57 341.358L550.961 382.568L522.543 376.707L541.152 335.497L569.57 341.358Z" fill="white"/>
</g>
<path d="M594.372 295.375L594.166 405.277L700.781 405.34L700.986 295.437L594.372 295.375Z" fill="#FF902C"/>
<g style="mix-blend-mode:overlay" opacity="0.4">
<path d="M624.27 295.365L624.22 312.705L624.187 327.751L624.054 377.023L624.021 392.07L623.988 405.277L594.045 405.249L594.078 392.07L594.111 377.023L594.244 327.751L594.277 312.705L594.327 295.337L624.27 295.365Z" fill="white"/>
</g>
<g style="mix-blend-mode:overlay" opacity="0.4">
<path d="M624.22 312.705L624.187 327.751H594.244L594.277 312.705H624.22Z" fill="white"/>
</g>
<g style="mix-blend-mode:overlay" opacity="0.4">
<path d="M624.054 377.023L624.021 392.07H594.078L594.111 377.023H624.054Z" fill="white"/>
</g>
<path d="M636.725 326.118L636.566 405.241L685.963 405.278L686.122 326.155L636.725 326.118Z" fill="#1B6FA1"/>
<g style="mix-blend-mode:overlay" opacity="0.4">
<path d="M636.741 326.115L636.572 405.238L666.515 405.259L666.683 326.136L636.741 326.115Z" fill="white"/>
</g>
<g style="mix-blend-mode:overlay" opacity="0.4">
<path d="M646.786 352.421L646.711 387.008L656.471 387.015L656.546 352.427L646.786 352.421Z" fill="white"/>
</g>
<path d="M733.999 307.959L733.966 322.234L733.899 349.865L733.767 405.295L676.102 405.248L676.334 307.903L733.999 307.959Z" fill="#41AE9B"/>
<g style="mix-blend-mode:overlay" opacity="0.4">
<path d="M733.968 322.234L733.901 349.865H715.127V322.234H733.968Z" fill="white"/>
</g>
<g style="mix-blend-mode:overlay" opacity="0.3">
<path d="M706.277 307.931L706.228 327.769L706.079 390.982L706.045 405.276L676.086 405.248L676.119 390.955L676.285 327.742L676.334 307.903L706.277 307.931Z" fill="black"/>
</g>
<g style="mix-blend-mode:overlay" opacity="0.3">
<path d="M706.228 327.77L706.079 390.982L676.119 390.955L676.285 327.742L706.228 327.77Z" fill="black"/>
</g>
<path d="M515.452 415.391H44.6016V499.204H515.452V415.391Z" fill="#FF8600"/>
<g style="mix-blend-mode:overlay" opacity="0.3">
<path d="M515.452 417.62H286.067H44.6016V499.204H286.067H515.452H734.001V417.62H515.452Z" fill="black"/>
</g>
<path d="M515.45 417.62H51.3438L56.5634 499.204H286.065H733.999V417.62H515.45Z" fill="#FF8600"/>
<path d="M50.783 499.204H22.9777L16.9626 424.929L16.7969 422.979H44.6022L44.7679 424.929L50.783 499.204Z" fill="#FF8600"/>
<path d="M728 499H750.09L754.868 424.945L755 423H732.91L732.779 424.945L728 499Z" fill="#FF8600"/>
<g style="mix-blend-mode:overlay" opacity="0.3">
<path d="M316.066 417.62H0V424.929H316.066H764V417.62H316.066Z" fill="black"/>
</g>
<path d="M277.994 319.964C276.876 292.246 282.121 264.676 282.121 264.676L271.283 264.616L260.446 264.557C260.446 264.557 265.388 292.186 263.967 319.89C262.547 347.594 243.834 388.636 243.834 388.636L270.633 383.759L297.372 388.919C297.372 388.919 279.113 347.668 277.994 319.964Z" fill="#FEC442"/>
<g style="mix-blend-mode:overlay" opacity="0.3">
<path d="M273.564 346.508C272.763 326.626 272.294 259.456 272.294 259.456C272.294 259.456 269.287 326.581 268.259 346.463C267.231 366.33 249.062 395.774 249.062 395.774L268.289 392.279L287.47 395.982C287.47 395.982 274.38 366.39 273.564 346.523V346.508Z" fill="black"/>
</g>
<path d="M229.201 406.555L311.503 406.986L308.798 389.692C307.498 381.349 300.212 375.178 291.642 375.133L249.425 374.91C240.84 374.866 233.494 380.963 232.103 389.29L229.216 406.555H229.201Z" fill="#91562F"/>
<g style="mix-blend-mode:overlay" opacity="0.3">
<path d="M295.845 383.045H241.174V392.488H295.845V383.045Z" fill="black"/>
</g>
<g style="mix-blend-mode:overlay" opacity="0.3">
<path d="M286.261 396.547H250.74V400.994H286.261V396.547Z" fill="black"/>
</g>
<path d="M248.066 256.318L242.413 287.725L271.192 273.018L299.805 288.022L294.499 256.556L317.807 234.429L285.778 229.685L271.585 201L257.074 229.522L225 233.938L248.066 256.318Z" fill="#EEC839"/>
<g style="mix-blend-mode:overlay" opacity="0.6">
<path d="M248.066 256.318L242.413 287.725L271.192 273.018L299.805 288.022L294.499 256.556L317.807 234.429L285.778 229.685L271.585 201L257.074 229.522L225 233.938L248.066 256.318Z" fill="black"/>
</g>
<path d="M253.78 254.891L249.472 278.832L271.419 267.62L293.246 279.07L289.195 255.069L306.97 238.206L282.544 234.578L271.722 212.703L260.657 234.459L236.201 237.819L253.78 254.891Z" fill="#EEC839"/>
<g style="mix-blend-mode:overlay" opacity="0.4">
<path d="M271.722 212.703L271.525 251.411L282.544 234.578L271.722 212.703Z" fill="white"/>
<path d="M306.97 238.207L271.525 251.412L289.195 255.07L306.97 238.207Z" fill="white"/>
<path d="M271.42 267.62L271.526 251.411L293.246 279.07L271.42 267.62Z" fill="white"/>
<path d="M249.473 278.832L271.526 251.411L253.78 254.891L249.473 278.832Z" fill="white"/>
<path d="M236.201 237.819L271.525 251.411L260.658 234.458L236.201 237.819Z" fill="white"/>
</g>
<defs>
<clipPath id="clip0_443_10017">
<rect width="514.462" height="436.583" fill="white" transform="translate(174.691 49)"/>
</clipPath>
</defs>
</svg>
