<svg width="481" height="474" viewBox="0 0 481 474" fill="none" xmlns="http://www.w3.org/2000/svg">
<path d="M189.849 399.631C185.625 399.963 181.381 400.127 177.121 400.09C130.431 399.731 75.016 379.707 48.8893 337.056C26.0463 299.77 14.6908 249.982 20.9361 205.763C26.8065 164.2 51.3653 128.888 88.045 113.214C129.296 95.5869 177.11 108.89 217.332 86.1478C275.878 53.0526 353.371 69.0591 399.369 118.99C440.15 163.255 454.425 238.901 446.654 299.068C442.726 329.476 429.006 359.588 405.075 376.719C386.033 390.35 362.198 394.7 339.281 393.459C320.857 392.461 303.604 387.277 285.676 383.318C271.306 380.145 259.909 383.36 245.718 387.705C227.452 393.296 208.822 398.147 189.849 399.631Z" fill="#C8A13E" fill-opacity="0.34"/>
<path d="M211.14 408.822C206.552 409.825 201.923 410.653 197.25 411.292C146.037 418.266 82.7187 406.615 48.5889 367.338C18.751 333.002 -0.100983 284.149 1.04988 238.193C2.13739 194.994 24.5053 155.221 62.6895 133.513C105.63 109.096 159.752 115.109 200.909 85.6621C260.817 42.7952 347.813 46.8971 404.653 90.445C455.048 129.057 480.436 203.747 479.66 266.173C479.269 297.721 468.109 330.505 444.084 351.69C424.968 368.547 399.401 376.719 374.124 379.058C353.799 380.937 334.224 378.377 314.068 377.168C297.909 376.202 285.835 381.264 270.837 387.911C251.536 396.468 231.739 404.329 211.14 408.822Z" stroke="#C8A13E" stroke-width="1.58375" stroke-miterlimit="10"/>
<path d="M359.915 315.508C417.175 258.248 417.175 165.411 359.915 108.15C302.655 50.8902 209.818 50.8902 152.558 108.15C95.2974 165.411 95.2974 258.248 152.558 315.508C209.818 372.768 302.655 372.768 359.915 315.508Z" fill="#BE9C43"/>
<mask id="mask0_445_10827" style="mask-type:luminance" maskUnits="userSpaceOnUse" x="109" y="65" width="294" height="294">
<path d="M359.915 315.508C417.175 258.248 417.175 165.411 359.915 108.15C302.655 50.8902 209.818 50.8902 152.558 108.15C95.2974 165.411 95.2974 258.248 152.558 315.508C209.818 372.768 302.655 372.768 359.915 315.508Z" fill="white"/>
</mask>
<g mask="url(#mask0_445_10827)">
<path opacity="0.81" d="M385.308 129.964C385.308 129.964 373.071 135.09 359.709 130.899C346.348 126.707 335.747 125.466 331.556 135.703C327.364 145.939 332.295 146.926 321.198 148.901C310.101 150.875 309.362 156.297 313.306 164.437C317.249 172.573 319.477 178.19 312.572 184.382C305.667 190.575 300.488 193.536 303.196 199.327C305.909 205.119 300.086 213.011 300.778 224.599C301.47 236.187 296.539 239.887 304.674 245.309C312.809 250.736 315.032 262.324 320.702 261.585C326.371 260.846 333.768 263.902 327.111 269.155C320.454 274.408 322.919 297.341 332.041 300.297C341.164 303.259 364.587 314.35 375.193 312.381C385.794 310.407 409.223 270.153 409.223 270.153C409.223 270.153 428.455 161.302 428.951 158.43C429.442 155.558 385.308 129.964 385.308 129.964Z" fill="#FFE394"/>
<path opacity="0.81" d="M128.129 126.216C128.129 126.216 145.513 122.896 155.501 125.108C165.49 127.325 167.707 125.805 180.282 124.348C192.857 122.885 219.115 121.37 222.077 124.348C225.033 127.325 231.321 131.026 224.294 137.683C217.268 144.34 210.611 147.301 218.376 152.475C226.142 157.654 234.283 159.871 235.391 165.789C236.5 171.707 232.836 177.424 225.794 178.818C218.751 180.212 207.654 174.832 200.622 178.818C193.596 182.804 194.113 190.274 189.6 193.563C185.086 196.857 183.064 191.562 181.855 199.016C180.646 206.47 183.238 207.938 175.098 214.6C166.962 221.263 155.871 226.447 157.719 233.658C159.566 240.87 158.442 243.456 168.435 242.717C178.429 241.978 182.647 240.822 189.6 248.984C196.552 257.145 196.552 255.303 201.731 257.335C206.91 259.368 210.722 266.394 210.294 274.16C209.866 281.926 203.579 289.132 205.057 296.623C206.535 304.114 191.743 342.214 191.743 342.214L144.104 356.637C144.104 356.637 67.1016 255.403 67.1016 254.421C67.1016 253.439 89.2952 129.959 89.2952 129.959L128.129 126.211V126.216Z" fill="#FFE394"/>
<path d="M124.064 132.166C124.064 132.166 141.818 127.056 152.176 129.965C162.533 132.873 171.408 127.325 179.918 126.216C188.422 125.108 218.751 123.851 218.751 127.805C218.751 131.76 214.169 138.934 213.314 144.408C212.459 149.883 209.502 154.323 211.719 156.545C213.937 158.763 215.051 159.876 220.224 162.833C225.403 165.794 228.729 172.451 222.072 176.147C215.415 179.848 208.388 176.147 203.948 174.669C199.509 173.191 201.362 173.048 193.221 177.741C185.086 182.434 187.303 191.683 179.907 189.091C172.511 186.505 166.788 185.18 171.682 189.54C176.576 193.901 179.168 196.44 175.837 200.901C172.506 205.362 171.028 208.218 170.288 210.673C169.549 213.128 162.153 222.329 160.3 222.725C158.453 223.116 157.724 222.224 154.018 227.107C150.312 231.995 144.289 233.516 144.896 237.19C145.503 240.87 149.098 250.805 154.324 248.984C159.556 247.157 154.007 244.317 166.213 247.59C178.418 250.858 178.418 249.116 184.706 254.427C190.993 259.737 193.955 261.585 197.65 261.585C201.346 261.585 208.035 264.172 207.839 272.312C207.639 280.448 205.791 281.957 203.568 285.273C201.351 288.588 203.568 296.517 198.02 301.612C192.472 306.711 182.114 329 182.114 329L165.099 342.219L82.6172 282.697L111.098 138.791L124.043 132.166H124.064Z" fill="#BE9C43"/>
<path d="M389.627 135.835C389.627 135.835 382.051 143.49 375.204 141.14C368.352 138.791 362.999 133.243 353.01 136.943C343.022 140.644 343.022 145.079 337.843 149.518C334.391 152.478 331.061 154.328 327.855 155.067C323.046 156.176 320.089 160.985 323.785 165.055C327.486 169.125 331.551 172.451 326.002 175.782C320.454 179.114 317.856 181.658 318.976 187.618C319.345 190.575 320.084 189.149 315.644 191.715C311.205 194.275 312.076 199.153 312.567 202.263C313.058 205.372 312.688 206.919 307.879 211.142C303.069 215.36 301.079 220.84 303.756 222.735C306.432 224.631 304.067 226.098 303.756 229.788C303.444 233.484 301.961 236.012 308.248 240.294C314.536 244.575 320.823 254.194 324.154 250.863C327.486 247.532 325.633 243.213 330.442 247.595C335.251 251.971 339.322 254.115 335.251 263.586C331.181 273.056 331.72 278.283 336.444 282.696C341.169 287.11 339.322 291.217 348.935 294.896C358.554 298.576 368.637 294.5 373.715 293.418C378.794 292.336 395.909 284.264 395.909 284.264L431.047 172.082L389.622 135.835H389.627Z" fill="#BE9C43"/>
</g>
<mask id="mask1_445_10827" style="mask-type:luminance" maskUnits="userSpaceOnUse" x="109" y="65" width="294" height="294">
<path d="M359.915 315.508C417.175 258.248 417.175 165.411 359.915 108.15C302.655 50.8902 209.818 50.8902 152.558 108.15C95.2974 165.411 95.2974 258.248 152.558 315.508C209.818 372.768 302.655 372.768 359.915 315.508Z" fill="white"/>
</mask>
<g mask="url(#mask1_445_10827)">
<path d="M98.6235 177.832L104.906 177.351C105.038 177.341 105.159 177.283 105.244 177.188C106.289 176.031 107.925 175.609 109.398 176.116L110.95 176.649C111.019 176.676 111.098 176.681 111.172 176.676L120.178 175.683C120.342 175.667 120.49 175.567 120.569 175.419L121.942 172.885C122.074 172.642 121.989 172.341 121.746 172.204L118.748 170.473C118.574 170.372 118.473 170.177 118.494 169.982L118.753 167.437C118.779 167.199 118.964 167.009 119.202 166.983L122.058 166.666C122.29 166.64 122.512 166.782 122.591 167.004L123.774 170.335C123.789 170.388 123.821 170.436 123.853 170.483L126.017 173.223C126.244 173.508 126.688 173.471 126.862 173.154L127.3 172.357C127.511 171.972 128.076 172.019 128.224 172.431L129.164 175.065C129.306 175.467 129.845 175.525 130.072 175.166L131.724 172.563C131.824 172.405 131.83 172.209 131.74 172.046L130.98 170.668C130.768 170.288 131.106 169.834 131.534 169.923L135.873 170.858C136.28 170.948 136.417 171.454 136.106 171.734L135.71 172.088C135.52 172.257 135.483 172.547 135.631 172.758L136.797 174.432C136.929 174.622 136.919 174.881 136.766 175.055L134.379 177.816C134.242 177.974 134.216 178.207 134.321 178.391L135.414 180.366C135.525 180.566 135.488 180.809 135.33 180.973L133.778 182.525C133.619 182.683 133.382 182.72 133.186 182.615L131.587 181.786C131.412 181.696 131.307 181.511 131.312 181.316L131.349 180.244C131.365 179.727 130.689 179.516 130.409 179.954L129.876 180.799C129.845 180.846 129.808 180.894 129.76 180.925L127.458 182.715C127.237 182.889 127.194 183.211 127.374 183.433L127.775 183.94C128.034 184.267 127.807 184.753 127.39 184.763L125.848 184.805C125.711 184.805 125.579 184.869 125.489 184.969L122.517 188.205C122.396 188.337 122.353 188.522 122.406 188.691L123.224 191.484C123.33 191.837 123.758 191.964 124.037 191.732C124.338 191.478 124.798 191.647 124.866 192.033L125.246 194.213C125.299 194.519 125.616 194.709 125.912 194.609L127.231 194.16C127.316 194.134 127.406 194.123 127.49 194.144L136.998 195.981C137.183 196.018 137.336 196.156 137.389 196.335L138.355 199.651C138.392 199.783 138.481 199.888 138.597 199.957L141.628 201.63C142.013 201.841 142.467 201.509 142.377 201.076L141.617 197.412L144.426 194.377C144.595 194.192 144.605 193.912 144.452 193.711L141.754 190.322C141.607 190.137 141.607 189.873 141.754 189.689L142.868 188.3C143.021 188.11 143.016 187.841 142.863 187.656L140.361 184.674C140.144 184.415 140.234 184.019 140.545 183.882L145.26 181.781C145.381 181.728 145.524 181.722 145.65 181.77L152.096 184.256C152.318 184.341 152.45 184.568 152.418 184.8L152.117 187.002C152.096 187.144 152.139 187.287 152.234 187.398L153.416 188.812C153.574 189.002 153.844 189.05 154.055 188.929L156.552 187.514C156.673 187.445 156.758 187.334 156.795 187.202L157.249 185.476C157.365 185.043 157.946 184.959 158.178 185.344L162 191.748C162.063 191.853 162.164 191.932 162.285 191.969L165.938 193.11L171.608 196.346C171.904 196.515 171.957 196.921 171.714 197.159L168.953 199.841C168.905 199.883 168.852 199.92 168.8 199.946L164.471 201.799C164.423 201.82 164.386 201.841 164.349 201.873L160.422 205.099C160.237 205.252 160.179 205.516 160.29 205.732L161.203 207.501C161.314 207.717 161.567 207.828 161.805 207.759L165.363 206.73C165.669 206.64 165.981 206.851 166.017 207.168L166.149 208.382C166.176 208.615 166.039 208.836 165.817 208.921L162.396 210.188C162.312 210.219 162.243 210.267 162.185 210.336L159.899 213.007C159.656 213.292 159.197 213.229 159.044 212.885L158.669 212.067C158.611 211.94 158.606 211.793 158.658 211.661L159.213 210.293C159.387 209.86 158.943 209.438 158.521 209.633L154.683 211.402C154.541 211.465 154.435 211.597 154.398 211.75L153.675 214.839C153.643 214.987 153.543 215.108 153.411 215.177L150.386 216.755C150.233 216.834 150.132 216.982 150.111 217.151L149.33 223.887C149.314 224.035 149.235 224.167 149.114 224.251L143.734 228.021C143.555 228.148 143.47 228.38 143.539 228.591L145.608 235.359C145.645 235.475 145.635 235.607 145.587 235.718L144.927 237.201C144.758 237.587 144.225 237.613 144.014 237.249L141.644 233.184C141.554 233.031 141.39 232.936 141.211 232.93L133.598 232.73C133.16 232.719 132.912 233.226 133.186 233.564C133.492 233.949 133.139 234.504 132.658 234.382L129.401 233.553C129.222 233.506 129.032 233.564 128.905 233.696L123.684 239.155C123.536 239.308 123.499 239.54 123.594 239.73L127.025 246.904C127.105 247.068 127.258 247.179 127.443 247.195L131.787 247.612C131.983 247.633 132.167 247.538 132.273 247.374L133.915 244.74C133.978 244.634 134.078 244.56 134.195 244.524L137.299 243.542C137.626 243.436 137.964 243.679 137.969 244.022L138.054 249.328C138.054 249.613 138.297 249.845 138.587 249.834L142.779 249.697C143.085 249.687 143.333 249.945 143.306 250.251L142.937 255.235L144.837 257.685L150.655 257.389C151.341 257.352 151.97 257.014 152.376 256.46L153.58 254.813C153.955 254.295 154.535 253.963 155.169 253.894L158.294 253.551C158.743 253.503 159.192 253.588 159.587 253.794L160.427 254.227C161.018 254.533 161.715 254.565 162.333 254.311L165.558 252.997C166.086 252.78 166.672 252.77 167.205 252.97L180.43 257.859C180.926 258.043 181.348 258.397 181.612 258.856L183.898 262.837C184.241 263.434 184.832 263.84 185.508 263.946L202.159 266.606C203.167 266.77 203.948 267.583 204.059 268.602L204.476 272.392C204.555 273.11 204.286 273.828 203.753 274.314L200.19 277.582C199.751 277.983 199.487 278.548 199.456 279.144L198.986 288.488C198.944 289.344 198.421 290.104 197.64 290.452L190.909 293.451C190.323 293.71 189.879 294.206 189.673 294.813L185.915 306.184C185.656 306.971 184.991 307.552 184.178 307.705L182.795 307.963C181.628 308.185 180.826 309.267 180.958 310.445C181.042 311.215 180.731 311.976 180.123 312.461L173.097 318.131C172.706 318.448 172.432 318.881 172.316 319.366L169.333 331.709C169.217 332.195 169.264 332.707 169.465 333.166L170.858 336.307C171.608 337.991 170.146 339.818 168.34 339.459L166.704 339.132C165.88 338.968 165.215 338.361 164.972 337.558L160.77 323.653C160.696 323.41 160.664 323.157 160.675 322.903L161.462 303.36L162.063 290.542C162.106 289.639 161.615 288.8 160.807 288.399L157.059 286.53C156.753 286.377 156.483 286.16 156.277 285.886L148.654 276.051C148.427 275.755 148.274 275.412 148.211 275.048L147.498 270.951C147.366 270.186 147.63 269.41 148.2 268.887L151.537 265.825C152.07 265.334 152.339 264.621 152.26 263.903L152.022 261.76C151.885 260.514 150.761 259.611 149.515 259.749L147.498 259.97C147.15 260.007 146.791 259.97 146.463 259.844L141.506 258.012L138.471 254.227L134.031 254.712L130.082 252.21C130.029 252.178 129.977 252.152 129.913 252.141L117.534 249.475C117.412 249.449 117.307 249.38 117.233 249.285L109.346 239.06C108.971 238.574 108.211 239.038 108.474 239.593L109.483 241.726C109.731 242.253 109.05 242.723 108.649 242.301L100.682 234.044L90.9159 223.512L91.465 211.476L80.0461 206.366L72.782 198.183L61.6376 195.781C61.4053 195.733 61.1625 195.754 60.9461 195.855L50.3824 200.59C50.2768 200.638 50.166 200.669 50.0498 200.68L46.4864 201.071C46.2699 201.092 46.0535 201.055 45.8582 200.954L38.5518 197.259C37.8338 196.9 37.723 195.923 38.3406 195.406L42.7329 191.726C43.3981 191.172 43.2027 190.1 42.3845 189.815L40.7374 189.24C39.6129 188.849 39.7977 187.208 40.9802 187.076C42.1522 186.949 42.3528 185.328 41.2442 184.916L38.1295 183.765C37.1845 183.417 37.1475 182.103 38.0661 181.696L44.5014 178.866C46.8243 177.848 49.353 177.394 51.8817 177.541L67.9357 178.476C70.9237 178.65 73.8906 177.921 76.4616 176.385C79.3651 174.648 82.7754 173.946 86.133 174.405L97.346 175.936C97.5413 175.963 97.7102 176.105 97.763 176.295L98.1115 177.467C98.1801 177.7 98.3965 177.848 98.6394 177.832H98.6235Z" fill="#FFE394"/>
<path d="M127.543 163.003L127.369 163.747C127.068 165.051 127.918 166.339 129.233 166.571L138.429 168.213C138.719 168.266 138.994 168.371 139.242 168.525L142.441 170.494C143.011 170.847 143.407 171.428 143.518 172.088L144.416 177.309C144.548 178.085 145.065 178.74 145.783 179.057L153.623 182.483C154.916 183.048 156.415 182.345 156.806 180.983L157.455 178.708C157.534 178.428 157.666 178.164 157.841 177.932L159.435 175.841C160.464 174.495 159.757 172.537 158.11 172.151L155.143 171.46C154.177 171.233 153.464 170.425 153.353 169.443C153.264 168.62 152.741 167.902 151.981 167.564L144.801 164.37C144.558 164.264 144.337 164.116 144.146 163.932L140.826 160.796C140.33 160.326 139.649 160.099 138.968 160.173L129.555 161.208C128.568 161.318 127.76 162.036 127.533 163.003H127.543Z" fill="#FFE394"/>
<path d="M122.026 162.036L120.521 162.2C119.798 162.279 119.28 162.928 119.36 163.646L119.423 164.243C119.502 164.961 120.151 165.483 120.869 165.404L121.841 165.299C122.21 165.256 122.548 165.061 122.765 164.755L123.229 164.1C123.889 163.176 123.145 161.909 122.015 162.036H122.026Z" fill="#FFE394"/>
<path d="M116.599 168.038L117.765 166.328C118.029 165.937 118.066 165.436 117.86 165.013L117.216 163.688C116.921 163.081 116.213 162.796 115.58 163.034L112.634 164.121C111.678 164.475 111.473 165.737 112.27 166.375L114.693 168.318C115.289 168.799 116.166 168.667 116.599 168.033V168.038Z" fill="#FFE394"/>
<path d="M98.3762 166.154L87.216 164.877C86.1549 164.755 85.1518 165.373 84.7823 166.376L84.2597 167.78C83.8848 168.788 84.2596 169.918 85.1518 170.515L85.6428 170.842C86.2605 171.249 87.0312 171.338 87.7228 171.085L89.3488 170.483C89.8873 170.282 90.4785 170.293 91.0117 170.504L93.5246 171.507C93.7199 171.586 93.9047 171.687 94.0684 171.819L98.0858 174.881C98.7299 175.372 99.5904 175.493 100.345 175.192L104.928 173.371C105.345 173.202 105.804 173.165 106.242 173.255L110.46 174.11C111.115 174.242 111.801 174.083 112.329 173.677C113.622 172.684 113.512 170.705 112.118 169.86L109.874 168.503C109.425 168.234 109.082 167.817 108.903 167.326L108.285 165.663C107.863 164.518 106.622 163.9 105.456 164.248L99.2895 166.075C98.9885 166.165 98.6771 166.191 98.3709 166.154H98.3762Z" fill="#FFE394"/>
<path d="M110.333 157.433L113.453 160.104C113.67 160.289 113.944 160.399 114.23 160.415L118.273 160.653C119.308 160.711 120 159.608 119.493 158.7L119.071 157.95C118.812 157.491 118.305 157.227 117.782 157.285L116.663 157.406C116.193 157.459 115.729 157.253 115.454 156.862L114.43 155.426C114.156 155.041 113.691 154.835 113.221 154.883L111.046 155.12C109.906 155.247 109.462 156.672 110.333 157.422V157.433Z" fill="#FFE394"/>
<path d="M123.531 160.479L137.368 158.958C137.627 158.932 137.817 158.694 137.785 158.436L137.516 156.007C137.489 155.765 137.284 155.585 137.046 155.585L133.166 155.601C133.102 155.601 133.039 155.617 132.981 155.638L127.433 158.024C127.232 158.109 127 158.05 126.873 157.876L126.055 156.815C125.886 156.593 125.944 156.282 126.176 156.129L128.008 154.946C128.087 154.899 128.177 154.872 128.267 154.872L138.26 154.967C138.545 154.967 138.767 154.725 138.735 154.445L138.503 152.323C138.487 152.191 138.529 152.059 138.619 151.958L141.993 148.157C142.278 147.835 142.019 147.323 141.586 147.371C141.069 147.429 140.852 146.727 141.312 146.484L144.59 144.736C144.59 144.736 144.622 144.721 144.637 144.71L150.196 140.877C150.196 140.877 150.223 140.861 150.239 140.851L156.341 137.514C156.748 137.293 156.626 136.68 156.167 136.628L142.262 135.033C142.198 135.028 142.13 135.033 142.067 135.049L122.037 141.215C121.657 141.331 121.583 141.838 121.911 142.06L124.218 143.612C124.297 143.665 124.397 143.696 124.492 143.691L132.115 143.527C132.173 143.527 132.226 143.517 132.284 143.496L133.794 142.889C134.317 142.677 134.702 143.395 134.237 143.717L132.237 145.095C132.179 145.132 132.115 145.159 132.047 145.175L128.378 145.797C128.314 145.808 128.256 145.808 128.193 145.797L121.462 144.272C121.414 144.261 121.372 144.245 121.33 144.219L118.901 142.831C118.759 142.746 118.579 142.746 118.437 142.831L113.591 145.539C113.3 145.702 113.263 146.098 113.517 146.315L117.766 149.905C117.819 149.952 117.883 149.984 117.951 150L123.616 151.467C123.742 151.499 123.874 151.478 123.985 151.409L127.607 149.155C128.024 148.896 128.515 149.371 128.267 149.794L126.752 152.381C126.715 152.444 126.667 152.497 126.609 152.534L122.787 155.115C122.671 155.194 122.523 155.216 122.391 155.179L117.539 153.758C117.217 153.663 116.901 153.927 116.938 154.265L117.096 155.706C117.117 155.923 117.291 156.097 117.508 156.124L121.219 156.593C121.383 156.615 121.525 156.72 121.594 156.873L123.046 160.194C123.13 160.384 123.325 160.5 123.531 160.474V160.479Z" fill="#FFE394"/>
<path d="M106.58 153.062C106.802 153.273 107.087 153.4 107.388 153.421L111.052 153.69C112.166 153.769 112.868 152.507 112.208 151.605L111.939 151.235C111.685 150.887 111.273 150.686 110.84 150.697L107.446 150.797C106.279 150.834 105.735 152.254 106.58 153.062Z" fill="#FFE394"/>
<path d="M114.687 151.536L114.756 151.668C115.004 152.153 115.527 152.438 116.07 152.38L116.176 152.37C117.248 152.254 117.728 150.96 116.994 150.168L116.878 150.042C116.593 149.741 116.187 149.588 115.775 149.63H115.722C114.809 149.736 114.281 150.717 114.693 151.53L114.687 151.536Z" fill="#FFE394"/>
<path d="M150.502 153.732L158.754 153.215C159.202 153.188 159.651 153.326 160.005 153.6L169.835 161.213C170.151 161.461 170.384 161.804 170.489 162.195L175.214 179.558C175.309 179.896 175.494 180.207 175.758 180.445L178.529 182.968C179.517 183.866 181.1 183.459 181.533 182.198L184.057 174.838C184.289 174.157 184.896 173.677 185.609 173.598L188.919 173.233C189.441 173.175 189.911 172.901 190.218 172.479L193.433 168.039C193.612 167.791 193.85 167.59 194.129 167.458L202.36 163.478C202.766 163.282 203.088 162.939 203.262 162.522L207.676 151.948C207.871 151.478 207.866 150.945 207.66 150.475L204.197 142.72C203.843 141.933 204.081 141.009 204.767 140.487L211.815 135.123C213.15 134.104 212.559 131.982 210.891 131.802L203.954 131.063C203.906 131.058 203.859 131.053 203.811 131.053L183.925 130.488C183.729 130.483 183.539 130.509 183.349 130.562L160.976 137.113C160.702 137.193 160.448 137.335 160.237 137.53L153.622 143.649C153.474 143.786 153.306 143.897 153.121 143.982L146.685 146.853C145.54 147.365 145.223 148.838 146.052 149.773L149.003 153.115C149.383 153.542 149.937 153.774 150.508 153.737L150.502 153.732Z" fill="#FFE394"/>
<path d="M203.521 169.454L209.54 173.018L216.492 172.252L219.306 166.714L209.418 166.397L203.521 169.454Z" fill="#FFE394"/>
<path d="M314.885 208.397L312.968 210.63C312.905 210.704 312.847 210.778 312.789 210.852L306.607 218.992C305.54 220.396 305.34 222.276 306.089 223.87L306.443 224.625C307.056 225.934 307.034 227.449 306.396 228.743C305.488 230.575 305.852 232.787 307.309 234.223L314.452 241.291C315.339 242.168 316.537 242.664 317.783 242.664H321.858H323.801C324.503 242.664 325.195 242.511 325.834 242.21L330.126 240.183C330.411 240.045 330.749 240.088 330.991 240.288L333.678 242.49C333.826 242.611 334.006 242.675 334.196 242.675H336.397C336.851 242.675 337.216 243.044 337.216 243.493V249.326C337.216 249.706 337.3 250.081 337.469 250.419L341.581 258.655C341.866 259.225 341.914 259.885 341.719 260.492L339.602 267.054C339.412 267.645 339.454 268.284 339.718 268.843L341.777 273.199C341.93 273.526 342.014 273.88 342.009 274.244V278.679C342.009 279.159 342.146 279.634 342.415 280.035L348.502 289.179C348.956 289.86 349.717 290.266 350.535 290.266H357.614C358.401 290.272 359.135 289.897 359.594 289.258L363.828 283.388C364.129 282.97 364.287 282.474 364.287 281.962V280.072C364.287 278.985 365.01 278.024 366.061 277.728L366.737 277.538C367.787 277.237 368.51 276.282 368.51 275.194V272.623C368.51 271.974 368.769 271.356 369.228 270.897L373.827 266.309C374.286 265.85 374.539 265.232 374.545 264.583V258.412C374.545 257.989 374.439 257.567 374.228 257.203L373.082 255.191C372.528 254.225 372.702 253.006 373.499 252.23L383.102 242.891C383.424 242.579 383.651 242.184 383.767 241.745L384.733 237.987C385.314 235.722 383.276 233.652 381.006 234.201C379.291 234.613 377.49 233.98 376.419 232.575L375.178 230.96L371.868 229.149L366.663 214.869C366.562 214.6 366.916 214.399 367.101 214.616L373.684 222.524L377.021 229.35C378.029 231.414 380.436 232.38 382.59 231.578L391.866 228.136C392.177 228.02 392.441 227.793 392.599 227.502L395.228 222.73C395.492 222.249 395.45 221.653 395.118 221.215L392.536 217.836C392.098 217.261 391.285 217.118 390.678 217.514L387.922 219.293C387.23 219.736 386.312 219.494 385.932 218.765L383.171 213.417C382.69 212.493 383.366 211.39 384.406 211.39C384.86 211.39 385.288 211.617 385.546 211.992L387.399 214.668C387.674 215.064 388.138 215.291 388.619 215.265L392.642 215.043C393.038 215.022 393.423 215.17 393.703 215.45L395.265 217.012C395.524 217.271 395.878 217.419 396.247 217.419H403.49C403.881 217.419 404.25 217.588 404.514 217.878L409.677 223.59C409.773 223.696 409.852 223.817 409.91 223.949L415.617 236.63C416.081 237.659 417.517 237.728 418.077 236.741L422.031 229.725C422.121 229.566 422.242 229.424 422.39 229.313L432.7 221.331C433.444 220.755 434.537 221.077 434.849 221.97L436.554 226.9C436.77 227.529 437.409 227.914 438.064 227.814L439.558 227.587C440.281 227.476 440.962 227.946 441.115 228.664L442.012 232.892C442.034 232.987 442.044 233.082 442.044 233.183V236.741C442.044 236.931 442.081 237.126 442.16 237.3L444.346 242.221C444.414 242.374 444.51 242.516 444.631 242.638L445.428 243.435C446.436 244.448 448.131 243.44 447.725 242.067L446.938 239.407C446.885 239.232 446.801 239.069 446.685 238.926L444.462 236.208C444.261 235.959 444.151 235.653 444.151 235.336C444.151 233.964 445.935 233.436 446.685 234.582L448.384 237.184C448.849 237.897 449.841 238.024 450.47 237.448L454.677 233.61C455.073 233.251 455.3 232.739 455.3 232.206V229.719C455.3 229.033 454.931 228.4 454.334 228.062L452.317 226.927C451.335 226.372 451.05 225.1 451.694 224.176L451.8 224.023C452.275 223.342 453.136 223.052 453.928 223.3L456.52 224.113C457.084 224.292 457.702 224.192 458.183 223.854L467.062 217.598C467.448 217.329 467.717 216.923 467.822 216.463L469.644 208.429C469.728 208.048 469.696 207.647 469.549 207.283L468.018 203.551C467.801 203.023 467.833 202.426 468.102 201.925L469.052 200.161C469.48 199.369 470.404 198.984 471.264 199.237L473.951 200.029C474.548 200.204 475.023 200.663 475.218 201.254L475.831 203.086C476.253 204.358 477.821 204.807 478.851 203.946C479.664 203.271 479.769 202.062 479.088 201.254L477.985 199.945C477.415 199.274 477.383 198.298 477.906 197.59L479.764 195.062C480.123 194.571 480.693 194.286 481.3 194.286H485.228C485.925 194.286 486.569 193.905 486.901 193.293L491.885 184.128C492.022 183.88 492.091 183.601 492.091 183.321V178.823C492.091 177.888 491.336 177.128 490.401 177.128C488.86 177.128 488.121 175.233 489.251 174.188L494.926 168.946C495.237 168.655 495.649 168.497 496.076 168.497H505.12C505.463 168.502 505.801 168.397 506.086 168.201L512.748 163.592C513.033 163.397 513.371 163.292 513.714 163.292H516.053C517.6 163.292 518.339 165.197 517.198 166.237L510.225 172.62C509.813 173 509.612 173.554 509.691 174.109L510.547 180.137C510.747 181.568 512.537 182.107 513.493 181.024L519.975 173.713C520.25 173.401 520.403 173.005 520.403 172.588V169.764C520.403 169.019 520.894 168.36 521.607 168.143L527.635 166.311L534.863 163.302H537.872L546.271 155.352C547.263 154.412 546.925 152.76 545.648 152.284L529.974 146.44C529.451 146.245 528.876 146.298 528.396 146.578L524.515 148.858C524.199 149.043 523.834 149.133 523.47 149.106L514.49 148.573C514.042 148.547 513.619 148.357 513.297 148.04L507.411 142.17C507.068 141.826 506.598 141.631 506.112 141.631L491.938 141.621C491.473 141.621 491.024 141.795 490.681 142.117L487.097 145.448C486.653 145.86 486.036 146.029 485.444 145.897L478.201 144.308C477.357 144.123 476.749 143.373 476.755 142.507V141.225C476.755 140.369 476.174 139.63 475.345 139.43L470.488 138.258C469.733 138.078 468.947 138.384 468.519 139.034L467.601 140.417C467.141 141.114 466.265 141.415 465.473 141.145L459.809 139.24C458.309 138.733 458.098 136.7 459.465 135.903L460.094 135.534C460.706 135.169 461.06 134.488 460.996 133.776L460.944 133.163C460.864 132.276 460.157 131.569 459.27 131.495L440.555 129.853C440.212 129.822 439.864 129.89 439.558 130.049L425.673 137.117C425.056 137.434 424.665 138.068 424.665 138.759V138.86C424.665 139.577 424.248 140.227 423.599 140.533L417.264 143.474C416.63 143.769 415.891 143.679 415.342 143.247L414.075 142.238C413.552 141.821 412.84 141.726 412.222 141.98L405.206 144.894C404.43 145.216 403.971 146.023 404.087 146.857C404.277 148.177 403.042 149.254 401.759 148.89L396.59 147.433C395.624 147.158 394.616 147.713 394.326 148.679L394.299 148.763C394.083 149.486 393.449 150.004 392.7 150.067L384.454 150.812C384.158 150.838 383.873 150.938 383.619 151.097L370.886 159.311C370.443 159.596 369.872 159.559 369.471 159.221L367.909 157.902C367.185 157.294 367.423 156.122 368.331 155.848L372.681 154.512C372.802 154.475 372.913 154.423 373.014 154.349C373.758 153.831 373.674 152.702 372.866 152.3L356.595 144.202C356.231 144.017 355.798 144.038 355.445 144.25L340.8 153.082C340.694 153.145 340.599 153.224 340.515 153.319L330.68 164.596C330.331 164.997 330.289 165.583 330.574 166.031L332.892 169.621C333.188 170.081 333.758 170.276 334.275 170.107L338.166 168.808C338.836 168.587 339.554 168.988 339.707 169.679L340.378 172.641C340.515 173.248 341.096 173.649 341.713 173.56L344.189 173.206C344.596 173.148 344.939 172.889 345.108 172.52L347.663 166.903C347.784 166.639 347.806 166.338 347.716 166.058L346.866 163.297C346.729 162.859 346.866 162.378 347.198 162.067L352.932 156.803C353.153 156.603 353.438 156.487 353.739 156.487H354.626C355.687 156.487 356.221 157.77 355.476 158.524L351.464 162.574C351.105 162.938 351.015 163.492 351.242 163.946L352.013 165.493C352.224 165.915 352.668 166.174 353.143 166.153L357.672 165.931C358.11 165.91 358.528 166.132 358.755 166.512L358.802 166.591C359.282 167.388 358.707 168.402 357.778 168.402H355.877C355.254 168.402 354.737 168.877 354.684 169.5L354.526 171.495C354.489 171.939 354.209 172.33 353.803 172.498L344.775 176.321C344.617 176.389 344.443 176.421 344.268 176.416L336.434 176.131C336.218 176.12 336.001 176.173 335.811 176.278L330.733 179.092C330.696 179.113 330.664 179.134 330.627 179.161L325.015 183.495C323.009 185.047 322.698 187.961 324.34 189.899C324.53 190.12 324.582 190.432 324.482 190.706L323.632 193.034C323.516 193.356 323.205 193.573 322.861 193.573H320.148C317.862 193.573 316.062 195.516 316.241 197.796L316.458 200.557C316.484 200.885 316.701 201.164 317.012 201.27L321.631 202.811C321.816 202.875 322.022 202.864 322.202 202.79L326.536 201.011C326.842 200.885 327.043 200.584 327.043 200.256V198.884C327.043 196.751 328.299 194.824 330.242 193.953L334.666 191.979C336.524 191.15 338.636 192.422 338.768 194.455C338.783 194.671 338.878 194.872 339.042 195.014L343.735 199.195C344.015 199.443 344.422 199.47 344.733 199.264L345.382 198.831C345.736 198.593 345.852 198.124 345.641 197.749L342.02 191.271C341.882 191.028 341.882 190.727 342.014 190.485L342.991 188.679C343.334 188.04 344.279 188.13 344.49 188.822L345.372 191.646C345.398 191.736 345.446 191.826 345.504 191.899L348.392 195.663C348.413 195.69 348.429 195.716 348.45 195.748L351.907 201.613C352.14 202.009 352.657 202.136 353.048 201.893L354.278 201.127C354.563 200.953 354.711 200.621 354.653 200.293C354.494 199.391 355.708 198.947 356.168 199.744L357.767 202.526C358.126 203.144 358.823 203.487 359.531 203.387L364.646 202.679C366.811 202.379 368.584 204.385 368.025 206.496L367.434 208.719C367.228 209.49 366.531 210.028 365.734 210.023H360.623C360.518 210.023 360.407 210.007 360.301 209.991L351.628 208.376C350.593 208.186 349.548 208.64 348.983 209.521C348.307 210.588 346.956 210.999 345.794 210.503L337.928 207.125C337.548 206.961 337.353 206.544 337.464 206.148L338.155 203.746C338.314 203.202 337.881 202.669 337.316 202.706L324.926 203.524L324.218 203.593C320.613 203.936 317.281 205.657 314.922 208.402L314.885 208.397Z" fill="#FFE394"/>
<path d="M371.007 189.857L371.07 190.184C371.197 190.823 371.619 191.367 372.21 191.652L375.842 193.394C377.046 193.969 377.4 195.516 376.566 196.561C376.085 197.158 375.314 197.443 374.565 197.3L366.34 195.754C366.213 195.732 366.086 195.717 365.96 195.717H362.037C360.48 195.717 359.482 194.064 360.2 192.681L361.958 189.302C362.317 188.616 363.024 188.188 363.801 188.188H368.974C369.961 188.188 370.811 188.891 371.007 189.862V189.857Z" fill="#FFE394"/>
<path d="M389.037 195.833V200.885C389.037 202.03 388.102 202.96 386.957 202.96H385.986C384.84 202.96 383.911 202.03 383.911 200.885V198.029C383.911 197.707 383.837 197.39 383.694 197.1L381.604 192.913C381.065 191.831 381.556 190.522 382.675 190.068L385.004 189.118C386.176 188.637 387.501 189.313 387.802 190.543L388.974 195.342C389.01 195.505 389.032 195.669 389.032 195.833H389.037Z" fill="#FFE394"/>
<path d="M381.507 264.937L378.693 268.005C378.334 268.395 378.102 268.881 378.017 269.404L377.115 275.147C376.861 276.773 378.118 278.241 379.759 278.241H380.689C381.861 278.241 382.89 277.486 383.244 276.372L386.031 267.561C386.19 267.065 386.195 266.537 386.058 266.036C385.498 264.008 382.922 263.391 381.502 264.937H381.507Z" fill="#FFE394"/>
</g>
<g style="mix-blend-mode:multiply" opacity="0.28">
<path d="M256.239 305.054C184.379 305.054 124.598 253.36 112.044 185.132C110.449 193.79 109.615 202.711 109.615 211.834C109.615 292.811 175.262 358.458 256.239 358.458C337.216 358.458 402.863 292.811 402.863 211.834C402.863 202.717 402.029 193.79 400.434 185.132C387.881 253.36 328.099 305.054 256.239 305.054Z" fill="#FFE394"/>
</g>
<path d="M225.464 68.0616C221.663 64.6565 217.856 69.4606 218.458 73.0663C219.06 76.6719 217.988 80.8742 217.988 80.8742C217.988 80.8742 219.012 80.5785 220.675 80.399C221.304 78.7678 222 76.5452 221.652 75.4736C222.576 77.2104 222.893 78.9578 222.988 80.2565C224.645 80.2354 226.593 80.3779 228.668 80.8742C227.068 79.4752 229.27 71.4667 225.464 68.0616Z" fill="#DBA61F"/>
<path d="M257.545 6.15723L219.857 35.7787L250.281 48.3537L298.834 22.3168L257.545 6.15723Z" fill="#383426"/>
<path d="M274.507 437.989C274.507 437.989 270.004 449.698 274.507 454.656C302.883 459.613 316.398 456.007 319.549 455.558C322.701 455.11 290.725 439.346 290.725 439.346L274.513 437.995L274.507 437.989Z" fill="black"/>
<path d="M239.827 436.416V455.786C239.827 455.786 217.755 457.137 208.3 455.786C198.84 454.434 215.955 445.428 215.955 445.428L217.987 431.913L239.827 436.416Z" fill="black"/>
<path d="M252.888 315.707L239.828 436.421C239.828 436.421 224.513 440.026 215.955 436.421V316.161L252.888 315.712V315.707Z" fill="#383426"/>
<path d="M265.716 324.851L272.088 439.789C272.088 439.789 289.367 443.844 294.324 439.789L298.827 309.167L276.755 283.04L265.711 324.846L265.716 324.851Z" fill="#383426"/>
<path d="M215.955 348.258C226.276 340.641 241.791 338.576 250.476 338.033L252.893 315.707L215.96 316.156V348.258H215.955Z" fill="black"/>
<path d="M265.717 324.851L266.245 334.337C271.012 333.72 281.744 333.788 297.698 342.05C298.455 320.131 298.833 309.172 298.833 309.172L276.761 283.045L265.717 324.851Z" fill="black"/>
<path d="M318.751 202.385C318.751 202.385 305.395 213.144 300.09 210.895C294.779 208.641 292.979 193.252 292.979 193.252C292.979 193.252 298.685 183.295 309.344 186.062C320.003 188.828 318.751 202.39 318.751 202.39V202.385Z" fill="#E28E64"/>
<path d="M297.62 107.697C297.62 107.697 329.96 130.92 342.973 147.935C355.986 164.95 363.393 174.357 352.18 183.77C340.972 193.178 318.747 202.39 318.747 202.39C318.747 202.39 315.342 191.351 309.339 186.061L319.148 171.359C319.148 171.359 306.937 161.35 298.327 158.747C297.525 132.921 297.614 107.703 297.614 107.703L297.62 107.697Z" fill="#383426"/>
<path d="M209.647 112.803C209.647 112.803 205.143 115.405 178.568 140.181C151.993 164.956 143.435 178.914 153.344 191.077C163.253 203.24 188.926 218.091 188.926 218.091C188.926 218.091 198.835 210.647 201.089 202.892L183.974 177.119L214.604 160.69C214.604 160.69 228.567 135.429 209.647 112.808V112.803Z" fill="#383426"/>
<path d="M183.974 177.113L177.518 165.446" stroke="black" stroke-width="0.908018" stroke-miterlimit="10"/>
<path d="M182.924 162.849L183.974 177.113" stroke="black" stroke-width="0.908018" stroke-miterlimit="10"/>
<path d="M219.857 108.648L209.647 112.803C209.647 112.803 216.605 200.083 212.451 226.205C208.296 252.326 201.09 327.079 201.09 327.079C201.09 327.079 240.731 333.816 271.583 327.079L276.762 291.514L282.996 325.738L308.738 322.508C308.738 322.508 305.866 147.73 297.62 107.693C234.423 107.291 219.857 108.643 219.857 108.643V108.648Z" fill="#383426"/>
<path d="M235.472 98.8914L233.471 95.2857L212.449 107.697C212.449 107.697 237.071 147.808 272.806 160.684C293.928 131.321 298.331 104.297 298.331 104.297L280.112 93.8867L276.707 97.8883L235.472 98.8914Z" fill="#7C6E3C"/>
<path d="M267.3 90.683L279.511 97.5882C279.511 97.5882 275.921 120.109 267.005 131.718C249.684 123.308 235.467 98.8869 235.467 98.8869L245.323 93.2804L267.295 90.6777L267.3 90.683Z" fill="#FFF6E7"/>
<path d="M267.01 131.723C268.952 129.194 270.636 126.148 272.094 122.933L267.87 107.703L269.507 100.296L263.599 93.8926L259.35 103.701L262.306 108.305V129.02C263.842 130.039 265.415 130.947 267.01 131.723Z" fill="#DBA61F"/>
<path d="M264.497 97.6881C264.497 97.6881 269.702 101.89 271.101 105.095C272.5 98.6911 270.7 94.283 267.3 90.6826C262.697 91.6857 264.497 97.6881 264.497 97.6881Z" fill="#EDDFCA"/>
<path d="M249.483 87.4775L245.328 93.2846L259.344 107.697C259.344 107.697 261.894 101.093 264.497 97.6875C257.09 90.4814 249.483 87.4775 249.483 87.4775Z" fill="#EDDFCA"/>
<path d="M272.807 28.3252L268.911 18.1153C268.911 18.1153 247.584 15.613 237.574 32.3268L240.578 42.5368L272.807 28.3252Z" fill="#383426"/>
<path d="M280.313 41.8394C280.313 41.8394 287.92 37.6372 287.92 31.8301C287.92 26.023 284.119 28.6256 284.119 28.6256C284.119 28.6256 285.123 24.4234 281.717 23.2197C278.312 22.0161 274.121 27.422 267.01 28.425C259.899 29.428 249.287 30.2252 244.283 32.0307C239.278 33.8309 238.676 40.641 239.679 44.0408C240.682 47.4459 241.881 53.2477 241.881 59.6566C241.881 66.0655 241.279 71.8673 240.482 74.47C239.679 77.0726 242.884 80.6783 245.687 76.4708C245.888 82.4785 252.893 81.8767 252.893 81.8767L254.076 63.4576L255.496 49.4467L256.098 41.8394H280.318H280.313Z" fill="#72480A"/>
<path d="M280.715 37.0361C280.715 37.0361 284.516 47.4466 284.516 64.4614C284.717 78.0764 282.516 81.2756 279.512 81.8774C276.508 82.4793 265.897 81.8774 265.897 81.8774C265.897 81.8774 266.699 88.4817 267.296 90.6831C266.493 96.089 264.492 97.6886 264.492 97.6886C264.492 97.6886 253.881 94.6847 249.479 87.4786C251.078 78.4724 249.479 57.8519 249.479 57.8519C249.479 57.8519 252.482 60.4545 252.884 59.2509C253.285 58.0472 251.68 53.4438 250.08 50.2446C248.481 47.0401 251.284 40.4359 258.886 38.2345C266.493 36.0331 275.7 34.6288 280.705 37.0308L280.715 37.0361Z" fill="#E28E64"/>
<path d="M265.902 81.8772C265.902 81.8772 261.299 81.0273 258.295 79.6758C259.599 82.025 263.368 83.8675 266.314 85.0025C266.071 83.2762 265.902 81.8772 265.902 81.8772Z" fill="#B07F00"/>
<path d="M251.194 60.7342C252.218 64.6672 250.418 68.5369 247.182 69.3815C243.946 70.2262 240.488 67.7186 239.469 63.7856C238.445 59.8526 240.245 55.983 243.481 55.1383C246.717 54.2936 250.175 56.8013 251.194 60.7342Z" fill="#E28E64"/>
<path d="M249.542 65.2053C248.517 61.2723 245.065 58.77 241.829 59.6094C240.783 59.8786 239.891 60.4699 239.194 61.2723C239.168 62.0853 239.247 62.93 239.469 63.7747C240.493 67.7077 243.946 70.21 247.182 69.3706C248.227 69.1014 249.119 68.5101 249.816 67.7077C249.842 66.8947 249.763 66.05 249.542 65.2053Z" fill="#D6784A"/>
<path d="M266.313 45.1397C266.313 45.1397 259.196 46.4384 256.694 48.5448C254.192 50.6459 254.493 44.6435 256.995 42.9383C259.497 41.2384 265.225 39.5332 266.313 45.1397Z" fill="#72480A"/>
<path d="M281.807 40.789C279.337 40.525 278.397 42.6419 278.312 44.8434C280.334 44.9753 282.008 45.6088 282.937 46.0417C282.557 43.9406 282.161 42.1827 281.813 40.789H281.807Z" fill="#72480A"/>
<path d="M270.605 52.4667C270.605 52.4667 262.898 50.5451 260.295 56.046C265.5 57.1493 270.605 56.6478 270.605 56.6478V52.4667Z" fill="#EDDFCA"/>
<path d="M284.226 56.437C284.099 54.6949 283.941 53.0583 283.756 51.5273C281.122 52.7891 280.113 56.7643 280.113 56.7643L284.226 56.437Z" fill="#514005"/>
<path d="M280.276 56.2363C280.276 56.2363 280.033 60.1535 280.624 63.4582C281.216 66.763 279.014 66.2615 277.314 65.6597" stroke="#72480A" stroke-width="0.454009" stroke-miterlimit="10"/>
<path d="M260.294 56.0515C263.399 56.7061 266.471 56.7959 268.44 56.7589C268.741 56.0568 268.91 55.2808 268.91 54.4572C268.91 53.6336 268.741 52.8682 268.445 52.1766C265.964 52.0235 262.01 52.4142 260.289 56.0568L260.294 56.0515Z" fill="#514005"/>
<path d="M281.713 69.539C281.713 69.539 274.106 70.1619 268.6 67.459" stroke="#72480A" stroke-width="0.522638" stroke-miterlimit="10"/>
<g style="mix-blend-mode:overlay" opacity="0.26">
<path d="M284.119 28.6256C284.119 28.6256 285.122 24.4234 281.717 23.2197C278.312 22.0161 274.121 27.422 267.01 28.425C262.1 29.1166 255.533 29.7131 250.285 30.6053C256.588 32.0835 263.198 32.4266 271.106 30.4258C279.014 28.425 281.717 28.425 282.171 32.4266C285.286 31.3127 286.273 34.0526 286.579 36.0851C287.377 34.8128 287.92 33.3769 287.92 31.8301C287.92 26.023 284.119 28.6256 284.119 28.6256Z" fill="#FFF6E7"/>
</g>
<path d="M260.295 56.0509C260.295 56.0509 262.396 50.587 270.605 52.4716L272.807 52.8517" stroke="#493605" stroke-width="0.454009" stroke-miterlimit="10"/>
<path d="M280.277 56.2356C280.277 56.2356 282.019 50.9458 285.72 51.2467" stroke="#493605" stroke-width="0.454009" stroke-miterlimit="10"/>
<path d="M219.857 35.7792V31.3289L256.944 1L257.545 6.15775L219.857 35.7792Z" fill="#B1944A"/>
<path d="M298.834 22.3173V17.6822L256.943 1L257.545 6.15776L298.834 22.3173Z" fill="#B1944A"/>
<path d="M224.064 35.2305C224.064 35.2305 220.152 41.518 223.33 52.467C225.067 58.4483 223.167 67.4598 223.167 67.4598" stroke="#152F3A" stroke-width="0.522638" stroke-miterlimit="10"/>
<path d="M298.331 104.298L294.271 101.98C290.016 114.249 280.392 140.365 271.106 154.144C240.028 140.149 222.437 114.255 216.942 105.048L212.449 107.698C212.449 107.698 237.071 147.809 272.806 160.685C293.928 131.322 298.331 104.298 298.331 104.298Z" fill="#FFF6E7"/>
<path d="M199.442 203.188C199.442 203.188 210.454 203.99 212.455 206.392C214.456 208.794 212.455 210.795 212.455 210.795C212.455 210.795 215.058 213.999 217.259 216.602C219.461 219.205 216.056 220.403 215.259 222.008C214.456 223.607 214.657 224.41 213.86 226.812C213.057 229.214 209.256 230.016 209.256 230.016C209.256 230.016 193.841 224.61 189.639 214.802C190.842 204.792 199.447 203.193 199.447 203.193L199.442 203.188Z" fill="#E28E64"/>
<path d="M319.146 171.359L327.155 160.685" stroke="black" stroke-width="0.908018" stroke-miterlimit="10"/>
<path d="M321.95 156.546L319.146 171.359" stroke="black" stroke-width="0.908018" stroke-miterlimit="10"/>
<path opacity="0.4" d="M226.767 150.105C226.767 150.105 262.602 214.046 287.921 232.059C313.245 250.077 291.173 206.011 291.173 206.011C291.173 206.011 295.676 227.556 288.919 223.95C282.161 220.344 234.871 169.274 226.762 150.1L226.767 150.105Z" fill="black"/>
<path d="M212.45 161.836C212.45 161.836 223.161 143.982 209.646 112.803" stroke="black" stroke-width="0.908018" stroke-miterlimit="10"/>
<path d="M302.999 160.653C302.999 160.653 300.016 117.105 297.619 107.697" stroke="black" stroke-width="0.908018" stroke-miterlimit="10"/>
<g style="mix-blend-mode:overlay" opacity="0.2">
<path d="M280.715 37.0351C275.71 34.6331 266.503 36.0321 258.896 38.2388C257.27 38.7086 255.871 39.3791 254.678 40.1762C253.928 47.5671 252.661 74.0316 271.746 82.1087C274.734 82.1773 278.038 82.1721 279.511 81.8817C282.515 81.2799 284.716 78.0807 284.516 64.4657C284.516 47.4509 280.715 37.0404 280.715 37.0404V37.0351Z" fill="#FFF6E7"/>
</g>
<path d="M256.943 1L298.834 17.6822" stroke="#D7A700" stroke-width="0.454009" stroke-miterlimit="10"/>
<path d="M227.507 71.9686C227.18 70.4587 226.583 69.0597 225.464 68.062C221.99 64.9578 218.522 68.6849 218.4 72.1005C221.183 71.3879 224.815 70.8705 227.507 71.9686Z" fill="#383426"/>
<path d="M269.101 102.134L267.865 107.698L272.089 122.928" stroke="#72480A" stroke-width="0.522638" stroke-miterlimit="10"/>
<path d="M216.943 105.047C216.943 105.047 235.473 137.524 271.108 154.143" stroke="#383426" stroke-width="0.522638" stroke-miterlimit="10"/>
<path d="M136.079 231.361H130.541V279.17H136.079V231.361Z" fill="#E5B14A"/>
<path d="M178.503 231.361H172.965V279.17H178.503V231.361Z" fill="#E5B14A"/>
<path d="M188.808 279.17H120.242C110.084 279.17 101.85 287.405 101.85 297.563V412.775C101.85 422.933 110.084 431.168 120.242 431.168H188.808C198.966 431.168 207.201 422.933 207.201 412.775V297.563C207.201 287.405 198.966 279.17 188.808 279.17Z" fill="#D19500"/>
<path d="M183.534 231.362H125.516C123.273 231.362 121.436 229.525 121.436 227.281C121.436 225.037 123.273 223.2 125.516 223.2H183.534C185.778 223.2 187.615 225.037 187.615 227.281C187.615 229.525 185.778 231.362 183.534 231.362Z" fill="#E5B14A"/>
<g style="mix-blend-mode:multiply">
<path d="M136.079 231.361H130.541V239.523H136.079V231.361Z" fill="#BE9400"/>
</g>
<g style="mix-blend-mode:multiply">
<path d="M178.503 231.361H172.965V239.523H178.503V231.361Z" fill="#BE9400"/>
</g>
<path d="M101.993 304.832C101.993 304.832 100.536 282.971 121.262 282.971H190.678C190.678 282.971 207.059 282.665 207.059 304.832" stroke="#9A6E01" stroke-width="0.881622" stroke-miterlimit="10"/>
<path d="M123.082 434.578H119.439V452.802H123.082V434.578Z" fill="#FFE394"/>
<path d="M121.26 461.798C125.969 461.798 129.786 457.981 129.786 453.272C129.786 448.563 125.969 444.746 121.26 444.746C116.552 444.746 112.734 448.563 112.734 453.272C112.734 457.981 116.552 461.798 121.26 461.798Z" fill="#614000"/>
<path d="M121.26 457.913C123.822 457.913 125.9 455.835 125.9 453.272C125.9 450.709 123.822 448.632 121.26 448.632C118.697 448.632 116.619 450.709 116.619 453.272C116.619 455.835 118.697 457.913 121.26 457.913Z" fill="white"/>
<path d="M188.998 434.578H185.355V452.802H188.998V434.578Z" fill="#FFE394"/>
<path d="M187.176 461.798C191.885 461.798 195.702 457.981 195.702 453.272C195.702 448.563 191.885 444.746 187.176 444.746C182.468 444.746 178.65 448.563 178.65 453.272C178.65 457.981 182.468 461.798 187.176 461.798Z" fill="#E5B14A"/>
<path d="M187.176 457.913C189.738 457.913 191.816 455.835 191.816 453.272C191.816 450.709 189.738 448.632 187.176 448.632C184.613 448.632 182.535 450.709 182.535 453.272C182.535 455.835 184.613 457.913 187.176 457.913Z" fill="white"/>
<path d="M188.808 288.704H120.242C110.084 288.704 101.85 296.939 101.85 307.097V422.31C101.85 432.467 110.084 440.702 120.242 440.702H188.808C198.966 440.702 207.201 432.467 207.201 422.31V307.097C207.201 296.939 198.966 288.704 188.808 288.704Z" fill="#E5B14A"/>
<path d="M188.808 440.702C198.965 440.702 207.201 432.467 207.201 422.31V411.435C207.201 422.336 198.363 431.173 187.462 431.173H178.139V440.708H188.803L188.808 440.702Z" fill="#FFE394"/>
<path d="M120.242 440.702C110.085 440.702 101.85 432.467 101.85 422.31V411.435C101.85 422.336 110.687 431.173 121.588 431.173H130.911V440.708H120.248L120.242 440.702Z" fill="#FFE394"/>
<path d="M118.373 420.082C116.446 420.082 114.873 418.508 114.873 416.582V329.612C114.873 327.686 116.446 326.112 118.373 326.112C120.3 326.112 121.873 327.686 121.873 329.612V416.582C121.873 418.508 120.3 420.082 118.373 420.082Z" fill="#D19500"/>
<path d="M116.626 416.587V329.618C116.626 327.998 117.745 326.636 119.249 326.245C118.97 326.171 118.679 326.118 118.373 326.118C116.446 326.118 114.873 327.691 114.873 329.618V416.587C114.873 418.514 116.446 420.088 118.373 420.088C118.679 420.088 118.97 420.035 119.249 419.961C117.75 419.57 116.626 418.208 116.626 416.587Z" fill="#FFE394"/>
<path d="M136.449 420.082C134.522 420.082 132.949 418.508 132.949 416.582V329.612C132.949 327.686 134.522 326.112 136.449 326.112C138.376 326.112 139.949 327.686 139.949 329.612V416.582C139.949 418.508 138.376 420.082 136.449 420.082Z" fill="#D19500"/>
<path d="M154.525 420.082C152.599 420.082 151.025 418.508 151.025 416.582V329.612C151.025 327.686 152.599 326.112 154.525 326.112C156.447 326.112 158.026 327.686 158.026 329.612V416.582C158.026 418.508 156.452 420.082 154.525 420.082Z" fill="#D19500"/>
<path d="M172.602 420.082C170.68 420.082 169.102 418.508 169.102 416.582V329.612C169.102 327.686 170.675 326.112 172.602 326.112C174.523 326.112 176.102 327.686 176.102 329.612V416.582C176.102 418.508 174.529 420.082 172.602 420.082Z" fill="#D19500"/>
<path d="M190.678 420.082C188.756 420.082 187.178 418.508 187.178 416.582V329.612C187.178 327.686 188.751 326.112 190.678 326.112C192.605 326.112 194.178 327.686 194.178 329.612V416.582C194.178 418.508 192.605 420.082 190.678 420.082Z" fill="#D19500"/>
<path d="M184.849 298.133H124.207C119.076 298.133 114.879 302.33 114.879 307.461C114.879 312.592 119.076 316.789 124.207 316.789H184.849C189.98 316.789 194.177 312.592 194.177 307.461C194.177 302.33 189.98 298.133 184.849 298.133Z" fill="#D19500"/>
<path d="M186.67 314.968H126.029C120.897 314.968 116.7 310.771 116.7 305.64C116.7 303.539 117.413 301.596 118.601 300.033C116.347 301.738 114.879 304.436 114.879 307.466C114.879 312.598 119.076 316.795 124.207 316.795H184.849C187.879 316.795 190.572 315.327 192.282 313.073C190.72 314.261 188.777 314.973 186.676 314.973L186.67 314.968Z" fill="#FFE394"/>
<path d="M134.702 416.587V329.618C134.702 327.998 135.821 326.636 137.326 326.245C137.046 326.171 136.756 326.118 136.449 326.118C134.522 326.118 132.949 327.691 132.949 329.618V416.587C132.949 418.514 134.522 420.088 136.449 420.088C136.756 420.088 137.046 420.035 137.326 419.961C135.826 419.57 134.702 418.208 134.702 416.587Z" fill="#FFE394"/>
<path d="M152.778 416.587V329.618C152.778 327.998 153.897 326.636 155.402 326.245C155.122 326.171 154.832 326.118 154.525 326.118C152.599 326.118 151.025 327.691 151.025 329.618V416.587C151.025 418.514 152.599 420.088 154.525 420.088C154.832 420.088 155.117 420.035 155.402 419.961C153.903 419.57 152.778 418.208 152.778 416.587Z" fill="#FFE394"/>
<path d="M170.854 416.587V329.618C170.854 327.998 171.973 326.636 173.478 326.245C173.198 326.171 172.908 326.118 172.602 326.118C170.68 326.118 169.102 327.691 169.102 329.618V416.587C169.102 418.514 170.675 420.088 172.602 420.088C172.908 420.088 173.198 420.035 173.478 419.961C171.979 419.57 170.854 418.208 170.854 416.587Z" fill="#FFE394"/>
<path d="M188.93 416.587V329.618C188.93 327.998 190.05 326.636 191.554 326.245C191.274 326.171 190.984 326.118 190.678 326.118C188.756 326.118 187.178 327.691 187.178 329.618V416.587C187.178 418.514 188.751 420.088 190.678 420.088C190.984 420.088 191.274 420.035 191.554 419.961C190.055 419.57 188.93 418.208 188.93 416.587Z" fill="#FFE394"/>
<path d="M261.04 446.16H228.509V427.599H261.04C266.16 427.599 270.32 431.759 270.32 436.879C270.32 442 266.16 446.16 261.04 446.16Z" fill="#AA7A00"/>
<path d="M261.04 446.16H228.509V427.599H261.04C266.16 427.599 270.32 431.759 270.32 436.879C270.32 442 266.16 446.16 261.04 446.16Z" fill="#FFE394"/>
<path d="M229.067 444.64H188.328V429.905H229.067C232.926 429.905 236.057 433.036 236.057 436.895V437.645C236.057 441.504 232.926 444.634 229.067 444.634V444.64Z" fill="#F9F3E9"/>
<path d="M229.067 429.9C232.926 429.9 236.051 433.02 236.057 436.879C235.386 433.722 232.588 431.357 229.231 431.357H188.322V429.906H229.062L229.067 429.9Z" fill="#D6C7B4"/>
<path d="M258.078 436.879C258.078 431.753 253.923 427.599 248.797 427.599H254.931C260.057 427.599 264.212 431.753 264.212 436.879C264.212 442.006 260.057 446.16 254.931 446.16H248.797C253.923 446.16 258.078 442.006 258.078 436.879Z" fill="#D19500"/>
<path d="M188.328 433.39H234.157" stroke="#D3CABE" stroke-width="0.327309" stroke-miterlimit="10"/>
<path d="M188.328 436.193H235.212" stroke="#D3CABE" stroke-width="0.327309" stroke-miterlimit="10"/>
<path d="M188.328 438.996H235.212" stroke="#D3CABE" stroke-width="0.327309" stroke-miterlimit="10"/>
<path d="M188.328 441.794H234.157" stroke="#D3CABE" stroke-width="0.327309" stroke-miterlimit="10"/>
<path d="M227.78 443.859C231.633 443.859 234.759 440.733 234.759 436.879C234.759 433.026 231.633 429.9 227.78 429.9H186.803V427.599H227.97C233.096 427.599 237.251 431.753 237.251 436.879C237.251 442.006 233.096 446.16 227.97 446.16H186.803V443.859H227.78Z" fill="#D19500"/>
<g style="mix-blend-mode:overlay" opacity="0.2">
<path d="M242.688 427.599H261.038C266.164 427.599 270.319 431.753 270.319 436.879C270.319 442.006 266.164 446.16 261.038 446.16C261.038 428.918 242.688 427.599 242.688 427.599Z" fill="#FEFEFE"/>
</g>
<g style="mix-blend-mode:multiply" opacity="0.16">
<path d="M186.803 427.599V429.9H188.328V431.357V443.859H186.803V446.16H192.979L223.62 427.599H186.803Z" fill="#1B2942"/>
</g>
<path d="M179.983 446.039H219.155V468.386H179.983C173.817 468.386 168.812 463.381 168.812 457.215C168.812 451.049 173.817 446.044 179.983 446.044V446.039Z" fill="#FFE394"/>
<path d="M179.983 446.039H219.155V468.386H179.983C173.817 468.386 168.812 463.381 168.812 457.215C168.812 451.049 173.817 446.044 179.983 446.044V446.039Z" fill="#D19500"/>
<path d="M218.479 447.876H267.533V465.619H218.479C213.833 465.619 210.059 461.845 210.059 457.199V456.296C210.059 451.651 213.833 447.876 218.479 447.876Z" fill="#F9F3E9"/>
<path d="M218.479 465.614C213.833 465.614 210.069 461.855 210.059 457.215C210.866 461.016 214.24 463.867 218.278 463.867H267.533V465.619H218.479V465.614Z" fill="#D6C7B4"/>
<g style="mix-blend-mode:multiply" opacity="0.16">
<path d="M183.552 457.21C183.552 463.381 188.556 468.381 194.722 468.381H187.337C181.165 468.381 176.166 463.376 176.166 457.21C176.166 451.038 181.171 446.039 187.337 446.039H194.722C188.551 446.039 183.552 451.044 183.552 457.21Z" fill="#1B2942"/>
</g>
<path d="M267.533 461.412H212.35" stroke="#D3CABE" stroke-width="0.395938" stroke-miterlimit="10"/>
<path d="M267.532 458.039H211.082" stroke="#D3CABE" stroke-width="0.395938" stroke-miterlimit="10"/>
<path d="M267.532 454.665H211.082" stroke="#D3CABE" stroke-width="0.395938" stroke-miterlimit="10"/>
<path d="M267.533 451.292H212.35" stroke="#D3CABE" stroke-width="0.395938" stroke-miterlimit="10"/>
<path d="M220.032 448.811C215.392 448.811 211.627 452.575 211.627 457.215C211.627 461.856 215.392 465.62 220.032 465.62H269.371V468.391H219.8C213.628 468.391 208.629 463.387 208.629 457.221C208.629 451.049 213.634 446.05 219.8 446.05H269.371V448.821H220.032V448.811Z" fill="#996D00"/>
<g style="mix-blend-mode:multiply" opacity="0.16">
<path d="M202.077 468.385H179.983C173.812 468.385 168.812 463.381 168.812 457.215C168.812 451.043 173.817 446.044 179.983 446.044C179.983 466.802 202.077 468.391 202.077 468.391V468.385Z" fill="#1B2942"/>
</g>
<g style="mix-blend-mode:multiply" opacity="0.16">
<path d="M269.364 468.386V465.614H267.533V463.862V448.811H269.364V446.039H261.931L225.035 468.386H269.364Z" fill="#1B2942"/>
</g>
<path d="M198.376 427.578H250.518V426.285H243.011V418.788H250.518V417.495H198.376C195.62 417.495 193.387 419.728 193.387 422.484V422.584C193.387 425.34 195.62 427.573 198.376 427.573V427.578Z" fill="#C89C00"/>
<path d="M211.489 427.578H263.631V426.285H256.124V418.788H263.631V417.495H211.489C208.733 417.495 206.5 419.728 206.5 422.484V422.584C206.5 425.34 208.733 427.573 211.489 427.573V427.578Z" fill="#B48500"/>
<path d="M211.727 418.788H235.811V426.285H211.727C209.721 426.285 208.09 424.622 208.09 422.573V422.499C208.09 420.451 209.716 418.788 211.727 418.788Z" fill="#F9F3E9"/>
<path d="M234.521 422.536C234.521 425.287 235.815 426.285 235.815 426.285H262.506C262.506 426.285 260.474 422.642 262.506 418.788H235.815C235.815 418.788 234.521 419.786 234.521 422.536Z" fill="#EAE1D3"/>
<path d="M221.615 423.069H209.33V423.307H221.615V423.069Z" fill="url(#paint0_linear_445_10827)"/>
<path d="M261.927 424.77H208.797" stroke="#D3CABE" stroke-width="0.184771" stroke-miterlimit="10"/>
<path d="M261.925 423.207H208.146" stroke="#D3CABE" stroke-width="0.184771" stroke-miterlimit="10"/>
<path d="M261.926 421.639H208.189" stroke="#D3CABE" stroke-width="0.184771" stroke-miterlimit="10"/>
<path d="M261.927 420.076H208.977" stroke="#D3CABE" stroke-width="0.184771" stroke-miterlimit="10"/>
<path d="M216.862 423.233H213.9V429.373H216.862V423.233Z" fill="#FDB03E"/>
<path d="M427.048 86.7751L422.065 88.0263L420.718 86.659C420.238 86.1733 419.457 86.168 418.966 86.6484C418.48 87.1288 418.475 87.9102 418.955 88.4011L419.277 88.7284L417.203 89.2511L415.973 88.0052C415.492 87.5195 414.711 87.5142 414.22 87.9946C413.734 88.475 413.729 89.2563 414.209 89.7473L414.415 89.9532L408.941 91.3311C404.126 86.3317 399.591 82.5993 398.087 84.3626C396.302 85.8407 399.977 90.423 404.913 95.3063L403.466 100.765L403.26 100.559C402.78 100.073 401.999 100.068 401.508 100.549C401.022 101.029 401.017 101.81 401.497 102.301L402.727 103.547L402.178 105.617L401.856 105.289C401.376 104.804 400.594 104.798 400.103 105.279C399.618 105.759 399.612 106.54 400.093 107.031L401.439 108.399L400.119 113.366C400.029 113.709 400.124 114.068 400.373 114.322L401.566 115.531C401.787 115.753 402.157 115.71 402.321 115.446L411.221 101.193C414.542 104.138 417.688 106.746 419.605 108.325L419.594 116.84L420.909 118.176L423.627 111.102C424.203 111.244 424.456 111.102 424.456 111.102C424.456 111.102 424.604 110.848 424.467 110.273L431.578 107.649L430.263 106.313L421.748 106.213C420.196 104.276 417.63 101.098 414.727 97.7347L429.097 89.0188C429.366 88.8551 429.408 88.4856 429.192 88.2639L427.999 87.0549C427.75 86.8015 427.391 86.7012 427.048 86.791V86.7751Z" fill="#C8A13E"/>
<path d="M24.0715 356.251L27.5769 355.892L28.3582 356.953C28.638 357.333 29.1659 357.412 29.546 357.132C29.9261 356.853 30.0053 356.325 29.7255 355.945L29.5407 355.691L30.9978 355.543L31.7105 356.51C31.9903 356.89 32.5182 356.969 32.8983 356.689C33.2784 356.409 33.3576 355.881 33.0778 355.501L32.9616 355.338L36.8154 354.942C39.5923 358.811 42.3005 361.794 43.4989 360.743C44.8556 359.915 42.8126 356.441 39.946 352.64L41.4664 349.076L41.5825 349.24C41.8623 349.62 42.3902 349.699 42.7703 349.42C43.1504 349.14 43.2296 348.612 42.9498 348.232L42.2371 347.266L42.8126 345.914L42.9973 346.168C43.2771 346.548 43.8051 346.627 44.1852 346.347C44.5653 346.067 44.6444 345.539 44.3646 345.159L43.5833 344.098L44.9665 340.857C45.0615 340.635 45.0298 340.376 44.8873 340.181L44.1957 339.247C44.069 339.072 43.8156 339.067 43.6731 339.231L36.2242 348.031C34.2603 345.703 32.3809 343.623 31.2353 342.361L32.0853 336.581L31.3251 335.546L28.7805 340.081C28.4057 339.928 28.2157 340.002 28.2157 340.002C28.2157 340.002 28.089 340.16 28.1259 340.566L23.0421 341.649L23.8023 342.683L29.5724 343.591C30.4329 345.059 31.8636 347.472 33.5054 350.037L22.889 354.535C22.6936 354.62 22.625 354.862 22.7517 355.037L23.4433 355.971C23.5858 356.166 23.8234 356.272 24.0609 356.246L24.0715 356.251Z" fill="#C8A13E"/>
<path d="M341.668 108.291C341.668 108.291 334.477 111.931 332.308 116.766C330.139 121.601 300.787 217.67 302.789 223.169C304.792 228.668 331.168 237.696 331.168 237.696L344.146 137.611L341.668 108.28V108.291Z" fill="#383426"/>
<path d="M356.928 223.779L310.75 212.565C307.89 211.871 305.004 213.629 304.309 216.489L296.001 250.7L347.361 263.173L356.928 223.779Z" fill="#473C1E"/>
<path d="M298.135 251.215L302.992 252.399L311.356 217.956C311.677 216.618 310.858 215.268 309.52 214.936C308.181 214.615 306.831 215.434 306.499 216.772L298.135 251.215Z" fill="white"/>
<path d="M304.947 251.724C304.947 251.724 309.373 245.362 311.486 245.075C313.61 244.798 312.548 247.653 312.548 247.653C312.548 247.653 313.898 244.577 315.281 244.975C316.94 245.451 315.823 248.449 315.823 248.449C315.823 248.449 317.029 245.982 318.235 246.413C319.485 246.867 318.467 250.33 318.467 250.33C318.467 250.33 319.651 248.748 320.315 249.533C320.979 250.308 318.954 257.721 316.907 259.436C314.86 261.162 305.423 258.263 303.531 257.145C302.989 256.825 302.159 256.117 302.126 253.229C302.126 252.62 302.579 252.1 303.188 252.045L304.792 251.89L304.925 251.702L304.947 251.724Z" fill="#E8A374"/>
<path opacity="0.2" d="M312.713 247.719C312.713 247.719 312.713 247.719 312.713 247.73L310.091 252.985C310.057 253.052 309.958 253.085 309.88 253.041C309.803 253.008 309.759 252.908 309.803 252.842L312.425 247.586C312.458 247.52 312.558 247.487 312.635 247.531C312.713 247.564 312.746 247.642 312.724 247.719H312.713Z" fill="#392A00"/>
<path opacity="0.2" d="M315.934 248.66L313.821 253.904C313.787 253.982 313.699 254.015 313.621 253.982C313.533 253.948 313.5 253.882 313.522 253.794L315.635 248.549C315.668 248.472 315.757 248.439 315.834 248.472C315.912 248.505 315.956 248.582 315.934 248.66Z" fill="#392A00"/>
<path opacity="0.2" d="M318.579 250.585L317.118 254.523C317.096 254.601 316.997 254.634 316.919 254.601C316.831 254.568 316.786 254.49 316.82 254.413L318.28 250.474C318.302 250.397 318.402 250.363 318.479 250.397C318.568 250.43 318.612 250.507 318.579 250.585Z" fill="#392A00"/>
<path opacity="0.3" d="M331.156 237.706L341.412 140.332C341.412 140.332 327.936 200.819 329.64 218.4C331.344 235.98 331.156 237.706 331.156 237.706Z" fill="#392A00"/>
<path d="M385.436 99.7176C385.79 92.9132 386.874 81.6611 389.164 75.244L389.784 69.1477C394.419 67.986 399.664 69.8447 402.529 73.6729C404.875 76.804 405.572 80.8423 405.959 84.7369C406.347 88.6314 406.501 92.6255 407.984 96.2435C409.467 99.8614 412.664 103.092 416.559 103.302C415.862 105.803 413.284 107.407 410.717 107.761C408.15 108.115 405.55 107.473 403.038 106.843C403.558 109.919 406.114 112.552 409.179 113.138C407.862 114.754 405.738 115.539 403.669 115.672C401.589 115.805 399.531 115.384 397.484 114.953C394.088 114.234 390.459 113.393 388.124 110.826C385.491 107.927 385.225 103.623 385.436 99.7176Z" fill="#383426"/>
<path opacity="0.3" d="M396.499 69.4349L387.404 82.1364L387.039 84.2385C387.039 84.2385 397.605 78.4189 398.258 70.143C397.638 69.8332 397.052 69.5898 396.51 69.4238L396.499 69.4349Z" fill="#392A00"/>
<path d="M331.585 36.4428L332.06 34.2521L378.95 23L421.203 53.7469L420.727 55.9376L331.585 36.4428Z" fill="#B1944A"/>
<path d="M331.585 36.4421C331.585 36.4421 374.336 63.2613 374.646 63.0068C374.956 62.7524 420.717 55.9369 420.717 55.9369L378.662 25.002L331.596 36.4311L331.585 36.4421Z" fill="#473C1E"/>
<path opacity="0.4" d="M331.585 36.4421C331.585 36.4421 374.336 63.2613 374.646 63.0068C374.956 62.7524 420.717 55.9369 420.717 55.9369L378.662 25.002L331.596 36.4311L331.585 36.4421Z" fill="#383426"/>
<path d="M346.754 49.1994C347.915 42.6827 348.07 30.9881 351.788 28.4212C352.452 27.9676 353.381 28.3106 353.646 29.074" stroke="#B1944A" stroke-width="0.829801" stroke-miterlimit="10"/>
<path d="M347.904 50.4171C347.661 51.081 346.93 51.424 346.266 51.1916C345.603 50.9482 345.26 50.218 345.492 49.5541C345.724 48.8903 346.466 48.5473 347.129 48.7797C347.793 49.0231 348.136 49.7533 347.904 50.4171Z" fill="#383426"/>
<path d="M346.422 50.107C345.027 50.9811 344.441 52.696 344.076 54.3003C343.7 55.9046 343.39 57.6195 342.284 58.8365C341.963 59.1906 341.564 59.5114 341.41 59.9651C341.255 60.4187 341.509 61.0493 341.985 61.0493C342.815 60.2749 343.49 59.3233 343.943 58.2833C343.722 59.8102 343.324 61.3038 342.781 62.7421C343.434 63.0851 344.109 63.4392 344.839 63.5387C345.57 63.6383 346.388 63.4502 346.853 62.8749C347.107 62.554 347.229 62.1447 347.34 61.7574C348.38 57.885 348.28 53.7139 347.052 49.8857" fill="#383426"/>
<path opacity="0.3" d="M404.387 58.527L399.109 50.6162L397.14 59.5891L404.387 58.527Z" fill="#392A00"/>
<path d="M366.203 50.982C366.203 50.982 355.836 69.6692 355.338 75.4778C351.366 78.8523 348.545 72.0037 348.699 62.8205C348.821 55.3081 352.738 47.1871 359.243 44.2662C368.371 40.1614 366.203 50.971 366.203 50.971V50.982Z" fill="#383426"/>
<path d="M368.148 105.007C369.885 103.27 369.465 101.19 369.144 98.6566C368.912 96.7204 368.292 94.6957 367.54 92.7373L370.129 89.916L383.605 77.2588C382.963 86.0104 381.89 101.046 388.572 106.047L360.392 123.96L363.003 106.811C363.003 106.811 365.603 106.424 368.148 104.996V105.007Z" fill="#E8A374"/>
<path opacity="0.2" d="M369.22 99.4086C372.871 97.4171 376.932 93.8766 376.611 89.6502C376.467 87.8689 376.146 86.1761 375.759 85.0918L368.147 94.4409C368.689 96.012 368.866 97.0409 369.22 99.4086Z" fill="#392A00"/>
<path d="M387.809 63.3178C386.105 76.6389 385.663 82.2926 378.515 89.0527C367.761 99.2095 351.939 95.0937 349.671 81.7505C347.636 69.746 350.767 49.9857 364.088 44.8409C377.21 39.7736 389.524 50.0078 387.82 63.3289L387.809 63.3178Z" fill="#E8A374"/>
<path d="M369.685 68.0094C369.685 69.2596 368.955 70.3328 368.081 70.3881C367.207 70.4434 366.499 69.4809 366.51 68.2306C366.51 66.9804 367.24 65.9072 368.114 65.8519C368.988 65.7966 369.696 66.7591 369.685 68.0094Z" fill="#383426"/>
<path d="M356.975 67.0359C357.031 68.253 356.378 69.3262 355.504 69.4368C354.63 69.5475 353.877 68.6513 353.822 67.4453C353.767 66.2282 354.419 65.155 355.294 65.0444C356.168 64.9338 356.92 65.8299 356.975 67.0359Z" fill="#383426"/>
<path d="M373.236 63.7162C373.07 63.7273 372.893 63.672 372.772 63.5392C370.802 61.5366 368.457 62.1009 368.424 62.1119C368.081 62.2004 367.738 61.9902 367.671 61.6362C367.605 61.2821 367.848 60.9281 368.202 60.8396C368.324 60.8064 371.267 60.0983 373.712 62.5877C373.956 62.8311 373.944 63.2515 373.679 63.5171C373.557 63.6498 373.391 63.7162 373.236 63.7273V63.7162Z" fill="#383426"/>
<path d="M352.538 60.9722C352.383 60.9169 352.251 60.8173 352.173 60.6624C352.018 60.3526 352.173 59.9654 352.505 59.7994C355.88 58.173 358.502 59.5781 358.612 59.6445C358.922 59.8215 359.022 60.2088 358.823 60.5075C358.624 60.8173 358.214 60.9169 357.904 60.7509C357.805 60.6956 355.747 59.6334 353.069 60.9279C352.892 61.0164 352.704 61.0164 352.538 60.9611V60.9722Z" fill="#383426"/>
<path d="M353.632 48.8019C356.454 42.9269 367.971 37.4612 381.215 43.1371C393.175 48.2487 408.886 69.1154 383.162 85.0918C381.16 86.331 382.598 72.1027 381.458 70.4541C374.588 60.574 364.995 52.9066 353.665 48.824H353.621L353.632 48.8019Z" fill="#383426"/>
<path d="M391.46 74.3591C389.778 77.0477 387.156 78.6741 384.777 79.172C381.203 79.9354 379.588 74.1821 380.927 70.6748C382.133 67.5216 385.684 65.5411 389.103 66.3599C392.466 67.1675 393.385 71.2833 391.46 74.3481V74.3591Z" fill="#E8A374"/>
<path d="M360.779 66.0059C360.779 66.0059 358.511 70.9293 356.033 73.9609C355.601 74.492 355.823 75.2996 356.464 75.5541C358.091 76.2179 360.038 75.7422 360.038 75.7422L360.779 66.0059Z" fill="#E28E64"/>
<path d="M368.383 65.8068L365.285 65.2314C365.285 65.2314 367.066 67.4332 368.383 65.8068Z" fill="#383426"/>
<path d="M355.736 65.0546L352.605 64.6562C354.132 66.3269 355.338 65.5967 355.736 65.0546Z" fill="#383426"/>
<path opacity="0.2" d="M386.539 69.6904C387.667 69.2589 388.851 70.0002 389.216 70.9406C389.67 72.0692 389.039 74.7024 385.576 75.5322" stroke="#392A00" stroke-width="0.553201" stroke-linecap="round" stroke-linejoin="round"/>
<path d="M358.815 80.1013C359.821 81.5728 361.05 84.4494 361.05 84.4494C361.326 84.3831 361.614 84.3167 361.89 84.2392C365.663 83.2656 367.102 81.5728 367.544 79.9796C367.788 79.1055 367.71 78.2646 367.566 77.6008C367.411 76.8263 367.124 76.3174 367.124 76.3174C365.431 78.0323 361.979 79.2051 360.109 79.7583C359.324 80.0017 358.826 80.1123 358.826 80.1123L358.815 80.1013Z" fill="#383426"/>
<path d="M360.098 79.758L360.784 81.0193C364.335 80.101 366.714 78.9724 367.555 77.6116C367.4 76.8371 367.112 76.3281 367.112 76.3281C365.419 78.043 361.967 79.2158 360.098 79.769V79.758Z" fill="white"/>
<path d="M361.879 84.2391C365.652 83.2655 367.091 81.5727 367.533 79.9795C366.261 80.3557 364.767 80.9642 363.55 81.8825C362.621 82.5906 362.134 83.4315 361.879 84.2281V84.2391Z" fill="#FB504E"/>
<path d="M349.821 56.6457C349.555 57.0661 351.989 42.6054 351.989 42.6054C351.989 42.6054 351.856 33.201 374.593 35.4802C374.593 35.4802 400.416 39.5518 399.144 52.6737L397.13 65.1982C397.13 65.1982 362.954 35.4138 349.832 56.6567L349.821 56.6457Z" fill="#473C1E"/>
<path opacity="0.2" d="M351.989 42.6054C352.482 42.6884 352.482 42.6885 352.482 42.6886L352.482 42.6891L352.482 42.691L352.48 42.6989L352.475 42.7298L352.455 42.8505L352.378 43.3085C352.312 43.7029 352.218 44.2659 352.106 44.9403C351.882 46.289 351.586 48.0826 351.299 49.8629C351.011 51.6438 350.732 53.4091 350.542 54.7021C350.54 54.7189 350.537 54.7356 350.535 54.7523C353.804 50.4818 358.094 48.7092 362.739 48.5299C367.905 48.3303 373.493 50.0995 378.614 52.5089C383.745 54.9222 388.455 58.0003 391.878 60.4708C393.59 61.7069 394.984 62.7929 395.95 63.5704C396.275 63.8326 396.553 64.0597 396.777 64.2458L398.648 52.61C398.942 49.5256 397.656 46.9557 395.492 44.8061C393.315 42.6436 390.273 40.9346 387.151 39.6169C384.035 38.3016 380.875 37.3901 378.489 36.8071C377.297 36.5159 376.302 36.3073 375.604 36.1716C375.256 36.1037 374.982 36.0542 374.796 36.0217C374.703 36.0054 374.632 35.9934 374.585 35.9855L374.532 35.9768L374.528 35.9763C363.219 34.8446 357.722 36.6333 355.061 38.5909C353.735 39.5665 353.097 40.5948 352.787 41.3594C352.631 41.7437 352.557 42.0654 352.521 42.2854C352.504 42.3955 352.496 42.4799 352.492 42.5338C352.49 42.5608 352.49 42.58 352.489 42.591L352.489 42.601L352.489 42.6012L352.489 42.6014V42.6017L352.49 42.6437L352.482 42.6884L351.989 42.6054Z" fill="#515151" stroke="#B1944A"/>
<path d="M397.793 61.0044C397.793 61.0044 381.706 44.2424 361.879 45.8577C361.879 45.8577 351.568 46.6654 350.24 53.3702L349.819 56.6341C349.819 56.6341 352.696 48.3471 365.287 49.188C377.878 50.0399 397.118 65.1755 397.118 65.1755L397.793 60.9933V61.0044Z" fill="#473C1E"/>
<path opacity="0.3" d="M403.004 106.389L389.76 101.742L385.656 96.2539L384.992 103.069L389.196 108.247L403.502 110.405L403.004 106.389Z" fill="#392A00"/>
<path d="M457.539 136.838L456.234 150.17L446.187 138.077L449.042 131.405L457.539 136.838Z" fill="#E8A374"/>
<path d="M418.108 111.467C418.108 111.467 419.79 110.814 421.671 112.54C423.562 114.266 440.667 147.779 440.667 147.779L446.498 131.382L470.363 172.396C470.363 172.396 456.611 200.532 442.449 201.782C428.287 203.044 414.457 170.659 414.457 170.659L412.709 131.116L418.119 111.467H418.108Z" fill="#383426"/>
<path d="M441.012 147.37C437.836 154.374 437.029 162.528 438.766 170.018C437.792 162.384 438.556 154.661 441.012 147.37Z" fill="#392A00"/>
<path d="M412.209 427.477L410.981 429.137L408.547 428.119L407.031 435.399L396.764 449.318C396.764 449.318 392.858 449.926 395.934 442.016C396.078 441.65 396.188 441.263 396.255 440.821C397.173 436.085 395.159 427.024 395.159 427.024L400.791 419.39C400.791 419.39 401.377 419.39 402.373 419.556C404.708 419.932 409.366 421.038 412.198 427.477H412.209Z" fill="#473C1E"/>
<path opacity="0.2" d="M412.209 427.477L410.981 429.137L408.547 428.119L407.031 435.399L396.764 449.318C396.764 449.318 392.858 449.926 395.934 442.016C396.078 441.65 396.188 441.263 396.255 440.821C397.173 436.085 395.159 427.024 395.159 427.024L400.791 419.39C400.791 419.39 401.377 419.39 402.373 419.556C404.708 419.932 409.366 421.038 412.198 427.477H412.209Z" fill="#392A00"/>
<path d="M402.384 419.555L402.406 419.566C400.514 419.765 402.174 427.92 401.41 432.489C400.725 436.572 398.91 440.422 396.255 440.82C397.173 436.085 393.876 425.308 393.876 425.308L398.401 419.168C398.401 419.168 401.377 419.389 402.373 419.555H402.384Z" fill="#E28E64"/>
<path d="M400.206 449.153H398.115L397.54 446.619L390.614 449.673H373.077C373.077 449.673 370.289 446.929 378.642 444.738C379.019 444.638 379.417 444.495 379.826 444.296C384.285 442.249 390.614 435.345 390.614 435.345H400.239C400.239 435.345 400.571 435.82 401.025 436.706C402.076 438.775 403.891 443.123 400.206 449.142V449.153Z" fill="#473C1E"/>
<path d="M401.024 436.716V436.749C399.752 435.366 393.976 441.452 389.739 443.521C385.955 445.368 381.706 446.176 379.825 444.306C384.284 442.259 391.354 432.877 391.354 432.877L399.088 433.109C399.088 433.109 400.582 435.831 401.035 436.727L401.024 436.716Z" fill="#E8A374"/>
<path d="M380.555 354.079C375.787 341.3 369.934 328.742 362.919 318.574C391.619 238.637 390.723 202.867 390.723 202.867L356.159 202.845L352.475 216.21C352.475 216.21 343.845 249.491 341.322 268.598L334.108 311.073V311.195C333.622 320.013 335.624 328.775 339.917 336.531C344.608 345.006 352.917 355.075 357.476 364.202C363.472 376.262 369.137 388.344 373.972 399.154C379.062 410.55 383.211 420.507 385.8 427.422C388.245 427.688 395.635 423.384 397.76 419.467C397.76 419.467 392.526 386.131 380.544 354.068L380.555 354.079Z" fill="#383426"/>
<path opacity="0.3" d="M380.555 354.079C375.787 341.3 369.934 328.742 362.919 318.574C391.619 238.637 390.723 202.867 390.723 202.867L356.159 202.845L352.475 216.21C352.475 216.21 343.845 249.491 341.322 268.598L334.108 311.073V311.195C333.622 320.013 335.624 328.775 339.917 336.531C344.608 345.006 352.917 355.075 357.476 364.202C363.472 376.262 369.137 388.344 373.972 399.154C379.062 410.55 383.211 420.507 385.8 427.422C388.245 427.688 395.635 423.384 397.76 419.467C397.76 419.467 392.526 386.131 380.544 354.068L380.555 354.079Z" fill="white"/>
<path opacity="0.2" d="M373.972 399.154C379.062 410.55 383.211 420.507 385.8 427.434C388.245 427.699 395.635 423.395 397.76 419.479C397.76 419.479 392.526 386.143 380.544 354.079C378.11 367.312 375.388 384.04 373.961 399.154H373.972Z" fill="#392A00"/>
<path d="M364.879 203.596C364.879 203.596 378.034 291.898 379.56 311.78C379.56 311.78 387.681 408.214 386.232 432.456L404.355 433.308C404.355 433.308 416.547 360.263 410.385 313.396C409.854 307.288 415.463 267.436 416.348 251.559C418.484 213.366 402.518 202.866 402.518 202.866L364.879 203.596Z" fill="#383426"/>
<g opacity="0.3">
<path d="M364.879 203.596C364.879 203.596 378.034 291.898 379.56 311.78C379.56 311.78 387.681 408.214 386.232 432.456L404.355 433.308C404.355 433.308 416.547 360.263 410.385 313.396C409.854 307.288 415.463 267.436 416.348 251.559C418.484 213.366 402.518 202.866 402.518 202.866L364.879 203.596Z" fill="white"/>
</g>
<path d="M393.334 105.072L390.347 104.33L385.257 97.5371L377.203 103.357L369.823 98.9976L366.515 103.733L359.622 104.308L377.059 137.622L393.334 105.072Z" fill="#473C1E"/>
<path opacity="0.8" d="M393.334 105.072L390.347 104.33L385.257 97.5371L377.203 103.357L369.823 98.9976L366.515 103.733L359.622 104.308L377.059 137.622L393.334 105.072Z" fill="white"/>
<path opacity="0.2" d="M390.348 104.33L382.437 111.19L377.193 103.821L372.28 110.205L366.505 103.732C366.505 103.732 372.158 111.732 372.335 111.665C372.512 111.599 377.193 104.695 377.193 104.695L382.492 112.761L390.337 104.33H390.348Z" fill="#473C1E"/>
<path d="M420.155 111.921L392.937 104.375L375.334 132.621L363.164 103.069L341.655 108.28L341.401 140.322L320.711 336.841C320.711 336.841 357.4 349.1 383.909 346.931C410.418 344.763 428.973 340.492 428.973 340.492L416.548 187.543L420.155 111.921Z" fill="#383426"/>
<path d="M419.535 113.193C418.683 120.164 417.123 134.182 416.36 141.152L416.548 140.986C398.204 140.887 359.037 139.891 341.589 140.333C341.877 133.109 342.297 118.571 342.496 111.346C342.153 118.571 341.49 133.098 341.224 140.322V140.51H341.412C360.144 140.809 397.828 141.241 416.548 141.362H416.714L416.736 141.196C417.455 134.226 418.893 120.175 419.535 113.193Z" fill="#473C1E"/>
<path d="M395.581 141.562C395.205 143.985 395.205 146.419 395.581 148.842C395.957 146.419 395.957 143.985 395.581 141.562Z" fill="#473C1E"/>
<path d="M389.873 141.306C388.59 166.155 387.583 193.517 387.03 218.4C388.313 193.539 389.32 166.189 389.873 141.306Z" fill="#473C1E"/>
<path d="M369.062 140.333C368.697 158.821 368.697 179.157 369.062 197.634C369.427 179.146 369.427 158.81 369.062 140.333Z" fill="#473C1E"/>
<path d="M363.361 140.067C362.299 151.696 361.514 164.53 361.171 176.202C362.244 164.574 363.018 151.74 363.361 140.067Z" fill="#473C1E"/>
<path opacity="0.3" d="M416.549 141.174C416.527 142.701 417.091 176.203 417.091 176.203C417.091 176.203 419.647 168.9 419.901 163.468C420.432 151.751 416.549 141.174 416.549 141.174Z" fill="#473C1E"/>
<path d="M458.071 91.9397C454.917 91.7737 451.819 90.5567 449.396 88.5098C448.555 87.8017 447.748 86.8613 447.814 85.766C447.869 84.903 448.467 84.1838 449.098 83.5974C450.06 82.7123 451.2 82.0042 452.417 81.5284C453.446 81.1301 454.652 80.8978 455.614 81.4178C456.643 81.9821 457.086 83.1991 457.44 84.3166C457.96 85.9209 458.469 87.5251 458.989 89.1294C459.111 89.5056 459.232 89.9039 459.188 90.3022C459.133 90.7005 458.856 91.0878 458.458 91.1431C457.805 91.2205 457.44 90.4239 457.263 89.7822C456.853 88.3218 456.278 86.8613 455.183 85.7992C454.099 84.7481 452.395 84.2059 451.023 84.8366C450.647 85.0136 450.259 85.3566 450.348 85.766C450.403 86.0426 450.658 86.2196 450.89 86.3745C453.435 88.1005 455.99 89.8154 458.535 91.5414" fill="#473C1E"/>
<path d="M455.039 107.308C455.039 107.308 455.283 105.715 454.265 106.024C453.247 106.323 452.827 106.522 452.771 108.503C452.716 110.483 451.986 114.311 451.067 115.761C450.149 117.199 448.866 117.686 448.954 120.751C449.043 123.804 448.932 130.033 448.932 130.033V131.715L457.584 137.302C457.573 137.136 465.805 127.367 465.882 125.608C465.96 123.848 466.181 121.149 464.72 120.12C464.72 120.12 465.019 118.449 464.223 116.059C463.426 113.659 463.227 113.902 463.227 113.902C463.227 113.902 466.015 111.866 464.853 110.107C463.703 108.337 461.6 108.193 461.6 108.193L455.039 107.33V107.308Z" fill="#E8A374"/>
<path d="M460.13 60.6292L453.226 123.805L459.919 124.612L466.381 61.0607C466.381 61.0607 464.345 59.3348 460.119 60.6182L460.13 60.6292Z" fill="#473C1E"/>
<path opacity="0.8" d="M460.13 60.6292L453.226 123.805L459.919 124.612L466.381 61.0607C466.381 61.0607 464.345 59.3348 460.119 60.6182L460.13 60.6292Z" fill="white"/>
<path d="M456.677 92.2391C456.677 92.2391 459.199 96.1668 463.039 93.954L463.559 88.7982C463.559 88.7982 458.325 89.628 457.263 86.7734L456.666 92.228L456.677 92.2391Z" fill="#473C1E"/>
<path d="M462.532 108.47C462.532 108.569 458.029 108.713 458.726 111.081C459.423 113.449 463.859 112.088 463.859 112.088" fill="#E8A374"/>
<path d="M463.217 113.88C463.217 113.88 462.774 113.205 461.723 113.504C460.683 113.803 454.465 117.775 454.089 118.571C453.713 119.368 453.403 120.696 454.288 121.016L455.052 121.171C455.052 121.171 452.485 122.488 452.606 123.583C452.728 124.679 454.045 125.497 455.649 124.579C455.649 124.579 454.266 125.475 454.819 126.637C455.372 127.799 455.992 127.865 457.154 127.301C458.315 126.748 460.816 126.327 460.816 126.327L462.498 127.688" fill="#E8A374"/>
<path d="M461.846 119.013C461.624 118.482 460.972 118.228 460.396 118.283C459.821 118.338 459.301 118.637 458.803 118.925C457.586 119.633 456.358 120.352 455.141 121.06C455.141 121.06 452.386 122.277 452.541 123.284C452.707 124.291 453.514 125.541 455.263 124.855" stroke="#E28E64" stroke-width="0.553201" stroke-linecap="round" stroke-linejoin="round"/>
<path d="M462.619 123.34C461.756 122.919 460.76 122.775 459.809 122.941C458.205 123.218 456.047 124.358 455.317 124.8C455.317 124.8 454.288 125.663 454.93 126.847C455.571 128.031 458.537 126.98 458.537 126.98L460.816 126.327L462.21 127.71" stroke="#E28E64" stroke-width="0.553201" stroke-linecap="round" stroke-linejoin="round"/>
<path d="M463.35 114.013C462.122 113.803 460.838 113.925 459.676 114.367" stroke="#E28E64" stroke-width="0.829801" stroke-linecap="round" stroke-linejoin="round"/>
<path d="M461.833 90.9991C464.012 88.6978 466.944 87.1377 470.064 86.6177C471.149 86.4407 472.388 86.4296 473.173 87.1931C473.793 87.7905 473.959 88.7199 473.992 89.5718C474.036 90.8774 473.837 92.2051 473.417 93.4442C473.063 94.4842 472.454 95.5575 471.425 95.9558C470.33 96.3762 469.113 95.9226 468.04 95.4689C466.491 94.8162 464.931 94.1744 463.382 93.5217C463.016 93.3668 462.629 93.2119 462.364 92.9131C462.098 92.6144 461.976 92.1497 462.198 91.8178C462.563 91.2646 463.415 91.508 464.012 91.7846C465.384 92.4153 466.878 92.9242 468.383 92.7804C469.887 92.6365 471.403 91.6961 471.812 90.2357C471.923 89.8374 471.901 89.3173 471.547 89.1182C471.303 88.9854 471.005 89.0518 470.728 89.1293C467.763 89.948 464.798 90.7778 461.844 91.5965" fill="#473C1E"/>
<path opacity="0.3" d="M377.16 343.856L372.248 267.735C372.248 267.735 367.955 309.69 372.624 323.398C377.736 338.39 377.16 343.856 377.16 343.856Z" fill="#392A00"/>
<path d="M400.969 106.598L379.062 140.786H370.51C370.51 140.786 354.566 105.16 354.577 105.16C354.588 105.16 363.163 103.08 363.163 103.08L375.333 132.632L392.936 104.386L400.969 106.61V106.598Z" fill="#473C1E"/>
<path d="M389.613 346.454C387.475 346.454 385.743 344.722 385.743 342.584V335.663C385.743 329.935 381.082 325.273 375.354 325.273H335.232C329.504 325.273 324.843 329.935 324.843 335.663V342.584C324.843 344.722 323.111 346.454 320.973 346.454C318.835 346.454 317.104 344.722 317.104 342.584V335.663C317.104 325.669 325.233 317.534 335.232 317.534H375.354C385.347 317.534 393.483 325.664 393.483 335.663V342.584C393.483 344.722 391.751 346.454 389.613 346.454Z" fill="#E5B14A"/>
<g style="mix-blend-mode:multiply">
<path d="M385.744 335.663V342.584C385.744 344.722 387.475 346.454 389.613 346.454C391.751 346.454 393.483 344.722 393.483 342.584V335.663C393.483 334.407 393.351 333.182 393.108 331.994H385.062C385.495 333.134 385.744 334.37 385.744 335.663Z" fill="#BE9400"/>
<path d="M320.973 346.454C323.111 346.454 324.843 344.722 324.843 342.584V335.663C324.843 334.37 325.091 333.134 325.524 331.994H317.478C317.235 333.182 317.104 334.407 317.104 335.663V342.584C317.104 344.722 318.835 346.454 320.973 346.454Z" fill="#BE9400"/>
</g>
<path d="M437.247 338.487H273.44C265.903 338.487 259.793 344.597 259.793 352.134V455.791C259.793 463.327 265.903 469.437 273.44 469.437H437.247C444.784 469.437 450.894 463.327 450.894 455.791V352.134C450.894 344.597 444.784 338.487 437.247 338.487Z" fill="#E5B14A"/>
<path d="M303.394 338.488H292.197V469.438H303.394V338.488Z" fill="#DBA61F"/>
<path d="M303.394 388.388H292.197V403.967H303.394V388.388Z" stroke="#FFE394" stroke-width="2.21197" stroke-miterlimit="10"/>
<path d="M297.799 388.388V399.342" stroke="#FFE394" stroke-width="2.21197" stroke-miterlimit="10"/>
<path d="M407.293 469.438H418.49V338.489H407.293V469.438Z" fill="#DBA61F"/>
<path d="M407.293 403.966H418.49V388.387H407.293V403.966Z" stroke="#FFE394" stroke-width="2.21197" stroke-miterlimit="10"/>
<path d="M412.895 388.387V399.341" stroke="#FFE394" stroke-width="2.21197" stroke-miterlimit="10"/>
<path d="M286.844 469.438H308.747V471.137C308.747 472.616 307.549 473.814 306.07 473.814H289.52C288.042 473.814 286.844 472.616 286.844 471.137V469.438Z" fill="#104551"/>
<path d="M401.939 469.438H423.843V470.699C423.843 472.42 422.444 473.814 420.728 473.814H405.054C403.333 473.814 401.939 472.415 401.939 470.699V469.438Z" fill="#104551"/>
<path d="M355.273 378.036C356.322 367.528 348.653 358.159 338.145 357.11C327.637 356.062 318.268 363.73 317.219 374.238C316.171 384.746 323.839 394.115 334.347 395.164C344.855 396.213 354.224 388.544 355.273 378.036Z" fill="#D19500"/>
<path d="M336.225 388.634C343.143 388.634 348.752 383.025 348.752 376.107C348.752 369.188 343.143 363.579 336.225 363.579C329.306 363.579 323.697 369.188 323.697 376.107C323.697 383.025 329.306 388.634 336.225 388.634Z" fill="#FFE394"/>
<path d="M386.711 413.991L340.654 421.905L343.498 438.456L389.554 430.542L386.711 413.991Z" fill="#FFE394"/>
<g style="mix-blend-mode:multiply">
<path d="M437.248 455.32H273.446C265.907 455.32 259.799 449.207 259.799 441.674V455.79C259.799 463.329 265.907 469.437 273.446 469.437H437.248C444.786 469.437 450.894 463.329 450.894 455.79V441.674C450.894 449.212 444.786 455.32 437.248 455.32Z" fill="#996D00"/>
</g>
<g style="mix-blend-mode:overlay" opacity="0.37">
<path d="M437.248 338.487H273.446C265.907 338.487 259.799 344.595 259.799 352.134V363.331C259.799 355.792 265.907 349.684 273.446 349.684H437.248C444.786 349.684 450.894 355.792 450.894 363.331V352.134C450.894 344.595 444.786 338.487 437.248 338.487Z" fill="#FFE394"/>
</g>
<defs>
<linearGradient id="paint0_linear_445_10827" x1="221.615" y1="423.185" x2="209.33" y2="423.185" gradientUnits="userSpaceOnUse">
<stop stop-color="white"/>
<stop offset="0.51" stop-color="#666666"/>
<stop offset="1" stop-color="white"/>
</linearGradient>
</defs>
</svg>
