<svg width="1440" height="569" viewBox="0 0 1440 569" fill="none" xmlns="http://www.w3.org/2000/svg">
<g style="mix-blend-mode:overlay" opacity="0.8">
<path d="M1439.71 53.5513H1264.14V299.124H1439.71V53.5513Z" fill="black"/>
</g>
<path d="M1439.71 53.5497V31.3525H1241.9V321.362H1439.71V299.165H1264.14V53.5497H1439.71Z" fill="white"/>
<path d="M1439.71 31.354V0.907227H1211.45V351.81H1439.71V321.321H1241.89V31.354H1439.71Z" fill="#91562F"/>
<path d="M1153.53 196.855C1153.53 179.336 1139.37 165.175 1121.85 165.175H795.952V228.493H1121.85C1139.37 228.493 1153.53 214.332 1153.53 196.813V196.855Z" fill="#FEC442"/>
<path d="M1123.72 196.855C1123.72 179.336 1109.52 165.175 1092.04 165.175H825.761V228.493H1092.04C1109.48 228.493 1123.72 214.332 1123.72 196.813V196.855Z" fill="#91562F"/>
<path d="M1093.15 196.855C1093.15 179.336 1078.95 165.175 1061.47 165.175H795.997V228.493H1061.47C1078.9 228.493 1093.15 214.332 1093.15 196.813V196.855Z" fill="#FEC442"/>
<path d="M996.577 196.855C996.577 179.336 982.374 165.175 964.897 165.175H795.952V228.493H964.897C982.332 228.493 996.577 214.332 996.577 196.813V196.855Z" fill="#91562F"/>
<path d="M967.193 196.855C967.193 179.336 952.991 165.175 935.513 165.175H795.952V228.493H935.513C952.948 228.493 967.193 214.332 967.193 196.813V196.855Z" fill="#FEC442"/>
<path d="M900.858 222.073H795.995V170.917H900.858C914.976 170.917 926.414 182.356 926.414 196.516C926.414 210.676 914.976 222.115 900.858 222.115V222.073Z" fill="#F0F1F1"/>
<g style="mix-blend-mode:multiply" opacity="0.1">
<path d="M899.965 212.377H795.995V214.504H899.965V212.377Z" fill="black"/>
</g>
<g style="mix-blend-mode:multiply" opacity="0.1">
<path d="M899.965 201.235H795.995V203.362H899.965V201.235Z" fill="black"/>
</g>
<g style="mix-blend-mode:multiply" opacity="0.1">
<path d="M899.965 190.052H795.995V192.178H899.965V190.052Z" fill="black"/>
</g>
<g style="mix-blend-mode:multiply" opacity="0.1">
<path d="M899.965 178.913H795.995V181.039H899.965V178.913Z" fill="black"/>
</g>
<path d="M1158.04 323.533C1158.04 306.014 1143.88 291.854 1126.36 291.854H800.459V355.171H1126.36C1143.88 355.171 1158.04 341.011 1158.04 323.491V323.533Z" fill="#DB2955"/>
<g style="mix-blend-mode:overlay" opacity="0.3">
<path d="M1128.27 323.533C1128.27 306.014 1114.07 291.854 1096.59 291.854H830.311V355.171H1096.59C1114.03 355.171 1128.27 341.011 1128.27 323.491V323.533Z" fill="black"/>
</g>
<path d="M1097.65 323.533C1097.65 306.014 1083.45 291.854 1065.97 291.854H800.501V355.171H1065.97C1083.41 355.171 1097.65 341.011 1097.65 323.491V323.533Z" fill="#DB2955"/>
<g style="mix-blend-mode:overlay" opacity="0.3">
<path d="M1001.08 323.533C1001.08 306.014 986.882 291.854 969.404 291.854H800.459V355.171H969.404C986.839 355.171 1001.08 341.011 1001.08 323.491V323.533Z" fill="black"/>
</g>
<path d="M971.743 323.533C971.743 306.014 957.54 291.854 940.063 291.854H800.501V355.171H940.063C957.497 355.171 971.743 341.011 971.743 323.491V323.533Z" fill="#DB2955"/>
<path d="M905.407 348.75H800.544V297.595H905.407C919.525 297.595 930.964 309.034 930.964 323.151C930.964 337.269 919.525 348.75 905.407 348.75Z" fill="#F0F1F1"/>
<g style="mix-blend-mode:multiply" opacity="0.1">
<path d="M904.514 339.055H800.544V341.181H904.514V339.055Z" fill="black"/>
</g>
<g style="mix-blend-mode:multiply" opacity="0.1">
<path d="M904.514 327.872H800.544V329.998H904.514V327.872Z" fill="black"/>
</g>
<g style="mix-blend-mode:multiply" opacity="0.1">
<path d="M904.514 316.73H800.544V318.856H904.514V316.73Z" fill="black"/>
</g>
<g style="mix-blend-mode:multiply" opacity="0.1">
<path d="M904.514 305.588H800.544V307.715H904.514V305.588Z" fill="black"/>
</g>
<path d="M1189.63 260.215C1189.63 242.695 1175.47 228.535 1157.95 228.535H832.055V291.852H1157.95C1175.47 291.852 1189.63 277.692 1189.63 260.173V260.215Z" fill="#41AE9B"/>
<g style="mix-blend-mode:overlay" opacity="0.3">
<path d="M1159.82 260.215C1159.82 242.695 1145.62 228.535 1128.14 228.535H861.863V291.852H1128.14C1145.58 291.852 1159.82 277.692 1159.82 260.173V260.215Z" fill="black"/>
</g>
<path d="M1129.21 260.215C1129.21 242.695 1115.01 228.535 1097.53 228.535H832.055V291.852H1097.53C1114.96 291.852 1129.21 277.692 1129.21 260.173V260.215Z" fill="#41AE9B"/>
<g style="mix-blend-mode:overlay" opacity="0.3">
<path d="M1032.68 260.215C1032.68 242.695 1018.48 228.535 1001 228.535H832.055V291.852H1001C1018.43 291.852 1032.68 277.692 1032.68 260.173V260.215Z" fill="black"/>
</g>
<path d="M1003.3 260.215C1003.3 242.695 989.093 228.535 971.616 228.535H832.055V291.852H971.616C989.051 291.852 1003.3 277.692 1003.3 260.173V260.215Z" fill="#41AE9B"/>
<path d="M936.959 285.432H832.097V234.276H936.959C951.077 234.276 962.559 245.715 962.559 259.875C962.559 274.035 951.12 285.432 936.959 285.432Z" fill="#F0F1F1"/>
<g style="mix-blend-mode:multiply" opacity="0.1">
<path d="M936.066 275.695H832.097V277.821H936.066V275.695Z" fill="black"/>
<path d="M936.066 264.553H832.097V266.679H936.066V264.553Z" fill="black"/>
<path d="M936.066 253.412H832.097V255.538H936.066V253.412Z" fill="black"/>
<path d="M936.066 242.229H832.097V244.355H936.066V242.229Z" fill="black"/>
</g>
<path d="M1157.15 497.752H1180.92V392.719H1157.15V497.752Z" fill="#59595B"/>
<path d="M777.623 497.752H801.394V392.719H777.623V497.752Z" fill="#293959"/>
<path d="M728 404.455L1230.54 404.455V351.088L728 351.088V404.455Z" fill="#293959"/>
<path d="M1156.89 497.752H1180.66V392.719H1156.89V497.752Z" fill="#293959"/>
<path d="M1439.67 351.087H1107.26V404.454H1439.67V351.087Z" fill="#293959"/>
<g clip-path="url(#clip0_56_5985)">
<path d="M479.043 291.891C479.625 288.675 480.283 285.525 480.986 282.418C486.913 256.415 502.588 241.443 502.588 241.443C502.588 241.443 496.309 237.316 486.518 232.102C476.749 226.888 463.445 220.588 449.439 216.208L452.249 256.503L439.451 269.093L446.981 306.578L405.446 360.802L363.899 306.578L370.057 270.97L357.215 259.137L358.236 216.9C326.612 224.989 306.854 241.443 306.854 241.443C306.854 241.443 318.116 256.294 325.515 282.418C326.393 285.415 327.194 288.598 327.929 291.891C328.95 296.534 329.795 301.441 330.454 306.6C330.454 306.676 330.487 306.742 330.487 306.852C330.63 308.169 330.783 309.486 330.926 310.837C331.222 313.284 331.398 315.776 331.552 318.333C331.694 320.748 331.804 323.163 331.848 325.655C331.848 326.05 331.288 332.669 330.388 342.822C330.597 342.054 330.805 341.285 331.014 340.528C330.805 341.285 330.608 342.054 330.388 342.822C327.084 380.208 319.324 465.638 319.324 465.638C334.065 479.952 380.43 487.536 400.868 489.359L406.137 466.714L410.681 489.885C410.681 489.885 447.222 486.625 472.984 479.359C482.446 476.692 490.448 473.475 494.652 469.678C494.794 469.568 494.926 469.425 495.069 469.293C495.069 469.293 494.97 468.525 494.783 467.098C493.016 453.125 483.203 376.344 478.867 342.109C476.438 333.21 476.438 333.21 478.867 342.109C477.638 332.35 476.848 326.039 476.815 325.655C476.628 323.24 476.562 320.792 476.562 318.333C476.562 315.875 476.595 313.317 476.782 310.837C477.144 304.47 477.912 298.071 479.054 291.891H479.043Z" fill="#283044"/>
<g style="mix-blend-mode:overlay" opacity="0.5">
<path d="M405.446 360.802C404.732 369.835 404.37 378.858 404.118 387.892C403.843 396.925 403.766 405.948 403.733 414.982C403.766 424.016 403.832 433.038 404.107 442.072C404.359 451.106 404.732 460.128 405.446 469.162C406.159 460.128 406.532 451.106 406.785 442.072C407.059 433.038 407.136 424.016 407.158 414.982C407.125 405.948 407.048 396.925 406.774 387.892C406.521 378.858 406.148 369.835 405.446 360.802Z" fill="white"/>
</g>
<g style="mix-blend-mode:overlay" opacity="0.5">
<path d="M473.226 417.649H426.521V427.836H473.226V417.649Z" fill="white"/>
</g>
<g style="mix-blend-mode:overlay" opacity="0.5">
<path d="M384.371 417.649H337.655V427.836H384.371V417.649Z" fill="white"/>
</g>
<path d="M412.548 262.562L412.921 263.407L407.092 270.091L417.707 305.392L431.811 241.607L415.456 268.5L412.548 262.562Z" fill="#1B6FA1"/>
<path d="M394.348 263.451L391.867 268.5L375.458 241.52L391.264 304.382L400.506 269.729L394.348 263.451Z" fill="#1B6FA1"/>
<path d="M405.446 357.739L401.834 346.422L405.446 360.802L408.497 347.026L405.446 357.739Z" fill="#D35B30"/>
<path d="M407.093 270.092L412.921 263.407L412.548 262.562L406.785 250.828L403.668 244.461L400.913 250.07L394.349 263.451L400.507 269.729L391.265 304.382L401.835 346.422L405.446 357.739L408.498 347.026L417.707 305.392L407.093 270.092Z" fill="#DB2955"/>
<path d="M403.338 243.616L403.667 243.353L368.927 215.549L369.849 219.204L375.425 241.377L375.458 241.52L391.868 268.5L400.912 250.07L403.667 244.461L403.272 243.671L403.338 243.616Z" fill="white"/>
<path d="M375.425 241.377L375.359 241.355L375.458 241.52L375.425 241.377Z" fill="#5374A5"/>
<path d="M404.052 243.671L403.667 244.462L404.052 243.671Z" fill="white"/>
<path d="M403.668 243.353L403.338 243.616L403.272 243.671L403.668 244.461L406.785 250.828L412.548 262.561L415.456 268.5L431.811 241.607L431.855 241.443L436.85 218.864L437.398 216.339L403.668 243.353Z" fill="white"/>
<path d="M431.812 241.608L431.932 241.41L431.855 241.443L431.812 241.608Z" fill="#5374A5"/>
<path d="M452.239 256.503L449.44 216.208L449.209 212.838L439.901 205.067L439.583 206.527L438.332 212.169L437.409 216.362L436.85 218.875L431.855 241.454L431.943 241.421L431.822 241.619L417.718 305.403L408.508 347.037L405.457 360.813L401.846 346.433L391.275 304.393L375.469 241.531L375.37 241.366L375.436 241.388L369.86 219.216L368.938 215.56L368.51 213.859L367.16 208.492L367.105 208.272L358.258 216.537V216.922L357.226 259.159L370.08 270.992L363.933 306.6L405.468 360.824L447.003 306.6L439.473 269.104L452.261 256.514L452.239 256.503Z" fill="#283044"/>
<g style="mix-blend-mode:overlay" opacity="0.5">
<path d="M452.239 256.503L449.44 216.208L449.209 212.838L439.901 205.067L439.583 206.527L438.332 212.169L437.409 216.362L436.85 218.875L431.855 241.454L431.943 241.421L431.822 241.619L417.718 305.403L408.508 347.037L405.457 360.813L401.846 346.433L391.275 304.393L375.469 241.531L375.37 241.366L375.436 241.388L369.86 219.216L368.938 215.56L368.51 213.859L367.16 208.492L367.105 208.272L358.258 216.537V216.922L357.226 259.159L370.08 270.992L363.933 306.6L405.468 360.824L447.003 306.6L439.473 269.104L452.261 256.514L452.239 256.503Z" fill="white"/>
</g>
<path d="M447.618 290.662C447.299 291.628 446.794 292.682 446.18 293.724C444.731 296.194 442.645 298.664 440.911 300.146L439.155 295.437L433.875 295.909C435.565 294.515 437.486 292.418 438.869 290.245C439.715 288.917 440.362 287.567 440.626 286.348L447.618 290.662Z" fill="#FEC442"/>
<path d="M462.567 295.909L457.288 295.437L455.531 300.146C453.709 298.587 451.503 295.942 450.043 293.351C449.527 292.429 449.11 291.518 448.825 290.662L455.817 286.348C456.124 287.72 456.892 289.246 457.902 290.717C459.252 292.715 461.009 294.613 462.578 295.898L462.567 295.909Z" fill="#FEC442"/>
<g style="mix-blend-mode:multiply" opacity="0.3">
<path d="M440.637 286.347L447.629 290.661C447.31 291.627 446.805 292.681 446.191 293.724C445.488 293.932 444.731 293.702 444.27 293.12L443.37 292C443.03 291.572 442.514 291.331 441.965 291.32H440.527C439.802 291.32 439.166 290.881 438.88 290.233C439.726 288.905 440.373 287.555 440.637 286.336V286.347Z" fill="#BABCBE"/>
<path d="M457.892 290.728C457.562 291.101 457.079 291.32 456.552 291.331H455.114C454.566 291.331 454.05 291.584 453.709 292.012L452.809 293.132C452.283 293.79 451.371 293.988 450.614 293.626L450.032 293.351C449.516 292.429 449.099 291.518 448.814 290.662L455.806 286.348C456.113 287.72 456.882 289.246 457.892 290.717V290.728Z" fill="#BABCBE"/>
</g>
<path d="M462.809 279.016L461.92 280.146C461.58 280.574 461.459 281.134 461.569 281.661L461.887 283.066C462.074 283.889 461.668 284.723 460.91 285.097L459.615 285.722C459.121 285.964 458.77 286.414 458.638 286.941L458.309 288.346C458.122 289.169 457.387 289.74 456.553 289.751H455.115C454.566 289.751 454.05 290.014 453.71 290.431L452.81 291.551C452.283 292.209 451.372 292.418 450.614 292.056L449.319 291.441C448.825 291.2 448.254 291.2 447.76 291.441L446.465 292.056C445.708 292.418 444.797 292.209 444.27 291.551L443.37 290.431C443.029 290.003 442.514 289.762 441.965 289.751H440.527C439.682 289.74 438.957 289.158 438.771 288.346L438.441 286.941C438.321 286.403 437.958 285.964 437.464 285.722L436.169 285.097C435.412 284.734 435.006 283.889 435.192 283.066L435.511 281.661C435.631 281.123 435.511 280.574 435.159 280.146L434.27 279.016C433.754 278.357 433.754 277.424 434.27 276.765L435.159 275.635C435.5 275.207 435.62 274.647 435.511 274.12L435.192 272.715C435.006 271.892 435.412 271.058 436.169 270.684L437.464 270.059C437.958 269.817 438.31 269.367 438.441 268.84L438.771 267.435C438.957 266.612 439.693 266.041 440.527 266.03H441.965C442.514 266.03 443.029 265.767 443.37 265.35L444.27 264.23C444.797 263.572 445.708 263.363 446.465 263.725L447.76 264.34C448.254 264.581 448.825 264.581 449.319 264.34L450.614 263.725C451.372 263.363 452.283 263.572 452.81 264.23L453.71 265.35C454.05 265.778 454.566 266.019 455.115 266.03H456.553C457.398 266.041 458.122 266.623 458.309 267.435L458.638 268.84C458.759 269.378 459.121 269.817 459.615 270.059L460.91 270.684C461.668 271.047 462.074 271.892 461.887 272.715L461.569 274.12C461.448 274.658 461.569 275.207 461.92 275.635L462.809 276.765C463.325 277.424 463.325 278.357 462.809 279.016Z" fill="#FF902C"/>
<g style="mix-blend-mode:overlay" opacity="0.4">
<path d="M448.54 289.355C442.217 289.355 437.08 284.218 437.08 277.896C437.08 271.574 442.217 266.437 448.54 266.437C454.862 266.437 459.999 271.574 459.999 277.896C459.999 284.218 454.862 289.355 448.54 289.355ZM448.54 266.963C442.513 266.963 437.607 271.87 437.607 277.896C437.607 283.922 442.513 288.829 448.54 288.829C454.566 288.829 459.472 283.922 459.472 277.896C459.472 271.87 454.566 266.963 448.54 266.963Z" fill="white"/>
</g>
<path d="M454.925 284.284C458.453 280.756 458.453 275.036 454.925 271.508C451.397 267.98 445.677 267.98 442.149 271.508C438.622 275.036 438.622 280.756 442.149 284.284C445.677 287.812 451.397 287.812 454.925 284.284Z" fill="#FEC442"/>
<path d="M454.982 276.546C454.982 276.546 455.037 276.491 455.048 276.469C454.785 276.425 454.532 276.37 454.269 276.326C453.281 276.173 452.293 276.03 451.305 275.876C451.086 275.843 450.877 275.821 450.658 275.778C450.603 275.778 450.537 275.723 450.504 275.668C449.944 274.515 449.384 273.374 448.824 272.221C448.737 272.046 448.649 271.87 448.539 271.65C448.352 272.024 448.188 272.353 448.023 272.682C447.54 273.659 447.046 274.636 446.563 275.613C446.519 275.701 446.464 275.745 446.366 275.756C444.961 275.953 443.545 276.151 442.14 276.348C442.096 276.348 442.052 276.359 441.997 276.37C442.03 276.414 442.041 276.447 442.074 276.48C442.908 277.303 443.742 278.127 444.577 278.95C444.763 279.136 444.961 279.323 445.147 279.51C445.213 279.575 445.213 279.63 445.202 279.718C444.95 281.145 444.697 282.583 444.434 284.01C444.434 284.032 444.434 284.054 444.434 284.087C444.697 283.944 444.95 283.823 445.202 283.692C446.025 283.264 446.849 282.835 447.672 282.418C447.902 282.298 448.133 282.188 448.363 282.056C448.451 282.001 448.528 282.001 448.616 282.056C449.878 282.726 451.13 283.395 452.392 284.065C452.414 284.076 452.447 284.087 452.48 284.109C452.491 284.109 452.502 284.12 452.524 284.131C452.491 283.955 452.469 283.79 452.447 283.626C452.227 282.331 452.019 281.035 451.799 279.729C451.799 279.674 451.821 279.597 451.854 279.553C452.886 278.544 453.929 277.545 454.971 276.546H454.982Z" fill="white"/>
<path d="M434.38 185.089C433.941 185.77 433.502 186.439 433.041 187.098C426.236 196.867 417.301 203.431 407.257 205.143C406.335 205.297 405.413 205.429 404.48 205.506C403.964 205.582 403.459 205.615 402.943 205.615C402.296 205.637 401.637 205.637 400.99 205.615C389.662 205.253 379.223 198.733 371.199 188.207L367.786 204.99L367.149 208.48L368.499 213.848L368.927 215.549L403.657 243.364L437.399 216.35L438.321 212.157L439.572 206.515L434.38 185.089Z" fill="#E5B7AC"/>
<g style="mix-blend-mode:multiply" opacity="0.6">
<path d="M407.762 205.144C406.84 205.297 405.918 205.429 404.985 205.506C404.469 205.583 403.964 205.616 403.448 205.616C402.8 205.638 402.142 205.638 401.494 205.616C390.166 205.254 379.728 198.734 371.704 188.207L368.29 204.99C373.12 206.713 377.598 207.965 381.78 208.821C396.598 211.872 407.476 209.93 415.39 206.033C426.026 200.797 431.295 192.038 433.545 187.109C426.74 196.878 417.805 203.442 407.762 205.155V205.144Z" fill="#E5B7AC"/>
</g>
<path d="M464.115 131.809C461.185 130.811 458.517 131.019 456.124 131.952C456.015 132.161 455.949 132.281 455.949 132.281C455.949 132.281 449.034 136.815 446.509 141.172C446.399 141.37 446.278 141.568 446.18 141.765C446.18 141.765 446.289 144.959 445.894 149.701C445.839 150.316 445.785 150.952 445.719 151.611C445.532 153.345 445.28 155.233 444.939 157.209C444.786 158.043 444.643 158.888 444.467 159.712C444.281 160.634 444.061 161.567 443.831 162.511C443.765 162.752 443.699 162.994 443.644 163.246C443.578 163.51 443.512 163.784 443.436 164.047C463.852 170.271 477.463 136.354 464.126 131.82L464.115 131.809Z" fill="#E5B7AC"/>
<g style="mix-blend-mode:multiply">
<path d="M445.948 151.71C446.212 151.71 446.464 151.567 446.607 151.315C446.64 151.26 448.572 148.022 452.117 145.574C455.443 147.616 453.939 153.192 453.917 153.247C453.797 153.664 454.038 154.103 454.455 154.224C454.532 154.246 454.62 154.257 454.697 154.257C455.037 154.257 455.333 154.026 455.432 153.686C455.509 153.412 457.101 147.55 453.577 144.674C455.377 143.686 457.485 142.962 459.9 142.885C459.976 142.885 460.064 142.885 460.141 142.885C460.536 142.94 460.931 142.523 460.92 142.084C460.92 141.645 460.558 141.293 460.119 141.304C452.458 141.425 447.606 147.122 445.905 149.493C445.839 150.206 445.751 150.92 445.663 151.633C445.751 151.666 445.85 151.71 445.937 151.699L445.948 151.71Z" fill="#E5B7AC"/>
</g>
<path d="M358.872 162.544C357.796 158.296 357.16 154.19 356.798 150.788C356.732 150.118 356.666 149.482 356.611 148.867C356.271 144.871 356.293 142.237 356.293 142.237C356.128 141.567 355.832 140.898 355.436 140.239C353.274 136.595 348.258 133.302 346.26 132.095C343.582 131.008 340.585 130.756 337.358 132.062C332.968 133.873 331.815 138.79 332.99 144.268C335.273 154.816 346.172 167.395 359.081 163.323C359.015 163.059 358.949 162.807 358.883 162.544H358.872Z" fill="#E5B7AC"/>
<g style="mix-blend-mode:multiply">
<path d="M342.287 141.656C341.848 141.678 341.508 142.051 341.53 142.49C341.552 142.929 341.969 143.324 342.353 143.247C342.43 143.247 342.518 143.247 342.595 143.247C345.009 143.17 347.161 143.774 349.005 144.652C345.646 147.726 347.589 153.488 347.677 153.752C347.797 154.081 348.116 154.29 348.445 154.279C348.522 154.279 348.61 154.257 348.687 154.235C349.104 154.092 349.312 153.642 349.169 153.225C349.148 153.17 347.303 147.693 350.509 145.454C354.186 147.682 356.315 150.81 356.348 150.854C356.48 151.052 356.688 151.15 356.908 151.183C356.776 150.305 356.644 149.416 356.546 148.527C354.427 146.057 349.433 141.359 342.276 141.667L342.287 141.656Z" fill="#E5B7AC"/>
</g>
<path d="M433.041 187.098C433.502 186.44 433.941 185.77 434.38 185.09L434.182 184.277C433.963 184.914 433.589 185.902 433.041 187.098Z" fill="#E5B7AC"/>
<path d="M443.995 121.184C440.713 118.319 433.644 111.02 432.81 100.647C432.81 100.647 400.715 116.991 383.8 115.004C387.719 107.255 390.353 101.58 390.353 101.58C390.353 101.58 369.585 115.399 359.311 115.948C358.29 119.472 357.083 125.695 358.4 132.622C358.543 133.335 358.697 134.059 358.883 134.806C361.814 145.859 360.497 165.518 360.365 167.384C363.065 175.309 366.764 182.367 371.21 188.196C379.234 198.722 389.672 205.242 401 205.604C402.636 205.418 404.326 205.22 406.148 205.001C406.532 205.045 406.894 205.088 407.268 205.132C417.311 203.42 426.246 196.856 433.052 187.087C433.6 185.891 434.391 185.078 434.391 185.078C438.167 179.173 441.196 172.225 443.282 164.552C443.084 165.266 442.865 165.968 442.645 166.682C442.645 166.682 440.614 145.574 443.446 133.917C443.523 133.566 443.611 133.225 443.666 132.896C444.577 128.615 444.467 124.543 444.006 121.162L443.995 121.184Z" fill="#E5B7AC"/>
<path d="M404.48 205.506C405.413 205.429 406.346 205.298 407.257 205.144C406.884 205.1 406.521 205.056 406.137 205.012C404.315 205.232 402.625 205.429 400.989 205.616C401.637 205.638 402.284 205.638 402.943 205.616C403.459 205.616 403.964 205.583 404.48 205.506Z" fill="#E5B7AC"/>
<path d="M443.819 162.5C443.765 162.741 443.688 162.983 443.633 163.235C443.699 162.994 443.765 162.752 443.819 162.5Z" fill="#E5B7AC"/>
<path d="M443.271 164.563C443.315 164.388 443.37 164.212 443.414 164.037C443.37 164.212 443.326 164.388 443.271 164.563Z" fill="#383838"/>
<path d="M359.07 163.312C359.444 164.717 359.872 166.133 360.355 167.549C360.355 167.549 360.355 167.483 360.366 167.395C359.916 166.056 359.476 164.695 359.081 163.312C359.081 163.312 359.081 163.312 359.07 163.312Z" fill="#383838"/>
<path d="M444.456 159.712C444.258 160.656 444.039 161.589 443.819 162.511C444.05 161.567 444.269 160.634 444.456 159.712Z" fill="#383838"/>
<path d="M443.413 164.037C443.49 163.773 443.556 163.499 443.622 163.235C443.556 163.51 443.479 163.773 443.413 164.037Z" fill="#383838"/>
<path d="M358.873 162.544C358.939 162.807 359.004 163.06 359.07 163.323C359.07 163.323 359.07 163.323 359.081 163.323C359.005 163.071 358.939 162.807 358.862 162.555L358.873 162.544Z" fill="#383838"/>
<path d="M452.579 95.4227C452.579 95.4227 456.772 68.0034 433.535 58.0038C410.297 47.9822 371.978 61.154 371.978 61.154C371.978 61.154 362.023 65.1714 351.496 78.1128C351.496 78.1128 332.54 97.7278 345.404 131.59C345.404 131.59 345.723 131.766 346.249 132.084C348.247 133.292 353.263 136.585 355.426 140.229C355.821 140.887 356.117 141.557 356.282 142.227C356.282 142.227 356.26 144.861 356.6 148.856C356.655 149.46 356.721 150.108 356.787 150.777C357.149 154.18 357.786 158.296 358.861 162.533C358.927 162.786 359.004 163.049 359.081 163.301C359.476 164.685 359.904 166.046 360.365 167.385C360.497 165.519 361.814 145.849 358.883 134.806C358.697 134.06 358.532 133.336 358.4 132.622C357.072 125.685 358.291 119.461 359.311 115.949C369.585 115.4 390.353 101.581 390.353 101.581C390.353 101.581 387.73 107.255 383.8 115.005C400.704 116.992 432.81 100.648 432.81 100.648C433.655 111.02 440.724 118.32 443.995 121.185C444.456 124.554 444.566 128.627 443.655 132.918C443.6 133.237 443.523 133.588 443.435 133.939C440.604 145.596 442.634 166.704 442.634 166.704C442.865 165.991 443.073 165.288 443.271 164.575C443.315 164.399 443.359 164.224 443.413 164.048C443.479 163.784 443.556 163.521 443.622 163.247C443.688 163.005 443.754 162.753 443.809 162.511C444.039 161.589 444.248 160.656 444.445 159.712C445.038 156.825 445.433 154.07 445.686 151.611C445.751 150.953 445.817 150.316 445.861 149.702C446.256 144.96 446.147 141.766 446.147 141.766C446.245 141.568 446.355 141.37 446.476 141.173C449.001 136.815 455.916 132.282 455.916 132.282C455.916 132.282 455.982 132.161 456.091 131.953C457.902 128.616 468.725 100.417 452.557 95.4117L452.579 95.4227Z" fill="black"/>
<path d="M384.898 144.718C384.898 140.305 383.493 136.727 381.769 136.727C380.046 136.727 378.641 140.305 378.641 144.718C378.641 149.131 380.046 152.709 381.769 152.709C383.493 152.709 384.898 149.131 384.898 144.718Z" fill="black"/>
<path d="M418.091 136.716C416.367 136.716 414.962 140.294 414.962 144.707C414.962 149.119 416.367 152.698 418.091 152.698C419.814 152.698 421.219 149.119 421.219 144.707C421.219 140.294 419.814 136.716 418.091 136.716Z" fill="black"/>
<g style="mix-blend-mode:multiply">
<path d="M372.011 155.475C372.099 154.717 370.288 153.883 367.983 153.631C365.678 153.367 363.735 153.773 363.647 154.542C363.559 155.299 365.37 156.133 367.675 156.386C369.981 156.649 371.923 156.243 372.011 155.475Z" fill="#E5B7AC"/>
</g>
<g style="mix-blend-mode:multiply">
<path d="M368.158 159.361C365.864 159.756 364.119 160.689 364.251 161.446C364.382 162.204 366.347 162.489 368.63 162.094C370.924 161.699 372.67 160.766 372.538 160.008C372.406 159.251 370.441 158.966 368.158 159.361Z" fill="#E5B7AC"/>
</g>
<g style="mix-blend-mode:multiply">
<path d="M430.955 158.274C430.867 159.031 432.679 159.866 434.984 160.118C437.289 160.382 439.231 159.975 439.319 159.207C439.407 158.45 437.596 157.615 435.291 157.363C432.986 157.1 431.043 157.506 430.955 158.274Z" fill="#E5B7AC"/>
</g>
<g style="mix-blend-mode:multiply">
<path d="M430.428 153.741C430.56 154.498 432.524 154.783 434.808 154.388C437.102 153.993 438.847 153.06 438.715 152.303C438.583 151.545 436.619 151.26 434.336 151.655C432.041 152.05 430.296 152.983 430.428 153.741Z" fill="#E5B7AC"/>
</g>
<g style="mix-blend-mode:multiply">
<path d="M401.867 165.178C401.966 165.178 402.065 165.178 402.153 165.178C405.094 165.09 407.948 161.095 409.002 155.486C409.079 155.058 408.804 154.641 408.365 154.564C407.937 154.487 407.52 154.772 407.443 155.201C406.433 160.524 403.777 163.729 401.955 163.598C400.704 163.521 399.255 161.732 398.915 156.913C398.102 145.508 399.793 138.999 399.815 138.933C399.924 138.516 399.672 138.077 399.255 137.967C398.827 137.847 398.399 138.11 398.289 138.527C398.212 138.802 396.511 145.333 397.345 157.034C397.85 164.179 400.682 165.112 401.878 165.178H401.867Z" fill="#E5B7AC"/>
</g>
<g style="mix-blend-mode:multiply">
<path d="M420.352 166.682C419.968 166.474 419.485 166.605 419.276 166.989C419.221 167.077 414.095 176.089 402.888 176.429C391.637 176.758 384.36 168.043 384.283 167.955C384.009 167.615 383.504 167.571 383.164 167.846C382.823 168.12 382.779 168.625 383.054 168.954C383.372 169.338 390.891 178.372 402.932 178.01C415.039 177.648 420.44 168.164 420.659 167.758C420.868 167.374 420.736 166.891 420.352 166.682Z" fill="#E5B7AC"/>
</g>
<path d="M415.215 131.974C418.541 130.679 421.482 130.58 423.974 131.689C427.926 133.445 432.327 139.284 432.569 139.197C433.732 138.769 431.581 130.174 425.862 127.594C422.229 125.959 418.091 126.025 413.59 127.781C412.427 128.231 411.856 129.537 412.306 130.701C412.756 131.864 414.062 132.435 415.226 131.985L415.215 131.974Z" fill="black"/>
<path d="M367.775 139.888C368.016 139.965 372.034 133.917 375.875 131.908C378.29 130.646 381.254 130.558 384.668 131.667C385.853 132.051 387.126 131.403 387.5 130.218C387.884 129.032 387.236 127.759 386.051 127.386C381.441 125.904 377.313 126.079 373.79 127.924C368.236 130.832 366.589 139.537 367.786 139.899L367.775 139.888Z" fill="black"/>
<path d="M331.551 318.345C331.409 315.787 331.222 313.295 330.926 310.848C330.783 309.498 330.629 308.18 330.487 306.863C330.487 306.753 330.454 306.677 330.454 306.611C329.795 301.452 328.95 296.556 327.929 291.902C327.194 288.609 326.393 285.426 325.514 282.429C318.127 256.305 306.854 241.454 306.854 241.454C306.854 241.454 297.546 243.364 284.517 291.694C268.799 350.089 263.245 392.809 263.245 392.809C263.245 392.809 269.293 380.625 272.18 384.533C273.694 386.575 275.472 388.978 277.382 391.558C286.262 403.533 306.185 400.482 306.185 400.482C317.6 382.821 323.078 369.418 330.388 342.833C331.288 332.68 331.848 326.05 331.848 325.666C331.815 323.174 331.705 320.759 331.551 318.345Z" fill="#283044"/>
<g style="mix-blend-mode:overlay" opacity="0.5">
<path d="M281.905 355.785L293.068 336.346L281.905 342.603L337.051 282.627L281.905 355.785Z" fill="white"/>
</g>
<path d="M344.702 276.831C344.702 276.831 336.085 261.431 342.572 250.378C345.613 246.349 359.838 246.448 364.163 249.126C368.499 251.805 362.363 258.643 354.262 257.82C354.262 257.82 366.666 269.246 352.462 284.745C346.897 284.822 344.691 276.842 344.691 276.842L344.702 276.831Z" fill="#E5B7AC"/>
<path d="M399.178 321.308C399.036 321.385 398.893 321.473 398.761 321.539C391.945 325.435 386.018 327.729 385.436 326.72C384.854 325.71 389.772 321.78 396.511 317.862C396.676 317.763 396.851 317.664 397.027 317.565C404.019 313.548 410.177 311.122 410.77 312.165C411.362 313.197 406.181 317.291 399.178 321.308Z" fill="#91562F"/>
<path d="M410.77 312.164L395.765 320.781L385.436 326.719L317.722 208.886L326.668 203.738L343.055 194.32L410.77 312.164Z" fill="#91562F"/>
<g style="mix-blend-mode:overlay" opacity="0.3">
<path d="M398.761 321.538C391.945 325.435 386.018 327.729 385.436 326.719L317.722 208.886L326.668 203.738L396.511 317.861L397.642 319.705L398.761 321.538Z" fill="black"/>
</g>
<path d="M343.055 194.321C343.648 195.352 338.456 199.458 331.464 203.475C324.472 207.492 318.314 209.918 317.721 208.875C317.129 207.844 322.321 203.738 329.313 199.721C336.305 195.704 342.462 193.278 343.055 194.321Z" fill="#91562F"/>
<g style="mix-blend-mode:overlay" opacity="0.5">
<path d="M343.055 194.321C343.648 195.352 338.456 199.458 331.464 203.475C324.472 207.492 318.314 209.918 317.721 208.875C317.129 207.844 322.321 203.738 329.313 199.721C336.305 195.704 342.462 193.278 343.055 194.321Z" fill="white"/>
</g>
<g style="mix-blend-mode:multiply" opacity="0.5">
<path d="M338.017 197.219C338.379 197.844 335.251 200.314 331.036 202.729C326.821 205.155 323.111 206.604 322.76 205.989C322.409 205.374 325.526 202.894 329.741 200.479C333.956 198.053 337.666 196.604 338.017 197.219Z" fill="#BA9363"/>
</g>
<path d="M356.074 252.419C356.305 251.662 357.885 249.291 358.204 248.534C358.247 248.402 358.291 248.314 358.291 248.314L356.579 248.281C359.598 243.265 363.615 240.356 365.635 239.039C369.981 235.922 374.526 236.844 375.887 243.375C378.905 244.044 381.726 244.977 382.593 250.619C386.786 250.828 387.653 254.318 387.577 258.643C389.179 261.607 390.606 264.878 390.376 266.546C389.717 270.761 385.809 273.33 381.485 275.766V275.788C381.485 275.788 381.386 275.843 381.21 275.931C380.837 276.129 380.519 276.26 380.178 276.403C378.477 277.138 375.535 278.192 373.856 277.49C371.408 276.458 373.175 273.143 373.11 273.088C373.044 273.033 369.422 274.789 367.127 273.867C364.833 272.945 365.668 267.852 365.668 267.852C365.668 267.852 363.11 269.455 360.915 268.478C358.73 267.49 360.465 262.737 360.113 262.375C359.762 262.386 356.722 264.395 354.867 262.649C353.549 261.409 353.462 257.029 356.074 252.43V252.419Z" fill="#E5B7AC"/>
<path d="M348.961 269.959L326.667 301.254L357.007 313.997L368.96 285.052L348.961 269.959Z" fill="#E5B7AC"/>
<path d="M365.678 288.828C367.358 288.916 376.336 286.644 381.232 282.22C385.524 277.808 386.775 272.1 386.775 272.1L362.418 248.303C362.418 248.303 366.743 242.277 361.99 243.21C355.404 246.437 343.429 262.748 345.24 268.5C349.872 279.279 359.817 288.159 365.678 288.828Z" fill="#E5B7AC"/>
<path d="M343.439 279.104C347.72 280.915 356.886 285.174 363.296 290.618C364.877 291.968 366.315 293.373 367.434 294.855L363.131 302.286C361.946 301.09 360.684 299.893 359.355 298.719C352.33 292.484 343.824 286.875 339.642 284.23C339.093 283.889 338.632 283.593 338.248 283.363L341.069 278.138C341.069 278.138 341.991 278.489 343.439 279.104Z" fill="white"/>
<path d="M337.051 282.627C337.051 282.627 337.49 282.89 338.248 283.351C338.632 283.593 339.093 283.878 339.642 284.219C343.835 286.864 352.331 292.473 359.355 298.708C360.684 299.882 361.946 301.078 363.131 302.275C364.416 303.581 365.601 304.898 366.622 306.194C366.622 306.194 318.248 402.271 289.753 416.277C279.743 420.086 270.073 413.851 270.073 413.851C248.471 399.911 277.701 361.361 277.701 361.361L337.062 282.605L337.051 282.627Z" fill="#283044"/>
<path d="M530.853 494.88L498.263 491.872L493.532 491.444L494.652 469.678L494.784 467.098L498.527 394.741C491.37 378.144 483.05 357.432 478.868 342.108C477.627 332.35 476.848 326.05 476.815 325.655C476.629 323.24 476.552 320.792 476.552 318.333C476.552 315.875 476.585 313.328 476.782 310.836C476.782 310.803 476.782 310.76 476.793 310.727C477.155 304.404 477.913 298.038 479.043 291.891C479.625 288.675 480.284 285.536 480.975 282.418C486.903 256.415 502.577 241.443 502.577 241.443C502.577 241.443 508.054 243.627 520.963 287.193C533.092 332.405 541.335 370.922 542.817 376.465C547.614 388.473 530.842 494.88 530.842 494.88H530.853Z" fill="#283044"/>
<path d="M462.93 108.078C462.93 107.936 462.897 107.804 462.842 107.661L455.444 72.7559H347.885L339.477 107.628C339.412 107.771 339.368 107.925 339.368 108.078C339.368 108.078 366.985 121.667 401.144 121.667C430.308 121.667 462.919 108.078 462.919 108.078H462.93Z" fill="#283044"/>
<path d="M517.286 65.0614L406.994 88.0133L282.048 70.5826L283.738 68.036L398.498 52.0981L515.584 62.5149L517.286 65.0614Z" fill="#283044"/>
<path d="M321.926 95.6309C321.904 95.0162 321.278 80.4175 322.474 74.6658C322.474 74.5011 322.848 68.3104 341.288 66.5322C361.452 64.0076 400.726 61.2964 401.121 61.2744L401.198 62.3721C400.803 62.394 361.562 65.1052 341.409 67.6298C324.121 69.2982 323.561 74.7536 323.561 74.8085C322.387 80.5162 323.023 95.4443 323.034 95.598L321.937 95.6419L321.926 95.6309Z" fill="white"/>
<path d="M322.189 105.576L319.258 109.088C319.258 109.088 314.78 111.953 317.655 126.409C319.84 137.375 317.633 150.042 316.777 153.148L320.531 152.182L321.629 141.798L322.189 153.159L324.768 153.565V137.375L326.546 151.688L329.971 152.182C329.971 152.182 327.6 140.426 327.754 130.163C327.918 119.9 330.838 111.898 322.189 105.587V105.576Z" fill="#FEC442"/>
<path d="M325.902 102.617L319.361 102.521L319.265 109.063L325.806 109.159L325.902 102.617Z" fill="#FF902C"/>
<g style="mix-blend-mode:overlay" opacity="0.5">
<path d="M517.286 65.0617L406.994 88.0136L282.048 70.5829L283.738 68.0363L407.85 85.2585L515.584 62.5151L517.286 65.0617Z" fill="white"/>
</g>
<path d="M394.458 59.2661V62.131C394.458 62.6359 397.455 63.042 401.154 63.042C404.853 63.042 407.85 62.6359 407.85 62.131V59.2661H394.458Z" fill="#FF902C"/>
<path d="M407.85 59.266C407.85 59.771 404.853 60.1771 401.154 60.1771C397.455 60.1771 394.458 59.771 394.458 59.266C394.458 58.7611 397.455 58.355 401.154 58.355C404.853 58.355 407.85 58.7611 407.85 59.266Z" fill="#FEC442"/>
<path d="M327.765 100.054V100.164C327.721 103.193 325.23 105.619 322.189 105.575C319.16 105.531 316.745 103.029 316.789 99.9993C316.789 99.7359 316.811 99.4724 316.855 99.22C317.272 96.5636 319.588 94.5549 322.354 94.5989C325.35 94.6428 327.743 97.0686 327.765 100.054Z" fill="#FEC442"/>
<g style="mix-blend-mode:overlay" opacity="0.3">
<path d="M326.832 100.46V100.548C326.799 103.062 324.725 105.07 322.2 105.038C319.687 105.005 317.678 102.919 317.722 100.405C317.722 100.186 317.744 99.9664 317.777 99.7578C317.777 99.7578 318.973 102.557 322.53 102.557C324.922 102.557 326.24 101.284 326.832 100.449V100.46Z" fill="black"/>
</g>
</g>
<path d="M987.455 457.131H-142V480.281H512.471H1440V457.131H987.455Z" fill="#FF8600"/>
<path d="M1440 469.008H512.47V568.06H1440V469.008Z" fill="#FF8600"/>
<path d="M604.921 358.594C603.403 325.836 610.521 293.253 610.521 293.253L595.813 293.183L581.104 293.113C581.104 293.113 587.812 325.766 585.884 358.506C583.956 391.247 558.56 439.752 558.56 439.752L594.931 433.988L631.219 440.086C631.219 440.086 606.439 391.335 604.921 358.594Z" fill="#FEC442"/>
<g style="mix-blend-mode:overlay" opacity="0.3">
<path d="M598.91 389.964C597.823 366.467 597.187 287.084 597.187 287.084C597.187 287.084 593.104 366.415 591.709 389.911C590.315 413.39 565.657 448.187 565.657 448.187L591.751 444.058L617.782 448.433C617.782 448.433 600.017 413.461 598.91 389.982V389.964Z" fill="black"/>
</g>
<path d="M538.702 460.929L650.399 461.438L646.727 440.999C644.962 431.14 635.075 423.847 623.444 423.794L566.149 423.531C554.498 423.478 544.528 430.683 542.641 440.525L538.723 460.929H538.702Z" fill="#91562F"/>
<g style="mix-blend-mode:overlay" opacity="0.3">
<path d="M629.148 433.144H554.951V444.304H629.148V433.144Z" fill="black"/>
</g>
<g style="mix-blend-mode:overlay" opacity="0.3">
<path d="M616.141 449.102H567.934V454.356H616.141V449.102Z" fill="black"/>
</g>
<path d="M564.304 283.376L556.632 320.493L595.689 303.112L634.522 320.844L627.321 283.657L658.953 257.507L615.485 251.901L596.223 218L576.53 251.707L533 256.927L564.304 283.376Z" fill="#EEC839"/>
<g style="mix-blend-mode:overlay" opacity="0.6">
<path d="M564.304 283.376L556.632 320.493L595.689 303.112L634.522 320.844L627.321 283.657L658.953 257.507L615.485 251.901L596.223 218L576.53 251.707L533 256.927L564.304 283.376Z" fill="black"/>
</g>
<path d="M572.059 281.689L566.213 309.984L595.998 296.733L625.62 310.265L620.122 281.9L644.246 261.971L611.096 257.683L596.409 231.831L581.393 257.542L548.202 261.514L572.059 281.689Z" fill="#EEC839"/>
<g style="mix-blend-mode:overlay" opacity="0.4">
<path d="M596.409 231.831L596.142 277.577L611.096 257.683L596.409 231.831Z" fill="white"/>
<path d="M644.246 261.972L596.142 277.578L620.122 281.901L644.246 261.972Z" fill="white"/>
<path d="M595.998 296.733L596.141 277.577L625.619 310.265L595.998 296.733Z" fill="white"/>
<path d="M566.212 309.984L596.141 277.577L572.058 281.689L566.212 309.984Z" fill="white"/>
<path d="M548.202 261.514L596.142 277.577L581.393 257.542L548.202 261.514Z" fill="white"/>
</g>
<path d="M1067.74 340.396L979.973 451.258L1039.88 457.054L1150.2 457.021L1150.64 348.321L1067.74 340.396Z" fill="#DB2955"/>
<g style="mix-blend-mode:overlay" opacity="0.4">
<path d="M1127.48 346.18L1099.52 381.514L1060.98 430.216L1039.74 457.054L980.007 451.258L1002.14 423.29L1040.67 374.587L1067.74 340.396L1127.48 346.18Z" fill="white"/>
</g>
<g style="mix-blend-mode:overlay" opacity="0.3">
<path d="M1099.52 381.514L1060.98 430.216L1002.14 423.29L1040.67 374.587L1099.52 381.514Z" fill="white"/>
</g>
<path d="M1150.87 327.17L1150.45 457.055L1371.21 457.129L1371.64 327.244L1150.87 327.17Z" fill="#FF902C"/>
<g style="mix-blend-mode:overlay" opacity="0.4">
<path d="M1212.78 327.158L1212.68 347.652L1212.61 365.434L1212.34 423.664L1212.27 441.446L1212.2 457.054L1150.2 457.022L1150.27 441.446L1150.33 423.664L1150.61 365.434L1150.68 347.652L1150.78 327.125L1212.78 327.158Z" fill="white"/>
</g>
<g style="mix-blend-mode:overlay" opacity="0.4">
<path d="M1212.68 347.651L1212.61 365.433H1150.61L1150.68 347.651H1212.68Z" fill="white"/>
</g>
<g style="mix-blend-mode:overlay" opacity="0.4">
<path d="M1212.34 423.664L1212.27 441.446H1150.27L1150.33 423.664H1212.34Z" fill="white"/>
</g>
<path d="M1238.6 363.503L1238.25 457.012L1340.53 457.052L1340.89 363.543L1238.6 363.503Z" fill="#1B6FA1"/>
<g style="mix-blend-mode:overlay" opacity="0.4">
<path d="M1238.61 363.499L1238.26 457.008L1300.26 457.033L1300.61 363.524L1238.61 363.499Z" fill="white"/>
</g>
<g style="mix-blend-mode:overlay" opacity="0.4">
<path d="M1259.41 394.588L1259.25 435.464L1279.46 435.472L1279.62 394.596L1259.41 394.588Z" fill="white"/>
</g>
<path d="M1440 342.042L1439.93 358.913L1439.79 391.568L1439.52 457.076L1320.11 457.021L1320.59 341.976L1440 342.042Z" fill="#41AE9B"/>
<g style="mix-blend-mode:overlay" opacity="0.4">
<path d="M1439.93 358.913L1439.79 391.568H1400.92V358.913H1439.93Z" fill="white"/>
</g>
<g style="mix-blend-mode:overlay" opacity="0.3">
<path d="M1382.59 342.009L1382.49 365.455L1382.18 440.161L1382.11 457.054L1320.08 457.021L1320.15 440.128L1320.49 365.422L1320.59 341.976L1382.59 342.009Z" fill="black"/>
</g>
<g style="mix-blend-mode:overlay" opacity="0.3">
<path d="M1382.49 365.455L1382.18 440.161L1320.15 440.128L1320.49 365.422L1382.49 365.455Z" fill="black"/>
</g>
<path d="M987.456 469.008H12.4746V568.06H987.456V469.008Z" fill="#FF8600"/>
<g style="mix-blend-mode:overlay" opacity="0.3">
<path d="M987.456 471.642H512.472H12.4746V568.059H512.472H987.456H1440V471.642H987.456Z" fill="black"/>
</g>
<path d="M987.456 471.642H26.439L37.2473 568.059H512.472H1440V471.642H987.456Z" fill="#FF8600"/>
<path d="M25.2733 568.06H-32.3026L-44.7579 480.281L-45.1011 477.976H12.4748L12.818 480.281L25.2733 568.06Z" fill="#FF8600"/>
<g style="mix-blend-mode:overlay" opacity="0.3">
<path d="M512.471 471.642H-142V480.28H512.471H1440V471.642H512.471Z" fill="black"/>
</g>
<path d="M134.092 442.727C134.092 442.727 76.8231 388.525 111.257 329.131C145.692 269.737 100.922 222 100.922 222C100.922 222 171.493 260.846 173.366 315.608C175.214 370.37 115.829 378.635 148.95 445.01L134.116 442.727H134.092Z" fill="#41AE9B"/>
<g style="mix-blend-mode:overlay" opacity="0.3">
<path d="M134.092 442.727C134.092 442.727 76.8231 388.525 111.257 329.131C145.692 269.737 100.922 222 100.922 222C100.922 222 171.493 260.846 173.366 315.608C175.214 370.37 115.829 378.635 148.95 445.01L134.116 442.727H134.092Z" fill="black"/>
</g>
<path d="M109.628 446.612C109.628 446.612 153.595 377.252 95.7671 333.478C37.9388 289.692 64.2752 245.808 64.2752 245.808C64.2752 245.808 -0.143314 309.329 62.1352 357.791C124.414 406.252 94.8187 456.832 94.8187 456.832L109.628 446.612Z" fill="#41AE9B"/>
<path d="M172.976 447.601C172.976 447.601 162.593 387.998 207.605 346.957C252.618 305.916 217.989 261.944 201.38 251.198C201.38 251.198 217.016 285.884 177.354 307.869C137.667 329.855 132.146 388.975 163.298 445.888L173.001 447.601H172.976Z" fill="#41AE9B"/>
<path d="M195.543 442.957L194.4 447.732L193.476 451.585L193.403 451.936L193.233 452.693L190.023 465.997H76.1904L72.9561 452.693L71.7645 447.732L71.7159 447.534L70.6216 442.957H195.543Z" fill="#91562F"/>
<g style="mix-blend-mode:overlay" opacity="0.3">
<path d="M195.567 442.946L194.424 447.743L193.476 451.585L193.403 451.947L193.233 452.693L190.023 466.008H140.681C148.293 460.794 151.187 455.602 152.257 452.693H72.9798L71.7639 447.743L71.7153 447.545L70.5967 442.957H195.567V442.946Z" fill="black"/>
</g>
<path d="M205.854 447.732H58.9732L54.5474 426.514H210.256L205.854 447.732Z" fill="#91562F"/>
<defs>
<clipPath id="clip0_56_5985">
<rect width="608" height="515.962" fill="white" transform="translate(93 52.0981)"/>
</clipPath>
</defs>
</svg>
