<svg width="502" height="502" viewBox="0 0 502 502" fill="none" xmlns="http://www.w3.org/2000/svg">
<circle cx="251" cy="251" r="251" fill="#DFC57D" fill-opacity="0.41"/>
<g clip-path="url(#clip0_115_7)">
<path d="M390.848 324.967L389.493 338.13L388.639 346.358L375.951 469.009C371.41 470.473 367.573 471.124 363.737 467.22C363.737 467.22 361.216 420.236 361.216 379.298C361.216 371.246 361.351 361.405 361.555 351.36C361.65 346.955 361.744 342.495 361.853 338.143C362.395 316.224 363.086 296.69 363.086 296.69L390.848 324.981V324.967Z" fill="#FCBB8C"/>
<path d="M361.853 338.13H389.479L388.625 346.358C385.711 346.073 380.804 346.155 376.479 348.839C372.345 351.401 365.879 351.591 361.555 351.36C361.65 346.955 361.744 342.495 361.853 338.143V338.13Z" fill="#FB927E"/>
<path d="M431.976 465.959L420.901 467.532L406.668 351.482L405.028 338.116L403.631 326.689L428.547 298.453C428.547 298.453 429.523 317.064 430.634 338.116C430.824 341.709 431.014 345.382 431.217 349.042C432.003 363.777 432.789 378.363 433.305 387.526C434.701 412.252 431.99 465.959 431.99 465.959H431.976Z" fill="#FCBB8C"/>
<path d="M431.217 349.042C429.143 348.568 426.757 348.066 424.642 347.795C419.708 347.131 410.789 351.902 406.681 351.496L405.041 338.13H430.634C430.824 341.722 431.014 345.396 431.217 349.056V349.042Z" fill="#FB927E"/>
<path d="M450.018 339.458C450.018 339.458 449.869 339.919 449.462 340.597C448.026 342.996 443.349 348.012 430.661 344.121C430.254 344 429.861 343.878 429.468 343.783C426.825 343.091 424.629 342.956 422.663 343.105C415.208 343.674 410.721 348.405 395.687 343.525C382.132 339.119 378.472 342.495 372.033 344.203C370.772 344.542 369.39 344.813 367.817 344.935C367.058 345.003 366.313 345.003 365.553 344.962C359.589 344.637 353.963 341.221 350.602 338.74C348.609 337.262 347.416 336.124 347.416 336.124C347.741 334.999 348.08 333.792 348.419 332.518C349.734 327.597 351.09 321.633 352.459 315.113C352.865 313.161 353.286 311.154 353.692 309.107C354.682 304.16 355.671 299.009 356.62 293.844C356.62 293.844 356.62 293.79 356.634 293.749C357.027 291.621 357.42 289.479 357.8 287.364C357.813 287.269 357.84 287.161 357.854 287.066C359.074 280.261 360.212 273.619 361.216 267.6C361.595 265.296 361.961 263.1 362.3 261.012C364.171 249.544 365.377 241.628 365.377 241.628L401.76 244.19L438.13 244C438.13 244 438.482 248.026 439.092 254.519C439.296 256.552 439.499 258.83 439.743 261.31C440.38 267.817 441.18 275.652 442.088 283.948C442.332 286.117 442.576 288.313 442.82 290.523C444.596 306.03 446.711 322.283 448.852 333.792C449.232 335.839 449.625 337.75 450.005 339.472L450.018 339.458Z" fill="#3C3C48"/>
<path d="M373.388 252.798C373.321 254.682 371.748 256.173 369.85 256.105C367.966 256.037 366.475 254.465 366.543 252.567C366.611 250.683 368.183 249.192 370.081 249.26C371.965 249.327 373.456 250.9 373.388 252.798Z" fill="#445279"/>
<path d="M381.454 266.34C381.386 268.224 379.814 269.715 377.916 269.647C376.032 269.579 374.541 268.007 374.609 266.109C374.676 264.225 376.249 262.734 378.147 262.802C380.044 262.869 381.522 264.442 381.454 266.34Z" fill="#445279"/>
<path d="M398.385 260.036C398.317 261.92 396.745 263.411 394.847 263.344C392.963 263.276 391.472 261.703 391.539 259.806C391.607 257.921 393.18 256.43 395.077 256.498C396.962 256.566 398.453 258.138 398.385 260.036Z" fill="#445279"/>
<path d="M371.328 280.112C371.26 281.996 369.688 283.487 367.79 283.42C365.906 283.352 364.415 281.779 364.483 279.882C364.55 277.997 366.123 276.506 368.021 276.574C369.905 276.642 371.396 278.214 371.328 280.112Z" fill="#445279"/>
<path d="M392.258 279.326C392.19 281.21 390.618 282.701 388.72 282.633C386.822 282.565 385.345 280.993 385.412 279.095C385.48 277.197 387.053 275.72 388.95 275.788C390.848 275.855 392.326 277.428 392.258 279.326Z" fill="#445279"/>
<path d="M364.429 264.293C364.374 266.068 362.964 267.492 361.216 267.6C361.595 265.296 361.961 263.1 362.3 261.012C363.588 261.541 364.469 262.815 364.429 264.293Z" fill="#445279"/>
<path d="M425.645 300.54C425.577 302.424 424.005 303.916 422.107 303.848C420.223 303.78 418.732 302.208 418.8 300.31C418.867 298.412 420.44 296.934 422.338 297.002C424.222 297.07 425.713 298.642 425.645 300.54Z" fill="#445279"/>
<path d="M424.629 281.834C424.561 283.718 422.988 285.209 421.091 285.141C419.206 285.073 417.715 283.501 417.783 281.603C417.851 279.719 419.423 278.228 421.321 278.296C423.205 278.363 424.696 279.936 424.629 281.834Z" fill="#445279"/>
<path d="M442.834 290.509C442.414 290.672 441.953 290.753 441.478 290.739C439.594 290.672 438.103 289.099 438.171 287.201C438.238 285.317 439.811 283.826 441.709 283.894C441.844 283.894 441.966 283.907 442.102 283.935C442.346 286.103 442.59 288.299 442.834 290.509Z" fill="#445279"/>
<path d="M427.001 314.259C426.933 316.143 425.36 317.634 423.463 317.566C421.578 317.498 420.087 315.926 420.155 314.028C420.223 312.13 421.795 310.653 423.693 310.721C425.591 310.788 427.068 312.361 427.001 314.259Z" fill="#445279"/>
<path d="M441.83 309.27C441.762 311.154 440.19 312.646 438.292 312.578C436.408 312.51 434.917 310.938 434.985 309.04C435.052 307.156 436.625 305.664 438.523 305.732C440.407 305.8 441.898 307.372 441.83 309.27Z" fill="#445279"/>
<path d="M411.547 320.806C411.48 322.69 409.907 324.181 408.009 324.113C406.125 324.046 404.634 322.473 404.702 320.575C404.77 318.691 406.342 317.2 408.24 317.268C410.124 317.336 411.615 318.908 411.547 320.806Z" fill="#445279"/>
<path d="M406.993 335.825C406.925 337.71 405.353 339.201 403.455 339.133C401.571 339.065 400.079 337.493 400.147 335.595C400.215 333.711 401.787 332.22 403.685 332.287C405.569 332.355 407.061 333.928 406.993 335.825Z" fill="#445279"/>
<path d="M372.087 343.661C372.087 343.85 372.06 344.027 372.02 344.203C370.759 344.542 369.376 344.813 367.804 344.935C367.045 345.003 366.299 345.003 365.54 344.962C365.323 344.501 365.215 343.972 365.228 343.43C365.296 341.532 366.868 340.055 368.766 340.123C370.664 340.19 372.142 341.763 372.087 343.661Z" fill="#445279"/>
<path d="M429.482 343.62C429.482 343.62 429.482 343.728 429.482 343.783C426.838 343.091 424.642 342.956 422.677 343.105C422.88 341.356 424.398 340.028 426.188 340.082C428.072 340.15 429.563 341.722 429.495 343.62H429.482Z" fill="#445279"/>
<path d="M441.912 326.893C441.844 328.777 440.272 330.268 438.374 330.2C436.49 330.132 434.998 328.56 435.066 326.662C435.134 324.778 436.706 323.287 438.604 323.355C440.488 323.422 441.98 324.995 441.912 326.893Z" fill="#445279"/>
<path d="M450.018 339.458C450.018 339.458 449.869 339.919 449.462 340.597C449.3 340.624 449.137 340.624 448.961 340.624C447.076 340.556 445.585 338.984 445.653 337.086C445.707 335.31 447.131 333.887 448.866 333.779C449.245 335.825 449.638 337.737 450.018 339.458Z" fill="#445279"/>
<path d="M368.373 301.652C368.305 303.536 366.732 305.027 364.835 304.959C362.95 304.892 361.459 303.319 361.527 301.421C361.595 299.524 363.167 298.046 365.065 298.114C366.949 298.182 368.44 299.754 368.373 301.652Z" fill="#445279"/>
<path d="M359.697 290.55C359.643 292.285 358.301 293.681 356.606 293.844C356.606 293.817 356.606 293.789 356.62 293.762C357.013 291.634 357.406 289.492 357.786 287.378C358.952 287.961 359.738 289.181 359.697 290.563V290.55Z" fill="#445279"/>
<path d="M354.993 311.927C354.939 313.472 353.868 314.746 352.445 315.126C352.851 313.174 353.272 311.168 353.678 309.121C354.505 309.772 355.034 310.802 354.993 311.927Z" fill="#445279"/>
<path d="M376.479 314.069C376.411 315.953 374.839 317.444 372.941 317.376C371.057 317.309 369.566 315.736 369.634 313.838C369.701 311.954 371.274 310.463 373.172 310.531C375.056 310.599 376.547 312.171 376.479 314.069Z" fill="#445279"/>
<path d="M394.63 311.981C394.562 313.865 392.99 315.356 391.092 315.289C389.208 315.221 387.717 313.648 387.784 311.751C387.852 309.866 389.425 308.375 391.322 308.443C393.207 308.511 394.698 310.083 394.63 311.981Z" fill="#445279"/>
<path d="M382.294 294.725C382.226 296.609 380.654 298.1 378.756 298.033C376.872 297.965 375.381 296.392 375.449 294.495C375.516 292.61 377.089 291.119 378.987 291.187C380.871 291.255 382.362 292.827 382.294 294.725Z" fill="#445279"/>
<path d="M400.784 291.905C400.717 293.79 399.144 295.281 397.246 295.213C395.349 295.145 393.871 293.573 393.939 291.675C394.007 289.791 395.579 288.3 397.477 288.367C399.361 288.435 400.852 290.008 400.784 291.905Z" fill="#445279"/>
<path d="M409.65 274.107C409.582 275.991 408.009 277.482 406.112 277.414C404.227 277.347 402.736 275.774 402.804 273.876C402.872 271.979 404.444 270.501 406.342 270.569C408.226 270.637 409.717 272.209 409.65 274.107Z" fill="#445279"/>
<path d="M439.743 261.297C439.499 261.351 439.255 261.365 439.011 261.351C437.113 261.283 435.636 259.711 435.703 257.813C435.758 255.969 437.262 254.505 439.092 254.505C439.296 256.539 439.499 258.816 439.743 261.297Z" fill="#445279"/>
<path d="M421.89 260.795C421.823 262.68 420.25 264.171 418.352 264.103C416.455 264.035 414.977 262.463 415.045 260.565C415.112 258.681 416.685 257.19 418.583 257.257C420.467 257.325 421.958 258.898 421.89 260.795Z" fill="#445279"/>
<path d="M434.036 273.402C433.968 275.286 432.396 276.777 430.498 276.71C428.614 276.642 427.122 275.069 427.19 273.172C427.258 271.287 428.83 269.796 430.728 269.864C432.612 269.932 434.104 271.504 434.036 273.402Z" fill="#445279"/>
<path d="M412.13 303.075C412.063 304.959 410.49 306.45 408.593 306.383C406.708 306.315 405.217 304.742 405.285 302.845C405.353 300.96 406.925 299.469 408.823 299.537C410.721 299.605 412.198 301.177 412.13 303.075Z" fill="#445279"/>
<path d="M364.184 325.13C364.116 327.014 362.544 328.505 360.646 328.438C358.762 328.37 357.271 326.797 357.339 324.9C357.406 323.015 358.979 321.524 360.877 321.592C362.761 321.66 364.252 323.232 364.184 325.13Z" fill="#445279"/>
<path d="M387.243 328.546C387.175 330.43 385.603 331.921 383.705 331.854C381.821 331.786 380.329 330.213 380.397 328.316C380.465 326.431 382.037 324.94 383.935 325.008C385.819 325.076 387.311 326.648 387.243 328.546Z" fill="#445279"/>
<path d="M352.052 336.056C352.011 337.168 351.456 338.157 350.602 338.754C348.609 337.276 347.416 336.137 347.416 336.137C347.741 335.012 348.08 333.806 348.419 332.531C348.528 332.531 348.622 332.531 348.731 332.531C350.629 332.599 352.106 334.172 352.052 336.07V336.056Z" fill="#445279"/>
<path d="M440.299 244.949C420.739 256.837 385.589 254.709 363.846 242.468C366.381 229.387 369.593 216.306 369.566 198.779C369.566 196.854 369.539 194.942 369.512 193.058C369.485 191.404 369.431 189.778 369.39 188.151C368.427 158.966 364.239 134.986 366.774 131.99C367.885 130.675 369.702 129.279 371.952 127.869C372.833 127.314 373.768 126.744 374.758 126.188C377.103 124.86 379.692 123.532 382.295 122.244C388.476 119.194 394.739 116.388 397.897 114.436C400.92 115.873 403.333 116.686 405.977 116.754C406.044 116.754 406.126 116.754 406.207 116.754C406.275 116.754 406.356 116.754 406.424 116.767C409.054 116.862 411.521 116.212 414.639 114.978C417.445 116.984 422.758 119.817 428.181 122.894C432.166 125.158 436.192 127.558 439.323 129.862C441.37 131.367 443.037 132.831 444.041 134.186C445.206 135.745 444.474 142.428 443.119 152.297C441.777 162.016 439.825 174.839 438.442 188.964C438.063 192.882 437.71 196.908 437.439 200.988C436.273 218.475 438.618 231.732 440.313 244.963L440.299 244.949Z" fill="#BF9623"/>
<path d="M427.299 230.81C411.873 230.241 398.927 222.799 390.794 216.645C381.996 209.989 376.737 203.374 376.683 203.306C376.425 202.981 376.479 202.52 376.805 202.262C377.13 202.005 377.591 202.059 377.848 202.384C377.903 202.452 383.054 208.945 391.716 215.479C399.673 221.484 412.32 228.764 427.353 229.319C427.76 229.333 428.085 229.685 428.072 230.092C428.058 230.499 427.719 230.824 427.299 230.81Z" fill="#CA9F26"/>
<path d="M411.046 235.528C397.653 235.094 384.559 227.028 383.962 226.662C383.61 226.446 383.501 225.985 383.718 225.646C383.935 225.293 384.396 225.198 384.735 225.402C384.884 225.497 400.31 234.986 414.286 233.996C414.706 233.969 415.045 234.281 415.086 234.687C415.113 235.094 414.801 235.446 414.394 235.487C413.283 235.568 412.158 235.582 411.046 235.541V235.528Z" fill="#CA9F26"/>
<path d="M401.896 152.107C401.544 152.107 401.245 151.836 401.191 151.483C401.123 151.076 401.408 150.697 401.815 150.629C420.738 147.674 426.798 135.759 426.865 135.637C427.042 135.271 427.489 135.122 427.855 135.298C428.221 135.474 428.37 135.921 428.194 136.287C427.936 136.802 421.728 149.016 402.045 152.093C402.004 152.093 401.95 152.093 401.91 152.093L401.896 152.107Z" fill="#CA9F26"/>
<path d="M428.18 122.881C424.167 131.272 415.017 142.536 403.156 140.096C391.661 137.724 386.063 128.683 382.308 122.23C388.489 119.18 394.752 116.374 397.91 114.422C400.933 115.859 403.346 116.672 405.976 116.74C406.043 116.74 406.125 116.74 406.206 116.74C406.274 116.74 406.355 116.74 406.423 116.754C409.053 116.849 411.52 116.198 414.638 114.964C417.444 116.971 422.757 119.804 428.18 122.881Z" fill="#FCBB8C"/>
<path d="M405.569 128.899C417.756 129.293 420.291 117.743 420.318 117.621C420.399 117.242 420.155 116.876 419.776 116.794C419.396 116.727 419.03 116.957 418.949 117.337C418.854 117.77 416.604 127.856 405.61 127.503C394.589 127.151 392.597 117.567 392.529 117.16C392.461 116.781 392.095 116.537 391.716 116.605C391.336 116.672 391.092 117.038 391.16 117.418C391.187 117.526 393.41 128.493 405.569 128.886V128.899Z" fill="white"/>
<path d="M388.394 80.4923C388.394 80.4923 384.951 75.5716 382.145 79.462C379.339 83.3389 382.742 95.1865 389.384 92.5432L388.394 80.5058V80.4923Z" fill="#FB927E"/>
<path d="M388.069 88.8561C387.825 88.8561 387.609 88.6799 387.554 88.4359C386.66 84.7894 382.959 83.1899 382.918 83.1763C382.634 83.0543 382.498 82.729 382.62 82.4579C382.742 82.1732 383.067 82.0376 383.339 82.1596C383.515 82.2274 387.595 83.9625 388.625 88.1783C388.693 88.4766 388.517 88.7748 388.219 88.8426C388.164 88.8426 388.124 88.8561 388.069 88.8561Z" fill="#E6765D"/>
<path d="M384.355 86.9177C384.246 86.9177 384.151 86.877 384.057 86.8228C383.799 86.6466 383.745 86.3077 383.921 86.0501C383.948 86.0094 384.639 85.0199 386.049 84.437C386.334 84.315 386.659 84.4505 386.768 84.7352C386.89 85.0199 386.754 85.3452 386.469 85.4537C385.385 85.901 384.829 86.6601 384.829 86.6601C384.721 86.8228 384.531 86.9041 384.355 86.9041V86.9177Z" fill="#E6765D"/>
<path d="M425.482 81.6987C425.482 81.6987 429.237 77.0221 431.786 81.0752C434.334 85.1283 430.173 96.7319 423.707 93.6548L425.482 81.6987Z" fill="#FB927E"/>
<path d="M425.252 90.076C425.496 90.076 425.726 89.9269 425.794 89.6829C426.933 86.1042 430.728 84.7486 430.756 84.7351C431.04 84.6402 431.203 84.3149 431.094 84.0302C431 83.7455 430.674 83.5829 430.39 83.6913C430.213 83.7455 426.025 85.2231 424.723 89.344C424.628 89.6422 424.791 89.9404 425.089 90.0353C425.144 90.0489 425.184 90.0624 425.238 90.0624L425.252 90.076Z" fill="#E6765D"/>
<path d="M429.102 88.3682C429.21 88.3682 429.305 88.3411 429.4 88.2868C429.657 88.1242 429.752 87.7853 429.59 87.5277C429.562 87.4871 428.939 86.4568 427.57 85.7791C427.299 85.6435 426.96 85.7655 426.824 86.0366C426.689 86.3077 426.811 86.6466 427.082 86.7822C428.139 87.2973 428.641 88.0971 428.641 88.0971C428.736 88.2597 428.912 88.3546 429.102 88.3682Z" fill="#E6765D"/>
<path d="M415.086 103.32L414.706 114.978C414.706 114.978 411.032 120.793 406.329 121.051C401.625 121.308 397.626 115.655 397.626 115.655L398.019 103.591L415.086 103.32Z" fill="#FCBB8C"/>
<path d="M415.085 103.32L414.922 108.485C411.655 111.887 406.016 112.944 397.761 111.453L398.018 103.591L415.085 103.32Z" fill="#FB927E"/>
<path d="M428.343 73.7823C427.977 78.3098 427.367 83.949 426.35 88.4494C426.092 89.5745 425.821 90.6319 425.523 91.5672C422.785 100.08 416.183 114.598 399.198 107.915C391.702 104.96 388.462 96.393 387.174 87.7581C386.307 81.8885 386.334 75.9918 386.551 71.776C386.768 67.4789 389.248 63.6291 393.057 61.6229C403.387 56.2007 414.014 58.6949 420.968 61.6229C425.794 63.6562 428.763 68.5634 428.343 73.7687V73.7823Z" fill="#FCBB8C"/>
<path d="M399.049 81.5359C399.008 82.7831 398.331 83.7726 397.544 83.7455C396.758 83.7184 396.148 82.6882 396.189 81.4411C396.23 80.1939 396.907 79.2044 397.694 79.2315C398.48 79.2586 399.09 80.2888 399.049 81.5359Z" fill="#3C3C48"/>
<path d="M416.739 82.119C416.698 83.3661 416.021 84.3556 415.234 84.3285C414.448 84.3014 413.838 83.2712 413.879 82.0241C413.92 80.777 414.597 79.7874 415.384 79.8145C416.17 79.8416 416.78 80.8718 416.739 82.119Z" fill="#3C3C48"/>
<path d="M395.307 74.6904C396.514 74.3922 398.927 73.8906 401.462 73.9719C402.126 73.9855 402.614 74.5955 402.478 75.2597C402.37 75.8019 401.882 76.1544 401.353 76.1137C399.632 75.9782 395.091 76.0731 392.935 76.8728C392.908 76.4933 393.139 76.1002 393.464 75.7477C393.952 75.2191 394.616 74.8802 395.307 74.7039V74.6904Z" fill="#3C3C48"/>
<path d="M418.434 75.4904C417.254 75.1108 414.869 74.4602 412.334 74.3788C411.669 74.3517 411.141 74.9346 411.236 75.5853C411.317 76.1275 411.764 76.5206 412.307 76.5071C414.028 76.48 418.556 76.8731 420.657 77.8084C420.711 77.4424 420.508 77.0222 420.209 76.6562C419.762 76.1004 419.125 75.7073 418.434 75.4904Z" fill="#3C3C48"/>
<path d="M406.776 92.0552C406.356 92.0416 405.935 91.9468 405.583 91.7299C405.271 91.5265 404.878 91.1199 404.824 90.3472C404.675 88.3003 405.407 81.9427 405.434 81.6716C405.474 81.3734 405.746 81.143 406.044 81.1836C406.342 81.2243 406.559 81.4954 406.532 81.7936C406.532 81.8614 405.786 88.3274 405.922 90.2659C405.949 90.6048 406.084 90.7268 406.179 90.7945C406.694 91.1199 407.901 90.8488 408.402 90.659C408.687 90.5505 409.012 90.6996 409.107 90.9843C409.216 91.269 409.067 91.5943 408.782 91.6892C408.633 91.7434 407.698 92.0823 406.762 92.0416L406.776 92.0552Z" fill="#FB927E"/>
<path d="M399.632 95.322C399.985 97.4367 401.245 101.368 405.936 101.517C410.639 101.666 412.063 98.1687 412.591 95.7422L399.632 95.322Z" fill="white"/>
<path d="M405.759 104.743C404.404 104.703 403.238 103.93 403.184 103.903C402.926 103.74 402.858 103.388 403.035 103.13C403.197 102.873 403.55 102.805 403.807 102.981C403.807 102.981 404.77 103.605 405.8 103.645C406.912 103.686 407.942 103.117 407.942 103.117C408.213 102.967 408.552 103.062 408.701 103.333C408.85 103.605 408.755 103.93 408.484 104.093C408.43 104.12 407.196 104.811 405.759 104.757V104.743Z" fill="#FB927E"/>
<path d="M430.593 72.9555C430.403 73.457 429.902 73.7688 429.224 73.9315C429.224 75.1515 429.061 76.6155 428.885 78.0252C427.936 86.0095 425.876 87.3515 425.482 85.3453C425.225 84.0168 425.482 76.4799 425.713 74.0399C424.14 73.8908 422.798 73.579 422.798 73.579L421.199 65.7439L420.304 73.3892C417.485 74.2703 411.046 72.5081 411.046 72.5081L409.121 64.7814L407.535 72.1014C403.292 73.9992 398.114 72.4674 398.114 72.4674L397.165 64.4832L394.142 72.3454C394.142 72.3454 390.889 73.3892 388.286 73.5383C388.462 76.4257 388.747 82.2681 388.177 82.9324C386.185 85.2504 385.412 81.387 385.602 77.6999C385.697 75.8699 385.819 74.3246 385.9 73.2401C385.426 73.0097 385.127 72.6301 385.127 72.0608C385.127 70.2037 386.659 65.0119 387.947 60.9859C389.343 56.6074 392.366 52.961 396.365 50.9818C407.603 45.4105 419.193 48.9485 423.124 51.4698C431.46 56.8243 430.579 72.9555 430.579 72.9555H430.593Z" fill="#3C3C48"/>
<path d="M411.235 61.9347C420.002 61.9347 427.109 54.8278 427.109 46.0611C427.109 37.2944 420.002 30.1875 411.235 30.1875C402.469 30.1875 395.362 37.2944 395.362 46.0611C395.362 54.8278 402.469 61.9347 411.235 61.9347Z" fill="#3C3C48"/>
<path d="M427.814 94.0478C427.787 94.7663 427.19 95.322 426.472 95.3085C425.753 95.2814 425.198 94.6849 425.211 93.9665C425.238 93.248 425.835 92.6923 426.553 92.7058C427.272 92.7329 427.827 93.3294 427.814 94.0478Z" fill="white"/>
<path d="M422.473 81.1294C422.338 80.7769 422.189 80.438 421.999 80.1263C421.267 78.852 420.155 77.8354 418.8 77.2254C418.013 76.8729 417.132 76.6696 416.224 76.6289C415.885 76.6289 415.56 76.6289 415.235 76.6696C412.876 76.9271 410.842 78.3911 409.812 80.438C409.622 80.804 409.473 81.1836 409.351 81.5903C409.189 82.146 409.094 82.7289 409.08 83.3254C408.958 87.148 411.954 90.3472 415.777 90.4692C419.599 90.5912 422.799 87.5954 422.921 83.7727C422.948 82.8509 422.799 81.9563 422.487 81.1294H422.473ZM415.804 89.3983C412.578 89.3034 410.043 86.5923 410.151 83.366C410.26 80.1398 412.957 77.6049 416.183 77.7134C419.41 77.8218 421.945 80.5194 421.836 83.7456C421.728 86.9718 419.03 89.5067 415.804 89.3983Z" fill="white"/>
<path d="M403.807 81.4003C403.725 80.9937 403.59 80.6141 403.441 80.2481C402.519 78.0657 400.513 76.439 398.073 76.0866C397.815 76.0459 397.544 76.0188 397.273 76.0188C396.378 75.9917 395.524 76.1272 394.725 76.4254C393.274 76.9406 392.041 77.9301 391.227 79.2179C391.024 79.5297 390.848 79.8686 390.699 80.221C390.36 80.9937 390.17 81.8341 390.143 82.7152C390.021 86.5379 393.017 89.737 396.839 89.859C400.662 89.981 403.861 86.9852 403.983 83.1626C403.997 82.5526 403.942 81.9697 403.82 81.4139L403.807 81.4003ZM396.866 88.7746C393.64 88.6661 391.105 85.9686 391.214 82.7423C391.322 79.5161 394.033 76.9812 397.246 77.0897C400.459 77.1981 403.007 79.8957 402.899 83.1219C402.79 86.3481 400.093 88.883 396.866 88.7746Z" fill="white"/>
<path d="M425.483 78.418C423.07 79.028 421.551 80.4784 421.443 80.5733C421.226 80.7766 421.213 81.1155 421.416 81.3324C421.511 81.4409 421.66 81.4951 421.795 81.5086C421.931 81.5086 422.067 81.468 422.175 81.3731C422.202 81.3595 423.436 80.1802 425.442 79.5973L425.483 78.4315V78.418Z" fill="white"/>
<path d="M391.58 79.5297C391.458 79.4483 390.495 78.3639 388.299 77.5234L388.177 78.879C390.102 79.6788 390.929 80.3972 390.956 80.4243C391.051 80.4921 391.146 80.5192 391.254 80.5192C391.431 80.5192 391.607 80.4379 391.715 80.2888C391.878 80.0448 391.824 79.7059 391.58 79.5297Z" fill="white"/>
<path d="M403.658 81.5901C403.658 81.5901 405.013 79.8821 406.694 79.9363C408.361 79.9905 409.459 81.7528 409.473 81.7799L410.395 81.2241C410.34 81.1292 408.985 78.9332 406.721 78.8654C404.484 78.7976 402.858 80.8445 402.79 80.9394L403.644 81.6036L403.658 81.5901Z" fill="white"/>
<path d="M369.39 188.151C368.427 158.966 364.239 134.986 366.773 131.99C367.885 130.675 369.702 129.279 371.952 127.869C373.85 138.415 378.458 170.135 369.39 188.164V188.151Z" fill="#FCBB8C"/>
<path d="M443.119 152.296C441.777 162.016 439.825 174.839 438.442 188.964C431.529 170.474 436.761 140.381 439.323 129.862C441.37 131.366 443.037 132.83 444.041 134.186C445.206 135.745 444.474 142.428 443.119 152.296Z" fill="#FCBB8C"/>
<path d="M464.834 214.517C462.421 225.239 455.386 235.419 450.167 241.804C450.167 241.804 450.158 241.813 450.14 241.831C446.724 246.033 444.08 248.595 444.08 248.595L437.275 242.549C437.275 242.549 441.057 236.355 444.487 227.489C447.727 219.153 450.655 208.416 449.814 198.277V198.25C449.801 198.019 449.774 197.789 449.747 197.558L449.408 196.637V196.61L437.275 164.429L444.284 134.647C444.284 134.647 459.249 172.589 464.075 191.594C464.075 191.594 467.843 201.096 464.834 214.489V214.517Z" fill="#FCBB8C"/>
<path d="M458.87 195.335C458.897 195.756 458.626 196.122 458.232 196.23C455.169 196.948 452.363 197.626 449.814 198.291V198.263C449.801 198.033 449.774 197.803 449.747 197.572L449.408 196.65C451.956 195.986 454.776 195.295 457.839 194.576C458.3 194.468 458.748 194.752 458.856 195.213C458.87 195.254 458.883 195.295 458.883 195.335H458.87Z" fill="#FB927E"/>
<path d="M437.262 242.549L444.067 248.595C444.067 248.595 446.71 246.033 450.126 241.831C450.126 241.831 450.13 241.822 450.139 241.804C449.882 236.178 447.686 228.628 444.46 227.503C441.03 236.354 437.248 242.563 437.248 242.563L437.262 242.549Z" fill="#FB927E"/>
<path d="M439.133 237.059C438.062 237.249 432.355 238.198 432.748 236.165C433.182 233.914 438.455 230.783 438.455 230.783C438.455 230.783 438.455 230.715 438.414 230.485L438.36 229.956L437.899 225.686C438.984 225.564 439.228 225.686 439.797 225.781C442.359 226.256 443.742 231.583 443.742 231.583C443.742 231.583 446.981 232.342 447.13 234.633C447.28 236.924 444.812 237.561 444.812 237.561C444.812 237.561 448.432 238.876 447.862 240.909C447.28 242.943 444.758 243.81 444.758 243.81C444.758 243.81 447.917 245.41 447.049 246.901C446.182 248.392 443.864 249.341 443.864 249.341C443.864 249.341 446.236 251.876 444.324 253.638C442.413 255.387 439.309 255.414 437.262 254.953C435.215 254.492 435.269 251.943 438.929 249.68C438.929 249.68 435.554 250.412 433.507 247.755C431.813 245.545 435.324 244.095 438.387 243.336C435.974 243.783 431.758 244.19 430.769 241.953C429.468 239.011 437.831 237.317 439.146 237.073L439.133 237.059Z" fill="#FCBB8C"/>
<path d="M425.523 465.62C425.523 465.62 431.556 464.021 433.223 464.048C434.89 464.088 446.046 476.587 449.815 477.332C456.633 478.674 456.633 489.329 452.485 489.858C440.475 491.376 419.938 486.279 419.938 486.279C419.938 486.279 418.054 472.601 418.895 468.318C419.722 464.034 422.175 466.881 425.537 465.62H425.523Z" fill="#CA9F26"/>
<path d="M435.446 477.305C435.229 477.346 434.999 477.305 434.809 477.183C434.429 476.925 434.321 476.41 434.578 476.031C434.66 475.909 436.707 472.899 439.228 471.856C442.59 470.459 444.975 472.479 445.084 472.574C445.436 472.872 445.463 473.401 445.165 473.753C444.867 474.106 444.338 474.133 443.986 473.835C443.918 473.78 442.251 472.411 439.865 473.401C437.805 474.255 435.975 476.939 435.947 476.966C435.825 477.156 435.636 477.264 435.432 477.318L435.446 477.305Z" fill="white"/>
<path d="M433.155 474.784C432.938 474.824 432.708 474.784 432.518 474.662C432.138 474.404 432.03 473.889 432.287 473.509C432.369 473.387 434.416 470.378 436.937 469.334C440.299 467.938 442.684 469.958 442.793 470.053C443.145 470.351 443.173 470.88 442.874 471.232C442.576 471.585 442.047 471.612 441.695 471.313C441.627 471.259 439.96 469.89 437.574 470.88C435.5 471.734 433.684 474.418 433.656 474.445C433.534 474.635 433.345 474.743 433.141 474.797L433.155 474.784Z" fill="white"/>
<path d="M438.659 479.447C438.442 479.487 438.211 479.447 438.022 479.325C437.642 479.067 437.534 478.552 437.791 478.172C437.873 478.05 439.919 475.041 442.454 473.997C445.816 472.601 448.202 474.621 448.31 474.716C448.663 475.014 448.69 475.543 448.392 475.895C448.093 476.248 447.565 476.275 447.212 475.976C447.145 475.922 445.477 474.553 443.091 475.543C441.017 476.397 439.201 479.081 439.174 479.108C439.052 479.298 438.862 479.406 438.659 479.46V479.447Z" fill="white"/>
<path d="M366.543 468.874C366.543 468.874 363.872 465.254 361.744 465.403C359.616 465.553 343.105 478.552 337.466 479.61C331.827 480.667 332.179 487.689 334.403 488.461C336.937 489.343 378.702 488.136 378.702 488.136C378.702 488.136 380.139 473.252 378.716 469.253C377.292 465.254 370.935 469.836 366.529 468.86L366.543 468.874Z" fill="#CA9F26"/>
<path d="M357.42 477.956C357.623 478.01 357.84 477.997 358.043 477.888C358.423 477.671 358.559 477.197 358.342 476.817C358.274 476.695 356.566 473.699 354.248 472.52C351.171 470.948 348.758 472.683 348.663 472.764C348.31 473.022 348.243 473.523 348.5 473.862C348.758 474.215 349.259 474.282 349.598 474.025C349.666 473.984 351.347 472.805 353.529 473.916C355.414 474.879 356.945 477.563 356.959 477.59C357.067 477.78 357.23 477.902 357.42 477.956Z" fill="white"/>
<path d="M359.779 475.746C359.982 475.801 360.199 475.787 360.402 475.679C360.782 475.462 360.917 474.987 360.701 474.608C360.633 474.486 358.925 471.49 356.607 470.311C353.53 468.738 351.117 470.473 351.022 470.555C350.669 470.812 350.602 471.314 350.859 471.653C351.117 472.005 351.618 472.073 351.957 471.815C352.025 471.775 353.706 470.595 355.888 471.707C357.786 472.669 359.304 475.353 359.318 475.38C359.426 475.57 359.589 475.692 359.779 475.746Z" fill="white"/>
<path d="M354.221 479.759C354.424 479.813 354.641 479.8 354.844 479.691C355.224 479.474 355.359 479 355.142 478.62C355.075 478.498 353.367 475.502 351.049 474.323C347.971 472.751 345.559 474.486 345.464 474.567C345.111 474.825 345.043 475.326 345.301 475.665C345.559 476.018 346.06 476.085 346.399 475.828C346.467 475.787 348.148 474.608 350.33 475.733C352.228 476.695 353.746 479.379 353.76 479.406C353.868 479.596 354.031 479.718 354.221 479.772V479.759Z" fill="white"/>
<path d="M368.4 157.556C368.4 157.556 362.652 153.679 360.416 151.198C352.77 142.685 333.576 122.488 327.842 105.069C324.195 94.0073 318.203 42.6859 318.19 41.9403L327.842 39.6223C327.842 39.6223 327.842 39.663 327.869 39.7308C328.289 41.7641 334.728 72.1693 341.75 91.2556C341.939 91.7842 342.143 92.3129 342.346 92.828C342.726 93.804 343.092 94.7393 343.458 95.634C343.62 96.0271 343.783 96.4067 343.946 96.7998C344.176 97.3149 344.406 97.83 344.637 98.3316C351.523 113.148 361.568 121.444 364.184 123.437C364.591 123.748 371.043 128.439 371.043 128.439C373.863 144.651 368.386 157.542 368.386 157.542L368.4 157.556Z" fill="#FCBB8C"/>
<path d="M342.332 92.828C340.326 93.7362 338.157 94.7393 335.866 95.8373C335.487 96 335.04 95.878 334.809 95.5391C334.782 95.512 334.768 95.4713 334.755 95.4306C334.552 95.0104 334.714 94.5088 335.148 94.3055C337.507 93.194 339.703 92.1773 341.75 91.2419C341.939 91.7706 342.143 92.2993 342.346 92.8144L342.332 92.828Z" fill="#FB927E"/>
<path d="M326.255 41.398C326.255 41.398 330.295 37.9955 330.634 33.8069C330.973 29.6317 332.233 22.2982 329.821 18.6653C327.801 15.6288 328.221 23.3826 326.052 26.392C326.052 26.392 322.392 22.7048 320.223 19.4786C318.312 16.6319 314.028 11.6028 312.036 9.29835C311.493 8.66124 310.436 9.14924 310.599 9.97613C310.856 11.3046 311.846 13.5006 314.679 17.0522C314.679 17.0522 307.467 8.81035 305.57 9.42035C303.672 10.0304 312.89 20.1699 312.89 20.1699C312.89 20.1699 305.027 13.2295 303.794 14.3546C303.048 15.0459 310.179 23.5317 310.179 23.5317C310.179 23.5317 302.221 17.635 303.143 20.3462C303.414 21.1324 318.298 34.6609 318.691 44.9767C318.691 44.9767 323.965 44.0956 326.269 41.4115L326.255 41.398Z" fill="#FCBB8C"/>
<path d="M203.401 488.434H275.544C275.544 484.734 274.039 481.385 271.613 478.959C269.186 476.532 265.838 475.028 262.137 475.028H262.015C262.015 475.028 246.711 473.035 246.711 460.523V385.913H232.234V460.523C232.234 473.035 216.929 475.028 216.929 475.028H216.807C209.406 475.028 203.401 481.033 203.401 488.434Z" fill="#DEB747"/>
<path d="M170.095 385.913H308.85C306.559 373.252 295.512 364.048 282.647 364.089L239.473 364.197L196.298 364.089C183.434 364.048 172.386 373.252 170.095 385.913Z" fill="#CA9F26"/>
<path d="M268.956 223.775C272.576 237.154 290.821 272.006 297.911 276.994C307.129 283.501 336.043 295.701 351.076 301.923C353.787 303.048 343.729 314.923 343.729 314.923C343.729 314.923 304.838 305.027 288.991 294.915C284.504 292.054 274.799 282.335 262.504 262.856C258.776 256.945 250.141 245.22 249.192 236.829C248.094 227.177 258.952 220.549 268.956 223.775Z" fill="#CA9F26"/>
<path d="M371.464 456.416L378.445 469.199C378.445 469.199 382.891 469.66 388.625 464.739L383.271 449.719L371.464 456.416Z" fill="#FCBB8C"/>
<path d="M386.294 463.912C386.294 463.912 386.687 459.602 388.517 458.653C390.347 457.704 410.423 460.198 415.601 458.26C420.779 456.321 423.978 462.286 422.541 464.034C420.888 466.027 385.887 485.845 385.887 485.845C385.887 485.845 377.293 474.309 376.466 470.297C375.639 466.298 383.162 466.894 386.307 463.912H386.294Z" fill="#BF9623"/>
<path d="M398.345 466.854C398.21 467.003 398.02 467.098 397.803 467.111C397.383 467.111 397.03 466.799 397.017 466.379C397.017 466.244 396.922 462.923 398.25 460.794C399.999 457.975 402.846 458.192 402.968 458.205C403.388 458.246 403.7 458.612 403.659 459.032C403.618 459.452 403.252 459.764 402.832 459.723C402.751 459.723 400.785 459.588 399.538 461.594C398.467 463.329 398.535 466.298 398.535 466.325C398.535 466.528 398.467 466.718 398.345 466.854Z" fill="white"/>
<path d="M395.295 466.203C395.159 466.352 394.969 466.447 394.753 466.461C394.332 466.461 393.98 466.149 393.966 465.729C393.966 465.593 393.871 462.272 395.2 460.144C396.949 457.311 399.795 457.541 399.917 457.555C400.337 457.595 400.649 457.961 400.609 458.382C400.568 458.802 400.202 459.114 399.782 459.073C399.7 459.073 397.735 458.937 396.488 460.944C395.403 462.679 395.485 465.647 395.485 465.674C395.485 465.878 395.417 466.068 395.295 466.203Z" fill="white"/>
<path d="M401.869 466.732C401.734 466.881 401.544 466.976 401.327 466.989C400.907 466.989 400.555 466.677 400.541 466.257C400.541 466.122 400.446 462.801 401.775 460.672C403.523 457.839 406.37 458.07 406.492 458.083C406.912 458.124 407.224 458.49 407.183 458.91C407.143 459.33 406.777 459.642 406.356 459.601C406.275 459.601 404.309 459.466 403.062 461.472C401.978 463.207 402.059 466.176 402.059 466.203C402.059 466.406 401.991 466.596 401.869 466.732Z" fill="white"/>
<path d="M308.918 330.43C308.918 330.43 331.638 331.732 336.938 336.788C342.238 341.844 387.92 451.332 387.92 451.332C382.688 455.196 377.049 457.839 371.084 459.479C371.084 459.479 338.307 403.224 328.466 388.489C318.299 373.279 317.038 364.807 317.038 364.807L293.723 361.405L308.918 330.43Z" fill="#1A100E"/>
<path d="M224.223 206.722C224.223 206.722 208.62 211.819 200.27 219.139C191.92 226.459 198.115 248.338 198.698 260.741C200.406 296.433 200.541 345.233 218.326 354.288C231.76 361.134 283.976 351.008 279.841 332.586C277.09 320.331 272.386 301.042 268.766 270.569C266.381 250.466 271.193 232.125 268.956 223.775C266.72 215.425 240.584 205.868 240.584 205.868L224.209 206.722H224.223Z" fill="#BF9623"/>
<path d="M235.866 221.579C227.733 221.579 220.223 212.93 219.898 212.551C219.695 212.307 219.722 211.954 219.966 211.738C220.21 211.534 220.562 211.561 220.779 211.805C220.86 211.9 228.723 220.955 236.585 220.413C236.897 220.386 237.181 220.63 237.195 220.942C237.222 221.254 236.978 221.538 236.666 221.552C236.409 221.565 236.151 221.579 235.88 221.579H235.866Z" fill="#CA9F26"/>
<path d="M228.818 318.867C228.533 318.867 228.276 318.651 228.249 318.352C228.208 318.041 228.439 317.756 228.75 317.715C249.775 315.289 258.491 278.906 258.573 278.54C258.64 278.228 258.952 278.038 259.264 278.106C259.576 278.174 259.766 278.485 259.698 278.797C259.345 280.329 250.71 316.346 228.886 318.854C228.859 318.854 228.845 318.854 228.818 318.854V318.867Z" fill="#CA9F26"/>
<path d="M237.182 307.86C236.992 307.86 236.802 307.765 236.694 307.589C236.531 307.318 236.612 306.966 236.884 306.803C248.067 299.903 249.734 289.75 249.748 289.642C249.802 289.33 250.087 289.113 250.399 289.154C250.71 289.194 250.927 289.492 250.887 289.804C250.819 290.238 249.151 300.581 237.494 307.765C237.399 307.82 237.29 307.847 237.195 307.847L237.182 307.86Z" fill="#CA9F26"/>
<path d="M280.872 455.86L280.37 470.419C280.37 470.419 283.962 473.089 291.404 471.761L294.441 456.104L280.872 455.86Z" fill="#FCBB8C"/>
<path d="M289.832 469.863C289.832 469.863 292.367 466.352 294.427 466.474C296.488 466.596 312.497 478.958 317.933 479.921C323.369 480.883 323.097 487.648 320.969 488.42C318.529 489.301 278.31 488.542 278.31 488.542C278.31 488.542 276.778 474.228 278.106 470.364C279.435 466.501 285.603 470.839 289.832 469.876V469.863Z" fill="#BF9623"/>
<path d="M298.711 478.525C298.521 478.579 298.304 478.566 298.115 478.471C297.749 478.267 297.613 477.806 297.816 477.44C297.884 477.318 299.497 474.418 301.707 473.265C304.648 471.72 306.993 473.374 307.088 473.442C307.427 473.686 307.509 474.16 307.265 474.499C307.021 474.838 306.546 474.919 306.207 474.675C306.139 474.634 304.513 473.523 302.425 474.621C300.622 475.556 299.172 478.159 299.158 478.186C299.063 478.362 298.901 478.484 298.725 478.538L298.711 478.525Z" fill="white"/>
<path d="M296.406 476.41C296.217 476.464 296 476.451 295.81 476.356C295.444 476.153 295.308 475.692 295.512 475.326C295.579 475.204 297.193 472.303 299.402 471.151C302.344 469.605 304.689 471.259 304.784 471.327C305.123 471.571 305.204 472.045 304.96 472.384C304.716 472.723 304.241 472.804 303.903 472.56C303.835 472.52 302.208 471.408 300.121 472.506C298.304 473.455 296.867 476.044 296.854 476.071C296.759 476.247 296.596 476.369 296.42 476.424L296.406 476.41Z" fill="white"/>
<path d="M301.801 480.219C301.612 480.274 301.395 480.26 301.205 480.165C300.839 479.962 300.703 479.501 300.907 479.135C300.974 479.013 302.588 476.112 304.797 474.96C307.739 473.415 310.084 475.068 310.179 475.136C310.518 475.38 310.599 475.855 310.355 476.193C310.111 476.532 309.636 476.614 309.298 476.37C309.23 476.329 307.603 475.217 305.516 476.315C303.699 477.264 302.262 479.853 302.249 479.881C302.154 480.057 301.991 480.179 301.815 480.233L301.801 480.219Z" fill="white"/>
<path d="M209.19 358.07C209.556 358.626 209.962 359.127 210.383 359.602C213.121 362.665 217.12 364.495 222.61 364.495L287.406 364.17C281.672 385.913 281.007 402.681 280.37 408.076C275.585 448.567 278.594 455.86 278.594 455.86C279.109 456.375 279.774 456.89 280.519 457.351C280.994 457.663 281.509 457.948 282.065 458.191C285.969 460.103 291.513 461.12 295.837 459.764C295.837 459.764 335.27 337.682 320.847 333.114C304.092 327.8 205.164 331.84 205.164 331.84L204.378 338.984C203.578 346.48 205.936 353.339 209.19 358.056V358.07Z" fill="#3C3C48"/>
<path d="M293.384 360.428C293.804 360.971 293.939 361.635 293.777 362.286C290.55 375.855 280.506 420.954 280.519 457.351C280.994 457.663 281.509 457.947 282.065 458.191C281.861 421.808 292.014 376.275 295.268 362.652C295.525 361.54 295.268 360.388 294.563 359.48C293.858 358.585 292.787 358.07 291.635 358.07H209.176C209.542 358.626 209.949 359.127 210.369 359.602H291.635C292.313 359.602 292.936 359.913 293.37 360.428H293.384Z" fill="#1A100E"/>
<path d="M218.204 164.713C215.723 177.591 221.945 187.988 234.823 190.469C247.701 192.949 258.518 185.141 260.999 172.264C263.48 159.386 257.732 148.162 244.854 145.681C229.414 142.712 220.698 151.835 218.217 164.713H218.204Z" fill="#3C3C48"/>
<path d="M256.891 177.916C256.891 177.916 261.392 173.836 263.29 178.296C265.187 182.756 259.182 193.681 253.218 189.574L256.891 177.916Z" fill="#FB927E"/>
<path d="M255.333 186.253C255.577 186.294 255.821 186.185 255.943 185.955C257.651 182.552 261.65 181.807 261.69 181.807C261.989 181.752 262.206 181.468 262.151 181.156C262.097 180.858 261.812 180.641 261.501 180.695C261.311 180.722 256.905 181.536 254.94 185.453C254.804 185.724 254.913 186.063 255.184 186.199C255.224 186.226 255.279 186.239 255.333 186.253Z" fill="#E6765D"/>
<path d="M259.453 185.168C259.548 185.182 259.67 185.168 259.765 185.141C260.05 185.019 260.185 184.694 260.077 184.409C260.063 184.355 259.589 183.23 258.328 182.349C258.071 182.173 257.732 182.227 257.542 182.484C257.366 182.742 257.42 183.081 257.678 183.271C258.654 183.948 259.02 184.829 259.02 184.829C259.087 185.019 259.25 185.141 259.44 185.168H259.453Z" fill="#E6765D"/>
<path d="M243.065 197.87L240.706 210.124C240.706 210.124 237.317 213.839 233.386 213.554C227.896 213.161 223.708 207.115 223.708 207.115L225.958 195.417L243.065 197.87Z" fill="#FCBB8C"/>
<path d="M243.065 197.87L242.075 203.008C238.266 205.881 232.532 205.678 224.534 202.872L225.971 195.417L243.078 197.87H243.065Z" fill="#FB927E"/>
<path d="M218.163 170.23C218.082 170.908 218 171.599 217.946 172.304C217.784 174.066 217.675 175.883 217.662 177.713C217.662 177.781 217.662 177.835 217.662 177.903C217.567 186.741 219.451 195.823 226.473 199.958C242.373 209.338 251.293 195.877 255.373 187.812C255.821 186.917 256.268 185.914 256.702 184.83C256.715 184.789 256.729 184.748 256.756 184.694C257.23 183.474 257.705 182.173 258.139 180.817C258.464 179.814 258.776 178.797 259.074 177.767C259.819 175.259 260.47 172.738 261.012 170.488C262.259 165.35 260.077 159.982 255.577 157.176C249.097 153.137 238.863 148.948 227.693 152.73C223.558 154.126 220.481 157.583 219.573 161.839C219.071 164.198 218.556 167.099 218.177 170.257L218.163 170.23Z" fill="#FCBB8C"/>
<path d="M233.63 174.27C233.386 175.503 232.559 176.385 231.773 176.235C230.987 176.086 230.539 174.961 230.783 173.728C231.027 172.494 231.854 171.613 232.641 171.762C233.427 171.911 233.874 173.036 233.63 174.27Z" fill="#3C3C48"/>
<path d="M249.815 177.469C249.571 178.702 248.744 179.583 247.958 179.434C247.172 179.285 246.725 178.16 246.969 176.927C247.213 175.693 248.039 174.812 248.826 174.961C249.612 175.11 250.059 176.235 249.815 177.469Z" fill="#3C3C48"/>
<path d="M254.452 169.932C254.452 169.932 250.303 167.289 246.549 168.116L246.521 170.108C246.521 170.108 251.686 170.65 254.045 172.182C254.411 171.491 254.601 170.745 254.452 169.932Z" fill="#3C3C48"/>
<path d="M228.967 164.794C228.967 164.794 233.806 163.886 236.978 166.042L236.26 167.899C236.26 167.899 231.271 166.489 228.506 167.031C228.425 166.245 228.533 165.486 228.967 164.781V164.794Z" fill="#3C3C48"/>
<path d="M237.019 184.87C236.07 184.802 235.162 184.369 235.027 184.301C234.755 184.165 234.633 183.826 234.769 183.555C234.905 183.284 235.243 183.162 235.515 183.298C236.003 183.542 237.196 183.948 237.738 183.664C237.846 183.61 237.995 183.501 238.049 183.162C238.388 181.224 238.307 174.636 238.294 174.582C238.294 174.27 238.538 174.012 238.849 174.012C239.161 174.012 239.419 174.256 239.419 174.568C239.419 174.839 239.5 181.319 239.148 183.366C239.012 184.138 238.578 184.504 238.239 184.68C237.873 184.87 237.426 184.911 237.006 184.884L237.019 184.87Z" fill="#FB927E"/>
<path d="M228.858 186.714C228.858 189.059 229.563 193.519 234.606 194.481C239.649 195.457 241.804 191.919 242.794 189.398L228.858 186.714Z" fill="white"/>
<path d="M258.884 178.404L256.39 177.93C257.149 175.476 256.824 172.277 256.458 170.122C255.631 165.215 259.643 163.9 257.163 161.053C254.669 158.193 248.948 157.637 243.905 156.499C238.822 155.346 233.034 154.804 230.946 154.885C228.859 154.953 228.235 157.244 228.479 159.955C228.723 162.666 224.263 162.368 222.976 167.98C222.799 168.753 222.013 170.379 221.905 171.627L218.136 170.583C218.516 167.302 219.058 164.279 219.573 161.853C220.481 157.597 223.572 154.14 227.693 152.744C238.876 148.975 249.097 153.15 255.577 157.19C260.077 159.996 262.273 165.364 261.026 170.501C260.43 172.941 259.711 175.72 258.898 178.431L258.884 178.404Z" fill="#3C3C48"/>
<path d="M242.305 176.683C242.997 173.064 246.508 170.691 250.127 171.383C253.746 172.074 256.118 175.585 255.427 179.204C254.736 182.824 251.225 185.196 247.606 184.505C243.986 183.813 241.614 180.302 242.305 176.683ZM243.322 176.886C242.739 179.936 244.745 182.905 247.795 183.488C250.845 184.071 253.814 182.064 254.397 179.014C254.98 175.964 252.974 172.996 249.924 172.413C246.874 171.83 243.905 173.836 243.322 176.886Z" fill="white"/>
<path d="M224.385 173.226C225.076 169.607 228.587 167.235 232.206 167.926C235.826 168.617 238.198 172.128 237.507 175.747C236.815 179.367 233.304 181.739 229.685 181.048C226.066 180.356 223.694 176.845 224.385 173.226ZM225.402 173.429C224.819 176.479 226.811 179.448 229.875 180.031C232.925 180.614 235.894 178.608 236.476 175.558C237.059 172.508 235.053 169.539 232.003 168.956C228.953 168.373 225.984 170.379 225.402 173.429Z" fill="white"/>
<path d="M254.722 176.886C254.858 176.913 254.993 176.886 255.115 176.805C255.115 176.805 258.68 174.46 262.422 176.127C262.679 176.249 262.991 176.127 263.113 175.869C263.235 175.612 263.113 175.3 262.855 175.178C258.585 173.28 254.709 175.829 254.546 175.937C254.302 176.1 254.248 176.425 254.41 176.656C254.492 176.778 254.614 176.845 254.749 176.873L254.722 176.886Z" fill="white"/>
<path d="M225.781 171.301C225.944 171.328 226.134 171.288 226.256 171.152C226.459 170.949 226.445 170.61 226.256 170.42C226.079 170.257 222.026 166.367 217.946 166.259C217.661 166.259 217.417 166.475 217.417 166.76C217.417 167.045 217.634 167.289 217.919 167.289C221.593 167.384 225.497 171.125 225.537 171.166C225.619 171.233 225.7 171.288 225.795 171.301H225.781Z" fill="white"/>
<path d="M237.425 174.216C237.425 174.216 238.97 172.792 240.57 173.104C242.156 173.402 242.929 175.26 242.942 175.273L243.905 174.88C243.864 174.785 242.902 172.494 240.773 172.074C238.645 171.667 236.802 173.375 236.72 173.457L237.439 174.216H237.425Z" fill="white"/>
<path d="M220.02 170.813C220.02 170.813 217.363 165.35 213.947 168.78C210.531 172.209 212.05 184.586 219.099 183L220.02 170.813Z" fill="#FCBB8C"/>
<path d="M218.38 179.136C218.136 179.096 217.946 178.892 217.933 178.635C217.621 174.839 214.178 172.67 214.137 172.643C213.88 172.481 213.798 172.142 213.961 171.871C214.124 171.613 214.463 171.532 214.734 171.681C214.896 171.776 218.692 174.161 219.058 178.526C219.085 178.838 218.855 179.109 218.543 179.136C218.489 179.136 218.434 179.136 218.394 179.136H218.38Z" fill="#FB927E"/>
<path d="M214.964 176.601C214.856 176.588 214.761 176.534 214.679 176.452C214.449 176.235 214.449 175.883 214.666 175.666C214.707 175.625 215.561 174.744 217.052 174.405C217.35 174.338 217.648 174.527 217.729 174.826C217.797 175.124 217.607 175.422 217.309 175.503C216.157 175.774 215.479 176.452 215.479 176.452C215.344 176.601 215.154 176.656 214.964 176.615V176.601Z" fill="#FB927E"/>
<path d="M300.514 303.238C300.514 303.238 315.222 305.718 321.349 310.842C327.476 315.966 335.704 320.372 334.484 323.015C333.251 325.659 324.602 320.047 324.602 320.047C324.602 320.047 322.542 324.818 315.452 326.892C308.363 328.966 293.208 316.78 293.208 316.78L300.528 303.238H300.514Z" fill="#FCBB8C"/>
<path d="M203.591 216.59C211.792 229.021 243.187 272.006 250.277 277.008C259.494 283.514 285.291 297.016 300.337 303.238C303.049 304.363 294.305 317.146 294.305 317.146C294.305 317.146 257.204 305.041 241.357 294.928C236.87 292.068 218.231 273.388 206.343 256.823C202.276 251.144 195.648 243.268 194.685 234.89C193.587 225.239 196.61 220.074 203.578 216.59H203.591Z" fill="#CA9F26"/>
<path d="M279.368 333.128H354.737C356.466 333.128 357.868 331.726 357.868 329.996V325.618C357.868 323.888 356.466 322.487 354.737 322.487H279.368C277.638 322.487 276.236 323.888 276.236 325.618V329.996C276.236 331.726 277.638 333.128 279.368 333.128Z" fill="#DEB747"/>
<path d="M371.6 333.128L388.205 270.921C389.141 267.424 386.511 263.994 382.891 263.994H346.346C343.878 263.994 341.71 265.634 341.045 268.007L322.759 333.114H371.6V333.128Z" fill="#CA9F26"/>
<path d="M341.045 268.02L322.908 332.599H318.733L336.87 268.02C337.548 265.648 339.703 264.008 342.171 264.008H346.346C343.879 264.008 341.723 265.648 341.045 268.02Z" fill="#DEB747"/>
<path d="M350.439 301.353C349.49 305.461 352.052 308.782 356.146 308.782C360.24 308.782 364.347 305.461 365.296 301.353C366.245 297.246 363.683 293.925 359.589 293.925C355.495 293.925 351.388 297.246 350.439 301.353Z" fill="#BF9623"/>
<path d="M40.8016 451.509L38.5107 465.945L50.277 467.41L53.2728 452.295L40.8016 451.509Z" fill="#FCBB8C"/>
<path d="M43.4047 464.387C43.4047 464.387 49.6132 463.627 51.2669 463.899C52.9207 464.17 62.2605 478.105 65.8934 479.366C72.4814 481.643 71.0039 492.203 66.8152 492.148C54.6965 491.999 35.0273 484.11 35.0273 484.11C35.0273 484.11 35.0545 470.283 36.4642 466.149C37.874 462.014 39.9209 465.173 43.4318 464.4L43.4047 464.387Z" fill="#CA9F26"/>
<path d="M51.633 477.346C51.4161 477.359 51.1857 477.291 51.0095 477.142C50.6706 476.831 50.6435 476.315 50.9417 475.963C51.0501 475.855 53.4902 473.143 56.1335 472.466C59.6579 471.544 61.7455 473.875 61.8404 473.984C62.1386 474.323 62.1115 474.851 61.7591 475.163C61.4202 475.461 60.8915 475.434 60.5797 475.082C60.5255 475.014 59.0615 473.428 56.5537 474.079C54.3984 474.635 52.2024 477.061 52.1753 477.075C52.0262 477.237 51.8228 477.332 51.6195 477.346H51.633Z" fill="white"/>
<path d="M49.7082 474.526C49.4913 474.54 49.2609 474.472 49.0847 474.309C48.7458 473.998 48.7187 473.482 49.0169 473.13C49.1253 473.022 51.5653 470.31 54.2087 469.633C57.7331 468.711 59.8207 471.042 59.9156 471.151C60.2138 471.49 60.1867 472.018 59.8343 472.33C59.4818 472.628 58.9667 472.601 58.6549 472.249C58.6007 472.181 57.1367 470.595 54.6289 471.246C52.46 471.815 50.2776 474.228 50.2505 474.242C50.1013 474.404 49.898 474.499 49.6947 474.513L49.7082 474.526Z" fill="white"/>
<path d="M54.5202 479.921C54.3034 479.935 54.0729 479.867 53.8967 479.718C53.5578 479.406 53.5307 478.878 53.8289 478.539C53.9374 478.43 56.3774 475.719 59.0207 475.041C62.5452 474.12 64.6327 476.451 64.7276 476.56C65.0258 476.912 64.9987 477.427 64.6463 477.739C64.3074 478.037 63.7787 478.01 63.4669 477.658C63.4127 477.59 61.9487 476.004 59.4409 476.654C57.272 477.21 55.0896 479.637 55.0625 479.65C54.9134 479.813 54.71 479.908 54.5067 479.921H54.5202Z" fill="white"/>
<path d="M102.168 278.906C102.168 278.906 101.571 282.294 100.555 287.906C100.284 289.398 99.9855 291.038 99.6601 292.814C96.2034 311.642 89.751 345.68 84.0441 369.701C76.0463 403.386 56.0925 458.056 56.0925 458.056L41.4524 456.05L40.002 455.847L36.5317 455.372C36.5317 455.372 42.5911 420.128 48.8538 389.614C52.9882 369.498 59.1018 321.524 62.7889 291.214C64.6867 275.584 65.9474 264.645 65.9474 264.645L102.168 278.892V278.906Z" fill="#3C3C48"/>
<path d="M102.168 278.906C102.168 278.906 101.572 282.295 100.555 287.907C100.284 289.398 99.9856 291.038 99.6603 292.814C92.7469 293.383 74.0131 292.366 62.7891 291.228C64.6868 275.598 65.9475 264.659 65.9475 264.659L102.168 278.906Z" fill="#1A100E"/>
<path d="M71.9119 284.734C71.7764 285.9 59.1561 396.419 41.4661 456.05L40.0156 455.847C57.7057 396.405 70.353 285.724 70.475 284.572L71.9119 284.734Z" fill="#1A100E"/>
<path d="M149.491 456.796L149.111 469.972L137.06 469.429L136.681 455.44L149.491 456.796Z" fill="#FCBB8C"/>
<path d="M146.034 469.389C146.034 469.389 148.637 465.945 150.67 466.108C152.717 466.271 168.388 478.918 173.783 479.989C179.178 481.06 178.093 485.032 177.09 487.052C176.087 489.071 134.011 485.981 134.011 485.981C134.011 485.981 132.94 473.442 134.349 469.619C135.746 465.796 141.791 470.256 146.021 469.375L146.034 469.389Z" fill="#CA9F26"/>
<path d="M154.683 478.2C154.493 478.254 154.276 478.24 154.086 478.132C153.72 477.929 153.598 477.454 153.815 477.102C153.883 476.98 155.55 474.133 157.787 473.021C160.755 471.544 163.046 473.238 163.141 473.306C163.48 473.564 163.548 474.038 163.29 474.363C163.046 474.702 162.558 474.77 162.233 474.513C162.165 474.472 160.579 473.333 158.465 474.377C156.648 475.272 155.143 477.834 155.13 477.861C155.035 478.037 154.872 478.159 154.683 478.213V478.2Z" fill="white"/>
<path d="M152.446 476.044C152.256 476.099 152.039 476.085 151.849 475.977C151.483 475.773 151.361 475.299 151.578 474.946C151.646 474.824 153.313 471.978 155.55 470.866C158.519 469.389 160.81 471.083 160.904 471.151C161.243 471.408 161.311 471.883 161.054 472.208C160.81 472.547 160.322 472.615 159.996 472.357C159.928 472.317 158.342 471.178 156.228 472.222C154.411 473.13 152.92 475.678 152.893 475.705C152.798 475.882 152.635 476.004 152.446 476.058V476.044Z" fill="white"/>
<path d="M157.732 479.948C157.543 480.003 157.326 479.989 157.136 479.881C156.77 479.677 156.648 479.203 156.865 478.85C156.933 478.728 158.6 475.882 160.837 474.77C163.805 473.293 166.096 474.987 166.191 475.055C166.53 475.312 166.598 475.787 166.34 476.112C166.083 476.451 165.608 476.519 165.283 476.261C165.215 476.221 163.629 475.082 161.514 476.126C159.698 477.034 158.207 479.582 158.18 479.61C158.085 479.786 157.922 479.908 157.732 479.962V479.948Z" fill="white"/>
<path d="M151.714 460.211L139.473 459.398L138.009 459.303L135.04 459.1C135.04 459.1 126.961 387.594 124.481 368.548C122.312 352.011 112.538 314.868 106.194 291.77C104.391 285.209 102.873 279.786 101.87 276.276C101.111 273.524 100.65 271.951 100.65 271.951L141.534 267.668C141.534 267.668 141.656 268.562 141.859 270.175C142.279 273.483 143.092 279.827 144.082 287.784C146.807 309.46 150.955 343.213 152.595 360.388C156.797 404.62 151.714 460.184 151.714 460.184V460.211Z" fill="#3C3C48"/>
<path d="M144.082 287.811L106.181 291.783C104.378 285.222 102.86 279.8 101.856 276.289L141.845 270.203C142.266 273.51 143.079 279.854 144.069 287.811H144.082Z" fill="#1A100E"/>
<path d="M139.46 459.398L137.996 459.303C137.115 437.18 134.512 381.928 129.889 358.531C124.088 329.047 110.939 286.13 110.803 285.697L112.199 285.276C112.335 285.71 125.511 328.695 131.313 358.246C135.962 381.792 138.579 437.302 139.46 459.384V459.398Z" fill="#1A100E"/>
<path d="M138.389 179.828C143.743 197.924 157.895 210.938 157.895 210.938C165.934 214.747 191.974 221.47 199.429 220.006C205.15 219.193 213.5 217.783 214.368 211.534C204.187 211.141 167.289 194.576 167.289 194.576C153.828 162.124 144.245 130.268 144.245 130.268C133.644 141.357 138.402 179.828 138.402 179.828H138.389Z" fill="#CA9F26"/>
<path d="M102.48 111.236C102.48 111.236 81.2791 116.875 72.4544 124.128C72.4544 124.128 60.661 128.913 60.7288 202.099C60.7695 242.82 64.5786 273.09 64.5786 273.09C64.5786 273.09 78.8391 277.916 100.555 278.811C122.258 279.719 144.285 273.09 144.285 273.09C144.285 273.09 136.206 227.489 136.111 204.282C136.017 181.075 144.231 130.268 144.231 130.268L119.425 114.612L102.48 111.236Z" fill="#BF9623"/>
<path d="M112.674 130.255C104.567 129.767 97.5998 120.698 97.3016 120.292C97.1118 120.034 97.1661 119.682 97.4101 119.492C97.6676 119.302 98.0201 119.356 98.2098 119.6C98.2776 119.695 105.571 129.198 113.433 129.13C113.745 129.13 114.002 129.387 114.016 129.699C114.016 130.011 113.758 130.269 113.446 130.282C113.189 130.282 112.931 130.282 112.66 130.268L112.674 130.255Z" fill="#CA9F26"/>
<path d="M92.1233 236.775C91.8387 236.761 91.6082 236.531 91.5811 236.233C91.5675 235.921 91.8115 235.65 92.1233 235.623C113.216 234.47 124.074 198.738 124.182 198.385C124.277 198.087 124.589 197.911 124.901 198.006C125.199 198.101 125.375 198.412 125.28 198.724C124.833 200.229 114.07 235.595 92.1775 236.788C92.1504 236.788 92.1369 236.788 92.1098 236.788L92.1233 236.775Z" fill="#CA9F26"/>
<path d="M101.124 226.31C100.934 226.31 100.745 226.188 100.65 226.011C100.501 225.727 100.609 225.388 100.88 225.239C112.43 219.044 114.707 209.013 114.72 208.918C114.788 208.606 115.086 208.403 115.398 208.484C115.71 208.552 115.9 208.85 115.846 209.162C115.751 209.596 113.473 219.789 101.422 226.255C101.328 226.31 101.219 226.323 101.124 226.323V226.31Z" fill="#CA9F26"/>
<path d="M158.451 212.401L161.094 212.374C163.453 212.347 165.242 210.937 166.272 208.809C166.733 207.874 167.343 206.152 167.777 205.556C168.997 203.888 170.827 199.903 172.088 199.795C173.348 199.7 173.091 202.668 172.793 204.01C172.467 205.515 171.871 207.44 171.139 208.904C170.407 210.368 176.913 210.219 179.747 210.87C182.566 211.52 185.209 211.873 185.711 214.191C186.213 216.509 184.884 217.227 184.884 217.227C184.884 217.227 185.996 219.315 182.932 221.104C182.932 221.104 183.501 223.165 181.522 224.276C181.522 224.276 181.78 226.879 179.475 227.597C177.171 228.316 169.987 230.485 155.726 222.08L158.424 212.401H158.451Z" fill="#FCBB8C"/>
<path d="M158.586 210.897C158.586 210.897 115.696 200.174 99.4972 191.499C99.4972 191.499 93.7632 174.771 89.6966 161.134C87.0668 152.296 83.5423 143.756 79.0825 135.69C76.5883 131.163 74.8125 126.351 72.4538 124.141C72.4538 124.141 59.6167 133.4 67.8721 166.041C72.3725 183.813 79.435 195.999 82.119 202.953C83.4745 206.464 89.683 210.206 93.0583 211.886C103.537 217.105 126.893 226.147 155.021 223.368C155.021 223.368 159.074 215.384 158.573 210.91L158.586 210.897Z" fill="#CA9F26"/>
<path d="M214.191 208.701C214.191 208.701 218.258 211.494 217.54 214.584C216.821 217.675 211.155 210.409 211.155 210.409C211.155 210.409 216.916 217.797 215.127 219.817C213.337 221.836 207.522 214.896 207.522 214.896C207.522 214.896 213.066 222.975 211.846 224.656C210.626 226.337 203.51 219.017 203.51 219.017C203.51 219.017 206.695 224.263 205.299 225.89C204.255 227.096 199.307 222.907 197.667 219.817C196.013 216.726 200.541 215.425 200.541 215.425C200.541 215.425 202.737 211.887 204.689 211.982C204.689 211.982 206.302 208.416 208.471 207.833C208.471 207.833 210.897 205.759 214.191 208.715V208.701Z" fill="#FCBB8C"/>
<path d="M198.128 219.071C198.128 219.071 193.912 220.006 195.268 225.523C195.268 225.523 196.23 222.69 198.128 220.562V219.071Z" fill="#FCBB8C"/>
<path d="M139.391 76.6425C137.182 89.1679 125.226 97.5317 112.7 95.3086C100.175 93.099 93.031 81.2785 95.2406 68.7532C97.4501 56.2278 108.186 47.7285 120.712 49.938C133.237 52.1476 141.601 64.1036 139.378 76.629L139.391 76.6425Z" fill="#3C3C48"/>
<path d="M138.239 68.3464C138.239 68.3464 146.413 65.92 143.566 59.7386C140.733 53.5437 146.047 52.8659 142.753 48.135C139.784 43.8786 133.901 47.9995 131.325 44.5293C128.75 41.0455 122.108 38.7004 118.759 42.4688C115.669 45.939 111.697 44.0141 107.603 44.0141C100.771 44.0141 103.089 50.7242 101.408 54.4519C99.7274 58.1933 94.4949 62.3277 100.121 65.5404C105.746 68.7531 138.252 68.3464 138.252 68.3464H138.239Z" fill="#3C3C48"/>
<path d="M134.457 82.3086C134.457 82.3086 138.904 78.147 140.869 82.5932C142.835 87.0259 136.992 98.0602 130.96 94.0477L134.457 82.3221V82.3086Z" fill="#FB927E"/>
<path d="M133.034 90.6724C133.278 90.7131 133.522 90.5911 133.644 90.3606C135.298 86.9311 139.296 86.1313 139.337 86.1177C139.635 86.0635 139.839 85.7653 139.784 85.4671C139.73 85.1689 139.432 84.9655 139.134 85.0197C138.944 85.0604 134.538 85.928 132.641 89.8862C132.505 90.1709 132.627 90.4962 132.898 90.6318C132.939 90.6589 132.993 90.6724 133.047 90.6724H133.034Z" fill="#E6765D"/>
<path d="M137.128 89.5201C137.236 89.5337 137.345 89.5201 137.44 89.4795C137.724 89.3575 137.86 89.0321 137.738 88.7475C137.724 88.6933 137.236 87.5681 135.962 86.7141C135.704 86.5379 135.352 86.6057 135.176 86.8632C135 87.1208 135.067 87.4733 135.325 87.6359C136.314 88.3001 136.694 89.1677 136.694 89.1813C136.775 89.3575 136.938 89.4795 137.114 89.5201H137.128Z" fill="#E6765D"/>
<path d="M104.527 99.6057L102.466 111.236C102.466 111.236 106.343 117.214 110.966 118.448C115.575 119.682 119.411 114.625 119.411 114.625L121.39 103.442L104.513 99.6193L104.527 99.6057Z" fill="#FCBB8C"/>
<path d="M104.526 99.6057L103.618 104.77C106.153 108.824 111.588 110.681 120.074 110.925L121.403 103.442L104.526 99.6193V99.6057Z" fill="#FB927E"/>
<path d="M96.4609 82.512C96.4745 83.6777 96.5287 84.7893 96.6372 85.7789C96.7456 86.7684 96.8676 87.8393 97.0574 88.9644C98.5214 98.0331 103.103 110.233 119.329 107.468C127.381 106.112 132.383 98.2907 135.46 89.9946C136.206 88.002 136.829 85.9822 137.358 84.0166C138.334 80.4244 138.985 77.0084 139.419 74.2837C140.096 69.973 138.443 65.6353 135.081 62.8564C125.971 55.333 114.924 55.577 107.414 57.041C102.209 58.0577 98.2367 62.3006 97.5589 67.5466C96.9761 72.1013 96.4067 77.8353 96.4745 82.512H96.4609Z" fill="#FCBB8C"/>
<path d="M97.0439 88.978C98.5079 98.0467 103.09 110.247 119.316 107.481C127.368 106.126 132.37 98.3043 135.447 90.0082C136.192 88.0156 136.816 85.9958 137.345 84.0302L135.013 84.2742C133.739 87.8936 131.841 93.1531 130.079 95.4711C128.493 91.2011 116.74 92.2585 116.74 92.2585C116.74 92.2585 105.679 86.5109 101.734 90.1438C100.69 85.4942 101.612 79.3671 101.612 79.3671L98.6842 78.4453C98.6842 78.4453 97.7082 83.7184 97.0439 88.978ZM115.412 94.2647C119.167 94.3325 121.552 94.9696 123.057 95.8778C125.429 97.3147 125.063 100.826 122.488 101.842C120.97 102.439 119.546 102.75 118.014 102.859C115.398 103.049 110.64 102.357 106.899 99.5785C105.272 98.372 104.744 96.0947 105.869 94.4138C106.967 92.76 109.556 91.7976 115.412 94.2647Z" fill="#3C3C48"/>
<path d="M125.578 82.3087C125.361 83.5559 125.822 84.6674 126.608 84.8165C127.394 84.9521 128.221 84.0574 128.438 82.8239C128.655 81.5767 128.194 80.4652 127.408 80.3161C126.622 80.1805 125.795 81.0752 125.578 82.3087Z" fill="#3C3C48"/>
<path d="M108.837 79.34C108.62 80.5871 109.081 81.6987 109.867 81.8478C110.653 81.9834 111.48 81.0887 111.697 79.8551C111.914 78.608 111.453 77.4964 110.667 77.3473C109.881 77.1982 109.054 78.1065 108.837 79.34Z" fill="#3C3C48"/>
<path d="M132.871 76.4797C132.871 76.4797 127.34 73.0773 122.406 74.243V76.439C122.406 76.439 127.571 76.2086 132.112 78.8791C132.586 77.9573 133.088 77.5506 132.871 76.4797Z" fill="#3C3C48"/>
<path d="M105.638 71.6539C105.638 71.6539 112.009 70.3526 116.238 73.145L115.479 75.2055C115.479 75.2055 110.708 73.2264 105.529 74.1753C105.394 73.145 105.069 72.6028 105.638 71.6539Z" fill="#3C3C48"/>
<path d="M116.089 89.7505C115.154 89.5879 114.3 89.0592 114.165 88.9778C113.907 88.8152 113.826 88.4627 113.988 88.2052C114.151 87.9476 114.503 87.8663 114.761 88.029C115.222 88.3136 116.361 88.8559 116.943 88.6254C117.052 88.5847 117.215 88.4899 117.309 88.1645C117.852 86.2667 118.462 79.7058 118.475 79.638C118.502 79.3263 118.773 79.0958 119.085 79.1365C119.397 79.1636 119.627 79.4347 119.587 79.7465C119.56 80.0176 118.95 86.4836 118.38 88.4763C118.163 89.2219 117.689 89.5472 117.337 89.6827C116.943 89.8319 116.51 89.8319 116.089 89.7505Z" fill="#FB927E"/>
<path d="M122.447 96.3792C121.593 98.5752 119.356 102.493 114.3 101.598C109.23 100.703 108.485 96.6232 108.458 93.9121L122.447 96.3792Z" fill="white"/>
<path d="M134.376 86.1042C135.203 83.8946 136.125 81.0344 136.097 79.4619C136.03 76.6966 134.105 74.7446 135.284 72.291C136.477 69.8375 134.24 66.5977 132.315 65.7843C130.404 64.971 125.538 65.1337 121.322 62.1379C117.296 59.2641 109.393 59.4132 107.644 62.0159C105.53 65.1608 107.522 65.8521 102.764 68.8208C100.866 70.0001 102.127 74.1753 101.978 76.7102C101.897 77.8759 101.815 78.4317 101.558 79.6653L101.436 80.2888L96.5151 79.4213C96.6507 75.463 97.098 71.1524 97.5589 67.5737C98.2367 62.3141 102.208 58.0848 107.414 57.0681C114.924 55.6041 125.971 55.3601 135.081 62.8835C138.443 65.6623 140.096 70.0001 139.419 74.3108C138.89 77.659 138.022 82.0375 136.64 86.5244L134.389 86.1313L134.376 86.1042Z" fill="#3C3C48"/>
<path d="M98.3042 81.9156C98.5482 80.6279 98.6837 79.3265 98.6837 78.0252C98.6837 76.2358 98.4533 74.5685 96.813 73.5383C95.4846 72.7114 93.9664 72.4267 92.5973 73.8365C89.2219 77.3203 90.0217 90.171 97.0706 88.4765L98.3042 81.9156Z" fill="#FCBB8C"/>
<path d="M96.4337 84.6674C96.2033 84.5725 96.0541 84.342 96.0813 84.0845C96.4608 80.2889 93.4515 77.5236 93.4244 77.4965C93.1939 77.2931 93.1804 76.9271 93.3837 76.7102C93.587 76.4798 93.9395 76.4662 94.1699 76.6696C94.3055 76.7916 97.6266 79.828 97.1928 84.1929C97.1657 84.5047 96.881 84.7216 96.5828 84.6945C96.5286 84.6945 96.4744 84.6809 96.4337 84.6538V84.6674Z" fill="#FB927E"/>
<path d="M93.5325 81.5497C93.4376 81.509 93.3427 81.4412 93.2885 81.3599C93.1123 81.1023 93.1665 80.7634 93.4105 80.5737C93.4512 80.5466 94.4543 79.8281 95.9861 79.7603C96.2979 79.7468 96.5554 79.9772 96.569 80.289C96.5825 80.6008 96.3521 80.8583 96.0403 80.8719C94.8474 80.9261 94.0747 81.4683 94.0612 81.4819C93.8985 81.6039 93.6952 81.6174 93.5325 81.5497Z" fill="#FB927E"/>
</g>
<defs>
<clipPath id="clip0_115_7">
<rect width="431" height="483.148" fill="white" transform="translate(35 9)"/>
</clipPath>
</defs>
</svg>
