<svg width="665" height="502" viewBox="0 0 665 502" fill="none" xmlns="http://www.w3.org/2000/svg">
<circle cx="306" cy="251" r="251" fill="#DFC57D" fill-opacity="0.41"/>
<g clip-path="url(#clip0_54_5092)">
<path d="M94.5195 188.076H543.684" stroke="white" stroke-width="1.5167" stroke-miterlimit="10"/>
<path d="M537.818 158.637H100.386C97.1461 158.637 94.5195 161.264 94.5195 164.504V430.674C94.5195 433.914 97.1461 436.541 100.386 436.541H537.818C541.058 436.541 543.684 433.914 543.684 430.674V164.504C543.684 161.264 541.058 158.637 537.818 158.637Z" stroke="white" stroke-width="1.5167" stroke-miterlimit="10"/>
<path d="M124.127 173.657C124.127 175.921 122.284 177.764 120.019 177.764C117.755 177.764 115.912 175.921 115.912 173.657C115.912 171.392 117.755 169.549 120.019 169.549C122.284 169.549 124.127 171.392 124.127 173.657Z" stroke="white" stroke-width="1.5167" stroke-miterlimit="10"/>
<path d="M140.095 173.657C140.095 175.921 138.252 177.764 135.987 177.764C133.723 177.764 131.879 175.921 131.879 173.657C131.879 171.392 133.723 169.549 135.987 169.549C138.252 169.549 140.095 171.392 140.095 173.657Z" stroke="white" stroke-width="1.5167" stroke-miterlimit="10"/>
<path d="M156.062 173.657C156.062 175.921 154.219 177.764 151.954 177.764C149.69 177.764 147.847 175.921 147.847 173.657C147.847 171.392 149.69 169.549 151.954 169.549C154.219 169.549 156.062 171.392 156.062 173.657Z" stroke="white" stroke-width="1.5167" stroke-miterlimit="10"/>
<path d="M104.083 287.441H15.5774C12.8202 287.441 10.585 289.676 10.585 292.433V342.369C10.585 345.126 12.8202 347.361 15.5774 347.361H104.083C106.841 347.361 109.076 345.126 109.076 342.369V292.433C109.076 289.676 106.841 287.441 104.083 287.441Z" fill="#FFE394"/>
<path d="M104.083 287.441H15.5774C12.8202 287.441 10.585 289.676 10.585 292.433V342.369C10.585 345.126 12.8202 347.361 15.5774 347.361H104.083C106.841 347.361 109.076 345.126 109.076 342.369V292.433C109.076 289.676 106.841 287.441 104.083 287.441Z" stroke="white" stroke-width="1.5167" stroke-miterlimit="10"/>
<path d="M625.344 234.04H504.44C501.461 234.04 499.047 236.455 499.047 239.433V324.189C499.047 327.168 501.461 329.582 504.44 329.582H625.344C628.322 329.582 630.737 327.168 630.737 324.189V239.433C630.737 236.455 628.322 234.04 625.344 234.04Z" fill="#FFE394"/>
<path d="M625.344 234.04H504.44C501.461 234.04 499.047 236.455 499.047 239.433V324.189C499.047 327.168 501.461 329.582 504.44 329.582H625.344C628.322 329.582 630.737 327.168 630.737 324.189V239.433C630.737 236.455 628.322 234.04 625.344 234.04Z" stroke="white" stroke-width="1.5167" stroke-miterlimit="10"/>
<path d="M426.751 205.391H355.761C354.557 205.391 353.581 206.368 353.581 207.572V225.224C353.581 226.429 354.557 227.405 355.761 227.405H426.751C427.955 227.405 428.931 226.429 428.931 225.224V207.572C428.931 206.368 427.955 205.391 426.751 205.391Z" fill="#D09A00"/>
<path d="M364.029 213.238H414.702" stroke="white" stroke-width="0.853145" stroke-miterlimit="10"/>
<path d="M364.029 218.515H384.989" stroke="white" stroke-width="0.853145" stroke-miterlimit="10"/>
<path d="M361.943 224.919V233.503L372.729 224.919H361.943Z" fill="#D09A00"/>
<path d="M116.491 133.274H21.1811C19.2115 133.274 17.6211 131.674 17.6211 129.714C17.6211 127.745 19.2221 126.154 21.1811 126.154H116.491C118.461 126.154 120.051 127.755 120.051 129.714C120.051 131.684 118.45 133.274 116.491 133.274Z" fill="#FFE394"/>
<path d="M661.429 409.535H586.742C584.773 409.535 583.182 407.934 583.182 405.975C583.182 404.006 584.783 402.415 586.742 402.415H661.429C663.399 402.415 664.989 404.016 664.989 405.975C664.989 407.945 663.388 409.535 661.429 409.535Z" fill="#B77A51" fill-opacity="0.41"/>
<path d="M335.159 97H326.818C324.624 97 322.847 98.7778 322.847 100.971V108.807C322.847 111 324.624 112.778 326.818 112.778H335.159C337.352 112.778 339.13 111 339.13 108.807V100.971C339.13 98.7778 337.352 97 335.159 97Z" fill="#FFE394"/>
<path d="M18.0739 392.483H7.10945C4.22421 392.483 1.88525 394.822 1.88525 397.707V407.998C1.88525 410.883 4.22421 413.222 7.10945 413.222H18.0739C20.9592 413.222 23.2981 410.883 23.2981 407.998V397.707C23.2981 394.822 20.9592 392.483 18.0739 392.483Z" fill="#B77A51" fill-opacity="0.41"/>
<path d="M591.482 168.98H583.636C581.571 168.98 579.896 170.654 579.896 172.719V180.092C579.896 182.157 581.571 183.831 583.636 183.831H591.482C593.547 183.831 595.221 182.157 595.221 180.092V172.719C595.221 170.654 593.547 168.98 591.482 168.98Z" fill="#B77A51" fill-opacity="0.41"/>
<path d="M509.823 306.094C510.139 297.247 503.608 289.653 494.814 288.642C485.324 287.557 476.813 294.519 476.013 304.04C475.434 310.855 476.097 322.588 476.919 335.059L511.561 330.888L509.833 306.094H509.823Z" fill="#D09A00"/>
<path d="M511.55 330.899L476.908 335.069C478.004 351.574 479.383 361.032 478.614 370.438C477.74 381.055 486.114 390.145 496.762 390.166C506.589 390.187 514.668 382.403 515.026 372.587L511.54 330.899H511.55Z" fill="#FCBB8C"/>
<path d="M421.822 324.358L501.397 364.171C510.223 369.069 512.709 378.77 508.116 386.132C503.471 393.568 493.508 395.548 486.377 390.44L414.439 338.63L421.822 324.368V324.358Z" fill="#FCBB8C"/>
<path d="M409.383 343.327C417.557 346.087 426.415 341.705 429.174 333.532C431.934 325.358 427.552 316.5 419.379 313.741C411.205 310.981 402.348 315.363 399.588 323.536C396.828 331.71 401.21 340.568 409.383 343.327Z" fill="#FCBB8C"/>
<path d="M410.837 314.215C410.837 314.215 410.047 308.106 417.988 310.128C425.93 312.151 433.029 318.302 429.174 333.532L410.837 314.215Z" fill="#FCBB8C"/>
<path d="M422.991 284.65L406.171 280.721C405.233 280.5 404.359 281.153 404.201 282.164L397.744 325.853C397.597 326.875 398.229 327.876 399.166 328.097L415.987 332.026C416.924 332.247 417.799 331.594 417.957 330.583L424.413 286.893C424.561 285.872 423.929 284.871 422.991 284.65Z" fill="#37305E"/>
<path d="M424.624 284.997L407.803 281.069C406.866 280.847 405.991 281.5 405.833 282.512L399.377 326.201C399.229 327.223 399.861 328.223 400.799 328.444L417.619 332.373C418.557 332.594 419.431 331.941 419.589 330.93L426.045 287.241C426.193 286.219 425.561 285.218 424.624 284.997Z" fill="#261C42"/>
<path d="M423.697 289.252L408.92 285.798L403.654 321.409L418.431 324.863L423.697 289.252Z" fill="#FFE394"/>
<path d="M408.92 285.798L418.431 324.863L423.697 289.252L408.92 285.798Z" fill="white"/>
<path d="M422.412 311.803C422.412 311.803 419.168 310.255 415.534 309.802C413.934 309.602 412.396 310.476 411.774 311.961C411.206 313.32 411.532 314.879 412.596 315.9L418.589 321.64C418.589 321.64 417.63 330.151 421.643 334.164L425.256 320.65L422.412 311.792V311.803Z" fill="#FCBB8C"/>
<path d="M522.093 360.78L485.408 368.848C485.408 368.848 475.634 390.587 459.371 487.603C459.118 489.099 458.876 490.584 458.634 492.059C476.16 492.301 493.697 492.785 511.223 493.386L534.574 378.991L522.104 360.79L522.093 360.78Z" fill="#676767"/>
<path d="M565.045 438.49C563.802 391.546 540.02 366.172 540.02 366.172L494.855 367.584L506.894 493.238C526.359 493.87 545.823 494.65 565.287 495.355C565.456 473.11 565.424 452.751 565.045 438.5V438.49Z" fill="#676767"/>
<path d="M486.724 408.703L500.585 420.163L506.894 493.228" stroke="#121E35" stroke-width="1.20072" stroke-linecap="round" stroke-linejoin="round"/>
<path d="M498.016 285.197L485.208 290.601C483.154 291.485 481.859 293.55 481.964 295.783L485.408 368.837L543.738 368.131L547.182 292.612C547.287 288.589 544.064 283.765 540.052 283.449L516.321 283.017L498.026 285.197H498.016Z" fill="#D09A00"/>
<path d="M483.744 311.803C483.744 311.803 477.761 319.397 483.775 334.237" stroke="#121E35" stroke-width="1.20072" stroke-linecap="round" stroke-linejoin="round"/>
<path d="M569.943 317.122L539.293 333.785C546.403 348.72 554.26 364.74 557.019 373.777C560.127 383.962 571.27 389.323 581.171 385.405C590.313 381.792 594.947 371.586 591.651 362.317L569.954 317.111L569.943 317.122Z" fill="#FCBB8C"/>
<path d="M559.189 294.708C556.219 286.377 547.34 281.722 538.798 284.039C529.582 286.535 529.814 307.979 532.584 317.122C534.564 323.673 533.932 322.504 539.303 333.784L569.953 317.122L559.2 294.719L559.189 294.708Z" fill="#D09A00"/>
<path d="M538.987 333.784L532.278 317.122" stroke="#121E35" stroke-width="1.20072" stroke-linecap="round" stroke-linejoin="round"/>
<path d="M494.719 354.365L576.336 356.135C584.994 356.588 591.524 364.182 590.671 372.808C589.807 381.539 581.75 387.722 573.092 386.3L495.498 372.903L494.708 354.355L494.719 354.365Z" fill="#FCBB8C"/>
<path d="M496.067 377.885C504.609 376.737 510.613 368.879 509.465 360.337C508.316 351.795 500.459 345.792 491.917 346.94C483.375 348.088 477.372 355.945 478.52 364.487C479.668 373.029 487.525 379.033 496.067 377.885Z" fill="#FCBB8C"/>
<path d="M484.47 351.142C484.47 351.142 481.058 346.013 489.073 344.307C497.088 342.6 506.178 344.97 509.475 360.327L484.47 351.142Z" fill="#FCBB8C"/>
<path d="M545.789 259.16C545.929 248.905 537.729 240.479 527.475 240.34C517.22 240.2 508.794 248.4 508.655 258.654C508.515 268.909 516.715 277.335 526.969 277.474C537.224 277.614 545.65 269.414 545.789 259.16Z" fill="#121E35"/>
<path d="M469.577 213.038C469.577 213.038 499.564 195.375 520.113 213.765C532.626 224.961 527.875 243.277 511.086 254.632C495.098 265.449 489.189 214.945 489.189 214.945L469.577 213.038Z" fill="#121E35"/>
<path d="M486.008 208.457C486.008 208.457 456.833 210.026 458.876 232.102C460.235 246.764 483.069 246.279 483.069 246.279L486.008 208.457Z" fill="#121E35"/>
<path d="M480.805 248.449C482.059 252.493 479.805 256.791 475.76 258.044C471.716 259.298 467.418 257.044 466.165 252.999C464.911 248.955 467.165 244.657 471.21 243.404C475.254 242.15 479.552 244.404 480.805 248.449Z" fill="#AB7E00"/>
<path d="M490.569 270.357L496.141 288.652C498.079 295.077 501.523 297.721 507.832 295.751C513.214 294.076 518.975 289.326 517.985 283.765L507.832 255.401L490.569 270.357Z" fill="#FCBB8C"/>
<path d="M498.437 284.629L491.949 287.451C491.949 287.451 481.858 304.314 501.123 304.946C524.368 305.704 526.264 292.275 529.972 283.28L518.091 282.143L498.426 284.629H498.437Z" fill="#FCBB8C"/>
<path d="M493.508 280.036C493.508 280.036 509.644 277.666 509.644 256.127L489.958 268.493L493.508 280.036Z" fill="#121E35"/>
<path d="M496.92 272.021C485.956 274.644 474.854 268.145 472.411 259.266L466.765 238.274C463.7 227.141 470.02 215.587 481.037 212.153C492.328 208.646 506.294 214.334 509.812 225.614L514.173 242.54C517.543 255.632 509.833 267.987 496.931 272.01L496.92 272.021Z" fill="#FCBB8C"/>
<path d="M495.445 222.644C495.519 236.084 508.285 243.246 508.285 243.246L517.364 224.835C517.364 224.835 495.382 211.606 495.445 222.644Z" fill="#121E35"/>
<path d="M499.164 225.024C499.164 225.024 472.474 222.591 463.953 235.367C463.953 235.367 463.216 209.257 491.854 207.73C520.492 206.203 512.182 226.425 512.182 226.425L499.174 225.024H499.164Z" fill="#121E35"/>
<path d="M482.311 250.419L482.764 254.505L485.502 253.968" stroke="#121E35" stroke-width="1.15859" stroke-linecap="round" stroke-linejoin="round"/>
<path d="M477.613 248.07C477.898 249.134 477.276 250.229 476.213 250.513C475.149 250.798 474.053 250.176 473.769 249.113C473.485 248.049 474.106 246.953 475.17 246.669C476.234 246.385 477.329 247.006 477.613 248.07Z" fill="#121E35"/>
<path d="M493.781 243.678C494.066 244.742 493.444 245.837 492.381 246.121C491.317 246.406 490.221 245.784 489.937 244.72C489.653 243.657 490.274 242.561 491.338 242.277C492.402 241.992 493.497 242.614 493.781 243.678Z" fill="#121E35"/>
<path d="M483.964 238.738L495.75 237.537C495.75 237.537 493.897 234.367 489.094 234.904C484.291 235.441 483.964 238.738 483.964 238.738Z" fill="#121E35"/>
<path d="M478.014 240.571L469.714 243.246C469.714 243.246 469.946 240.044 473.337 238.991C476.729 237.937 478.014 240.571 478.014 240.571Z" fill="#121E35"/>
<path d="M482.185 258.908L494.203 256.127C494.203 256.127 493.255 261.847 486.893 261.952C482.48 262.026 482.174 258.908 482.174 258.908H482.185Z" fill="white"/>
<path d="M519.818 240.476C520.092 244.383 517.143 247.775 513.235 248.049C509.328 248.322 505.936 245.373 505.662 241.466C505.388 237.558 508.337 234.167 512.245 233.893C516.153 233.619 519.544 236.568 519.818 240.476Z" fill="#FCBB8C"/>
<path d="M510.412 243.235C510.412 243.235 510.054 238.106 515.015 238.569" stroke="#121E35" stroke-width="1.0322" stroke-linecap="round" stroke-linejoin="round"/>
<path d="M117.176 437.015V490.595L165.563 491.837V453.456L176.011 451.634L183.026 490.595L226.8 493.375L209.758 412.948L117.176 437.015Z" fill="#272727"/>
<path d="M77.5837 348.815L60.1206 466.443L79.0056 468.487L110.256 347.803L77.5837 348.815Z" fill="#FCBB8C"/>
<path d="M60.1206 466.443C60.1206 466.443 28.8597 473.648 30.1025 481.979H68.2202C68.2202 481.979 82.6499 480.873 79.0056 468.487L60.1206 466.443Z" fill="#FCBB8C"/>
<path d="M124.012 297.236C124.012 297.236 85.1882 294.045 63.6489 352.017L111.551 369.227L124.012 297.236Z" fill="#D09A00"/>
<path d="M261.242 255.843L244.21 312.761L264.086 335.249C264.086 335.249 276.451 285.06 276.841 256.011L261.242 255.853V255.843Z" fill="#FCBB8C"/>
<path d="M260.567 257.475C260.567 257.475 275.819 259.498 277.957 255.685C281.696 249.028 279.716 230.944 279.716 230.944C279.716 230.944 252.963 231.534 253.31 231.786C253.669 232.039 260.557 257.465 260.557 257.465L260.567 257.475Z" fill="#FCBB8C"/>
<path d="M260.568 257.475C260.283 256.138 250.025 244.583 246.338 240.191C245.443 239.128 245.748 237.453 246.97 236.673C247.771 236.157 249.172 235.715 250.32 236.695L260.157 244.31L260.568 257.475Z" fill="#FCBB8C"/>
<path d="M255.133 242.709L251.12 221.19C250.825 219.769 251.783 218.326 253.216 218.041C254.448 217.799 255.617 218.515 255.954 219.726L260.178 235.252L255.133 242.719V242.709Z" fill="#FCBB8C"/>
<path d="M260.126 232.165L259.841 215.766C259.788 214.344 260.915 213.091 262.316 213.007C263.538 212.933 264.57 213.775 264.76 214.987L267.34 233.029L260.126 232.165Z" fill="#FCBB8C"/>
<path d="M267.656 234.009L268.91 217.272C269.015 215.724 270.342 214.492 271.859 214.534C273.281 214.576 274.366 215.724 274.355 217.188L274.187 232.576L267.667 234.009H267.656Z" fill="#FCBB8C"/>
<path d="M279.727 230.944L281.675 220.221C281.717 219.031 280.854 218.073 279.695 218.02C278.589 217.967 277.568 218.768 277.315 219.884L274.187 232.576L279.727 230.944Z" fill="#FCBB8C"/>
<path d="M255.617 240.781C255.617 240.781 263.38 236.673 268.551 247.132" stroke="#282828" stroke-width="1.24285" stroke-linecap="round" stroke-linejoin="round"/>
<path d="M265.318 320.492C265.318 320.492 267.572 342.611 255.101 344.57C242.63 346.529 215.045 329.319 215.045 329.319L202.28 286.103L250.161 312.624L265.318 320.492Z" fill="#FCBB8C"/>
<path d="M168.912 289.242C168.912 289.242 195.423 271.652 236.648 299.227L212.454 337.492L188.377 335.27L168.902 289.242H168.912Z" fill="#D09A00"/>
<path d="M106.317 361.443L112.352 438.616L219.101 423.407L202.585 311.055L168.912 289.242L124.012 297.236L106.317 361.443Z" fill="#D09A00"/>
<path d="M106.791 367.521L103.958 341.547" stroke="#121E35" stroke-width="1.20072" stroke-linecap="round" stroke-linejoin="round"/>
<path d="M206.387 336.923L202.269 314.51" stroke="#121E35" stroke-width="1.20072" stroke-linecap="round" stroke-linejoin="round"/>
<path d="M132.269 291.38L127.33 261.257L155.094 256.696L160.033 286.819L168.912 289.231C168.912 289.231 169.018 302.029 148.563 305.673C128.109 309.317 124.012 297.226 124.012 297.226L132.259 291.37L132.269 291.38Z" fill="#FCBB8C"/>
<path d="M156.652 266.228C156.652 266.228 156.189 278.056 146.056 281.069C134.397 284.534 128.93 271.073 128.93 271.073C128.93 271.073 135.229 276.561 143.56 275.202C152.839 273.685 156.652 266.228 156.652 266.228Z" fill="#121E35"/>
<path d="M123.401 212.585C123.401 212.585 128.341 200.346 144.961 202.358C156.695 203.78 160.613 213.344 162.677 217.694C163.467 219.358 163.815 221.201 163.688 223.044L161.413 243.551L141.949 217.42L125.918 220.306L123.401 212.575V212.585Z" fill="#121E35"/>
<path d="M161.413 243.551C161.413 243.551 163.183 239.991 167.691 241.202C172.199 242.414 171.283 253.167 164.9 255.158C164.9 255.158 162.614 255.895 160.624 254.484C160.624 254.484 161.456 246.532 161.413 243.551Z" fill="#FCBB8C"/>
<path d="M167.206 245.015C167.206 245.015 163.446 244.162 161.392 249.776" stroke="#623B3B" stroke-width="0.737286" stroke-linecap="round" stroke-linejoin="round"/>
<path d="M116.944 247.975C116.944 247.975 114.501 244.836 110.319 246.911C106.138 248.986 109.15 259.35 115.807 260.045C115.807 260.045 118.198 260.319 119.862 258.539C119.862 258.539 117.482 250.903 116.934 247.975H116.944Z" fill="#FCBB8C"/>
<path d="M111.551 250.545C111.551 250.545 115.069 248.965 118.187 254.073" stroke="#623B3B" stroke-width="0.737286" stroke-linecap="round" stroke-linejoin="round"/>
<path d="M160.855 233.493C161.487 239.854 162.193 253.22 159.064 261.509C156.126 269.293 151.502 273.106 143.56 274.128C135.619 275.16 128.341 273.464 122.632 264.311C116.923 255.158 115.459 238.127 115.459 238.127C115.459 238.127 113.195 215.408 135.65 213.175C159.307 210.826 160.844 233.493 160.844 233.493H160.855Z" fill="#FCBB8C"/>
<path d="M116.944 247.975L110.93 228.416C110.54 226.815 110.604 225.13 111.141 223.571C112.489 219.674 116.618 210.932 123.411 212.575L125.929 220.306C125.929 220.306 117.755 222.812 115.501 234.051L116.944 247.964V247.975Z" fill="#121E35"/>
<path d="M120.789 219.252C120.789 219.252 135.798 234.146 162.329 229.88C162.329 229.88 157.885 210.879 145.414 210.742C132.943 210.605 123.179 217.083 123.179 217.083L120.789 219.252Z" fill="#121E35"/>
<path d="M125.919 220.306C125.919 220.306 123.275 229.458 115.323 236.852C115.323 236.852 111.721 218.926 125.919 220.306Z" fill="#121E35"/>
<path d="M146.657 243.151C146.826 244.246 147.858 244.994 148.954 244.826C150.049 244.657 150.797 243.625 150.628 242.53C150.46 241.434 149.428 240.686 148.332 240.855C147.237 241.023 146.489 242.056 146.657 243.151Z" fill="#121E35"/>
<path d="M128.046 246.069C128.214 247.164 129.246 247.912 130.342 247.743C131.437 247.575 132.185 246.543 132.016 245.447C131.848 244.352 130.816 243.604 129.72 243.772C128.625 243.941 127.877 244.973 128.046 246.069Z" fill="#121E35"/>
<path d="M132.47 236.178L119.673 241.718C119.673 241.718 119.694 237.885 124.939 235.662C130.184 233.45 132.481 236.178 132.481 236.178H132.47Z" fill="#121E35"/>
<path d="M141.854 234.872L155.737 236.22C155.737 236.22 154.546 232.576 148.869 232.071C143.203 231.565 141.854 234.872 141.854 234.872Z" fill="#121E35"/>
<path d="M138.368 249.323L138.947 252.146C139.095 252.862 139.832 253.262 140.485 252.978L141.918 252.357" stroke="#121E35" stroke-width="1.08486" stroke-linecap="round" stroke-linejoin="round"/>
<path d="M134.187 258.613L148.637 255.348C148.637 255.348 149.828 260.962 142.718 262.341C135.608 263.721 134.197 258.613 134.197 258.613H134.187Z" fill="white"/>
<path d="M631.738 480.715H0V496.493H631.738V480.715Z" fill="#FFE394"/>
<path d="M278.02 450.729H246.485C238.206 450.729 231.497 457.438 231.497 465.717C231.497 473.995 238.206 480.704 246.485 480.704H283.581L278.02 450.718V450.729Z" fill="#FCBB8C"/>
<path d="M234.962 456.132L254.532 424.081L283.581 428.01L279.273 465.727L234.962 456.132Z" fill="#FCBB8C"/>
<path d="M270.226 450.729H246.485" stroke="#121E35" stroke-width="1.20072" stroke-linecap="round" stroke-linejoin="round"/>
<path d="M376.732 450.729H408.266C416.545 450.729 423.254 457.438 423.254 465.717C423.254 473.995 416.545 480.704 408.266 480.704H371.17L376.732 450.718V450.729Z" fill="#FCBB8C"/>
<path d="M419.452 455.753L394.806 417.772L371.17 428.01L375.478 465.727L419.452 455.753Z" fill="#FCBB8C"/>
<path d="M378.512 450.729H408.256" stroke="#121E35" stroke-width="1.20072" stroke-linecap="round" stroke-linejoin="round"/>
<path d="M324.732 367.868C324.732 367.868 293.334 367.868 270.226 390.598V454.289C270.226 454.289 380.829 455.974 380.829 454.289C380.829 452.603 380.861 386.385 380.861 386.385C380.861 386.385 358.236 367.868 324.743 367.868H324.732Z" fill="#D09A00"/>
<path d="M274.902 386.385C274.902 386.385 257.839 400.161 239.85 430.495C239.85 430.495 243.726 448.043 277.241 450.739L274.902 386.395V386.385Z" fill="#D09A00"/>
<path d="M380.85 386.385C380.85 386.385 397.913 400.161 415.903 430.495C415.903 430.495 412.027 448.043 378.512 450.739L380.85 386.395V386.385Z" fill="#D09A00"/>
<path d="M375.815 407.187H275.239C272.47 407.187 270.226 409.431 270.226 412.2V475.701C270.226 478.47 272.47 480.715 275.239 480.715H375.815C378.584 480.715 380.829 478.47 380.829 475.701V412.2C380.829 409.431 378.584 407.187 375.815 407.187Z" fill="#FFE394"/>
<path d="M325.522 450.739C329.268 450.739 332.305 447.702 332.305 443.956C332.305 440.21 329.268 437.173 325.522 437.173C321.776 437.173 318.739 440.21 318.739 443.956C318.739 447.702 321.776 450.739 325.522 450.739Z" fill="white"/>
<path d="M336.107 354.45H314.41V378.748H336.107V354.45Z" fill="#FCBB8C"/>
<path d="M313.346 353.133C313.346 353.133 315.263 365.203 324.353 365.425C336.297 365.709 336.097 353.67 336.097 353.67C336.097 353.67 334.464 357.209 325.238 357.23C314.937 357.241 313.346 353.133 313.346 353.133Z" fill="#121E35"/>
<path d="M325.301 344.623C341.967 344.623 355.477 330.768 355.477 313.678C355.477 296.587 341.967 282.733 325.301 282.733C308.635 282.733 295.125 296.587 295.125 313.678C295.125 330.768 308.635 344.623 325.301 344.623Z" fill="#121E35"/>
<path d="M351.38 324.969C351.38 324.969 353.549 321.514 358.036 323.21C362.513 324.906 360.49 335.786 353.77 337.176C353.77 337.176 351.358 337.703 349.473 336.049C349.473 336.049 351.127 328.013 351.39 324.958L351.38 324.969Z" fill="#FCBB8C"/>
<path d="M357.141 327.044C357.141 327.044 353.391 325.79 350.727 331.32" stroke="#623B3B" stroke-width="0.821547" stroke-linecap="round" stroke-linejoin="round"/>
<path d="M299.928 324.969C299.928 324.969 297.758 321.514 293.271 323.21C288.794 324.906 290.817 335.786 297.537 337.176C297.537 337.176 299.949 337.703 301.834 336.049C301.834 336.049 300.18 328.013 299.917 324.958L299.928 324.969Z" fill="#FCBB8C"/>
<path d="M294.167 327.044C294.167 327.044 297.916 325.79 300.581 331.32" stroke="#623B3B" stroke-width="0.821547" stroke-linecap="round" stroke-linejoin="round"/>
<path d="M351.801 315.584C351.801 322.557 351.085 337.144 346.566 345.802C342.322 353.933 335.307 358.305 326.101 358.568C316.896 358.831 310.039 355.461 304.552 344.918C299.054 334.364 299.317 315.71 299.317 315.71C299.317 315.71 299.317 290.801 325.28 290.801C352.623 290.801 351.812 315.584 351.812 315.584H351.801Z" fill="#FCBB8C"/>
<path d="M299.928 324.969C299.928 324.969 305.468 312.814 300.581 304.061C300.581 304.061 296.157 318.144 299.928 324.969Z" fill="#121E35"/>
<path d="M351.306 324.969C351.306 324.969 345.766 312.814 350.653 304.061C350.653 304.061 355.077 318.144 351.306 324.969Z" fill="#121E35"/>
<path d="M338.751 292.202C338.751 292.202 336.192 306.937 351.432 313.636C351.432 313.636 350.811 296.383 338.751 292.202Z" fill="#121E35"/>
<path d="M342.184 294.045C342.184 294.045 339.899 308.748 319.908 305.473C304.351 302.924 299.601 314.815 299.601 314.815C299.601 314.815 296.841 292.707 321.962 288.178C321.962 288.178 334.811 288.115 342.184 294.045Z" fill="#121E35"/>
<path d="M316.337 327.591C316.337 328.897 315.274 329.961 313.968 329.961C312.661 329.961 311.598 328.897 311.598 327.591C311.598 326.285 312.661 325.221 313.968 325.221C315.274 325.221 316.337 326.285 316.337 327.591Z" fill="#121E35"/>
<path d="M335.928 329.961C337.237 329.961 338.298 328.9 338.298 327.591C338.298 326.282 337.237 325.221 335.928 325.221C334.62 325.221 333.559 326.282 333.559 327.591C333.559 328.9 334.62 329.961 335.928 329.961Z" fill="#121E35"/>
<path d="M323.752 332.752V335.954C323.752 336.765 324.469 337.366 325.238 337.208L326.944 336.85" stroke="#121E35" stroke-width="1.20072" stroke-linecap="round" stroke-linejoin="round"/>
<path d="M321.014 320.229L306.626 321.956C306.626 321.956 307.785 318.144 313.662 317.49C319.539 316.837 321.014 320.229 321.014 320.229Z" fill="#121E35"/>
<path d="M329.303 320.229L343.691 321.956C343.691 321.956 342.532 318.144 336.655 317.49C330.778 316.837 329.303 320.229 329.303 320.229Z" fill="#121E35"/>
<path d="M318.57 334.454C322.403 330.621 322.403 324.405 318.57 320.572C314.736 316.738 308.521 316.738 304.687 320.572C300.854 324.405 300.854 330.621 304.687 334.454C308.521 338.288 314.736 338.288 318.57 334.454Z" stroke="white" stroke-width="1.31658" stroke-miterlimit="10"/>
<path d="M348.982 329.776C350.223 324.498 346.951 319.214 341.673 317.974C336.396 316.733 331.111 320.005 329.871 325.283C328.63 330.56 331.902 335.845 337.18 337.085C342.458 338.326 347.742 335.054 348.982 329.776Z" stroke="white" stroke-width="1.31658" stroke-miterlimit="10"/>
<path d="M321.435 328.329C321.435 328.329 324.9 322.999 329.598 328.329" stroke="white" stroke-width="1.31658" stroke-miterlimit="10"/>
<path d="M317.096 341.547C317.096 341.547 318.539 343.411 324.954 343.411C330.789 343.411 333.432 341.547 333.432 341.547" stroke="#121E35" stroke-width="1.20072" stroke-linecap="round" stroke-linejoin="round"/>
<path d="M324.732 367.868C324.732 367.868 311.482 367.152 294.166 374.809C294.166 374.809 293.808 389.744 323.679 389.744C353.549 389.744 356.214 373.377 356.214 373.377C356.214 373.377 337.245 366.615 324.721 367.879L324.732 367.868Z" fill="#FCBB8C"/>
<path d="M336.108 293.234C346.985 293.234 355.804 284.416 355.804 273.538C355.804 262.66 346.985 253.842 336.108 253.842C325.23 253.842 316.412 262.66 316.412 273.538C316.412 284.416 325.23 293.234 336.108 293.234Z" fill="#121E35"/>
</g>
<defs>
<clipPath id="clip0_54_5092">
<rect width="665" height="399.493" fill="white" transform="translate(0 97)"/>
</clipPath>
</defs>
</svg>
