<svg width="759" height="504" viewBox="0 0 759 504" fill="none" xmlns="http://www.w3.org/2000/svg">
<g clip-path="url(#clip0_74_1264)">
<path d="M288.111 393.333L499.346 119.618" stroke="#444444" stroke-width="3.6614" stroke-miterlimit="10"/>
<path d="M491.345 114.713L499.352 119.618C575.634 176.697 591.199 284.812 534.115 361.094C477.036 437.376 368.921 452.941 292.645 395.856L284.338 387.49" stroke="#444444" stroke-width="10.9783" stroke-miterlimit="10"/>
<path d="M406.06 448.99H385.99V485.958H406.06V448.99Z" fill="#444444"/>
<path d="M399.438 432.488H392.611V469.456H399.438V432.488Z" fill="#444444"/>
<path d="M348.574 485.958H443.475C447.426 485.958 450.639 489.165 450.639 493.122V497.579H341.416V493.122C341.416 489.171 344.623 485.964 348.574 485.964V485.958Z" fill="#444444"/>
<mask id="mask0_74_1264" style="mask-type:luminance" maskUnits="userSpaceOnUse" x="245" y="109" width="302" height="301">
<path d="M502.191 365.383C560.824 306.75 560.824 211.686 502.191 153.052C443.557 94.4186 348.493 94.4186 289.859 153.052C231.226 211.686 231.226 306.75 289.859 365.383C348.493 424.017 443.557 424.017 502.191 365.383Z" fill="white"/>
</mask>
<g mask="url(#mask0_74_1264)">
<path d="M502.191 365.383C560.824 306.75 560.824 211.686 502.191 153.052C443.557 94.4186 348.493 94.4186 289.859 153.052C231.226 211.686 231.226 306.75 289.859 365.383C348.493 424.017 443.557 424.017 502.191 365.383Z" fill="#65A7D4"/>
<path d="M502.191 365.383C560.824 306.75 560.824 211.686 502.191 153.052C443.557 94.4186 348.493 94.4186 289.859 153.052C231.226 211.686 231.226 306.75 289.859 365.383C348.493 424.017 443.557 424.017 502.191 365.383Z" fill="#A97D00"/>
<path d="M354.73 297.359C347.654 292.672 338.38 299.659 330.538 296.422C323.546 293.539 322.538 283.109 315.321 280.839C312.597 279.984 309.578 279.565 307.438 277.673C304.231 274.831 302.898 268.84 298.618 269.1C295.015 269.318 291.784 274.389 288.866 272.266C286.195 270.32 282.533 270.692 279.291 271.329C276.048 271.965 272.575 272.767 269.539 271.464C266.502 270.161 267.381 266.795 267.222 263.493C267.098 260.91 261.85 264.242 259.846 262.614C257.316 260.562 261.579 255.828 260.182 252.886C259.026 250.451 256.09 254.991 253.661 256.164C251.391 257.261 248.714 255.433 247.429 253.263C244.145 247.733 246.704 239.602 252.564 236.955C258.425 234.302 264.392 238.688 268.206 243.859C269.816 246.041 272.64 241.589 272.151 238.93C271.661 236.265 270.653 232.857 272.911 231.36C279.102 227.256 284.125 221.413 287.262 214.686C288.441 212.157 291.33 209.008 293.276 211.007C295.204 212.994 298.282 210.382 299.909 208.141C301.536 205.901 305.363 203.949 306.53 206.461C307.644 208.861 311.748 207.21 312.19 204.604C312.632 201.998 311.046 199.539 309.991 197.116C308.936 194.693 309.337 192.063 310.799 189.858C311.937 188.148 314.366 187.871 315.763 189.369C317.16 190.872 317.508 193.048 318.475 194.858C319.436 196.668 322.308 198.767 323.457 197.069C330.456 186.763 325.073 171.976 320.798 160.272C320.008 158.114 316.624 159.93 315.911 162.112C315.197 164.293 313.529 169.34 312.279 167.418C310.693 164.977 312.851 161.345 310.557 159.541C308.269 157.743 304.702 157.825 302.497 159.736C301.312 160.761 292.321 171.893 291.59 173.279C286.325 183.266 292.256 189.245 287.38 189.404C283.783 189.522 285.269 186.32 284.461 182.812C283.654 179.304 281.048 175.949 277.481 175.425C274.014 174.912 274.975 169.346 277.734 167.182C280.493 165.018 284.438 163.326 284.744 159.836C284.939 157.642 287.875 156.841 290.004 157.418C292.132 157.996 294.084 159.364 296.289 159.352C298.494 159.341 300.734 156.681 299.266 155.036C297.462 153.014 298.907 149.736 300.917 147.92C302.934 146.11 305.557 144.754 306.654 142.278C307.697 139.907 307.049 137.166 307.391 134.601C307.733 132.036 310.127 129.248 312.497 130.291C313.776 130.851 314.407 132.308 314.655 133.681C315.799 140.025 305.929 144.542 307.261 150.85C308.358 156.033 316.771 155.526 321.524 157.867C322.243 158.22 322.992 158.58 323.793 158.574C326.346 158.556 327.319 155.137 326.918 152.613C326.517 150.09 325.604 147.242 327.113 145.178C328.322 143.522 330.674 143.085 332.042 141.558C334.736 138.545 332.124 133.852 329.365 130.898C326.606 127.944 323.44 123.912 325.321 120.339C327.478 116.241 322.325 111.424 317.727 111.984C313.134 112.544 309.631 116.212 306.477 119.596C303.323 122.98 299.626 126.535 294.998 126.748C292.663 126.854 291.761 129.967 292.268 132.249C292.775 134.53 294.031 136.794 293.506 139.076C292.798 142.136 289.231 143.604 286.095 143.71C282.958 143.811 279.762 143.05 276.708 143.769C269.645 145.444 266.821 153.675 264.191 160.437C260.447 170.071 254.805 178.968 247.682 186.456C242.181 192.24 235.755 197.275 231.504 204.032C226.539 211.944 224.924 221.69 225.001 230.923C225.071 239.06 228.226 242.291 231.15 249.313C235.92 260.763 235.478 259.259 247.818 260.374C255.377 261.058 262.357 265.863 264.775 273.245C266.449 278.362 275.653 276.93 277.646 281.935C279.308 286.116 274.232 290.031 273.925 294.517C273.784 296.551 274.651 298.509 275.588 300.325C278.66 306.262 282.704 311.692 287.516 316.332C289.567 318.313 291.778 320.171 293.423 322.5C296.637 327.051 297.344 332.841 298.317 338.324C302.126 359.792 311.553 380.245 325.397 397.084C327.868 400.091 332.69 406.948 334.713 403.622C341.493 392.491 311.536 377.35 320.197 367.61C324.99 362.215 325.963 353.288 333.068 352.056C337.118 351.354 338.215 346.172 338.657 342.086C339.099 338 341.086 332.818 345.19 333.112C348.097 333.319 350.101 330.07 350.361 327.163C350.62 324.257 349.865 321.267 350.597 318.443C352.218 312.14 360.755 307.441 358.409 301.374C357.742 299.659 356.274 298.385 354.741 297.365L354.73 297.359Z" fill="#F2D591"/>
<path d="M385.889 131.406C385.553 129.879 384.763 128.417 384.857 126.854C385.058 123.552 389.026 121.453 389.297 118.152C389.415 116.719 388.79 115.28 389.002 113.859C389.403 111.112 392.487 109.762 394.297 107.657C395.824 105.876 396.443 103.488 397.811 101.59C400.028 98.5005 404.243 96.5194 404.668 92.7401C405.157 88.3712 399.969 85.3996 395.576 85.5176C391.184 85.6355 386.939 87.534 382.552 87.3158C378.419 87.1095 374.545 85.04 370.412 84.8159C362.476 84.3855 355.59 90.7001 347.666 91.3251C346.422 91.4253 345.136 91.3841 343.963 91.8086C338.268 93.8663 341.322 99.7092 342.654 107.038C343.008 108.984 339.323 109.225 337.643 110.292C337.371 110.463 337.088 110.646 336.947 110.935C336.31 112.173 338.492 112.781 339.859 112.527C341.646 112.197 343.562 112.044 345.213 112.792C346.864 113.541 348.102 115.469 347.518 117.191C347.265 117.928 346.722 118.541 346.504 119.284C345.826 121.595 348.456 123.853 347.943 126.206C347.619 127.715 346.139 128.635 345.066 129.749C343.993 130.863 343.397 132.933 344.688 133.788C346.41 134.938 349.859 132.803 350.307 134.826C350.614 136.205 348.65 136.759 347.265 137.042C342.884 137.939 339.901 142.308 339.199 146.718C338.492 151.128 339.582 155.609 340.667 159.948C341.133 161.811 341.74 163.863 343.397 164.83C345.054 165.791 345.968 164.011 347.259 162.59C349.806 159.783 353.821 159.424 355.407 155.98C356.999 152.537 359.293 148.433 363.084 148.528C363.95 148.551 364.823 148.811 365.678 148.646C367.948 148.209 368.614 145.32 370.224 143.664C372.853 140.957 377.405 141.995 380.925 140.645C384.48 139.283 386.715 135.126 385.889 131.406Z" fill="#F2D591"/>
<path d="M410.623 188.402C410.364 189.817 410.369 191.757 411.755 192.134C412.533 192.347 413.341 191.863 413.866 191.25C414.385 190.637 414.727 189.882 415.251 189.269C416.377 187.954 418.182 187.465 419.579 186.445C420.982 185.431 421.908 183.214 420.64 182.04C419.709 181.18 418.146 181.421 417.15 180.637C415.54 179.37 416.578 166.469 410.434 172.283C408.088 174.505 410.228 174.629 411.112 176.988C412.392 180.401 411.248 184.947 410.617 188.408L410.623 188.402Z" fill="#F2D591"/>
<path d="M397.675 149.63C398.041 143.657 389.622 148.964 387.428 148.84C385.872 148.757 384.327 148.209 382.782 148.433C381.237 148.663 379.699 150.172 380.259 151.623C380.766 152.938 382.647 153.403 382.947 154.777C383.053 155.261 382.936 155.785 383.136 156.239C383.596 157.271 385.111 157.029 386.161 156.611C388.472 155.697 390.789 154.783 393.1 153.875C395.152 153.067 397.534 151.823 397.67 149.624L397.675 149.63Z" fill="#F2D591"/>
<path d="M543.477 221.455C542.109 211.35 545.641 201.096 544.562 190.955C543.052 176.776 532.964 165.214 523.354 154.683C521.261 152.39 519.091 150.037 516.279 148.728C513.466 147.42 509.811 147.402 507.541 149.519C506.344 150.633 505.177 152.408 503.597 152.001C502.924 151.83 502.423 151.276 501.963 150.751C499.746 148.204 497.535 145.657 495.319 143.11C494.806 142.52 494.246 141.901 493.491 141.695C491.545 141.164 490.107 143.599 489.947 145.609C489.788 147.62 490 149.973 488.479 151.299C487.512 152.142 486.139 152.266 484.877 152.52C482.011 153.091 479.399 154.507 476.829 155.898C474.535 157.142 472.884 159.076 471.216 161.081C469.995 162.549 467.661 160.338 466.481 158.84C464.931 156.865 461.57 155.414 461.824 152.915C462.112 150.031 467.496 155.662 469.907 154.058C471.021 153.316 471.015 151.564 470.255 150.462C469.488 149.359 468.215 148.746 467 148.18C465.155 147.325 463.309 146.464 461.47 145.609C459.689 144.784 457.838 143.9 456.629 142.349C455.627 141.058 455.161 139.407 454.112 138.157C451.777 135.362 447.202 135.498 444.136 137.467C441.07 139.436 439.148 142.72 437.338 145.887C435.162 149.695 433.434 154.377 431.117 157.938C429.862 159.866 424.325 161.7 425.045 164.4C425.257 165.208 425.97 165.78 426.418 166.487C427.085 167.542 426.241 168.828 426.507 170.048C427.102 172.778 431.654 170.821 434.384 170.213C434.808 170.119 435.186 170.485 435.551 170.437C436.689 170.296 436.854 170.378 437.615 171.222C438.7 172.418 438.735 173.291 439.071 174.576C439.395 175.82 440.999 176.357 442.273 176.563C444.083 176.858 446.022 176.05 447.095 174.565C447.838 173.539 448.104 171.982 447.219 171.08C446.612 170.461 445.627 170.32 445.032 169.689C443.505 168.079 445.739 165.414 445.126 163.28C444.902 162.496 444.295 161.835 444.212 161.027C444.124 160.137 444.684 159.329 445.221 158.616C445.928 157.673 446.689 156.682 447.773 156.216C448.858 155.751 450.368 156.045 450.828 157.13C451.464 158.628 449.825 160.108 449.601 161.717C449.301 163.828 451.441 165.455 453.445 166.175C455.45 166.9 457.761 167.36 458.999 169.093C460.391 171.051 459.489 174.199 457.272 175.119C455.951 175.673 454.389 175.49 453.115 176.151C451.464 177 450.763 178.975 449.383 180.219C446.824 182.53 442.768 181.734 439.637 180.295C439.053 180.03 438.464 179.158 437.904 179.47C437.408 179.747 438.316 180.632 438.033 181.074C437.007 182.683 434.201 178.185 432.727 179.399C431.33 180.549 432.939 183.037 431.683 184.334C430.428 185.637 428.73 186.392 427.185 187.329C421.784 190.602 416.136 192.683 410.9 196.209C407.251 198.667 418.777 202.694 417.02 206.727C416 209.068 412.569 208.437 410.175 207.558C407.781 206.686 404.12 206.633 403.713 209.15C403.483 210.559 404.597 211.892 404.509 213.319C404.438 214.439 403.648 215.371 403.253 216.42C402.121 219.427 404.709 222.917 407.87 223.513C411.03 224.114 414.255 222.458 416.472 220.135C418.689 217.806 420.116 214.864 421.684 212.057C422.22 211.102 422.798 210.129 423.659 209.457C426.536 207.216 431.359 209.05 433.965 206.497C434.354 206.114 434.679 205.642 435.174 205.412C436.306 204.888 437.585 205.943 438.063 207.093C438.54 208.242 438.611 209.569 439.283 210.618C440.887 213.112 445.221 213.13 446.123 215.954C446.706 217.782 445.999 220.712 447.903 220.966C448.623 221.06 449.306 220.565 449.713 219.958C451.046 217.953 450.002 215.217 448.534 213.307C447.066 211.403 444.383 209.764 444.554 207.358C444.708 205.206 448.381 206.397 450.085 207.712C453.375 210.259 456.948 213.301 457.284 217.452C457.408 218.955 457.071 220.476 457.301 221.968C457.531 223.46 458.828 225.777 460.126 225.005C461.865 223.967 460.933 221.043 461.664 219.156C462.39 217.269 464.954 215.748 466.363 217.198C467.59 218.454 466.705 220.53 466.794 222.287C466.929 224.957 469.577 226.95 472.23 227.292C474.883 227.634 477.542 224.922 480.048 225.86C482.395 226.738 481.616 230.724 480.932 233.135C480.726 233.872 480.425 234.639 480.419 235.382C477.289 234.35 474.176 233.041 470.915 233.283C469.247 233.406 467.572 233.943 465.927 233.642C463.127 233.135 459.477 229.309 457.92 231.691C456.7 233.554 456.122 235.942 454.017 236.679C451.912 237.416 449.407 236.814 447.862 235.205C447.072 234.385 446.459 233.288 445.38 232.917C444.507 232.616 443.558 232.876 442.632 232.929C440.545 233.041 436.318 232.068 437.296 230.223C438.7 227.581 441.388 225.635 439.413 223.389C437.438 221.143 434.024 220.889 431.07 221.361C428.287 221.803 425.581 222.746 423.122 224.126C420.847 225.406 418.689 227.092 416.106 227.457C413.04 227.894 409.809 226.378 406.879 227.398C401.349 229.32 401.932 237.71 397.787 241.843C396.319 243.306 394.35 244.125 392.687 245.357C391.025 246.59 389.592 248.565 390.028 250.587C390.27 251.713 391.054 252.651 391.396 253.747C392.251 256.483 390.264 259.189 389.256 261.878C387.829 265.704 388.431 270.044 390.017 273.806C391.603 277.567 394.108 280.857 396.585 284.1C397.558 285.379 399.055 286.806 400.529 286.163C401.207 285.869 401.626 285.197 402.174 284.701C405.234 281.93 410.039 285.373 414.137 284.86C416.472 284.566 418.406 282.986 420.463 281.83C422.515 280.674 425.227 279.973 427.12 281.376C428.629 282.496 429.349 284.784 431.206 285.108C432.821 285.391 434.419 283.929 436.005 284.353C438.116 284.919 438.057 288.003 437.096 289.966C436.135 291.93 434.714 294.141 435.663 296.11C436.571 298.003 439.23 298.504 440.185 300.373C441.441 302.825 439.018 305.597 438.953 308.356C438.9 310.697 440.575 312.79 440.633 315.13C440.704 318.12 438.187 320.513 437.385 323.391C436.441 326.751 437.915 330.248 439.047 333.555C441.064 339.463 442.019 345.677 442.673 351.886C443.01 355.105 440.74 359.792 443.452 361.555C449.631 365.582 455.934 353.79 461.317 348.749C463.48 346.727 465.756 344.492 466.281 341.574C466.564 339.994 466.387 338.119 467.596 337.063C468.274 336.468 469.217 336.309 470.007 335.884C473.71 333.903 472.153 328.143 474.07 324.411C476.381 319.918 483.562 318.809 484.399 313.827C484.682 312.141 484.099 310.449 483.839 308.763C482.801 302.059 486.97 295.503 492.282 291.293C495.33 288.882 498.892 286.883 500.908 283.563C501.857 282.001 502.435 280.179 503.685 278.847C505.253 277.172 507.6 276.529 509.628 275.468C511.656 274.401 514.752 271.819 513.195 270.132C510.86 267.609 506.073 268.423 503.207 270.327C502.335 270.905 501.61 271.712 500.666 272.161C498.308 273.287 495.442 271.789 493.839 269.726C492.235 267.662 491.41 265.097 489.959 262.922C488.503 260.752 485.413 261.218 483.444 259.496C478.468 255.145 475.591 246.714 481.664 240.711C482.129 240.252 482.701 239.65 483.332 238.996C486.398 242.309 485.419 248.099 487.919 252.026C490.154 255.534 494.918 257.132 496.38 261.023C496.745 261.996 496.893 263.098 497.577 263.877C498.508 264.938 500.094 265.056 501.503 265.021C508.608 264.867 515.666 262.886 521.815 259.325C523.23 258.505 524.639 257.556 525.494 256.165C526.349 254.767 526.491 252.822 525.429 251.578C524.362 250.328 522.534 250.174 520.913 249.933C512.971 248.771 505.784 243.317 502.535 235.977C502.164 235.14 501.84 234.191 502.134 233.324C502.429 232.457 503.88 231.697 504.298 232.51C506.686 237.139 509.351 242.121 514.498 242.928C517.464 243.394 520.825 242.858 523.189 244.709C523.902 245.263 524.462 246.006 525.235 246.472C527.57 247.881 530.541 246.248 533.265 246.419C535.582 246.566 537.569 248.011 539.627 249.084C541.684 250.157 544.308 250.841 546.23 249.532C548.052 248.294 548.453 245.794 548.394 243.589C548.188 236.012 544.497 228.949 543.477 221.438V221.455Z" fill="#F2D591"/>
<path d="M503.361 300.998C499.488 303.734 498.332 312.13 494.01 313.692C491.316 314.665 489.364 317.413 489.329 320.272C489.311 321.652 489.683 323.102 489.152 324.376C488.822 325.154 488.197 325.755 487.631 326.386C485.75 328.491 484.471 331.127 483.987 333.904C483.946 334.134 483.91 334.375 483.987 334.599C484.081 334.888 484.347 335.095 484.624 335.224C486.245 335.956 487.955 334.476 489.122 333.125C490.319 331.746 491.51 330.366 492.707 328.986C494.146 327.324 495.602 325.643 496.587 323.68C497.241 322.377 497.689 320.95 498.597 319.812C499.729 318.391 501.457 317.554 502.624 316.169C504.063 314.459 504.476 312.13 504.835 309.925C505.077 308.439 505.319 306.947 505.56 305.462C505.873 303.545 505.36 299.589 503.367 300.998H503.361Z" fill="#F2D591"/>
<path d="M403.412 182.576C402.551 182.9 401.549 182.329 401.018 183.083C400.488 183.832 400.429 184.811 400.423 185.736C400.417 187.01 400.493 188.366 401.213 189.421C401.932 190.477 403.494 191.055 404.526 190.3C404.88 190.046 405.128 189.675 405.446 189.374C406.23 188.649 407.374 188.437 408.205 187.765C409.597 186.644 409.744 184.587 409.55 182.812C409.408 181.533 409.048 180.129 407.969 179.44C407.062 178.856 405.605 179.298 405.275 180.206C404.674 180.984 404.402 182.217 403.424 182.582L403.412 182.576Z" fill="#F2D591"/>
<path d="M473.951 135.563C474.34 137.391 472.412 139.366 473.332 140.993C474.146 142.432 476.339 142.119 477.719 143.022C478.426 143.481 478.874 144.23 479.346 144.926C479.824 145.622 480.401 146.317 481.203 146.559C482.011 146.801 483.061 146.365 483.161 145.527C483.237 144.891 482.772 144.336 482.412 143.806C480.637 141.194 481.003 137.751 481.286 134.602C481.569 131.46 481.539 127.881 479.275 125.676C473.462 120.015 469.73 128.765 472.872 133.6C473.279 134.225 473.786 134.82 473.939 135.551L473.951 135.563Z" fill="#F2D591"/>
<path d="M427.639 115.008C428.924 116.329 431.112 116.306 432.185 117.98C432.727 118.829 432.816 119.902 433.329 120.769C433.836 121.641 435.162 122.207 435.823 121.447C436.064 121.17 436.141 120.792 436.212 120.433C436.383 119.548 436.548 118.599 436.17 117.779C435.652 116.659 434.189 115.999 434.142 114.767C434.095 113.605 435.321 112.874 436.164 112.072C443.01 105.563 429.927 95.3925 423.494 101.029C419.591 104.449 423.358 106.465 425.204 109.472C426.342 111.323 426.082 113.405 427.645 115.014L427.639 115.008Z" fill="#F2D591"/>
</g>
<g style="mix-blend-mode:multiply">
<path d="M447.845 142.2C452.172 142.2 455.68 140.862 455.68 139.211C455.68 137.56 452.172 136.222 447.845 136.222C443.517 136.222 440.009 137.56 440.009 139.211C440.009 140.862 443.517 142.2 447.845 142.2Z" fill="#F1D7B2"/>
</g>
<path d="M447.845 71C433.606 71 422.062 82.5443 422.062 96.7831C422.062 120.06 447.845 139.004 447.845 139.004C447.845 139.004 473.628 120.054 473.628 96.7831C473.628 82.5443 462.083 71 447.845 71ZM447.845 110.998C439.991 110.998 433.629 104.631 433.629 96.7831C433.629 88.9355 439.997 82.5679 447.845 82.5679C455.692 82.5679 462.06 88.9355 462.06 96.7831C462.06 104.631 455.692 110.998 447.845 110.998Z" fill="#D69E00"/>
</g>
<path opacity="0.2" d="M734.068 302C683.415 242.648 614.073 198.06 452.646 144.713C301.811 94.8689 166.235 71 166.235 71L184.206 80.3854C184.206 80.3854 312.645 104.288 434.634 155.087C607.345 227.007 672.279 329.326 696.617 399.16C698.268 403.904 750.211 464.989 755.136 499C759 520 759 457.5 759 443C759 408.5 759 366.5 759 325.652L734.068 302Z" fill="white"/>
<path d="M52.8354 61.1172L70.0226 61.5807L77.2706 76.1528L15.2705 82.3552L7.37744 78.7633L52.8354 61.1172Z" fill="#9E7C03"/>
<path d="M7.37771 78.7633L6.95459 76.1733L52.8357 61.1172L70.0229 61.5807L7.37771 78.7633Z" fill="#FFECCF"/>
<path d="M29.9262 71.7493C30.5573 68.8117 32.548 66.6988 34.386 67.0328L38.0897 67.7007L38.8666 67.8439L40.33 68.1097L41.6895 68.355H41.745C42.6258 68.5254 43.479 68.8049 44.2905 69.2002L46.9677 70.502L48.452 71.2245C49.7421 71.4562 50.4287 73.3169 49.9848 75.3821C49.7074 76.6703 49.0554 77.7336 48.2924 78.2925C47.9873 78.5174 47.6613 78.6605 47.3353 78.7014C47.1758 78.7219 47.0093 78.7219 46.8498 78.6946L45.5528 78.8105L42.1681 79.1172C41.2595 79.199 40.3508 79.1581 39.47 79.0013H39.463L37.3476 78.6196L36.4459 78.456L35.683 78.3197L32.111 77.6722C30.2799 77.3383 29.3019 74.6937 29.9262 71.7561V71.7493Z" fill="#C4A24A"/>
<path d="M35.545 72.765C35.0456 75.096 33.5267 76.7863 32.1534 76.5342C30.7801 76.282 30.0657 74.1963 30.5651 71.8585C31.0644 69.5275 32.5834 67.8372 33.9567 68.0894C35.33 68.3416 36.0444 70.434 35.545 72.765Z" fill="#9E7C03"/>
<path d="M43.3828 65.7458C44.1319 62.2288 46.5247 59.707 48.7165 60.1023L53.1485 60.9066L54.078 61.077L55.8327 61.3973L57.4627 61.6904L57.5251 61.704C58.5794 61.8949 59.599 62.2288 60.57 62.6991L63.7744 64.26L65.5499 65.1188C67.0897 65.3982 67.9151 67.627 67.388 70.0943C67.0551 71.6347 66.2782 72.9092 65.3627 73.5772C64.9951 73.843 64.6067 74.0134 64.2183 74.0679C64.0241 74.0952 63.8298 74.0952 63.6356 74.0543L62.082 74.1974L58.0314 74.5655C56.9425 74.6609 55.8605 74.62 54.8062 74.4291H54.7923L52.2539 73.9657L51.1788 73.768L50.2702 73.6044L45.9907 72.8274C43.792 72.4321 42.6268 69.2559 43.3759 65.7458H43.3828Z" fill="#C4A24A"/>
<path d="M50.1102 66.9661C49.5137 69.7606 47.6965 71.7781 46.0458 71.4782C44.402 71.1783 43.5489 68.6769 44.1453 65.8824C44.7418 63.0879 46.559 61.0705 48.2098 61.3704C49.8536 61.6703 50.7067 64.1716 50.1102 66.9661Z" fill="#9E7C03"/>
<path d="M157.45 72.159L182.343 52.9316L191.61 56.0874L182.413 81.9942L157.45 72.159Z" fill="#FFECCF"/>
<path d="M163.187 74.483L184.591 53.5176L191.61 56.0871L182.413 81.994L163.187 74.483Z" fill="#9E7C03"/>
<path d="M156.209 74.2246L153.664 67.7837L157.326 67.2861L172.758 76.6851L156.209 74.2246Z" fill="#947300"/>
<path d="M163.471 71.5933C153.296 67.5038 123.229 56.7825 113.851 53.5859C104.474 50.3893 37.2026 26.1659 27.305 25.9206C26.4658 25.9001 25.6474 26.0023 24.8359 26.1591C27.0623 26.8611 30.7383 28.0335 32.8746 28.7082C33.7555 28.9877 34.1577 29.976 33.7346 30.787L32.0632 33.9768C31.7302 34.6175 30.9811 34.9311 30.2875 34.7129C27.7767 33.9291 22.124 32.1775 21.1113 31.9185C19.086 31.4073 16.3047 30.9438 14.8343 30.7121C14.5846 30.8484 14.3419 30.9915 14.0852 31.1278C8.84168 33.9837 3.29293 36.6895 1.7046 39.3204C-0.494084 42.9532 0.185647 46.9337 2.97389 49.7622C5.64421 52.4681 13.35 59.5497 27.6657 63.1757C37.5702 65.6839 89.3954 79.6223 123.021 87.6308C138.009 91.2023 160.357 91.7339 165.892 90.3708C174.111 88.3533 182.683 85.7565 184.972 83.9162C188.801 80.8423 173.639 75.6759 163.464 71.5864L163.471 71.5933Z" fill="#947300"/>
<path d="M184.973 83.9093C182.691 85.7495 174.118 88.36 165.885 90.3638C160.357 91.7406 138.023 91.1885 123.028 87.6375C89.4026 79.6221 37.5636 65.6974 27.666 63.1756C13.3434 59.5564 5.65148 52.4543 2.98115 49.7485C0.192912 46.9267 -0.479855 42.9531 1.69802 39.3203C1.96852 38.8704 2.37079 38.4138 2.85631 37.9639C5.20758 35.7556 9.74367 33.4996 14.0786 31.1277C14.3422 30.9778 14.5849 30.8483 14.8415 30.6915C16.3189 30.9369 19.0933 31.3935 21.1047 31.8979C22.1173 32.1705 27.777 33.929 30.2878 34.6992C30.9953 34.9241 31.7236 34.5969 32.0635 33.9563L33.735 30.7733C34.165 29.9758 33.7627 28.9875 32.8819 28.7013C30.7456 28.0197 27.0626 26.861 24.8293 26.1453C25.6477 26.0022 26.4662 25.8932 27.2985 25.9136C37.1961 26.1522 104.474 50.3687 113.852 53.5721C123.229 56.7687 153.303 67.4968 163.471 71.5795C163.652 71.6476 163.825 71.7294 164.005 71.7976C174.173 75.8598 188.746 80.8831 184.973 83.9025V83.9093Z" fill="#947300"/>
<path d="M164.004 71.8044C155.75 73.5833 147.337 74.7079 139.5 74.5784C110.376 74.1286 50.588 54.3014 2.84814 37.9708C5.19942 35.7625 9.7355 33.5064 14.0704 31.1345C14.334 30.9846 14.5768 30.8551 14.8334 30.6983C16.3108 30.9437 19.0851 31.4003 21.0965 31.9047C22.1092 32.1773 27.7689 33.9358 30.2797 34.706C30.9871 34.9309 31.7155 34.6038 32.0553 33.9631L33.7268 30.7801C34.1568 29.9827 33.7546 28.9944 32.8737 28.7081C30.7374 28.0265 27.0545 26.8678 24.8211 26.1522C25.6396 26.009 26.458 25.9 27.2903 25.9204C37.1879 26.159 104.466 50.3755 113.844 53.579C123.221 56.7756 153.295 67.5036 163.463 71.5863C163.643 71.6545 163.817 71.7363 163.997 71.8044H164.004Z" fill="#FFECCF"/>
<path d="M30.2867 34.713C30.9872 34.9311 31.7294 34.6176 32.0623 33.9769L33.7338 30.7871C34.1569 29.976 33.7546 28.9946 32.8738 28.7083C30.7375 28.0267 27.0546 26.8612 24.8351 26.1592C21.4503 26.8135 18.2737 28.7969 14.8335 30.7121C16.3108 30.9439 19.0852 31.4073 21.1105 31.9185C22.1231 32.1775 27.7828 33.9292 30.2867 34.713Z" fill="#9E7C03"/>
<path d="M44.2768 32.3821L38.5547 30.4601C38.0553 30.2897 37.5004 30.5146 37.2646 30.9781L35.2185 34.9722C34.9202 35.5515 35.2324 36.2603 35.8635 36.4444L41.0585 37.9711C41.6411 38.1415 42.2653 37.9507 42.6537 37.494L44.9565 34.72C45.6154 33.9225 45.2686 32.7229 44.2768 32.389V32.3821Z" fill="#9E7C03"/>
<path d="M175.552 87.5225L192.462 87.4475L198.586 85.0347L166.32 77.9463L175.552 87.5225Z" fill="#9E7C03"/>
<path d="M59.6744 39.1088C60.3056 39.3269 60.701 40.0971 60.5414 40.8332L60.3195 41.8964C60.1669 42.6325 59.5218 43.0483 58.8907 42.8302C58.2595 42.6121 57.8642 41.8419 58.0237 41.1058L58.2457 40.0425C58.3983 39.3064 59.0433 38.8907 59.6744 39.1088Z" fill="#9E7C03"/>
<path d="M63.816 40.5199C64.4472 40.738 64.8426 41.5082 64.683 42.2443L64.4611 43.3076C64.3085 44.0437 63.6635 44.4594 63.0323 44.2413C62.4011 44.0232 62.0058 43.253 62.1653 42.5169L62.3873 41.4537C62.5399 40.7176 63.1849 40.3018 63.816 40.5199Z" fill="#9E7C03"/>
<path d="M67.9493 41.9301C68.5805 42.1482 68.9759 42.9184 68.8163 43.6545L68.5943 44.7177C68.4417 45.4538 67.7968 45.8696 67.1656 45.6515C66.5344 45.4334 66.1391 44.6632 66.2986 43.9271L66.5205 42.8638C66.6731 42.1277 67.3182 41.712 67.9493 41.9301Z" fill="#9E7C03"/>
<path d="M72.0826 43.348C72.7138 43.5661 73.1092 44.3363 72.9496 45.0724L72.7277 46.1357C72.5751 46.8718 71.9301 47.2876 71.2989 47.0695C70.6677 46.8514 70.2724 46.0812 70.4319 45.3451L70.6538 44.2818C70.8064 43.5457 71.4515 43.1299 72.0826 43.348Z" fill="#9E7C03"/>
<path d="M76.224 44.7592C76.8551 44.9773 77.2505 45.7475 77.0909 46.4836L76.869 47.5468C76.7164 48.2829 76.0714 48.6987 75.4402 48.4806C74.809 48.2625 74.4206 47.4923 74.5732 46.7562L74.7952 45.6929C74.9478 44.9568 75.5928 44.5411 76.224 44.7592Z" fill="#9E7C03"/>
<path d="M80.358 46.1693C80.9961 46.3874 81.3846 47.1576 81.225 47.8937L81.003 48.957C80.8504 49.6931 80.2054 50.1089 79.5743 49.8908C78.9431 49.6726 78.5478 48.9025 78.7073 48.1664L78.9292 47.1031C79.0818 46.367 79.7269 45.9512 80.358 46.1693Z" fill="#9E7C03"/>
<path d="M90.4703 49.6254C91.1014 49.8435 91.4898 50.6137 91.3372 51.3498L91.1152 52.413C90.9627 53.1491 90.3177 53.5649 89.6865 53.3468C89.0484 53.1287 88.66 52.3585 88.8195 51.6224L89.0414 50.5591C89.194 49.823 89.8391 49.4073 90.4703 49.6254Z" fill="#9E7C03"/>
<path d="M94.604 51.0365C95.2352 51.2546 95.6306 52.0248 95.471 52.7609L95.2491 53.8242C95.0965 54.5603 94.4515 54.976 93.8203 54.7579C93.1822 54.5398 92.7938 53.7697 92.9533 53.0335L93.1753 51.9703C93.3279 51.2342 93.9729 50.8184 94.604 51.0365Z" fill="#9E7C03"/>
<path d="M98.7447 52.4467C99.3758 52.6648 99.7712 53.435 99.6117 54.1711L99.3897 55.2343C99.2372 55.9704 98.5921 56.3862 97.9609 56.1681C97.3228 55.95 96.9344 55.1798 97.0939 54.4437L97.3159 53.3804C97.4685 52.6443 98.1135 52.2286 98.7447 52.4467Z" fill="#9E7C03"/>
<path d="M102.879 53.8578C103.51 54.0759 103.905 54.8461 103.746 55.5822L103.524 56.6455C103.371 57.3816 102.726 57.7973 102.095 57.5792C101.464 57.3611 101.068 56.5909 101.228 55.8548L101.45 54.7916C101.602 54.0555 102.247 53.6397 102.879 53.8578Z" fill="#9E7C03"/>
<path d="M107.019 55.2758C107.65 55.4939 108.046 56.2641 107.886 57.0002L107.664 58.0634C107.512 58.7995 106.867 59.2153 106.235 58.9972C105.604 58.7791 105.209 58.0089 105.368 57.2728L105.59 56.2095C105.743 55.4734 106.388 55.0577 107.019 55.2758Z" fill="#9E7C03"/>
<path d="M111.153 56.6869C111.784 56.905 112.179 57.6752 112.02 58.4113L111.798 59.4746C111.645 60.2107 111 60.6264 110.369 60.4083C109.738 60.1902 109.343 59.42 109.502 58.6839L109.724 57.6207C109.877 56.8846 110.522 56.4688 111.153 56.6869Z" fill="#9E7C03"/>
<path d="M121.266 60.1351C121.904 60.3532 122.292 61.1234 122.133 61.8595L121.911 62.9228C121.758 63.6589 121.113 64.0747 120.482 63.8566C119.851 63.6385 119.463 62.8683 119.615 62.1322L119.837 61.0689C119.99 60.3328 120.635 59.917 121.266 60.1351Z" fill="#9E7C03"/>
<path d="M125.399 61.5531C126.03 61.7712 126.419 62.5414 126.266 63.2775L126.044 64.3408C125.892 65.0769 125.246 65.4926 124.615 65.2745C123.984 65.0564 123.589 64.2862 123.748 63.5501L123.97 62.4869C124.123 61.7508 124.768 61.335 125.399 61.5531Z" fill="#9E7C03"/>
<path d="M129.541 62.9642C130.172 63.1823 130.567 63.9525 130.408 64.6886L130.186 65.7519C130.033 66.488 129.388 66.9038 128.757 66.6857C128.126 66.4676 127.73 65.6974 127.89 64.9613L128.112 63.898C128.264 63.1619 128.909 62.7461 129.541 62.9642Z" fill="#9E7C03"/>
<path d="M133.674 64.3754C134.306 64.5935 134.701 65.3637 134.541 66.0998L134.319 67.163C134.167 67.8991 133.522 68.3149 132.891 68.0968C132.252 67.8787 131.864 67.1085 132.024 66.3724L132.246 65.3091C132.398 64.573 133.043 64.1573 133.674 64.3754Z" fill="#9E7C03"/>
<path d="M137.815 65.7855C138.446 66.0036 138.841 66.7738 138.682 67.5099L138.46 68.5732C138.307 69.3093 137.662 69.7251 137.031 69.507C136.393 69.2889 136.005 68.5187 136.164 67.7826L136.386 66.7193C136.539 65.9832 137.184 65.5674 137.815 65.7855Z" fill="#9E7C03"/>
<path d="M141.949 67.1967C142.587 67.4148 142.975 68.185 142.816 68.9211L142.594 69.9843C142.441 70.7204 141.796 71.1362 141.165 70.9181C140.534 70.7 140.139 69.9298 140.298 69.1937L140.52 68.1304C140.673 67.3943 141.318 66.9786 141.949 67.1967Z" fill="#9E7C03"/>
<path d="M73.2549 49.8235L74.6213 55.7259L118.227 63.4278L196.298 34.7605L184.223 27.7471L73.2549 49.8235Z" fill="#9E7C03"/>
<path d="M187.746 29.7986L184.223 27.7471L73.2549 49.8235L74.6213 55.7259L187.746 29.7986Z" fill="#FFECCF"/>
<path d="M85.5869 54.9636C86.336 51.4466 88.7289 48.9248 90.9207 49.3201L95.3527 50.1244L96.2821 50.2948L98.0369 50.6151L99.6668 50.9082L99.7292 50.9218C100.783 51.1127 101.803 51.4466 102.774 51.9169L105.979 53.4777L107.754 54.3365C109.294 54.616 110.119 56.8447 109.592 59.3121C109.259 60.8524 108.482 62.127 107.567 62.7949C107.199 63.0608 106.811 63.2311 106.422 63.2857C106.228 63.3129 106.034 63.3129 105.84 63.272L104.286 63.4152L100.236 63.7832C99.1466 63.8786 98.0646 63.8378 97.0103 63.6469H96.9965L94.458 63.1834L93.3829 62.9858L92.4743 62.8222L88.1948 62.0452C85.9961 61.6499 84.8309 58.4737 85.58 54.9636H85.5869Z" fill="#C4A24A"/>
<path d="M92.3149 56.1771C91.7184 58.9716 89.9011 60.989 88.2504 60.6891C86.6066 60.3892 85.7534 57.8878 86.3499 55.0934C86.9464 52.2989 88.7637 50.2814 90.4145 50.5813C92.0583 50.8812 92.9114 53.3826 92.3149 56.1771Z" fill="#9E7C03"/>
<path d="M103.8 49.0065C104.549 45.4896 106.942 42.9677 109.134 43.3631L113.566 44.1673L114.495 44.3377L116.25 44.6581L117.88 44.9511L117.943 44.9648C118.997 45.1556 120.016 45.4896 120.987 45.9599L124.192 47.5207L125.967 48.3795C127.507 48.6589 128.333 50.8877 127.805 53.355C127.473 54.8954 126.696 56.17 125.78 56.8379C125.413 57.1037 125.024 57.2741 124.636 57.3286C124.442 57.3559 124.247 57.3559 124.053 57.315L122.499 57.4581L118.449 57.8262C117.36 57.9216 116.278 57.8807 115.224 57.6899H115.21L112.671 57.2264L111.596 57.0287L110.688 56.8652L106.408 56.0882C104.209 55.6928 103.044 52.5167 103.793 49.0065H103.8Z" fill="#C4A24A"/>
<path d="M110.528 50.2269C109.931 53.0213 108.114 55.0388 106.463 54.7389C104.819 54.439 103.966 51.9376 104.563 49.1432C105.159 46.3487 106.977 44.3312 108.627 44.6311C110.271 44.931 111.124 47.4324 110.528 50.2269Z" fill="#9E7C03"/>
<path d="M198.586 85.0343L198.607 83.453L166.036 75.8125L166.321 77.9458L198.586 85.0343Z" fill="#947300"/>
<path d="M111.47 198.252H137.679C145.072 198.252 151.077 204.441 151.077 212.061V300.182H98.0718V212.061C98.0718 204.441 104.077 198.252 111.47 198.252Z" stroke="#272C34" stroke-width="5.08459" stroke-miterlimit="10"/>
<path d="M113.778 198.252H139.986C147.38 198.252 153.385 204.441 153.385 212.061V300.182H100.379V212.061C100.379 204.441 106.384 198.252 113.778 198.252Z" stroke="#636A75" stroke-width="5.08459" stroke-miterlimit="10"/>
<path d="M68.5886 482.908L74.4546 482.99L73.9255 497.821L68.0595 497.739C65.2356 497.678 63.0665 494.311 63.212 490.215C63.3575 486.118 65.7647 482.847 68.5886 482.908Z" fill="#231A00"/>
<path d="M68.5886 482.908L74.4546 482.99L73.9255 497.821L68.0595 497.739C65.2356 497.678 63.0665 494.311 63.212 490.215C63.3575 486.118 65.7647 482.847 68.5886 482.908Z" fill="#3A3A3A"/>
<path d="M69.0782 490.297C68.9327 494.393 71.1018 497.76 73.9257 497.821C76.7496 497.883 79.1568 494.611 79.3023 490.515C79.4478 486.418 77.2787 483.051 74.4548 482.99C71.6309 482.929 69.2237 486.2 69.0782 490.297Z" fill="#231A00"/>
<path d="M70.9429 490.337C70.8503 492.941 72.2259 495.081 74.0181 495.115C75.8103 495.156 77.338 493.077 77.4306 490.474C77.5231 487.87 76.1476 485.73 74.3554 485.696C72.5632 485.655 71.0355 487.734 70.9429 490.337Z" fill="#231A00"/>
<path d="M87.9328 482.908L93.7988 482.99L93.2697 497.821L87.4037 497.739C84.5799 497.678 82.4107 494.311 82.5562 490.215C82.7017 486.118 85.109 482.847 87.9328 482.908Z" fill="#231A00"/>
<path d="M87.9328 482.908L93.7988 482.99L93.2697 497.821L87.4037 497.739C84.5799 497.678 82.4107 494.311 82.5562 490.215C82.7017 486.118 85.109 482.847 87.9328 482.908Z" fill="#3A3A3A"/>
<path d="M88.4224 490.297C88.2769 494.393 90.4461 497.76 93.2699 497.821C96.0938 497.883 98.5011 494.611 98.6466 490.515C98.792 486.418 96.6229 483.051 93.799 482.99C90.9752 482.929 88.5679 486.2 88.4224 490.297Z" fill="#231A00"/>
<path d="M90.2871 490.338C90.1945 492.942 91.5701 495.082 93.3623 495.116C95.1545 495.157 96.6822 493.078 96.7748 490.475C96.8674 487.871 95.4918 485.731 93.6996 485.697C91.9074 485.656 90.3797 487.735 90.2871 490.338Z" fill="#231A00"/>
<path d="M147.34 482.908L153.206 482.99L152.677 497.821L146.811 497.739C143.987 497.678 141.818 494.311 141.963 490.215C142.109 486.118 144.516 482.847 147.34 482.908Z" fill="#231A00"/>
<path d="M147.34 482.908L153.206 482.99L152.677 497.821L146.811 497.739C143.987 497.678 141.818 494.311 141.963 490.215C142.109 486.118 144.516 482.847 147.34 482.908Z" fill="#3A3A3A"/>
<path d="M147.83 490.297C147.684 494.393 149.853 497.76 152.677 497.821C155.501 497.883 157.908 494.611 158.054 490.515C158.199 486.418 156.03 483.051 153.206 482.99C150.382 482.929 147.975 486.2 147.83 490.297Z" fill="#231A00"/>
<path d="M149.694 490.337C149.602 492.941 150.977 495.081 152.77 495.115C154.562 495.149 156.089 493.077 156.182 490.474C156.275 487.87 154.899 485.73 153.107 485.696C151.315 485.655 149.787 487.734 149.694 490.337Z" fill="#231A00"/>
<path d="M166.684 482.908L172.55 482.99L172.021 497.821L166.155 497.739C163.331 497.678 161.162 494.311 161.308 490.215C161.453 486.118 163.86 482.847 166.684 482.908Z" fill="#231A00"/>
<path d="M166.684 482.908L172.55 482.99L172.021 497.821L166.155 497.739C163.331 497.678 161.162 494.311 161.308 490.215C161.453 486.118 163.86 482.847 166.684 482.908Z" fill="#3A3A3A"/>
<path d="M167.174 490.297C167.028 494.393 169.198 497.76 172.021 497.821C174.845 497.883 177.253 494.611 177.398 490.515C177.544 486.418 175.374 483.051 172.551 482.99C169.727 482.929 167.319 486.2 167.174 490.297Z" fill="#231A00"/>
<path d="M169.039 490.337C168.946 492.941 170.322 495.081 172.114 495.115C173.906 495.156 175.434 493.077 175.526 490.474C175.619 487.87 174.243 485.73 172.451 485.696C170.659 485.655 169.131 487.734 169.039 490.337Z" fill="#231A00"/>
<path d="M56.1763 275.822H103.303V485.292H56.1763C49.4109 485.292 43.9219 479.635 43.9219 472.663V288.452C43.9219 281.479 49.4109 275.822 56.1763 275.822Z" fill="#E8B852"/>
<path d="M61.3278 427.12H65.8777V466.263H61.3278C60.144 466.263 59.1851 465.275 59.1851 464.055V429.328C59.1851 428.108 60.144 427.12 61.3278 427.12Z" fill="#C18835"/>
<path d="M169.27 277.09C175.348 277.09 180.294 282.188 180.294 288.452V472.663C180.294 478.926 175.348 484.025 169.27 484.025H77.6958C71.6182 484.025 66.6715 478.926 66.6715 472.663V288.452C66.6715 282.188 71.6182 277.09 77.6958 277.09H169.27ZM169.27 275.822H77.6958C70.9305 275.822 65.4414 281.479 65.4414 288.452V472.663C65.4414 479.635 70.9305 485.292 77.6958 485.292H169.27C176.035 485.292 181.524 479.635 181.524 472.663V288.452C181.524 281.479 176.035 275.822 169.27 275.822Z" fill="#C18835"/>
<path d="M183.085 275.822H91.5113C84.7433 275.822 79.2568 281.477 79.2568 288.452V472.663C79.2568 479.638 84.7433 485.292 91.5113 485.292H183.085C189.853 485.292 195.34 479.638 195.34 472.663V288.452C195.34 281.477 189.853 275.822 183.085 275.822Z" fill="#C18835"/>
<path d="M168.344 351.267H166.816C165.965 351.267 165.275 351.978 165.275 352.855V439.265C165.275 440.142 165.965 440.854 166.816 440.854H168.344C169.195 440.854 169.885 440.142 169.885 439.265V352.855C169.885 351.978 169.195 351.267 168.344 351.267Z" fill="#C18835"/>
<path d="M169.819 351.267H168.291C167.44 351.267 166.75 351.978 166.75 352.855V439.265C166.75 440.142 167.44 440.854 168.291 440.854H169.819C170.67 440.854 171.36 440.142 171.36 439.265V352.855C171.36 351.978 170.67 351.267 169.819 351.267Z" fill="#E8B852"/>
<path d="M139.537 351.267H138.009C137.158 351.267 136.468 351.978 136.468 352.855V439.265C136.468 440.142 137.158 440.854 138.009 440.854H139.537C140.388 440.854 141.078 440.142 141.078 439.265V352.855C141.078 351.978 140.388 351.267 139.537 351.267Z" fill="#C18835"/>
<path d="M141.011 351.267H139.484C138.633 351.267 137.943 351.978 137.943 352.855V439.265C137.943 440.142 138.633 440.854 139.484 440.854H141.011C141.862 440.854 142.552 440.142 142.552 439.265V352.855C142.552 351.978 141.862 351.267 141.011 351.267Z" fill="#E8B852"/>
<path d="M109.175 311.708H126.879C128.539 311.708 129.888 313.098 129.888 314.809V329.981C129.888 331.692 128.539 333.082 126.879 333.082H109.175C107.515 333.082 106.166 331.692 106.166 329.981V314.809C106.166 313.098 107.515 311.708 109.175 311.708Z" fill="#C18835"/>
<path d="M169.852 311.708H110.822C109.16 311.708 107.812 313.096 107.812 314.809V329.981C107.812 331.694 109.16 333.082 110.822 333.082H169.852C171.514 333.082 172.861 331.694 172.861 329.981V314.809C172.861 313.096 171.514 311.708 169.852 311.708Z" fill="#E8B852"/>
<path d="M110.736 351.267H109.208C108.357 351.267 107.667 351.978 107.667 352.855V439.265C107.667 440.142 108.357 440.854 109.208 440.854H110.736C111.587 440.854 112.277 440.142 112.277 439.265V352.855C112.277 351.978 111.587 351.267 110.736 351.267Z" fill="#C18835"/>
<path d="M112.211 351.267H110.683C109.832 351.267 109.142 351.978 109.142 352.855V439.265C109.142 440.142 109.832 440.854 110.683 440.854H112.211C113.062 440.854 113.752 440.142 113.752 439.265V352.855C113.752 351.978 113.062 351.267 112.211 351.267Z" fill="#E8B852"/>
<path d="M299.817 55.9784C299.103 64.3346 295.426 66.3384 291.259 68.7785C290.419 69.2692 289.593 69.6645 288.806 70.0121C283.343 72.3908 279.157 71.8797 279.157 71.8797C279.157 71.8797 263.49 74.3333 253.233 71.1844C252.386 70.9323 251.579 70.6324 250.825 70.2916C243.604 67.0609 238.855 69.6986 238.922 53.7224C238.948 47.8403 239.682 38.0392 240.383 31.6869C241.746 19.3094 243.505 11.4917 252.406 9.16746C252.406 9.16746 255.038 5.41877 260.256 3.38085C267.074 0.722682 279.388 0.770398 286.769 8.02923C291.22 12.405 293.375 17.6599 296.014 25.8934C299.658 37.2281 300.498 47.9766 299.817 55.9784Z" fill="#34383F"/>
<path d="M219.67 409.548C221.508 424.454 221.607 458.151 219.921 468.532C218.235 478.919 213.447 481.72 208.381 485.36C203.011 489.225 202.594 489.783 202.594 489.783C204.287 492.333 216.191 492.619 223.651 489.054C231.111 485.489 236.282 481.543 239.715 481.795C243.147 482.047 240.627 473.132 238.002 465.751C235.383 458.363 237.989 443.831 240.541 432.749C244.218 416.766 246.103 391.718 243.497 374.821L220.602 376.914C220.602 376.914 218.572 400.633 219.67 409.541V409.548Z" fill="#E7B2A1"/>
<path d="M210.213 484.051C209.572 488.332 216.271 488.189 220.417 487.166C224.564 486.144 231.66 484.174 235.476 480.971C236.931 479.751 238.286 477.944 238.895 477.154C240.323 475.273 240.409 473.037 240.409 473.037C240.409 473.037 243.961 478.203 242.149 483.159C240.343 488.114 239.721 497.254 239.721 497.254H235.939L235.251 491.481C235.251 491.481 231.746 492.476 228.995 493.818C225.152 495.7 221.694 497.438 217.17 497.69C211.807 497.99 208.884 497.69 204.645 497.69C195.73 497.69 195.241 495.706 200.935 490.513C203.93 487.773 210.206 484.051 210.206 484.051H210.213Z" fill="#1D2438"/>
<path d="M298.699 409.548C296.86 424.454 296.761 458.151 298.448 468.532C300.134 478.919 298.494 477.276 303.619 485.428C307.184 491.099 307.905 491.719 307.905 491.719C306.212 494.268 301.701 494.18 294.242 490.615C286.782 487.05 280.77 484.597 278.647 481.802C275.731 477.965 277.735 473.139 280.36 465.758C282.979 458.369 280.374 443.838 277.821 432.756C274.144 416.773 272.259 391.724 274.865 374.828L297.76 376.921C297.76 376.921 299.79 400.64 298.692 409.548H298.699Z" fill="#E7B2A1"/>
<path d="M303.976 485.428C299.757 487.773 293.97 487.186 290.624 486.164C287.278 485.142 284.573 484.174 281.491 480.964C280.321 479.744 279.223 477.937 278.733 477.147C277.583 475.266 278.013 473.95 278.013 473.95C278.013 473.95 274.646 478.203 276.108 483.158C277.57 488.113 277.768 497.253 277.768 497.253H282.093L282.807 490.928C282.807 490.928 284.084 491.719 285.558 493.171C288.131 495.699 291.272 497.437 294.916 497.69C299.241 497.99 302.938 497.69 306.357 497.69C313.546 497.69 313.943 495.706 309.353 490.513C306.932 487.773 303.983 485.428 303.983 485.428H303.976Z" fill="#1D2438"/>
<path d="M297.33 171.247C312.11 212.435 310.854 204.849 314.65 228.691C318.446 252.539 311.555 308.899 310.384 343.585C309.214 378.27 299.082 454.6 299.082 454.6C299.082 454.6 289.202 458.417 276.987 453.994C276.987 453.994 267.504 288.179 265.546 254.584C263.589 220.989 261.565 171.247 261.565 171.247H297.323H297.33Z" fill="#764E00"/>
<path d="M275.056 245.607C275.056 245.607 261.049 288.587 257.538 322.448C254.026 356.309 240.065 449.461 240.859 455.322C240.859 455.322 226.039 458.962 217.746 455.868C217.746 455.868 215.821 392.133 217.309 353.706C218.804 315.285 216.244 268.242 222.805 229.324C228.77 193.93 239.477 168.111 239.477 168.111L261.572 171.24L275.056 245.607Z" fill="#764E00"/>
<path d="M263.152 224.232C265.513 236.29 268.82 302.362 269.792 319.667" stroke="#272C34" stroke-width="1.25411" stroke-miterlimit="10"/>
<path d="M283.647 73.4331C281.207 70.3114 280.506 63.3866 280.565 56.0391C273.046 56.3799 265.533 56.4481 258.027 55.7393C258.126 62.9708 257.359 70.0933 254.615 74.3532C252.915 76.9841 232.09 84.7541 232.09 84.7541L231.382 116.379L238.63 146.642L296.735 142.975C296.735 142.975 298.163 125.383 301.695 113.98C302.978 109.836 302.019 82.8866 302.019 82.8866C291.054 77.5703 284.745 74.8235 283.654 73.4263L283.647 73.4331Z" fill="#E7B2A1"/>
<path d="M280.546 56.0391C273.039 56.3799 265.533 56.4481 258.041 55.7393C258.12 61.3896 257.67 66.9581 256.156 71.1293C258.543 71.8995 261.102 71.9472 263.503 71.8245C269.151 71.5315 275.07 70.1888 280.453 67.7078C280.737 67.5783 281.022 67.4352 281.306 67.2989C280.698 64.0886 280.499 60.1354 280.539 56.046L280.546 56.0391Z" fill="#D38576"/>
<path d="M348.629 104.438C348.808 103.798 350.256 100.778 350.428 97.9294C350.6 95.0736 352.868 90.6978 353.913 89.8118C354.951 88.9257 360.361 85.0748 361.227 84.5023C362.59 83.6026 363.211 84.1887 363.218 85.3611C363.225 86.6083 362.729 87.9715 361.082 89.2597C359.442 90.5479 358.192 92.688 358.192 92.688C358.192 92.688 362.577 91.2703 364.276 90.3093C365.976 89.3483 368.853 86.363 370.089 85.1838C371.326 84.0047 375.3 79.1859 376.253 78.4635C377.456 77.557 378.369 77.5501 378.839 77.8841C379.308 78.2181 378.64 79.9084 378.012 80.9581C377.027 82.5938 374.732 85.7904 373.958 86.7787C374.791 85.9268 375.744 84.9453 376.663 83.9979C377.88 82.7438 378.574 81.5647 379.269 80.6582C379.963 79.7448 380.677 78.9201 381.107 78.6475C382.291 77.8978 383.117 78.9678 382.985 79.997C382.886 80.7672 382.449 81.6396 382.449 81.6396C382.449 81.6396 383.554 81.7282 383.184 83.3981C382.939 84.4818 382.112 85.845 382.112 85.845C382.112 85.845 383.038 86.806 382.251 88.544C381.775 89.5868 379.222 93.1652 378.607 94.4124C377.992 95.6597 376.378 98.4406 375.922 99.238C374.937 100.949 370.559 105.652 366.445 107.724C364.461 108.726 359.726 110.096 358.8 110.975C357.874 111.861 349.509 133.044 349.509 133.044L341.05 118.152C341.05 118.152 348.464 105.086 348.642 104.445L348.629 104.438Z" fill="#E7B2A1"/>
<path d="M358.641 115.044C355.434 110.614 347.908 105.836 347.908 105.836L329.378 133.747C329.378 133.747 312.441 94.808 310.212 90.2073C307.984 85.6066 300.762 81.374 300.762 81.374C300.762 81.374 297.416 106.374 298.156 115.957C298.897 125.54 302.389 133.345 304.994 141.012C307.6 148.68 319.835 171.445 325.046 171.445C330.257 171.445 335.118 170.15 341.844 154.692C344.502 148.585 358.641 115.044 358.641 115.044Z" fill="#DAB859"/>
<path d="M324.716 148.311C324.716 148.311 325.866 139.055 335.072 125.376" stroke="#A87C00" stroke-width="0.790633" stroke-miterlimit="10"/>
<path d="M227.791 133.8C225.88 145.108 230.165 144.494 230.496 154.227C230.787 162.795 232.996 168.69 229.392 181.088C228.168 185.314 226.647 191.237 225.252 196.922C241.679 200.807 258.404 203.512 275.314 202.483C287.456 201.74 299.063 198.169 310.682 194.659C309.28 188.449 308.03 181.968 307.594 176.931C306.384 163.108 306.688 159.319 308.374 148.345C311.39 128.743 306.099 120.625 305.742 112.494C305.107 98.0447 300.63 81.196 300.63 81.196C300.63 81.196 295.657 79.0831 290.591 76.9771C288.144 75.9615 286.001 74.6392 281.65 71.1973C278.178 72.0152 274.653 72.5877 271.049 72.799C266.267 73.0784 261.063 73.392 256.4 71.947C252.617 76.534 250.488 77.1679 248.054 77.9449C243.055 79.5534 228.889 84.2632 227.646 86.5601C224.69 91.9855 224.604 101.044 226.111 111.397C227.619 121.743 229.702 122.507 227.791 133.814V133.8Z" fill="#DAB859"/>
<path d="M300.629 105.365C300.629 105.365 308.387 127.067 308.453 135.709C308.519 144.406 308.221 149.457 307.302 155.386" stroke="#A87C00" stroke-width="0.790633" stroke-miterlimit="10"/>
<path d="M284.5 98.7949H242.453C241.266 98.7949 240.304 99.7867 240.304 101.01V166.953C240.304 168.176 241.266 169.168 242.453 169.168H284.5C285.687 169.168 286.65 168.176 286.65 166.953V101.01C286.65 99.7867 285.687 98.7949 284.5 98.7949Z" fill="#B3B2AF"/>
<path d="M239.179 115.514C239.179 115.514 236.706 116.447 235.449 115.698C234.192 114.948 234.966 113.053 237.466 113.414" stroke="white" stroke-width="0.940581" stroke-linecap="round" stroke-linejoin="round"/>
<path d="M239.179 124.128C239.179 124.128 236.706 125.062 235.449 124.312C234.192 123.562 234.966 121.667 237.466 122.029" stroke="white" stroke-width="0.940581" stroke-linecap="round" stroke-linejoin="round"/>
<path d="M239.179 132.751C239.179 132.751 236.706 133.685 235.449 132.935C234.192 132.185 234.966 130.291 237.466 130.652" stroke="white" stroke-width="0.940581" stroke-linecap="round" stroke-linejoin="round"/>
<path d="M239.179 141.373C239.179 141.373 236.706 142.307 235.449 141.557C234.192 140.807 234.966 138.913 237.466 139.274" stroke="white" stroke-width="0.940581" stroke-linecap="round" stroke-linejoin="round"/>
<path d="M239.179 149.988C239.179 149.988 236.706 150.922 235.449 150.172C234.192 149.423 234.966 147.528 237.466 147.889" stroke="white" stroke-width="0.940581" stroke-linecap="round" stroke-linejoin="round"/>
<path d="M239.179 158.609C239.179 158.609 236.706 159.543 235.449 158.793C234.192 158.044 234.966 156.149 237.466 156.51" stroke="white" stroke-width="0.940581" stroke-linecap="round" stroke-linejoin="round"/>
<path d="M239.179 167.231C239.179 167.231 236.706 168.165 235.449 167.416C234.192 166.666 234.966 164.771 237.466 165.132" stroke="white" stroke-width="0.627054" stroke-linecap="round" stroke-linejoin="round"/>
<path d="M286.1 103.17H239.973C238.705 103.17 237.678 104.229 237.678 105.535V174.061C237.678 175.367 238.705 176.426 239.973 176.426H286.1C287.368 176.426 288.395 175.367 288.395 174.061V105.535C288.395 104.229 287.368 103.17 286.1 103.17Z" fill="#EBEBEB"/>
<path d="M284.771 103.852H238.643C237.376 103.852 236.349 104.91 236.349 106.217V174.743C236.349 176.049 237.376 177.108 238.643 177.108H284.771C286.038 177.108 287.066 176.049 287.066 174.743V106.217C287.066 104.91 286.038 103.852 284.771 103.852Z" fill="#4D4D62"/>
<path d="M239.179 116.283C239.61 116.283 239.959 115.923 239.959 115.479C239.959 115.035 239.61 114.675 239.179 114.675C238.748 114.675 238.398 115.035 238.398 115.479C238.398 115.923 238.748 116.283 239.179 116.283Z" stroke="white" stroke-width="1.25411" stroke-miterlimit="10"/>
<path d="M239.179 115.514C239.179 115.514 236.706 116.447 235.449 115.698" stroke="white" stroke-width="0.940581" stroke-linecap="round" stroke-linejoin="round"/>
<path d="M239.179 124.906C239.61 124.906 239.959 124.546 239.959 124.102C239.959 123.658 239.61 123.298 239.179 123.298C238.748 123.298 238.398 123.658 238.398 124.102C238.398 124.546 238.748 124.906 239.179 124.906Z" stroke="white" stroke-width="1.25411" stroke-miterlimit="10"/>
<path d="M239.179 124.128C239.179 124.128 236.706 125.062 235.449 124.312" stroke="white" stroke-width="0.940581" stroke-linecap="round" stroke-linejoin="round"/>
<path d="M239.179 133.527C239.61 133.527 239.959 133.167 239.959 132.723C239.959 132.279 239.61 131.919 239.179 131.919C238.748 131.919 238.398 132.279 238.398 132.723C238.398 133.167 238.748 133.527 239.179 133.527Z" stroke="white" stroke-width="1.25411" stroke-miterlimit="10"/>
<path d="M239.179 132.751C239.179 132.751 236.706 133.685 235.449 132.935" stroke="white" stroke-width="0.940581" stroke-linecap="round" stroke-linejoin="round"/>
<path d="M239.179 142.144C239.61 142.144 239.959 141.784 239.959 141.339C239.959 140.895 239.61 140.535 239.179 140.535C238.748 140.535 238.398 140.895 238.398 141.339C238.398 141.784 238.748 142.144 239.179 142.144Z" stroke="white" stroke-width="1.25411" stroke-miterlimit="10"/>
<path d="M239.179 141.373C239.179 141.373 236.706 142.307 235.449 141.557" stroke="white" stroke-width="0.940581" stroke-linecap="round" stroke-linejoin="round"/>
<path fill-rule="evenodd" clip-rule="evenodd" d="M239.966 149.961C239.966 150.404 239.616 150.765 239.186 150.765C238.756 150.765 238.406 150.404 238.406 149.961C238.406 149.518 238.756 149.156 239.186 149.156C239.616 149.156 239.966 149.518 239.966 149.961Z" stroke="white" stroke-width="1.25411" stroke-miterlimit="10"/>
<path d="M239.179 149.988C239.179 149.988 236.706 150.922 235.449 150.172" stroke="white" stroke-width="0.940581" stroke-linecap="round" stroke-linejoin="round"/>
<path d="M239.179 159.387C239.61 159.387 239.959 159.027 239.959 158.583C239.959 158.138 239.61 157.778 239.179 157.778C238.748 157.778 238.398 158.138 238.398 158.583C238.398 159.027 238.748 159.387 239.179 159.387Z" stroke="white" stroke-width="1.25411" stroke-miterlimit="10"/>
<path d="M239.179 158.61C239.179 158.61 236.706 159.544 235.449 158.794" stroke="white" stroke-width="0.940581" stroke-linecap="round" stroke-linejoin="round"/>
<path fill-rule="evenodd" clip-rule="evenodd" d="M239.966 167.198C239.966 167.641 239.616 168.002 239.186 168.002C238.756 168.002 238.406 167.641 238.406 167.198C238.406 166.755 238.756 166.394 239.186 166.394C239.616 166.394 239.966 166.755 239.966 167.198Z" stroke="white" stroke-width="1.25411" stroke-miterlimit="10"/>
<path d="M239.179 167.231C239.179 167.231 236.706 168.165 235.449 167.415" stroke="white" stroke-width="1.25411" stroke-linecap="round" stroke-linejoin="round"/>
<path d="M276.379 112.119H250.607C249.212 112.119 248.081 113.285 248.081 114.723V135.954C248.081 137.392 249.212 138.558 250.607 138.558H276.379C277.774 138.558 278.905 137.392 278.905 135.954V114.723C278.905 113.285 277.774 112.119 276.379 112.119Z" fill="#EBEBEB"/>
<path d="M262.776 141.496C264.475 140.76 267.709 138.149 268.873 137.215C270.044 136.282 273.026 132.001 274.713 131.327C276.399 130.652 280.162 130.257 282.113 129.991C284.057 129.725 286.008 128.784 286.134 129.323C286.266 129.861 285.611 131.865 283.535 132.799C281.458 133.733 278.859 134.135 278.343 134.407C277.821 134.673 276.009 136.411 276.009 136.411C276.009 136.411 280.552 136.548 282.371 136.275C283.978 136.036 286.107 135.437 288.402 134.571L288.382 133.923C288.541 133.862 289.235 133.998 289.48 134.135C290.174 134.523 291.067 136.077 289.778 137.952C289.778 137.952 290.869 138.64 290.809 140.112C290.75 141.591 290.247 142.464 290.247 142.464C290.247 142.464 291.206 143.132 290.75 144.692C290.287 146.246 288.964 147.419 288.964 147.419C288.964 147.419 290.234 147.725 289.096 149.463C287.959 151.201 285.863 152.06 283.402 152.994C280.936 153.928 276.134 152.19 270.421 153.396C264.707 154.603 258.351 156.075 258.351 156.075L254.979 144.433C254.979 144.433 261.05 142.232 262.769 141.489L262.776 141.496Z" fill="#E7B2A1"/>
<path d="M258.583 142.614C251.943 145.551 245.568 147.835 243.862 148.414C228.691 153.58 227.15 154.473 227.15 154.473C227.15 154.473 233.181 127.428 235.066 118.609C236.951 109.789 235.066 82.6348 235.066 82.6348C231.68 83.3709 223.565 87.7875 218.91 95.5439C211.728 107.506 205.286 133.93 204.03 141.298C202.072 152.783 198.872 174.866 201.127 180.455C203.382 186.051 208.17 185.669 212.885 185.09C217.045 184.579 244.384 170.749 263.549 158.167C261.909 153.921 259.707 146.996 258.583 142.6V142.614Z" fill="#DAB859"/>
<path d="M201.127 180.469C203.382 186.065 208.17 185.683 212.885 185.104C217.045 184.593 244.384 170.763 263.55 158.181C261.91 153.935 259.707 147.01 258.583 142.614C251.943 145.552 245.568 147.835 243.862 148.414C228.691 153.581 227.15 154.474 227.15 154.474C227.15 154.474 231.839 133.89 233.724 125.07" stroke="#A87C00" stroke-width="0.790633" stroke-miterlimit="10"/>
<path d="M220.345 156.859C220.345 156.859 229.075 153.54 244.669 148.135" stroke="#A87C00" stroke-width="0.790633" stroke-miterlimit="10"/>
<path d="M254.621 65.3083C253.53 69.0706 253.411 72.6353 254.258 73.5691C255.104 74.5028 261.294 75.6956 267.722 75.4638C274.15 75.2321 282.397 73.5077 284.216 72.4036C286.035 71.2994 285.393 67.2372 284.652 64.0951C284.487 63.3863 284.09 62.0504 282.801 61.4369C282.371 61.2325 281.061 60.8644 280.466 60.9258C280.314 60.9394 280.711 62.9773 280.711 62.9773C279.448 63.7134 278.211 63.727 276.492 64.1428C272.629 65.0766 262.458 64.729 259.634 64.579C258.973 64.5449 258.378 64.4495 257.855 64.3473C257.683 64.3132 257.796 62.9705 257.637 62.9364C256.215 62.657 255.058 63.8225 254.628 65.3015L254.621 65.3083Z" fill="#A87C00"/>
<path d="M286.331 35.0188C288.203 30.8202 292.799 30.4931 293.573 35.7412C294.227 40.1579 292.68 41.4052 290.749 45.6582C289.426 48.5618 287.462 47.7643 287.078 46.5579C286 43.1705 285.161 37.6429 286.331 35.0188Z" fill="#E7B2A1"/>
<path d="M289.188 35.2775C290.134 33.887 291.384 34.8344 291.966 36.1635C292.548 37.4994 291.986 36.7906 290.974 36.1499C289.962 35.516 289.393 37.8198 289.711 39.1761C290.147 41.0436 289.988 43.5246 288.692 43.9063C287.396 44.2879 287.991 43.5791 287.852 41.5275C287.713 39.4828 287.773 41.5275 287.866 39.4828C287.958 37.4449 288.375 36.477 289.188 35.2775Z" fill="#D38576"/>
<path d="M250.884 36.8801C248.609 32.8997 244.007 33.0496 243.749 38.3523C243.53 42.8099 245.197 43.8936 247.538 47.9217C249.139 50.6753 251.017 49.6734 251.281 48.4329C252.015 44.95 252.306 39.3679 250.884 36.8733V36.8801Z" fill="#E7B2A1"/>
<path d="M248.067 37.4389C246.989 36.1575 245.838 37.2276 245.395 38.6112C244.952 40.0016 245.435 39.2314 246.38 38.4953C247.326 37.7592 248.12 39.9948 247.935 41.3716C247.683 43.2732 248.087 45.7269 249.409 45.9654C250.739 46.2108 250.077 45.5701 250.011 43.5118C249.945 41.4602 250.09 43.5049 249.793 41.4806C249.502 39.4632 248.993 38.543 248.06 37.4321L248.067 37.4389Z" fill="#D38576"/>
<path d="M285.359 53.8716C284.182 56.6661 277.694 65.4244 272.655 67.7758C271.656 68.2461 269.163 68.5596 267.199 68.212C260.553 67.0397 254.984 59.2561 252.571 55.3438C250.785 52.4335 249.568 48.3372 249.013 43.198C248.45 38.0657 247.214 31.2977 247.28 27.3036C247.392 21.1217 251.254 14.0605 255.718 12.2748C267.86 7.40828 287.403 18.2522 287.661 22.5734C287.899 26.6493 288.692 34.651 288.785 39.9878C288.858 44.0091 286.437 51.2816 285.346 53.8716H285.359Z" fill="#E7B2A1"/>
<path d="M247.207 28.442C247.207 28.442 250.673 28.108 254.31 24.7478C256.949 22.3078 258.073 13.5904 258.073 13.5904C258.073 13.5904 260.242 22.0556 263.529 23.63C263.893 23.8004 274.977 23.8209 281.233 24.373C283.157 24.5434 288.534 26.5745 288.534 26.5745C288.534 26.5745 286.973 8.70344 279.011 3.62567C271.055 -1.44529 257.504 -0.736448 253.133 7.34028C248.761 15.417 247.201 28.442 247.201 28.442H247.207Z" fill="#34383F"/>
<path d="M280.737 14.2988L285.757 24.0591C285.757 24.0591 285.022 31.5019 289.156 33.0355L293.302 23.432L286.543 14.9531L280.73 14.2988H280.737Z" fill="#34383F"/>
<path d="M254.885 15.267C254.885 15.267 247.828 30.9502 247.762 35.2101C247.762 35.2101 244.059 33.7038 244.376 25.0409C244.694 16.378 249.581 13.4336 249.581 13.4336L254.891 15.267H254.885Z" fill="#34383F"/>
<path d="M249.357 31.8835V33.0831C249.37 33.3284 249.503 33.5465 249.694 33.6965C250.223 34.0918 250.66 34.9029 250.792 35.2573C251.043 35.9321 252.022 39.6739 253.762 40.9758C255.501 42.2776 261.01 42.005 262.438 41.412C265.639 40.0761 266.366 34.5689 266.856 34.2622C267.345 33.9555 268.337 33.9487 268.833 34.2486C269.329 34.5485 270.136 40.042 273.357 41.3302C274.792 41.9027 280.301 42.0936 282.02 40.7645C283.74 39.4286 284.665 35.6663 284.903 34.9915C285.029 34.6371 285.452 33.8192 285.975 33.417C286.167 33.2671 286.299 33.049 286.292 32.7968V31.5972C286.279 31.2087 285.988 30.8884 285.618 30.8679C283.125 30.718 276.247 30.0705 270.453 31.2087C270.136 31.2701 269.819 31.3314 269.521 31.3928C268.397 31.6245 267.246 31.6313 266.115 31.42C265.817 31.3655 265.5 31.3041 265.183 31.2496C259.37 30.2068 252.505 30.9634 250.012 31.1542C249.635 31.1815 249.35 31.5086 249.357 31.8903V31.8835ZM270.407 33.1989C270.672 32.2856 271.042 32.0948 273.681 31.7335C276.319 31.3723 282.827 31.2701 283.554 32.4628C283.918 33.0626 284.136 35.2914 282.807 38.3517C281.478 41.412 278.006 41.0848 276.068 41.0439C273.588 40.9894 272.517 40.0761 271.703 38.4062C270.883 36.7295 270.103 34.2486 270.407 33.2057V33.1989ZM252.108 32.7082C252.816 31.5018 259.33 31.5018 261.969 31.8221C264.614 32.1425 264.984 32.3265 265.262 33.233C265.586 34.2758 264.839 36.7704 264.045 38.4539C263.252 40.1374 262.2 41.0712 259.72 41.1666C257.789 41.2416 254.317 41.6164 252.941 38.5766C251.566 35.5368 251.744 33.308 252.102 32.7014L252.108 32.7082Z" fill="#764E00"/>
<path d="M282.311 30.6779C282.04 29.2261 281.021 27.1405 279.494 26.6974C277.966 26.2544 276.451 25.4365 274.408 25.4297C273.681 25.4297 272.08 27.1268 272.08 27.1268C276.372 27.5767 277.543 27.9106 279.189 28.3128C281.068 28.7694 282.317 30.671 282.317 30.671L282.311 30.6779Z" fill="#363636"/>
<path d="M261.982 25.5043C259.938 25.4838 258.417 26.2881 256.883 26.7175C255.349 27.1469 254.31 29.2189 254.026 30.6707C254.026 30.6707 255.289 28.7827 257.174 28.3397C258.827 27.9512 259.998 27.6376 264.296 27.2287C264.296 27.2287 262.709 25.5111 261.982 25.5043Z" fill="#363636"/>
<path d="M268.899 34.8965C268.945 36.3687 268.687 37.8682 268.138 39.279C267.616 40.6967 266.822 42.0394 266.088 43.3549C265.724 44.0092 265.361 44.6703 265.169 45.3315C264.99 46.0062 264.99 46.5651 265.519 46.9536C266.577 47.7579 268.403 48.0101 269.983 48.1396L269.963 49.0052C269.051 48.9847 268.178 48.903 267.292 48.7053C266.419 48.5145 265.506 48.2282 264.765 47.5875C264.402 47.274 264.111 46.8241 264.071 46.3538C263.992 45.8767 264.137 45.4882 264.263 45.0997C264.554 44.3432 264.984 43.6889 265.4 43.0414C266.247 41.7532 267.106 40.5059 267.728 39.1495C268.343 37.8 268.793 36.3755 268.905 34.8965H268.899Z" fill="#D38576"/>
<path d="M263.206 52.6991C265.143 54.2463 272.815 53.776 273.76 52.3311C273.76 52.3311 272.517 56.7954 268.609 57.0817C264.555 57.3747 263.206 52.6991 263.206 52.6991Z" fill="#363636"/>
<path d="M274.54 35.6055C274.58 37.1118 275.367 38.3114 276.286 38.2842C277.212 38.2569 277.926 37.0164 277.886 35.5101C277.847 34.0038 277.06 32.8042 276.141 32.8315C275.215 32.8588 274.5 34.0992 274.54 35.6055Z" fill="#363636"/>
<path d="M262.009 35.9671C262.048 37.4734 261.334 38.7139 260.408 38.7412C259.482 38.7684 258.702 37.5689 258.662 36.0626C258.623 34.5563 259.337 33.3158 260.263 33.2885C261.188 33.2613 261.969 34.4609 262.009 35.9671Z" fill="#363636"/>
<path d="M693.764 412.56V492.871C693.764 496.067 690.854 498.65 687.276 498.65H455.355C451.79 498.65 448.88 496.067 448.88 492.871V412.56C448.88 409.363 451.79 406.78 455.355 406.78H687.276C690.854 406.78 693.764 409.363 693.764 412.56Z" fill="#E8B852"/>
<path d="M448.88 490.955V492.87C448.88 496.067 451.79 498.65 455.355 498.65H687.276C690.854 498.65 693.764 496.067 693.764 492.87V490.955H448.88Z" fill="#DCAE4E"/>
<path d="M448.887 432.4L693.757 432.4V429.238L448.887 429.238V432.4Z" fill="#FFCA5A"/>
<path d="M448.887 445.229L693.757 445.229V432.394L448.887 432.394V445.229Z" fill="#C18835"/>
<path d="M557.735 450.681H549.19C547.773 450.681 546.625 451.865 546.625 453.325V458.164C546.625 459.625 547.773 460.809 549.19 460.809H557.735C559.152 460.809 560.301 459.625 560.301 458.164V453.325C560.301 451.865 559.152 450.681 557.735 450.681Z" fill="#F1D7B2"/>
<path d="M598.241 450.681H589.697C588.28 450.681 587.131 451.865 587.131 453.325V458.164C587.131 459.625 588.28 460.809 589.697 460.809H598.241C599.658 460.809 600.807 459.625 600.807 458.164V453.325C600.807 451.865 599.658 450.681 598.241 450.681Z" fill="#F1D7B2"/>
<path d="M585.206 474.011H562.304C555.79 474.011 550.513 468.572 550.513 461.859V457.306C550.513 455.656 551.809 454.32 553.409 454.32C555.01 454.32 556.306 455.656 556.306 457.306V461.859C556.306 465.273 558.991 468.034 562.298 468.034H585.199C588.506 468.034 591.191 465.266 591.191 461.859V457.306C591.191 455.656 592.487 454.32 594.088 454.32C595.688 454.32 596.984 455.656 596.984 457.306V461.859C596.984 468.572 591.707 474.011 585.193 474.011H585.206Z" fill="#AE7B30"/>
<path d="M483.957 442.549H506.382C507.376 442.549 508.181 441.719 508.181 440.695V436.926C508.181 435.902 507.376 435.072 506.382 435.072H483.957C482.963 435.072 482.158 435.902 482.158 436.926V440.695C482.158 441.719 482.963 442.549 483.957 442.549Z" fill="#F1D7B2"/>
<path d="M488.619 438.813C488.619 440.313 487.442 441.526 485.987 441.526C484.532 441.526 483.355 440.313 483.355 438.813C483.355 437.314 484.532 436.101 485.987 436.101C487.442 436.101 488.619 437.314 488.619 438.813Z" fill="#C18835"/>
<path d="M655.333 435.072H632.908C631.914 435.072 631.109 435.902 631.109 436.926V440.695C631.109 441.719 631.914 442.549 632.908 442.549H655.333C656.327 442.549 657.132 441.719 657.132 440.695V436.926C657.132 435.902 656.327 435.072 655.333 435.072Z" fill="#F1D7B2"/>
<path d="M650.671 438.813C650.671 437.314 651.849 436.101 653.303 436.101C654.758 436.101 655.936 437.314 655.936 438.813C655.936 440.313 654.758 441.526 653.303 441.526C651.849 441.526 650.671 440.313 650.671 438.813Z" fill="#C18835"/>
<path d="M583.705 362.724V343.953H529.662C524.629 343.953 520.555 348.158 520.555 353.338C520.555 358.525 524.636 362.724 529.662 362.724H583.705Z" fill="url(#paint0_linear_74_1264)"/>
<path d="M535.759 343.905H570.102C565.069 343.905 560.996 348.111 560.996 353.291C560.996 358.471 565.076 362.676 570.102 362.676H535.759C530.727 362.676 526.653 358.471 526.653 353.291C526.653 348.104 530.733 343.905 535.759 343.905Z" fill="url(#paint1_linear_74_1264)"/>
<mask id="mask1_74_1264" style="mask-type:luminance" maskUnits="userSpaceOnUse" x="568" y="343" width="80" height="20">
<path d="M647.987 362.724V343.953H578.005C572.972 343.953 568.898 348.158 568.898 353.338C568.898 358.525 572.979 362.724 578.005 362.724H647.987Z" fill="white"/>
</mask>
<g mask="url(#mask1_74_1264)">
<path d="M647.987 362.724V343.953H578.005C572.972 343.953 568.898 348.158 568.898 353.338C568.898 358.525 572.979 362.724 578.005 362.724H647.987Z" fill="url(#paint2_linear_74_1264)"/>
</g>
<mask id="mask2_74_1264" style="mask-type:luminance" maskUnits="userSpaceOnUse" x="571" y="346" width="78" height="15">
<path d="M648.006 346.052H578.6C574.718 346.052 571.57 349.296 571.57 353.297C571.57 357.298 574.718 360.542 578.6 360.542H648.006V346.059V346.052Z" fill="white"/>
</mask>
<g mask="url(#mask2_74_1264)">
<path d="M648.006 346.053H571.577V360.536H648.006V346.053Z" fill="url(#paint3_linear_74_1264)"/>
<path d="M571.901 362.035H570.439V344.546H572.053C574.917 349.985 574.976 356.903 571.901 362.035Z" fill="url(#paint4_linear_74_1264)"/>
</g>
<path d="M654.891 406.774H551.644V382.34H654.891C656.128 382.34 657.133 383.376 657.133 384.65V404.471C657.133 405.745 656.128 406.781 654.891 406.781V406.774Z" fill="#898996"/>
<path d="M510.278 382.347V384.848H535.567V404.205H510.278V406.781H552.385C553.873 406.781 555.076 404.907 555.076 402.59V386.538C555.076 384.228 553.873 382.347 552.385 382.347H510.278Z" fill="#64646E"/>
<path d="M512.017 404.205H552.94V384.848H512.017V404.205Z" fill="#F1E7DB"/>
<path d="M552.94 385.06C552.239 386.607 551.069 388.154 551.069 395.181C551.069 401.792 552.352 403.237 552.663 404.205H552.94V385.06Z" fill="#3D3D4E"/>
<path d="M514.041 316.67H598.268V343.906H514.041C513.036 343.906 512.216 343.068 512.216 342.025V318.551C512.216 317.515 513.029 316.67 514.041 316.67Z" fill="#001A28"/>
<path d="M583.904 322.641H522.169C520.525 322.641 519.193 324.014 519.193 325.708V335.332C519.193 337.026 520.525 338.399 522.169 338.399H583.904C585.547 338.399 586.88 337.026 586.88 335.332V325.708C586.88 324.014 585.547 322.641 583.904 322.641Z" fill="#FFE394"/>
<path d="M639.628 316.677V318.333H614.339V342.202H639.628V343.906H597.521C596.033 343.906 594.83 342.665 594.83 341.132V319.451C594.83 317.917 596.033 316.677 597.521 316.677H639.628Z" fill="#FFE394"/>
<path d="M637.888 318.333H596.965V342.202H637.888V318.333Z" fill="#F1E7DB"/>
<path d="M596.965 318.469C597.666 319.491 599.65 324.692 599.65 330.73C599.65 337.096 597.554 341.561 597.243 342.201H596.965V318.469Z" fill="#313131"/>
<path d="M512.871 377.685V366.902C512.871 364.319 514.901 362.227 517.408 362.227H585.459V382.36H517.408C514.901 382.36 512.871 380.268 512.871 377.685Z" fill="url(#paint5_linear_74_1264)"/>
<mask id="mask3_74_1264" style="mask-type:luminance" maskUnits="userSpaceOnUse" x="577" y="362" width="69" height="21">
<path d="M577.198 376.431V368.163C577.198 364.885 579.777 362.226 582.958 362.226H645.223V382.36H582.958C579.777 382.36 577.198 379.702 577.198 376.424V376.431Z" fill="white"/>
</mask>
<g mask="url(#mask3_74_1264)">
<path d="M577.198 362.233V382.367H645.216V362.233H577.198Z" fill="url(#paint6_linear_74_1264)"/>
</g>
<mask id="mask4_74_1264" style="mask-type:luminance" maskUnits="userSpaceOnUse" x="580" y="364" width="66" height="16">
<path d="M584.572 364.604H645.242V379.702H584.572C582.442 379.702 580.716 377.923 580.716 375.728V368.578C580.716 366.383 582.442 364.604 584.572 364.604Z" fill="white"/>
</mask>
<g mask="url(#mask4_74_1264)">
<path d="M645.242 364.604H580.716V379.702H645.242V364.604Z" fill="url(#paint7_linear_74_1264)"/>
<path d="M580.088 379.702V364.604C580.088 364.604 584.876 364.604 584.155 373.41C583.639 379.64 580.088 379.702 580.088 379.702Z" fill="url(#paint8_linear_74_1264)"/>
</g>
<defs>
<linearGradient id="paint0_linear_74_1264" x1="519.784" y1="357.015" x2="671.942" y2="355.537" gradientUnits="userSpaceOnUse">
<stop stop-color="#987000" stop-opacity="0.92"/>
<stop offset="1" stop-color="#FFE394"/>
</linearGradient>
<linearGradient id="paint1_linear_74_1264" x1="526.122" y1="356.967" x2="630.817" y2="356.267" gradientUnits="userSpaceOnUse">
<stop stop-color="#987000" stop-opacity="0.92"/>
<stop offset="1" stop-color="#FFE394"/>
</linearGradient>
<linearGradient id="paint2_linear_74_1264" x1="567.933" y1="357.015" x2="758.483" y2="354.698" gradientUnits="userSpaceOnUse">
<stop stop-color="#987000" stop-opacity="0.92"/>
<stop offset="1" stop-color="#FFE394"/>
</linearGradient>
<linearGradient id="paint3_linear_74_1264" x1="570.644" y1="356.131" x2="754.773" y2="353.327" gradientUnits="userSpaceOnUse">
<stop stop-color="#987000" stop-opacity="0.92"/>
<stop offset="1" stop-color="#FFE394"/>
</linearGradient>
<linearGradient id="paint4_linear_74_1264" x1="570.394" y1="356.716" x2="579.465" y2="356.71" gradientUnits="userSpaceOnUse">
<stop stop-color="#987000" stop-opacity="0.92"/>
<stop offset="1" stop-color="#FFE394"/>
</linearGradient>
<linearGradient id="paint5_linear_74_1264" x1="512.871" y1="372.293" x2="585.459" y2="372.293" gradientUnits="userSpaceOnUse">
<stop stop-color="#B98800"/>
<stop offset="1" stop-color="#896500" stop-opacity="0.94"/>
</linearGradient>
<linearGradient id="paint6_linear_74_1264" x1="577.198" y1="372.3" x2="645.216" y2="372.3" gradientUnits="userSpaceOnUse">
<stop stop-color="#B98800"/>
<stop offset="1" stop-color="#896500" stop-opacity="0.94"/>
</linearGradient>
<linearGradient id="paint7_linear_74_1264" x1="612.979" y1="364.604" x2="612.979" y2="379.702" gradientUnits="userSpaceOnUse">
<stop stop-color="#B98800"/>
<stop offset="1" stop-color="#896500" stop-opacity="0.94"/>
</linearGradient>
<linearGradient id="paint8_linear_74_1264" x1="582.158" y1="364.604" x2="582.158" y2="379.702" gradientUnits="userSpaceOnUse">
<stop stop-color="#B98800"/>
<stop offset="1" stop-color="#896500" stop-opacity="0.94"/>
</linearGradient>
<clipPath id="clip0_74_1264">
<rect width="349" height="426.573" fill="white" transform="translate(225 71)"/>
</clipPath>
</defs>
</svg>
