<svg width="355" height="454" viewBox="0 0 355 454" fill="none" xmlns="http://www.w3.org/2000/svg">
<path opacity="0.1" d="M62.19 450.98C96.5366 450.98 124.38 438.685 124.38 423.52C124.38 408.354 96.5366 396.06 62.19 396.06C27.8434 396.06 0 408.354 0 423.52C0 438.685 27.8434 450.98 62.19 450.98Z" fill="#2C2A40"/>
<path d="M54.38 0L50.65 23.69C50.65 23.69 43.84 38.58 28.2 48.94L7 53.07L12.79 16.49L54.38 0Z" fill="#001E37"/>
<path d="M43.1892 71.6899C39.2492 67.5999 33.3092 65.7799 28.0692 64.1699C24.7992 63.1699 21.7092 62.2199 19.5792 60.8499C14.1092 57.3499 10.4092 50.9399 10.3692 50.8799L9.69922 51.2599C9.84922 51.5299 13.5392 57.8999 19.1592 61.4999C21.3792 62.9199 24.5192 63.8899 27.8392 64.8999C32.9892 66.4799 38.8192 68.2699 42.6292 72.2199L43.1892 71.6899Z" fill="#F53545"/>
<path d="M43.2884 70.8203L41.8984 72.5803L44.8184 77.6603C44.8184 77.6603 47.4684 75.5203 48.5584 73.0303L43.2884 70.8203Z" fill="#F53545"/>
<path d="M28.6794 49.4696C28.6794 49.4696 35.5394 50.0396 42.2894 44.7796C47.7294 40.5396 53.8394 29.5396 55.2194 24.5096C55.2194 24.5096 44.3994 22.2596 37.0494 31.1596C29.6894 40.0596 27.4894 46.4096 28.6894 49.4696H28.6794Z" fill="#001E37"/>
<path d="M28.6807 49.4698C28.6807 49.4698 22.6007 43.5898 20.4707 37.3598C20.4707 37.3598 26.7107 18.8698 41.4607 16.5498C41.4607 16.5498 45.6507 17.5798 55.2107 24.4998C32.8307 27.0298 28.6707 49.4598 28.6707 49.4598L28.6807 49.4698Z" fill="#0F3348"/>
<path d="M70.8607 392.04C70.6307 394.69 68.1307 396.01 67.2807 398.19C67.2107 398.36 67.0707 398.51 66.8707 398.64C64.5407 400.16 53.9307 398.79 52.7807 395.7C51.5407 392.35 52.8607 391.49 51.9307 390.32C50.9907 389.16 52.7007 387.91 52.7807 385.8C52.8607 383.7 51.5407 380.97 51.5407 379.03C51.5407 377.09 50.9107 372.32 50.1307 369.28C49.5807 367.14 48.8707 361.04 47.8407 355.59C47.4107 353.34 46.9307 351.2 46.3907 349.49C45.2707 345.98 44.5607 343.14 43.4707 339.66H65.9007C66.2507 341.65 66.6207 343.78 66.9807 345.95C68.1107 352.68 69.1807 359.68 69.3807 363.21C69.8507 371.23 68.2907 374.43 68.7607 375.83C69.2207 377.23 69.1507 381.05 68.9907 383C68.8307 384.95 68.7607 386.97 68.9107 387.44C69.0707 387.91 71.0907 389.39 70.8607 392.04Z" fill="#B39371"/>
<path opacity="0.2" d="M70.8607 392.04C70.6307 394.69 68.1307 396.01 67.2807 398.19C67.2107 398.36 67.0707 398.51 66.8707 398.64C66.0107 396.94 65.7607 394.95 65.8307 394.52C65.9707 393.7 63.8707 387.84 65.3707 384.01C66.8707 380.18 64.3707 377.84 63.3707 372.18C62.3707 366.51 66.2007 361.84 63.3707 359.43C61.1807 357.57 51.9307 356.14 47.8407 355.59C47.4107 353.34 46.9307 351.2 46.3907 349.49C45.2707 345.98 44.5607 343.14 43.4707 339.66H45.9407C51.7107 341.18 62.5807 344.14 66.9807 345.95C68.1107 352.68 69.1807 359.68 69.3807 363.21C69.8507 371.23 68.2907 374.43 68.7607 375.83C69.2207 377.23 69.1507 381.05 68.9907 383C68.8307 384.95 68.7607 386.97 68.9107 387.44C69.0707 387.91 71.0907 389.39 70.8607 392.04Z" fill="#001E37"/>
<path d="M99.6411 414.64C98.7611 416.2 85.8211 417.75 82.5511 415.73C81.5611 415.11 81.0511 414.4 80.8111 413.67C80.2311 412.01 81.0211 410.3 80.3711 409.65C79.4311 408.71 79.2811 405.44 80.3711 404.2C81.4611 402.95 80.5611 400.92 79.6111 398.58C78.6511 396.25 80.5611 393.75 79.6111 391.57C78.6511 389.39 75.3811 366.79 74.6011 365.39C74.1211 364.52 72.6411 362.51 71.4611 358.42C70.7511 355.92 70.1311 352.65 69.9311 348.4C69.8011 345.83 69.1211 342.88 68.2511 340.07C68.2111 339.93 68.1611 339.8 68.1211 339.66H91.8811C91.8611 340.09 91.8111 340.46 91.7411 340.76C90.9711 344.35 91.8711 348.56 92.7411 350.89C93.6111 353.23 99.5411 389.86 99.2311 395.31C98.9111 400.77 96.8911 401.7 97.6711 404.35C98.4511 407 100.501 406.84 99.2411 409.49C97.9811 412.14 100.521 413.08 99.6411 414.64Z" fill="#B39371"/>
<path opacity="0.2" d="M99.64 414.64C98.76 416.2 85.82 417.75 82.55 415.73C81.56 415.11 81.05 414.4 80.81 413.67C85.94 413.76 89.31 411.9 90.87 410.33C92.87 408.32 92.03 405.51 91.37 400.29C90.7 395.07 94.2 390.84 94.2 382.84C94.2 374.84 91.37 363.34 87.87 359.43C85.25 356.51 75.98 357.66 71.46 358.42C70.75 355.92 70.13 352.65 69.93 348.4C69.8 345.83 69.12 342.88 68.25 340.07C68.26 339.93 68.28 339.79 68.3 339.66H91.88C91.86 340.09 91.81 340.46 91.74 340.76C90.97 344.35 91.87 348.56 92.74 350.89C93.61 353.23 99.54 389.86 99.23 395.31C98.91 400.77 96.89 401.7 97.67 404.35C98.45 407 100.5 406.84 99.24 409.49C97.98 412.14 100.52 413.08 99.64 414.64Z" fill="#001E37"/>
<path d="M72.2608 443.7C72.4508 443.9 72.6907 444.11 72.9707 444.31C74.8407 445.67 78.5808 446.9 83.3308 445.88C88.7908 444.71 92.9208 442.69 95.4108 437.15C97.9008 431.61 98.1707 431.55 99.8307 429.09C101.441 426.7 102.661 423.47 102.161 419.35C102.141 419.23 102.131 419.11 102.111 418.99C101.491 414.71 102.491 412.25 98.9507 410.32C98.9507 410.32 98.6707 410.93 99.0707 411.92C99.0707 411.92 99.5807 413.07 98.1407 414.39C97.3707 415.1 96.6608 415.41 95.8708 415.58C94.9207 415.79 93.8607 415.8 92.4507 416.06C92.4507 416.06 92.3708 414.59 86.3708 414.72C80.3708 414.85 80.6408 417.41 79.9808 418.98C78.2608 423.1 76.0807 431.29 73.3607 434.57C72.0607 436.13 71.4208 437.92 71.2608 439.53C71.0908 441.31 71.5007 442.87 72.2707 443.69L72.2608 443.7Z" fill="#212121"/>
<path d="M72.2606 443.701C73.7406 445.261 77.8706 447.051 83.3206 445.881C88.7706 444.711 92.9006 442.691 95.4006 437.151C97.8906 431.621 98.1606 431.551 99.8206 429.091C101.431 426.701 102.661 423.471 102.151 419.351C101.851 421.281 100.901 426.051 98.7506 427.951C96.0206 430.361 92.1306 439.561 88.3106 442.051C86.3206 443.351 83.9906 443.851 82.2106 444.031C80.5806 444.201 78.7006 444.101 77.8806 442.691L78.1806 441.991L75.2006 441.461C74.1206 442.221 72.6106 441.951 71.8806 440.851C71.6506 440.501 71.4306 440.061 71.2406 439.521C71.0606 441.291 71.4806 442.861 72.2506 443.681L72.2606 443.701Z" fill="#323232"/>
<path d="M26.8312 411.44C26.8512 411.69 26.8912 412.16 27.0012 412.78C27.0512 413.08 27.1212 413.4 27.2212 413.75C27.9112 416.31 29.7512 420.01 34.7012 420.56C41.7112 421.34 53.3212 415.65 56.3612 415.81C59.4012 415.97 70.8512 416.51 73.7412 413.63C75.3912 411.98 74.8112 409.91 73.9912 407.9C73.3812 406.41 72.6312 404.96 72.5712 403.73C72.4112 400.85 69.6112 394.9 69.6112 394.9L67.7812 396.05C67.7812 396.05 68.6312 397.74 63.8512 398.43C59.7612 399.01 59.2112 398.72 56.8712 397.85C55.9912 397.52 55.2912 397.15 54.7012 396.75C53.7412 396.1 53.1012 395.39 52.4712 394.74C51.4612 393.68 49.9012 396.88 47.9512 399.37C46.0012 401.86 36.8112 406.77 33.3812 408.1C29.9512 409.42 26.7612 410.21 26.8312 411.45V411.44Z" fill="#212121"/>
<path d="M27.2207 413.749C27.9007 416.309 29.7507 420.009 34.7007 420.559C41.7107 421.339 53.3207 415.649 56.3607 415.809C59.4007 415.959 70.8507 416.509 73.7407 413.629C75.4007 411.969 74.8207 409.909 73.9907 407.899C73.3307 409.309 71.7307 411.949 68.9107 412.459C65.0207 413.159 57.5307 412.309 53.7907 413.859C50.0507 415.419 36.6407 418.769 32.8307 418.539C29.0107 418.309 27.2207 413.749 27.2207 413.749Z" fill="#323232"/>
<path d="M27.2 92.2199L25.51 96.7299C25.22 97.4899 24.66 98.1199 23.93 98.4899L19.22 101.41L19.05 103.54C15.11 104.03 11.22 101.31 11.22 101.31C9.94996 97.9599 10.62 91.9099 10.62 91.9099L19.85 91.5799L22.39 92.1099L23.76 92.3899C23.76 92.3899 24.9 88.9799 26.84 88.4499C28.78 87.9299 29.45 89.8699 29.45 89.8699L27.2 92.2099V92.2199Z" fill="#F7BE8F"/>
<path d="M24.399 94.3998C24.399 94.3998 23.629 93.4398 22.629 93.6498C22.539 93.7798 18.409 99.5798 16.209 97.4198C14.989 96.2198 13.479 95.1998 12.489 94.3198C12.139 94.6898 11.839 95.2998 11.849 96.3198C11.849 96.3198 10.879 94.6998 11.449 92.8498H11.459C11.459 92.6398 11.539 92.4298 11.749 92.2398C13.059 91.0198 18.769 86.7598 20.359 87.7398L23.049 91.9898L22.989 92.2198L23.769 92.3798C23.769 92.3798 24.309 93.2498 24.409 94.3798L24.399 94.3998Z" fill="#E08D68"/>
<path d="M23.0405 92.0001L19.6805 86.6801L15.5305 85.9101C15.1105 85.8301 14.6805 86.0001 14.4305 86.3501L12.9805 88.3101L16.1805 88.7601L18.2305 89.2301L20.6405 92.7101C21.2705 93.6301 22.7305 93.4201 23.0105 92.3401C23.0405 92.2301 23.0505 92.1101 23.0505 92.0001H23.0405Z" fill="#F7BE8F"/>
<path d="M21.0993 94.3397L17.7393 89.0197L13.4893 88.2397C13.1293 88.1697 12.7593 88.3197 12.5393 88.6097L12.0993 89.2097C11.6993 89.7497 11.9793 90.5297 12.6293 90.6997L14.2293 91.1097L16.2793 91.5797L18.6893 95.0597C19.3293 95.9797 20.7793 95.7697 21.0593 94.6897C21.0893 94.5797 21.0993 94.4597 21.0993 94.3497V94.3397Z" fill="#F7BE8F"/>
<path d="M18.6191 95.9999L15.6191 91.2599L12.8591 90.1999C12.2891 89.9799 11.6491 90.1499 11.2491 90.6099L10.8191 91.1199C10.3491 91.7499 10.6791 92.6599 11.4391 92.8499L12.4891 93.1199L14.3091 93.5399L16.4591 96.6399C17.0291 97.4599 18.3191 97.2699 18.5691 96.3099C18.5991 96.2099 18.6091 96.1099 18.5991 96.0099L18.6191 95.9999Z" fill="#F7BE8F"/>
<path d="M16.6191 86.5702L17.7591 82.9902C18.0091 82.2002 18.8591 81.7602 19.6491 82.0202L20.4391 82.2702C20.6591 82.3402 20.8591 82.4702 21.0091 82.6402L24.3091 86.3602C24.6891 86.7902 24.4491 87.4702 23.8791 87.5602C23.6491 87.6002 23.3591 87.6002 23.0191 87.5602C21.5591 87.3402 19.7591 85.2402 19.7591 85.2402L19.1491 87.2902L16.6391 86.5702H16.6191Z" fill="#F7BE8F"/>
<path d="M21.9806 129.92C21.9806 129.92 22.2106 123 20.9906 118.11C20.0506 114.31 19.4406 110.44 19.2506 106.55C19.1806 105.13 19.1706 103.71 19.2206 102.29L19.2406 101.76C19.2406 101.76 15.7406 102.99 11.1206 101.07C11.1206 101.07 10.7906 102.5 10.3306 104.9C9.09064 111.3 6.90064 124.66 7.48064 136.51C7.56064 138.06 8.51064 139.43 9.92064 140.06C9.92064 140.06 12.9706 153.65 27.4706 167.28L37.0606 161.7C37.0606 161.7 34.6006 149.67 21.9906 129.93L21.9806 129.92Z" fill="#001E37"/>
<path d="M19.2505 106.541C16.2705 106.861 12.2105 105.571 10.3105 104.891C10.7705 102.491 11.1005 101.061 11.1005 101.061C15.7205 102.981 19.2205 101.751 19.2205 101.751L19.2005 102.281C19.1505 103.701 19.1705 105.121 19.2305 106.541H19.2505Z" fill="white"/>
<path d="M12.8613 103.55C12.8113 103.82 12.5613 103.99 12.2913 103.94C12.0213 103.89 11.8513 103.64 11.9013 103.37C11.9513 103.1 12.2013 102.93 12.4713 102.98C12.7413 103.03 12.9113 103.28 12.8613 103.55Z" fill="#001E37"/>
<path d="M25.1914 339.58C35.6114 346.78 48.9414 350.51 62.3014 352.23C64.0314 352.45 65.7614 352.64 67.4914 352.8C94.6014 355.3 120.281 350.31 120.281 350.31C120.201 348.98 120.031 347.46 119.791 345.78C118.141 333.91 113.261 314.15 112.021 298.15C110.271 275.36 109.641 230.82 109.411 203.9C109.301 190.62 109.291 181.63 109.291 181.63L103.171 178.21L101.771 177.43L99.8714 176.37L96.0114 174.21L94.3414 173.28L89.1114 171.97L76.0914 172.29L70.1714 171.61L65.7514 171.1L63.9414 170.89L63.4414 170.83L62.3814 170.71L52.5114 169.58C49.6414 176.24 47.0814 186 44.8514 197.15C39.8114 222.29 36.3814 254.52 34.4714 274.4C32.3714 296.24 28.0914 322.59 26.1714 333.93C25.5614 337.5 25.1914 339.58 25.1914 339.58Z" fill="#0F3348"/>
<path d="M99.8722 176.36L70.1722 231.1C63.8622 212.76 65.1922 179.41 65.7522 171.09L70.1722 171.6L76.0922 172.28L88.6722 172.05L94.3422 173.27L99.8722 176.36Z" fill="#001E37"/>
<path d="M94.3419 173.27C90.9819 180.08 88.012 185.53 85.222 190.67C80.492 199.38 76.302 207.17 71.722 219.06C69.582 204.86 68.6519 195.41 69.2019 183.63C69.3719 179.92 69.6919 175.99 70.1719 171.6L76.0919 172.28L88.0919 171.63L94.3519 173.28L94.3419 173.27Z" fill="white"/>
<path d="M85.222 190.67C80.492 199.38 76.302 207.17 71.722 219.06C69.582 204.86 68.6519 195.41 69.2019 183.63L74.662 180.35L85.222 190.67Z" fill="#F2F2F2"/>
<path d="M76.3106 187.55L78.8806 202.72C76.6006 207.3 74.1906 212.96 71.7106 219.07C71.7106 219.07 69.7006 206.14 69.3906 199.71L72.1106 186.94C72.1106 186.94 75.0206 186.65 76.3106 187.55Z" fill="#C22245"/>
<path d="M79.5406 185.12L73.1606 189.93L69.8105 183.26L74.6606 180.35L79.5406 185.12Z" fill="#F53545"/>
<path d="M62.3009 352.231C64.0309 352.451 65.7609 352.641 67.4909 352.801C62.9709 315.611 72.7309 226.381 72.7309 226.381L69.0509 222.811C61.7009 287.821 62.0409 338.541 62.3009 352.221V352.231Z" fill="#001E37"/>
<path d="M103.161 178.2C101.481 183.39 99.1911 188.89 96.6011 194.39C85.8911 217.12 69.9611 239.81 69.7411 240.11L68.9411 241.25L68.3811 239.98C61.1511 223.5 60.0911 204.48 60.4711 191.42C60.6411 185.63 61.1011 180.46 61.5911 176.38C61.8611 174.14 62.1311 172.22 62.3711 170.71L63.4311 170.83L63.9311 170.89C63.2711 175.11 62.3011 182.55 62.0411 191.5C61.6811 204.05 62.6511 222.16 69.2611 238.05C72.7411 232.99 86.6911 212.24 95.9811 192C98.2611 187.03 100.261 182.09 101.761 177.43L103.151 178.21L103.161 178.2Z" fill="white"/>
<path d="M69.3415 133.36C69.4615 133.69 69.5615 133.87 69.5615 133.87L94.7415 158.17C94.7415 158.17 100.172 158.17 103.512 150.21C105.922 144.47 103.462 140.2 101.912 138.27C102.272 138.14 102.622 137.97 102.912 137.82C103.342 137.59 103.332 136.97 102.892 136.75C102.522 136.57 102.182 136.44 101.882 136.34C102.142 136.01 102.362 135.65 102.542 135.33C102.782 134.9 102.432 134.39 101.942 134.44C101.162 134.53 100.572 134.72 100.122 134.94C100.122 134.92 100.112 134.9 100.102 134.88C98.5415 130.61 95.4415 127.08 91.4215 124.94C89.2215 123.77 86.5715 122.31 83.9715 120.75C78.9815 117.75 74.4615 116.82 73.6615 114.54C73.6615 114.54 62.2415 122.34 69.3415 133.35V133.36Z" fill="#151515"/>
<path d="M70.8017 131.72C70.8017 131.72 64.4317 137.49 67.5517 144.11C67.5517 144.11 72.2617 135.85 70.8017 131.72Z" fill="#151515"/>
<path d="M88.372 161.61C82.932 166.77 76.122 171.37 73.832 172.87C75.552 174.56 77.582 175.73 80.242 176.2C82.342 176.57 84.332 176.48 86.412 176.07C87.492 175.86 88.632 175.56 89.612 175.02C90.072 171.29 91.142 167.64 92.732 164.21C95.532 158.13 95.642 151.41 95.642 151.41C94.942 154.57 91.952 158.21 88.362 161.61H88.372Z" fill="#F7BE8F"/>
<path d="M67.8912 148.59C67.3312 149.79 66.9712 151.07 66.8312 152.37C66.7112 153.49 66.7512 154.64 66.9512 155.77L68.3212 163.27C68.8312 166.06 71.0612 168.21 73.8612 168.62C77.0712 169.09 81.4712 169.17 85.6312 167.42C93.4812 164.11 95.5412 153.46 95.5412 153.46C95.5412 153.46 97.0212 142.54 88.8312 136.74C80.6412 130.94 70.6012 133.99 70.6012 133.99L68.1212 141.35C67.9812 141.76 67.8712 142.18 67.7712 142.6C67.4612 144.01 67.4112 145.48 67.6212 146.92L67.8712 148.6L67.8912 148.59Z" fill="#F7BE8F"/>
<path d="M76.7109 142C76.7109 142 82.6909 138.04 85.3209 143.14L84.4809 144.15C84.4809 144.15 81.5509 140.43 76.7709 143.47L76.7109 142Z" fill="#001E37"/>
<path d="M67.892 148.59C67.332 149.79 66.972 151.07 66.832 152.37C68.062 151.81 70.362 151.58 74.622 153.01C74.622 153.01 72.632 150.65 70.302 150.16C69.672 150.03 69.352 149.33 69.662 148.77L71.732 145.01C71.732 145.01 71.412 144.12 70.472 143.63C69.902 143.33 68.732 142.88 67.772 142.6C67.462 144.01 67.412 145.48 67.622 146.92L67.872 148.6L67.892 148.59Z" fill="#E08D68"/>
<path d="M68.2318 141.43C69.9118 141.87 71.1818 142.61 71.1818 142.61L71.0918 143.95C69.9618 143.31 68.9118 142.97 67.9718 142.82C67.5118 142.75 67.1918 142.33 67.2918 141.92C67.2918 141.92 67.2918 141.92 67.2918 141.91C67.3818 141.54 67.8018 141.32 68.2218 141.43H68.2318Z" fill="#001E37"/>
<path d="M68.7018 155.22L80.9018 156.37C80.9018 156.37 78.2918 162.57 71.9518 161.19C66.9818 160.11 68.7018 155.22 68.7018 155.22Z" fill="white"/>
<path d="M74.3713 173.37C77.1713 173.26 83.6113 172.58 86.0913 168.67C87.8813 165.85 88.3313 163.31 88.3713 161.61C88.4113 160.26 88.1813 159.44 88.1813 159.44C82.2113 169.02 74.6113 168.53 74.6113 168.53L73.3613 172.38C73.6813 172.73 74.0213 173.06 74.3713 173.37Z" fill="#E08D68"/>
<path d="M92.8014 151.11C92.8014 151.11 95.8814 147.24 98.8014 149.8C101.721 152.36 98.0214 161.83 93.5914 159.08C89.1614 156.33 92.8014 151.11 92.8014 151.11Z" fill="#F7BE8F"/>
<path d="M87.5306 135.89C87.5306 135.89 89.4206 137.01 88.5006 139.62C87.5906 142.23 86.0606 146.69 89.3206 148.08C92.5806 149.47 91.1006 153.53 91.1006 153.53L93.6606 154.03C93.6606 154.03 97.0906 147.17 96.6406 144.1C96.2006 141.02 91.3006 134.63 87.5206 135.88L87.5306 135.89Z" fill="#151515"/>
<path d="M82.8421 147.06C82.8421 147.06 82.3821 145.14 79.8821 144.77C77.3721 144.4 76.4121 146.81 76.4121 146.81C76.4121 146.81 79.0721 144.29 82.8421 147.05V147.06Z" fill="#001E37"/>
<path d="M70.6409 146.16C70.6409 146.16 70.0809 145.32 69.0009 145.25C67.9309 145.18 67.7109 146.53 67.7109 146.53C67.7109 146.53 68.6209 145.1 70.6409 146.16Z" fill="#001E37"/>
<path opacity="0.2" d="M75.7118 149.71C76.5418 150.43 78.2518 150.73 79.8018 150.82C80.4318 150.86 81.0418 150.86 81.5418 150.85C82.1818 150.83 82.6618 150.78 82.8418 150.72C83.0318 150.67 83.2918 150.35 83.5818 149.9C83.9818 149.29 84.4218 148.42 84.7818 147.6C85.1418 146.79 85.4218 146.02 85.5218 145.56C85.7818 144.29 83.0318 144.11 83.0318 144.11C82.2418 143.89 81.4918 143.73 80.7918 143.62C79.3118 143.38 78.0418 143.35 77.0618 143.39C75.5218 143.46 74.6518 143.74 74.6518 143.74C74.6218 143.79 74.6018 143.84 74.5718 143.9C74.4018 144.28 74.2918 144.76 74.2518 145.29C74.1318 146.81 74.5618 148.72 75.7118 149.71Z" fill="white"/>
<path opacity="0.3" d="M77.0725 143.39L83.5825 149.9C83.9825 149.29 84.4225 148.42 84.7825 147.6L80.7925 143.61C79.3125 143.37 78.0425 143.34 77.0625 143.38L77.0725 143.39Z" fill="white"/>
<path opacity="0.3" d="M74.252 145.29L79.792 150.83C80.422 150.87 81.032 150.87 81.532 150.86L74.572 143.9C74.402 144.28 74.292 144.76 74.252 145.29Z" fill="white"/>
<path opacity="0.2" d="M65.3418 147.78C65.3418 147.96 65.4218 148.09 65.5918 148.19C66.1318 148.54 67.3019 148.59 68.2219 148.45L68.4019 148.63C68.7719 148.65 69.0019 148.53 69.3019 148.52L69.0218 148.24C69.0218 148.24 69.0319 148.24 69.0419 148.24C69.1419 148.2 69.5419 147.9 69.9719 147.41C70.2219 147.12 70.4819 146.77 70.6919 146.36C70.7219 146.3 70.7519 146.24 70.7719 146.18C70.8918 145.91 71.0019 145.64 71.0819 145.41C71.1419 145.21 71.1819 145 71.2119 144.78C71.2219 144.66 71.1919 144.54 71.1119 144.44C71.0319 144.35 70.9319 144.3 70.8219 144.3L68.7819 144.19L66.7219 144.08C66.7219 144.08 66.6719 144.08 66.6419 144.08C66.4919 144.1 66.3719 144.18 66.3219 144.32C66.1919 144.61 66.0819 144.89 65.9719 145.16C65.8719 145.42 65.7819 145.66 65.7119 145.9C65.4519 146.69 65.3218 147.34 65.3418 147.78Z" fill="white"/>
<path opacity="0.3" d="M66.6409 144.09L69.9609 147.41C70.2109 147.12 70.4709 146.77 70.6809 146.36C70.7109 146.3 70.7409 146.24 70.7609 146.18L68.7709 144.19L66.7109 144.08C66.7109 144.08 66.6609 144.08 66.6309 144.08L66.6409 144.09Z" fill="white"/>
<path opacity="0.3" d="M65.7109 145.9L68.2209 148.45C68.5209 148.4 68.8009 148.33 69.0209 148.25L65.9709 145.17C65.9209 145.3 65.8709 145.42 65.8309 145.55C65.8109 145.61 65.7909 145.67 65.7709 145.73C65.7509 145.79 65.7309 145.85 65.7109 145.91V145.9Z" fill="white"/>
<path d="M77.1316 150.8C75.2816 150.49 73.9116 148.92 73.8616 147.05C73.8416 146.14 73.8916 145.15 74.0416 144.11C74.1416 143.39 74.8616 143.21 75.1716 143.13C76.9716 142.68 81.6216 143.05 84.9316 144.2C85.6416 144.45 86.0116 145.05 85.8216 145.67C85.2816 147.45 84.4316 149.75 83.4716 150.64C83.2916 150.81 82.8716 151.2 81.1016 151.2C80.1916 151.2 78.9116 151.1 77.1316 150.8ZM75.3616 143.9C74.8816 144.02 74.8316 144.13 74.8116 144.23C74.6816 145.22 74.6216 146.17 74.6416 147.04C74.6816 148.53 75.7816 149.79 77.2616 150.03C81.7716 150.77 82.7416 150.25 82.9316 150.07C83.5716 149.48 84.3416 147.79 85.0616 145.45C85.1516 145.14 84.7516 144.98 84.6616 144.95C82.3616 144.15 79.3116 143.74 77.1916 143.74C76.4316 143.74 75.7916 143.79 75.3516 143.9H75.3616Z" fill="#001E37"/>
<path d="M65.1614 148.85C64.7814 148.61 64.5714 148.25 64.5514 147.82C64.5014 146.7 65.1814 144.96 65.6014 144.01C65.8014 143.56 66.2714 143.27 66.7614 143.3L70.8614 143.52C71.1914 143.54 71.5014 143.69 71.7114 143.95C71.9314 144.21 72.0314 144.55 71.9814 144.89C71.6914 147.19 69.8114 148.77 69.3114 148.97C68.7814 149.18 67.8014 149.25 66.8514 149.25C66.2114 149.25 65.5914 149.15 65.1614 148.87V148.85ZM66.7214 144.08C66.5414 144.08 66.3914 144.17 66.3214 144.33C65.6614 145.83 65.3114 147.09 65.3414 147.79C65.3414 147.97 65.4314 148.09 65.5914 148.2C66.3114 148.66 68.1414 148.6 69.0414 148.25C69.2714 148.15 70.9614 146.81 71.2114 144.79C71.2314 144.67 71.1914 144.55 71.1114 144.45C71.0414 144.36 70.9314 144.31 70.8214 144.3L66.7214 144.08Z" fill="#001E37"/>
<path d="M74.4411 143.44L71.1211 143.56L71.6111 144.74C71.6111 144.74 72.6511 144.13 74.1111 144.74C74.1111 144.74 74.6511 144.18 74.4411 143.45V143.44Z" fill="#001E37"/>
<path d="M71.5116 145.25C71.5116 145.25 72.9916 144.73 74.1116 145.4V146.05C74.1116 146.05 72.6916 145.08 71.4316 145.88L71.5216 145.24L71.5116 145.25Z" fill="#001E37"/>
<path d="M84.6211 144.11L95.6711 149.2C95.6711 149.2 95.6511 149.41 95.3311 150.19L85.5211 145.56C85.5211 145.56 85.2911 144.6 84.6211 144.11Z" fill="#001E37"/>
<path d="M66.1407 144.74L67.5007 145.4V144.52L66.2507 143.96C66.2507 143.96 65.9007 144.37 66.1407 144.75V144.74Z" fill="#001E37"/>
<path d="M57.5596 172.71C57.2596 189.24 47.6196 199.99 47.6196 199.99L13.8796 177.32L10.0996 174.78C12.9796 147.28 25.3396 135.34 25.3396 135.34C26.0596 136.35 26.8396 137.34 27.5696 138.35C43.6796 160.49 57.5596 172.71 57.5596 172.71Z" fill="#0F3348"/>
<path d="M27.5598 138.35C24.2598 144.1 15.2898 161.01 13.8698 177.32L10.0898 174.78C12.9698 147.28 25.3298 135.34 25.3298 135.34C26.0498 136.35 26.7998 137.36 27.5598 138.35Z" fill="#001E37"/>
<path d="M113.259 267.31L108.769 271.22H105.099L91.7092 271.98L87.0792 273.8C86.4492 274.05 86.1992 274.79 86.5392 275.37C86.8092 275.82 87.3392 276.03 87.8392 275.89L91.1692 274.95L97.2192 275.32L91.7392 277.32L85.5692 282.08C85.5692 282.08 84.9892 283.78 87.5792 283.42L92.9592 280.3L97.4892 279.32L92.9292 281.57L87.8092 284.25C87.0892 284.62 87.1692 285.69 87.9392 285.93C88.2092 286.01 88.5092 286.07 88.8592 286.08C89.5092 286.1 90.1492 285.95 90.7392 285.67L95.4492 283.45L99.6292 282.48L95.7592 284.43L92.9892 285.98C92.5492 286.23 92.5192 286.85 92.9292 287.14C93.4392 287.5 94.0992 287.55 94.6592 287.28L99.1592 285.09L104.939 283.57C104.939 283.57 111.209 281.73 115.649 277.73L113.279 267.3L113.259 267.31Z" fill="#F7BE8F"/>
<path d="M128.95 237.76C128.83 237.75 128.71 237.73 128.6 237.71C121.4 248.14 116.62 262.17 116.62 262.17L111.08 268.57L110.71 269L108.79 271.22C108.42 274.81 109.71 277.09 112.96 280.4C113.88 279.51 114.79 278.61 115.69 277.7C118.86 274.49 121.91 271.16 124.83 267.72C128.57 263.3 132.1 258.71 135.41 253.94L145.83 238.89C140.26 238.72 134.67 238.28 128.97 237.75L128.95 237.76Z" fill="#001E37"/>
<path d="M115.668 277.71C114.768 278.62 113.858 279.52 112.938 280.41C109.688 277.1 108.398 274.81 108.768 271.23L111.068 268.57C111.298 270.47 112.198 275.08 115.668 277.71Z" fill="white"/>
<path d="M113.61 278.54C113.985 278.54 114.29 278.235 114.29 277.86C114.29 277.484 113.985 277.18 113.61 277.18C113.234 277.18 112.93 277.484 112.93 277.86C112.93 278.235 113.234 278.54 113.61 278.54Z" fill="#001E37"/>
<path d="M150.58 250.01C150.58 250.01 126.45 253.89 117.53 247.34L115.93 243.44L107.2 222.19C107.2 222.19 102.21 189.74 109.29 181.62C109.29 181.62 126.37 192.44 135.87 205.98C144.12 217.73 148.63 235.67 150.11 245.92C150.33 247.48 150.49 248.86 150.58 250.01Z" fill="#0F3348"/>
<path d="M150.58 250.01C150.58 250.01 126.45 253.89 117.53 247.34L115.93 243.44C131.42 247.57 144.35 246.68 150.11 245.92C150.33 247.48 150.49 248.86 150.58 250.01Z" fill="#001E37"/>
<path opacity="0.1" d="M248.879 453.851C281.767 453.851 308.428 442.079 308.428 427.558C308.428 413.036 281.767 401.264 248.879 401.264C215.991 401.264 189.33 413.036 189.33 427.558C189.33 442.079 215.991 453.851 248.879 453.851Z" fill="#2C2A40"/>
<path d="M354.66 75.7064L331.727 76.8938C331.727 76.8938 316.435 73.4562 303.643 60.8455L295.58 41.7906L330.999 40L354.66 75.716V75.7064Z" fill="#001E37"/>
<path d="M285.285 79.3742C288.339 74.8738 288.876 68.9467 289.345 63.7281C289.642 60.4629 289.919 57.3893 290.781 55.1103C292.983 49.2981 298.25 44.5583 298.307 44.5104L297.819 43.9551C297.599 44.1562 292.361 48.8576 290.092 54.8422C289.201 57.2073 288.914 60.3385 288.617 63.6515C288.157 68.7839 287.631 74.6057 284.682 78.9529L285.294 79.3647L285.285 79.3742Z" fill="#F53545"/>
<path d="M286.109 79.2985L284.184 78.3506L280 82.0945C280 82.0945 282.537 84.1532 285.075 84.6895L286.109 79.3081V79.2985Z" fill="#F53545"/>
<path d="M303.238 61.3912C303.238 61.3912 304.052 67.9311 310.324 73.2167C315.37 77.4682 326.88 81.0302 331.869 81.3366C331.869 81.3366 331.84 70.7559 322.044 65.6235C312.249 60.4911 305.871 59.6676 303.238 61.4008V61.3912Z" fill="#001E37"/>
<path d="M303.238 61.3914C303.238 61.3914 307.547 54.5355 312.967 51.3086C312.967 51.3086 331.514 53.5013 336.608 66.8685C336.608 66.8685 336.465 70.9955 331.869 81.3273C325.08 60.8648 303.238 61.3914 303.238 61.3914Z" fill="#0F3348"/>
<path d="M173.146 183.569C173.146 183.569 171.058 176.081 168.483 170.001C167.017 166.553 166.299 163.461 165.016 159.956C164.547 158.682 164.126 157.39 163.762 156.078L163.628 155.58C163.628 155.58 160.784 157.715 156.006 157.284C156.006 157.284 156.111 158.682 156.379 161.009C157.088 167.214 158.926 180.045 162.862 190.693C163.379 192.091 165.495 194.561 165.974 194.705C165.974 194.705 172.801 204.769 189.97 213.051L197.122 205.199C197.122 205.199 190.324 197.96 173.136 183.559L173.146 183.569Z" fill="#001E37"/>
<path d="M165.016 159.956C162.383 161.105 158.304 161.096 156.379 161.019C156.111 158.692 156.006 157.294 156.006 157.294C160.784 157.725 163.628 155.59 163.628 155.59L163.762 156.088C164.126 157.4 164.547 158.692 165.016 159.966V159.956Z" fill="white"/>
<path d="M158.314 159.066C158.343 159.325 158.161 159.554 157.903 159.593C157.644 159.621 157.414 159.44 157.376 159.181C157.347 158.922 157.529 158.693 157.788 158.654C158.046 158.626 158.276 158.808 158.314 159.066Z" fill="#001E37"/>
<path d="M168.158 144.589L167.909 149.194C167.871 149.979 167.536 150.707 166.971 151.253L163.504 155.275L164.165 157.314C160.708 158.894 156.17 157.487 156.17 157.487C154.044 154.786 152.914 149.07 152.914 149.07L161.245 146.121L163.715 145.872L165.056 145.738C165.056 145.738 165.113 142.29 166.741 141.256C168.369 140.222 169.537 141.802 169.537 141.802L168.158 144.589Z" fill="#F7BE8F"/>
<path d="M166.212 147.385C166.212 147.385 165.226 146.733 164.373 147.212C164.326 147.356 162.229 153.848 159.586 152.507C158.121 151.76 156.455 151.263 155.306 150.745C155.085 151.186 154.99 151.827 155.306 152.756C155.306 152.756 153.956 151.55 153.936 149.702H153.956C153.888 149.51 153.908 149.3 154.042 149.06C154.894 147.576 158.877 142.032 160.61 142.482L164.287 145.594V145.824L165.063 145.747C165.063 145.747 165.8 146.389 166.222 147.394L166.212 147.385Z" fill="#E08D68"/>
<path d="M156.213 167.914C156.213 167.914 160.368 155.045 162.599 148.151C164.84 141.247 172.328 129.795 172.328 129.795C172.328 129.795 168.881 125.438 162.111 125.936C162.111 125.936 159.468 139.734 156.883 144.417C154.298 149.108 146.178 161.968 146.178 161.968C146.178 161.968 151.023 166.861 156.213 167.914Z" fill="white"/>
<path d="M156.003 168.221C155.706 168.508 155.256 168.576 154.863 168.432C153.101 167.771 146.81 165.253 146.083 162.926C144.828 158.895 158.301 165.99 155.993 168.221H156.003Z" fill="#D8D1D0"/>
<path d="M167.207 136.775C167.236 136.507 167.351 136.239 167.552 136.038C168.978 134.63 171.468 133.395 173.019 133.855C173.68 134.056 174.13 134.554 174.274 135.243C174.379 135.741 174.274 136.2 173.958 136.593C173.239 137.503 171.382 138.001 168.442 138.077C167.944 138.087 167.504 137.8 167.312 137.35C167.236 137.158 167.207 136.966 167.217 136.775H167.207ZM168.375 136.871C170.836 136.842 172.569 136.449 173.038 135.865C173.134 135.75 173.153 135.636 173.125 135.482C173.067 135.205 172.933 135.051 172.684 134.975C171.717 134.688 169.668 135.588 168.385 136.861L168.375 136.871Z" fill="#F53545"/>
<path d="M166.623 131.547C167.006 130.608 167.552 129.842 168.241 129.498C168.892 129.163 169.601 129.249 170.243 129.727C170.693 130.063 170.951 130.541 170.989 131.097C171.076 132.322 170.109 133.979 168.098 136.018C167.763 136.354 167.274 136.449 166.815 136.267C166.317 136.066 165.991 135.597 165.982 135.071C165.962 133.921 166.192 132.629 166.633 131.556L166.623 131.547ZM169.639 132.006C169.773 131.681 169.831 131.403 169.821 131.173C169.802 130.953 169.716 130.79 169.534 130.656C169.18 130.388 168.94 130.446 168.778 130.532C167.887 130.982 167.121 133.127 167.15 135.032C167.15 135.032 167.169 135.109 167.198 135.138C167.236 135.166 167.274 135.176 167.284 135.176C168.471 133.96 169.304 132.849 169.649 132.006H169.639Z" fill="#F53545"/>
<path d="M165.579 141.352C165.924 140.385 166.527 139.341 166.824 138.508C166.91 138.336 166.862 138.154 166.9 137.981C166.919 137.905 166.929 137.818 166.939 137.742C166.977 137.119 166.613 136.535 165.828 135.951C163.97 134.572 162.132 134.726 161.021 135.329C160.236 135.76 159.575 136.334 159.767 136.88L159.039 138.776C158.991 138.632 158.685 137.608 158.618 136.832C158.618 136.717 158.608 136.593 158.618 136.478C158.694 135.683 159.259 134.908 160.217 134.362C160.236 134.343 160.264 134.333 160.284 134.323C161.72 133.538 164.267 133.261 166.699 135.061C167.13 135.386 167.484 135.731 167.743 136.085C168.155 136.631 168.336 137.215 168.298 137.818C168.193 139.552 166.163 140.988 165.588 141.342L165.579 141.352Z" fill="#F53545"/>
<path d="M164.288 145.584L159.683 141.687L155.671 142.184C155.259 142.232 154.924 142.51 154.79 142.903L154.033 145.105L157.078 144.597L159.079 144.435L162.287 146.924C163.13 147.575 164.403 146.972 164.346 145.9C164.346 145.794 164.317 145.679 164.279 145.574L164.288 145.584Z" fill="#F7BE8F"/>
<path d="M163.195 148.285L158.59 144.388L154.482 144.895C154.137 144.933 153.84 145.173 153.725 145.508L153.496 146.188C153.285 146.801 153.764 147.433 154.405 147.394L155.985 147.308L157.986 147.145L161.194 149.635C162.037 150.286 163.31 149.683 163.253 148.61C163.253 148.505 163.224 148.39 163.186 148.285H163.195Z" fill="#F7BE8F"/>
<path d="M161.397 150.515L157.299 147.048L154.474 146.876C153.89 146.838 153.353 147.173 153.124 147.709L152.875 148.303C152.626 149.011 153.181 149.749 153.938 149.71L154.972 149.653L156.762 149.509L159.616 151.731C160.363 152.315 161.502 151.769 161.454 150.821C161.454 150.725 161.435 150.63 161.397 150.534V150.515Z" fill="#F7BE8F"/>
<path d="M156.865 142.473V138.873C156.875 138.078 157.526 137.437 158.321 137.437H159.115C159.336 137.437 159.556 137.504 159.747 137.618L163.827 140.07C164.296 140.357 164.267 141.046 163.779 141.295C163.578 141.401 163.319 141.487 162.984 141.535C161.586 141.755 159.336 140.357 159.336 140.357L159.364 142.406L156.865 142.473Z" fill="#F7BE8F"/>
<path d="M218.39 196.697C222.862 211.873 217.778 236.827 217.778 236.827L180.443 225.825L176.259 224.59C170.983 198.65 178.835 184.182 178.835 184.182C179.783 184.9 180.779 185.58 181.736 186.288C202.811 201.877 218.381 196.697 218.381 196.697H218.39Z" fill="#0F3348"/>
<path d="M181.746 186.613C180.386 192.818 177.054 210.839 180.443 226.15L176.259 224.915C170.983 198.975 178.835 184.507 178.835 184.507C179.783 185.225 180.759 185.924 181.736 186.613H181.746Z" fill="#001E37"/>
<path d="M239.742 407.333C239.742 407.333 242.155 406.796 241.915 411.948C241.676 417.099 240.833 439.017 240.833 439.017H238.143V422.691C238.143 422.691 238.593 435.321 232.838 439.678C227.083 444.035 222.822 442.579 220.763 441.258C218.695 439.937 230.569 407.313 230.569 407.313L239.742 407.333Z" fill="#212121"/>
<path d="M239.607 407.859C239.607 407.859 236.448 425.794 232.311 429.835C228.174 433.876 225.742 431.07 226.116 426.991C226.48 422.912 230.664 407.859 230.664 407.859C230.664 407.859 234.504 408.396 239.607 407.859Z" fill="#F7BE8F"/>
<path d="M269.215 194.714C269.215 194.714 242.242 202.652 222.038 197.711C222.038 197.711 219.797 176.866 220.831 160.061C221.3 152.544 222.421 145.842 224.69 142.184C232.044 130.339 246.924 132.637 252.88 136.898C258.836 141.15 260.31 153.148 260.31 153.148C260.31 153.148 260.856 156.662 261.718 161.679C263.537 172.241 266.745 189.476 269.215 194.724V194.714Z" fill="#151515"/>
<path d="M269.215 194.714C269.215 194.714 242.242 202.652 222.038 197.711C222.038 197.711 219.797 176.865 220.831 160.061C223.915 163.805 230.991 171.139 240.145 172.719C249.289 174.299 257.85 166.103 261.728 161.669C263.547 172.231 266.755 189.466 269.225 194.714H269.215Z" fill="#151515"/>
<path d="M281.002 439.718C277.603 439.996 270.22 440.417 264.829 439.556C257.628 438.387 252.218 424.053 252.218 424.053V438.56H249.183C249.183 438.56 247.546 414.602 247.364 411.002C247.182 407.392 251.021 405.601 251.021 405.601C251.175 405.477 251.357 405.391 251.558 405.353C253.243 404.979 256.259 407.555 259.074 410.657C261.229 413.032 263.259 415.694 264.494 417.59C265.777 419.543 269.253 423.785 272.853 428.017C276.281 432.068 279.824 436.118 281.624 438.167C282.132 438.742 281.758 439.651 280.992 439.718H281.002Z" fill="#212121"/>
<path d="M272.863 428.027C272.863 428.027 272.011 431.637 265.854 428.659C259.707 425.691 252.075 410.887 251.031 405.63V405.601C251.184 405.477 251.366 405.391 251.567 405.353C253.253 404.979 256.269 407.555 259.084 410.657C261.239 413.032 263.269 415.694 264.504 417.59C265.787 419.543 269.263 423.785 272.863 428.017V428.027Z" fill="#F7BE8F"/>
<path d="M246.686 356.49L246.446 360.225C245.785 364.782 245.211 369.321 244.694 373.716C242.865 389.324 241.821 402.959 240.328 407.862C238.863 408.877 237.33 409.241 235.932 409.269C232.983 409.327 230.609 407.862 230.609 407.862C230.609 407.862 226.702 386.547 225.151 375.239C224.021 366.937 226.041 359.736 227.2 356.5H246.676L246.686 356.49Z" fill="#494949"/>
<path d="M284.89 373.793C277.9 381.405 258.06 409.576 258.06 409.576C256.72 409.279 255.714 409.078 254.824 408.752C253.55 408.293 252.516 407.594 251.07 406.004L253.186 389.64C253.981 384.929 255.312 380.313 257.227 375.928C261.641 365.807 265.768 364.332 265.768 364.332C264.303 362.005 262.905 359.315 261.613 356.48H285.886C286.25 359.554 286.489 362.369 286.537 364.821C286.633 369.177 286.173 372.375 284.881 373.783L284.89 373.793Z" fill="#494949"/>
<path opacity="0.2" d="M286.547 364.83C281.491 365.481 273.39 366.736 268.813 368.545C262.273 371.131 254.805 402.605 254.824 408.752C253.55 408.293 252.516 407.594 251.07 406.004L253.186 389.64C253.981 384.929 255.312 380.313 257.227 375.928C261.641 365.807 265.768 364.332 265.768 364.332C264.303 362.005 262.905 359.315 261.613 356.48H285.886C286.25 359.554 286.489 362.369 286.537 364.821L286.547 364.83Z" fill="#001E37"/>
<path opacity="0.2" d="M246.686 356.49L246.446 360.225C245.786 364.782 245.211 369.321 244.694 373.716C240.912 374.817 232.237 373.822 231.231 376.531C230.264 379.126 235.492 399.838 235.942 409.26C232.993 409.317 230.618 407.852 230.618 407.852C230.618 407.852 226.712 386.538 225.16 375.229C224.031 366.927 226.051 359.727 227.21 356.49H246.686Z" fill="#001E37"/>
<path d="M313.542 101.353C313.599 102.694 315.188 108.123 315.102 110.699C315.016 113.265 314.643 114.596 314.643 114.596L314.834 117.21L314.863 117.632C314.863 117.632 309.099 118.11 307.882 117.632C307.787 117.593 307.71 117.545 307.681 117.497C307.672 117.478 307.662 117.45 307.662 117.43C307.662 117.43 307.643 117.249 307.547 117.047C307.452 116.846 307.289 116.597 307.002 116.348C306.666 116.052 306.159 115.764 305.393 115.544C303.2 114.931 301.582 114.424 300.96 112.384C300.337 110.345 299.983 108.995 299.504 108.276C299.016 107.558 299.571 104.169 299.849 103.766C300.126 103.364 301.477 103.642 301.706 105.662C301.936 107.683 302.568 109.291 302.951 109.148C303.334 109.004 303.296 107.874 303.219 106.448C303.143 105.021 302.635 103.585 302.281 102.704C301.917 101.823 299.6 96.6616 299.37 94.8135C299.14 92.9655 299.044 92.6112 299.782 92.3335C300.519 92.0558 301.697 94.239 302.166 95.6945C302.539 96.8339 303.794 100.406 304.177 100.348C304.742 100.262 302.779 94.0475 302.444 92.7836C302.109 91.5196 301.649 89.3652 303.095 89.4322C304.32 89.4896 305.527 95.321 305.939 96.403C305.939 96.403 306.638 98.8447 307.069 99.3044C307.499 99.7544 307.471 98.8064 307.452 98.3851C307.423 97.9638 306.609 94.622 306.14 93.3868C305.671 92.1516 305.163 90.677 305.862 90.2844C306.561 89.8918 307.404 90.5142 308.256 93.4347C309.108 96.3456 309.874 98.5192 310.075 99.4384C310.286 100.358 311.023 99.9555 310.985 98.9884C310.947 98.0213 310.027 94.1911 310.449 93.7028C310.87 93.2144 311.933 93.2336 312.44 94.8327C312.948 96.4413 313.503 100.023 313.561 101.363L313.542 101.353Z" fill="#F7BE8F"/>
<path d="M304.271 107.146C304.271 107.146 308.427 107.414 309.011 112.183C309.011 112.183 309.978 110.919 308.552 108.793C306.972 106.447 304.271 107.146 304.271 107.146Z" fill="#E08D68"/>
<path d="M303.143 102.838C303.143 102.838 304.512 101.191 307.04 100.559C309.568 99.9266 312.737 101.755 312.737 101.755C312.737 101.755 307.691 100.147 303.143 102.838Z" fill="#E08D68"/>
<path d="M305.105 148.896C305.105 148.896 304.865 145.813 305.717 134.763C306.024 130.827 306.531 125.369 306.713 121.434C306.78 120.007 306.79 118.571 306.752 117.135L306.732 116.598C306.732 116.598 310.266 117.843 314.929 115.899C314.929 115.899 315.264 117.336 315.733 119.768C316.988 126.231 318.453 135.404 317.869 147.364C317.792 148.925 317.39 156.01 315.963 156.652C315.963 156.652 313.071 168.966 298.431 182.726L288.75 177.095C288.75 177.095 292.934 157.801 305.095 148.896H305.105Z" fill="#001E37"/>
<path d="M306.721 121.444C309.727 121.769 313.826 120.467 315.741 119.778C315.271 117.355 314.936 115.909 314.936 115.909C310.273 117.853 306.74 116.608 306.74 116.608L306.759 117.144C306.807 118.581 306.788 120.007 306.721 121.444Z" fill="white"/>
<path d="M204.771 367.454C204.771 367.454 236.341 374.981 256.411 366.353L256.459 361.125L256.775 327.678L258.719 360.78L259.035 366.2C259.035 366.2 278.119 366.267 300.726 356.634C300.726 356.634 300.352 354.528 299.74 350.937C297.796 339.485 293.477 312.894 291.361 290.852C289.437 270.791 285.97 238.264 280.886 212.889C278.636 201.629 276.06 191.785 273.159 185.063L263.2 186.203L262.128 186.327L261.63 186.385L259.801 186.596L255.339 187.103L249.364 187.783L236.226 187.467L230.941 188.788L229.265 189.727L225.368 191.91L223.453 192.982L222.045 193.767L215.869 197.224C215.869 197.224 215.86 206.302 215.745 219.697C215.515 246.872 214.883 291.809 213.112 314.819C211.867 330.963 206.945 350.908 205.279 362.887C205.04 364.582 204.877 366.123 204.791 367.464L204.771 367.454Z" fill="#0F3348"/>
<path d="M225.359 191.9L255.33 247.15C261.707 228.641 260.357 194.984 259.792 186.586L255.33 187.093L249.355 187.773L236.658 187.543L230.932 188.779L225.35 191.9H225.359Z" fill="#001E37"/>
<path d="M230.941 188.779C234.331 195.645 237.328 201.16 240.143 206.34C244.921 215.13 249.144 222.992 253.769 234.999C255.933 220.665 256.871 211.128 256.306 199.235C256.134 195.491 255.808 191.518 255.33 187.094L249.355 187.774L237.251 187.113L230.932 188.779H230.941Z" fill="white"/>
<path d="M240.142 206.34C244.92 215.13 249.143 222.992 253.768 234.999C255.932 220.665 256.87 211.128 256.306 199.235L250.79 195.932L240.133 206.34H240.142Z" fill="#F2F2F2"/>
<path d="M222.037 193.758C223.732 198.996 226.04 204.549 228.654 210.103C239.455 233.036 255.541 255.94 255.761 256.247L256.566 257.396L257.131 256.113C264.427 239.48 265.5 220.282 265.117 207.106C264.944 201.265 264.485 196.047 263.987 191.929C263.719 189.669 263.441 187.735 263.201 186.203L262.129 186.328L261.631 186.385C262.301 190.646 263.278 198.153 263.537 207.183C263.9 219.841 262.914 238.121 256.25 254.159C252.736 249.046 238.65 228.114 229.286 207.681C226.978 202.663 224.967 197.684 223.454 192.973L222.047 193.758H222.037Z" fill="white"/>
<path d="M299.741 350.927C293.134 353.158 278.101 357.764 258.721 360.78L259.037 366.199C259.037 366.199 278.12 366.266 300.728 356.634C300.728 356.634 300.354 354.527 299.741 350.936V350.927Z" fill="#001E37"/>
<path d="M204.771 367.455C204.771 367.455 236.341 374.981 256.411 366.354L256.459 361.126C241.273 363.347 223.587 364.544 205.26 362.888C205.02 364.583 204.858 366.124 204.771 367.465V367.455Z" fill="#001E37"/>
<path d="M268.066 188.221C268.373 204.901 278.101 215.75 278.101 215.75L312.151 192.875L315.962 190.309C313.061 162.559 300.584 150.504 300.584 150.504C299.857 151.528 299.071 152.524 298.334 153.539C282.075 175.879 268.066 188.221 268.066 188.221Z" fill="#0F3348"/>
<path d="M298.334 153.539C301.666 159.342 310.715 176.415 312.151 192.875L315.962 190.309C313.061 162.559 300.584 150.504 300.584 150.504C299.856 151.528 299.1 152.543 298.334 153.539Z" fill="#001E37"/>
<path d="M252.38 192.254C246.931 193.441 240.927 192.158 236.36 189.008L234.33 175.631L252.332 182.42L253.653 191.105C253.347 191.555 252.897 191.928 252.38 192.254Z" fill="#F7BE8F"/>
<path d="M244.346 185.732C240.755 184.382 242.124 189.773 244.872 192.416C241.818 191.918 238.869 190.75 236.35 189.016L234.32 175.64L252.322 182.429L252.657 184.631C251.374 185.263 247.477 186.929 244.336 185.732H244.346Z" fill="#E08D68"/>
<path d="M258.403 151.3C258.403 151.3 259.572 158.07 259.227 165.931C258.882 173.792 257.283 179.796 250.973 183.262C244.663 186.729 233.804 178.618 231.458 169.617C229.122 160.626 229.543 152.257 231.468 149.318C233.393 146.378 254.391 136.841 258.394 151.3H258.403Z" fill="#F7BE8F"/>
<path d="M241.291 170.44L254.505 169.349C254.505 169.349 253.969 174.424 248.405 174.883C243.062 175.324 241.291 170.44 241.291 170.44Z" fill="white"/>
<path d="M233.584 156.661C233.584 156.661 235.346 152.812 241.761 154.172V155.254C241.761 155.254 237.06 153.492 233.584 156.661Z" fill="#212121"/>
<path d="M257.559 155.638C257.559 155.638 255.788 152.028 249.736 153.493L249.775 154.518C249.775 154.518 254.179 152.718 257.559 155.638Z" fill="#212121"/>
<path d="M246.012 165.414C246.012 165.414 245.916 163.566 248.942 163.317C251.642 163.097 251.748 164.945 251.748 164.945L246.012 165.424V165.414Z" fill="#E08D68"/>
<path d="M251.549 177.364C251.549 177.364 248.361 179.528 243.717 178.293C243.717 178.293 248.112 181.434 251.549 177.364Z" fill="#E08D68"/>
<path d="M243.208 160.003C243.208 160.003 241.8 157.073 238.909 157.514C235.327 158.06 235.509 160.492 235.509 160.492C235.509 160.492 238.392 155.714 243.208 160.003Z" fill="#001E37"/>
<path d="M249.547 159.037C249.547 159.037 250.035 156.346 253.157 156.691C255.148 156.911 256.23 159.113 256.23 159.113C256.23 159.113 252.783 155.484 249.547 159.037Z" fill="#001E37"/>
<path d="M242.09 144.194C242.09 144.194 248.62 152.64 258.674 153.138C258.674 153.138 258.454 140 242.09 144.194Z" fill="black"/>
<path d="M242.09 144.194C242.09 144.194 239.169 152.41 229.862 158.27C229.862 158.27 224.395 143.112 242.09 144.194Z" fill="black"/>
<path d="M229.869 158.28C229.869 158.28 226.958 156.729 226.038 159.515C225.119 162.302 226.335 169.11 231.286 168.89L229.878 158.28H229.869Z" fill="#F7BE8F"/>
<path d="M229.394 167.089C229.785 167.089 230.103 166.772 230.103 166.38C230.103 165.989 229.785 165.672 229.394 165.672C229.003 165.672 228.686 165.989 228.686 166.38C228.686 166.772 229.003 167.089 229.394 167.089Z" fill="white"/>
</svg>
