<svg width="481" height="474" viewBox="0 0 481 474" fill="none" xmlns="http://www.w3.org/2000/svg">
<path d="M189.639 398.843C185.415 399.176 181.171 399.34 176.911 399.303C130.222 398.944 74.806 378.92 48.6794 336.269C25.8364 298.983 14.4809 249.195 20.7261 204.976C26.5966 163.413 51.1553 128.101 87.835 112.427C129.087 94.7998 176.9 108.103 217.122 85.3607C275.668 52.2655 353.161 68.272 399.159 118.202C439.94 162.468 454.215 238.114 446.444 298.28C442.516 328.688 428.796 358.801 404.865 375.932C385.823 389.563 361.988 393.913 339.071 392.672C320.647 391.674 303.394 386.49 285.466 382.531C271.096 379.358 259.699 382.573 245.508 386.918C227.242 392.508 208.612 397.36 189.639 398.843Z" fill="#C8A13E" fill-opacity="0.34"/>
<path d="M210.93 408.034C206.342 409.037 201.712 409.866 197.04 410.505C145.827 417.479 82.5083 405.828 48.3784 366.551C18.5405 332.215 -0.311432 283.361 0.839429 237.406C1.92694 194.207 24.2948 154.433 62.4791 132.725C105.42 108.309 159.542 114.322 200.698 84.875C260.607 42.0081 347.602 46.11 404.443 89.6579C454.838 128.27 480.226 202.96 479.45 265.386C479.059 296.934 467.899 329.718 443.873 350.903C424.757 367.76 399.19 375.932 373.914 378.27C353.589 380.15 334.014 377.589 313.858 376.381C297.698 375.414 285.625 380.477 270.626 387.124C251.326 395.681 231.529 403.542 210.93 408.034Z" stroke="#C8A13E" stroke-width="1.58375" stroke-miterlimit="10"/>
<path d="M359.706 314.721C416.966 257.461 416.966 164.623 359.706 107.363C302.445 50.1031 209.608 50.1031 152.348 107.363C95.088 164.623 95.088 257.461 152.348 314.721C209.608 371.981 302.445 371.981 359.706 314.721Z" fill="#BE9C43"/>
<mask id="mask0_76_1779" style="mask-type:luminance" maskUnits="userSpaceOnUse" x="109" y="64" width="294" height="294">
<path d="M359.706 314.721C416.966 257.461 416.966 164.623 359.706 107.363C302.445 50.1031 209.608 50.1031 152.348 107.363C95.088 164.623 95.088 257.461 152.348 314.721C209.608 371.981 302.445 371.981 359.706 314.721Z" fill="white"/>
</mask>
<g mask="url(#mask0_76_1779)">
<path opacity="0.81" d="M385.099 129.177C385.099 129.177 372.862 134.303 359.5 130.112C346.139 125.92 335.538 124.679 331.347 134.916C327.155 145.152 332.086 146.139 320.989 148.114C309.892 150.088 309.153 155.51 313.097 163.65C317.04 171.785 319.268 177.403 312.363 183.595C305.458 189.787 300.279 192.749 302.987 198.54C305.7 204.332 299.877 212.224 300.569 223.812C301.261 235.4 296.33 239.1 304.465 244.522C312.6 249.949 314.823 261.537 320.493 260.798C326.162 260.059 333.559 263.115 326.902 268.368C320.245 273.621 322.71 296.554 331.832 299.51C340.955 302.472 364.378 313.563 374.984 311.594C385.585 309.619 409.014 269.366 409.014 269.366C409.014 269.366 428.246 160.514 428.742 157.643C429.233 154.771 385.099 129.177 385.099 129.177Z" fill="#FFE394"/>
<path opacity="0.81" d="M127.919 125.429C127.919 125.429 145.304 122.109 155.292 124.321C165.28 126.538 167.497 125.018 180.072 123.56C192.647 122.098 218.906 120.583 221.868 123.56C224.824 126.538 231.111 130.239 224.085 136.896C217.058 143.553 210.401 146.514 218.167 151.688C225.933 156.867 234.073 159.084 235.182 165.002C236.29 170.92 232.627 176.637 225.584 178.031C218.542 179.425 207.445 174.045 200.413 178.031C193.386 182.017 193.904 189.487 189.39 192.776C184.876 196.07 182.854 190.775 181.646 198.229C180.437 205.683 183.029 207.151 174.888 213.813C166.753 220.476 155.661 225.66 157.509 232.871C159.357 240.082 158.232 242.669 168.226 241.93C178.219 241.191 182.437 240.035 189.39 248.197C196.343 256.358 196.343 254.516 201.522 256.548C206.701 258.581 210.512 265.607 210.084 273.373C209.657 281.139 203.369 288.345 204.848 295.836C206.326 303.327 191.533 341.427 191.533 341.427L143.894 355.85C143.894 355.85 66.8921 254.616 66.8921 253.634C66.8921 252.652 89.0857 129.172 89.0857 129.172L127.919 125.424V125.429Z" fill="#FFE394"/>
<path d="M123.855 131.379C123.855 131.379 141.608 126.269 151.966 129.178C162.324 132.086 171.198 126.538 179.708 125.429C188.213 124.321 218.542 123.064 218.542 127.018C218.542 130.972 213.96 138.147 213.104 143.621C212.249 149.096 209.293 153.536 211.51 155.758C213.727 157.975 214.841 159.089 220.015 162.046C225.194 165.007 228.519 171.664 221.862 175.36C215.205 179.06 208.179 175.36 203.739 173.882C199.299 172.403 201.152 172.261 193.012 176.954C184.877 181.647 187.094 190.896 179.698 188.304C172.302 185.718 166.579 184.392 171.473 188.753C176.366 193.114 178.959 195.653 175.627 200.114C172.296 204.575 170.818 207.431 170.079 209.886C169.34 212.34 161.944 221.542 160.091 221.938C158.243 222.329 157.515 221.436 153.809 226.32C150.103 231.208 144.079 232.729 144.686 236.403C145.293 240.082 148.888 250.018 154.115 248.197C159.346 246.37 153.798 243.53 166.003 246.803C178.209 250.071 178.209 248.329 184.496 253.639C190.784 258.95 193.746 260.798 197.441 260.798C201.136 260.798 207.825 263.385 207.63 271.525C207.429 279.66 205.581 281.17 203.359 284.486C201.142 287.801 203.359 295.73 197.811 300.825C192.262 305.924 181.904 328.213 181.904 328.213L164.89 341.432L82.4077 281.909L110.889 138.004L123.833 131.379H123.855Z" fill="#BE9C43"/>
<path d="M389.418 135.048C389.418 135.048 381.842 142.703 374.995 140.353C368.143 138.004 362.79 132.456 352.801 136.156C342.813 139.857 342.813 144.292 337.634 148.731C334.182 151.691 330.852 153.541 327.646 154.28C322.837 155.388 319.881 160.198 323.576 164.268C327.277 168.338 331.342 171.664 325.793 174.995C320.245 178.326 317.647 180.871 318.767 186.831C319.136 189.788 319.875 188.362 315.435 190.928C310.996 193.488 311.867 198.366 312.358 201.476C312.849 204.585 312.479 206.132 307.67 210.355C302.86 214.573 300.87 220.053 303.547 221.948C306.223 223.843 303.858 225.311 303.547 229.001C303.235 232.697 301.752 235.225 308.039 239.507C314.327 243.788 320.614 253.407 323.945 250.076C327.277 246.745 325.424 242.426 330.233 246.808C335.042 251.184 339.113 253.328 335.042 262.799C330.972 272.269 331.511 277.496 336.235 281.909C340.96 286.323 339.113 290.43 348.726 294.109C358.345 297.789 368.428 293.713 373.506 292.631C378.585 291.549 395.7 283.477 395.7 283.477L430.838 171.295L389.413 135.048H389.418Z" fill="#BE9C43"/>
</g>
<mask id="mask1_76_1779" style="mask-type:luminance" maskUnits="userSpaceOnUse" x="109" y="64" width="294" height="294">
<path d="M359.706 314.721C416.966 257.461 416.966 164.623 359.706 107.363C302.445 50.1031 209.608 50.1031 152.348 107.363C95.088 164.623 95.088 257.461 152.348 314.721C209.608 371.981 302.445 371.981 359.706 314.721Z" fill="white"/>
</mask>
<g mask="url(#mask1_76_1779)">
<path d="M98.4136 177.045L104.696 176.564C104.828 176.554 104.949 176.496 105.034 176.401C106.079 175.244 107.715 174.822 109.188 175.329L110.74 175.862C110.809 175.888 110.888 175.894 110.962 175.888L119.968 174.896C120.132 174.88 120.28 174.78 120.359 174.632L121.732 172.098C121.864 171.855 121.779 171.554 121.536 171.417L118.538 169.685C118.364 169.585 118.263 169.39 118.284 169.194L118.543 166.65C118.569 166.412 118.754 166.222 118.992 166.196L121.848 165.879C122.08 165.853 122.302 165.995 122.381 166.217L123.564 169.548C123.579 169.601 123.611 169.648 123.643 169.696L125.807 172.436C126.034 172.721 126.478 172.684 126.652 172.367L127.09 171.57C127.301 171.185 127.866 171.232 128.014 171.644L128.954 174.278C129.096 174.68 129.635 174.738 129.862 174.379L131.514 171.776C131.614 171.618 131.62 171.422 131.53 171.259L130.77 169.881C130.558 169.501 130.896 169.047 131.324 169.136L135.663 170.071C136.07 170.161 136.207 170.667 135.896 170.947L135.5 171.301C135.31 171.47 135.273 171.76 135.421 171.971L136.587 173.645C136.719 173.835 136.709 174.094 136.556 174.268L134.169 177.029C134.032 177.187 134.006 177.419 134.111 177.604L135.204 179.579C135.315 179.779 135.278 180.022 135.12 180.186L133.568 181.738C133.409 181.896 133.172 181.933 132.976 181.828L131.377 180.999C131.203 180.909 131.097 180.724 131.102 180.529L131.139 179.457C131.155 178.94 130.479 178.729 130.199 179.167L129.666 180.011C129.635 180.059 129.598 180.106 129.55 180.138L127.248 181.928C127.027 182.102 126.984 182.424 127.164 182.646L127.565 183.153C127.824 183.48 127.597 183.966 127.18 183.976L125.638 184.018C125.501 184.018 125.369 184.082 125.279 184.182L122.307 187.418C122.186 187.55 122.143 187.735 122.196 187.904L123.015 190.697C123.12 191.05 123.548 191.177 123.828 190.945C124.128 190.691 124.588 190.86 124.656 191.246L125.036 193.426C125.089 193.732 125.406 193.922 125.702 193.822L127.021 193.373C127.106 193.347 127.196 193.336 127.28 193.357L136.788 195.194C136.973 195.231 137.126 195.369 137.179 195.548L138.145 198.863C138.182 198.995 138.271 199.101 138.387 199.17L141.418 200.843C141.803 201.054 142.257 200.722 142.167 200.289L141.407 196.625L144.216 193.59C144.385 193.405 144.395 193.125 144.242 192.924L141.544 189.535C141.397 189.35 141.397 189.086 141.544 188.902L142.658 187.513C142.811 187.323 142.806 187.054 142.653 186.869L140.151 183.886C139.934 183.628 140.024 183.232 140.335 183.095L145.05 180.993C145.171 180.941 145.314 180.935 145.44 180.983L151.886 183.469C152.108 183.554 152.24 183.781 152.208 184.013L151.907 186.215C151.886 186.357 151.929 186.5 152.024 186.61L153.206 188.025C153.365 188.215 153.634 188.263 153.845 188.141L156.342 186.727C156.463 186.658 156.548 186.547 156.585 186.415L157.039 184.689C157.155 184.256 157.736 184.171 157.968 184.557L161.79 190.96C161.853 191.066 161.954 191.145 162.075 191.182L165.728 192.323L171.398 195.559C171.694 195.728 171.747 196.134 171.504 196.372L168.743 199.053C168.695 199.096 168.642 199.133 168.59 199.159L164.261 201.012C164.213 201.033 164.176 201.054 164.139 201.086L160.212 204.312C160.027 204.465 159.969 204.729 160.08 204.945L160.993 206.714C161.104 206.93 161.357 207.041 161.595 206.972L165.153 205.943C165.459 205.853 165.771 206.064 165.808 206.381L165.939 207.595C165.966 207.827 165.829 208.049 165.607 208.134L162.186 209.401C162.102 209.432 162.033 209.48 161.975 209.548L159.689 212.22C159.446 212.505 158.987 212.441 158.834 212.098L158.459 211.28C158.401 211.153 158.396 211.006 158.448 210.874L159.003 209.506C159.177 209.073 158.733 208.651 158.311 208.846L154.473 210.615C154.331 210.678 154.225 210.81 154.188 210.963L153.465 214.052C153.433 214.199 153.333 214.321 153.201 214.389L150.176 215.968C150.023 216.047 149.922 216.195 149.901 216.364L149.12 223.1C149.104 223.248 149.025 223.38 148.904 223.464L143.524 227.234C143.345 227.36 143.26 227.593 143.329 227.804L145.398 234.572C145.435 234.688 145.425 234.82 145.377 234.931L144.717 236.414C144.548 236.8 144.015 236.826 143.804 236.462L141.434 232.397C141.344 232.244 141.18 232.149 141.001 232.143L133.388 231.943C132.95 231.932 132.702 232.439 132.976 232.777C133.283 233.162 132.929 233.717 132.448 233.595L129.191 232.766C129.012 232.719 128.822 232.777 128.695 232.909L123.474 238.367C123.326 238.521 123.289 238.753 123.384 238.943L126.816 246.117C126.895 246.281 127.048 246.392 127.233 246.408L131.577 246.825C131.773 246.846 131.957 246.751 132.063 246.587L133.705 243.953C133.768 243.847 133.869 243.773 133.985 243.736L137.089 242.754C137.416 242.649 137.754 242.892 137.759 243.235L137.844 248.54C137.844 248.826 138.087 249.058 138.377 249.047L142.569 248.91C142.875 248.899 143.123 249.158 143.097 249.464L142.727 254.448L144.627 256.897L150.445 256.602C151.131 256.565 151.76 256.227 152.166 255.673L153.37 254.026C153.745 253.508 154.325 253.176 154.959 253.107L158.084 252.764C158.533 252.716 158.982 252.801 159.377 253.007L160.217 253.44C160.808 253.746 161.505 253.777 162.123 253.524L165.348 252.209C165.876 251.993 166.462 251.982 166.995 252.183L180.22 257.072C180.716 257.256 181.138 257.61 181.402 258.069L183.688 262.05C184.031 262.646 184.623 263.053 185.298 263.159L201.949 265.819C202.957 265.983 203.738 266.796 203.849 267.815L204.266 271.605C204.346 272.323 204.076 273.041 203.543 273.527L199.98 276.795C199.541 277.196 199.278 277.761 199.246 278.357L198.776 287.701C198.734 288.557 198.211 289.317 197.43 289.665L190.699 292.664C190.113 292.922 189.669 293.419 189.464 294.026L185.705 305.397C185.446 306.184 184.781 306.764 183.968 306.918L182.585 307.176C181.418 307.398 180.616 308.48 180.748 309.657C180.832 310.428 180.521 311.188 179.913 311.674L172.887 317.344C172.496 317.661 172.222 318.094 172.106 318.579L169.123 330.922C169.007 331.408 169.054 331.92 169.255 332.379L170.649 335.52C171.398 337.204 169.936 339.031 168.13 338.672L166.494 338.345C165.67 338.181 165.005 337.574 164.762 336.771L160.56 322.866C160.486 322.623 160.454 322.37 160.465 322.116L161.252 302.573L161.853 289.755C161.896 288.852 161.405 288.013 160.597 287.612L156.849 285.743C156.543 285.59 156.273 285.373 156.067 285.099L148.444 275.264C148.217 274.968 148.064 274.625 148.001 274.261L147.288 270.164C147.156 269.398 147.42 268.622 147.99 268.1L151.327 265.038C151.86 264.547 152.129 263.834 152.05 263.116L151.812 260.973C151.675 259.727 150.551 258.824 149.305 258.962L147.288 259.183C146.94 259.22 146.581 259.183 146.253 259.057L141.296 257.225L138.261 253.44L133.821 253.925L129.872 251.423C129.819 251.391 129.767 251.365 129.703 251.354L117.324 248.688C117.202 248.662 117.097 248.593 117.023 248.498L109.136 238.272C108.761 237.787 108.001 238.251 108.265 238.806L109.273 240.938C109.521 241.466 108.84 241.936 108.439 241.514L100.472 233.257L90.706 222.725L91.255 210.689L79.8361 205.579L72.572 197.396L61.4277 194.994C61.1954 194.946 60.9525 194.967 60.7361 195.068L50.1725 199.803C50.0669 199.851 49.956 199.882 49.8399 199.893L46.2764 200.284C46.06 200.305 45.8435 200.268 45.6482 200.167L38.3418 196.472C37.6239 196.113 37.513 195.136 38.1307 194.619L42.5229 190.939C43.1881 190.385 42.9928 189.313 42.1745 189.028L40.5274 188.453C39.4029 188.062 39.5877 186.42 40.7702 186.288C41.9422 186.162 42.1428 184.541 41.0342 184.129L37.9195 182.978C36.9745 182.63 36.9376 181.315 37.8561 180.909L44.2915 178.079C46.6143 177.06 49.143 176.606 51.6717 176.754L67.7257 177.689C70.7137 177.863 73.6806 177.134 76.2516 175.598C79.1551 173.861 82.5655 173.159 85.923 173.618L97.136 175.149C97.3313 175.176 97.5003 175.318 97.5531 175.508L97.9015 176.68C97.9701 176.913 98.1866 177.06 98.4294 177.045H98.4136Z" fill="#FFE394"/>
<path d="M127.333 162.215L127.159 162.96C126.858 164.264 127.708 165.552 129.022 165.784L138.219 167.426C138.509 167.479 138.784 167.584 139.032 167.737L142.231 169.707C142.801 170.06 143.197 170.641 143.308 171.301L144.205 176.522C144.337 177.298 144.855 177.953 145.573 178.269L153.412 181.696C154.706 182.26 156.205 181.558 156.595 180.196L157.245 177.921C157.324 177.641 157.456 177.377 157.63 177.145L159.224 175.054C160.254 173.708 159.547 171.75 157.899 171.364L154.933 170.673C153.966 170.446 153.254 169.638 153.143 168.656C153.053 167.832 152.531 167.115 151.77 166.777L144.591 163.583C144.348 163.477 144.126 163.329 143.936 163.145L140.615 160.009C140.119 159.539 139.438 159.312 138.757 159.386L129.344 160.421C128.357 160.531 127.549 161.249 127.322 162.215H127.333Z" fill="#FFE394"/>
<path d="M121.816 161.249L120.312 161.413C119.588 161.492 119.071 162.141 119.15 162.859L119.213 163.456C119.293 164.174 119.942 164.696 120.66 164.617L121.631 164.512C122.001 164.469 122.339 164.274 122.555 163.968L123.02 163.313C123.68 162.389 122.935 161.122 121.806 161.249H121.816Z" fill="#FFE394"/>
<path d="M116.389 167.251L117.556 165.541C117.82 165.15 117.857 164.649 117.651 164.226L117.007 162.901C116.711 162.294 116.004 162.009 115.37 162.247L112.425 163.334C111.469 163.688 111.263 164.95 112.06 165.588L114.483 167.531C115.08 168.011 115.956 167.879 116.389 167.246V167.251Z" fill="#FFE394"/>
<path d="M98.1657 165.367L87.0055 164.089C85.9444 163.968 84.9414 164.586 84.5718 165.589L84.0492 166.993C83.6744 168.001 84.0492 169.131 84.9414 169.728L85.4323 170.055C86.05 170.461 86.8208 170.551 87.5123 170.298L89.1383 169.696C89.6768 169.495 90.2681 169.506 90.8013 169.717L93.3142 170.72C93.5095 170.799 93.6943 170.9 93.8579 171.032L97.8754 174.093C98.5194 174.584 99.3799 174.706 100.135 174.405L104.717 172.584C105.134 172.415 105.594 172.378 106.032 172.468L110.25 173.323C110.904 173.455 111.591 173.296 112.119 172.89C113.412 171.897 113.301 169.918 111.907 169.073L109.664 167.716C109.215 167.447 108.872 167.03 108.692 166.539L108.075 164.876C107.652 163.73 106.412 163.113 105.245 163.461L99.079 165.288C98.7781 165.378 98.4666 165.404 98.1604 165.367H98.1657Z" fill="#FFE394"/>
<path d="M110.123 156.645L113.243 159.317C113.459 159.501 113.734 159.612 114.019 159.628L118.062 159.866C119.097 159.924 119.789 158.82 119.282 157.912L118.86 157.163C118.601 156.704 118.094 156.44 117.571 156.498L116.452 156.619C115.982 156.672 115.518 156.466 115.243 156.075L114.219 154.639C113.945 154.254 113.48 154.048 113.01 154.096L110.835 154.333C109.695 154.46 109.251 155.885 110.123 156.635V156.645Z" fill="#FFE394"/>
<path d="M123.32 159.692L137.157 158.171C137.416 158.145 137.606 157.907 137.574 157.649L137.305 155.22C137.279 154.977 137.073 154.798 136.835 154.798L132.955 154.814C132.892 154.814 132.828 154.83 132.77 154.851L127.222 157.237C127.021 157.321 126.789 157.263 126.662 157.089L125.844 156.028C125.675 155.806 125.733 155.495 125.965 155.342L127.797 154.159C127.876 154.112 127.966 154.085 128.056 154.085L138.049 154.18C138.334 154.18 138.556 153.937 138.524 153.658L138.292 151.535C138.276 151.403 138.319 151.271 138.408 151.171L141.782 147.37C142.067 147.048 141.808 146.536 141.375 146.584C140.858 146.642 140.641 145.94 141.101 145.697L144.379 143.949C144.379 143.949 144.411 143.933 144.427 143.923L149.985 140.09C149.985 140.09 150.012 140.074 150.028 140.064L156.13 136.727C156.537 136.506 156.416 135.893 155.956 135.84L142.051 134.246C141.988 134.241 141.919 134.246 141.856 134.262L121.826 140.428C121.446 140.544 121.372 141.051 121.7 141.273L124.007 142.825C124.086 142.878 124.186 142.909 124.281 142.904L131.904 142.74C131.962 142.74 132.015 142.73 132.073 142.709L133.583 142.102C134.106 141.89 134.491 142.608 134.027 142.93L132.026 144.308C131.968 144.345 131.904 144.372 131.836 144.387L128.167 145.01C128.103 145.021 128.045 145.021 127.982 145.01L121.251 143.485C121.203 143.474 121.161 143.458 121.119 143.432L118.691 142.043C118.548 141.959 118.369 141.959 118.226 142.043L113.38 144.752C113.089 144.915 113.052 145.311 113.306 145.528L117.556 149.118C117.608 149.165 117.672 149.197 117.74 149.213L123.405 150.68C123.532 150.712 123.664 150.691 123.774 150.622L127.396 148.368C127.813 148.109 128.304 148.584 128.056 149.007L126.541 151.593C126.504 151.657 126.456 151.71 126.398 151.747L122.576 154.328C122.46 154.407 122.312 154.428 122.18 154.391L117.329 152.971C117.006 152.876 116.69 153.14 116.727 153.478L116.885 154.919C116.906 155.136 117.08 155.31 117.297 155.336L121.008 155.806C121.172 155.827 121.314 155.933 121.383 156.086L122.835 159.407C122.919 159.597 123.114 159.713 123.32 159.686V159.692Z" fill="#FFE394"/>
<path d="M106.369 152.275C106.591 152.486 106.876 152.613 107.177 152.634L110.841 152.903C111.955 152.982 112.657 151.72 111.997 150.818L111.728 150.448C111.474 150.1 111.062 149.899 110.629 149.91L107.235 150.01C106.068 150.047 105.525 151.467 106.369 152.275Z" fill="#FFE394"/>
<path d="M114.478 150.749L114.546 150.881C114.795 151.366 115.317 151.651 115.861 151.593L115.967 151.583C117.038 151.467 117.519 150.173 116.785 149.381L116.669 149.255C116.384 148.954 115.977 148.801 115.565 148.843H115.513C114.599 148.948 114.071 149.93 114.483 150.743L114.478 150.749Z" fill="#FFE394"/>
<path d="M150.292 152.945L158.544 152.428C158.992 152.401 159.441 152.539 159.795 152.813L169.625 160.426C169.941 160.674 170.174 161.017 170.279 161.408L175.004 178.771C175.099 179.109 175.284 179.42 175.548 179.658L178.319 182.181C179.307 183.079 180.89 182.672 181.323 181.41L183.847 174.051C184.079 173.37 184.686 172.89 185.399 172.811L188.709 172.446C189.232 172.388 189.701 172.114 190.008 171.691L193.223 167.252C193.402 167.004 193.64 166.803 193.919 166.671L202.15 162.69C202.556 162.495 202.878 162.152 203.052 161.735L207.466 151.161C207.661 150.691 207.656 150.158 207.45 149.688L203.987 141.933C203.633 141.146 203.871 140.222 204.557 139.7L211.605 134.336C212.94 133.317 212.349 131.195 210.681 131.015L203.744 130.276C203.696 130.271 203.649 130.266 203.601 130.266L183.715 129.701C183.519 129.696 183.329 129.722 183.139 129.775L160.766 136.326C160.492 136.405 160.238 136.548 160.027 136.743L153.412 142.862C153.264 142.999 153.096 143.11 152.911 143.194L146.475 146.066C145.33 146.578 145.013 148.051 145.842 148.986L148.793 152.327C149.173 152.755 149.727 152.987 150.298 152.95L150.292 152.945Z" fill="#FFE394"/>
<path d="M203.311 168.667L209.329 172.23L216.282 171.465L219.096 165.927L209.208 165.61L203.311 168.667Z" fill="#FFE394"/>
<path d="M314.675 207.61L312.759 209.843C312.695 209.917 312.637 209.991 312.579 210.065L306.397 218.205C305.331 219.609 305.13 221.489 305.88 223.083L306.234 223.838C306.846 225.147 306.825 226.662 306.186 227.956C305.278 229.788 305.642 232 307.099 233.435L314.242 240.504C315.129 241.381 316.328 241.877 317.573 241.877H321.649H323.592C324.294 241.877 324.985 241.724 325.624 241.423L329.916 239.396C330.201 239.258 330.539 239.301 330.782 239.501L333.469 241.703C333.617 241.824 333.796 241.887 333.986 241.887H336.188C336.642 241.887 337.006 242.257 337.006 242.706V248.539C337.006 248.919 337.09 249.294 337.259 249.632L341.372 257.867C341.657 258.438 341.705 259.098 341.509 259.705L339.392 266.267C339.202 266.858 339.244 267.497 339.508 268.056L341.567 272.412C341.72 272.739 341.805 273.093 341.8 273.457V277.891C341.8 278.372 341.937 278.847 342.206 279.248L348.293 288.392C348.747 289.073 349.507 289.479 350.325 289.479H357.405C358.191 289.484 358.925 289.11 359.384 288.471L363.618 282.6C363.919 282.183 364.078 281.687 364.078 281.175V279.285C364.078 278.198 364.801 277.237 365.851 276.941L366.527 276.751C367.578 276.45 368.301 275.495 368.301 274.407V271.836C368.301 271.187 368.56 270.569 369.019 270.11L373.617 265.522C374.076 265.063 374.33 264.445 374.335 263.796V257.625C374.335 257.202 374.23 256.78 374.018 256.416L372.873 254.404C372.318 253.438 372.493 252.219 373.29 251.443L382.893 242.104C383.215 241.792 383.442 241.396 383.558 240.958L384.524 237.2C385.105 234.935 383.067 232.865 380.797 233.414C379.081 233.826 377.281 233.193 376.209 231.788L374.969 230.173L371.659 228.362L366.453 214.082C366.353 213.813 366.707 213.612 366.891 213.829L373.475 221.737L376.811 228.563C377.819 230.627 380.227 231.593 382.381 230.791L391.656 227.349C391.968 227.232 392.232 227.005 392.39 226.715L395.019 221.943C395.283 221.462 395.241 220.866 394.908 220.428L392.327 217.049C391.888 216.473 391.075 216.331 390.468 216.727L387.713 218.506C387.021 218.949 386.102 218.707 385.722 217.978L382.961 212.63C382.481 211.706 383.157 210.603 384.197 210.603C384.651 210.603 385.078 210.83 385.337 211.205L387.19 213.881C387.464 214.277 387.929 214.504 388.409 214.478L392.432 214.256C392.828 214.235 393.213 214.383 393.493 214.663L395.056 216.225C395.315 216.484 395.668 216.632 396.038 216.632H403.281C403.671 216.632 404.041 216.801 404.305 217.091L409.468 222.803C409.563 222.909 409.642 223.03 409.7 223.162L415.407 235.843C415.872 236.872 417.308 236.941 417.867 235.954L421.821 228.938C421.911 228.779 422.032 228.637 422.18 228.526L432.491 220.544C433.235 219.968 434.328 220.29 434.639 221.182L436.344 226.113C436.561 226.741 437.2 227.127 437.854 227.027L439.348 226.8C440.071 226.689 440.752 227.159 440.906 227.876L441.803 232.105C441.824 232.2 441.835 232.295 441.835 232.395V235.954C441.835 236.144 441.872 236.339 441.951 236.513L444.136 241.433C444.205 241.586 444.3 241.729 444.421 241.85L445.219 242.648C446.227 243.661 447.922 242.653 447.515 241.28L446.728 238.62C446.676 238.445 446.591 238.282 446.475 238.139L444.253 235.42C444.052 235.172 443.941 234.866 443.941 234.549C443.941 233.177 445.725 232.649 446.475 233.794L448.175 236.397C448.64 237.11 449.632 237.236 450.26 236.661L454.468 232.823C454.864 232.464 455.091 231.952 455.091 231.419V228.932C455.091 228.246 454.721 227.613 454.125 227.275L452.108 226.14C451.126 225.585 450.841 224.313 451.485 223.389L451.591 223.236C452.066 222.555 452.926 222.265 453.718 222.513L456.31 223.326C456.875 223.505 457.493 223.405 457.973 223.067L466.853 216.811C467.238 216.542 467.507 216.136 467.613 215.676L469.434 207.641C469.519 207.261 469.487 206.86 469.339 206.496L467.808 202.763C467.592 202.236 467.623 201.639 467.893 201.137L468.843 199.374C469.271 198.582 470.194 198.197 471.055 198.45L473.742 199.242C474.339 199.416 474.814 199.876 475.009 200.467L475.621 202.299C476.044 203.571 477.612 204.02 478.641 203.159C479.454 202.484 479.56 201.275 478.879 200.467L477.775 199.158C477.205 198.487 477.173 197.511 477.696 196.803L479.554 194.275C479.913 193.784 480.483 193.498 481.091 193.498H485.018C485.715 193.498 486.359 193.118 486.692 192.506L491.675 183.341C491.813 183.093 491.881 182.813 491.881 182.534V178.036C491.881 177.101 491.126 176.341 490.192 176.341C488.65 176.341 487.911 174.446 489.041 173.401L494.716 168.158C495.028 167.868 495.439 167.71 495.867 167.71H504.91C505.253 167.715 505.591 167.609 505.876 167.414L512.539 162.805C512.824 162.61 513.162 162.504 513.505 162.504H515.843C517.39 162.504 518.129 164.41 516.989 165.45L510.015 171.833C509.603 172.213 509.403 172.767 509.482 173.321L510.337 179.35C510.538 180.781 512.328 181.319 513.283 180.237L519.766 172.926C520.04 172.614 520.193 172.218 520.193 171.801V168.977C520.193 168.232 520.684 167.572 521.397 167.356L527.426 165.524L534.653 162.515H537.662L546.061 154.565C547.054 153.625 546.716 151.972 545.438 151.497L529.765 145.653C529.242 145.458 528.667 145.511 528.186 145.791L524.306 148.071C523.989 148.256 523.625 148.346 523.261 148.319L514.281 147.786C513.832 147.76 513.41 147.57 513.088 147.253L507.201 141.382C506.858 141.039 506.388 140.844 505.903 140.844L491.728 140.833C491.264 140.833 490.815 141.008 490.472 141.33L486.887 144.661C486.444 145.073 485.826 145.242 485.235 145.11L477.992 143.521C477.147 143.336 476.54 142.586 476.545 141.72V140.437C476.545 139.582 475.965 138.843 475.136 138.643L470.279 137.471C469.524 137.291 468.737 137.597 468.31 138.247L467.391 139.63C466.932 140.327 466.056 140.628 465.264 140.358L459.599 138.453C458.1 137.946 457.889 135.913 459.256 135.116L459.884 134.747C460.497 134.382 460.85 133.701 460.787 132.989L460.734 132.376C460.655 131.489 459.948 130.782 459.061 130.708L440.346 129.066C440.003 129.034 439.654 129.103 439.348 129.261L425.464 136.33C424.846 136.647 424.456 137.281 424.456 137.972V138.072C424.456 138.79 424.039 139.44 423.389 139.746L417.054 142.686C416.421 142.982 415.682 142.892 415.133 142.459L413.866 141.451C413.343 141.034 412.63 140.939 412.013 141.192L404.997 144.107C404.221 144.429 403.761 145.236 403.877 146.07C404.067 147.39 402.832 148.467 401.549 148.103L396.381 146.646C395.415 146.371 394.407 146.926 394.116 147.892L394.09 147.976C393.873 148.699 393.24 149.217 392.49 149.28L384.244 150.024C383.948 150.051 383.663 150.151 383.41 150.31L370.677 158.524C370.233 158.809 369.663 158.772 369.262 158.434L367.699 157.114C366.976 156.507 367.213 155.335 368.122 155.061L372.472 153.725C372.593 153.688 372.704 153.635 372.804 153.562C373.549 153.044 373.464 151.914 372.656 151.513L356.386 143.415C356.022 143.23 355.589 143.251 355.235 143.462L340.591 152.295C340.485 152.358 340.39 152.437 340.306 152.532L330.47 163.808C330.122 164.21 330.08 164.796 330.365 165.244L332.682 168.834C332.978 169.293 333.548 169.489 334.066 169.32L337.956 168.021C338.627 167.799 339.345 168.201 339.498 168.892L340.168 171.854C340.306 172.461 340.886 172.862 341.504 172.772L343.98 172.419C344.386 172.361 344.729 172.102 344.898 171.732L347.454 166.115C347.575 165.851 347.596 165.551 347.506 165.271L346.656 162.51C346.519 162.072 346.656 161.591 346.989 161.28L352.722 156.016C352.944 155.816 353.229 155.7 353.53 155.7H354.417C355.478 155.7 356.011 156.982 355.267 157.737L351.255 161.786C350.896 162.151 350.806 162.705 351.033 163.159L351.804 164.706C352.015 165.128 352.458 165.387 352.933 165.366L357.463 165.144C357.901 165.123 358.318 165.345 358.545 165.725L358.593 165.804C359.073 166.601 358.498 167.615 357.568 167.615H355.668C355.045 167.615 354.528 168.09 354.475 168.713L354.316 170.708C354.279 171.152 354 171.542 353.593 171.711L344.566 175.533C344.407 175.602 344.233 175.634 344.059 175.628L336.225 175.343C336.008 175.333 335.792 175.386 335.602 175.491L330.523 178.305C330.486 178.326 330.455 178.347 330.418 178.374L324.806 182.708C322.8 184.26 322.488 187.174 324.13 189.111C324.32 189.333 324.373 189.645 324.273 189.919L323.423 192.247C323.307 192.569 322.995 192.786 322.652 192.786H319.938C317.653 192.786 315.852 194.729 316.032 197.009L316.248 199.77C316.275 200.097 316.491 200.377 316.803 200.483L321.422 202.024C321.607 202.088 321.813 202.077 321.992 202.003L326.326 200.224C326.632 200.097 326.833 199.797 326.833 199.469V198.097C326.833 195.964 328.09 194.037 330.032 193.166L334.456 191.191C336.314 190.363 338.426 191.635 338.558 193.667C338.574 193.884 338.669 194.084 338.833 194.227L343.526 198.408C343.806 198.656 344.212 198.683 344.524 198.477L345.173 198.044C345.527 197.806 345.643 197.336 345.432 196.962L341.81 190.484C341.673 190.241 341.673 189.94 341.805 189.697L342.781 187.892C343.125 187.253 344.07 187.343 344.281 188.035L345.162 190.859C345.189 190.949 345.236 191.038 345.294 191.112L348.182 194.876C348.203 194.903 348.219 194.929 348.24 194.961L351.698 200.826C351.93 201.222 352.448 201.349 352.838 201.106L354.068 200.34C354.353 200.166 354.501 199.833 354.443 199.506C354.285 198.603 355.499 198.16 355.958 198.957L357.558 201.739C357.917 202.357 358.614 202.7 359.321 202.6L364.437 201.892C366.601 201.591 368.375 203.598 367.815 205.709L367.224 207.932C367.018 208.703 366.321 209.241 365.524 209.236H360.414C360.308 209.236 360.197 209.22 360.092 209.204L351.418 207.589C350.383 207.399 349.338 207.853 348.773 208.734C348.098 209.801 346.746 210.212 345.585 209.716L337.719 206.337C337.339 206.174 337.143 205.757 337.254 205.361L337.946 202.959C338.104 202.415 337.671 201.882 337.106 201.919L324.716 202.737L324.009 202.806C320.403 203.149 317.072 204.87 314.712 207.615L314.675 207.61Z" fill="#FFE394"/>
<path d="M370.798 189.07L370.861 189.397C370.988 190.036 371.41 190.579 372.002 190.865L375.634 192.607C376.837 193.182 377.191 194.729 376.357 195.774C375.877 196.371 375.106 196.656 374.356 196.513L366.131 194.966C366.005 194.945 365.878 194.929 365.751 194.929H361.829C360.271 194.929 359.274 193.277 359.992 191.894L361.75 188.515C362.109 187.829 362.816 187.401 363.592 187.401H368.766C369.753 187.401 370.603 188.103 370.798 189.075V189.07Z" fill="#FFE394"/>
<path d="M388.826 195.046V200.098C388.826 201.243 387.892 202.172 386.746 202.172H385.775C384.629 202.172 383.7 201.243 383.7 200.098V197.242C383.7 196.92 383.626 196.603 383.484 196.313L381.393 192.126C380.855 191.044 381.346 189.735 382.465 189.281L384.793 188.33C385.965 187.85 387.29 188.526 387.591 189.756L388.763 194.555C388.8 194.718 388.821 194.882 388.821 195.046H388.826Z" fill="#FFE394"/>
<path d="M381.298 264.15L378.485 267.218C378.126 267.608 377.893 268.094 377.809 268.617L376.906 274.36C376.653 275.986 377.909 277.454 379.551 277.454H380.48C381.652 277.454 382.682 276.699 383.035 275.585L385.823 266.774C385.981 266.278 385.986 265.75 385.849 265.248C385.289 263.221 382.713 262.604 381.293 264.15H381.298Z" fill="#FFE394"/>
</g>
<g style="mix-blend-mode:multiply" opacity="0.28">
<path d="M256.029 304.266C184.169 304.266 124.388 252.573 111.834 184.345C110.239 193.003 109.405 201.924 109.405 211.047C109.405 292.024 175.052 357.671 256.029 357.671C337.006 357.671 402.653 292.024 402.653 211.047C402.653 201.93 401.819 193.003 400.225 184.345C387.671 252.573 327.889 304.266 256.029 304.266Z" fill="#FFE394"/>
</g>
<path d="M225.252 67.2745C221.451 63.8694 217.645 68.6735 218.247 72.2792C218.849 75.8848 217.777 80.0871 217.777 80.0871C217.777 80.0871 218.801 79.7914 220.464 79.6119C221.092 77.9807 221.789 75.7581 221.441 74.6865C222.364 76.4233 222.681 78.1707 222.776 79.4694C224.434 79.4483 226.382 79.5908 228.457 80.0871C226.857 78.6881 229.058 70.6796 225.252 67.2745Z" fill="#DBA61F"/>
<path d="M257.334 5.37012L219.646 34.9916L250.069 47.5666L298.622 21.5297L257.334 5.37012Z" fill="#473C1E"/>
<path d="M274.295 437.202C274.295 437.202 269.792 448.911 274.295 453.869C302.671 458.826 316.186 455.22 319.337 454.771C322.489 454.323 290.513 438.559 290.513 438.559L274.301 437.207L274.295 437.202Z" fill="#231D0D"/>
<path d="M239.617 435.629V454.998C239.617 454.998 217.545 456.35 208.09 454.998C198.629 453.647 215.744 444.641 215.744 444.641L217.777 431.126L239.617 435.629Z" fill="#231D0D"/>
<path d="M252.677 314.92L239.617 435.634C239.617 435.634 224.302 439.239 215.744 435.634V315.374L252.677 314.925V314.92Z" fill="#473C1E"/>
<path d="M265.506 324.064L271.878 439.002C271.878 439.002 289.156 443.057 294.114 439.002L298.617 308.38L276.545 282.253L265.5 324.059L265.506 324.064Z" fill="#473C1E"/>
<path d="M215.744 347.471C226.065 339.853 241.58 337.789 250.265 337.246L252.683 314.92L215.749 315.369V347.471H215.744Z" fill="#231D0D"/>
<path d="M265.506 324.064L266.034 333.55C270.801 332.933 281.533 333.001 297.487 341.263C298.244 319.344 298.622 308.384 298.622 308.384L276.55 282.258L265.506 324.064Z" fill="#231D0D"/>
<path d="M318.541 201.598C318.541 201.598 305.184 212.357 299.879 210.108C294.568 207.854 292.768 192.465 292.768 192.465C292.768 192.465 298.474 182.508 309.133 185.275C319.792 188.041 318.541 201.603 318.541 201.603V201.598Z" fill="#E28E64"/>
<path d="M297.408 106.91C297.408 106.91 329.748 130.133 342.761 147.148C355.774 164.163 363.181 173.57 351.968 182.983C340.76 192.391 318.535 201.603 318.535 201.603C318.535 201.603 315.13 190.564 309.127 185.274L318.936 170.572C318.936 170.572 306.725 160.562 298.115 157.96C297.313 132.134 297.402 106.915 297.402 106.915L297.408 106.91Z" fill="#473C1E"/>
<path d="M209.436 112.016C209.436 112.016 204.933 114.618 178.357 139.393C151.782 164.169 143.224 178.127 153.133 190.29C163.042 202.453 188.715 217.304 188.715 217.304C188.715 217.304 198.624 209.86 200.878 202.105L183.763 176.332L214.393 159.903C214.393 159.903 228.356 134.642 209.436 112.021V112.016Z" fill="#473C1E"/>
<path d="M183.763 176.326L177.307 164.659" stroke="#231D0D" stroke-width="0.908018" stroke-miterlimit="10"/>
<path d="M182.712 162.062L183.763 176.326" stroke="#231D0D" stroke-width="0.908018" stroke-miterlimit="10"/>
<path d="M219.645 107.861L209.435 112.016C209.435 112.016 216.393 199.296 212.239 225.418C208.084 251.539 200.878 326.292 200.878 326.292C200.878 326.292 240.519 333.028 271.371 326.292L276.55 290.726L282.784 324.951L308.526 321.72C308.526 321.72 305.654 146.943 297.408 106.905C234.211 106.504 219.645 107.856 219.645 107.856V107.861Z" fill="#473C1E"/>
<path d="M235.261 98.1043L233.26 94.4986L212.239 106.91C212.239 106.91 236.861 147.021 272.596 159.897C293.718 130.534 298.12 103.51 298.12 103.51L279.902 93.0996L276.497 97.1012L235.261 98.1043Z" fill="#7C6E3C"/>
<path d="M267.09 89.8959L279.301 96.8011C279.301 96.8011 275.711 119.322 266.794 130.931C249.473 122.521 235.256 98.0997 235.256 98.0997L245.113 92.4933L267.085 89.8906L267.09 89.8959Z" fill="#FFF6E7"/>
<path d="M266.799 130.936C268.742 128.407 270.426 125.361 271.883 122.146L267.66 106.916L269.296 99.5091L263.389 93.1055L259.139 102.914L262.096 107.518V128.233C263.632 129.252 265.205 130.16 266.799 130.936Z" fill="#DBA61F"/>
<path d="M264.286 96.901C264.286 96.901 269.491 101.103 270.89 104.308C272.289 97.904 270.489 93.4959 267.089 89.8955C262.486 90.8986 264.286 96.901 264.286 96.901Z" fill="#EDDFCA"/>
<path d="M249.272 86.6904L245.118 92.4975L259.134 106.91C259.134 106.91 261.684 100.305 264.286 96.9004C256.88 89.6943 249.272 86.6904 249.272 86.6904Z" fill="#EDDFCA"/>
<path d="M272.596 27.5381L268.7 17.3282C268.7 17.3282 247.372 14.8259 237.363 31.5397L240.367 41.7497L272.596 27.5381Z" fill="#7C6E3C"/>
<path d="M280.103 41.0523C280.103 41.0523 287.71 36.85 287.71 31.043C287.71 25.2359 283.909 27.8385 283.909 27.8385C283.909 27.8385 284.912 23.6363 281.507 22.4326C278.102 21.229 273.91 26.6348 266.799 27.6379C259.688 28.6409 249.077 29.4381 244.072 31.2436C239.068 33.0438 238.466 39.8539 239.469 43.2537C240.472 46.6588 241.67 52.4606 241.67 58.8695C241.67 65.2784 241.069 71.0802 240.271 73.6829C239.469 76.2855 242.673 79.8912 245.477 75.6837C245.677 81.6914 252.683 81.0896 252.683 81.0896L253.865 62.6705L255.285 48.6596L255.887 41.0523H280.108H280.103Z" fill="#72480A"/>
<path d="M280.504 36.249C280.504 36.249 284.305 46.6595 284.305 63.6743C284.506 77.2893 282.304 80.4885 279.3 81.0903C276.296 81.6921 265.685 81.0903 265.685 81.0903C265.685 81.0903 266.488 87.6946 267.084 89.896C266.282 95.3019 264.281 96.9014 264.281 96.9014C264.281 96.9014 253.67 93.8976 249.267 86.6915C250.867 77.6852 249.267 57.0648 249.267 57.0648C249.267 57.0648 252.271 59.6674 252.672 58.4638C253.073 57.2601 251.468 52.6567 249.869 49.4575C248.269 46.253 251.073 39.6488 258.675 37.4474C266.282 35.2459 275.489 33.8417 280.493 36.2437L280.504 36.249Z" fill="#E28E64"/>
<path d="M265.691 81.0901C265.691 81.0901 261.087 80.2401 258.083 78.8887C259.387 81.2379 263.157 83.0803 266.103 84.2154C265.86 82.4891 265.691 81.0901 265.691 81.0901Z" fill="#B07F00"/>
<path d="M250.983 59.9471C252.007 63.8801 250.207 67.7497 246.971 68.5944C243.734 69.4391 240.277 66.9315 239.258 62.9985C238.233 59.0655 240.034 55.1959 243.27 54.3512C246.506 53.5065 249.964 56.0141 250.983 59.9471Z" fill="#E28E64"/>
<path d="M249.331 64.4182C248.306 60.4852 244.854 57.9829 241.618 58.8223C240.572 59.0915 239.68 59.6828 238.983 60.4852C238.957 61.2982 239.036 62.1429 239.258 62.9876C240.282 66.9205 243.735 69.4229 246.971 68.5835C248.016 68.3143 248.908 67.723 249.605 66.9206C249.631 66.1076 249.552 65.2629 249.331 64.4182Z" fill="#D6784A"/>
<path d="M266.102 44.3526C266.102 44.3526 258.986 45.6513 256.484 47.7577C253.981 49.8588 254.282 43.8563 256.784 42.1512C259.287 40.4513 265.015 38.7461 266.102 44.3526Z" fill="#72480A"/>
<path d="M281.597 40.0018C279.126 39.7379 278.187 41.8548 278.102 44.0563C280.124 44.1882 281.797 44.8217 282.727 45.2546C282.347 43.1535 281.951 41.3956 281.602 40.0018H281.597Z" fill="#72480A"/>
<path d="M270.394 51.6796C270.394 51.6796 262.687 49.7579 260.084 55.2588C265.289 56.3622 270.394 55.8607 270.394 55.8607V51.6796Z" fill="#EDDFCA"/>
<path d="M284.014 55.6499C283.888 53.9077 283.729 52.2712 283.544 50.7402C280.91 52.002 279.902 55.9772 279.902 55.9772L284.014 55.6499Z" fill="#514005"/>
<path d="M280.066 55.4492C280.066 55.4492 279.823 59.3664 280.414 62.6711C281.005 65.9759 278.804 65.4744 277.104 64.8725" stroke="#72480A" stroke-width="0.454009" stroke-miterlimit="10"/>
<path d="M260.084 55.2644C263.188 55.919 266.261 56.0088 268.23 55.9718C268.531 55.2697 268.7 54.4936 268.7 53.6701C268.7 52.8465 268.531 52.0811 268.235 51.3895C265.754 51.2364 261.8 51.627 260.079 55.2697L260.084 55.2644Z" fill="#514005"/>
<path d="M281.502 68.7519C281.502 68.7519 273.894 69.3748 268.388 66.6719" stroke="#72480A" stroke-width="0.522638" stroke-miterlimit="10"/>
<g style="mix-blend-mode:overlay" opacity="0.26">
<path d="M283.909 27.8385C283.909 27.8385 284.912 23.6363 281.507 22.4326C278.102 21.229 273.91 26.6348 266.799 27.6379C261.889 28.3295 255.322 28.926 250.075 29.8182C256.378 31.2964 262.988 31.6395 270.896 29.6387C278.804 27.6379 281.507 27.6379 281.961 31.6395C285.076 30.5256 286.063 33.2655 286.369 35.298C287.166 34.0257 287.71 32.5898 287.71 31.043C287.71 25.2359 283.909 27.8385 283.909 27.8385Z" fill="#FFF6E7"/>
</g>
<path d="M260.084 55.2638C260.084 55.2638 262.185 49.7998 270.394 51.6845L272.596 52.0646" stroke="#493605" stroke-width="0.454009" stroke-miterlimit="10"/>
<path d="M280.066 55.4485C280.066 55.4485 281.808 50.1587 285.509 50.4596" stroke="#493605" stroke-width="0.454009" stroke-miterlimit="10"/>
<path d="M219.646 34.9921V30.5418L256.732 0.212891L257.334 5.37065L219.646 34.9921Z" fill="#B1944A"/>
<path d="M298.622 21.5302V16.8951L256.732 0.212891L257.334 5.37065L298.622 21.5302Z" fill="#B1944A"/>
<path d="M223.853 34.4434C223.853 34.4434 219.941 40.7309 223.119 51.6799C224.856 57.6612 222.956 66.6727 222.956 66.6727" stroke="#152F3A" stroke-width="0.522638" stroke-miterlimit="10"/>
<path d="M298.12 103.511L294.061 101.193C289.806 113.462 280.182 139.578 270.896 153.357C239.817 139.362 222.227 113.467 216.731 104.261L212.239 106.911C212.239 106.911 236.861 147.022 272.596 159.898C293.718 130.535 298.12 103.511 298.12 103.511Z" fill="#FFF6E7"/>
<path d="M199.231 202.4C199.231 202.4 210.244 203.203 212.244 205.605C214.245 208.007 212.244 210.008 212.244 210.008C212.244 210.008 214.847 213.212 217.048 215.815C219.25 218.417 215.845 219.616 215.048 221.221C214.245 222.82 214.446 223.623 213.649 226.025C212.846 228.427 209.045 229.229 209.045 229.229C209.045 229.229 193.63 223.823 189.428 214.015C190.631 204.005 199.236 202.406 199.236 202.406L199.231 202.4Z" fill="#E28E64"/>
<path d="M318.936 170.572L326.945 159.897" stroke="#231D0D" stroke-width="0.908018" stroke-miterlimit="10"/>
<path d="M321.739 155.759L318.936 170.572" stroke="#231D0D" stroke-width="0.908018" stroke-miterlimit="10"/>
<path d="M344.92 170.715C344.92 175.947 347.681 180.534 351.831 183.1C351.878 183.063 351.926 183.021 351.973 182.984C360.362 175.941 358.324 168.899 351.313 158.668C347.46 161.286 344.926 165.705 344.926 170.715H344.92Z" fill="#231D0D"/>
<path d="M166.601 177.477C166.601 170.836 162.8 165.024 157.103 161.809C148.06 173.713 146.693 182.382 153.139 190.284C154.031 191.383 155.055 192.502 156.174 193.631C162.377 190.543 166.601 184.467 166.601 177.477Z" fill="#231D0D"/>
<path opacity="0.4" d="M226.556 149.318C226.556 149.318 262.391 213.259 287.71 231.272C313.034 249.29 290.962 205.224 290.962 205.224C290.962 205.224 295.465 226.769 288.708 223.163C281.95 219.557 234.66 168.486 226.551 149.312L226.556 149.318Z" fill="#231D0D"/>
<path d="M212.239 161.049C212.239 161.049 222.95 143.194 209.436 112.016" stroke="#231D0D" stroke-width="0.908018" stroke-miterlimit="10"/>
<path d="M302.787 159.866C302.787 159.866 299.804 116.318 297.408 106.91" stroke="#231D0D" stroke-width="0.908018" stroke-miterlimit="10"/>
<g style="mix-blend-mode:overlay" opacity="0.2">
<path d="M280.504 36.248C275.499 33.846 266.292 35.245 258.685 37.4517C257.059 37.9215 255.66 38.592 254.467 39.3891C253.717 46.78 252.45 73.2445 271.535 81.3216C274.523 81.3902 277.827 81.385 279.3 81.0946C282.304 80.4928 284.506 77.2936 284.305 63.6786C284.305 46.6638 280.504 36.2533 280.504 36.2533V36.248Z" fill="#FFF6E7"/>
</g>
<path d="M256.732 0.212891L298.622 16.8951" stroke="#D7A700" stroke-width="0.454009" stroke-miterlimit="10"/>
<path d="M227.295 71.1815C226.968 69.6716 226.371 68.2726 225.252 67.2749C221.778 64.1707 218.31 67.8978 218.188 71.3134C220.971 70.6007 224.603 70.0834 227.295 71.1815Z" fill="#473C1E"/>
<path d="M268.89 101.347L267.654 106.911L271.878 122.141" stroke="#72480A" stroke-width="0.522638" stroke-miterlimit="10"/>
<path d="M216.731 104.26C216.731 104.26 235.261 136.737 270.896 153.356" stroke="#473C1E" stroke-width="0.522638" stroke-miterlimit="10"/>
<path d="M135.87 230.574H130.333V278.382H135.87V230.574Z" fill="#E5B14A"/>
<path d="M178.294 230.574H172.756V278.382H178.294V230.574Z" fill="#E5B14A"/>
<path d="M188.599 278.383H120.033C109.875 278.383 101.64 286.617 101.64 296.775V411.988C101.64 422.146 109.875 430.381 120.033 430.381H188.599C198.757 430.381 206.991 422.146 206.991 411.988V296.775C206.991 286.617 198.757 278.383 188.599 278.383Z" fill="#D19500"/>
<path d="M183.325 230.575H125.307C123.063 230.575 121.226 228.738 121.226 226.494C121.226 224.25 123.063 222.413 125.307 222.413H183.325C185.569 222.413 187.406 224.25 187.406 226.494C187.406 228.738 185.569 230.575 183.325 230.575Z" fill="#E5B14A"/>
<g style="mix-blend-mode:multiply">
<path d="M135.87 230.574H130.333V238.736H135.87V230.574Z" fill="#BE9400"/>
</g>
<g style="mix-blend-mode:multiply">
<path d="M178.294 230.574H172.756V238.736H178.294V230.574Z" fill="#BE9400"/>
</g>
<path d="M101.783 304.045C101.783 304.045 100.326 282.184 121.052 282.184H190.468C190.468 282.184 206.849 281.878 206.849 304.045" stroke="#9A6E01" stroke-width="0.881622" stroke-miterlimit="10"/>
<path d="M122.873 433.791H119.23V452.015H122.873V433.791Z" fill="#FFE394"/>
<path d="M121.052 461.011C125.76 461.011 129.578 457.194 129.578 452.485C129.578 447.776 125.76 443.959 121.052 443.959C116.343 443.959 112.526 447.776 112.526 452.485C112.526 457.194 116.343 461.011 121.052 461.011Z" fill="#614000"/>
<path d="M121.052 457.126C123.614 457.126 125.692 455.048 125.692 452.485C125.692 449.922 123.614 447.845 121.052 447.845C118.489 447.845 116.411 449.922 116.411 452.485C116.411 455.048 118.489 457.126 121.052 457.126Z" fill="white"/>
<path d="M188.789 433.791H185.146V452.015H188.789V433.791Z" fill="#FFE394"/>
<path d="M186.967 461.011C191.676 461.011 195.493 457.194 195.493 452.485C195.493 447.776 191.676 443.959 186.967 443.959C182.259 443.959 178.441 447.776 178.441 452.485C178.441 457.194 182.259 461.011 186.967 461.011Z" fill="#E5B14A"/>
<path d="M186.968 457.126C189.53 457.126 191.608 455.048 191.608 452.485C191.608 449.922 189.53 447.845 186.968 447.845C184.405 447.845 182.327 449.922 182.327 452.485C182.327 455.048 184.405 457.126 186.968 457.126Z" fill="white"/>
<path d="M188.599 287.917H120.033C109.875 287.917 101.64 296.152 101.64 306.31V421.522C101.64 431.68 109.875 439.915 120.033 439.915H188.599C198.757 439.915 206.991 431.68 206.991 421.522V306.31C206.991 296.152 198.757 287.917 188.599 287.917Z" fill="#E5B14A"/>
<path d="M188.598 439.915C198.756 439.915 206.991 431.68 206.991 421.523V410.647C206.991 421.549 198.154 430.386 187.252 430.386H177.929V439.92H188.593L188.598 439.915Z" fill="#FFE394"/>
<path d="M120.033 439.915C109.876 439.915 101.64 431.68 101.64 421.523V410.647C101.64 421.549 110.477 430.386 121.379 430.386H130.702V439.92H120.038L120.033 439.915Z" fill="#FFE394"/>
<path d="M118.164 419.295C116.237 419.295 114.664 417.721 114.664 415.794V328.825C114.664 326.898 116.237 325.325 118.164 325.325C120.091 325.325 121.664 326.898 121.664 328.825V415.794C121.664 417.721 120.091 419.295 118.164 419.295Z" fill="#D19500"/>
<path d="M116.416 415.8V328.831C116.416 327.21 117.535 325.848 119.04 325.458C118.76 325.384 118.47 325.331 118.164 325.331C116.237 325.331 114.664 326.904 114.664 328.831V415.8C114.664 417.727 116.237 419.3 118.164 419.3C118.47 419.3 118.76 419.248 119.04 419.174C117.541 418.783 116.416 417.421 116.416 415.8Z" fill="#FFE394"/>
<path d="M136.24 419.295C134.313 419.295 132.74 417.721 132.74 415.794V328.825C132.74 326.898 134.313 325.325 136.24 325.325C138.167 325.325 139.74 326.898 139.74 328.825V415.794C139.74 417.721 138.167 419.295 136.24 419.295Z" fill="#D19500"/>
<path d="M154.316 419.295C152.389 419.295 150.815 417.721 150.815 415.794V328.825C150.815 326.898 152.389 325.325 154.316 325.325C156.237 325.325 157.816 326.898 157.816 328.825V415.794C157.816 417.721 156.242 419.295 154.316 419.295Z" fill="#D19500"/>
<path d="M172.392 419.295C170.47 419.295 168.892 417.721 168.892 415.794V328.825C168.892 326.898 170.465 325.325 172.392 325.325C174.313 325.325 175.892 326.898 175.892 328.825V415.794C175.892 417.721 174.319 419.295 172.392 419.295Z" fill="#D19500"/>
<path d="M190.467 419.295C188.546 419.295 186.967 417.721 186.967 415.794V328.825C186.967 326.898 188.54 325.325 190.467 325.325C192.394 325.325 193.967 326.898 193.967 328.825V415.794C193.967 417.721 192.394 419.295 190.467 419.295Z" fill="#D19500"/>
<path d="M184.64 297.346H123.998C118.866 297.346 114.669 301.543 114.669 306.674C114.669 311.805 118.866 316.002 123.998 316.002H184.64C189.771 316.002 193.968 311.805 193.968 306.674C193.968 301.543 189.771 297.346 184.64 297.346Z" fill="#D19500"/>
<path d="M186.461 314.181H125.819C120.688 314.181 116.491 309.984 116.491 304.853C116.491 302.751 117.203 300.809 118.391 299.246C116.137 300.951 114.669 303.649 114.669 306.679C114.669 311.811 118.866 316.007 123.998 316.007H184.64C187.67 316.007 190.362 314.54 192.073 312.286C190.51 313.473 188.567 314.186 186.466 314.186L186.461 314.181Z" fill="#FFE394"/>
<path d="M134.492 415.8V328.831C134.492 327.21 135.612 325.848 137.116 325.458C136.836 325.384 136.546 325.331 136.24 325.331C134.313 325.331 132.74 326.904 132.74 328.831V415.8C132.74 417.727 134.313 419.3 136.24 419.3C136.546 419.3 136.836 419.248 137.116 419.174C135.617 418.783 134.492 417.421 134.492 415.8Z" fill="#FFE394"/>
<path d="M152.568 415.8V328.831C152.568 327.21 153.687 325.848 155.192 325.458C154.912 325.384 154.622 325.331 154.316 325.331C152.389 325.331 150.815 326.904 150.815 328.831V415.8C150.815 417.727 152.389 419.3 154.316 419.3C154.622 419.3 154.907 419.248 155.192 419.174C153.693 418.783 152.568 417.421 152.568 415.8Z" fill="#FFE394"/>
<path d="M170.644 415.8V328.831C170.644 327.21 171.763 325.848 173.268 325.458C172.988 325.384 172.698 325.331 172.392 325.331C170.47 325.331 168.892 326.904 168.892 328.831V415.8C168.892 417.727 170.465 419.3 172.392 419.3C172.698 419.3 172.988 419.248 173.268 419.174C171.769 418.783 170.644 417.421 170.644 415.8Z" fill="#FFE394"/>
<path d="M188.72 415.8V328.831C188.72 327.21 189.839 325.848 191.344 325.458C191.064 325.384 190.774 325.331 190.467 325.331C188.546 325.331 186.967 326.904 186.967 328.831V415.8C186.967 417.727 188.54 419.3 190.467 419.3C190.774 419.3 191.064 419.248 191.344 419.174C189.844 418.783 188.72 417.421 188.72 415.8Z" fill="#FFE394"/>
<path d="M260.828 445.373H228.298V426.811H260.828C265.949 426.811 270.109 430.971 270.109 436.092C270.109 441.213 265.949 445.373 260.828 445.373Z" fill="#AA7A00"/>
<path d="M260.828 445.373H228.298V426.811H260.828C265.949 426.811 270.109 430.971 270.109 436.092C270.109 441.213 265.949 445.373 260.828 445.373Z" fill="#FFE394"/>
<path d="M228.857 443.853H188.118V429.118H228.857C232.716 429.118 235.847 432.249 235.847 436.108V436.858C235.847 440.717 232.716 443.847 228.857 443.847V443.853Z" fill="#F9F3E9"/>
<path d="M228.857 429.113C232.717 429.113 235.842 432.233 235.847 436.092C235.177 432.935 232.379 430.57 229.021 430.57H188.113V429.119H228.852L228.857 429.113Z" fill="#D6C7B4"/>
<path d="M257.867 436.092C257.867 430.966 253.712 426.812 248.586 426.812H254.72C259.846 426.812 264.001 430.966 264.001 436.092C264.001 441.218 259.846 445.373 254.72 445.373H248.586C253.712 445.373 257.867 441.218 257.867 436.092Z" fill="#D19500"/>
<path d="M188.118 432.603H233.947" stroke="#D3CABE" stroke-width="0.327309" stroke-miterlimit="10"/>
<path d="M188.118 435.406H235.003" stroke="#D3CABE" stroke-width="0.327309" stroke-miterlimit="10"/>
<path d="M188.118 438.209H235.003" stroke="#D3CABE" stroke-width="0.327309" stroke-miterlimit="10"/>
<path d="M188.118 441.007H233.947" stroke="#D3CABE" stroke-width="0.327309" stroke-miterlimit="10"/>
<path d="M227.569 443.071C231.423 443.071 234.548 439.946 234.548 436.092C234.548 432.239 231.423 429.113 227.569 429.113H186.592V426.812H227.759C232.885 426.812 237.04 430.966 237.04 436.092C237.04 441.218 232.885 445.373 227.759 445.373H186.592V443.071H227.569Z" fill="#D19500"/>
<g style="mix-blend-mode:overlay" opacity="0.2">
<path d="M242.478 426.812H260.828C265.954 426.812 270.109 430.966 270.109 436.092C270.109 441.218 265.954 445.373 260.828 445.373C260.828 428.131 242.478 426.812 242.478 426.812Z" fill="#FEFEFE"/>
</g>
<g style="mix-blend-mode:multiply" opacity="0.16">
<path d="M186.592 426.812V429.113H188.118V430.57V443.071H186.592V445.373H192.769L223.409 426.812H186.592Z" fill="#1B2942"/>
</g>
<path d="M179.772 445.252H218.943V467.599H179.772C173.606 467.599 168.601 462.594 168.601 456.428C168.601 450.262 173.606 445.257 179.772 445.257V445.252Z" fill="#FFE394"/>
<path d="M179.772 445.252H218.943V467.599H179.772C173.606 467.599 168.601 462.594 168.601 456.428C168.601 450.262 173.606 445.257 179.772 445.257V445.252Z" fill="#D19500"/>
<path d="M218.267 447.089H267.322V464.832H218.267C213.622 464.832 209.847 461.058 209.847 456.412V455.509C209.847 450.863 213.622 447.089 218.267 447.089Z" fill="#F9F3E9"/>
<path d="M218.267 464.827C213.622 464.827 209.858 461.068 209.847 456.428C210.655 460.229 214.028 463.079 218.067 463.079H267.322V464.832H218.267V464.827Z" fill="#D6C7B4"/>
<g style="mix-blend-mode:multiply" opacity="0.16">
<path d="M183.341 456.423C183.341 462.594 188.345 467.593 194.511 467.593H187.126C180.954 467.593 175.955 462.589 175.955 456.423C175.955 450.251 180.96 445.252 187.126 445.252H194.511C188.34 445.252 183.341 450.257 183.341 456.423Z" fill="#1B2942"/>
</g>
<path d="M267.322 460.625H212.139" stroke="#D3CABE" stroke-width="0.395938" stroke-miterlimit="10"/>
<path d="M267.322 457.252H210.872" stroke="#D3CABE" stroke-width="0.395938" stroke-miterlimit="10"/>
<path d="M267.322 453.878H210.872" stroke="#D3CABE" stroke-width="0.395938" stroke-miterlimit="10"/>
<path d="M267.322 450.505H212.139" stroke="#D3CABE" stroke-width="0.395938" stroke-miterlimit="10"/>
<path d="M219.82 448.024C215.179 448.024 211.415 451.788 211.415 456.428C211.415 461.069 215.179 464.833 219.82 464.833H269.159V467.604H219.587C213.416 467.604 208.417 462.6 208.417 456.433C208.417 450.262 213.421 445.263 219.587 445.263H269.159V448.034H219.82V448.024Z" fill="#996D00"/>
<g style="mix-blend-mode:multiply" opacity="0.16">
<path d="M201.865 467.598H179.772C173.6 467.598 168.601 462.594 168.601 456.428C168.601 450.256 173.606 445.257 179.772 445.257C179.772 466.015 201.865 467.604 201.865 467.604V467.598Z" fill="#1B2942"/>
</g>
<g style="mix-blend-mode:multiply" opacity="0.16">
<path d="M269.153 467.599V464.827H267.322V463.074V448.024H269.153V445.252H261.72L224.824 467.599H269.153Z" fill="#1B2942"/>
</g>
<path d="M198.165 426.791H250.307V425.498H242.8V418.001H250.307V416.708H198.165C195.409 416.708 193.176 418.941 193.176 421.697V421.797C193.176 424.553 195.409 426.786 198.165 426.786V426.791Z" fill="#C89C00"/>
<path d="M211.278 426.791H263.42V425.498H255.913V418.001H263.42V416.708H211.278C208.522 416.708 206.289 418.941 206.289 421.697V421.797C206.289 424.553 208.522 426.786 211.278 426.786V426.791Z" fill="#B48500"/>
<path d="M211.515 418.001H235.599V425.497H211.515C209.509 425.497 207.878 423.834 207.878 421.786V421.712C207.878 419.664 209.504 418.001 211.515 418.001Z" fill="#F9F3E9"/>
<path d="M234.311 421.749C234.311 424.5 235.604 425.497 235.604 425.497H262.296C262.296 425.497 260.263 421.855 262.296 418.001H235.604C235.604 418.001 234.311 418.999 234.311 421.749Z" fill="#EAE1D3"/>
<path d="M221.403 422.282H209.119V422.52H221.403V422.282Z" fill="url(#paint0_linear_76_1779)"/>
<path d="M261.715 423.982H208.585" stroke="#D3CABE" stroke-width="0.184771" stroke-miterlimit="10"/>
<path d="M261.715 422.42H207.936" stroke="#D3CABE" stroke-width="0.184771" stroke-miterlimit="10"/>
<path d="M261.715 420.852H207.979" stroke="#D3CABE" stroke-width="0.184771" stroke-miterlimit="10"/>
<path d="M261.715 419.289H208.765" stroke="#D3CABE" stroke-width="0.184771" stroke-miterlimit="10"/>
<path d="M216.652 422.446H213.69V428.586H216.652V422.446Z" fill="#FDB03E"/>
<path d="M389.402 345.666C387.264 345.666 385.532 343.935 385.532 341.797V334.876C385.532 329.148 380.871 324.486 375.143 324.486H335.021C329.293 324.486 324.632 329.148 324.632 334.876V341.797C324.632 343.935 322.9 345.666 320.762 345.666C318.624 345.666 316.893 343.935 316.893 341.797V334.876C316.893 324.882 325.022 316.747 335.021 316.747H375.143C385.136 316.747 393.272 324.877 393.272 334.876V341.797C393.272 343.935 391.54 345.666 389.402 345.666Z" fill="#E5B14A"/>
<g style="mix-blend-mode:multiply">
<path d="M385.533 334.876V341.797C385.533 343.935 387.264 345.667 389.402 345.667C391.54 345.667 393.272 343.935 393.272 341.797V334.876C393.272 333.62 393.14 332.395 392.897 331.207H384.852C385.284 332.347 385.533 333.583 385.533 334.876Z" fill="#BE9400"/>
<path d="M320.762 345.667C322.9 345.667 324.632 343.935 324.632 341.797V334.876C324.632 333.583 324.88 332.347 325.313 331.207H317.267C317.025 332.395 316.893 333.62 316.893 334.876V341.797C316.893 343.935 318.624 345.667 320.762 345.667Z" fill="#BE9400"/>
</g>
<path d="M437.036 337.7H273.229C265.692 337.7 259.582 343.81 259.582 351.347V455.003C259.582 462.54 265.692 468.65 273.229 468.65H437.036C444.573 468.65 450.683 462.54 450.683 455.003V351.347C450.683 343.81 444.573 337.7 437.036 337.7Z" fill="#E5B14A"/>
<path d="M303.182 337.701H291.985V468.651H303.182V337.701Z" fill="#DBA61F"/>
<path d="M303.182 387.601H291.985V403.179H303.182V387.601Z" stroke="#FFE394" stroke-width="2.21197" stroke-miterlimit="10"/>
<path d="M297.586 387.601V398.555" stroke="#FFE394" stroke-width="2.21197" stroke-miterlimit="10"/>
<path d="M407.082 468.651H418.279V337.701H407.082V468.651Z" fill="#DBA61F"/>
<path d="M407.082 403.179H418.279V387.6H407.082V403.179Z" stroke="#FFE394" stroke-width="2.21197" stroke-miterlimit="10"/>
<path d="M412.683 387.6V398.554" stroke="#FFE394" stroke-width="2.21197" stroke-miterlimit="10"/>
<path d="M286.633 468.65H308.536V470.35C308.536 471.828 307.338 473.027 305.86 473.027H289.309C287.831 473.027 286.633 471.828 286.633 470.35V468.65Z" fill="#104551"/>
<path d="M401.729 468.65H423.632V469.912C423.632 471.633 422.233 473.027 420.518 473.027H404.844C403.123 473.027 401.729 471.628 401.729 469.912V468.65Z" fill="#104551"/>
<path d="M355.062 377.249C356.111 366.741 348.443 357.372 337.935 356.323C327.427 355.275 318.058 362.943 317.009 373.451C315.96 383.959 323.628 393.328 334.137 394.377C344.645 395.426 354.013 387.757 355.062 377.249Z" fill="#D19500"/>
<path d="M336.014 387.847C342.933 387.847 348.541 382.238 348.541 375.319C348.541 368.401 342.933 362.792 336.014 362.792C329.095 362.792 323.486 368.401 323.486 375.319C323.486 382.238 329.095 387.847 336.014 387.847Z" fill="#FFE394"/>
<path d="M386.5 413.204L340.443 421.118L343.287 437.669L389.344 429.755L386.5 413.204Z" fill="#FFE394"/>
<g style="mix-blend-mode:multiply">
<path d="M437.036 454.533H273.234C265.695 454.533 259.587 448.42 259.587 440.887V455.003C259.587 462.542 265.695 468.65 273.234 468.65H437.036C444.575 468.65 450.683 462.542 450.683 455.003V440.887C450.683 448.425 444.575 454.533 437.036 454.533Z" fill="#996D00"/>
</g>
<g style="mix-blend-mode:overlay" opacity="0.37">
<path d="M437.036 337.7H273.234C265.695 337.7 259.587 343.808 259.587 351.347V362.544C259.587 355.005 265.695 348.897 273.234 348.897H437.036C444.575 348.897 450.683 355.005 450.683 362.544V351.347C450.683 343.808 444.575 337.7 437.036 337.7Z" fill="#FFE394"/>
</g>
<path d="M426.837 85.988L421.854 87.2392L420.508 85.8719C420.027 85.3862 419.246 85.3809 418.755 85.8613C418.269 86.3417 418.264 87.1231 418.744 87.614L419.066 87.9413L416.992 88.464L415.762 87.2181C415.281 86.7324 414.5 86.7271 414.009 87.2075C413.523 87.6879 413.518 88.4692 413.998 88.9602L414.204 89.1661L408.73 90.544C403.915 85.5446 399.38 81.8122 397.876 83.5754C396.091 85.0536 399.766 89.6359 404.702 94.5192L403.255 99.9778L403.049 99.772C402.569 99.2863 401.788 99.281 401.297 99.7614C400.811 100.242 400.806 101.023 401.286 101.514L402.516 102.76L401.967 104.829L401.645 104.502C401.165 104.016 400.383 104.011 399.892 104.492C399.407 104.972 399.401 105.753 399.882 106.244L401.228 107.612L399.908 112.579C399.818 112.922 399.914 113.281 400.162 113.535L401.355 114.744C401.576 114.965 401.946 114.923 402.11 114.659L411.01 100.405C414.331 103.351 417.477 105.959 419.394 107.538L419.383 116.053L420.698 117.389L423.416 110.314C423.992 110.457 424.245 110.314 424.245 110.314C424.245 110.314 424.393 110.061 424.256 109.486L431.367 106.862L430.052 105.526L421.537 105.426C419.985 103.488 417.419 100.31 414.516 96.9476L428.886 88.2317C429.155 88.068 429.197 87.6985 428.981 87.4768L427.788 86.2678C427.539 86.0144 427.18 85.9141 426.837 86.0039V85.988Z" fill="#C8A13E"/>
<path d="M23.862 355.464L27.3674 355.105L28.1487 356.166C28.4285 356.546 28.9564 356.625 29.3365 356.345C29.7166 356.066 29.7958 355.538 29.516 355.158L29.3313 354.904L30.7883 354.756L31.501 355.722C31.7808 356.103 32.3087 356.182 32.6888 355.902C33.0689 355.622 33.1481 355.094 32.8683 354.714L32.7522 354.55L36.606 354.154C39.3828 358.024 42.091 361.007 43.2894 359.956C44.6461 359.127 42.6031 355.654 39.7365 351.853L41.2569 348.289L41.3731 348.453C41.6528 348.833 42.1808 348.912 42.5609 348.632C42.941 348.353 43.0202 347.825 42.7404 347.445L42.0277 346.479L42.6031 345.127L42.7879 345.38C43.0677 345.761 43.5956 345.84 43.9757 345.56C44.3558 345.28 44.435 344.752 44.1552 344.372L43.3739 343.311L44.757 340.07C44.852 339.848 44.8204 339.589 44.6778 339.394L43.9862 338.459C43.8595 338.285 43.6061 338.28 43.4636 338.444L36.0147 347.244C34.0508 344.916 32.1714 342.836 31.0259 341.574L31.8758 335.794L31.1156 334.759L28.5711 339.294C28.1962 339.141 28.0062 339.214 28.0062 339.214C28.0062 339.214 27.8795 339.373 27.9164 339.779L22.8326 340.862L23.5928 341.896L29.3629 342.804C30.2234 344.272 31.6541 346.684 33.2959 349.25L22.6795 353.748C22.4842 353.832 22.4155 354.075 22.5422 354.25L23.2338 355.184C23.3763 355.379 23.6139 355.485 23.8515 355.458L23.862 355.464Z" fill="#C8A13E"/>
<defs>
<linearGradient id="paint0_linear_76_1779" x1="221.403" y1="422.398" x2="209.119" y2="422.398" gradientUnits="userSpaceOnUse">
<stop stop-color="white"/>
<stop offset="0.51" stop-color="#666666"/>
<stop offset="1" stop-color="white"/>
</linearGradient>
</defs>
</svg>
