<svg width="671" height="405" viewBox="0 0 671 405" fill="none" xmlns="http://www.w3.org/2000/svg">
<g clip-path="url(#clip0_115_263)">
<path d="M640.979 275.689C673.467 333.825 626.456 447.89 328.308 368.618C178.822 328.871 67.1608 418.409 44.1521 355.91C-9.44569 210.335 209.437 41.9376 331.153 159.504C442.408 266.967 581.85 169.878 640.979 275.689Z" stroke="#E4E4E4" stroke-width="1.03736" stroke-miterlimit="10"/>
<path d="M639.268 403.658H31.354C50.3792 263.095 179.199 154.37 335.311 154.37C491.423 154.37 620.243 263.095 639.268 403.658Z" fill="#FFE394" fill-opacity="0.12"/>
<path d="M560.026 35.8823H331.369C320.724 35.8823 312.095 44.5117 312.095 55.1565V383.149C312.095 393.794 320.724 402.423 331.369 402.423H560.026C570.671 402.423 579.301 393.794 579.301 383.149V55.1565C579.301 44.5117 570.671 35.8823 560.026 35.8823Z" fill="#A8831C"/>
<path d="M556.175 50.6543H336.245V370.13H556.175V50.6543Z" fill="#F6F5F5"/>
<path d="M556.173 50.6567C556.241 175.236 560.263 325.482 546.269 358.748C484.631 364.754 412.462 366.681 336.24 367.039L365.213 51.6189L556.173 50.6567Z" fill="#E4E4E4"/>
<path d="M536.419 348.68C440.349 364.056 376.142 364.866 324.063 360.999C330.812 289.162 333.516 169.819 336.24 50.6699L452.006 50.9267L556.78 57.8433C558.307 181.51 558.473 295.741 536.419 348.68Z" fill="white"/>
<path d="M502.471 82.8574L386.775 80.1309L386.36 97.7533L502.056 100.48L502.471 82.8574Z" fill="#926B00"/>
<path d="M524.776 125.983L420.418 123.523L420.228 131.589L524.586 134.049L524.776 125.983Z" fill="#926B00"/>
<path d="M490.936 142.782L420.003 141.111L419.813 149.177L490.746 150.848L490.936 142.782Z" fill="#FFE394"/>
<path d="M387.534 123.222L362.829 122.64L362.246 147.346L386.952 147.928L387.534 123.222Z" fill="white" stroke="#926B00" stroke-width="1.55604" stroke-miterlimit="10"/>
<path d="M366.86 129.128C367.623 132.048 369.031 144.279 375.156 140.861C376.57 140.072 377.765 137.987 378.821 136.786L384.519 130.316L395.917 117.377C396.889 116.273 392.592 113.5 391.37 114.888C387.994 118.721 384.617 122.556 381.24 126.389C379.552 128.306 377.864 130.222 376.176 132.139C375.003 133.469 372.293 137.759 370.556 138.14C371.502 138.446 372.446 138.75 373.393 139.056C374.062 139.603 372.82 135.718 372.791 135.612C372.319 133.807 371.85 132.004 371.378 130.199C370.989 128.708 366.284 126.916 366.863 129.125L366.86 129.128Z" fill="#866507"/>
<path d="M505.295 170.463L419.358 168.438L419.168 176.503L505.105 178.529L505.295 170.463Z" fill="#926B00"/>
<path d="M523.301 188.483L418.943 186.024L418.753 194.09L523.111 196.549L523.301 188.483Z" fill="#FFE394"/>
<path d="M386.476 168.139L361.771 167.557L361.188 192.262L385.894 192.845L386.476 168.139Z" fill="white" stroke="#926B00" stroke-width="1.55604" stroke-miterlimit="10"/>
<path d="M365.786 174.74C366.549 177.661 367.957 189.891 374.083 186.473C375.496 185.685 376.692 183.599 377.747 182.399C379.645 180.241 381.546 178.086 383.445 175.928L394.843 162.99C395.815 161.885 391.518 159.113 390.297 160.5C386.92 164.333 383.543 168.169 380.167 172.002C378.478 173.918 376.79 175.835 375.102 177.751C373.93 179.082 371.22 183.371 369.482 183.752C370.429 184.058 371.373 184.362 372.319 184.668C372.988 185.215 371.746 181.33 371.717 181.224C371.245 179.419 370.776 177.616 370.304 175.811C369.915 174.32 365.211 172.528 365.789 174.738L365.786 174.74Z" fill="#866507"/>
<path d="M522.655 215.813L418.297 213.354L418.107 221.42L522.465 223.879L522.655 215.813Z" fill="#926B00"/>
<path d="M464.557 232.041L417.886 230.941L417.696 239.007L464.367 240.107L464.557 232.041Z" fill="#FFE394"/>
<path d="M385.416 213.053L360.71 212.471L360.128 237.176L384.833 237.759L385.416 213.053Z" fill="white" stroke="#926B00" stroke-width="1.55604" stroke-miterlimit="10"/>
<path d="M365.063 219.975C365.825 222.895 367.233 235.125 373.359 231.707C374.772 230.919 375.968 228.834 377.023 227.633C378.922 225.475 380.823 223.32 382.721 221.163C386.52 216.85 390.32 212.537 394.119 208.224C395.092 207.119 390.794 204.347 389.573 205.734C386.196 209.567 382.82 213.403 379.443 217.236C377.755 219.153 376.066 221.069 374.378 222.986C373.206 224.316 370.496 228.606 368.758 228.987C369.705 229.293 370.649 229.596 371.595 229.902C372.265 230.45 371.022 226.565 370.994 226.458C370.522 224.653 370.052 222.851 369.58 221.046C369.191 219.555 364.487 217.763 365.065 219.972L365.063 219.975Z" fill="#866507"/>
<path d="M521.6 260.728L417.242 258.269L417.052 266.334L521.41 268.794L521.6 260.728Z" fill="#926B00"/>
<path d="M499.266 277.798L416.826 275.855L416.636 283.921L499.076 285.864L499.266 277.798Z" fill="#FFE394"/>
<path d="M384.358 257.967L359.652 257.385L359.07 282.09L383.776 282.673L384.358 257.967Z" fill="white" stroke="#926B00" stroke-width="1.55604" stroke-miterlimit="10"/>
<path d="M364.012 264.597C364.775 267.517 366.183 279.747 372.309 276.329C373.722 275.541 374.918 273.456 375.973 272.255L381.671 265.785C385.47 261.472 389.27 257.159 393.069 252.846C394.041 251.741 389.744 248.969 388.523 250.356C385.146 254.19 381.769 258.025 378.393 261.858C376.705 263.775 375.016 265.691 373.328 267.608C372.156 268.938 369.446 273.228 367.708 273.609C368.655 273.915 369.599 274.218 370.545 274.524C371.214 275.072 369.972 271.187 369.944 271.08C369.472 269.275 369.002 267.473 368.53 265.668C368.141 264.177 363.437 262.385 364.015 264.594L364.012 264.597Z" fill="#866507"/>
<path d="M457.558 303.818L416.191 302.843L416.001 310.909L457.368 311.884L457.558 303.818Z" fill="#926B00"/>
<path d="M520.145 322.876L415.787 320.42L415.598 328.485C455.972 329.432 507.381 331.325 517.871 329.715C519.463 327.904 520.322 325.682 520.145 322.876Z" fill="#FFE394"/>
<path d="M383.653 302.552L358.947 301.97L358.365 326.676L383.071 327.258L383.653 302.552Z" fill="white" stroke="#926B00" stroke-width="1.55604" stroke-miterlimit="10"/>
<path d="M362.973 308.827C363.735 311.747 365.143 323.978 371.269 320.56C372.682 319.771 373.878 317.686 374.933 316.486L380.631 310.015C384.43 305.702 388.23 301.389 392.029 297.077C393.002 295.972 388.704 293.199 387.48 294.587C384.104 298.42 380.727 302.256 377.35 306.089C375.662 308.005 373.974 309.922 372.285 311.841C371.113 313.171 368.403 317.461 366.666 317.842C367.612 318.148 368.556 318.451 369.503 318.757C370.172 319.305 368.93 315.42 368.901 315.313C368.429 313.508 367.96 311.706 367.488 309.901C367.099 308.41 362.394 306.618 362.973 308.827Z" fill="#866507"/>
<path d="M495.23 38.1022V62.7603H396.163V38.1022C396.163 34.1706 397.76 30.6125 400.333 28.0295C400.654 27.7079 400.986 27.4071 401.339 27.127C403.798 25.0834 406.962 23.8593 410.406 23.8593C412.989 23.8593 415.468 23.268 417.688 22.1995C418.653 21.7327 419.565 21.1829 420.426 20.5501C423.258 18.4546 425.427 15.4774 426.505 11.9296C427.605 8.30926 429.856 5.28016 432.771 3.17432C435.572 1.16184 438.985 0 442.605 0H448.788C452.408 0 455.821 1.16184 458.622 3.17432C461.537 5.28016 463.788 8.30926 464.888 11.9296C465.967 15.4774 468.135 18.4546 470.967 20.5501C471.828 21.1829 472.741 21.7327 473.705 22.1995C475.925 23.268 478.405 23.8593 480.988 23.8593C484.432 23.8593 487.596 25.0834 490.054 27.127C493.218 29.7307 495.23 33.6831 495.23 38.1022Z" fill="#866507"/>
<path d="M503.271 50.6543V68.9844H388.124V50.6543H396.163V62.7603H495.231V50.6543H503.271Z" fill="#E4E4E4"/>
<path d="M445.697 23.1302C450.549 23.1302 454.483 19.3915 454.483 14.7795C454.483 10.1675 450.549 6.42871 445.697 6.42871C440.844 6.42871 436.91 10.1675 436.91 14.7795C436.91 19.3915 440.844 23.1302 445.697 23.1302Z" fill="white"/>
<path d="M255.839 130.222C252.325 129.558 249.041 123.687 247.9 121.436C247.62 120.883 247.532 120.258 247.649 119.649L249.047 112.237C249.047 112.237 252.273 112.787 252.024 117.082C251.998 117.528 252.089 117.974 252.249 118.389L253.484 121.62L257.135 118.793L255.133 113.14C255.133 113.14 252.454 113.876 251.069 113.435C248.227 112.528 251.954 110.313 253.131 110.077C254.309 109.841 256.902 108.899 258.079 110.901C259.257 112.904 259.965 114.081 259.965 114.081C259.965 114.081 261.262 109.605 260.377 99.5916C260.338 99.1404 261.466 99.1508 261.783 99.4723C262.732 100.437 264.244 103.378 264.324 112.315C264.324 112.315 264.483 101.9 266.269 100.829C267.742 99.9443 268.487 105.043 267.449 113.687C267.449 113.687 269.371 106.202 270.748 106.189C273.069 106.166 270.779 126.179 264.944 132.144L255.847 130.222H255.839Z" fill="#F9B384"/>
<path d="M266.855 127.16C266.752 128.156 266.637 129.12 266.513 130.054V130.064C266.098 133.384 265.579 136.351 264.978 138.892C264.947 139.017 264.926 139.131 264.895 139.245C263.121 146.517 262.799 150.075 256.741 149.121L250.506 142.025L250.444 141.952L249.988 141.434L251.253 137.699L251.419 137.212L252.353 134.494L252.467 134.141L254.065 129.463L254.708 127.564L266.855 127.16Z" fill="#F9B384"/>
<path d="M151.029 385.53L149.442 390.488C138.56 394.062 132.214 398.16 131.807 402.937H163.272L165.796 386.331C159.424 387.887 154.315 386.803 151.029 385.53Z" fill="#4D3800"/>
<path d="M154.976 373.201L151.031 385.53C154.317 386.803 159.426 387.887 165.798 386.331L167.424 375.62L154.976 373.201Z" fill="#F9B384"/>
<path d="M208.774 384.98L209.697 372.423L194.914 373.201L194.108 384.778C200.366 386.772 205.54 385.992 208.774 384.98Z" fill="#F9B384"/>
<path d="M226.554 402.939C226.147 398.162 220.589 391.614 208.4 390.058L208.774 384.98C205.537 385.991 200.366 386.772 194.108 384.777L192.84 402.939H226.554Z" fill="#4D3800"/>
<path d="M196.792 133.446L178.96 133.57V106.599H196.253L196.263 108.249L196.346 116.796L196.471 130.521L196.792 133.446Z" fill="#F9B384"/>
<path d="M196.346 118.093C193.141 121.465 184.779 117.658 181.252 113.944L196.263 109.545L196.346 118.093Z" fill="#E28B6D"/>
<path d="M200.485 100.375C200.475 102.367 200.35 104.452 200.018 106.443C199.147 111.879 196.844 116.578 191.533 116.724C178.981 117.087 175.402 109.908 173.037 104.037C170.671 98.1548 174.51 84.0156 174.51 84.0156L190.755 82.4077L199.676 89.7211C199.676 89.7211 200.537 94.6901 200.485 100.375Z" fill="#F9B384"/>
<path d="M173.542 100.673C173.542 100.673 177.124 100.507 177.736 91.2644C184.139 93.4066 188.818 91.4538 192.526 87.1902C195.69 91.3682 204.544 92.6778 207.537 84.1222C209.697 77.9421 203.732 68.7356 195.044 74.3114C186.53 70.0089 173.615 70.3046 169.899 80.8571C169.899 80.8571 156.978 86.8142 170.659 99.929C170.933 100.191 173.542 100.676 173.542 100.676V100.673Z" fill="#102048"/>
<path d="M222.923 230.382L213.068 379.425H189.899L195.693 234.799L199.235 233.157L222.923 230.382Z" fill="#322500"/>
<path d="M162.582 209.99L146.33 379.425H171.574L195.604 238.688L222.923 230.39L224.132 200.306L163.275 198.924L162.582 209.99Z" fill="#322500"/>
<path opacity="0.6" d="M166.206 210.359C179.992 215.307 212.342 209.651 219.059 202.757L214.287 193.211L161.081 200.281L166.208 210.356L166.206 210.359Z" fill="#102048"/>
<path d="M217.82 200.46C217.374 200.646 216.917 200.843 216.45 201.02C211.295 203.115 205.423 204.951 199.168 206.165C195.433 206.902 191.543 207.4 187.581 207.586C181.605 207.887 175.464 207.493 169.385 206.113L177.114 134.058L178.058 125.272C178.058 125.272 188.172 137.72 199.323 123.975L217.82 200.46Z" fill="white"/>
<path opacity="0.3" d="M187.581 207.587C181.605 207.887 175.464 207.493 169.385 206.114L177.114 134.058L179.873 130.07C186.688 146.647 193.67 183.354 187.581 207.587Z" fill="#1F3C88"/>
<path d="M178.965 122.419C186.649 155.044 189.811 188.615 178.49 225.896C170.096 229.088 160.954 229.052 151.174 226.241L153.594 158.467L96.6245 197.628L93.1675 176.276C115.066 155.337 152.93 123.703 178.965 122.419Z" fill="#FFE394"/>
<path opacity="0.3" d="M216.45 201.02C211.295 203.115 205.423 204.952 199.168 206.165C195.734 186.476 194.977 154.131 197.767 139.536L216.45 201.02Z" fill="#1F3C88"/>
<path opacity="0.6" d="M264.978 138.892C264.947 139.017 264.926 139.131 264.895 139.245C263.121 146.517 262.799 150.075 256.741 149.121L250.507 142.025L250.444 141.952L251.253 137.699L251.419 137.212L252.353 134.494L252.467 134.141L264.978 138.892Z" fill="#E28B6D"/>
<path d="M263.899 145.5C263.899 145.5 248.598 177.918 239.521 178.696C230.722 179.45 226.554 170.915 226.554 170.915L232.778 218.292C225.465 221.715 217.488 223.385 208.224 221.746C199.998 195.034 196.888 160.495 196.276 122.03C202.936 122.445 216.126 123.013 220.849 126.05C229.321 131.496 239.781 150.946 239.781 150.946L251.97 134.348L263.899 145.5Z" fill="#FFE394"/>
<path d="M77.3657 99.8223C77.3657 99.8223 78.2916 84.3138 79.8709 85.0451C81.4503 85.7764 84.6143 99.2621 84.6143 99.2621L81.2299 104.724L77.3657 99.8223Z" fill="#6F3428"/>
<path d="M123.933 379.858L124.392 384.961C125.201 393.971 118.554 401.933 109.542 402.742L108.23 402.858C99.2201 403.668 91.2584 397.021 90.4493 388.009L89.9902 382.905L123.93 379.855L123.933 379.858Z" fill="#EE6F57"/>
<path d="M101.72 132.725L67.7793 135.772L89.9666 382.915L123.907 379.868L101.72 132.725Z" fill="#FBC343"/>
<path opacity="0.3" d="M90.3274 128.749L78.2725 129.832L97.7205 346.461L109.775 345.379L90.3274 128.749Z" stroke="#6F3428" stroke-width="2.07472" stroke-miterlimit="10"/>
<path d="M123.928 379.861L89.9957 382.91L89.1035 372.952L88.4811 366.033L86.562 344.767L120.504 341.717L122.413 362.983L123.036 369.902L123.928 379.861Z" fill="#102048"/>
<path d="M122.437 362.972L88.5044 366.024L89.1268 372.944L123.059 369.892L122.437 362.972Z" fill="#FBC343"/>
<path d="M67.7832 135.767L77.2102 97.984C77.2102 97.984 80.4649 99.4285 84.4121 96.9907L101.726 132.72L67.7832 135.77V135.767Z" fill="#EE6F57"/>
<path d="M175.42 99.1091C175.267 98.5515 172.736 97.7865 172.178 97.6309C171.315 97.3923 170.373 97.2756 169.533 97.6568C166.47 99.0417 166.88 103.427 168.467 105.733C169.367 107.04 170.682 108.043 172.212 108.482C172.767 108.64 178.037 108.705 177.806 107.857C177.806 107.854 175.425 99.1298 175.42 99.1091Z" fill="#F9B384"/>
<path d="M78.9897 187.254C78.1935 184.754 75.5742 183.354 73.0949 184.21C69.2333 185.543 65.8697 187.804 65.351 191.653C64.8764 195.156 66.6296 206.349 74.4565 207.786L73.8185 202.037C73.8185 202.037 78.6111 200.919 79.568 198.841C80.2397 197.387 80.2838 191.315 78.9897 187.257V187.254Z" fill="#F9B384"/>
<path d="M224.16 148.763C224.573 151.211 224.923 153.669 225.257 156.125C225.605 158.581 225.882 161.048 226.196 163.509L227 170.908C227.234 173.377 227.464 175.848 227.615 178.327L227.213 178.374C226.788 175.926 226.443 173.47 226.1 171.011L225.174 163.628C224.913 161.162 224.614 158.698 224.386 156.229C224.145 153.76 223.919 151.289 223.756 148.809L224.158 148.763H224.16Z" fill="#1F3C88"/>
<path d="M154.401 148.363C154.395 151.115 154.328 153.861 154.247 156.608C154.177 159.354 154.037 162.1 153.934 164.844L153.485 173.076C153.301 175.817 153.112 178.561 152.847 181.297L152.442 181.279C152.435 178.527 152.505 175.781 152.583 173.032L152.912 164.795C153.07 162.051 153.187 159.307 153.376 156.564C153.555 153.822 153.747 151.078 154.001 148.34L154.406 148.358L154.401 148.363Z" fill="#1F3C88"/>
<path d="M188.008 98.8525C188.228 99.8302 187.824 100.753 187.108 100.914C186.392 101.075 185.632 100.411 185.415 99.4334C185.194 98.4557 185.599 97.5325 186.315 97.3717C187.03 97.2109 187.79 97.8748 188.008 98.8525Z" fill="#102048"/>
<path d="M198.348 97.6442C198.307 98.6452 197.676 99.4336 196.942 99.4025C196.208 99.3714 195.648 98.5337 195.692 97.5327C195.734 96.5316 196.364 95.7432 197.098 95.7743C197.832 95.8054 198.392 96.6431 198.348 97.6442Z" fill="#102048"/>
<path d="M192.583 98.464C192.938 99.3224 192.881 100.246 193.112 100.948C193.229 101.304 193.389 101.618 193.615 101.81C193.822 101.999 194.16 102.123 194.587 102.289C195.028 102.46 195.498 102.764 195.817 103.215C196.156 103.653 196.25 104.416 195.941 104.914C195.666 105.412 195.27 105.687 194.927 105.938C194.572 106.177 194.23 106.434 193.859 106.657L193.592 106.351C193.864 106.013 194.162 105.71 194.45 105.391C194.746 105.088 195.015 104.792 195.119 104.517C195.34 104.037 194.868 103.513 194.188 103.241C193.838 103.08 193.332 102.94 192.923 102.523C192.528 102.121 192.334 101.62 192.256 101.151C192.085 100.189 192.279 99.3665 192.189 98.5678L192.58 98.4614L192.583 98.464Z" fill="#E28B6D"/>
<path d="M183.06 96.2256C183.213 95.611 183.589 95.0275 184.118 94.6073C184.639 94.1742 185.322 93.9382 185.998 93.9045C187.36 93.8215 188.708 94.5969 189.269 95.7432L188.952 95.9948C188.052 95.2868 187.059 94.9004 186.05 94.9367C185.036 94.9626 184.116 95.4839 183.428 96.3994L183.06 96.2282V96.2256Z" fill="#102048"/>
<path d="M193.766 94.9552C193.919 94.4754 194.188 94.019 194.58 93.6455C194.964 93.2617 195.498 93.0075 196.053 92.9168C197.168 92.7326 198.364 93.3006 198.805 94.2887L198.48 94.5325C197.752 94.0423 196.956 93.8348 196.206 93.9386C195.83 93.9878 195.475 94.1305 195.122 94.3354C194.777 94.5506 194.461 94.8463 194.116 95.1627L193.766 94.9578V94.9552Z" fill="#102048"/>
<path d="M188.029 108.51C189.839 111.345 192.253 111.653 194.118 108.668L188.029 108.51Z" fill="white"/>
<path opacity="0.4" d="M200.532 99.6826C200.521 101.674 200.348 104.452 200.016 106.444C198.761 106.039 197.848 104.867 197.848 103.466C197.848 101.9 199.048 99.9212 200.532 99.6826Z" fill="#FC8879"/>
<path opacity="0.4" d="M183.607 108.666C185.455 108.666 186.953 107.168 186.953 105.321C186.953 103.473 185.455 101.975 183.607 101.975C181.76 101.975 180.262 103.473 180.262 105.321C180.262 107.168 181.76 108.666 183.607 108.666Z" fill="#FC8879"/>
<path d="M173.228 102.442C172.567 101.993 171.96 101.5 171.359 101.21C171.06 101.062 170.78 100.974 170.534 100.995C170.282 101.013 169.994 101.161 169.67 101.391L169.331 101.171C169.471 100.756 169.769 100.292 170.316 100.11C170.858 99.921 171.41 100.074 171.818 100.284C172.645 100.735 173.21 101.399 173.553 102.195L173.231 102.442H173.228Z" fill="#E28B6D"/>
<path opacity="0.6" d="M79.568 198.839L74.7521 213.468L73.7588 202.037C76.7516 201.386 78.3854 200.187 79.568 198.839Z" fill="#6F3428"/>
<path d="M0 403.033H670.62" stroke="#102048" stroke-width="2.07472" stroke-miterlimit="10"/>
</g>
<defs>
<clipPath id="clip0_115_263">
<rect width="670.62" height="404.07" fill="white"/>
</clipPath>
</defs>
</svg>
