<svg width="671" height="405" viewBox="0 0 671 405" fill="none" xmlns="http://www.w3.org/2000/svg">
<g clip-path="url(#clip0_437_40)">
<path d="M639.267 403.658H31.3535C50.3787 263.095 179.198 154.37 335.31 154.37C491.423 154.37 620.242 263.095 639.267 403.658Z" fill="#FFE394" fill-opacity="0.22"/>
<path d="M560.027 35.8823H331.37C320.725 35.8823 312.096 44.5117 312.096 55.1565V383.149C312.096 393.794 320.725 402.423 331.37 402.423H560.027C570.672 402.423 579.302 393.794 579.302 383.149V55.1565C579.302 44.5117 570.672 35.8823 560.027 35.8823Z" fill="#A8831C"/>
<path d="M556.177 50.6543H336.246V370.13H556.177V50.6543Z" fill="#F6F5F5"/>
<path d="M556.174 50.6567C556.241 175.236 560.263 325.482 546.269 358.748C484.632 364.754 412.463 366.681 336.24 367.039L365.214 51.6189L556.174 50.6567Z" fill="#E4E4E4"/>
<path d="M536.42 348.68C440.35 364.056 376.143 364.866 324.064 360.999C330.812 289.162 333.517 169.819 336.24 50.6699L452.007 50.9267L556.781 57.8433C558.308 181.51 558.474 295.741 536.42 348.68Z" fill="white"/>
<path d="M502.471 82.8574L386.775 80.1309L386.36 97.7533L502.056 100.48L502.471 82.8574Z" fill="#926B00"/>
<path d="M524.776 125.983L420.418 123.523L420.228 131.589L524.586 134.049L524.776 125.983Z" fill="#926B00"/>
<path d="M490.935 142.782L420.002 141.111L419.812 149.177L490.745 150.848L490.935 142.782Z" fill="#FFE394"/>
<path d="M387.534 123.222L362.828 122.64L362.246 147.346L386.952 147.928L387.534 123.222Z" fill="white" stroke="#926B00" stroke-width="1.55604" stroke-miterlimit="10"/>
<path d="M366.859 129.128C367.622 132.048 369.03 144.279 375.155 140.861C376.569 140.072 377.764 137.987 378.82 136.786L384.518 130.316L395.916 117.377C396.888 116.273 392.591 113.5 391.369 114.888C387.993 118.721 384.616 122.556 381.24 126.389C379.551 128.306 377.863 130.222 376.175 132.139C375.002 133.469 372.292 137.759 370.555 138.14C371.501 138.446 372.445 138.75 373.392 139.056C374.061 139.603 372.819 135.718 372.79 135.612C372.318 133.807 371.849 132.004 371.377 130.199C370.988 128.708 366.283 126.916 366.862 129.125L366.859 129.128Z" fill="#866507"/>
<path d="M505.294 170.463L419.357 168.438L419.167 176.503L505.104 178.529L505.294 170.463Z" fill="#926B00"/>
<path d="M523.301 188.483L418.943 186.024L418.753 194.09L523.111 196.549L523.301 188.483Z" fill="#FFE394"/>
<path d="M386.477 168.139L361.771 167.557L361.189 192.262L385.895 192.845L386.477 168.139Z" fill="white" stroke="#926B00" stroke-width="1.55604" stroke-miterlimit="10"/>
<path d="M365.787 174.74C366.549 177.661 367.958 189.891 374.083 186.473C375.497 185.685 376.692 183.599 377.748 182.399C379.646 180.241 381.547 178.086 383.445 175.928L394.843 162.99C395.816 161.885 391.519 159.113 390.297 160.5C386.92 164.333 383.544 168.169 380.167 172.002C378.479 173.918 376.791 175.835 375.102 177.751C373.93 179.082 371.22 183.371 369.482 183.752C370.429 184.058 371.373 184.362 372.32 184.668C372.989 185.215 371.746 181.33 371.718 181.224C371.246 179.419 370.777 177.616 370.305 175.811C369.916 174.32 365.211 172.528 365.789 174.738L365.787 174.74Z" fill="#866507"/>
<path d="M522.657 215.813L418.299 213.354L418.109 221.42L522.467 223.879L522.657 215.813Z" fill="#926B00"/>
<path d="M464.558 232.041L417.887 230.941L417.697 239.007L464.367 240.107L464.558 232.041Z" fill="#FFE394"/>
<path d="M385.417 213.053L360.711 212.471L360.129 237.176L384.834 237.759L385.417 213.053Z" fill="white" stroke="#926B00" stroke-width="1.55604" stroke-miterlimit="10"/>
<path d="M365.064 219.975C365.827 222.895 367.235 235.125 373.36 231.707C374.774 230.919 375.969 228.834 377.025 227.633C378.923 225.475 380.824 223.32 382.723 221.163C386.522 216.85 390.321 212.537 394.121 208.224C395.093 207.119 390.796 204.347 389.574 205.734C386.198 209.567 382.821 213.403 379.445 217.236C377.756 219.153 376.068 221.069 374.38 222.986C373.207 224.316 370.497 228.606 368.76 228.987C369.706 229.293 370.65 229.596 371.597 229.902C372.266 230.45 371.024 226.565 370.995 226.458C370.523 224.653 370.054 222.851 369.582 221.046C369.193 219.555 364.488 217.763 365.067 219.972L365.064 219.975Z" fill="#866507"/>
<path d="M521.6 260.728L417.242 258.269L417.052 266.334L521.41 268.794L521.6 260.728Z" fill="#926B00"/>
<path d="M499.266 277.798L416.826 275.855L416.636 283.921L499.076 285.864L499.266 277.798Z" fill="#FFE394"/>
<path d="M384.358 257.967L359.652 257.385L359.07 282.09L383.776 282.673L384.358 257.967Z" fill="white" stroke="#926B00" stroke-width="1.55604" stroke-miterlimit="10"/>
<path d="M364.011 264.597C364.774 267.517 366.182 279.747 372.308 276.329C373.721 275.541 374.917 273.456 375.972 272.255L381.67 265.785C385.469 261.472 389.269 257.159 393.068 252.846C394.04 251.741 389.743 248.969 388.522 250.356C385.145 254.19 381.768 258.025 378.392 261.858C376.704 263.775 375.015 265.691 373.327 267.608C372.155 268.938 369.445 273.228 367.707 273.609C368.654 273.915 369.598 274.218 370.544 274.524C371.213 275.072 369.971 271.187 369.943 271.08C369.471 269.275 369.001 267.473 368.529 265.668C368.14 264.177 363.436 262.385 364.014 264.594L364.011 264.597Z" fill="#866507"/>
<path d="M457.558 303.819L416.191 302.844L416.001 310.91L457.368 311.884L457.558 303.819Z" fill="#926B00"/>
<path d="M520.145 322.876L415.787 320.42L415.598 328.485C455.972 329.432 507.381 331.325 517.871 329.715C519.463 327.904 520.322 325.682 520.145 322.876Z" fill="#FFE394"/>
<path d="M383.653 302.553L358.947 301.971L358.365 326.676L383.071 327.259L383.653 302.553Z" fill="white" stroke="#926B00" stroke-width="1.55604" stroke-miterlimit="10"/>
<path d="M362.973 308.828C363.735 311.748 365.144 323.978 371.269 320.56C372.683 319.772 373.878 317.687 374.934 316.486L380.631 310.016C384.431 305.703 388.23 301.39 392.029 297.077C393.002 295.972 388.705 293.2 387.481 294.587C384.104 298.42 380.727 302.256 377.351 306.089C375.663 308.006 373.974 309.922 372.286 311.841C371.114 313.172 368.404 317.461 366.666 317.842C367.613 318.148 368.557 318.452 369.503 318.758C370.172 319.305 368.93 315.42 368.902 315.314C368.43 313.509 367.96 311.706 367.488 309.901C367.099 308.41 362.395 306.618 362.973 308.828Z" fill="#866507"/>
<path d="M495.232 38.1022V62.7603H396.164V38.1022C396.164 34.1706 397.762 30.6125 400.334 28.0295C400.656 27.7079 400.988 27.4071 401.341 27.127C403.799 25.0834 406.963 23.8593 410.407 23.8593C412.99 23.8593 415.469 23.268 417.689 22.1995C418.654 21.7327 419.567 21.1829 420.428 20.5501C423.26 18.4546 425.428 15.4774 426.507 11.9296C427.606 8.30925 429.858 5.28016 432.773 3.17432C435.573 1.16184 438.986 0 442.607 0H448.789C452.41 0 455.823 1.16184 458.624 3.17432C461.539 5.28016 463.79 8.30925 464.889 11.9296C465.968 15.4774 468.136 18.4546 470.968 20.5501C471.829 21.1829 472.742 21.7327 473.707 22.1995C475.927 23.268 478.406 23.8593 480.989 23.8593C484.433 23.8593 487.597 25.0834 490.056 27.127C493.219 29.7307 495.232 33.6831 495.232 38.1022Z" fill="#866507"/>
<path d="M503.272 50.6543V68.9844H388.125V50.6543H396.165V62.7603H495.232V50.6543H503.272Z" fill="#E4E4E4"/>
<path d="M445.699 23.1302C450.551 23.1302 454.485 19.3915 454.485 14.7795C454.485 10.1675 450.551 6.42871 445.699 6.42871C440.846 6.42871 436.912 10.1675 436.912 14.7795C436.912 19.3915 440.846 23.1302 445.699 23.1302Z" fill="white"/>
<path d="M255.84 130.222C252.326 129.558 249.042 123.687 247.901 121.436C247.621 120.883 247.533 120.258 247.65 119.649L249.048 112.237C249.048 112.237 252.274 112.787 252.025 117.082C251.999 117.528 252.09 117.974 252.25 118.389L253.485 121.62L257.136 118.793L255.134 113.14C255.134 113.14 252.455 113.876 251.07 113.435C248.228 112.528 251.955 110.313 253.132 110.077C254.31 109.841 256.903 108.899 258.08 110.901C259.258 112.904 259.966 114.081 259.966 114.081C259.966 114.081 261.263 109.605 260.378 99.5916C260.339 99.1404 261.467 99.1508 261.784 99.4723C262.733 100.437 264.245 103.378 264.325 112.315C264.325 112.315 264.484 101.9 266.27 100.829C267.743 99.9443 268.488 105.043 267.45 113.687C267.45 113.687 269.372 106.202 270.749 106.189C273.07 106.166 270.78 126.179 264.945 132.144L255.848 130.222H255.84Z" fill="#F9B384"/>
<path d="M266.856 127.16C266.752 128.156 266.638 129.12 266.513 130.054V130.064C266.098 133.384 265.58 136.351 264.978 138.892C264.947 139.017 264.926 139.131 264.895 139.245C263.121 146.517 262.8 150.075 256.741 149.121L250.507 142.025L250.445 141.952L249.988 141.434L251.254 137.699L251.42 137.212L252.353 134.494L252.468 134.141L254.065 129.463L254.708 127.564L266.856 127.16Z" fill="#F9B384"/>
<path d="M151.029 385.53L149.442 390.489C138.56 394.063 132.214 398.16 131.807 402.937H163.272L165.796 386.332C159.424 387.888 154.315 386.804 151.029 385.53Z" fill="#4D3800"/>
<path d="M154.976 373.2L151.031 385.529C154.317 386.803 159.426 387.887 165.798 386.331L167.424 375.62L154.976 373.2Z" fill="#F9B384"/>
<path d="M208.773 384.98L209.696 372.423L194.914 373.201L194.107 384.778C200.365 386.772 205.539 385.992 208.773 384.98Z" fill="#F9B384"/>
<path d="M226.554 402.939C226.147 398.162 220.589 391.614 208.4 390.058L208.774 384.98C205.537 385.991 200.366 386.772 194.108 384.777L192.84 402.939H226.554Z" fill="#4D3800"/>
<path d="M196.793 133.446L178.961 133.57V106.599H196.254L196.264 108.249L196.347 116.796L196.472 130.521L196.793 133.446Z" fill="#F9B384"/>
<path d="M196.346 118.093C193.14 121.465 184.779 117.658 181.252 113.944L196.263 109.545L196.346 118.093Z" fill="#E28B6D"/>
<path d="M200.486 100.375C200.476 102.367 200.351 104.452 200.019 106.443C199.148 111.879 196.845 116.578 191.534 116.724C178.982 117.087 175.403 109.908 173.038 104.037C170.672 98.1548 174.511 84.0156 174.511 84.0156L190.756 82.4077L199.677 89.7211C199.677 89.7211 200.538 94.6901 200.486 100.375Z" fill="#F9B384"/>
<path d="M222.923 230.382L213.068 379.425H189.898L195.692 234.799L199.235 233.157L222.923 230.382Z" fill="#322500"/>
<path d="M162.583 209.99L146.33 379.425H171.574L195.605 238.688L222.924 230.39L224.132 200.306L163.275 198.924L162.583 209.99Z" fill="#322500"/>
<path opacity="0.6" d="M166.207 210.358C179.993 215.307 212.343 209.651 219.06 202.757L214.288 193.211L161.082 200.281L166.209 210.356L166.207 210.358Z" fill="#102048"/>
<path d="M217.819 200.459C217.373 200.646 216.917 200.843 216.45 201.019C211.294 203.115 205.423 204.951 199.167 206.165C195.433 206.901 191.543 207.399 187.58 207.586C181.605 207.887 175.464 207.492 169.385 206.113L177.113 134.058L178.057 125.271C178.057 125.271 188.171 137.72 199.323 123.975L217.819 200.459Z" fill="white"/>
<path opacity="0.3" d="M187.58 207.586C181.605 207.887 175.464 207.493 169.385 206.113L177.113 134.058L179.872 130.069C186.688 146.646 193.669 183.353 187.58 207.586Z" fill="#1F3C88"/>
<path d="M178.965 122.418C186.65 155.043 189.811 188.615 178.491 225.895C170.096 229.088 160.954 229.051 151.175 226.24L153.594 158.467L96.625 197.627L93.168 176.276C115.067 155.336 152.93 123.702 178.965 122.418Z" fill="#FFE394"/>
<path opacity="0.3" d="M216.451 201.02C211.295 203.115 205.424 204.951 199.168 206.165C195.735 186.476 194.977 154.131 197.768 139.535L216.451 201.02Z" fill="#1F3C88"/>
<path opacity="0.6" d="M264.979 138.892C264.948 139.017 264.927 139.131 264.896 139.245C263.122 146.517 262.8 150.075 256.742 149.121L250.508 142.025L250.445 141.952L251.254 137.699L251.42 137.212L252.354 134.494L252.468 134.141L264.979 138.892Z" fill="#E28B6D"/>
<path d="M263.898 145.5C263.898 145.5 248.597 177.918 239.52 178.696C230.721 179.45 226.553 170.915 226.553 170.915L232.778 218.292C225.464 221.715 217.487 223.385 208.223 221.746C199.997 195.034 196.887 160.495 196.275 122.03C202.935 122.445 216.125 123.013 220.848 126.05C229.321 131.496 239.78 150.946 239.78 150.946L251.969 134.348L263.898 145.5Z" fill="#FFE394"/>
<path d="M77.3652 99.8223C77.3652 99.8223 78.2911 84.3138 79.8705 85.0451C81.4498 85.7764 84.6138 99.2621 84.6138 99.2621L81.2294 104.724L77.3652 99.8223Z" fill="#6F3428"/>
<path d="M123.933 379.858L124.392 384.962C125.201 393.971 118.554 401.933 109.542 402.742L108.23 402.859C99.2201 403.668 91.2584 397.021 90.4493 388.009L89.9902 382.905L123.93 379.855L123.933 379.858Z" fill="#EE6F57"/>
<path d="M101.72 132.725L67.7793 135.772L89.9666 382.915L123.907 379.868L101.72 132.725Z" fill="#FBC343"/>
<path opacity="0.3" d="M90.3264 128.749L78.2715 129.832L97.7195 346.461L109.774 345.379L90.3264 128.749Z" stroke="#6F3428" stroke-width="2.07472" stroke-miterlimit="10"/>
<path d="M123.928 379.861L89.9962 382.91L89.104 372.952L88.4816 366.033L86.5625 344.767L120.505 341.717L122.414 362.983L123.036 369.902L123.928 379.861Z" fill="#102048"/>
<path d="M122.436 362.972L88.5039 366.024L89.1264 372.944L123.059 369.892L122.436 362.972Z" fill="#FBC343"/>
<path d="M67.7832 135.767L77.2102 97.984C77.2102 97.984 80.4649 99.4285 84.4121 96.9907L101.726 132.72L67.7832 135.77V135.767Z" fill="#EE6F57"/>
<path d="M175.421 99.1091C175.268 98.5515 172.736 97.7865 172.179 97.6309C171.315 97.3923 170.374 97.2756 169.534 97.6568C166.471 99.0417 166.88 103.427 168.468 105.733C169.368 107.04 170.682 108.043 172.212 108.482C172.767 108.64 178.037 108.705 177.806 107.857C177.806 107.854 175.426 99.1298 175.421 99.1091Z" fill="#F9B384"/>
<path d="M78.9897 187.254C78.1935 184.754 75.5742 183.353 73.0949 184.209C69.2333 185.542 65.8697 187.803 65.351 191.652C64.8764 195.156 66.6296 206.349 74.4565 207.786L73.8185 202.036C73.8185 202.036 78.6111 200.918 79.568 198.841C80.2397 197.386 80.2838 191.315 78.9897 187.256V187.254Z" fill="#F9B384"/>
<path d="M224.16 148.763C224.573 151.211 224.923 153.669 225.257 156.125C225.605 158.581 225.882 161.048 226.196 163.509L227 170.908C227.234 173.377 227.464 175.848 227.615 178.327L227.213 178.374C226.788 175.926 226.443 173.47 226.1 171.011L225.174 163.628C224.913 161.162 224.614 158.698 224.386 156.229C224.145 153.76 223.919 151.289 223.756 148.809L224.158 148.763H224.16Z" fill="#1F3C88"/>
<path d="M154.4 148.363C154.395 151.115 154.327 153.861 154.247 156.608C154.177 159.354 154.037 162.1 153.933 164.844L153.485 173.076C153.3 175.817 153.111 178.561 152.847 181.297L152.442 181.279C152.434 178.527 152.504 175.781 152.582 173.032L152.911 164.795C153.07 162.051 153.186 159.307 153.376 156.564C153.555 153.822 153.746 151.078 154.001 148.34L154.405 148.358L154.4 148.363Z" fill="#1F3C88"/>
<path d="M188.009 98.8525C188.229 99.8302 187.825 100.753 187.109 100.914C186.393 101.075 185.633 100.411 185.416 99.4334C185.195 98.4557 185.6 97.5325 186.316 97.3717C187.031 97.2109 187.791 97.8748 188.009 98.8525Z" fill="#102048"/>
<path d="M198.348 97.6442C198.306 98.6452 197.676 99.4336 196.942 99.4025C196.208 99.3714 195.648 98.5337 195.692 97.5327C195.733 96.5316 196.364 95.7432 197.098 95.7743C197.831 95.8054 198.392 96.6431 198.348 97.6442Z" fill="#102048"/>
<path d="M192.584 98.4635C192.939 99.3219 192.882 100.245 193.113 100.948C193.23 101.303 193.39 101.617 193.616 101.809C193.823 101.998 194.161 102.123 194.588 102.289C195.029 102.46 195.499 102.763 195.818 103.215C196.157 103.653 196.251 104.415 195.942 104.913C195.667 105.411 195.271 105.686 194.928 105.938C194.573 106.176 194.231 106.433 193.86 106.656L193.593 106.35C193.865 106.013 194.163 105.709 194.451 105.391C194.747 105.087 195.016 104.791 195.12 104.517C195.341 104.037 194.869 103.513 194.189 103.241C193.839 103.08 193.333 102.94 192.923 102.522C192.529 102.12 192.335 101.62 192.257 101.15C192.086 100.188 192.28 99.366 192.19 98.5673L192.581 98.4609L192.584 98.4635Z" fill="#E28B6D"/>
<path d="M183.061 96.2251C183.214 95.6105 183.59 95.027 184.119 94.6068C184.64 94.1737 185.322 93.9377 185.999 93.904C187.36 93.821 188.709 94.5965 189.269 95.7427L188.953 95.9943C188.053 95.2863 187.06 94.8999 186.051 94.9362C185.037 94.9621 184.116 95.4834 183.429 96.3989L183.061 96.2277V96.2251Z" fill="#102048"/>
<path d="M193.766 94.9547C193.919 94.4749 194.188 94.0185 194.58 93.645C194.964 93.2612 195.498 93.0071 196.053 92.9163C197.168 92.7321 198.364 93.3001 198.805 94.2882L198.48 94.532C197.752 94.0418 196.956 93.8343 196.206 93.9381C195.83 93.9874 195.475 94.13 195.122 94.3349C194.777 94.5501 194.461 94.8458 194.116 95.1622L193.766 94.9573V94.9547Z" fill="#102048"/>
<path d="M188.029 108.51C189.839 111.345 192.254 111.653 194.119 108.668L188.029 108.51Z" fill="white"/>
<path d="M173.228 102.441C172.567 101.993 171.96 101.5 171.358 101.209C171.06 101.062 170.78 100.973 170.533 100.994C170.282 101.012 169.994 101.16 169.67 101.391L169.33 101.171C169.47 100.756 169.768 100.291 170.316 100.11C170.858 99.9205 171.41 100.074 171.817 100.284C172.644 100.735 173.21 101.399 173.552 102.195L173.231 102.441H173.228Z" fill="#E28B6D"/>
<path opacity="0.6" d="M79.569 198.838L74.753 213.468L73.7598 202.036C76.7526 201.385 78.3864 200.187 79.569 198.838Z" fill="#6F3428"/>
<path d="M0 403.032H670.62" stroke="#594200" stroke-width="2.07472" stroke-miterlimit="10"/>
</g>
<defs>
<clipPath id="clip0_437_40">
<rect width="670.62" height="404.07" fill="white"/>
</clipPath>
</defs>
</svg>
