<svg width="456" height="447" viewBox="0 0 456 447" fill="none" xmlns="http://www.w3.org/2000/svg">
<path opacity="0.2" d="M89.6276 442.706C125.005 442.706 153.685 439.257 153.685 435.002C153.685 430.748 125.005 427.299 89.6276 427.299C54.2497 427.299 25.5703 430.748 25.5703 435.002C25.5703 439.257 54.2497 442.706 89.6276 442.706Z" fill="#28364D"/>
<path opacity="0.2" d="M366.944 446.753C404.922 446.753 435.71 443.304 435.71 439.049C435.71 434.795 404.922 431.346 366.944 431.346C328.965 431.346 298.177 434.795 298.177 439.049C298.177 443.304 328.965 446.753 366.944 446.753Z" fill="#28364D"/>
<path d="M290.3 90.8145H166.786V194.488H290.3V90.8145Z" fill="#FAE8CD" stroke="#8D6C0C" stroke-width="3.14182" stroke-miterlimit="10"/>
<path d="M281.421 99.3525H175.665V185.955H281.421V99.3525Z" fill="white"/>
<path d="M270.607 171.827L254.371 149.159L259.331 141.713L278.503 169.25L273.004 168.216L270.607 171.827Z" fill="url(#paint0_radial_70_7021)"/>
<path d="M270.607 171.827L254.371 149.159L259.331 141.713L278.503 169.25L273.004 168.216L270.607 171.827Z" fill="#987000" fill-opacity="0.92"/>
<g style="mix-blend-mode:multiply" opacity="0.3">
<path d="M259.331 141.713L259.267 141.803L278.202 168.993L272.695 167.959L270.357 171.48L270.607 171.827L273.004 168.216L278.504 169.25L259.331 141.713Z" fill="#211915"/>
</g>
<path d="M245.903 175.984L253.067 149.198L245.768 143.904L237.583 176.261L242.376 173.414L245.903 175.984Z" fill="url(#paint1_radial_70_7021)"/>
<path d="M245.903 175.984L253.067 149.198L245.768 143.904L237.583 176.261L242.376 173.414L245.903 175.984Z" fill="#987000" fill-opacity="0.92"/>
<g style="mix-blend-mode:multiply" opacity="0.3">
<path opacity="0.2" d="M246.019 144.083L245.768 143.903L237.583 176.26L237.93 176.054L246.019 144.083Z" fill="#211915"/>
<path opacity="0.2" d="M242.704 173.292L242.428 173.453L245.904 175.984L245.987 175.682L242.704 173.292Z" fill="#211915"/>
</g>
<g style="mix-blend-mode:multiply" opacity="0.3">
<g style="mix-blend-mode:multiply" opacity="0.8">
<path d="M242.048 173.536L237.602 176.177L237.583 176.26L242.1 173.575L242.048 173.536Z" fill="#211915"/>
</g>
<g style="mix-blend-mode:multiply" opacity="0.8">
<path d="M245.768 143.903L245.691 144.205L252.733 149.32L245.659 175.803L245.903 175.983L253.067 149.198L245.768 143.903Z" fill="#211915"/>
</g>
</g>
<path d="M266.952 142.298C266.99 142.516 266.444 142.818 266.47 143.036C266.496 143.255 267.099 143.416 267.112 143.634C267.132 143.852 266.56 144.103 266.566 144.321C266.566 144.54 267.157 144.758 267.151 144.977C267.151 145.195 266.553 145.394 266.54 145.613C266.528 145.831 267.087 146.101 267.061 146.32C267.035 146.538 266.431 146.679 266.393 146.898C266.361 147.116 266.894 147.438 266.849 147.65C266.804 147.868 266.187 147.952 266.129 148.164C266.071 148.376 266.579 148.748 266.515 148.954C266.451 149.166 265.827 149.192 265.757 149.397C265.686 149.603 266.149 150.02 266.065 150.22C265.982 150.425 265.358 150.393 265.268 150.592C265.178 150.791 265.602 151.248 265.5 151.44C265.397 151.633 264.78 151.543 264.671 151.736C264.562 151.922 264.941 152.417 264.825 152.603C264.709 152.79 264.099 152.642 263.97 152.822C263.842 153.002 264.183 153.522 264.041 153.696C263.906 153.869 263.315 153.67 263.174 153.837C263.026 154.004 263.315 154.556 263.167 154.717C263.02 154.878 262.448 154.621 262.287 154.775C262.127 154.929 262.364 155.507 262.197 155.649C262.037 155.797 261.49 155.488 261.317 155.623C261.143 155.758 261.323 156.355 261.15 156.484C260.97 156.612 260.462 156.259 260.276 156.381C260.09 156.503 260.218 157.114 260.026 157.223C259.839 157.332 259.357 156.934 259.165 157.037C258.972 157.139 259.036 157.756 258.837 157.853C258.638 157.949 258.201 157.506 257.995 157.589C257.796 157.673 257.802 158.296 257.597 158.373C257.391 158.45 256.993 157.968 256.787 158.032C256.575 158.097 256.53 158.72 256.318 158.778C256.106 158.836 255.753 158.322 255.541 158.367C255.329 158.411 255.22 159.028 255.001 159.06C254.783 159.099 254.481 158.553 254.262 158.579C254.044 158.604 253.883 159.208 253.665 159.221C253.446 159.24 253.196 158.668 252.977 158.675C252.759 158.675 252.54 159.266 252.322 159.26C252.104 159.26 251.904 158.662 251.686 158.649C251.467 158.636 251.198 159.195 250.979 159.17C250.761 159.144 250.619 158.54 250.401 158.508C250.182 158.476 249.861 159.009 249.649 158.964C249.431 158.919 249.347 158.302 249.142 158.251C248.93 158.193 248.557 158.701 248.351 158.636C248.139 158.572 248.114 157.949 247.908 157.878C247.702 157.808 247.285 158.27 247.086 158.187C246.88 158.103 246.912 157.48 246.713 157.39C246.514 157.3 246.058 157.724 245.865 157.621C245.672 157.518 245.756 156.902 245.569 156.792C245.383 156.683 244.888 157.062 244.702 156.947C244.516 156.825 244.663 156.221 244.483 156.092C244.304 155.964 243.783 156.298 243.61 156.163C243.436 156.028 243.635 155.437 243.468 155.295C243.301 155.154 242.749 155.437 242.588 155.289C242.427 155.141 242.684 154.569 242.53 154.409C242.376 154.248 241.798 154.486 241.656 154.319C241.509 154.152 241.817 153.612 241.682 153.439C241.547 153.265 240.95 153.445 240.821 153.271C240.693 153.092 241.046 152.584 240.924 152.398C240.802 152.218 240.192 152.34 240.082 152.147C239.973 151.961 240.371 151.479 240.269 151.286C240.166 151.093 239.543 151.158 239.453 150.958C239.356 150.759 239.8 150.322 239.716 150.117C239.633 149.918 239.009 149.924 238.932 149.718C238.855 149.513 239.337 149.115 239.273 148.909C239.209 148.697 238.585 148.652 238.527 148.44C238.47 148.228 238.99 147.881 238.939 147.662C238.894 147.45 238.277 147.341 238.238 147.123C238.2 146.904 238.746 146.602 238.72 146.384C238.695 146.165 238.091 146.005 238.071 145.786C238.052 145.568 238.624 145.317 238.617 145.099C238.611 144.88 238.026 144.662 238.033 144.444C238.033 144.225 238.63 144.026 238.643 143.807C238.656 143.589 238.097 143.319 238.116 143.101C238.142 142.882 238.746 142.741 238.778 142.522C238.81 142.304 238.277 141.983 238.322 141.771C238.367 141.552 238.984 141.469 239.035 141.257C239.086 141.045 238.585 140.672 238.65 140.466C238.714 140.254 239.337 140.229 239.408 140.023C239.485 139.818 239.016 139.4 239.099 139.201C239.183 138.995 239.806 139.027 239.896 138.828C239.986 138.629 239.562 138.173 239.665 137.98C239.768 137.787 240.384 137.877 240.494 137.684C240.603 137.492 240.224 137.003 240.339 136.817C240.461 136.631 241.065 136.779 241.194 136.599C241.322 136.419 240.982 135.898 241.123 135.725C241.258 135.551 241.849 135.751 241.991 135.583C242.132 135.416 241.849 134.864 241.997 134.703C242.151 134.543 242.717 134.793 242.877 134.645C243.031 134.491 242.8 133.913 242.967 133.772C243.134 133.624 243.674 133.932 243.847 133.791C244.021 133.656 243.841 133.058 244.014 132.93C244.188 132.801 244.702 133.155 244.888 133.033C245.068 132.911 244.946 132.3 245.139 132.191C245.325 132.082 245.807 132.48 246 132.377C246.193 132.275 246.128 131.658 246.327 131.561C246.527 131.465 246.964 131.908 247.169 131.825C247.368 131.741 247.362 131.118 247.567 131.041C247.773 130.964 248.171 131.446 248.377 131.382C248.583 131.317 248.634 130.694 248.846 130.636C249.058 130.578 249.405 131.099 249.623 131.047C249.835 131.002 249.945 130.386 250.163 130.354C250.382 130.315 250.684 130.861 250.902 130.835C251.12 130.81 251.281 130.206 251.5 130.193C251.718 130.18 251.969 130.745 252.187 130.739C252.405 130.733 252.624 130.148 252.842 130.154C253.061 130.154 253.26 130.745 253.478 130.765C253.697 130.778 253.967 130.219 254.185 130.238C254.404 130.264 254.545 130.868 254.763 130.9C254.982 130.932 255.303 130.398 255.515 130.443C255.734 130.488 255.817 131.105 256.029 131.157C256.241 131.208 256.607 130.707 256.819 130.771C257.031 130.835 257.057 131.459 257.263 131.529C257.468 131.606 257.886 131.137 258.085 131.221C258.291 131.304 258.259 131.928 258.458 132.018C258.657 132.108 259.113 131.683 259.306 131.786C259.499 131.889 259.409 132.506 259.601 132.615C259.788 132.724 260.283 132.345 260.469 132.461C260.655 132.577 260.507 133.187 260.687 133.315C260.867 133.444 261.394 133.11 261.561 133.245C261.735 133.38 261.535 133.971 261.702 134.112C261.87 134.253 262.422 133.971 262.583 134.119C262.743 134.266 262.493 134.838 262.641 134.999C262.795 135.159 263.373 134.922 263.514 135.089C263.662 135.256 263.354 135.796 263.495 135.969C263.63 136.142 264.227 135.963 264.356 136.136C264.484 136.316 264.131 136.823 264.253 137.01C264.375 137.19 264.986 137.068 265.095 137.26C265.204 137.447 264.806 137.929 264.909 138.121C265.011 138.314 265.628 138.25 265.725 138.449C265.821 138.648 265.378 139.085 265.461 139.291C265.545 139.49 266.168 139.483 266.245 139.689C266.322 139.895 265.84 140.293 265.904 140.499C265.969 140.711 266.592 140.756 266.65 140.968C266.708 141.18 266.187 141.527 266.239 141.745C266.283 141.957 266.9 142.066 266.932 142.285L266.952 142.298Z" fill="#AE7F07"/>
<path d="M263.231 142.927C264.221 148.8 260.263 154.357 254.397 155.347C248.531 156.336 242.967 152.379 241.977 146.513C240.988 140.647 244.946 135.082 250.812 134.093C256.678 133.104 262.242 137.061 263.231 142.927Z" fill="#D2D4D4"/>
<g style="mix-blend-mode:multiply" opacity="0.1">
<path d="M242.408 146.757C241.425 140.923 245.357 135.397 251.184 134.414C254.018 133.939 256.781 134.62 258.984 136.123C256.723 134.446 253.812 133.65 250.818 134.157C244.984 135.14 241.052 140.666 242.042 146.5C242.549 149.494 244.252 151.987 246.578 153.574C244.438 151.987 242.883 149.597 242.408 146.763V146.757Z" fill="#211915"/>
</g>
<g style="mix-blend-mode:multiply" opacity="0.1">
<path d="M258.625 135.867C260.765 137.46 262.319 139.844 262.795 142.677C263.778 148.511 259.846 154.037 254.012 155.02C251.178 155.495 248.416 154.814 246.212 153.311C248.474 154.988 251.384 155.784 254.378 155.277C260.212 154.294 264.138 148.768 263.155 142.934C262.647 139.94 260.944 137.447 258.619 135.86L258.625 135.867Z" fill="#211915"/>
</g>
<path d="M233.997 129.46H180.323V132.004H233.997V129.46Z" fill="#92959C"/>
<path d="M233.997 134.433H180.323V136.977H233.997V134.433Z" fill="#92959C"/>
<path d="M233.997 139.406H180.323V141.951H233.997V139.406Z" fill="#92959C"/>
<path d="M233.997 144.379H180.323V146.923H233.997V144.379Z" fill="#92959C"/>
<path d="M226.416 148.863H180.323V151.408H226.416V148.863Z" fill="#92959C"/>
<path d="M223.235 153.837H180.323V156.381H223.235V153.837Z" fill="#92959C"/>
<path d="M220.999 158.811H180.323V161.355H220.999V158.811Z" fill="#92959C"/>
<path d="M217.575 163.783H180.323V166.328H217.575V163.783Z" fill="#92959C"/>
<path d="M217.575 168.756H180.323V171.3H217.575V168.756Z" fill="#92959C"/>
<path d="M182.84 111.062V105.455H183.519V110.46H186.125V111.062H182.84ZM188.852 111.15C188.447 111.15 188.097 111.061 187.804 110.882C187.511 110.701 187.286 110.449 187.127 110.126C186.97 109.801 186.892 109.423 186.892 108.993C186.892 108.562 186.97 108.182 187.127 107.854C187.286 107.523 187.507 107.266 187.79 107.082C188.075 106.895 188.407 106.802 188.786 106.802C189.005 106.802 189.222 106.839 189.435 106.912C189.649 106.985 189.843 107.103 190.018 107.268C190.194 107.43 190.333 107.646 190.437 107.914C190.541 108.182 190.593 108.513 190.593 108.905V109.179H187.352V108.62H189.936C189.936 108.383 189.889 108.171 189.794 107.985C189.701 107.799 189.568 107.652 189.394 107.544C189.223 107.437 189.02 107.383 188.786 107.383C188.529 107.383 188.306 107.447 188.118 107.574C187.932 107.7 187.789 107.865 187.689 108.067C187.588 108.27 187.538 108.487 187.538 108.719V109.091C187.538 109.409 187.593 109.678 187.702 109.899C187.814 110.118 187.968 110.285 188.165 110.4C188.362 110.513 188.591 110.57 188.852 110.57C189.022 110.57 189.175 110.546 189.312 110.498C189.451 110.449 189.57 110.376 189.671 110.279C189.771 110.181 189.849 110.059 189.903 109.913L190.528 110.088C190.462 110.3 190.352 110.486 190.196 110.646C190.041 110.805 189.85 110.929 189.621 111.019C189.393 111.106 189.137 111.15 188.852 111.15ZM193.405 106.857V107.405H191.226V106.857H193.405ZM191.861 105.849H192.507V109.858C192.507 110.04 192.534 110.177 192.587 110.269C192.641 110.358 192.711 110.418 192.795 110.449C192.881 110.478 192.971 110.493 193.066 110.493C193.137 110.493 193.195 110.489 193.241 110.482C193.287 110.473 193.323 110.466 193.351 110.46L193.482 111.041C193.438 111.057 193.377 111.073 193.299 111.09C193.22 111.108 193.121 111.117 193 111.117C192.818 111.117 192.639 111.078 192.463 111C192.29 110.921 192.146 110.801 192.031 110.641C191.918 110.48 191.861 110.278 191.861 110.033V105.849ZM196.206 106.857V107.405H194.027V106.857H196.206ZM194.662 105.849H195.308V109.858C195.308 110.04 195.335 110.177 195.388 110.269C195.442 110.358 195.512 110.418 195.596 110.449C195.681 110.478 195.772 110.493 195.867 110.493C195.938 110.493 195.996 110.489 196.042 110.482C196.088 110.473 196.124 110.466 196.151 110.46L196.283 111.041C196.239 111.057 196.178 111.073 196.099 111.09C196.021 111.108 195.921 111.117 195.801 111.117C195.618 111.117 195.44 111.078 195.264 111C195.091 110.921 194.947 110.801 194.832 110.641C194.719 110.48 194.662 110.278 194.662 110.033V105.849ZM198.896 111.15C198.491 111.15 198.141 111.061 197.848 110.882C197.556 110.701 197.33 110.449 197.171 110.126C197.014 109.801 196.936 109.423 196.936 108.993C196.936 108.562 197.014 108.182 197.171 107.854C197.33 107.523 197.551 107.266 197.834 107.082C198.119 106.895 198.451 106.802 198.831 106.802C199.05 106.802 199.266 106.839 199.479 106.912C199.693 106.985 199.887 107.103 200.063 107.268C200.238 107.43 200.377 107.646 200.481 107.914C200.586 108.182 200.638 108.513 200.638 108.905V109.179H197.396V108.62H199.98C199.98 108.383 199.933 108.171 199.838 107.985C199.745 107.799 199.612 107.652 199.438 107.544C199.267 107.437 199.064 107.383 198.831 107.383C198.573 107.383 198.35 107.447 198.162 107.574C197.976 107.7 197.833 107.865 197.733 108.067C197.632 108.27 197.582 108.487 197.582 108.719V109.091C197.582 109.409 197.637 109.678 197.746 109.899C197.858 110.118 198.012 110.285 198.209 110.4C198.406 110.513 198.635 110.57 198.896 110.57C199.066 110.57 199.219 110.546 199.356 110.498C199.495 110.449 199.614 110.376 199.715 110.279C199.815 110.181 199.893 110.059 199.948 109.913L200.572 110.088C200.506 110.3 200.396 110.486 200.241 110.646C200.085 110.805 199.894 110.929 199.666 111.019C199.437 111.106 199.181 111.15 198.896 111.15ZM201.62 111.062V106.857H202.245V107.492H202.289C202.365 107.284 202.504 107.115 202.705 106.986C202.905 106.856 203.132 106.791 203.384 106.791C203.431 106.791 203.49 106.792 203.562 106.794C203.633 106.796 203.687 106.799 203.723 106.802V107.459C203.701 107.454 203.651 107.446 203.573 107.435C203.496 107.422 203.415 107.416 203.329 107.416C203.124 107.416 202.942 107.458 202.781 107.544C202.623 107.628 202.497 107.745 202.404 107.895C202.312 108.043 202.267 108.211 202.267 108.401V111.062H201.62ZM208.366 111.15C207.986 111.15 207.653 111.06 207.367 110.879C207.082 110.698 206.859 110.446 206.699 110.121C206.54 109.796 206.46 109.416 206.46 108.982C206.46 108.544 206.54 108.161 206.699 107.834C206.859 107.508 207.082 107.254 207.367 107.073C207.653 106.893 207.986 106.802 208.366 106.802C208.746 106.802 209.078 106.893 209.363 107.073C209.649 107.254 209.872 107.508 210.031 107.834C210.191 108.161 210.272 108.544 210.272 108.982C210.272 109.416 210.191 109.796 210.031 110.121C209.872 110.446 209.649 110.698 209.363 110.879C209.078 111.06 208.746 111.15 208.366 111.15ZM208.366 110.57C208.654 110.57 208.892 110.496 209.078 110.348C209.264 110.2 209.402 110.006 209.491 109.765C209.581 109.524 209.625 109.263 209.625 108.982C209.625 108.701 209.581 108.439 209.491 108.196C209.402 107.953 209.264 107.757 209.078 107.607C208.892 107.458 208.654 107.383 208.366 107.383C208.078 107.383 207.84 107.458 207.654 107.607C207.468 107.757 207.33 107.953 207.241 108.196C207.151 108.439 207.107 108.701 207.107 108.982C207.107 109.263 207.151 109.524 207.241 109.765C207.33 110.006 207.468 110.2 207.654 110.348C207.84 110.496 208.078 110.57 208.366 110.57ZM213.131 106.857V107.405H210.864V106.857H213.131ZM211.543 111.062V106.277C211.543 106.036 211.599 105.835 211.712 105.674C211.826 105.514 211.973 105.393 212.153 105.313C212.334 105.233 212.525 105.192 212.725 105.192C212.884 105.192 213.014 105.205 213.114 105.231C213.215 105.256 213.289 105.28 213.339 105.302L213.153 105.86C213.12 105.849 213.074 105.836 213.016 105.819C212.959 105.803 212.884 105.795 212.791 105.795C212.578 105.795 212.423 105.849 212.328 105.956C212.235 106.064 212.189 106.222 212.189 106.43V111.062H211.543ZM216.292 111.062V105.455H218.187C218.625 105.455 218.985 105.53 219.266 105.68C219.547 105.828 219.755 106.031 219.89 106.29C220.025 106.549 220.093 106.844 220.093 107.175C220.093 107.505 220.025 107.798 219.89 108.054C219.755 108.309 219.548 108.51 219.268 108.656C218.989 108.8 218.632 108.872 218.198 108.872H216.665V108.259H218.176C218.475 108.259 218.716 108.215 218.899 108.127C219.083 108.04 219.216 107.916 219.299 107.755C219.383 107.593 219.425 107.399 219.425 107.175C219.425 106.95 219.383 106.754 219.299 106.586C219.215 106.418 219.08 106.288 218.896 106.197C218.712 106.104 218.468 106.058 218.165 106.058H216.971V111.062H216.292ZM218.932 108.544L220.312 111.062H219.523L218.165 108.544H218.932ZM222.854 111.15C222.449 111.15 222.1 111.061 221.806 110.882C221.514 110.701 221.288 110.449 221.13 110.126C220.973 109.801 220.894 109.423 220.894 108.993C220.894 108.562 220.973 108.182 221.13 107.854C221.288 107.523 221.509 107.266 221.792 107.082C222.077 106.895 222.409 106.802 222.789 106.802C223.008 106.802 223.224 106.839 223.438 106.912C223.651 106.985 223.846 107.103 224.021 107.268C224.196 107.43 224.336 107.646 224.44 107.914C224.544 108.182 224.596 108.513 224.596 108.905V109.179H221.354V108.62H223.939C223.939 108.383 223.891 108.171 223.796 107.985C223.703 107.799 223.57 107.652 223.397 107.544C223.225 107.437 223.022 107.383 222.789 107.383C222.531 107.383 222.309 107.447 222.121 107.574C221.934 107.7 221.791 107.865 221.691 108.067C221.59 108.27 221.54 108.487 221.54 108.719V109.091C221.54 109.409 221.595 109.678 221.705 109.899C221.816 110.118 221.97 110.285 222.167 110.4C222.364 110.513 222.593 110.57 222.854 110.57C223.024 110.57 223.178 110.546 223.314 110.498C223.453 110.449 223.573 110.376 223.673 110.279C223.773 110.181 223.851 110.059 223.906 109.913L224.53 110.088C224.464 110.3 224.354 110.486 224.199 110.646C224.044 110.805 223.852 110.929 223.624 111.019C223.396 111.106 223.139 111.15 222.854 111.15ZM227.287 111.15C226.893 111.15 226.553 111.057 226.269 110.871C225.984 110.685 225.765 110.428 225.612 110.101C225.458 109.775 225.382 109.401 225.382 108.982C225.382 108.555 225.46 108.178 225.617 107.851C225.776 107.522 225.997 107.266 226.28 107.082C226.564 106.895 226.897 106.802 227.276 106.802C227.572 106.802 227.838 106.857 228.076 106.967C228.313 107.076 228.507 107.229 228.659 107.427C228.81 107.624 228.904 107.854 228.941 108.116H228.295C228.245 107.925 228.136 107.755 227.966 107.607C227.798 107.458 227.572 107.383 227.287 107.383C227.035 107.383 226.814 107.448 226.625 107.58C226.437 107.709 226.29 107.893 226.184 108.13C226.08 108.366 226.028 108.642 226.028 108.96C226.028 109.285 226.079 109.568 226.181 109.809C226.285 110.049 226.431 110.237 226.619 110.37C226.809 110.503 227.032 110.57 227.287 110.57C227.455 110.57 227.607 110.54 227.744 110.482C227.881 110.424 227.997 110.34 228.092 110.23C228.187 110.121 228.255 109.989 228.295 109.836H228.941C228.904 110.084 228.814 110.308 228.67 110.507C228.527 110.704 228.339 110.861 228.103 110.978C227.869 111.093 227.597 111.15 227.287 111.15ZM231.594 111.15C231.214 111.15 230.881 111.06 230.595 110.879C230.31 110.698 230.087 110.446 229.927 110.121C229.768 109.796 229.688 109.416 229.688 108.982C229.688 108.544 229.768 108.161 229.927 107.834C230.087 107.508 230.31 107.254 230.595 107.073C230.881 106.893 231.214 106.802 231.594 106.802C231.974 106.802 232.306 106.893 232.591 107.073C232.877 107.254 233.1 107.508 233.259 107.834C233.419 108.161 233.499 108.544 233.499 108.982C233.499 109.416 233.419 109.796 233.259 110.121C233.1 110.446 232.877 110.698 232.591 110.879C232.306 111.06 231.974 111.15 231.594 111.15ZM231.594 110.57C231.882 110.57 232.12 110.496 232.306 110.348C232.492 110.2 232.63 110.006 232.719 109.765C232.809 109.524 232.853 109.263 232.853 108.982C232.853 108.701 232.809 108.439 232.719 108.196C232.63 107.953 232.492 107.757 232.306 107.607C232.12 107.458 231.882 107.383 231.594 107.383C231.306 107.383 231.068 107.458 230.882 107.607C230.696 107.757 230.558 107.953 230.469 108.196C230.379 108.439 230.334 108.701 230.334 108.982C230.334 109.263 230.379 109.524 230.469 109.765C230.558 110.006 230.696 110.2 230.882 110.348C231.068 110.496 231.306 110.57 231.594 110.57ZM234.486 111.062V106.857H235.11V107.514H235.165C235.252 107.29 235.394 107.115 235.589 106.991C235.785 106.865 236.019 106.802 236.293 106.802C236.57 106.802 236.801 106.865 236.986 106.991C237.172 107.115 237.317 107.29 237.421 107.514H237.465C237.572 107.297 237.734 107.124 237.949 106.997C238.165 106.867 238.423 106.802 238.724 106.802C239.1 106.802 239.408 106.92 239.647 107.155C239.886 107.389 240.005 107.753 240.005 108.248V111.062H239.359V108.248C239.359 107.938 239.274 107.716 239.105 107.583C238.935 107.449 238.735 107.383 238.505 107.383C238.209 107.383 237.98 107.472 237.818 107.651C237.655 107.828 237.574 108.053 237.574 108.325V111.062H236.917V108.182C236.917 107.943 236.84 107.751 236.684 107.604C236.529 107.457 236.329 107.383 236.085 107.383C235.917 107.383 235.76 107.427 235.614 107.517C235.47 107.606 235.353 107.73 235.263 107.889C235.176 108.046 235.132 108.228 235.132 108.434V111.062H234.486ZM241.187 111.062V106.857H241.811V107.514H241.866C241.954 107.29 242.095 107.115 242.29 106.991C242.486 106.865 242.72 106.802 242.994 106.802C243.271 106.802 243.502 106.865 243.687 106.991C243.873 107.115 244.018 107.29 244.122 107.514H244.166C244.273 107.297 244.435 107.124 244.65 106.997C244.866 106.867 245.124 106.802 245.425 106.802C245.801 106.802 246.109 106.92 246.348 107.155C246.587 107.389 246.707 107.753 246.707 108.248V111.062H246.06V108.248C246.06 107.938 245.976 107.716 245.806 107.583C245.636 107.449 245.436 107.383 245.206 107.383C244.91 107.383 244.681 107.472 244.519 107.651C244.357 107.828 244.275 108.053 244.275 108.325V111.062H243.618V108.182C243.618 107.943 243.541 107.751 243.385 107.604C243.23 107.457 243.03 107.383 242.786 107.383C242.618 107.383 242.461 107.427 242.315 107.517C242.171 107.606 242.054 107.73 241.964 107.889C241.877 108.046 241.833 108.228 241.833 108.434V111.062H241.187ZM249.651 111.15C249.246 111.15 248.896 111.061 248.603 110.882C248.311 110.701 248.085 110.449 247.926 110.126C247.769 109.801 247.691 109.423 247.691 108.993C247.691 108.562 247.769 108.182 247.926 107.854C248.085 107.523 248.306 107.266 248.589 107.082C248.874 106.895 249.206 106.802 249.585 106.802C249.805 106.802 250.021 106.839 250.234 106.912C250.448 106.985 250.642 107.103 250.818 107.268C250.993 107.43 251.132 107.646 251.236 107.914C251.341 108.182 251.393 108.513 251.393 108.905V109.179H248.151V108.62H250.735C250.735 108.383 250.688 108.171 250.593 107.985C250.5 107.799 250.367 107.652 250.193 107.544C250.022 107.437 249.819 107.383 249.585 107.383C249.328 107.383 249.105 107.447 248.917 107.574C248.731 107.7 248.588 107.865 248.488 108.067C248.387 108.27 248.337 108.487 248.337 108.719V109.091C248.337 109.409 248.392 109.678 248.501 109.899C248.613 110.118 248.767 110.285 248.964 110.4C249.161 110.513 249.39 110.57 249.651 110.57C249.821 110.57 249.974 110.546 250.111 110.498C250.25 110.449 250.369 110.376 250.47 110.279C250.57 110.181 250.648 110.059 250.703 109.913L251.327 110.088C251.261 110.3 251.151 110.486 250.996 110.646C250.84 110.805 250.649 110.929 250.421 111.019C250.192 111.106 249.936 111.15 249.651 111.15ZM253.022 108.533V111.062H252.375V106.857H253V107.514H253.054C253.153 107.301 253.303 107.129 253.503 106.999C253.704 106.868 253.963 106.802 254.281 106.802C254.566 106.802 254.815 106.861 255.028 106.978C255.242 107.093 255.408 107.268 255.527 107.503C255.645 107.737 255.705 108.033 255.705 108.39V111.062H255.059V108.434C255.059 108.104 254.973 107.846 254.801 107.662C254.63 107.476 254.394 107.383 254.095 107.383C253.889 107.383 253.704 107.427 253.542 107.517C253.381 107.606 253.254 107.737 253.161 107.908C253.068 108.08 253.022 108.288 253.022 108.533ZM258.473 111.15C258.123 111.15 257.814 111.062 257.545 110.885C257.277 110.706 257.067 110.454 256.916 110.129C256.764 109.802 256.688 109.416 256.688 108.971C256.688 108.529 256.764 108.146 256.916 107.821C257.067 107.496 257.278 107.245 257.548 107.068C257.818 106.891 258.13 106.802 258.484 106.802C258.758 106.802 258.975 106.848 259.133 106.939C259.294 107.029 259.416 107.131 259.5 107.246C259.586 107.359 259.653 107.452 259.7 107.525H259.755V105.455H260.401V111.062H259.777V110.416H259.7C259.653 110.493 259.585 110.59 259.497 110.707C259.41 110.822 259.285 110.925 259.122 111.016C258.96 111.105 258.744 111.15 258.473 111.15ZM258.561 110.57C258.82 110.57 259.039 110.502 259.218 110.367C259.397 110.23 259.533 110.041 259.626 109.8C259.719 109.558 259.766 109.277 259.766 108.96C259.766 108.646 259.72 108.371 259.629 108.136C259.538 107.898 259.403 107.714 259.224 107.583C259.045 107.449 258.824 107.383 258.561 107.383C258.287 107.383 258.059 107.453 257.877 107.594C257.696 107.732 257.56 107.921 257.469 108.16C257.379 108.398 257.335 108.664 257.335 108.96C257.335 109.259 257.38 109.531 257.471 109.776C257.564 110.018 257.701 110.212 257.882 110.356C258.065 110.498 258.291 110.57 258.561 110.57ZM262.912 111.161C262.645 111.161 262.403 111.111 262.186 111.01C261.969 110.908 261.796 110.761 261.669 110.57C261.541 110.376 261.477 110.143 261.477 109.869C261.477 109.628 261.524 109.433 261.619 109.283C261.714 109.131 261.841 109.013 262 108.927C262.159 108.841 262.334 108.777 262.526 108.735C262.719 108.691 262.913 108.657 263.109 108.631C263.364 108.598 263.572 108.574 263.73 108.557C263.891 108.539 264.008 108.509 264.081 108.467C264.156 108.425 264.193 108.352 264.193 108.248V108.226C264.193 107.956 264.119 107.746 263.971 107.596C263.825 107.447 263.603 107.372 263.306 107.372C262.997 107.372 262.756 107.439 262.58 107.574C262.405 107.709 262.282 107.854 262.211 108.007L261.597 107.788C261.707 107.532 261.853 107.333 262.036 107.191C262.22 107.047 262.421 106.946 262.638 106.89C262.857 106.831 263.072 106.802 263.284 106.802C263.419 106.802 263.574 106.819 263.749 106.852C263.927 106.883 264.097 106.947 264.261 107.046C264.428 107.145 264.565 107.293 264.675 107.492C264.784 107.691 264.839 107.958 264.839 108.292V111.062H264.193V110.493H264.16C264.116 110.584 264.043 110.682 263.941 110.786C263.839 110.89 263.703 110.979 263.533 111.052C263.363 111.125 263.156 111.161 262.912 111.161ZM263.01 110.581C263.266 110.581 263.481 110.53 263.656 110.43C263.833 110.33 263.967 110.2 264.056 110.041C264.147 109.882 264.193 109.715 264.193 109.54V108.949C264.166 108.982 264.105 109.012 264.012 109.039C263.921 109.065 263.815 109.088 263.695 109.108C263.576 109.126 263.46 109.142 263.347 109.157C263.236 109.17 263.145 109.181 263.076 109.19C262.908 109.212 262.751 109.247 262.605 109.297C262.461 109.344 262.344 109.416 262.255 109.513C262.167 109.608 262.123 109.737 262.123 109.902C262.123 110.126 262.206 110.296 262.372 110.411C262.54 110.524 262.753 110.581 263.01 110.581ZM267.847 106.857V107.405H265.668V106.857H267.847ZM266.303 105.849H266.949V109.858C266.949 110.04 266.976 110.177 267.029 110.269C267.084 110.358 267.153 110.418 267.237 110.449C267.323 110.478 267.413 110.493 267.508 110.493C267.579 110.493 267.638 110.489 267.683 110.482C267.729 110.473 267.765 110.466 267.793 110.46L267.924 111.041C267.88 111.057 267.819 111.073 267.741 111.09C267.662 111.108 267.563 111.117 267.442 111.117C267.26 111.117 267.081 111.078 266.906 111C266.732 110.921 266.588 110.801 266.473 110.641C266.36 110.48 266.303 110.278 266.303 110.033V105.849ZM268.819 111.062V106.857H269.466V111.062H268.819ZM269.148 106.156C269.022 106.156 268.913 106.113 268.822 106.027C268.733 105.942 268.688 105.839 268.688 105.718C268.688 105.598 268.733 105.494 268.822 105.409C268.913 105.323 269.022 105.28 269.148 105.28C269.274 105.28 269.382 105.323 269.471 105.409C269.562 105.494 269.608 105.598 269.608 105.718C269.608 105.839 269.562 105.942 269.471 106.027C269.382 106.113 269.274 106.156 269.148 106.156ZM272.358 111.15C271.978 111.15 271.645 111.06 271.358 110.879C271.073 110.698 270.851 110.446 270.69 110.121C270.531 109.796 270.452 109.416 270.452 108.982C270.452 108.544 270.531 108.161 270.69 107.834C270.851 107.508 271.073 107.254 271.358 107.073C271.645 106.893 271.978 106.802 272.358 106.802C272.737 106.802 273.069 106.893 273.354 107.073C273.641 107.254 273.863 107.508 274.022 107.834C274.183 108.161 274.263 108.544 274.263 108.982C274.263 109.416 274.183 109.796 274.022 110.121C273.863 110.446 273.641 110.698 273.354 110.879C273.069 111.06 272.737 111.15 272.358 111.15ZM272.358 110.57C272.646 110.57 272.883 110.496 273.069 110.348C273.256 110.2 273.393 110.006 273.483 109.765C273.572 109.524 273.617 109.263 273.617 108.982C273.617 108.701 273.572 108.439 273.483 108.196C273.393 107.953 273.256 107.757 273.069 107.607C272.883 107.458 272.646 107.383 272.358 107.383C272.069 107.383 271.832 107.458 271.646 107.607C271.459 107.757 271.322 107.953 271.232 108.196C271.143 108.439 271.098 108.701 271.098 108.982C271.098 109.263 271.143 109.524 271.232 109.765C271.322 110.006 271.459 110.2 271.646 110.348C271.832 110.496 272.069 110.57 272.358 110.57ZM275.896 108.533V111.062H275.249V106.857H275.874V107.514H275.928C276.027 107.301 276.177 107.129 276.377 106.999C276.578 106.868 276.837 106.802 277.155 106.802C277.44 106.802 277.689 106.861 277.902 106.978C278.116 107.093 278.282 107.268 278.401 107.503C278.519 107.737 278.579 108.033 278.579 108.39V111.062H277.933V108.434C277.933 108.104 277.847 107.846 277.675 107.662C277.504 107.476 277.268 107.383 276.969 107.383C276.763 107.383 276.578 107.427 276.416 107.517C276.255 107.606 276.128 107.737 276.035 107.908C275.942 108.08 275.896 108.288 275.896 108.533Z" fill="#28364D"/>
<path d="M441.223 444.421C441.178 438.799 440.831 429.804 438.119 425.615L425.937 403.114L413.383 408.543L421.922 429.791L392.071 444.421H441.223Z" fill="#561717"/>
<path d="M381.297 418.232C381.297 418.232 390.69 429.65 390.767 439.049H341.616L371.653 424.33L381.297 418.232Z" fill="#561717"/>
<path d="M411.848 245.515C392.843 248.965 374.743 255.757 374.743 255.757L371.659 257.723C371.659 257.723 342.271 314.134 337.735 330.923L366.121 425.614L386.34 420.911C386.34 420.911 366.918 345.026 368.518 336.294C369.346 331.752 377.423 319.403 384.985 308.596C384.355 309.129 383.719 309.65 383.07 310.164C383.719 309.656 384.355 309.129 384.985 308.596C391.962 298.624 398.497 289.957 398.497 289.957L395.805 297.108C406.714 282.581 412.06 264.096 411.848 245.509V245.515Z" fill="#694D17"/>
<path d="M454.728 257.054C452.408 241.949 431.636 241.923 411.841 245.515C403.039 261.378 401.195 274.517 395.798 297.114L381.296 335.632L414.475 422.267C414.475 422.267 427.756 426.295 435.53 416.895L414.475 336.981C414.475 336.981 459.277 286.673 454.734 257.061L454.728 257.054Z" fill="#7B5B00"/>
<path d="M295.452 93.9309C289.85 84.6339 279.152 90.6413 270.305 89.9024C271.211 91.091 272.682 92.376 274.905 92.5366C274.905 92.5366 284.947 90.6413 287.382 91.5922C289.817 92.5366 290.299 105.162 290.299 105.162L281.6 108.946C281.6 108.946 279.165 110.841 279.165 114.311L282.512 115.994C282.512 115.994 287.993 110.861 291.951 112.904C293.268 113.585 294.264 114.221 295.015 114.774C298.767 108.419 299.493 100.215 295.452 93.9245V93.9309Z" fill="#F7C7AC"/>
<path d="M306.562 95.0607L293.589 82.4355L269.123 87.8004C269.123 87.8004 269.476 88.8091 270.305 89.895C279.152 90.6338 289.85 84.6265 295.453 93.9234C299.494 100.207 298.768 108.418 295.016 114.773C296.513 115.878 297.001 116.623 297.001 116.623L309.601 115.993L306.555 95.0607H306.562Z" fill="#F5B591" stroke="#F5B591" stroke-width="0.32125" stroke-miterlimit="10"/>
<path d="M354.087 168.763C337.401 173.505 318.043 164.895 310.564 150.298C308.245 145.903 307.91 141.232 306.394 136.664C304.814 131.627 302.751 126.5 301.389 121.334L295.754 122.831C295.754 122.831 313.185 202.578 383.681 181.575L397.623 129.301L392.284 127.354C388.319 145.929 375.579 162.878 354.087 168.763Z" fill="#C0C2C2"/>
<path d="M353.361 147.637C332.762 147.567 310.089 119.021 310.089 119.021L301.389 121.334C302.751 126.499 304.814 131.626 306.394 136.664C307.904 141.232 308.245 145.909 310.564 150.297C318.043 164.889 337.401 173.498 354.087 168.763C375.579 162.884 388.319 145.935 392.284 127.354L389.347 126.281C389.347 126.281 373.953 147.708 353.355 147.637H353.361Z" fill="#D2D4D4"/>
<path d="M311.168 112.904L316.019 119.824L296.005 138.611L290.3 119.316C290.3 119.316 299.828 114.78 311.168 112.904Z" fill="#E8E9E9"/>
<path d="M298.472 124.642C298.35 125.336 297.592 125.767 296.783 125.613C295.973 125.458 295.414 124.771 295.536 124.083C295.658 123.39 296.416 122.959 297.226 123.113C298.036 123.268 298.595 123.949 298.472 124.642Z" fill="#A16F0E"/>
<path d="M391.834 136.014C391.834 136.014 391.86 135.989 391.873 136.014C391.86 135.989 391.847 136.04 391.834 136.014Z" fill="#F7C7AC"/>
<path d="M391.448 136.015C391.59 136.317 391.718 135.777 391.827 136.015C391.699 135.745 391.57 136.279 391.448 136.015Z" fill="#F7C7AC"/>
<path d="M391.975 136.014C392.02 136.104 392.059 135.93 392.097 136.014C392.059 135.93 392.014 136.104 391.975 136.014Z" fill="#F7C7AC"/>
<path d="M391.931 136.014C391.931 136.014 391.957 135.989 391.976 136.014C391.963 135.982 391.95 136.047 391.931 136.014Z" fill="#F7C7AC"/>
<path d="M391.23 136.014C391.301 136.161 391.371 135.853 391.448 136.014C391.378 135.866 391.307 136.181 391.23 136.014Z" fill="#F7C7AC"/>
<path d="M390.915 136.014C390.915 136.014 390.941 135.989 390.954 136.014C390.941 135.989 390.928 136.04 390.915 136.014Z" fill="#F7C7AC"/>
<path d="M390.761 136.014C390.812 136.124 390.864 135.912 390.909 136.014C390.812 135.815 390.761 136.014 390.761 136.014Z" fill="#F7C7AC"/>
<path d="M391.005 136.014C391.005 136.014 391.031 135.982 391.044 136.014C391.031 135.982 391.018 136.047 391.005 136.014Z" fill="#F7C7AC"/>
<path d="M391.044 136.014C391.108 136.149 391.172 135.885 391.23 136.014C391.166 135.872 391.102 136.136 391.044 136.014Z" fill="#F7C7AC"/>
<path d="M390.954 136.014C390.973 136.053 390.986 135.975 391.005 136.014C390.986 135.975 390.967 136.053 390.954 136.014Z" fill="#F7C7AC"/>
<path d="M392.097 136.014C392.123 136.079 392.156 135.956 392.181 136.014C392.156 135.956 392.13 136.079 392.097 136.014Z" fill="#F7C7AC"/>
<path d="M392.573 136.015C392.586 136.047 392.586 136.047 392.573 136.015V136.015Z" fill="#F7C7AC"/>
<path d="M392.528 136.014C392.547 136.053 392.56 135.994 392.573 136.014C392.567 135.994 392.547 136.059 392.528 136.014Z" fill="#F7C7AC"/>
<path d="M416.275 93.468C415.671 83.9076 420.027 53.0097 420.027 53.0097C420.027 53.0097 389.63 40.8022 375.007 42.19C368.903 50.6582 362.819 59.1649 356.914 67.9736C354.55 71.3981 352.417 75.2081 352.654 79.9176C352.654 84.2417 354.479 89.0026 359.022 88.7584C359.285 90.9622 360.499 107.976 360.499 107.976C360.801 109.113 361.193 110.237 361.694 111.342C365.067 117.799 372.206 118.847 378.412 118.339C386.887 117.709 391.789 127.077 397.173 136.014C397.629 136.683 398.086 135.147 398.49 136.014H415.979C415.979 136.014 416.879 103.035 416.268 93.4744L416.275 93.468Z" fill="#F7C7AC"/>
<path d="M397.179 136.014C391.795 127.077 386.893 117.709 378.418 118.339C372.212 118.846 365.067 117.805 361.701 111.342C361.199 110.237 360.808 109.119 360.506 107.975C360.467 105.726 359.291 90.9616 359.028 88.7579C354.485 89.002 352.661 84.2411 352.661 79.9171C352.429 75.2075 354.556 71.3911 356.92 67.973C362.825 59.1643 368.909 50.6576 375.013 42.1895C371.91 42.485 369.52 43.3845 368.273 45.1514L341.79 80.476L354.087 93.3196L358.912 126.787C358.912 126.787 386.893 117.709 390.761 136.014H398.49C398.092 135.146 397.636 136.682 397.173 136.014H397.179Z" fill="#F5B591" stroke="#F5B591" stroke-width="0.32125" stroke-miterlimit="10"/>
<path d="M392.232 136.014C392.303 136.168 392.373 135.898 392.425 136.014C392.373 135.905 392.309 136.181 392.232 136.014Z" fill="#F7C7AC"/>
<path d="M431.579 48.2292C431.579 48.2292 378.682 23.8207 366.822 21.9574L354.961 20.1006L365.742 28.2282L357.145 30.085L366.295 46.9635C366.295 46.9635 398.041 49.9897 407.325 53.517C416.609 57.0443 393.01 76.8076 393.01 76.8076L395.085 81.6328C395.085 81.6328 405.892 73.7172 406.078 78.0155C406.265 82.3074 404.427 86.3166 402.108 88.2698C399.782 90.223 416.39 115.994 416.39 115.994L421.248 111.663C421.248 111.663 420.065 86.7792 422.089 77.7071C424.107 68.635 431.585 48.2292 431.585 48.2292H431.579Z" fill="black"/>
<path d="M420.033 128.728C420.033 128.728 454.285 167.374 454.735 252.114C454.735 252.114 432.607 271.961 374.743 255.75C374.743 255.75 370.484 208.148 386.341 134.446C386.341 134.446 412.728 138.97 420.04 128.722L420.033 128.728Z" fill="#D2D4D4"/>
<path d="M420.034 124.359L393.273 129.557V144.547L424.647 134.453L420.034 124.359Z" fill="#C0C2C2"/>
<path d="M394.083 136.014L389.791 146.481C389.617 148.061 390.665 149.777 390.465 151.621C388.487 170.228 385.64 200.913 386.334 217.67L377.943 239.084L368.511 221.39C368.511 221.39 373.542 190.017 382.543 150.528C382.89 149.006 385.094 147.464 385.454 145.915C386.328 142.15 385.383 138.327 386.328 134.453L394.076 136.014H394.083Z" fill="#946902"/>
<path d="M311.965 198.921C312.62 196.975 312.993 195.426 312.993 195.426L303.252 185.949H281.42C274.218 185.949 269.123 186.605 269.123 186.605C269.123 186.605 268.827 191.854 274.667 191.488C280.501 191.121 289.368 191.488 289.368 191.488L276.1 195.426L255.36 195.767L268.975 203.502C274.751 206.304 280.668 202.584 289.368 197.675C297.695 192.818 304.891 193.672 311.965 198.921Z" fill="#F7C7AC"/>
<path d="M288.667 195.651C282.853 198.664 275.984 201.678 268.975 203.509L276.466 208.469C276.466 208.469 301.093 203.072 305.34 206.31C308.18 208.475 310.647 202.873 311.971 198.928C304.89 193.679 297 190.8 288.674 195.658L288.667 195.651Z" fill="#F5B591" stroke="#F5B591" stroke-width="0.32125" stroke-miterlimit="10"/>
<path d="M389.167 200.516C379.787 215.589 353.239 225.458 338.275 219.759C333.719 218.088 330.462 214.844 326.395 212.486C321.975 209.832 317.143 207.436 312.8 204.531L309.568 209.543C309.568 209.543 377.442 255.899 412.863 192.465C434.785 153.215 413.004 140.911 413.004 140.911L407.774 143.153C416.775 159.736 401.388 181.26 389.161 200.509L389.167 200.516Z" fill="#C0C2C2"/>
<path d="M368.447 188.174C353.052 202.373 317.805 196.79 317.805 196.79L312.812 204.532C317.149 207.436 321.987 209.832 326.408 212.486C330.475 214.844 333.732 218.095 338.288 219.759C353.251 225.452 381.393 218.77 390.773 203.697C403 184.447 416.788 159.743 407.793 143.16L404.915 144.394C404.915 144.394 383.847 173.974 368.459 188.174H368.447Z" fill="#D2D4D4"/>
<path d="M314.669 191.489L322.733 193.282L319.912 221.121L303.246 210.7C303.246 210.7 307.428 200.728 314.663 191.489H314.669Z" fill="#E8E9E9"/>
<path d="M312.761 209.01C313.115 209.608 312.832 210.456 312.132 210.906C311.425 211.356 310.57 211.227 310.217 210.63C309.864 210.032 310.146 209.184 310.853 208.734C311.553 208.291 312.408 208.413 312.768 209.01H312.761Z" fill="#A16F0E"/>
<path d="M42.2755 410.593L39.3457 431.41H89.6278C89.6278 431.41 78.5446 421.335 69.4725 421.001C60.4069 420.667 56.4491 407.907 56.4491 407.907L42.2691 410.593H42.2755Z" fill="#241E15"/>
<path d="M78.005 231.124C78.005 231.124 83.5626 325.301 76.842 347.461C70.1215 369.621 61.9617 415.476 61.9617 415.476L39.3393 416.131C39.3393 416.131 34.9703 318.838 27.1961 296.003C19.4218 273.169 5.1776 249.666 11.654 236.231C18.1304 222.803 77.9985 231.124 77.9985 231.124H78.005Z" fill="#2B2419"/>
<path d="M26.194 418.233L23.2642 439.049H73.5462C73.5462 439.049 62.4631 428.975 53.391 428.641C44.3253 428.307 40.3675 415.547 40.3675 415.547L26.1875 418.233H26.194Z" fill="#2B2419"/>
<path d="M78.0052 243.55C78.0052 243.55 67.4811 332.941 60.7605 355.101C54.04 377.261 45.8802 423.116 45.8802 423.116L23.2578 423.771C23.2578 423.771 27.4855 317.495 19.7112 294.661C11.937 271.826 -2.30727 248.324 4.16914 234.889C10.6455 221.461 78.0052 243.55 78.0052 243.55Z" fill="#342B1E"/>
<path d="M162.693 88.6744C169.67 80.4376 179.295 88.1604 188.142 88.9121C187.063 89.9337 185.412 90.9553 183.188 90.7432C183.188 90.7432 173.57 87.1902 171.02 87.7171C168.469 88.2439 166.027 100.625 166.027 100.625L174.02 105.816C174.02 105.816 176.127 108.091 175.588 111.522L172.022 112.62C172.022 112.62 167.415 106.639 163.194 107.988C161.787 108.438 160.701 108.9 159.879 109.318C157.161 102.417 157.726 94.1999 162.693 88.6744Z" fill="#F7C7AC"/>
<path d="M151.552 87.9358L166.323 77.6494L189.633 87.0428C189.633 87.0428 189.125 87.9808 188.142 88.9124C179.295 88.1607 169.67 80.4379 162.693 88.6747C157.726 94.2002 157.161 102.424 159.879 109.318C158.227 110.153 157.63 110.815 157.63 110.815L145.294 108.085L151.558 87.9358H151.552Z" fill="#F5B591" stroke="#F5B591" stroke-width="0.32125" stroke-miterlimit="10"/>
<path d="M93.1742 152.706C108.903 160.178 129.353 154.922 139.004 141.77C141.972 137.825 143.039 133.27 145.242 129.01C147.588 124.307 150.421 119.591 152.573 114.721L157.9 117.143C157.9 117.143 128.274 192.92 61.9744 160.39L56.3525 106.471L61.923 105.443C62.9446 124.442 72.8776 143.299 93.1742 152.706Z" fill="#C0C2C2"/>
<path d="M97.1838 131.984C117.525 135.364 144.343 110.988 144.343 110.988L152.567 114.727C150.415 119.597 147.588 124.313 145.236 129.016C143.033 133.269 141.972 137.831 138.998 141.776C129.347 154.922 108.897 160.184 93.1682 152.711C72.8716 143.312 62.9386 124.448 61.917 105.449L64.9817 104.884C64.9817 104.884 76.8358 128.605 97.171 131.984H97.1838Z" fill="#D2D4D4"/>
<path d="M144.227 104.769L138.361 110.782L155.188 132.672L163.824 114.586C163.824 114.586 155.124 108.514 144.227 104.769Z" fill="#E8E9E9"/>
<path d="M154.931 118.473C154.944 119.173 155.619 119.732 156.448 119.713C157.27 119.7 157.932 119.116 157.919 118.415C157.906 117.715 157.225 117.156 156.403 117.175C155.58 117.188 154.918 117.773 154.931 118.473Z" fill="#A16F0E"/>
<path d="M63.0091 119.63C63.0091 119.63 62.9832 119.604 62.9702 119.63C62.9832 119.604 62.9962 119.656 63.0091 119.63Z" fill="#F7C7AC"/>
<path d="M63.3937 119.63C63.2524 119.932 63.1239 119.393 63.0146 119.63C63.1431 119.36 63.2716 119.894 63.3937 119.63Z" fill="#F7C7AC"/>
<path d="M62.8672 119.63C62.8222 119.726 62.7837 119.546 62.7451 119.63C62.7837 119.546 62.8286 119.72 62.8672 119.63Z" fill="#F7C7AC"/>
<path d="M62.9124 119.63C62.9124 119.63 62.8865 119.604 62.8735 119.63C62.8865 119.597 62.8995 119.662 62.9124 119.63Z" fill="#F7C7AC"/>
<path d="M63.613 119.63C63.5423 119.778 63.4716 119.469 63.3945 119.63C63.4652 119.482 63.5359 119.797 63.613 119.63Z" fill="#F7C7AC"/>
<path d="M63.9281 119.63C63.9281 119.63 63.9021 119.604 63.8892 119.63C63.9021 119.604 63.9151 119.656 63.9281 119.63Z" fill="#F7C7AC"/>
<path d="M64.0814 119.63C64.03 119.739 63.9786 119.527 63.9336 119.63C64.03 119.43 64.0814 119.63 64.0814 119.63Z" fill="#F7C7AC"/>
<path d="M63.8377 119.63C63.8377 119.63 63.8118 119.597 63.7988 119.63C63.8118 119.597 63.8248 119.662 63.8377 119.63Z" fill="#F7C7AC"/>
<path d="M63.7991 119.63C63.7349 119.765 63.6706 119.501 63.6128 119.63C63.677 119.489 63.7413 119.752 63.7991 119.63Z" fill="#F7C7AC"/>
<path d="M63.8893 119.629C63.8698 119.668 63.8569 119.59 63.8374 119.629C63.8569 119.59 63.8763 119.668 63.8893 119.629Z" fill="#F7C7AC"/>
<path d="M62.7459 119.629C62.72 119.694 62.6876 119.571 62.6616 119.629C62.6876 119.571 62.7135 119.694 62.7459 119.629Z" fill="#F7C7AC"/>
<path d="M62.2695 119.63C62.2565 119.662 62.2565 119.662 62.2695 119.63V119.63Z" fill="#F7C7AC"/>
<path d="M62.3154 119.63C62.296 119.669 62.283 119.611 62.27 119.63C62.2765 119.611 62.296 119.675 62.3154 119.63Z" fill="#F7C7AC"/>
<path d="M32.6698 72.7464C33.2738 63.186 30.2026 36.0982 30.2026 36.0982C30.2026 36.0982 56.3524 16.624 79.8358 25.7989C85.9395 34.267 92.024 42.7737 97.9286 51.5824C100.293 55.0069 102.426 58.817 102.188 63.5265C102.188 67.8505 100.364 72.6114 95.8212 72.3673C95.5577 74.5711 94.3434 91.5845 94.3434 91.5845C94.0414 92.7217 93.6495 93.8461 93.1484 94.9512C89.7752 101.408 82.6306 102.456 76.4241 101.948C67.9495 101.318 63.0472 110.686 57.6631 119.623C57.2069 120.291 56.7507 118.756 56.346 119.623L34.8094 112.344C34.8094 112.344 32.0595 82.3068 32.6634 72.7464H32.6698Z" fill="#F7C7AC"/>
<path d="M57.6627 119.629C63.0469 110.692 67.9492 101.324 76.4237 101.954C82.6303 102.461 89.7749 101.421 93.148 94.957C93.6492 93.8519 94.0411 92.7339 94.3431 91.5903C94.3816 89.3415 95.5574 74.5769 95.8208 72.3731C100.363 72.6172 102.188 67.8563 102.188 63.5323C101.713 59.1055 100.293 55.0063 97.9282 51.5882C92.0236 42.7795 85.9392 34.2728 79.8354 25.8047C82.9387 26.1002 85.3288 26.9997 86.5752 28.7666L114.28 77.648L100.755 76.9284L95.93 110.396C95.93 110.396 67.9492 101.318 64.0813 119.623H56.3521C56.7504 118.755 57.2066 120.291 57.6692 119.623L57.6627 119.629Z" fill="#F5B591" stroke="#F5B591" stroke-width="0.32125" stroke-miterlimit="10"/>
<path d="M62.6102 119.63C62.5396 119.785 62.4689 119.515 62.4175 119.63C62.4689 119.521 62.5331 119.797 62.6102 119.63Z" fill="#F7C7AC"/>
<path d="M34.8098 112.351C34.8098 112.351 0.558148 155.476 0.108398 240.215C0.108398 240.215 22.2361 260.062 80.0996 243.852C80.0996 243.852 84.3594 191.771 68.5025 118.069C68.5025 118.069 42.115 122.593 34.8034 112.345L34.8098 112.351Z" fill="#D2D4D4"/>
<path d="M34.8099 107.982L61.5701 113.174V128.163L30.1968 118.07L34.8099 107.982Z" fill="#C0C2C2"/>
<path d="M60.7603 119.631L65.0521 130.097C65.2256 131.677 64.1783 133.393 64.3775 135.237C66.3564 153.844 69.2027 184.53 68.5088 201.286L76.8999 222.7L86.3317 205.006C86.3317 205.006 81.301 173.633 72.2995 134.145C71.9526 132.622 69.7488 131.08 69.389 129.532C68.5152 125.766 69.4597 121.944 68.5152 118.069L60.7667 119.631H60.7603Z" fill="#946902"/>
<path d="M142.878 197.257C142.223 195.31 141.85 193.762 141.85 193.762L151.59 184.285H173.423C180.625 184.285 185.72 184.941 185.72 184.941C185.72 184.941 186.016 190.19 180.175 189.824C174.341 189.457 165.475 189.824 165.475 189.824L178.742 193.762L199.482 194.103L185.868 201.838C180.092 204.64 174.174 200.919 165.475 196.011C157.148 191.153 149.952 192.008 142.872 197.257H142.878Z" fill="#F7C7AC"/>
<path d="M166.176 193.98C171.99 196.994 178.859 200.007 185.868 201.838L178.377 206.798C178.377 206.798 153.75 201.401 149.503 204.639C146.663 206.805 144.196 201.202 142.872 197.257C149.952 192.008 157.842 189.129 166.169 193.987L166.176 193.98Z" fill="#F5B591" stroke="#F5B591" stroke-width="0.32125" stroke-miterlimit="10"/>
<path d="M65.3539 188.519C72.3186 204.941 97.0291 219.038 112.668 215.864C117.416 214.964 121.129 212.292 125.505 210.628C130.278 208.732 135.412 207.158 140.141 205.006L142.57 210.486C142.57 210.486 68.4828 245.13 43.1812 176.691C27.5235 134.337 50.904 125.76 50.904 125.76L55.7292 128.831C44.312 143.73 56.2239 167.509 65.3603 188.519H65.3539Z" fill="#C0C2C2"/>
<path d="M87.7002 179.73C100.73 196.274 136.395 196.544 136.395 196.544L140.147 205.006C135.419 207.158 130.285 208.732 125.511 210.628C121.136 212.285 117.422 214.965 112.674 215.864C97.0357 219.032 70.2627 207.82 63.298 191.398C54.1617 170.388 44.3122 143.731 55.723 128.831L58.3765 130.521C58.3765 130.521 74.6703 163.186 87.7002 179.723V179.73Z" fill="#D2D4D4"/>
<path d="M140.296 191.821L132.059 192.271L130.594 220.219L148.642 212.657C148.642 212.657 146.033 202.127 140.296 191.814V191.821Z" fill="#E8E9E9"/>
<path d="M139.505 209.432C139.061 209.965 139.216 210.846 139.839 211.405C140.468 211.964 141.329 211.983 141.773 211.443C142.216 210.91 142.062 210.023 141.432 209.471C140.809 208.918 139.942 208.899 139.505 209.432Z" fill="#A16F0E"/>
<path d="M30.1967 15.2822C30.1967 15.2822 55.7682 -4.86662 80.1639 2.52213C104.56 9.91088 90.1291 31.4025 102.202 30.7279C102.202 30.7279 85.7729 47.3751 69.5819 42.0744C53.3909 36.7738 39.6479 39.5366 40.3675 42.1837C41.0871 44.8308 56.3464 68.0443 56.3464 68.0443H50.5768C50.5768 68.0443 44.8328 60.9447 40.3675 64.9731C35.9021 69.0016 36.4097 73.5184 40.3675 77.6368C44.3253 81.7617 37.7782 98.7494 37.7782 98.7494L30.1967 90.7952C30.1967 90.7952 21.0089 66.9777 15.175 58.9208C9.34756 50.8638 23.2577 32.7325 23.2577 32.7325C23.2577 32.7325 20.3793 21.4952 30.1967 15.2693V15.2822Z" fill="#DEDACA"/>
<path d="M80.1639 60.4318C80.2218 60.7787 81.0185 60.5281 80.9606 60.1555C80.2089 55.3817 88.2209 54.8549 90.0584 58.4272C90.1548 58.6135 90.5467 58.4786 90.5018 58.273C89.4866 53.4349 79.3158 55.2532 80.1639 60.4318Z" fill="#342B1E"/>
<path d="M90.8297 47.4266C90.8297 47.4266 78.8407 41.22 70.4175 49.8295C70.4175 49.8295 84.3469 47.5487 90.8297 47.4266Z" fill="#84776B"/>
<path d="M75.7884 73.4092C75.0559 72.8246 74.317 72.2206 73.546 71.5781C73.546 71.5781 73.1091 81.6268 77.5424 88.8421C77.8315 87.5507 78.0435 86.3363 78.0435 85.2634C77.5616 81.4019 75.6277 77.547 75.7884 73.4157V73.4092Z" fill="#342B1E"/>
<path d="M75.7885 73.4097C75.6343 77.541 77.5618 81.4024 78.0437 85.2574C78.0437 86.3304 77.8253 87.5512 77.5426 88.8362C80.0676 92.9482 84.1667 96.135 90.8359 96.0193L95.3655 94.2332L97.2095 84.9041C97.2095 84.9041 89.5894 84.4286 75.7885 73.4033V73.4097Z" fill="white"/>
<path d="M367.381 69.0338C367.381 70.6979 366.591 72.0472 365.614 72.0472C364.637 72.0472 363.847 70.6979 363.847 69.0338C363.847 67.3698 364.637 66.0205 365.614 66.0205C366.591 66.0205 367.381 67.3698 367.381 69.0338Z" fill="#342B1E"/>
<path d="M375.225 74.4887C373.002 74.63 370.811 75.144 368.646 75.6837C369.141 75.401 369.616 75.0926 370.098 74.7714C370.285 74.6429 370.246 74.4244 369.995 74.4629C368.531 74.7135 367.143 75.1697 365.736 75.6194C365.273 75.7672 364.804 75.8957 364.329 76.0114C364.701 75.9214 365.119 75.4717 365.414 75.2468C366.153 74.675 366.86 74.071 367.535 73.4221C367.663 73.3 367.567 73.178 367.406 73.2037C364.663 73.6084 361.964 74.7264 359.844 76.5318C359.683 76.6667 359.94 76.7245 360.05 76.641C361.701 75.401 363.481 74.4887 365.459 73.8847C365.935 73.7498 366.417 73.6405 366.899 73.557C366.924 73.557 366.063 74.3409 366.044 74.3601C365.286 75.0026 364.483 75.5873 363.693 76.1784C363.538 76.2941 363.673 76.4354 363.827 76.4097C365.035 76.1848 366.185 75.8058 367.355 75.4395C367.997 75.2404 368.961 75.1119 369.385 74.8292C368.627 75.3303 367.869 75.7672 367.021 76.0949C366.783 76.1849 366.757 76.5125 367.066 76.4418C369.758 75.7736 372.443 75.2725 375.168 74.7906C375.341 74.7585 375.515 74.4694 375.245 74.4887H375.225Z" fill="#F5B591" stroke="#F5B591" stroke-width="0.32125" stroke-miterlimit="10"/>
<path d="M364.644 59.2357C364.644 59.2357 370.593 50.1636 381.239 63.1228C381.239 63.1228 370.972 55.8176 364.644 59.2357Z" fill="black"/>
<path d="M357.987 99.533C357.987 99.533 371.267 96.1471 379.69 84.9033C379.69 84.9033 380.063 106.125 361.739 105.444L357.987 99.533Z" fill="white"/>
<defs>
<radialGradient id="paint0_radial_70_7021" cx="0" cy="0" r="1" gradientUnits="userSpaceOnUse" gradientTransform="translate(310.09 158.429) rotate(0.57) scale(21.5946 15.8464)">
<stop offset="0.24" stop-color="#C1421D"/>
<stop offset="0.53" stop-color="#B9002E"/>
<stop offset="0.91" stop-color="#811728"/>
<stop offset="0.98" stop-color="#66141F"/>
</radialGradient>
<radialGradient id="paint1_radial_70_7021" cx="0" cy="0" r="1" gradientUnits="userSpaceOnUse" gradientTransform="translate(212.145 172.775) rotate(159.42) scale(21.4392 15.8464)">
<stop offset="0.24" stop-color="#C1421D"/>
<stop offset="0.53" stop-color="#B9002E"/>
<stop offset="0.91" stop-color="#811728"/>
<stop offset="0.98" stop-color="#66141F"/>
</radialGradient>
</defs>
</svg>
