<svg width="438" height="422" viewBox="0 0 438 422" fill="none" xmlns="http://www.w3.org/2000/svg">
<g clip-path="url(#clip0_136_379)">
<path d="M79.3599 213.301C75.2399 198.231 67.3999 183.591 54.6399 174.591C41.8699 165.591 23.5999 163.451 10.6399 172.171C6.67989 174.831 3.24989 178.551 1.86989 183.111C-0.0501103 189.451 2.29989 196.411 6.15989 201.791C13.4899 212.001 25.4799 217.571 35.5299 225.121C50.5699 236.431 61.6499 252.891 66.4799 271.071C66.7599 272.141 67.0399 273.251 67.7399 274.111C69.8999 276.781 74.3599 275.321 76.7699 272.871C84.0699 265.421 81.8899 254.781 82.4499 245.421C83.1099 234.391 82.3299 224.081 79.3799 213.301H79.3599Z" fill="#E0EDCC"/>
<path d="M49.93 225.079C44.62 222.299 38.75 220.299 32.75 220.469C22.76 220.749 8.83996 226.479 2.90996 234.809C-7.59004 249.569 12.87 256.479 23.41 260.289C39.59 266.139 52.82 278.069 64.49 290.719C66.91 293.339 69.84 296.239 73.39 295.919C75.48 295.729 77.32 294.409 78.74 292.859C87.06 283.799 81.23 265.289 77.07 255.239C71.8 242.499 62.16 231.509 49.92 225.079H49.93Z" fill="#C5DF9F"/>
<path d="M77.4598 241.901C75.0598 235.781 70.3398 230.171 66.6098 224.781C62.4898 218.821 58.2798 212.921 53.9598 207.101C51.3398 203.571 48.6898 200.031 45.8698 196.651C46.3698 196.731 46.8898 196.511 47.0098 195.861C47.9098 191.101 48.2498 184.901 46.6198 180.261C46.1698 178.991 44.4898 179.271 44.3498 180.571C44.0898 183.051 44.4498 185.571 44.5798 188.061C44.7098 190.511 44.6498 192.951 44.8098 195.401C42.3398 192.531 39.7198 189.801 36.8698 187.321C36.7898 186.971 36.4998 186.681 36.0698 186.641C35.0998 185.821 34.0898 185.041 33.0598 184.291C33.5198 184.131 33.9098 183.731 33.9598 183.121C34.0798 181.621 33.8898 180.151 33.6598 178.671C33.4698 177.401 33.3598 175.981 32.3998 175.041C32.0298 174.681 31.4498 174.781 31.1798 175.201C30.4498 176.321 30.6598 177.791 30.7398 179.071C30.8298 180.431 30.9698 181.771 31.3198 183.081C30.4198 182.471 29.4998 181.881 28.5398 181.331C27.3498 180.651 26.2998 182.461 27.4698 183.161C29.4798 184.371 31.3698 185.721 33.1598 187.181C30.9998 187.701 28.8998 188.381 26.8398 189.251C24.4498 190.251 21.2198 191.131 19.8898 193.491C19.6398 193.941 19.9598 194.431 20.4498 194.461C22.8298 194.611 25.0298 192.931 27.1698 192.011C29.7898 190.881 32.4498 189.881 35.1098 188.841C41.8398 194.841 47.1698 202.351 52.3598 209.761C49.5898 209.141 46.7798 208.731 43.9498 208.431C40.5098 208.061 36.8598 207.271 33.6698 208.821C33.0698 209.111 33.1298 210.021 33.6698 210.331C36.5298 211.951 39.9098 211.581 43.1298 211.871C46.9698 212.211 50.7898 212.721 54.6298 213.041C58.0698 217.971 61.4498 222.941 64.7498 227.961C68.0598 233.001 70.8998 238.921 75.0298 243.311C75.9698 244.311 77.9798 243.281 77.4398 241.911L77.4598 241.901Z" fill="#C5DF9F"/>
<path d="M85.76 270.231C83.17 265.921 77.9299 262.831 73.9199 259.861C68.9399 256.161 63.77 252.711 58.45 249.531C53.12 246.341 47.63 243.451 41.98 240.861C41.36 240.571 40.74 240.291 40.12 240.011C40.14 239.891 40.14 239.761 40.11 239.611C39.52 236.881 38.42 234.341 36.67 232.151C35.29 230.431 32.83 227.541 30.39 227.811C29.74 227.881 29.39 228.461 29.67 229.071C30.53 230.901 33.01 232.011 34.36 233.521C35.8 235.141 36.95 236.991 37.76 238.991C34.62 237.721 31.41 236.831 27.87 237.131C26.82 237.221 26.78 238.811 27.87 238.801C33.81 238.751 39.4 242.171 44.54 244.831C48 246.621 51.42 248.511 54.79 250.491C51.36 250.611 47.97 251.251 44.62 251.951C41.24 252.661 37.29 253.071 34.43 255.091C33.79 255.541 34.03 256.471 34.82 256.541C38.1 256.811 41.44 255.481 44.63 254.811C48.28 254.051 51.99 253.551 55.59 252.591C56.17 252.441 56.4 251.921 56.35 251.431C57.08 251.871 57.8 252.301 58.52 252.741C62.84 255.411 67.0499 258.251 71.1399 261.261C75.4599 264.441 79.68 269.251 84.61 271.381C85.32 271.691 86.22 271.021 85.75 270.241L85.76 270.231Z" fill="#A8BF89"/>
<path d="M403.2 246.389C409.28 243.169 415.97 240.439 422.83 241.009C429.69 241.579 436.6 246.349 437.58 253.159C438.25 257.869 436.07 262.509 433.57 266.559C430.43 271.629 426.63 276.359 421.88 279.959C415.38 284.889 407.45 287.469 400.21 291.229C387.52 297.799 376.83 308.169 369.86 320.649C365.81 327.899 360.35 340.249 349.92 338.729C342.26 337.609 342.84 330.589 344.12 324.399C348.2 304.689 359.74 284.479 373.18 269.789C381.78 260.379 391.95 252.379 403.22 246.399L403.2 246.389Z" fill="#C5DF9F"/>
<path d="M346.21 242.22C349.47 227.3 354.47 212.58 362.82 199.8C371.17 187.01 383.09 176.22 397.47 171.06C403.04 169.06 409.58 168.02 414.63 171.12C419.1 173.87 421.26 179.23 422.26 184.39C426.56 206.75 414.23 228.87 400.13 246.76C386.04 264.65 369.29 281.46 362.27 303.12C359.24 312.46 355.21 326.7 342.33 322.95C334.66 320.72 333.95 315.03 335.3 308.11C337.11 298.86 339.99 290.47 340.81 280.97C341.93 267.96 343.43 254.99 346.22 242.22H346.21Z" fill="#E0EDCC"/>
<path d="M422.78 264.199C421.61 262.959 419.82 263.149 418.2 262.939C416.3 262.689 414.41 262.449 412.51 262.199C415.64 260.139 418.88 258.259 422.26 256.579C423.35 256.039 422.39 254.499 421.32 254.979C414.56 257.949 408.36 261.719 402.57 266.049C403.07 264.149 403.63 262.269 404.25 260.409C405.12 257.799 406.77 255.099 406.8 252.329C406.8 251.579 405.92 251.309 405.41 251.749C403.38 253.509 402.58 256.629 401.72 259.099C400.64 262.179 399.92 265.359 399.33 268.569C393.63 273.159 388.32 278.279 383.26 283.699C377.78 289.579 372.69 295.799 367.61 302.019C364.55 305.769 361.48 309.509 358.45 313.289C356.05 316.289 353.01 319.219 351.72 322.879C351.41 323.749 352.51 324.509 353.25 324.059C356.91 321.839 359.46 317.689 362.15 314.399C364.82 311.129 367.47 307.829 370.13 304.549C375.03 298.509 379.98 292.529 385.14 286.719C385.84 285.939 386.54 285.159 387.25 284.379C390.61 283.979 393.98 283.579 397.34 283.179C400.38 282.819 403.79 283.019 406.4 281.309C406.87 280.999 406.78 280.309 406.25 280.129C403.29 279.139 400.04 280.219 397 280.639C394.59 280.979 392.19 281.319 389.79 281.659C396.2 274.919 403.12 268.649 410.75 263.389C410.83 263.689 411.03 263.939 411.38 263.999C413.55 264.379 415.72 264.759 417.89 265.149C419.51 265.439 421.13 266.129 422.63 265.289C423.02 265.069 423.06 264.529 422.77 264.219L422.78 264.199Z" fill="#A8BF89"/>
<path d="M404.8 205.951C402.17 206.011 399.61 207.621 397.1 208.381C395.39 208.901 393.65 209.341 391.91 209.721C395.38 205.051 399.02 200.501 402.84 196.121C403.82 194.991 402.24 193.361 401.18 194.461C394.01 201.871 387.4 209.771 381.41 218.101C381.4 217.011 381.36 215.921 381.31 214.831C381.21 212.811 381.43 210.571 380.25 208.851C379.91 208.361 379.12 208.261 378.81 208.851C377.74 210.841 378.25 213.151 378.38 215.331C378.51 217.381 378.68 219.421 379.06 221.431C372.74 230.591 367.16 240.271 362.43 250.411C361.34 252.751 360.29 255.111 359.28 257.491C358.45 254.501 357.71 251.491 357.12 248.451C356.27 244.071 356.44 239.041 354.43 235.041C354.05 234.291 353.01 234.581 352.77 235.261C351.34 239.261 352.57 244.441 353.35 248.561C354.24 253.291 355.59 257.831 357.3 262.301C354.77 268.631 352.52 275.081 350.63 281.631C349 287.261 347.59 292.961 346.43 298.711C345.44 303.631 344.31 308.841 345.31 313.821C345.49 314.701 346.84 314.871 347.25 314.071C349.49 309.711 350.05 304.751 351.04 299.981C352.18 294.501 353.52 289.061 355.07 283.691C358.2 272.871 362.06 262.281 366.78 252.051C368.23 248.921 369.75 245.831 371.33 242.761C374.38 241.821 377.39 240.771 380.33 239.521C383.26 238.271 386.84 237.011 389.08 234.681C389.66 234.081 389.08 233.141 388.29 233.321C385.49 233.941 382.95 235.761 380.34 236.961C377.83 238.111 375.29 239.171 372.71 240.121C377.89 230.361 383.74 220.951 390.23 212.001C392.77 211.781 395.28 211.411 397.76 210.741C400.31 210.051 403.59 209.401 405.42 207.421C405.9 206.901 405.58 205.951 404.82 205.961L404.8 205.951Z" fill="#C5DF9F"/>
<path d="M267.38 35.33C270.01 34.66 273.26 32.67 272.31 30.13C268.72 28.79 264.78 28.4 260.99 29.01C262.44 25.5 262.72 21.23 260.59 18.08C258.46 14.93 253.46 13.72 250.71 16.35C252.88 12.96 252.01 8.20996 249.37 5.16996C246.73 2.12996 242.68 0.599964 238.68 0.129964C227.39 -1.19004 214.93 7.26996 214.76 18.6C214.83 13.73 203.76 15.07 201.57 16.38C196.57 19.37 195.54 25.68 196.69 30.89C193.67 30.53 180.55 28.44 183.54 33.97C185.55 37.69 198.31 38.65 201.86 39.1C222.24 41.68 247.51 40.44 267.38 35.33Z" fill="#DCF1FC"/>
<path d="M99.7398 95.22C101.27 95.14 103.17 94.79 103.59 93.31C104.03 91.74 102.36 90.41 100.83 89.82C97.4298 88.5 93.5798 88.34 90.0798 89.36C90.3798 85.47 90.6798 81.5 89.8298 77.69C88.9798 73.88 86.7998 70.16 83.2998 68.41C78.8198 66.16 73.1798 67.65 69.2398 70.76C65.2998 73.86 62.6998 78.3 60.1898 82.63C58.9598 77.14 52.8998 73.38 47.3298 74.25C41.7598 75.13 37.2798 80.18 36.6098 85.76C36.6698 85.24 15.9598 81.43 19.6898 92.24C21.4998 97.48 31.2898 96.43 35.5098 96.49C56.9098 96.82 78.3598 96.28 99.7298 95.21L99.7398 95.22Z" fill="#DCF1FC"/>
<path d="M334.92 154.509C333.39 154.429 331.49 154.079 331.07 152.599C330.63 151.029 332.3 149.699 333.83 149.109C337.23 147.789 341.08 147.629 344.58 148.649C344.28 144.759 343.98 140.789 344.83 136.979C345.68 133.169 347.86 129.449 351.36 127.699C355.84 125.449 361.48 126.939 365.42 130.049C369.36 133.159 371.96 137.589 374.47 141.919C375.7 136.429 381.76 132.669 387.33 133.539C392.9 134.419 397.38 139.469 398.05 145.049C397.99 144.529 418.7 140.719 414.97 151.529C413.16 156.769 403.36 155.719 399.15 155.779C377.75 156.109 356.3 155.569 334.93 154.499L334.92 154.509Z" fill="#DCF1FC"/>
<path d="M21.7599 323.94C20.2999 326.47 19.0699 329.36 19.5499 332.24C20.3299 337 25.2299 339.81 29.7299 341.53C57.6699 352.26 89.6199 347.79 117.69 358.19C120.11 359.09 122.95 360.8 122.63 363.37C122.46 364.74 121.39 365.81 120.33 366.71C109.71 375.68 95.2099 378.01 81.6599 381.12C68.1099 384.23 53.6399 389.32 46.4299 401.21C44.7799 403.94 43.5499 407.2 44.3499 410.28C45.5799 415.04 50.8899 417.38 55.6499 418.63C95.5599 429.07 136.4 409.76 176.95 402.2C201.04 397.71 225.69 397.39 250.19 397.69C288.35 398.16 326.49 400.11 364.5 403.52C383.2 405.2 402.59 407.16 420.31 400.92C427.36 398.44 434.76 393.53 435.44 386.09C436 379.98 431.71 374.45 426.88 370.68C407.36 355.45 378.75 358.89 357.12 346.85C353.6 344.89 350.13 342.34 348.57 338.61C347.57 336.22 347.44 333.51 346.33 331.17C344.77 327.9 341.55 325.82 338.48 323.9C323.34 314.44 307.99 304.89 290.99 299.44C276.49 294.8 261.19 293.28 245.98 292.49C207.13 290.47 168.2 293.02 129.38 295.56C108.96 296.9 87.8499 296.72 67.5899 299.58C59.2899 300.75 50.3799 302.9 42.6799 306.17C38.1399 308.1 23.3499 323.93 21.7699 323.93L21.7599 323.94Z" fill="#E3E4E9"/>
<path d="M290.03 367.101C312.58 361.671 350.62 317.961 352.34 311.041C354.07 304.131 320.24 305.611 320.24 305.611L279.25 351.541L290.03 367.101Z" fill="#B04230"/>
<path d="M347.32 259.091C347.32 259.091 343.7 297.981 345.34 311.111C346 316.381 292.66 364.451 285.41 363.791C278.17 363.131 275.53 321.641 275.53 318.351C275.53 315.061 286.73 280.811 286.73 280.811L309.12 270.931L347.32 259.081V259.091Z" fill="#FFE6AB"/>
<path d="M353.9 257.121C357.19 261.731 302.53 290.051 295.29 296.631C288.05 303.221 284.68 352.861 290.02 367.091C292 372.361 57.5502 330.871 45.0402 321.651C32.5302 312.431 41.7502 266.991 47.6702 259.091C53.6002 251.191 149.09 240.651 158.96 239.991C168.84 239.331 350.6 252.501 353.89 257.111L353.9 257.121Z" fill="#F05B45"/>
<path d="M343.38 275.87C335.71 278.63 328.39 283.31 321.34 287.35C313.75 291.69 305.97 296.03 298.94 301.26C297.87 302.06 298.78 303.75 300.01 303.09C307.48 299.09 314.6 294.43 321.99 290.27C329.31 286.14 337.33 282.71 344.29 278.03C345.33 277.33 344.71 275.4 343.38 275.88V275.87Z" fill="#FDD388"/>
<path d="M321.01 301.521C316.94 302.741 313.33 305.661 309.73 307.881C305.6 310.431 301.54 313.061 297.46 315.681C296.64 316.211 297.37 317.461 298.23 316.991C302.47 314.651 306.72 312.321 310.92 309.901C314.58 307.791 318.88 306.001 321.88 303.001C322.5 302.381 321.88 301.251 321.01 301.511V301.521Z" fill="#FDD388"/>
<path d="M342.62 289.09C340.19 289.48 337.89 291.38 335.8 292.65C333.37 294.13 330.87 295.59 328.6 297.29C327.7 297.96 328.45 299.28 329.48 298.8C332.21 297.52 334.84 295.92 337.43 294.37C339.5 293.14 341.98 292.11 343.46 290.18C343.9 289.6 343.17 289.01 342.62 289.09Z" fill="#FDD388"/>
<path d="M336.97 304.881C332.2 308.171 327.4 311.431 322.71 314.841C318.57 317.851 313.52 320.631 310.19 324.541C309.61 325.221 310.32 326.071 311.11 325.731C316.25 323.541 320.89 319.091 325.36 315.751C329.59 312.591 333.71 309.291 337.87 306.041C338.53 305.531 337.66 304.401 336.97 304.881Z" fill="#FDD388"/>
<path d="M301.34 329.451C299.49 331.131 297.56 332.721 295.63 334.311C293.96 335.681 291.6 336.921 290.62 338.921C290.42 339.321 290.65 339.981 291.19 339.921C293.41 339.671 295.14 337.971 296.81 336.601C298.95 334.841 300.9 332.921 302.79 330.901C303.69 329.931 302.32 328.571 301.34 329.451Z" fill="#FDD388"/>
<path d="M328.59 319.731C319.8 324.451 311.76 332.521 304.84 339.601C304.12 340.341 305.17 341.301 305.94 340.701C309.98 337.521 313.92 334.231 317.93 331.011C321.88 327.841 326.25 324.901 329.76 321.251C330.53 320.451 329.56 319.211 328.59 319.731Z" fill="#FDD388"/>
<path d="M341.82 310.84C340.78 311.17 340.05 312.06 339.22 312.73C338.25 313.52 337.21 314.19 336.12 314.79C335.09 315.36 336.01 316.92 337.04 316.36C338.17 315.75 339.24 315.05 340.25 314.26C341.16 313.54 342.27 312.75 342.58 311.58C342.69 311.15 342.28 310.69 341.83 310.83L341.82 310.84Z" fill="#FDD388"/>
<path d="M45.0504 321.661C57.5604 330.881 292 372.371 290.03 367.101C284.83 353.241 287.88 305.801 294.74 297.251C265.89 291.181 47.6904 259.101 47.6904 259.101C41.7604 267.001 32.5404 312.441 45.0604 321.661H45.0504Z" fill="#D94934"/>
<path d="M345.18 204.351C354.96 211.141 352.47 249.421 348.99 255.381C345.51 261.351 237.14 291.671 226.71 292.661C216.27 293.651 50.2402 246.431 44.7802 240.961C39.3102 235.491 60.6902 230.521 60.6902 230.521L345.19 204.341L345.18 204.351Z" fill="#38A8D0"/>
<path d="M52.7304 195.241C52.7304 195.241 63.0904 222.501 52.7304 237.001C50.2404 240.481 222.24 285.221 227.21 285.221C232.18 285.221 331.1 256.891 340.55 252.911C349.99 248.931 345.02 206.681 340.05 203.701C335.08 200.721 161.59 199.231 161.59 199.231L52.7304 195.251V195.241Z" fill="#FFE6AB"/>
<path d="M340.04 203.691C338.09 202.521 310.18 201.581 276.99 200.871L223.9 221.971C224.76 243.001 225.61 264.031 226.47 285.051C226.47 285.071 226.47 285.101 226.47 285.121C226.82 285.181 227.07 285.211 227.2 285.211C232.17 285.211 331.09 256.881 340.54 252.901C349.98 248.921 345.01 206.671 340.04 203.691Z" fill="#FDD388"/>
<path d="M48.9203 193.751C41.3103 198.941 204.67 228.881 220.58 228.881C236.49 228.881 334.34 207.691 345.18 204.361C358.1 200.381 207.32 186.301 193.9 185.301C180.48 184.311 52.5603 191.271 48.9203 193.751Z" fill="#85D2F5"/>
<path d="M298.74 222.87C294.07 222.78 289.18 224.64 284.65 225.71C279.16 227.01 273.68 228.39 268.2 229.73C257.54 232.33 246.94 235.17 236.27 237.7C235.63 237.85 235.9 238.82 236.54 238.69C247.29 236.41 258.09 234.36 268.83 232.01C274.04 230.87 279.26 229.74 284.45 228.54C289.28 227.42 294.8 226.87 299.19 224.54C299.99 224.11 299.59 222.9 298.74 222.88V222.87Z" fill="#FFE6AB"/>
<path d="M334.58 214.521C331 214.161 327.18 215.581 323.68 216.381C319.59 217.321 315.51 218.271 311.43 219.271C310.66 219.461 310.8 220.781 311.62 220.691C315.59 220.251 319.52 219.671 323.46 218.971C327.25 218.291 331.66 217.981 334.96 215.931C335.64 215.511 335.3 214.591 334.58 214.521Z" fill="#FFE6AB"/>
<path d="M340.11 222.921C333.8 224.171 327.64 226.181 321.4 227.761C315.18 229.341 308.73 230.351 302.66 232.411C301.92 232.661 301.98 233.931 302.86 233.861C309.32 233.361 315.72 231.461 321.98 229.831C328.25 228.201 334.62 226.591 340.58 224.021C341.25 223.731 340.74 222.791 340.11 222.911V222.921Z" fill="#FFE6AB"/>
<path d="M250.89 243.501C248.4 243.251 245.78 244.201 243.34 244.731C240.51 245.341 237.7 246.041 234.89 246.731C234 246.951 234.39 248.231 235.26 248.081C238.12 247.581 240.99 247.091 243.84 246.521C246.3 246.031 249 245.861 251.2 244.621C251.77 244.301 251.46 243.541 250.89 243.491V243.501Z" fill="#FFE6AB"/>
<path d="M294.11 233.71C288.35 234.1 282.6 235.99 276.96 237.16C270.74 238.46 264.46 239.59 258.2 240.66C257.35 240.81 257.53 242.28 258.41 242.19C264.55 241.56 270.61 240.67 276.67 239.51C282.56 238.38 288.98 237.46 294.43 234.87C294.99 234.61 294.72 233.66 294.11 233.7V233.71Z" fill="#FFE6AB"/>
<path d="M320.46 239.811C308.96 240.531 297.12 243.961 285.97 246.751C274.06 249.731 262.32 253.161 250.68 257.071C249.83 257.361 250.18 258.671 251.05 258.421C262.53 255.151 274.1 252.111 285.72 249.411C297.27 246.731 309.39 245.301 320.75 241.971C321.9 241.631 321.73 239.731 320.46 239.811Z" fill="#FFE6AB"/>
<path d="M337.63 236.481C336.37 236.161 335.16 236.981 333.97 237.361C332.36 237.881 330.78 238.141 329.09 238.101C327.87 238.081 327.93 239.831 329.09 239.961C330.91 240.161 332.82 240.111 334.59 239.611C335.91 239.241 337.65 238.661 338.05 237.231C338.14 236.921 337.94 236.561 337.63 236.481Z" fill="#FFE6AB"/>
<path d="M241.03 260.151C239.62 260.691 238.2 261.231 236.79 261.761C235.74 262.161 234.36 262.381 233.81 263.451C233.63 263.791 233.79 264.161 234.15 264.291C235.3 264.691 236.46 263.871 237.52 263.421C238.84 262.871 240.16 262.311 241.48 261.761C242.44 261.351 242.06 259.761 241.04 260.151H241.03Z" fill="#FFE6AB"/>
<path d="M288.7 258.621C280.72 259.291 272.58 262.311 264.85 264.331C256.4 266.541 247.96 268.771 239.54 271.111C238.67 271.351 239.03 272.671 239.91 272.461C248.42 270.481 256.91 268.401 265.39 266.291C273.15 264.361 281.73 263.111 289.05 259.881C289.66 259.611 289.36 258.551 288.71 258.611L288.7 258.621Z" fill="#FFE6AB"/>
<path d="M329.95 246.871C326.19 246.701 322.45 248.171 318.83 249.091C314.68 250.151 310.52 251.201 306.37 252.241C305.26 252.521 305.75 254.111 306.83 253.921C311.07 253.191 315.27 252.361 319.47 251.411C323.1 250.581 327.09 250.041 330.26 248.001C330.77 247.671 330.56 246.901 329.95 246.871Z" fill="#FFE6AB"/>
<path d="M163.1 226.141C159.74 224.231 155.79 223.711 152.04 222.871C147.73 221.901 143.42 220.961 139.1 220.051C130.46 218.231 121.8 216.521 113.11 214.931C96.27 211.841 79.33 209.501 62.31 207.621C61.64 207.551 61.47 208.711 62.15 208.811C79.25 211.481 96.31 214.491 113.33 217.671C121.7 219.231 130.05 220.901 138.37 222.671C142.69 223.591 147 224.541 151.3 225.511C155.05 226.361 158.86 227.661 162.72 227.461C163.41 227.421 163.73 226.481 163.08 226.121L163.1 226.141Z" fill="#FDD388"/>
<path d="M196.81 232.441C189.9 227.901 179.45 227.371 171.42 226.351C169.8 226.151 169.41 228.971 171.03 229.221C175.54 229.921 180.01 230.791 184.47 231.771C188.39 232.641 192.37 234.011 196.41 233.921C197.22 233.901 197.47 232.871 196.81 232.441Z" fill="#FDD388"/>
<path d="M211.45 234.831C210.71 233.941 209.7 233.831 208.62 233.601C207.42 233.351 206.22 233.091 205.03 232.841C203.51 232.521 202.86 234.851 204.38 235.181C205.66 235.461 206.93 235.741 208.2 236.021C209.32 236.271 210.22 236.521 211.29 235.991C211.75 235.761 211.72 235.171 211.44 234.831H211.45Z" fill="#FDD388"/>
<path d="M207.84 242.62C202.79 240.9 196.97 240.86 191.68 240.2C185.74 239.45 179.8 238.74 173.87 237.99C161.43 236.42 149.02 234.66 136.63 232.68C135.82 232.55 135.47 233.79 136.29 233.92C148.4 235.95 160.53 237.94 172.67 239.81C178.06 240.64 183.46 241.46 188.87 242.18C194.9 242.98 201.58 244.64 207.65 244.08C208.47 244 208.66 242.91 207.85 242.63L207.84 242.62Z" fill="#FDD388"/>
<path d="M128.99 230.431C124.93 228.101 119.42 227.751 114.84 227.941C113.97 227.981 113.96 229.311 114.84 229.311C119.72 229.291 123.73 230.771 128.34 231.961C129.25 232.191 129.82 230.911 128.98 230.441L128.99 230.431Z" fill="#FDD388"/>
<path d="M107.5 226.941C101.85 224.851 95.34 224.391 89.43 223.151C83.4 221.891 77.39 220.501 71.41 219.011C70.46 218.771 70.06 220.221 71.01 220.471C77.26 222.131 83.54 223.681 89.86 225.081C95.5 226.341 101.54 228.251 107.34 228.231C108.12 228.231 108.2 227.181 107.52 226.931L107.5 226.941Z" fill="#FDD388"/>
<path d="M183.42 255.161C176.15 251.841 166.87 251.291 159.05 249.731C150.91 248.121 142.79 246.461 134.67 244.751C117.8 241.201 100.98 237.441 84.0802 234.061C83.3902 233.921 83.1002 234.931 83.7902 235.121C100.42 239.651 117.21 243.411 134.06 246.991C142.17 248.711 150.29 250.391 158.43 252.021C166.24 253.591 175.2 256.581 183.17 256.111C183.63 256.081 183.93 255.381 183.43 255.161H183.42Z" fill="#FDD388"/>
<path d="M209.64 259.711C207.21 258.031 203.65 258.381 200.82 257.911C197.42 257.351 194.1 256.581 190.81 255.551C189.47 255.131 189.03 257.091 190.25 257.601C193.85 259.111 197.52 260.371 201.37 261.061C204.11 261.551 207.12 262.391 209.64 260.961C210.14 260.681 210.07 260.011 209.64 259.721V259.711Z" fill="#FDD388"/>
<path d="M211.48 252.791C206.26 250.781 200.09 250.551 194.57 249.721C193.28 249.531 192.72 251.501 194.03 251.691C199.59 252.541 205.71 254.171 211.35 253.791C211.94 253.751 212.02 252.991 211.49 252.781L211.48 252.791Z" fill="#FDD388"/>
<path d="M76.4499 232.341C75.2299 231.461 73.4499 231.431 71.9799 231.161C70.2699 230.841 68.5499 230.531 66.8399 230.211C65.6499 229.991 65.1399 231.821 66.3399 232.041C68.1799 232.371 70.0199 232.701 71.8599 233.031C73.3299 233.291 74.8499 233.851 76.3099 233.451C76.8499 233.301 76.8599 232.631 76.4499 232.341Z" fill="#FDD388"/>
<path d="M181.6 267.001C173.2 263.791 163.79 262.381 155.09 260.091C146.26 257.761 137.43 255.411 128.65 252.901C128.13 252.751 127.92 253.541 128.43 253.701C137.43 256.611 146.46 259.401 155.58 261.891C163.99 264.191 172.77 267.271 181.46 268.111C182.14 268.181 182.16 267.201 181.61 266.991L181.6 267.001Z" fill="#FDD388"/>
<path d="M208.28 273.131C206.33 271.681 203.14 271.441 200.82 270.881C199.56 270.581 199.02 272.551 200.29 272.821C202.69 273.341 205.71 274.511 208.17 274.031C208.63 273.941 208.59 273.361 208.29 273.131H208.28Z" fill="#FDD388"/>
<path d="M118.36 250.401L115.01 249.651C114.09 249.441 113.12 249.021 112.2 249.341C111.83 249.471 111.66 249.931 111.97 250.231C112.67 250.911 113.67 250.941 114.6 251.141C115.72 251.381 116.84 251.621 117.96 251.871C118.91 252.081 119.32 250.621 118.36 250.411V250.401Z" fill="#FDD388"/>
<path d="M200.35 175.89C179.79 177.01 33.3302 149.38 25.3702 142.09C17.4102 134.8 223.55 40.6803 236.81 40.0203C250.07 39.3603 370.03 128.17 372.02 137.45C374.01 146.73 236.81 173.9 200.36 175.89H200.35Z" fill="#6A6462"/>
<path d="M107.56 139.44C98.92 143.08 105.57 188.49 106.9 197.1C108.23 205.72 179.14 216.98 221.56 213.67C263.98 210.36 286.51 197.1 294.47 186.5C301.08 177.69 297.17 147.86 295.65 138C295.34 135.96 293.98 134.26 292.08 133.47C276.3 126.91 201.06 100.05 107.56 139.45V139.44Z" fill="#413E3C"/>
<path d="M91.0903 103.22C97.7903 91.1502 111.24 87.8102 124.32 88.0202C126.74 86.8802 129.17 85.7502 131.6 84.6202C119.37 81.2902 106.01 80.5102 94.9003 87.8002C82.1803 96.1502 78.1003 112 78.9703 126.43C80.1503 145.93 87.6303 164.15 87.2303 183.92C87.0303 193.88 85.6403 203.8 83.0103 213.41C80.4603 222.73 74.9003 231.89 73.6203 241.4C73.2003 244.52 76.5103 247.03 79.1203 244.6C89.5903 234.86 92.6303 215.47 94.4303 201.98C96.5603 186.03 95.6603 169.93 92.2803 154.22C88.7903 137.98 82.3403 118.97 91.0803 103.21L91.0903 103.22Z" fill="#FFD700"/>
<path d="M84.18 324.689C57.64 322.849 61.42 411.259 91.99 403.969C122.56 396.679 123.69 353.289 123.69 353.289L110.18 337.489L96.38 329.219L84.18 324.689Z" fill="#BFA57E"/>
<path d="M80.8801 335.199C68.1801 335.639 69.7901 394.959 88.5801 388.259C107.37 381.559 102.95 354.619 102.95 354.619L93.0901 341.629L80.8801 335.199Z" fill="#947352"/>
<path d="M83.1303 359.889C71.3503 360.479 79.4603 391.809 88.5703 388.259C97.6803 384.709 103.68 363.589 103.68 363.589L94.3003 359.199L83.1303 359.889Z" fill="#5B442D"/>
<path d="M98.5801 369.69L88.2401 371.15C88.2401 371.15 87.9201 363.52 83.1401 359.89L98.4501 357.04L98.5801 369.69Z" fill="#785D41"/>
<path d="M105.16 335.409C105.16 335.409 85.3799 334.689 80.8799 335.209C80.8799 335.209 105.06 357.179 88.5799 388.269C88.5799 388.269 108.85 382.129 119.2 380.669C129.54 379.209 124.78 356.319 124.78 356.319L105.16 335.409Z" fill="#A6805D"/>
<path d="M84.1804 324.69C84.1804 324.69 98.9404 327.12 103.26 360.35C107.59 393.59 91.9804 403.97 91.9804 403.97C91.9804 403.97 210.67 377.38 267.47 373.77C324.27 370.16 400.35 372.25 400.35 372.25C400.35 372.25 417.06 355.1 412.09 329.65C407.12 304.2 386.45 293.54 386.45 293.54C386.45 293.54 330.87 316.61 252.2 324.52C173.53 332.43 84.1704 324.69 84.1704 324.69H84.1804Z" fill="#DEBF8F"/>
<path d="M83.5202 327.1C84.0202 327.18 84.4902 327.39 84.9702 327.57C84.2102 327.29 84.8402 327.52 85.1702 327.68C85.5002 327.84 85.8002 328.01 86.1002 328.19C86.4002 328.37 86.7202 328.57 87.0202 328.78C87.1702 328.89 87.3202 329 87.4702 329.1C88.0302 329.5 87.2302 328.88 87.7802 329.34C92.1302 333.05 94.8602 337.96 96.8602 343.53C100.49 353.62 102.03 364.88 101.41 375.58C101 382.63 99.3902 389.72 95.8202 395.7C95.4902 396.25 95.1502 396.79 94.7902 397.32C94.6102 397.58 94.4402 397.83 94.2502 398.08C94.1502 398.22 93.6302 398.89 94.0002 398.42C93.4102 399.16 92.7902 399.88 92.1202 400.55C91.6902 400.98 91.2302 401.37 90.7802 401.78C90.3002 402.21 91.3502 401.4 90.7402 401.81C88.3902 403.38 89.8402 407.01 92.6702 406.38C104.61 403.71 116.58 401.19 128.56 398.73C154.04 393.49 179.59 388.56 205.24 384.29C218.08 382.15 230.95 380.17 243.87 378.58C256.38 377.04 268.89 376.1 281.48 375.51C312.66 374.07 343.9 373.94 375.11 374.3C383.02 374.39 390.94 374.52 398.85 374.71C400.48 374.75 401.66 374.6 402.81 373.27C405.43 370.25 407.66 366.85 409.5 363.3C416.44 349.87 417.39 334.15 411.96 320.01C407.83 309.26 400.44 299.92 390.97 293.38C389.62 292.45 387.49 290.65 385.72 291.16C384.45 291.53 383.2 292.16 381.97 292.63C374.66 295.4 367.23 297.89 359.76 300.21C329.73 309.54 298.79 316.22 267.61 320.25C230.89 325 193.71 325.99 156.72 325.46C133.65 325.13 110.57 324.21 87.5602 322.45C86.4402 322.36 85.3202 322.28 84.2002 322.18C80.9902 321.9 81.0102 326.9 84.2002 327.18C94.9702 328.11 105.78 328.7 116.57 329.21C141.9 330.42 167.28 330.88 192.64 330.38C222.78 329.79 252.89 327.75 282.68 323.1C307.1 319.29 331.3 313.91 355 306.87C362.32 304.7 369.6 302.36 376.81 299.82C380.08 298.66 383.59 297.65 386.72 296.12C386.86 296.05 387 296.01 387.14 295.95L385.21 295.7C387.54 296.91 389.75 298.58 391.45 299.98C396.4 304.06 400.64 308.97 403.85 314.53C412.12 328.9 412.71 346.53 404.95 361.22C403.64 363.7 402.13 366.08 400.44 368.32C400.27 368.55 400.52 368.22 400.53 368.2C400.44 368.32 400.34 368.44 400.25 368.56C400.11 368.73 399.98 368.9 399.84 369.07C399.63 369.32 399.42 369.57 399.21 369.82C399.01 370.04 398.82 370.27 398.61 370.48L400.38 369.75C384.96 369.33 369.53 369.19 354.11 369.16C324.74 369.1 295.26 369.35 265.95 371.38C243.18 372.96 220.52 376.63 198.05 380.46C174.81 384.43 151.65 388.9 128.56 393.64C120.31 395.33 112.07 397.06 103.84 398.83C99.8702 399.68 95.8002 400.36 91.8902 401.44C91.7102 401.49 91.5302 401.52 91.3502 401.56L93.2802 406.13C95.6502 404.54 97.5402 402.17 99.1302 399.85C103.22 393.86 105.22 386.67 106.09 379.54C107.47 368.21 106.02 356.11 102.71 345.22C100.67 338.52 97.6002 331.63 92.4102 326.75C90.4202 324.88 87.6802 322.75 84.8802 322.28C81.7302 321.75 80.3802 326.57 83.5502 327.1H83.5202Z" fill="#DEBF8F"/>
<path d="M251.15 309.83C236.41 311.99 234.02 325.65 225.73 329.97C217.44 334.29 207.05 337.95 210.46 353.67C213.88 369.39 230.41 362.95 233.66 373.91C236.91 384.87 244.87 392.17 255.16 391.02C265.45 389.87 267.59 380.75 276.86 380.06C286.13 379.37 292.68 377.92 295.01 361.89C297.33 345.85 286.83 344.44 284.24 335.17C281.65 325.9 273.47 306.56 251.14 309.83H251.15Z" fill="#942C1F"/>
<path d="M249.87 325.19C223.06 331.28 224.7 363.19 243.2 372.3C261.7 381.41 277.31 368.98 278.55 354.9C279.79 340.82 271.75 320.22 249.87 325.19Z" fill="#AD3629"/>
<path d="M250.38 328.02C226.67 333.41 228.12 361.62 244.48 369.68C260.84 377.74 274.65 366.74 275.75 354.29C276.85 341.84 269.74 323.62 250.39 328.01L250.38 328.02Z" fill="#641505"/>
<path d="M214.98 133.591C214.98 135.811 213.18 137.621 210.95 137.621C208.72 137.621 206.92 135.821 206.92 133.591C206.92 131.361 208.72 129.561 210.95 129.561C213.18 129.561 214.98 131.361 214.98 133.591Z" fill="#F8A879"/>
<path d="M244.36 133.591C244.36 135.811 242.56 137.621 240.33 137.621C238.1 137.621 236.3 135.821 236.3 133.591C236.3 131.361 238.1 129.561 240.33 129.561C242.56 129.561 244.36 131.361 244.36 133.591Z" fill="#F8A879"/>
<path d="M220.51 143.4C220.51 143.4 221.93 149.94 218.23 151.79C214.53 153.64 219.08 161.61 219.79 161.89C220.5 162.17 232.02 161.75 232.59 161.18C233.16 160.61 236.86 156.06 236.86 156.06L233.3 151.22C233.3 151.22 230.03 146.81 230.46 142.12C230.89 137.43 220.5 143.4 220.5 143.4H220.51Z" fill="#F8A879"/>
<path d="M257.07 174.55C257.07 174.55 258.92 182.09 258.49 186.78C258.06 191.47 245.26 201.29 245.26 201.29L242.27 178.81L244.55 171.98L252.66 170.13L257.07 174.54V174.55Z" fill="#FBC097"/>
<path d="M193.91 175.69C193.91 175.69 191.49 179.67 191.78 186.07C192.06 192.47 203.02 201.58 203.02 201.58L209.56 186.36L206.72 175.98C206.72 175.98 204.73 173.7 203.45 173.7C202.17 173.7 193.92 175.69 193.92 175.69H193.91Z" fill="#FBC097"/>
<path d="M218.24 151.79C218.24 151.79 220.37 157.48 225.49 157.48C230.61 157.48 233.31 151.22 233.31 151.22C233.31 151.22 241.99 151.36 243.84 152.22C245.69 153.07 258.78 172.14 259.63 176.83C259.63 176.83 249.39 178.11 248.68 178.25C247.97 178.39 249.53 190.48 248.25 193.04C246.97 195.6 204.29 195.6 202.87 195.6C201.45 195.6 201.59 178.39 201.59 178.39L191.52 177.4C190.83 177.33 190.43 176.58 190.77 175.98C193.31 171.36 202.04 155.68 204.58 153.5C207.57 150.94 218.24 151.79 218.24 151.79Z" fill="#F05B45"/>
<path d="M229.62 220.64C232.91 217.88 245.2 227.68 239.44 235.79C233.68 243.9 220.24 228.54 229.62 220.64Z" fill="#413E3C"/>
<path d="M227.91 216.59C232.32 220.37 235.16 226.19 230.26 228.54C225.35 230.89 180.97 215.31 184.81 203.57C188.65 191.83 211.48 202.5 227.91 216.59Z" fill="#0E699C"/>
<path d="M218.52 220C215.23 217.24 202.94 227.04 208.7 235.15C214.46 243.26 227.9 227.9 218.52 220Z" fill="#413E3C"/>
<path d="M220.23 215.95C215.82 219.73 212.98 225.55 217.88 227.9C222.79 230.25 267.17 214.67 263.33 202.93C259.49 191.19 236.66 201.86 220.23 215.95Z" fill="#1180BD"/>
<path d="M208.23 214.45H240.57C241.54 214.45 242.4 213.82 242.69 212.89L249.18 192.38C249.63 190.94 248.56 189.48 247.06 189.48H202.1C200.61 189.48 199.54 190.92 199.97 192.35L206.1 212.86C206.38 213.8 207.25 214.45 208.23 214.45Z" fill="#A3BFCD"/>
<path d="M225.05 148.89C210.83 148.89 202.54 116.19 225.05 116.19C247.56 116.19 242.59 148.89 225.05 148.89Z" fill="#FBC097"/>
<path d="M219.12 124.88C219.12 124.88 220.54 127.96 225.76 129.38C225.76 129.38 227.89 127.25 227.42 124.64C227.42 124.64 235.54 132.64 245.02 131.93C245.02 131.93 252.54 104.74 218.89 111.37C218.89 111.37 220.31 108.53 220.79 107.58C220.79 107.58 214.87 107.58 213.68 112.32C213.68 112.32 209.65 112.08 207.04 114.45C207.04 114.45 208.46 114.69 210.83 115.87C210.83 115.87 205.85 122.98 205.85 131.04C205.85 131.04 213.91 133.17 219.12 124.88Z" fill="#F7941D"/>
<path d="M203.14 167.72C202.87 167.28 202.22 167.38 202.07 167.86C201.52 169.57 201.49 171.52 201.21 173.31C200.99 174.77 200.6 176.28 200.91 177.73C201 178.13 201.56 178.16 201.76 177.84C202.73 176.26 202.86 174.1 203.19 172.3C203.48 170.76 204.01 169.12 203.15 167.71L203.14 167.72Z" fill="#D2503C"/>
<path d="M247.84 173.17C247.43 171.07 247.12 168.96 246.84 166.84C246.79 166.47 246.22 166.44 246.23 166.84C246.29 170.27 246.27 175.1 247.96 178.19C248.13 178.51 248.61 178.35 248.62 178.01C248.68 176.37 248.16 174.78 247.84 173.17Z" fill="#D2503C"/>
<path d="M212.87 116.66C210.97 119.11 209.52 121.77 208.81 124.8C208.71 125.22 208.79 125.72 209.13 126.02C210.48 127.2 211.2 125.5 211.55 124.37C212.25 122.1 213.25 119.94 214.53 117.95C215.17 116.96 213.61 115.7 212.86 116.66H212.87Z" fill="#FCB415"/>
<path d="M241.29 117.121C237.83 110.761 226.53 112.501 220.82 113.311C219.93 113.441 220.15 114.901 221.03 114.871C224.69 114.741 228.51 114.551 232.13 115.251C235.1 115.831 237.46 117.651 240.3 118.411C241.05 118.611 241.65 117.791 241.29 117.121Z" fill="#FCB415"/>
<path d="M244.1 121.07C243.83 120.54 243.48 120.05 243.17 119.54C242.55 118.54 240.97 119.18 241.27 120.34C241.41 120.91 241.53 121.51 241.72 122.07C241.97 122.81 242.73 123.23 243.48 122.92C244.22 122.61 244.46 121.77 244.1 121.07Z" fill="#FCB415"/>
<path d="M225.1 205.761C227.088 205.761 228.7 204.149 228.7 202.161C228.7 200.172 227.088 198.561 225.1 198.561C223.112 198.561 221.5 200.172 221.5 202.161C221.5 204.149 223.112 205.761 225.1 205.761Z" fill="white"/>
<path d="M222.39 132.21C221.61 130.95 219.8 131.57 218.84 132.27C218.17 132.76 218.57 133.74 219.4 133.59C219.81 133.52 220.2 133.35 220.6 133.24C220.97 133.14 221.17 133.24 221.52 133.34C222.15 133.5 222.75 132.8 222.39 132.21Z" fill="#F7941D"/>
<path d="M228.96 132.15C228.83 132.55 229.22 132.82 229.57 132.76C230.03 132.69 230.42 132.47 230.9 132.57C231.4 132.67 231.62 133.09 232.05 133.31C232.48 133.53 233.14 133.27 233.09 132.71C232.95 130.82 229.57 130.29 228.96 132.15Z" fill="#F7941D"/>
<path d="M226.57 138.351C226.25 138.351 226 138.521 225.68 138.541C225.35 138.571 225.05 138.481 224.75 138.351C224.35 138.181 224 138.601 224.29 138.951C224.9 139.681 226.39 139.941 227.01 139.121C227.25 138.801 226.92 138.361 226.57 138.351Z" fill="#F8A879"/>
<path d="M227.71 141.44C227.16 141.29 226.6 141.72 226.05 141.82C225.36 141.94 224.73 141.68 224.05 141.71C223.86 141.71 223.68 141.95 223.81 142.13C224.28 142.79 225.21 142.94 225.97 142.89C226.62 142.85 227.82 142.65 227.94 141.87C227.97 141.69 227.89 141.5 227.7 141.45L227.71 141.44Z" fill="#F8A879"/>
<path d="M225.8 143.381C225.58 143.291 225.44 143.311 225.21 143.331C224.94 143.351 224.94 143.741 225.21 143.751C225.44 143.761 225.59 143.781 225.8 143.701C225.95 143.641 225.96 143.451 225.8 143.381Z" fill="#F8A879"/>
<path d="M221.91 135.51C221.9 135.42 221.89 135.34 221.88 135.25C221.68 134.15 220.01 134.45 219.98 135.51C219.98 135.79 219.96 136.06 219.98 136.34C219.95 136.65 219.98 136.97 220 137.26C220.04 137.72 220.32 138.12 220.81 138.17C221.25 138.22 221.72 137.96 221.83 137.5C221.99 136.83 222.01 136.18 221.91 135.51Z" fill="#7E543B"/>
<path d="M231.69 135.07C231.68 134.98 231.67 134.9 231.66 134.81C231.46 133.71 229.79 134.01 229.76 135.07C229.76 135.35 229.74 135.62 229.76 135.9C229.73 136.21 229.76 136.53 229.78 136.82C229.82 137.28 230.1 137.68 230.59 137.73C231.03 137.78 231.5 137.52 231.61 137.06C231.77 136.39 231.79 135.74 231.69 135.07Z" fill="#7E543B"/>
<path d="M221.25 134.95C220.77 134.95 220.77 135.69 221.25 135.69C221.73 135.69 221.73 134.95 221.25 134.95Z" fill="white"/>
<path d="M231.06 134.59C230.58 134.59 230.58 135.33 231.06 135.33C231.54 135.33 231.54 134.59 231.06 134.59Z" fill="white"/>
<path d="M233.39 170.22H243.14V178.95C243.14 180.48 238.37 182.73 238.37 182.73C238.37 182.73 233.07 180.72 233.07 179.03C233.07 177.34 233.39 170.22 233.39 170.22Z" fill="#CA4D39"/>
<path d="M329.76 209.37C329.76 209.37 331.48 214.05 337.56 211.94C343.64 209.83 335.53 204.53 335.53 204.53L332.64 206.48L329.75 209.37H329.76Z" fill="#413E3C"/>
<path d="M339.83 208.161C339.83 208.161 339.1 214.761 336.53 218.241C333.96 221.721 340.56 234.011 340.56 234.011C340.56 234.011 351.93 232.541 352.29 231.991C352.65 231.441 354.49 225.391 354.49 225.391L351.86 218.361C351.86 218.361 348.44 211.451 349.35 207.791C350.26 204.131 339.82 208.161 339.82 208.161H339.83Z" fill="#F8A879"/>
<path d="M331.34 387.761C331.34 387.761 330.85 393.851 332.56 395.671C334.27 397.501 345.03 397.091 347.72 396.081C350.41 395.071 346.5 388.571 339.65 388.171C332.81 387.761 331.34 387.761 331.34 387.761Z" fill="#713830"/>
<path d="M351.14 384.11C351.14 384.11 350.65 390.2 352.36 392.02C354.07 393.85 364.83 393.44 367.52 392.43C370.21 391.42 366.3 384.92 359.45 384.52C352.61 384.11 351.14 384.11 351.14 384.11Z" fill="#713830"/>
<path d="M325.23 283.64C325.23 283.64 329.63 384.6 330.61 387.54C331.59 390.47 337.45 389.25 339.66 388.03C341.86 386.81 345.28 304.42 347.24 304.18C349.2 303.94 350.42 382.41 351.4 384.36C352.38 386.32 358.49 386.56 359.71 384.6C360.93 382.64 361.91 287.55 361.42 284.37C360.93 281.19 325.24 283.64 325.24 283.64H325.23Z" fill="#62595F"/>
<path d="M383.9 242.32C386.59 244.76 386.34 249.65 383.41 253.81C380.48 257.97 372.65 249.9 372.65 249.9L383.9 242.32Z" fill="#FBC097"/>
<path d="M336.72 217.631C336.72 217.631 337.7 226.191 344.79 227.411C351.88 228.631 351.88 218.361 351.88 218.361C351.88 218.361 357.82 220.441 361.41 224.721C365.32 229.361 370.21 237.681 370.21 237.681L359.7 247.951L362.14 287.311C362.14 287.311 337.94 295.381 324.49 287.311C324.49 287.311 315.31 240.321 316.29 232.501C317.27 224.681 331.34 218.131 336.71 217.641L336.72 217.631Z" fill="#6893CC"/>
<path d="M385.12 242.08C386.22 238.41 388.79 227.78 388.79 227.78H384.02L375.95 247.58L385.12 242.08Z" fill="#C44B37"/>
<path d="M368.25 231.08C368.25 231.08 357.62 248.31 356.88 250.51C356.15 252.71 371.55 262.98 372.65 262.98C373.75 262.98 385.12 242.08 385.12 242.08L368.25 231.08Z" fill="#F05C45"/>
<path d="M365.56 257.481C365.56 257.481 368.25 251.371 369.96 251.861C371.67 252.351 369.23 255.281 369.23 255.281C369.23 255.281 375.34 249.171 376.56 250.391C377.78 251.611 373.14 256.011 373.14 256.011C373.14 256.011 378.76 251.371 380.47 252.831C382.18 254.301 374.11 259.191 374.11 259.191C374.11 259.191 380.47 256.751 380.95 258.701C381.43 260.651 368.97 265.541 366.28 264.571C363.59 263.591 365.55 257.481 365.55 257.481H365.56Z" fill="#FBC097"/>
<path d="M316.43 234.741C315.39 225.021 327.92 223.011 331.34 231.071C334.76 239.141 341.12 255.761 343.32 257.471C345.52 259.181 361.17 256.741 363.85 256.001C366.54 255.271 369.23 262.601 368.98 264.561C368.73 266.521 346.25 272.381 339.4 270.671C332.56 268.961 317.15 241.581 316.42 234.731L316.43 234.741Z" fill="#6893CC"/>
<path d="M349.34 183.46C327.46 181.49 329.8 215.59 344.46 217.44C359.12 219.29 369.8 185.31 349.34 183.46Z" fill="#FBC097"/>
<path d="M339.3 202.34C341.42 202.77 343.54 194.77 343.54 194.77C343.54 194.77 345.87 196.28 347.57 192.18C347.57 192.18 350.33 193.69 353.51 191.53C353.51 191.53 354.78 193.69 357.11 193.91C357.11 193.91 356.9 198.23 358.59 198.88C358.59 198.88 357.11 203.42 359.65 204.28C362.19 205.14 363.47 199.09 363.47 199.09C363.47 199.09 366.44 194.98 364.95 190.66C364.95 190.66 368.34 183.96 363.47 180.72C363.47 180.72 361.77 170.99 355.2 172.94C355.2 172.94 352.02 169.48 347.35 171.86C347.35 171.86 340.99 168.62 337.81 174.02C337.81 174.02 332.72 174.02 331.66 177.91C331.66 177.91 326.78 180.94 326.78 184.18C326.78 184.18 321.9 191.1 324.66 196.28C324.66 196.28 322.54 203.63 327.42 207.09C327.42 207.09 327.84 209.68 331.66 210.12C335.48 210.55 336.11 207.09 336.11 207.09C336.11 207.09 337.67 202 339.29 202.33L339.3 202.34Z" fill="#413E3C"/>
<path d="M357.41 256.78C355 257.23 352.6 257.72 350.2 258.21C347.8 258.7 344.91 259.67 342.46 259.31C339.76 258.91 337.78 255.77 336.33 253.75C335.01 251.9 333.87 249.94 332.83 247.92C332.69 247.65 332.21 247.84 332.33 248.13C333.4 250.8 334.72 253.32 336.32 255.72C337.41 257.34 338.72 259.56 340.57 260.39C342.78 261.39 345.64 260.66 347.93 260.26C351.25 259.68 354.56 259.07 357.86 258.43C358.94 258.22 358.48 256.58 357.41 256.78Z" fill="#5D83B5"/>
<path d="M359.36 267.641C353.65 269.161 348.52 271.761 342.46 271.761C335.96 271.761 332.03 268.221 328.43 263.211C328.23 262.931 327.75 263.191 327.95 263.491C331.1 268.231 334.25 272.131 340.28 272.761C346.68 273.431 354.02 271.341 359.68 268.411C360.11 268.191 359.81 267.521 359.36 267.641Z" fill="#5D83B5"/>
<path d="M347.47 174.09C347.18 174.12 346.9 174.2 346.63 174.31C346.03 173.14 344.24 173 343.13 173.37C341.91 173.77 340.69 174.89 340.47 176.19C340.4 176.59 340.88 176.96 341.21 176.62C341.89 175.91 342.36 175.03 343.34 174.67C344.22 174.34 344.86 174.64 345.59 174.96C345.29 175.21 345.01 175.5 344.79 175.81C344.55 176.13 345 176.47 345.3 176.32C346 175.96 346.62 175.34 347.42 175.21C348.14 175.09 348.55 175.59 349.2 175.66C349.42 175.69 349.59 175.46 349.6 175.26C349.62 174.28 348.25 174 347.49 174.09H347.47Z" fill="#534F4E"/>
<path d="M334.63 180.08C333.7 179.63 332.47 180.32 331.76 180.93C330.94 181.63 330.26 182.72 330.22 183.82C330.22 183.84 330.24 183.87 330.24 183.89C330.19 183.92 330.13 183.94 330.08 183.98C329.37 184.45 328.36 185.49 328.75 186.4C328.83 186.59 329.13 186.65 329.29 186.54C329.57 186.36 329.63 186.17 329.78 185.88C329.97 185.51 330.23 185.2 330.55 184.93C331.21 184.37 332.08 184.07 332.95 184.2C333.4 184.27 333.62 183.62 333.15 183.49C332.62 183.34 332.07 183.32 331.54 183.41C331.75 182.82 332.03 182.3 332.54 181.84C332.85 181.57 333.2 181.33 333.58 181.16C333.93 181 334.33 180.94 334.64 180.71C334.84 180.56 334.91 180.21 334.64 180.08H334.63Z" fill="#534F4E"/>
<path d="M362.09 181.24C361.85 180.82 361.5 180.5 361.09 180.29C361.23 180.33 361.39 180.27 361.49 180.13C362.14 179.24 360.95 177.68 360.28 177.12C359.41 176.4 358.14 176 357.25 176.87C356.98 177.13 357.32 177.5 357.63 177.36C358.49 176.97 359.52 177.68 360.02 178.33C360.26 178.64 360.44 178.99 360.55 179.37C360.65 179.71 360.68 179.96 360.94 180.2C360.98 180.23 361.02 180.25 361.06 180.27C360.65 180.07 360.19 179.97 359.72 180.01C359.32 180.04 359.31 180.64 359.72 180.64C360.44 180.64 361.13 181.03 361.37 181.74C361.48 182.04 361.5 182.35 361.45 182.67C361.39 182.98 361.28 183.19 361.36 183.51C361.4 183.66 361.57 183.76 361.72 183.71C362.63 183.4 362.47 181.91 362.09 181.24Z" fill="#534F4E"/>
<path d="M328.51 190.501C328.6 190.261 328.27 190.001 328.06 190.161C326.85 191.081 325.7 193.871 327.75 194.581C327.89 194.631 328.08 194.581 328.18 194.471C328.6 194.021 327.86 193.571 327.71 193.171C327.36 192.201 328.17 191.341 328.5 190.501H328.51Z" fill="#534F4E"/>
<path d="M347.66 199.241C347.06 197.881 345.18 198.251 344.14 198.811C343.41 199.201 343.67 200.231 344.51 200.201C344.93 200.191 345.33 200.071 345.75 200.021C346.13 199.971 346.31 200.111 346.65 200.241C347.25 200.481 347.95 199.871 347.67 199.241H347.66Z" fill="#413E3C"/>
<path d="M353.7 200.7C353.56 200.99 353.83 201.24 354.1 201.24C354.46 201.24 354.79 201.11 355.14 201.24C355.52 201.37 355.64 201.71 355.95 201.93C356.26 202.15 356.79 202.01 356.82 201.58C356.91 200.11 354.37 199.34 353.7 200.71V200.7Z" fill="#413E3C"/>
<path d="M350.73 206.491C350.42 206.441 350.14 206.571 349.82 206.561C349.49 206.541 349.21 206.411 348.93 206.241C348.56 206.021 348.15 206.391 348.39 206.771C348.89 207.581 350.33 208.041 351.06 207.311C351.35 207.021 351.08 206.541 350.73 206.491Z" fill="#F8A879"/>
<path d="M351.16 210.14C350.64 209.91 350.02 210.27 349.47 210.28C348.77 210.3 348.18 209.96 347.51 209.89C347.32 209.87 347.11 210.07 347.21 210.27C347.58 210.98 348.49 211.26 349.25 211.32C349.9 211.37 351.11 211.34 351.35 210.58C351.4 210.4 351.35 210.21 351.17 210.13L351.16 210.14Z" fill="#F8A879"/>
<path d="M349 211.801C348.8 211.681 348.65 211.681 348.42 211.661C348.15 211.641 348.09 212.031 348.36 212.081C348.59 212.131 348.73 212.171 348.96 212.111C349.12 212.071 349.15 211.881 349 211.801Z" fill="#F8A879"/>
<path d="M346.72 202.44C346.72 202.35 346.72 202.27 346.72 202.18C346.67 201.06 344.98 201.13 344.81 202.18C344.77 202.45 344.72 202.73 344.7 203C344.63 203.3 344.6 203.62 344.59 203.91C344.57 204.37 344.79 204.8 345.26 204.93C345.69 205.04 346.19 204.85 346.36 204.41C346.61 203.77 346.72 203.12 346.72 202.45V202.44Z" fill="#413E3C"/>
<path d="M355.49 203.24C355.49 203.17 355.49 203.11 355.49 203.04C355.45 202.17 354.13 202.22 354 203.04C353.97 203.25 353.93 203.46 353.91 203.68C353.85 203.91 353.84 204.16 353.82 204.39C353.8 204.75 353.98 205.08 354.34 205.18C354.67 205.27 355.07 205.12 355.2 204.78C355.39 204.28 355.48 203.78 355.48 203.26L355.49 203.24Z" fill="#413E3C"/>
<path d="M346.13 201.841C345.69 201.841 345.69 202.521 346.13 202.521C346.57 202.521 346.57 201.841 346.13 201.841Z" fill="white"/>
<path d="M355.07 202.81C355.07 202.81 355.01 202.79 354.99 202.78C354.76 202.69 354.57 202.99 354.68 203.18C354.8 203.38 355.12 203.34 355.18 203.11L355.2 203.03C355.23 202.93 355.16 202.84 355.07 202.8V202.81Z" fill="white"/>
<path d="M102.95 258.889C105.83 271.189 93.7903 290.289 93.5303 295.779C93.2703 301.269 127.81 310.689 145.86 305.199C145.86 305.199 138.8 275.109 139.32 260.189C139.84 245.279 121.53 243.709 121.53 243.709L110.02 248.939L102.96 258.879L102.95 258.889Z" fill="#F7941D"/>
<path d="M116.04 267.789C116.04 267.789 116.56 273.809 113.42 277.469C110.28 281.129 110.54 288.719 110.54 288.719L127.81 289.769L131.73 283.749L127.02 277.729C127.02 277.729 125.19 271.449 124.93 266.479C124.67 261.509 116.03 267.789 116.03 267.789H116.04Z" fill="#F8A879"/>
<path d="M65.0501 375.119C65.0501 375.119 61.2101 383.649 54.3801 389.229C51.2701 391.769 54.3301 395.819 59.9801 394.539C65.6301 393.259 72.3901 383.579 72.0901 376.359C71.7901 369.139 65.0501 375.119 65.0501 375.119Z" fill="#D94934"/>
<path d="M95.99 314.41C87.8 315.21 69.6901 316.21 63.5601 325.53C57.4301 334.85 64.2701 375.43 64.6901 376.98C65.1101 378.53 70.1801 378.82 71.4801 378.39C72.7801 377.96 77.2101 340.56 79.18 337.11C81.15 333.66 99.7601 337.52 110.12 334.3C120.48 331.08 117.27 311.56 117.27 311.56L95.99 314.41Z" fill="#32434E"/>
<path d="M82.2798 381.609C82.2798 381.609 80.9098 391.149 75.7398 398.619C73.3898 402.019 77.5698 405.159 82.7998 402.279C88.0298 399.399 91.9598 387.889 89.5998 380.819C87.2398 373.749 82.2698 381.599 82.2698 381.599L82.2798 381.609Z" fill="#D94934"/>
<path d="M110.8 315.409C102.43 316.719 83.8498 318.809 78.0898 328.749C72.3298 338.689 81.7498 380.039 82.2798 381.609C82.7998 383.179 88.0398 383.179 89.3398 382.659C90.6498 382.139 92.9998 343.409 94.8298 339.749C96.6598 336.089 116.02 338.969 126.49 335.039C136.96 331.109 132.51 311.229 132.51 311.229L110.79 315.419L110.8 315.409Z" fill="#445864"/>
<path d="M133.31 305.199C133.31 305.199 135.66 316.449 135.66 319.069C135.66 321.689 107.4 323.779 100.6 317.239C93.8001 310.699 113.94 309.649 113.94 309.649L133.3 305.199H133.31Z" fill="#00968D"/>
<path d="M142.46 284.789C142.2 279.299 131.47 277.459 127.02 277.729C127.02 277.729 126.24 282.959 119.43 284.009C112.63 285.059 113.41 277.469 113.41 277.469C113.41 277.469 108.96 277.469 105.82 279.299C102.68 281.129 99.2803 295.519 99.2803 295.519L121.26 309.649L130.68 305.989L136.17 297.359L142.45 284.799L142.46 284.789Z" fill="#00968D"/>
<path d="M131.74 285.059C132.75 281.539 140.37 279.039 142.47 284.799C144.56 290.559 139.33 310.699 136.71 313.839C134.09 316.979 110.81 315.409 110.81 315.409L112.9 309.129C112.9 309.129 124.15 306.509 126.77 305.209C129.39 303.899 130.69 288.729 131.74 285.059Z" fill="#00968D"/>
<path d="M82.9298 293.4L88.4198 316.24C88.5698 316.88 89.1498 317.32 89.8098 317.31L120.56 317.53C121.26 317.52 121.85 316.99 121.93 316.29L124.75 292.13C124.85 291.29 124.19 290.56 123.35 290.56L84.2898 291.67C83.3798 291.67 82.7198 292.52 82.9298 293.4Z" fill="#A3BFCD"/>
<path d="M119.61 242.669C102.6 242.669 104.77 272.759 119.61 272.759C134.45 272.759 139.71 242.669 119.61 242.669Z" fill="#FBC097"/>
<path d="M114.47 247.379C114.47 247.379 115.64 252.609 121.27 252.609C122.58 252.609 122.84 250.249 122.58 247.639C122.58 247.639 128.07 257.839 139.33 260.199C139.33 260.199 142.99 243.189 131.48 238.479C119.97 233.769 111.86 238.739 111.86 238.739C111.86 238.739 100.09 242.399 102.96 258.889C102.96 258.889 111.59 254.439 114.47 247.379Z" fill="#F7941D"/>
<path d="M83.3003 393.479C82.4103 392.389 79.5503 391.849 78.5303 392.979C78.1403 393.409 78.3203 394.029 78.8603 394.219C79.4303 394.419 80.0703 394.219 80.6703 394.349C81.3003 394.489 81.8103 394.839 82.4103 395.019C83.3603 395.309 83.8403 394.149 83.3003 393.489V393.479Z" fill="#B63C2A"/>
<path d="M85.6299 387.769C84.2599 386.769 82.2699 386.749 80.7299 387.319C79.7599 387.679 80.1299 389.13 81.1599 388.89C82.4399 388.59 83.4699 388.959 84.5999 389.519C85.7899 390.109 86.6699 388.53 85.6299 387.76V387.769Z" fill="#B63C2A"/>
<path d="M63.31 386.569C62.14 385.039 60.59 384.149 58.63 384.279C57.84 384.329 57.57 385.549 58.43 385.729C59.58 385.979 60.77 386.669 61.44 387.659C62.23 388.809 64.13 387.659 63.3 386.569H63.31Z" fill="#B63C2A"/>
<path d="M66.7099 381.329C66.5999 381.179 66.2899 380.999 66.1399 380.899C65.7399 380.629 65.2999 380.429 64.8399 380.279C63.9199 379.969 62.9599 379.959 62.0199 380.159C61.2199 380.329 61.3799 381.719 62.2199 381.609C63.5999 381.439 64.5899 381.899 65.6199 382.769C65.8899 382.999 66.3699 383.159 66.6999 382.909C66.9399 382.729 66.8999 381.569 66.7199 381.329H66.7099Z" fill="#B63C2A"/>
<path d="M132.76 290.599C132.69 290.099 131.98 290.209 131.85 290.599C130.33 295.009 129.94 301.059 124.89 302.929C124.42 303.109 124.25 303.979 124.89 304.059C130.45 304.819 133.34 294.659 132.77 290.599H132.76Z" fill="#00827B"/>
<path d="M133.99 313.759C132.61 313.579 131.18 313.999 129.8 314.179C128.23 314.379 126.67 314.499 125.09 314.559C124.5 314.579 124.51 315.429 125.09 315.469C127.85 315.659 131.73 316.139 134.29 314.859C134.87 314.569 134.51 313.829 133.99 313.759Z" fill="#00827B"/>
<path d="M119.75 248.339C117.38 247.139 115.65 245.519 115.15 242.799C115.01 242.029 113.69 242.199 113.77 242.989C114.08 246.039 116.01 249.079 119.01 250.089C120.03 250.429 120.71 248.839 119.75 248.339Z" fill="#FAAD44"/>
<path d="M119.15 245.799C118.73 245.429 118.16 245.999 118.53 246.419C118.86 246.789 119.16 247.279 119.68 247.379C119.95 247.429 120.15 247.229 120.1 246.959C120.01 246.449 119.51 246.139 119.14 245.809L119.15 245.799Z" fill="#FAAD44"/>
<path d="M134.89 253.309C133.5 252.009 131.33 251.739 129.79 250.499C128.03 249.089 126.61 247.289 125.78 245.189C125.47 244.409 124.32 244.689 124.5 245.539C125.03 248.019 126.19 250.329 128.04 252.089C129.58 253.559 132.16 255.609 134.42 255.079C135.19 254.899 135.46 253.839 134.89 253.309Z" fill="#FAAD44"/>
<path d="M135.39 250.7C135.12 250.41 134.75 250.23 134.44 249.98C134.13 249.73 133.85 249.46 133.57 249.17C132.99 248.56 131.86 249.38 132.38 250.09C132.88 250.77 133.55 251.7 134.35 252.05C135.2 252.42 136.1 251.46 135.39 250.7Z" fill="#FAAD44"/>
<path d="M110.23 248.07C109.74 248.95 109.15 249.74 108.44 250.45C107.87 251.01 106.91 251.46 106.93 252.36C106.93 252.55 107.05 252.66 107.21 252.73C108.15 253.12 109.04 252.06 109.64 251.46C110.4 250.69 111.05 249.8 111.59 248.86C112.08 247.99 110.74 247.2 110.25 248.08L110.23 248.07Z" fill="#FAAD44"/>
<path d="M104.62 300.979C102.98 300.979 101.41 302.419 101.48 304.119C101.56 305.819 102.86 307.259 104.62 307.259C106.26 307.259 107.83 305.819 107.76 304.119C107.68 302.419 106.38 300.979 104.62 300.979Z" fill="white"/>
<path d="M116.24 255.949C115.48 254.719 113.72 255.329 112.78 256.009C112.12 256.479 112.52 257.439 113.32 257.299C113.72 257.229 114.1 257.069 114.49 256.959C114.85 256.859 115.04 256.959 115.39 257.059C116 257.209 116.59 256.529 116.24 255.959V255.949Z" fill="#F7941D"/>
<path d="M122.65 255.899C122.52 256.289 122.91 256.549 123.25 256.499C123.69 256.429 124.08 256.219 124.54 256.309C125.03 256.409 125.24 256.809 125.66 257.029C126.08 257.249 126.72 256.989 126.68 256.449C126.54 254.609 123.25 254.089 122.65 255.909V255.899Z" fill="#F7941D"/>
<path d="M120.31 261.939C120 261.939 119.75 262.099 119.44 262.129C119.12 262.159 118.83 262.069 118.54 261.939C118.15 261.769 117.81 262.189 118.09 262.519C118.68 263.229 120.13 263.479 120.74 262.679C120.98 262.369 120.65 261.939 120.31 261.929V261.939Z" fill="#F8A879"/>
<path d="M121.43 264.949C120.89 264.799 120.35 265.229 119.82 265.319C119.15 265.439 118.53 265.179 117.87 265.209C117.68 265.209 117.51 265.439 117.63 265.619C118.08 266.259 119 266.409 119.74 266.359C120.38 266.319 121.54 266.129 121.66 265.359C121.69 265.179 121.62 264.999 121.43 264.949Z" fill="#F8A879"/>
<path d="M119.56 266.849C119.35 266.759 119.21 266.779 118.98 266.799C118.71 266.819 118.71 267.199 118.98 267.209C119.21 267.219 119.35 267.239 119.56 267.159C119.71 267.099 119.71 266.909 119.56 266.849Z" fill="#F8A879"/>
<path d="M115.77 259.169C115.76 259.089 115.75 258.999 115.74 258.919C115.54 257.849 113.91 258.139 113.89 259.169C113.89 259.439 113.87 259.709 113.89 259.979C113.86 260.279 113.89 260.589 113.91 260.869C113.95 261.319 114.22 261.699 114.7 261.759C115.13 261.809 115.59 261.559 115.7 261.109C115.85 260.459 115.87 259.819 115.78 259.169H115.77Z" fill="#7E543B"/>
<path d="M125.31 258.739C125.3 258.659 125.29 258.569 125.28 258.489C125.08 257.419 123.45 257.709 123.43 258.739C123.43 259.009 123.41 259.279 123.43 259.549C123.4 259.849 123.43 260.159 123.45 260.439C123.49 260.889 123.76 261.269 124.24 261.329C124.67 261.379 125.13 261.129 125.24 260.679C125.39 260.029 125.41 259.389 125.32 258.739H125.31Z" fill="#7E543B"/>
<path d="M113.61 262.619C112.89 262.189 111.95 262.139 111.23 262.619C110.35 263.189 110.4 264.709 111.54 264.969C112.14 265.109 112.74 265.079 113.32 264.869C114.29 264.519 114.57 263.189 113.61 262.619Z" fill="#F38580"/>
<path d="M127.75 262.619C127.03 262.189 126.09 262.139 125.37 262.619C124.49 263.189 124.54 264.709 125.68 264.969C126.28 265.109 126.88 265.079 127.46 264.869C128.43 264.519 128.71 263.189 127.75 262.619Z" fill="#F38580"/>
<path d="M114.49 258.739C114.03 258.739 114.03 259.459 114.49 259.459C114.95 259.459 114.95 258.739 114.49 258.739Z" fill="white"/>
<path d="M123.99 258.279C123.53 258.279 123.53 258.999 123.99 258.999C124.45 258.999 124.45 258.279 123.99 258.279Z" fill="white"/>
</g>
<defs>
<clipPath id="clip0_136_379">
<rect width="437.69" height="421.65" fill="white"/>
</clipPath>
</defs>
</svg>
