<svg width="1436" height="525" viewBox="0 0 1436 525" fill="none" xmlns="http://www.w3.org/2000/svg">
<path d="M287.419 263.505H542.403V355.33H287.419C278.223 355.33 270.762 347.748 270.762 338.404V280.455C270.762 271.111 278.223 263.529 287.419 263.529V263.505Z" fill="url(#paint0_linear_57_6470)"/>
<path d="M312.083 430.061H622.836V492.911H312.083C305.477 492.911 300.107 487.454 300.107 480.742V442.23C300.107 435.517 305.477 430.061 312.083 430.061Z" fill="url(#paint1_linear_57_6470)"/>
<path d="M655.935 436.918V486.03H664.133V492.887H518.332C513.77 492.887 510.063 489.12 510.063 484.484V438.463C510.063 433.827 513.77 430.061 518.332 430.061H664.133V436.918H655.935Z" fill="#B52626"/>
<path d="M525.412 436.92H655.934V486.007H525.412C521.016 486.007 517.452 482.385 517.452 477.918V444.984C517.452 440.517 521.016 436.896 525.412 436.896V436.92Z" fill="#FAE6DE"/>
<path d="M585.887 272.946V345.866H590.33V355.306H405.561C396.056 355.306 388.334 347.459 388.334 337.801V280.987C388.334 271.329 396.056 263.481 405.561 263.481H590.33V272.922H585.887V272.946Z" fill="#B52626"/>
<path d="M415.018 272.947H585.887V345.866H415.018C405.513 345.866 397.791 338.019 397.791 328.361V290.453C397.791 280.795 405.513 272.947 415.018 272.947Z" fill="#FAE6DE"/>
<path d="M236.972 355.331H487.323V430.061H236.972C225.21 430.061 215.682 420.355 215.682 408.427V376.965C215.682 365.013 225.234 355.331 236.972 355.331Z" fill="url(#paint2_linear_57_6470)"/>
<path d="M530.807 363.034V422.383H535.251V430.085H354.569C342.807 430.085 333.278 420.403 333.278 408.451V376.99C333.278 365.038 342.807 355.355 354.569 355.355H535.251V363.058H530.807V363.034Z" fill="#495DA1"/>
<path d="M363.432 363.034H530.808V422.384H363.432C351.67 422.384 342.142 412.677 342.142 400.749V384.668C342.142 372.716 351.694 363.034 363.432 363.034Z" fill="#FAE6DE"/>
<path d="M501.271 381.938H429.583V383.822H501.271V381.938Z" fill="#DECCC5"/>
<path d="M472.543 387.637H395.983V389.52H472.543V387.637Z" fill="#DECCC5"/>
<path d="M647.429 449.618H575.74V451.502H647.429V449.618Z" fill="#DECCC5"/>
<path d="M618.677 455.341H542.117V457.224H618.677V455.341Z" fill="#DECCC5"/>
<path d="M566.141 460.533H534.467V462.417H566.141V460.533Z" fill="#DECCC5"/>
<path d="M502.055 322.252H425.496V324.135H502.055V322.252Z" fill="#DECCC5"/>
<path d="M567.683 281.494H491.124V283.377H567.683V281.494Z" fill="#DECCC5"/>
<path d="M508.353 327.468H476.679V329.351H508.353V327.468Z" fill="#DECCC5"/>
<path d="M723.488 397.441H977.522V492.912H723.488C713.77 492.912 705.857 484.896 705.857 474.996V415.357C705.857 405.482 713.746 397.441 723.488 397.441Z" fill="url(#paint3_linear_57_6470)"/>
<path d="M1021.01 407.269V483.085H1025.45V492.912H841.084C831.342 492.912 823.453 484.896 823.453 474.996V415.357C823.453 405.458 831.342 397.441 841.084 397.441H1025.45V407.269H1021.01Z" fill="#495DA1"/>
<path d="M854.413 407.243H1021V483.059H854.413C844.814 483.059 836.996 475.14 836.996 465.361V424.917C836.996 415.163 844.79 407.219 854.413 407.219V407.243Z" fill="#FAE6DE"/>
<path d="M991.471 444.788H919.782V446.671H991.471V444.788Z" fill="#DECCC5"/>
<path d="M962.742 450.488H886.183V452.372H962.742V450.488Z" fill="#DECCC5"/>
<path d="M1111.37 426.776H1357.49V492.911H1111.37C1101.46 492.911 1093.41 484.725 1093.41 474.657V445.03C1093.41 434.962 1101.46 426.776 1111.37 426.776Z" fill="url(#paint4_linear_57_6470)"/>
<path d="M1399.76 433.585V486.102H1404.09V492.911H1225.69C1215.78 492.911 1207.72 484.749 1207.72 474.657V445.03C1207.72 434.962 1215.75 426.776 1225.69 426.776H1404.09V433.585H1399.76Z" fill="#B52626"/>
<path d="M1238.85 433.587H1399.76V486.103H1238.85C1228.94 486.103 1220.89 477.918 1220.89 467.849V451.841C1220.89 441.772 1228.94 433.587 1238.85 433.587Z" fill="#FAE6DE"/>
<path d="M1099.56 349.872H1369.02V426.775H1099.56C1087.11 426.775 1076.99 416.489 1076.99 403.837V372.786C1076.99 360.134 1087.11 349.848 1099.56 349.848V349.872Z" fill="url(#paint5_linear_57_6470)"/>
<path d="M1416.8 357.791V418.855H1420.53V426.775H1273.99C1261.52 426.775 1251.42 416.513 1251.42 403.837V372.786C1251.42 360.109 1261.52 349.848 1273.99 349.848H1420.53V357.767H1416.8V357.791Z" fill="#495DA1"/>
<path d="M1285.3 357.769H1416.8V418.833H1285.3C1272.85 418.833 1262.73 408.547 1262.73 395.895V380.683C1262.73 368.031 1272.85 357.745 1285.3 357.745V357.769Z" fill="#FAE6DE"/>
<path d="M1379.68 349.848L1174.88 349.848V255.56L1379.68 255.56C1393.16 255.56 1404.11 266.691 1404.11 280.381V325.026C1404.11 338.717 1393.16 349.848 1379.68 349.848Z" fill="url(#paint6_linear_57_6470)"/>
<path d="M1138.17 265.268V340.143H1134.42V349.849H1280.43C1293.93 349.849 1304.86 338.742 1304.86 325.028V280.383C1304.86 266.668 1293.93 255.562 1280.43 255.562H1134.42V265.268H1138.17Z" fill="#B52626"/>
<path d="M1267.32 340.142H1138.2V265.267H1267.32C1280.72 265.267 1291.6 276.326 1291.6 289.944V315.489C1291.6 329.107 1280.72 340.166 1267.32 340.166V340.142Z" fill="#FAE6DE"/>
<path d="M1111.09 161.273H1328.24V255.561H1111.09C1096.92 255.561 1085.42 243.875 1085.42 229.484V187.375C1085.42 172.984 1096.92 161.273 1111.11 161.273H1111.09Z" fill="url(#paint7_linear_57_6470)"/>
<path d="M1367.09 170.98V245.855H1371.06V255.561H1216.18C1202 255.561 1190.52 243.875 1190.52 229.46V187.35C1190.52 172.936 1202.02 161.273 1216.18 161.273H1371.06V170.98H1367.09Z" fill="#B52626"/>
<path d="M1229.56 170.981H1367.09V245.856H1229.56C1215.45 245.856 1203.99 234.218 1203.99 219.876V196.962C1203.99 182.62 1215.45 170.981 1229.56 170.981Z" fill="#FAE6DE"/>
<path d="M1162.58 89.9001H1389.47V161.25H1162.58C1153.78 161.25 1146.63 154.006 1146.63 145.048V106.078C1146.63 97.1437 1153.78 89.876 1162.58 89.876V89.9001Z" fill="url(#paint8_linear_57_6470)"/>
<path d="M1428.35 97.2403V153.91H1432.32V161.25H1267.7C1258.91 161.25 1251.75 154.006 1251.75 145.048V106.078C1251.75 97.1437 1258.88 89.876 1267.7 89.876H1432.32V97.2162H1428.35V97.2403Z" fill="#495DA1"/>
<path d="M1279.79 97.2422H1428.32V153.911H1279.79C1271 153.911 1263.85 146.644 1263.85 137.71V113.444C1263.85 104.51 1271 97.2422 1279.79 97.2422Z" fill="#FAE6DE"/>
<path d="M1371.06 444.788H1301.37V446.671H1371.06V444.788Z" fill="#DECCC5"/>
<path d="M1343.12 450.488H1268.7V452.372H1343.12V450.488Z" fill="#DECCC5"/>
<path d="M1387.15 399.662H1317.45V401.545H1387.15V399.662Z" fill="#DECCC5"/>
<path d="M1361.79 393.964H1319.81V395.847H1361.79V393.964Z" fill="#DECCC5"/>
<path d="M1371.23 405.383H1291.81V407.266H1371.23V405.383Z" fill="#DECCC5"/>
<path d="M1247.95 318.583H1178.26V320.466H1247.95V318.583Z" fill="#DECCC5"/>
<path d="M1222.6 312.859H1180.61V314.743H1222.6V312.859Z" fill="#DECCC5"/>
<path d="M1315.62 230.378H1245.93V232.261H1315.62V230.378Z" fill="#DECCC5"/>
<path d="M1339.72 218.957H1270.03V220.84H1339.72V218.957Z" fill="#DECCC5"/>
<path d="M1301.79 224.68H1259.81V226.563H1301.79V224.68Z" fill="#DECCC5"/>
<path d="M1400.12 108.589H1330.43V110.472H1400.12V108.589Z" fill="#DECCC5"/>
<path d="M1362.2 114.287H1320.21V116.17H1362.2V114.287Z" fill="#DECCC5"/>
<path d="M1241.32 278.208H1161.91V280.091H1241.32V278.208Z" fill="#DECCC5"/>
<path d="M954.521 397.705L701.176 397.705V324.013H954.521C964.62 324.013 972.817 332.344 972.817 342.605V379.113C972.817 389.375 964.62 397.705 954.521 397.705Z" fill="url(#paint9_linear_57_6470)"/>
<path d="M657.692 331.597V390.126H653.249V397.707H836.925C847.024 397.707 855.221 389.377 855.221 379.115V342.608C855.221 332.346 847.024 324.016 836.925 324.016H653.249V331.597H657.692Z" fill="#B52626"/>
<path d="M826.804 390.124H657.694V331.596H826.804C836.879 331.596 845.053 339.902 845.053 350.14V371.605C845.053 381.842 836.879 390.148 826.804 390.148V390.124Z" fill="#FAE6DE"/>
<path d="M687.229 362.018H758.917V360.569H687.229V362.018Z" fill="#DECCC5"/>
<path d="M715.956 366.438H792.516V364.989H715.956V366.438Z" fill="#DECCC5"/>
<path d="M750.22 272.947H1042.53V324.015H750.22C743.923 324.015 738.814 318.824 738.814 312.425V284.561C738.814 278.163 743.923 272.971 750.22 272.971V272.947Z" fill="url(#paint10_linear_57_6470)"/>
<path d="M1086.02 278.211V318.751H1090.46V324.015H899.49C893.407 324.015 888.465 318.993 888.465 312.811V284.151C888.465 277.97 893.407 272.947 899.49 272.947H1090.46V278.211H1086.02Z" fill="#495DA1"/>
<path d="M908.376 278.211H1086.02V318.751H908.376C902.293 318.751 897.351 313.729 897.351 307.547V289.39C897.351 283.209 902.293 278.187 908.376 278.187V278.211Z" fill="#FAE6DE"/>
<path d="M987.478 286.854H915.79V288.302H987.478V286.854Z" fill="#DECCC5"/>
<path d="M1027.75 301.316H951.194V302.331H1027.75V301.316Z" fill="#DECCC5"/>
<path d="M724.51 221.905H934.727V272.973H724.51C718.593 272.973 713.77 268.095 713.77 262.059V232.819C713.77 226.807 718.569 221.905 724.51 221.905Z" fill="url(#paint11_linear_57_6470)"/>
<path d="M966.378 227.145V267.685H969.609V272.949H833.718C827.635 272.949 822.692 267.926 822.692 261.745V233.109C822.692 226.928 827.635 221.905 833.718 221.905H969.609V227.169H966.378V227.145Z" fill="#B52626"/>
<path d="M838.351 227.144H966.354V267.684H838.351C833.266 267.684 829.132 263.482 829.132 258.315V236.536C829.132 231.369 833.266 227.144 838.375 227.144H838.351Z" fill="#FAE6DE"/>
<path d="M944.898 235.811H892.741V237.259H944.898V235.811Z" fill="#DECCC5"/>
<path d="M923.987 250.274H868.29V251.289H923.987V250.274Z" fill="#DECCC5"/>
<path d="M1351.22 75.0518H1289.94V82.6093H1351.22V75.0518Z" fill="url(#paint12_linear_57_6470)"/>
<path d="M1353.45 67.4941H1292.17V75.0517H1353.45V67.4941Z" fill="url(#paint13_linear_57_6470)"/>
<path d="M1352.22 59.9375H1290.94V67.495H1352.22V59.9375Z" fill="url(#paint14_linear_57_6470)"/>
<path d="M1353.45 52.3799H1292.17V59.9374H1353.45V52.3799Z" fill="url(#paint15_linear_57_6470)"/>
<path d="M1354.5 44.8232H1293.22V52.3808H1354.5V44.8232Z" fill="url(#paint16_linear_57_6470)"/>
<path d="M1352.57 37.2402H1291.29V44.7978H1352.57V37.2402Z" fill="url(#paint17_linear_57_6470)"/>
<path d="M1351.22 29.6826H1289.94V37.2401H1351.22V29.6826Z" fill="url(#paint18_linear_57_6470)"/>
<path d="M1353.71 22.126H1292.43V29.6835H1353.71V22.126Z" fill="url(#paint19_linear_57_6470)"/>
<path d="M1356.07 82.2959H1294.79V89.8534H1356.07V82.2959Z" fill="url(#paint20_linear_57_6470)"/>
<path d="M1359.4 15.6304L1298.13 14.1416L1297.96 21.6969L1359.22 23.1858L1359.4 15.6304Z" fill="url(#paint21_linear_57_6470)"/>
<path d="M1431.08 82.2949H1369.8V89.8524H1431.08V82.2949Z" fill="url(#paint22_linear_57_6470)"/>
<path d="M1429.16 74.7383H1367.88V82.2958H1429.16V74.7383Z" fill="url(#paint23_linear_57_6470)"/>
<path d="M1427.8 67.1797H1366.52V74.7372H1427.8V67.1797Z" fill="url(#paint24_linear_57_6470)"/>
<path d="M1430.3 59.6221H1369.02V67.1796H1430.3V59.6221Z" fill="url(#paint25_linear_57_6470)"/>
<path d="M1435.98 53.1187L1374.72 51.6299L1374.54 59.1852L1435.8 60.674L1435.98 53.1187Z" fill="url(#paint26_linear_57_6470)"/>
<path d="M887.3 214.518H827.397V221.906H887.3V214.518Z" fill="url(#paint27_linear_57_6470)"/>
<path d="M888.535 207.104H828.633V214.493H888.535V207.104Z" fill="url(#paint28_linear_57_6470)"/>
<path d="M889.558 199.717H829.655V207.105H889.558V199.717Z" fill="url(#paint29_linear_57_6470)"/>
<path d="M887.681 192.327H827.778V199.716H887.681V192.327Z" fill="url(#paint30_linear_57_6470)"/>
<path d="M886.35 184.939H826.447V192.328H886.35V184.939Z" fill="url(#paint31_linear_57_6470)"/>
<path d="M888.797 177.549H828.895V184.937H888.797V177.549Z" fill="url(#paint32_linear_57_6470)"/>
<path d="M894.351 171.205L834.466 169.75L834.292 177.136L894.177 178.592L894.351 171.205Z" fill="url(#paint33_linear_57_6470)"/>
<path d="M5.44114 359C5.44114 359 0.356185 368.706 0.570038 369.6C0.783891 370.493 1.35417 370.711 1.87692 369.841C2.39967 368.948 7.08068 360.594 7.08068 360.594C7.08068 360.594 3.06499 373.004 3.06499 373.777C3.06499 374.236 4.13426 374.719 4.44316 374.26C4.77582 373.801 9.48059 361.704 9.48059 361.704C9.48059 361.704 5.75004 373.294 5.96389 373.946C6.15398 374.501 7.24701 374.719 7.57967 373.874C7.91233 373.028 12.0231 362.453 12.0231 362.453C12.0231 362.453 9.86077 371.024 10.3835 371.459C10.6924 371.725 11.5954 372.183 12.0706 369.962C12.5458 367.741 14.2804 362.574 14.2804 362.574L5.44114 359Z" fill="#EEA886"/>
<path d="M13.0922 348.69C13.0922 348.69 11.2151 351.781 9.10029 351.66C7.29442 351.54 4.87075 352.65 4.11039 352.988C3.1124 353.447 -0.499337 353.737 0.0471765 354.92C0.59369 356.127 5.98754 354.703 7.17561 354.63C8.36369 354.558 5.15589 358.662 5.17965 359.846C5.17965 361.029 12.5219 365.544 14.3753 362.477C16.2525 359.411 16.1574 355.017 16.6089 354.558C17.0366 354.075 18.0584 352.385 18.0584 352.385L13.0922 348.715V348.69Z" fill="#EEA886"/>
<path d="M148.105 192.23C147.559 192.206 144.779 197.155 143.614 199.28C143.567 199.256 143.543 199.232 143.496 199.184C144.565 196.431 147.393 189.115 147.678 188.391C148.01 187.521 147.036 186.894 146.49 187.183C145.991 187.449 142.426 195.151 141.12 197.952C141.12 197.952 141.072 197.952 141.048 197.928C142.213 194.91 145.492 186.338 145.539 185.855C145.61 185.276 144.47 184.89 144.161 185.228C143.71 185.711 139.718 194.427 138.434 197.228C138.363 197.228 138.316 197.228 138.244 197.204C138.815 194.789 140.335 188.222 140.525 187.377C140.763 186.338 140.169 186.097 139.385 186.628C138.672 187.087 136.272 195.996 135.797 197.807C135.132 199.377 134.728 203.506 133.967 202.709C133.136 201.791 130.023 196.866 128.787 197.373C127.552 197.88 130.047 200.681 130.498 201.743C130.831 202.54 131.924 205.099 133.35 206.307C135.037 207.707 134.324 211.401 134.324 211.401L140.169 212.126C140.169 212.126 140.692 210.266 141.024 209.494C141.31 208.866 144.137 205.558 144.85 201.912C144.85 201.864 144.85 201.791 144.874 201.743C144.874 201.743 147.155 196.6 148.319 194.572C149.507 192.544 148.509 192.254 148.082 192.23H148.105Z" fill="#EEA886"/>
<path d="M117.31 453.29C117.31 453.29 114.292 458.916 113.865 459.785C113.437 460.63 104.669 455.729 104.669 455.729L106.499 448.364C106.499 448.364 116.455 452.034 117.286 453.314L117.31 453.29Z" fill="#424773"/>
<path d="M114.244 459.035C114.244 459.035 115.884 463.719 118.141 466.351C120.422 468.983 130.402 474.222 131.495 476.468C132.279 478.085 132.588 483.542 116.145 476.854C104.454 472.097 98.3953 470.963 97.825 468.572C97.2547 466.158 104.858 455.051 104.858 455.051C104.858 455.051 107.092 457.127 114.244 459.059V459.035Z" fill="#8B92DB"/>
<path d="M28.7987 483.664C28.7987 483.664 26.3512 492.38 25.6859 495.326C25.0206 498.272 26.0186 505.974 25.3533 508.92C24.6879 511.865 23.0009 512.711 21.6465 512.324C20.2921 511.938 16.8704 510.779 13.924 507.254C11.0013 503.753 12.1419 497.282 11.7855 493.129C11.4528 489.265 9.76575 487.213 13.0448 484.002C17.2744 479.849 17.8446 477.482 17.8446 477.482L28.7749 483.688L28.7987 483.664Z" fill="#8B92DB"/>
<path d="M88.487 361.922C88.487 361.922 86.99 378.92 85.5168 389.109C84.1386 398.502 76.4162 428.152 73.7311 432.04C68.8125 439.139 57.5971 450.97 55.2922 454.085C51.5142 459.155 29.0121 489.482 29.0121 489.482C29.0121 489.482 22.7153 488.057 14.4463 480.089C14.4463 480.089 37.8988 453.095 41.4155 445.103C44.0768 439.042 55.5774 421.561 55.5061 418.736C55.411 414.052 58.7139 361.825 63.3711 352.505C68.0521 343.185 88.5108 361.873 88.5108 361.873L88.487 361.922Z" fill="#292C47"/>
<path d="M102.697 351.805C102.697 351.805 131.924 378.727 135.488 384.836C139.076 390.944 141.381 391.717 139.836 398.212C138.292 404.707 116.051 457.151 115.647 458.793C115.22 460.604 103.885 455.171 102.84 455.05C101.818 454.93 107.616 439.235 109.778 432.861C111.964 426.486 118.641 404.707 120.423 401.472C122.205 398.212 84.4009 378.34 80.4327 373.511C76.4646 368.706 82.1673 346.372 102.65 351.805H102.697Z" fill="#292C47"/>
<path d="M130.379 246.942C133.349 240.544 142.521 210.121 142.521 210.121L134.513 209.106C134.513 209.106 130.26 216.495 125.318 230.016C123.844 234.049 117.833 241.558 117.548 242.234C117.262 242.91 105.738 257.421 101.152 260.053C99.0137 261.285 94.3564 264.448 91.3625 268.263C88.3685 272.078 90.5071 276.665 90.5071 276.665C98.6097 285.189 111.987 272.874 111.987 272.874C111.987 272.874 124.985 258.556 130.379 246.942Z" fill="#5F8DE0"/>
<path d="M81.7862 263.409C81.7862 263.409 92.5502 265.558 97.35 262.588C99.1796 263.892 103.077 281.397 103.671 285.405C104.265 289.413 104.312 306.436 103.29 312.883C102.269 319.33 108.161 348.908 105.524 353.64C105.524 353.64 83.5446 373.125 57.4545 372.522C57.4545 372.522 57.2407 335.579 55.316 327.104C52.8448 316.239 46.9757 291.248 46.9757 291.248C46.9757 291.248 44.2431 274.492 46.9757 273.139C52.821 270.194 68.3848 264.423 68.3848 264.423L81.81 263.409H81.7862Z" fill="#5F8DE0"/>
<path d="M84.7094 266.476C84.7094 266.476 81.1451 268.552 68.3615 264.423C68.3615 264.423 67.815 255.9 64.5834 248.222C61.3519 240.544 82.0718 257.011 82.0718 257.011C81.8818 257.18 81.9293 257.977 82.1669 259.063C82.357 259.981 82.6896 261.14 83.1173 262.274C84.0916 264.858 83.8777 264.399 84.7094 266.476Z" fill="#EEA987"/>
<path d="M83.1175 262.274C70.7853 261.526 68.2428 254.717 68.1953 254.62C73.5654 260.27 82.1671 259.063 82.1671 259.063C82.3571 259.98 82.6898 261.139 83.1175 262.274Z" fill="#A77860"/>
<path d="M41.6773 324.545C36.9726 329.76 18.0584 355.958 18.0584 355.958L10.835 350.067C10.835 350.067 17.0842 338.501 25.8047 325.776C28.2283 322.251 31.4361 313.945 31.9114 313.366C32.3866 312.786 37.7329 298.661 38.5408 293.373C38.8735 291.273 42.604 282.218 43.8871 276.93C45.3128 271.015 58.7618 268.117 58.7618 268.117C69.8822 271.691 54.6986 293.832 54.6986 293.832C54.6986 293.832 48.283 317.253 41.6773 324.569V324.545Z" fill="#5F8DE0"/>
<path d="M55.174 296.344L38.541 293.35C38.541 293.35 38.8737 275.869 50.4693 270.146C62.0649 264.424 68.3854 264.424 68.3854 264.424L55.174 296.344Z" fill="#5F8DE0"/>
<path d="M104.217 257.59L111.987 272.874C111.987 272.874 105.857 277.896 103.671 290.862C101.865 301.655 92.3604 264.012 92.3604 264.012C92.3604 264.012 96.6849 263.626 104.241 257.565L104.217 257.59Z" fill="#5F8DE0"/>
<path d="M86.1833 263.989C86.1833 263.989 98.3491 280.383 88.1555 284.319C74.8728 289.486 63.8237 265.124 63.8237 265.124C63.8237 265.124 71.4987 261.936 86.1833 263.989Z" fill="#EEA987"/>
<path d="M78.7692 222.288C78.7692 222.288 89.0817 223.447 89.8183 242.425C90.6262 263.383 75.3 260.389 71.023 257.226C66.7221 254.063 62.4926 246.337 61.2808 240.204C60.0689 234.047 58.4294 217.193 78.793 222.288H78.7692Z" fill="#EEA886"/>
<path d="M89.1295 234.337C89.1295 234.337 87.6325 227.552 79.5299 230.401C71.4272 233.275 64.4889 241.291 66.1997 251.842C66.1997 251.842 51.4438 234.675 59.2614 225.138C67.0789 215.6 85.993 215.745 89.1295 234.337Z" fill="#323657"/>
<path d="M77.4868 231.245C77.4868 231.245 87.9419 238.441 90.4843 238.223C90.4843 238.223 89.724 225.282 77.4868 231.245Z" fill="#FCCCA2"/>
<path d="M67.0783 242.281C66.1991 240.518 63.6566 238.394 63.1338 241.339C62.6111 244.285 66.3892 250.104 67.3872 249.018C68.3851 247.931 68.694 245.517 67.0545 242.281H67.0783Z" fill="#EEA886"/>
<path d="M90.1271 172.187C77.0108 143.695 89.1291 109.795 117.168 96.4669C145.206 83.1387 178.567 95.4528 191.66 123.944C204.776 152.436 192.658 186.336 164.619 199.664C136.581 212.993 103.22 200.678 90.1033 172.187H90.1271Z" fill="#F8BB66"/>
<path d="M167.613 198.145L120.232 95.1404C147.606 84.0818 179.042 96.5167 191.659 123.97C204.3 151.423 193.489 183.923 167.589 198.145H167.613Z" fill="#F8BB66"/>
<path d="M90.1267 172.188C79.0063 148.043 86.016 120.01 105.5 103.905L151.526 204.012C126.886 208.865 101.223 196.334 90.1267 172.188Z" fill="#F8BB66"/>
<path d="M102.317 166.391C92.3608 144.732 101.556 118.969 122.87 108.852C144.184 98.7355 169.538 108.08 179.494 129.738C189.45 151.397 180.254 177.16 158.94 187.277C137.626 197.394 112.273 188.049 102.317 166.391Z" fill="#F89829"/>
<g style="mix-blend-mode:soft-light">
<path d="M175.36 192.999C195.557 177.039 202.97 148.499 191.684 123.944C180.397 99.3878 154.093 86.8805 129.072 92.3856L175.36 192.999Z" fill="#F8F8F8"/>
</g>
<g style="mix-blend-mode:soft-light">
<path d="M151.526 203.987L105.5 103.88C108.993 100.982 112.914 98.4712 117.167 96.443C118.189 95.9601 119.211 95.5013 120.233 95.0908L167.613 198.095C166.639 198.626 165.641 199.133 164.619 199.616C160.342 201.644 155.946 203.069 151.526 203.962V203.987Z" fill="#F8F8F8"/>
</g>
<path d="M299.656 430.568H206.439V456.187H299.656V430.568Z" fill="#EBD8D0"/>
<path d="M253.036 456.188H159.819V481.806H253.036V456.188Z" fill="#EBD8D0"/>
<path d="M206.415 481.804H113.199V507.422H206.415V481.804Z" fill="#EBD8D0"/>
<path d="M853.797 504.719H757.682V516.574H853.797V504.719Z" fill="url(#paint34_linear_57_6470)"/>
<path d="M851.824 492.862H755.709V504.718H851.824V492.862Z" fill="url(#paint35_linear_57_6470)"/>
<path d="M853.797 481.006H757.682V492.861H853.797V481.006Z" fill="url(#paint36_linear_57_6470)"/>
<path d="M855.435 469.128H759.32V480.983H855.435V469.128Z" fill="url(#paint37_linear_57_6470)"/>
<path d="M852.418 457.272H756.303V469.128H852.418V457.272Z" fill="url(#paint38_linear_57_6470)"/>
<path d="M850.279 445.416H754.164V457.271H850.279V445.416Z" fill="url(#paint39_linear_57_6470)"/>
<path d="M854.2 433.562H758.085V445.418H854.2V433.562Z" fill="url(#paint40_linear_57_6470)"/>
<path d="M848.831 421.729H752.716V433.585H848.831V421.729Z" fill="url(#paint41_linear_57_6470)"/>
<path d="M846.858 409.874H750.743V421.729H846.858V409.874Z" fill="url(#paint42_linear_57_6470)"/>
<path d="M848.831 398.021H752.716V409.877H848.831V398.021Z" fill="url(#paint43_linear_57_6470)"/>
<path d="M850.471 386.143H754.355V397.998H850.471V386.143Z" fill="url(#paint44_linear_57_6470)"/>
<path d="M847.453 374.286H751.338V386.142H847.453V374.286Z" fill="url(#paint45_linear_57_6470)"/>
<path d="M845.314 362.43H749.199V374.285H845.314V362.43Z" fill="url(#paint46_linear_57_6470)"/>
<path d="M849.234 350.574H753.119V362.43H849.234V350.574Z" fill="url(#paint47_linear_57_6470)"/>
<path d="M858.196 340.379L762.108 338.044L761.829 349.896L857.917 352.231L858.196 340.379Z" fill="url(#paint48_linear_57_6470)"/>
<path d="M1290.22 494.578H1190.31V506.916H1290.22V494.578Z" fill="url(#paint49_linear_57_6470)"/>
<path d="M1293.88 482.262H1193.96V494.6H1293.88V482.262Z" fill="url(#paint50_linear_57_6470)"/>
<path d="M1291.84 469.926H1191.92V482.264H1291.84V469.926Z" fill="url(#paint51_linear_57_6470)"/>
<path d="M1293.88 457.61H1193.96V469.924H1293.88V457.61Z" fill="url(#paint52_linear_57_6470)"/>
<path d="M1295.57 445.273H1195.65V457.612H1295.57V445.273Z" fill="url(#paint53_linear_57_6470)"/>
<path d="M1292.46 432.958H1192.54V445.296H1292.46V432.958Z" fill="url(#paint54_linear_57_6470)"/>
<path d="M1290.22 420.621H1190.31V432.959H1290.22V420.621Z" fill="url(#paint55_linear_57_6470)"/>
<path d="M1294.31 408.281H1194.39V420.62H1294.31V408.281Z" fill="url(#paint56_linear_57_6470)"/>
<path d="M1298.14 506.407H1198.22V518.745H1298.14V506.407Z" fill="url(#paint57_linear_57_6470)"/>
<path d="M691.743 506.817C691.743 506.817 693.335 510.729 694.689 512.298C696.044 513.844 701.2 516.62 701.248 521.256C701.271 526.254 692.527 524.878 689.106 524.685C685.684 524.492 685.423 521.836 683.973 518.987C682.524 516.162 681.074 516.62 680.813 514.351C680.551 512.057 681.906 506.938 681.906 506.938L691.719 506.817H691.743Z" fill="#163342"/>
<path d="M665.748 222.17C665.748 222.17 681.502 216.254 680.528 237.526C679.554 258.798 675.847 260.971 665.487 258.001C655.127 255.032 654.248 241.607 652.893 235.136C651.539 228.665 660.592 223.111 665.748 222.17Z" fill="#EEA886"/>
<path d="M655.103 245.686C655.103 245.686 655.055 240.012 657.384 239.481C659.713 238.95 660.901 242.233 660.901 242.233L662.778 242.137C662.778 242.137 661.114 236.366 663.324 235.062C665.534 233.734 678.817 234.893 680.48 232.962C682.143 231.03 679.72 219.513 676.108 218.378C672.496 217.243 662.588 214.949 656.315 220.647C656.315 220.647 650.85 220.744 650.636 225.283C650.422 229.823 653.202 242.644 655.103 245.71V245.686Z" fill="#323657"/>
<path d="M659.998 237.066C659.309 235.183 655.364 235.424 655.768 238.394C656.172 241.364 659.427 245.952 660.734 245.082C662.041 244.213 660.972 239.65 659.998 237.066Z" fill="#EEA886"/>
<path d="M629.251 506.817C629.251 506.817 627.659 510.729 626.304 512.298C624.95 513.844 619.794 516.62 619.746 521.256C619.722 526.254 628.467 524.878 631.888 524.685C635.31 524.492 635.571 521.836 636.997 518.987C638.446 516.162 639.896 516.62 640.157 514.351C640.419 512.057 639.064 506.938 639.064 506.938L629.251 506.817Z" fill="#163342"/>
<path d="M629.108 505.37L628.799 507.905C628.799 507.905 634.264 509.764 639.349 508.002L639.064 504.718L629.131 505.394L629.108 505.37Z" fill="#2F6B8C"/>
<path d="M691.814 505.369L692.123 507.687C692.123 507.687 686.753 509.691 681.668 507.929L681.882 504.693L691.814 505.369Z" fill="#2F6B8C"/>
<path d="M689.653 442.157C689.653 448.339 694.215 505.877 694.215 505.877C693.621 507.929 681.194 507.857 679.174 506.819C677.155 505.78 671.404 448.58 671.024 442.375C670.644 436.145 659.69 388.699 657.908 388.893C656.126 389.086 650.233 440.443 648.807 445.175C647.381 449.908 641.465 506.843 641.465 506.843C635.596 508.05 627.065 506.577 627.065 506.577C627.065 506.577 628.111 447.759 628.372 446.021C628.753 443.437 628.372 436.507 629.394 421.103C630.321 407.316 633.647 377.327 635.762 361.101C635.833 360.522 635.905 359.966 635.976 359.435C636.38 356.272 636.689 353.954 636.855 352.844C636.926 352.361 636.95 352.095 636.95 352.095C637.52 351.829 638.115 351.588 638.732 351.347C653.559 345.938 682.168 351.66 682.168 351.66C682.168 351.66 682.168 351.805 682.216 352.071C682.263 352.385 682.311 352.916 682.382 353.568C682.548 354.992 682.786 357.141 683.071 359.604C683.071 359.604 683.071 359.628 683.071 359.653C683.071 359.725 683.071 359.797 683.095 359.87C684.093 368.683 685.495 381.577 685.376 382.929C685.186 384.981 689.606 436 689.606 442.181L689.653 442.157Z" fill="#1D3B54"/>
<path d="M625.615 345.311C625.615 345.311 603.256 317.182 603.208 311.073C603.208 308.248 607.129 298.831 610.527 294.413C611.643 292.964 612.855 291.491 614.043 290.091C618.819 284.513 623.572 279.877 623.572 279.877C623.572 279.877 635.832 265.076 644.434 273.14C644.434 273.14 644.173 278.573 641.583 282.678C638.993 286.783 635.69 289.897 634.098 291.225C632.506 292.553 618.154 307.862 617.916 308.562C617.702 309.262 621.029 317.858 623.144 321.6C626.162 326.912 632.387 339.226 632.387 339.226L625.591 345.311H625.615Z" fill="#FFCA55"/>
<path d="M693.834 345.381C693.834 345.381 718.641 319.449 719.235 313.389C719.521 310.588 716.432 300.833 713.438 296.125C712.463 294.579 711.394 293.01 710.325 291.513C706.072 285.501 701.771 280.454 701.771 280.454C701.771 280.454 690.912 264.567 681.597 271.81C681.597 271.81 681.36 277.243 683.569 281.565C685.779 285.887 688.773 289.316 690.246 290.764C691.72 292.213 704.622 308.801 704.788 309.549C704.955 310.274 700.844 318.532 698.42 322.033C694.927 327.031 687.894 339.007 687.894 339.007L693.858 345.43L693.834 345.381Z" fill="#FFCA55"/>
<path d="M672.306 263.455C672.306 263.455 674.873 264.035 663.99 274.417C663.99 274.417 656.434 265.894 656.695 264.469C656.956 263.045 672.306 263.455 672.306 263.455Z" fill="#EEA987"/>
<path d="M694.429 274.563L686.73 302.62C686.468 303.538 686.16 304.648 685.827 305.952V306.001C685.827 306.001 685.827 306.001 685.827 306.025C684.544 311.023 682.952 318.653 682.477 327.128C682.144 332.899 682.453 351.273 682.453 351.273C682.453 351.273 671.784 355.257 654.367 354.146C654.367 354.146 635.429 358.976 636.95 347.313C640.989 316.407 637.045 303.658 636.498 300.568C636.498 300.568 633.956 285.549 632.126 272.994C637.401 270.99 659.927 263.312 659.927 263.312L672.14 263.456C672.14 263.456 689.32 268.648 694.452 274.636L694.429 274.563Z" fill="#FFCA55"/>
<path d="M685.209 308.465C685.209 308.465 677.938 305.012 675.443 293.374L649.828 293.084C649.828 293.084 642.153 308.561 638.018 309.406C638.018 309.406 638.826 326.405 638.304 332.972C637.781 339.54 636.236 351.975 636.236 351.975C636.236 351.975 637.71 363.323 682.88 355.596C682.88 355.596 682.381 328.312 682.452 327.153C682.524 325.994 685.019 309.189 685.209 308.489V308.465Z" fill="#385369"/>
<path d="M675.395 293.374C675.395 293.374 678.413 277.559 684.995 268.359C684.995 268.359 684.353 267.587 682.666 267.297C682.666 267.297 675.514 277.655 672.662 293.35C669.811 309.044 675.395 293.374 675.395 293.374Z" fill="#385369"/>
<path d="M650.065 293.082C650.065 293.082 648.33 278.812 641.938 269.443C641.938 269.443 643.031 268.719 644.719 268.478C644.719 268.478 650.279 277.363 652.797 293.106C655.316 308.849 650.065 293.082 650.065 293.082Z" fill="#385369"/>
<path d="M657.052 264.35C657.052 264.35 659.737 261.645 657.218 250.949C656.553 248.124 672.022 254.353 672.022 254.353C672.022 254.353 671.903 256.695 671.903 259.038C671.903 260.076 671.95 261.138 672.022 261.983C672.093 262.611 672.188 263.142 672.307 263.432C672.996 265.05 662.707 268.454 657.052 264.35Z" fill="#EEA987"/>
<path d="M694.452 272.849C688.012 274.732 687.751 299.457 687.751 299.457C687.751 299.457 685.969 305.59 685.209 311.095C684.805 314.041 684.377 326.548 684.068 337.534V338.717L683.997 339.659C683.759 348.279 683.617 355.45 683.617 355.45C683.617 355.45 677.391 359.506 660.425 359.192C660.425 359.192 642.699 357.961 635.167 354.967C635.167 354.967 635.999 347.627 636.759 340.287C636.878 339.224 636.973 338.162 637.092 337.099C637.496 333.164 637.828 329.542 637.971 327.465C638.398 321.067 636.094 298.346 636.094 298.346C638.755 275.36 634.098 271.69 634.098 271.69C637.187 269.613 655.744 264.639 655.744 264.639C659.475 281.155 664.275 284.414 664.275 284.414C671.213 277.412 674.611 264.156 674.611 264.156C686.325 266.498 694.428 272.8 694.428 272.8L694.452 272.849Z" fill="#FFCA55"/>
<path d="M689.558 339.007C689.558 339.007 688.75 339.9 687.799 339.997C686.136 340.166 684.045 338.452 682.524 340.359C681.003 342.266 685.494 349.22 686.896 349.945C688.298 350.669 691.102 348.81 693.811 344.415C696.52 340.021 689.581 339.031 689.581 339.031L689.558 339.007Z" fill="#EEA886"/>
<path d="M683.118 339.804C683.118 339.804 679.934 341.373 676.583 343.57C673.66 345.502 670.524 348.255 671.047 349.051C671.76 350.162 673.969 347.675 676.987 345.961C679.791 344.391 679.506 345.212 679.506 345.212C679.506 345.212 679.577 344.971 676.868 347.337C673.946 349.872 670.857 352.987 671.474 353.711C671.878 354.17 671.878 354.267 673.09 353.542C672.496 354.122 672.568 354.388 672.781 354.677C673.874 356.223 678.745 353.229 680.67 352.045C679.197 352.963 678.223 353.832 679.458 354.315C680.884 354.895 687.561 350.307 690.103 348.931C692.884 347.41 683.141 339.804 683.141 339.804H683.118Z" fill="#EEA886"/>
<path d="M630.296 339.37C630.296 339.37 631.104 340.264 632.078 340.36C633.742 340.529 635.832 338.815 637.377 340.722C638.898 342.63 634.407 349.608 632.981 350.332C631.579 351.056 628.775 349.197 626.043 344.779C623.334 340.36 630.296 339.37 630.296 339.37Z" fill="#EEA886"/>
<path d="M636.76 340.168C636.76 340.168 639.967 341.737 643.318 343.959C646.264 345.915 649.377 348.643 648.854 349.464C648.141 350.575 645.932 348.088 642.89 346.373C640.086 344.804 640.371 345.625 640.371 345.625C640.371 345.625 640.3 345.383 643.033 347.75C645.955 350.285 649.068 353.4 648.427 354.148C648.023 354.607 648.023 354.703 646.811 353.979C647.405 354.559 647.357 354.824 647.12 355.114C646.003 356.659 641.155 353.665 639.207 352.458C640.68 353.375 641.678 354.245 640.419 354.728C638.993 355.307 632.292 350.719 629.75 349.319C626.97 347.798 636.736 340.168 636.736 340.168H636.76Z" fill="#EEA886"/>
<path d="M632.435 339.225C632.435 339.225 630.795 342.292 625.639 345.31C625.639 345.31 615.184 332.296 610.432 324.714H624.926C624.926 324.714 631.318 336.569 632.459 339.225H632.435Z" fill="#FFCA55"/>
<path d="M687.869 338.961C687.869 338.961 688.772 342.583 693.833 345.383C693.833 345.383 707.758 330.027 709.35 328.095L697.16 323.846C697.16 323.846 690.721 333.842 687.893 338.961H687.869Z" fill="#FFCA55"/>
<path d="M672.02 261.985C662.825 261.865 659.854 254.766 659.783 254.524C664.631 259.523 671.901 259.04 671.901 259.04C671.901 260.078 671.949 261.14 672.02 261.985Z" fill="#A77860"/>
<path d="M672.021 261.984C672.021 261.984 670.262 264.23 665.486 266.258L667.649 271.039L673.803 263.916L672.044 261.984H672.021Z" fill="#786E6A"/>
<path d="M658.002 262.081C658.002 262.081 659.784 264.93 665.487 266.282L662.968 271.715L656.434 264.423L658.026 262.081H658.002Z" fill="#786E6A"/>
<path d="M1185.39 328.267C1185.39 328.267 1191.35 328.122 1192.47 328.726C1193.56 329.329 1194.99 329.257 1195.41 329.136C1195.84 329.015 1199.79 325.732 1201 325.007C1202.21 324.307 1211.36 317.136 1210.76 317.015C1210.19 316.894 1204.66 317.305 1199.17 320.516C1192.47 324.404 1188.55 321.53 1186.1 321.53C1184.08 321.53 1185.41 328.243 1185.41 328.243L1185.39 328.267Z" fill="#EEA886"/>
<path d="M1131.19 495.932C1131.19 495.932 1129.93 507.449 1130.83 511.143C1131.73 514.837 1132.9 519.184 1136.39 519.618C1139.88 520.053 1142.21 515.803 1142 511.964C1141.81 508.246 1140.64 505.759 1139.34 502.885C1138.03 500.012 1137.6 496.559 1137.6 496.559L1131.21 495.932H1131.19Z" fill="#1C4054"/>
<path d="M1112.27 498.441C1112.27 498.441 1109.73 505.323 1108.14 506.409C1106.55 507.52 1099.58 508.776 1099.39 510.393C1099.2 512.011 1100.08 514.667 1103.77 514.909C1107.47 515.126 1112.77 515.488 1114.96 513.508C1117.14 511.504 1118.31 505.009 1119.97 504.719C1119.97 504.719 1121.94 507.448 1121.94 510.176C1121.94 510.176 1122.89 510.611 1123.11 509.741C1123.32 508.848 1122.59 497.476 1118.38 491.56C1114.17 485.644 1112.27 498.417 1112.27 498.417V498.441Z" fill="#1C4054"/>
<path d="M1117.52 398.503C1117.52 398.503 1123.75 415.791 1123.32 419.22C1122.87 422.648 1123.32 433.055 1124.75 438.27C1126.17 443.486 1125.29 454.52 1127.69 463.478C1130.09 472.46 1131.28 494.674 1131.28 497.547C1131.28 500.421 1137.27 502.425 1137.6 496.557C1137.93 490.69 1143.28 461.885 1142.19 454.134C1141.09 446.383 1138.05 436.628 1139.57 430.761C1141.09 424.894 1142.95 417.578 1142.95 413.69C1142.95 409.803 1117.55 398.503 1117.55 398.503H1117.52Z" fill="#EEA987"/>
<path d="M1115.55 398.964C1115.55 398.964 1099.3 424.438 1098.11 427.094C1096.92 429.75 1097.02 435.4 1098.11 437.283C1099.21 439.166 1110.42 455.223 1111.97 461.114C1113.49 466.982 1117.19 488.036 1118.07 490.258C1118.95 492.479 1117.81 497.067 1116.08 497.936C1114.34 498.829 1113.84 497.598 1113.84 497.598C1113.84 497.598 1105.62 478.499 1101.82 471.835C1098.75 466.475 1085.8 445.613 1084.5 443.947C1082.83 441.846 1080.84 435.786 1080.46 431.102C1080.17 427.697 1086.02 402.296 1086.02 402.296C1086.02 402.296 1084.05 391.334 1115.55 398.964Z" fill="#EEA987"/>
<path d="M1141.07 361.274C1141.07 361.274 1149.46 377.668 1147.06 391.963C1144.66 406.257 1143.57 417.557 1145.97 421.661C1145.97 421.661 1127.86 422.217 1111.39 415.577C1094.93 408.937 1083.59 405.17 1083.59 405.17C1083.59 405.17 1089.82 376.582 1092.43 369.725C1095.05 362.867 1097.04 355.141 1097.23 352.074C1097.42 349.008 1141.07 361.298 1141.07 361.298V361.274Z" fill="#1C4054"/>
<path d="M1148.61 307.646C1148.61 307.646 1162.15 317.762 1163.62 318.221C1165.07 318.656 1187.29 321.336 1191.42 322.664C1195.37 323.92 1189.93 328.193 1189.93 328.193C1189.93 328.193 1165.83 328.749 1163.43 328.193C1160.89 327.59 1160.13 328.338 1153.14 324.427C1146.16 320.515 1141.52 318.004 1141.52 318.004C1141.52 318.004 1140.12 309.65 1148.63 307.646H1148.61Z" fill="#EEA987"/>
<path d="M1090.36 317.353C1090.36 317.353 1078.39 333.144 1078.39 334.399C1078.39 335.655 1091.98 348.887 1093.57 350.142L1091.17 356.42C1091.17 356.42 1065.3 342.174 1064.06 338.697C1062.83 335.22 1072.43 320.202 1081.29 308.178C1090.15 296.153 1094.52 312.524 1090.34 317.377L1090.36 317.353Z" fill="#CE4E2B"/>
<path d="M1080.88 308.758C1080.88 309.217 1082.29 308.975 1082.55 309.168C1083.21 309.7 1083.9 310.207 1084.59 310.738C1086.09 311.849 1087.59 312.935 1089.11 314.022C1089.53 314.335 1090.27 314.649 1090.58 315.084C1090.94 315.567 1090.67 315.953 1090.53 316.629C1090.06 318.851 1089.99 318.078 1089.82 320.372C1089.49 325.153 1091.96 332.058 1094.31 335.97C1095.24 337.515 1096.5 339.133 1097.02 340.895C1097.64 343.02 1097.52 345.483 1097.45 347.68C1097.42 348.767 1097.37 349.853 1097.3 350.916C1097.3 351.109 1097.11 351.906 1097.23 352.051C1097.3 352.123 1097.85 352.123 1097.92 352.123C1099.58 352.34 1101.22 352.678 1102.86 353.041C1110.85 354.803 1118.45 357.894 1126.41 359.681C1131.14 360.743 1136.2 361.612 1141.05 361.274C1139.72 358.86 1138.84 356.397 1138.27 354.248C1137.15 350.047 1136.3 345.724 1135.63 341.402C1134.99 337.249 1134.68 332.734 1136.15 328.702C1136.91 326.65 1138.2 324.935 1139.36 323.1C1140.6 321.169 1141.14 319.285 1141.64 317.04C1142.55 313.007 1145.21 309.048 1149.03 307.406C1148.49 306.681 1147.56 306.126 1146.82 305.595C1145.61 304.726 1144.4 303.905 1143.16 303.084C1142 302.311 1140.69 301.128 1139.36 300.669C1138.48 300.355 1137.41 300.283 1136.49 300.114C1134.44 299.727 1132.42 299.341 1130.38 298.979C1124.72 297.965 1119.07 297.047 1113.37 296.275C1108.14 295.574 1102.84 294.874 1097.54 294.971C1095.43 294.995 1093.5 295.212 1091.62 296.275C1087.16 298.834 1083.52 304.363 1080.84 308.71L1080.88 308.758Z" fill="url(#paint58_linear_57_6470)"/>
<path d="M1116.19 247.475C1116.19 247.475 1106.19 247.21 1103.77 256.771C1101.63 265.27 1102.89 272.659 1102.96 278.55C1103.03 284.466 1096.99 294.052 1096.99 294.052C1096.99 294.052 1107.05 293.038 1107.97 289.85C1108.92 286.663 1127.17 294.438 1127.17 294.438C1127.17 294.438 1121.14 290.454 1126.74 279.227C1132.33 267.999 1132.37 263.073 1132.57 259.427C1132.68 257.061 1130.21 247.548 1116.19 247.451V247.475Z" fill="#FCCCA2"/>
<path d="M1124.41 250.349C1124.41 250.349 1134.51 257.81 1130.09 272.587C1125.65 287.364 1122.75 286.47 1115.55 283.162C1108.35 279.83 1105.88 270.824 1105.6 266.333C1105.31 261.818 1105.17 242.477 1124.41 250.373V250.349Z" fill="#EEA987"/>
<path d="M1094.12 295.308C1099.68 299.388 1142.24 303.3 1139.46 300.716C1136.96 298.374 1124.53 293.038 1121.28 291.106C1120.09 290.406 1119.38 289.295 1118.95 288.161C1118.24 286.277 1118.36 284.346 1118.36 284.346C1118.28 284.152 1110.16 264.208 1109.07 277.126C1108.11 288.281 1104.29 290.285 1104.29 290.285C1096.69 294.414 1094.14 295.308 1094.14 295.308H1094.12Z" fill="#EEA987"/>
<path d="M1125.94 255.952C1125.94 255.952 1123.99 255.686 1122.35 262.954C1121.64 266.117 1119.78 270.487 1113.94 274.858C1107.59 279.614 1106.52 279.952 1106.52 279.952C1106.52 279.952 1098.47 249.988 1115.32 248.37C1132.19 246.728 1132.04 260.443 1131.88 263.775C1131.73 267.107 1131.14 266.576 1131.14 266.576C1131.14 266.576 1130.93 256.362 1125.91 255.952H1125.94Z" fill="#FCCCA2"/>
<path d="M1093.6 350.141C1093.6 350.141 1094.45 350.673 1095.31 350.528C1096.78 350.262 1098.16 348.451 1099.97 349.586C1101.77 350.697 1099.63 357.12 1098.61 358.013C1097.57 358.906 1094.67 359.22 1091.22 356.468C1087.78 353.691 1093.62 350.166 1093.62 350.166L1093.6 350.141Z" fill="#EEA987"/>
<path d="M1099.25 349.225C1099.25 349.225 1102.41 349.708 1105.88 350.649C1108.92 351.47 1112.3 352.967 1112.37 353.619C1112.46 354.343 1109.21 353.233 1106.12 352.629C1103.29 352.074 1100.65 351.736 1100.65 351.736C1100.65 351.736 1103.62 352.46 1106.57 353.667C1109.75 354.947 1112.87 356.565 1112.87 357.362C1112.87 357.748 1111.66 357.603 1109.99 357.217C1111.25 357.7 1112.11 358.134 1111.99 358.4C1111.42 359.849 1102.89 357.772 1100.92 357.289C1102.44 357.651 1107.05 358.979 1106.1 359.655C1105 360.428 1098.56 358.593 1095.95 358.617C1093.34 358.641 1099.23 349.225 1099.23 349.225H1099.25Z" fill="#EEA987"/>
<path d="M1110.85 279.563C1110.85 279.563 1111.85 284.489 1118.97 288.183C1118.26 286.3 1118.38 284.368 1118.38 284.368C1118.38 284.368 1112.27 281.978 1110.85 279.563Z" fill="#A87860"/>
<path d="M1141.5 318.003C1141.5 318.003 1153.45 328.433 1161.55 328.433C1169.66 328.433 1189.83 329.23 1189.83 329.23L1192.82 322.156C1192.82 322.156 1165.71 318.606 1164 318.027C1162.29 317.471 1148.3 306.654 1148.3 306.654C1148.3 306.654 1138.93 308.175 1141.5 317.978V318.003Z" fill="#DD312F"/>
<path d="M1289.89 396.476H1189.97V408.814H1289.89V396.476Z" fill="url(#paint59_linear_57_6470)"/>
<path d="M1293.55 384.16H1193.63V396.474H1293.55V384.16Z" fill="url(#paint60_linear_57_6470)"/>
<path d="M1291.51 371.823H1191.59V384.162H1291.51V371.823Z" fill="url(#paint61_linear_57_6470)"/>
<path d="M1293.55 359.483H1193.63V371.822H1293.55V359.483Z" fill="url(#paint62_linear_57_6470)"/>
<path d="M1295.26 347.171H1195.34V359.509H1295.26V347.171Z" fill="url(#paint63_linear_57_6470)"/>
<path d="M1292.12 334.831H1192.21V347.145H1292.12V334.831Z" fill="url(#paint64_linear_57_6470)"/>
<path d="M1289.89 322.518H1189.97V334.856H1289.89V322.518Z" fill="url(#paint65_linear_57_6470)"/>
<path d="M1293.98 310.179H1194.06V322.493H1293.98V310.179Z" fill="url(#paint66_linear_57_6470)"/>
<path d="M1297.83 408.282H1197.91V420.621H1297.83V408.282Z" fill="url(#paint67_linear_57_6470)"/>
<path d="M1176.86 16.2329C1176.86 16.2329 1174.43 11.935 1174.08 11.2831C1173.72 10.607 1173.93 8.50635 1174.39 6.1401C1174.84 3.74971 1176.5 0.731532 1176.88 0.562514C1177.26 0.393496 1177.57 0.0554634 1178.61 0.272772C1179.66 0.49008 1180.4 1.26273 1180.4 1.26273C1180.4 1.26273 1181.8 0.924699 1182.65 1.96295C1182.65 1.96295 1183.98 1.72149 1184.77 3.02534C1184.77 3.02534 1186.08 2.80804 1186.57 3.82215C1186.57 3.82215 1186.36 5.92279 1186.5 6.71959C1186.65 7.51638 1185.46 12.925 1184.13 16.9814C1184.13 16.9814 1182.06 19.3235 1176.86 16.2087V16.2329Z" fill="#EEA886"/>
<path d="M1178.9 9.54321C1178.9 9.54321 1180.85 11.0402 1181.18 11.7404C1181.51 12.4407 1186.01 9.18103 1186.01 9.18103C1186.01 9.18103 1180.75 7.17696 1178.9 9.54321Z" fill="#CF8C6C"/>
<path d="M1176.74 1.18967C1176.74 1.18967 1175.74 7.27431 1176.69 7.56405C1177.64 7.85379 1178.16 7.37088 1178.16 7.37088L1178.88 10.051C1178.88 10.051 1180.33 11.5722 1181.54 9.49568C1181.54 9.49568 1182.75 11.041 1183.68 8.91619C1183.68 8.91619 1184.93 9.56812 1185.53 8.67474C1186.12 7.75721 1186.6 3.82152 1186.6 3.82152C1186.6 3.82152 1186.34 2.95228 1184.79 3.02471C1184.79 3.02471 1184.1 1.72087 1182.68 1.96232C1182.68 1.96232 1181.96 0.996503 1180.42 1.2621C1180.42 1.2621 1178.69 -0.766108 1176.9 0.537743C1176.9 0.537743 1176.81 0.89992 1176.76 1.16552L1176.74 1.18967Z" fill="#DB9C7C"/>
<path d="M1174.08 11.088C1174.08 11.088 1176.55 7.68346 1178.71 6.4279C1179.21 6.13815 1179.73 5.96914 1180.16 6.30717C1180.61 6.66935 1180.66 7.75589 1179.66 9.27705C1178.66 10.7982 1178.04 13.2369 1178.04 13.2369C1178.04 13.2369 1176.57 14.4925 1174.05 11.0397L1174.08 11.088Z" fill="#EEA886"/>
<path d="M1085.56 19.1539C1085.56 19.1539 1086.94 14.4214 1087.13 13.6729C1087.32 12.9485 1086.63 10.9444 1085.66 8.72305C1084.69 6.50168 1082.38 3.94226 1081.98 3.86983C1081.57 3.79739 1081.19 3.5318 1080.24 3.99056C1079.29 4.44932 1078.72 5.36685 1078.72 5.36685C1078.72 5.36685 1077.27 5.36685 1076.68 6.57412C1076.68 6.57412 1075.32 6.64655 1074.85 8.11942C1074.85 8.11942 1073.52 8.216 1073.28 9.32669C1073.28 9.32669 1073.97 11.3308 1073.99 12.1276C1074.04 12.9485 1076.42 17.9224 1078.63 21.5684C1078.63 21.5684 1081.17 23.3552 1085.54 19.1297L1085.56 19.1539Z" fill="#EEA886"/>
<path d="M1082.05 13.0933C1082.05 13.0933 1080.48 15.0008 1080.31 15.7734C1080.15 16.5461 1075.04 14.3971 1075.04 14.3971C1075.04 14.3971 1079.7 11.2341 1082.02 13.0933H1082.05Z" fill="#CF8C6C"/>
<path d="M1082.29 4.47252C1082.29 4.47252 1084.62 10.1467 1083.76 10.6537C1082.9 11.1608 1082.29 10.7986 1082.29 10.7986L1082.22 13.5753C1082.22 13.5753 1081.15 15.3862 1079.51 13.6719C1079.51 13.6719 1078.67 15.4828 1077.3 13.6236C1077.3 13.6236 1076.23 14.5653 1075.44 13.8168C1074.66 13.0683 1073.3 9.34989 1073.3 9.34989C1073.3 9.34989 1073.38 8.43237 1074.87 8.14262C1074.87 8.14262 1075.23 6.71805 1076.7 6.59732C1076.7 6.59732 1077.18 5.48663 1078.75 5.39005C1078.75 5.39005 1079.98 3.0238 1082 3.86889C1082 3.86889 1082.19 4.20693 1082.29 4.44838V4.47252Z" fill="#DB9C7C"/>
<path d="M1087.09 13.5038C1087.09 13.5038 1083.9 10.7754 1081.53 10.051C1080.98 9.88197 1080.43 9.83368 1080.08 10.2683C1079.72 10.7271 1079.91 11.7895 1081.24 13.045C1082.55 14.3006 1083.69 16.522 1083.69 16.522C1083.69 16.522 1085.42 17.4153 1087.06 13.4555L1087.09 13.5038Z" fill="#EEA886"/>
<path d="M1143.16 66.5017C1143.16 66.5017 1129.62 75.9184 1130.28 70.1718C1130.95 64.4252 1129.5 58.4371 1129.5 58.4371C1129.5 58.4371 1142.95 52.4974 1142.33 56.7711C1142.19 57.7611 1142.16 58.8235 1142.19 59.8617C1142.24 61.069 1142.38 62.2763 1142.52 63.2904C1142.81 65.1496 1143.16 66.4775 1143.16 66.4775V66.5017Z" fill="#EEA886"/>
<path d="M1075.06 22.6559L1086.28 18.9134C1086.28 18.9134 1093.64 34.3423 1094.88 38.0607C1096.04 41.61 1100.99 51.0509 1101.98 52.9101C1103.24 55.2039 1115.31 72.8783 1117.6 72.8783C1119.02 72.8783 1123.01 71.3813 1126.24 70.0774C1128.19 69.2806 1129.88 68.5321 1130.52 68.2424C1132.28 67.4215 1141.81 64.8138 1145.14 65.1518C1145.14 65.1518 1145.92 65.2725 1147.13 65.3691C1149.86 65.6347 1154.76 65.9727 1157.25 65.1518C1160.84 63.9687 1162.72 61.0471 1164.88 58.6808C1167.04 56.3146 1174.12 47.9844 1174.67 46.246C1175.22 44.5075 1175.6 29.1269 1175.79 24.7807C1176 20.3862 1175.86 15.5813 1175.79 15.0501C1175.69 14.4948 1188.17 14.4706 1188 16.0159C1187.81 17.5612 1187.93 30.1893 1187.36 36.3222C1186.86 41.7549 1186 47.4532 1185.01 49.916C1184.01 52.3789 1173.51 68.4356 1172.25 71.3572C1170.99 74.2787 1165.86 81.7638 1165.43 82.8503C1164.98 83.9369 1163.53 96.1545 1162.17 99.7038C1160.82 103.253 1162.1 127.543 1162.65 131.455C1163.19 135.367 1164.76 139.061 1164.76 139.061C1164.76 139.061 1143.42 143.769 1122.32 145.411C1122.32 145.411 1123.7 135.125 1123.44 131.214C1123.18 127.302 1118.5 102.722 1116.53 98.907C1114.55 95.0679 1096.42 68.0734 1095.71 66.9868C1095 65.9003 1089.13 58.536 1087.82 55.7351C1087.82 55.7351 1075.49 24.8531 1075.09 22.6559H1075.06Z" fill="#323657"/>
<path d="M1142.52 63.2909C1134.37 64.8121 1131.33 60.0072 1131.33 60.0072C1136.63 63.6531 1142.12 59.8865 1142.19 59.8623C1142.24 61.0696 1142.38 62.2768 1142.52 63.2909Z" fill="#A77860"/>
<path d="M1211.83 143.937C1211.5 146.231 1197.91 155.913 1195.22 157.845C1193.06 159.39 1191.21 160.114 1187.95 161.346C1180.56 163.326 1134.2 177.378 1134.2 177.378C1134.09 176.895 1134.01 176.485 1133.75 175.954C1132.02 176.654 1130.24 177.113 1129.12 177.475C1127.39 178.03 1113.7 178.465 1110.89 179.02C1108.09 179.576 1102.48 180.445 1100.23 178.248C1097.97 176.05 1101.63 171.342 1104.76 170.135C1107.9 168.927 1119.33 168.589 1121.37 168.372C1123.42 168.155 1126.13 167.382 1127.41 167.817C1127.81 167.962 1129.62 167.406 1131.9 166.609C1131.85 165.764 1131.83 165.209 1131.83 165.209L1143.99 161.636L1141.74 139.736C1141.74 139.736 1147.04 119.454 1168.18 134.931C1168.18 134.931 1172.91 136.331 1174.53 136.79C1174.65 136.814 1174.81 136.814 1175.07 136.79C1178.31 136.548 1192.16 132.275 1197.17 132.275C1202.57 132.275 1204.3 131.937 1206.23 132.927C1208.17 133.917 1212.17 141.595 1211.83 143.889V143.937Z" fill="#474747"/>
<path d="M1190.16 178.249C1187.91 180.447 1182.3 179.553 1179.49 179.022C1176.69 178.467 1163 178.032 1161.27 177.477C1159.53 176.921 1156.3 176.173 1154.05 174.628C1153.86 174.507 1153.45 174.314 1152.83 174.096L1149.41 176.608L1101.79 161.203C1098.94 160.406 1096.69 159.199 1095.16 157.871C1092.69 155.673 1078.89 146.257 1078.56 143.963C1078.22 141.669 1082.21 133.991 1084.16 133.001C1086.11 132.011 1087.82 132.349 1093.22 132.349C1098.61 132.349 1114.25 137.275 1115.86 136.84C1116.6 136.647 1118.12 135.85 1119.57 135.053C1121.3 134.088 1122.92 133.122 1122.92 133.122C1146.09 122.618 1148.65 139.81 1148.65 139.81L1147.27 161.034C1147.27 161.034 1149.2 162 1151.72 163.207L1163.19 166.515L1161.7 167.625C1162.34 167.843 1162.81 167.939 1163 167.867C1164.29 167.432 1167 168.205 1169.04 168.422C1171.08 168.64 1182.51 168.978 1185.65 170.185C1188.79 171.392 1192.44 176.1 1190.19 178.298L1190.16 178.249Z" fill="#474747"/>
<path d="M1119.57 135.027C1121.16 135.148 1131.95 141.498 1134.51 143.019C1130.62 140.943 1115.86 136.814 1115.86 136.814C1116.6 136.621 1118.12 135.824 1119.57 135.027Z" fill="#474747"/>
<path d="M1175.07 136.838C1175.07 136.838 1156.47 141.426 1153.07 143.334C1153.24 143.213 1162.86 135.776 1167.92 134.786C1167.92 134.786 1172.89 136.38 1174.5 136.814C1174.62 136.839 1174.79 136.839 1175.05 136.814L1175.07 136.838Z" fill="#474747"/>
<path d="M1190.16 178.248C1187.9 180.446 1182.3 179.552 1179.49 179.021C1176.69 178.466 1163 178.031 1161.27 177.476C1160.77 177.307 1160.15 177.138 1159.46 176.945C1157.75 176.438 1155.66 175.737 1154.04 174.627C1153.85 174.506 1153.45 174.313 1152.83 174.095L1161.46 167.769L1161.7 167.576C1162.34 167.793 1162.81 167.89 1163 167.818C1164.29 167.383 1166.99 168.156 1169.04 168.373C1171.08 168.59 1182.51 168.928 1185.65 170.136C1188.78 171.343 1192.44 176.051 1190.19 178.248H1190.16Z" fill="#292929"/>
<path d="M1190.16 178.248C1187.91 180.446 1182.3 179.552 1179.49 179.021C1176.69 178.466 1163 178.031 1161.27 177.476C1160.77 177.307 1160.15 177.138 1159.46 176.945C1159.46 176.945 1163.24 173.154 1161.46 167.769L1161.7 167.576C1162.34 167.793 1162.81 167.89 1163 167.818C1164.29 167.383 1167 168.156 1169.04 168.373C1171.08 168.59 1182.51 168.928 1185.65 170.136C1188.79 171.343 1192.44 176.051 1190.19 178.248H1190.16Z" fill="#292929"/>
<path d="M1124.3 139.88C1124.3 139.88 1124.3 139.976 1124.3 140.001C1124.08 140.17 1124.11 140.097 1124.3 139.88Z" fill="#E55353"/>
<path d="M1129.95 155.479C1129.95 155.479 1114.89 146.304 1108.3 144.855C1102.08 143.503 1099.82 141.137 1099.82 141.137C1099.82 141.137 1109.71 141.137 1116.29 145.893C1120.76 149.129 1129.95 155.479 1129.95 155.479Z" fill="#292929"/>
<path d="M1143.33 161.878C1143.33 161.878 1169.54 147.897 1180.23 144.855C1186.36 143.117 1188.71 141.137 1188.71 141.137C1188.71 141.137 1172.51 142.754 1162.67 148.767C1157.97 151.64 1143.33 161.878 1143.33 161.878Z" fill="#292929"/>
<path d="M1133.75 175.977C1132.02 176.677 1130.24 177.136 1129.12 177.498C1127.39 178.054 1113.7 178.488 1110.89 179.044C1108.09 179.599 1102.48 180.468 1100.23 178.271C1097.97 176.074 1101.63 171.365 1104.76 170.158C1107.9 168.951 1119.33 168.613 1121.37 168.395C1123.42 168.178 1126.13 167.405 1127.41 167.84C1127.81 167.985 1129.62 167.43 1131.9 166.633C1131.97 168.033 1133.78 175.953 1133.78 175.953L1133.75 175.977Z" fill="#292929"/>
<path d="M1143.33 174.649L1169.09 166.899L1164 165.329C1164 165.329 1143.42 172.911 1143.33 174.649Z" fill="#474747"/>
<path d="M1143.33 174.651L1155.38 170.908L1147.04 175.834L1143.33 174.651Z" fill="#292929"/>
<path d="M1135.06 143.335C1135.06 143.335 1134.85 143.215 1134.51 143.021C1134.73 143.142 1134.92 143.239 1135.06 143.335Z" fill="#525252"/>
<path d="M1129.12 177.476C1127.39 178.031 1113.7 178.466 1110.89 179.021C1108.09 179.577 1102.48 180.446 1100.23 178.249C1097.97 176.052 1101.63 171.343 1104.76 170.136C1107.9 168.929 1119.33 168.591 1121.37 168.373C1123.42 168.156 1126.13 167.383 1127.41 167.818C1127.41 167.818 1123.94 173.178 1129.14 177.452L1129.12 177.476Z" fill="#292929"/>
<path d="M1120.61 141.137L1116.64 118.198L1167.97 116.991L1164.67 139.567C1164.67 139.567 1148.29 145.652 1142.73 149.225C1142.73 149.225 1128.69 143.358 1120.64 141.161L1120.61 141.137Z" fill="#DBCAC2"/>
<path d="M1145.73 132.032C1145.73 133.94 1144.45 135.461 1142.85 135.461C1141.26 135.461 1139.98 133.915 1139.98 132.032C1139.98 130.149 1141.26 128.604 1142.85 128.604C1144.45 128.604 1145.73 130.149 1145.73 132.032Z" fill="#BAACA5"/>
<path d="M1132.04 30.5753C1132.04 30.5753 1145.11 25.8911 1145.71 42.3099C1146.32 58.9702 1143.47 61.2399 1139.22 62.0609C1133.87 63.075 1128.07 61.4572 1123.44 49.0465C1119.02 37.2394 1123.82 31.5652 1132.04 30.5994V30.5753Z" fill="#EEA886"/>
<path d="M1124.84 52.3778C1124.84 52.3778 1123.54 50.0357 1124.75 49.1906C1125.96 48.3455 1126.74 49.5286 1126.74 49.5286L1128.03 49.3113C1128.03 49.3113 1125.46 45.0859 1129.5 44.1925C1133.54 43.2991 1142.16 42.5265 1144.35 40.8604C1144.35 40.8604 1145.11 44.0235 1145.18 44.7478C1145.25 45.4722 1145.78 44.5788 1145.78 44.5788C1145.78 44.5788 1146.56 32.6993 1139.03 28.7153C1131.5 24.7072 1123.3 29.488 1121.97 34.0031C1120.61 38.5425 1120.28 43.0094 1124.84 52.3536V52.3778Z" fill="#E8734D"/>
<path d="M1125.01 46.2208C1125.01 46.2208 1123.56 45.0618 1123.35 46.2691C1123.13 47.4764 1125.79 52.5952 1126.48 52.6193C1127.17 52.6435 1126.72 47.5971 1125.01 46.1967V46.2208Z" fill="#EEA886"/>
<path d="M1128 69.3761C1128 69.3761 1133.63 75.0985 1140.62 72.853C1147.61 70.6075 1145.8 65.2472 1145.8 65.2472C1145.8 65.2472 1140.79 63.6053 1128 69.3761Z" fill="#C4B5AE"/>
<path d="M1130.45 66.2624L1138.29 69.86L1138.6 69.0391L1139.31 69.6186L1142.59 63.7754L1130.45 66.2624Z" fill="#EEA886"/>
<path d="M1130.45 66.2617C1130.45 66.2617 1136.27 68.0726 1138.6 69.0384L1136.91 73.9882L1129.83 68.5555L1130.43 66.2617H1130.45Z" fill="#EAD8CF"/>
<path d="M1138.6 69.0391C1138.6 69.0391 1141.52 66.0209 1142.59 63.7754L1143.99 65.1034L1142.69 72.4919L1138.62 69.0391H1138.6Z" fill="#EAD8CF"/>
<path d="M442.366 340.797C442.366 340.797 443.055 346.592 443.982 349.151C444.908 351.711 449.946 357.626 447.807 363.3C445.502 369.457 435.427 363.518 431.317 361.634C427.206 359.751 428.156 356.346 427.705 352.169C427.277 347.992 425.257 347.871 425.994 344.95C426.731 342.028 431.222 336.402 431.222 336.402L442.318 340.773L442.366 340.797Z" fill="#213A70"/>
<path d="M433.195 333.384C433.195 333.384 430.605 337.054 430.676 337.15C430.748 337.247 441.725 344.032 442.486 341.835C443.103 340.096 443.341 337.561 443.341 337.561L433.171 333.384H433.195Z" fill="#EEA886"/>
<path d="M396.008 344.902C396.008 344.902 392.658 347.872 389.664 352.46C386.646 357.047 378.686 357.289 378.33 363.542C377.997 369.796 389.188 369.989 395.058 367.961C400.927 365.933 401.83 359.824 405.37 358.279C408.934 356.758 410.764 355.526 410.503 352.532C410.241 349.538 408.269 344.709 408.269 344.709C408.269 344.709 406.059 345.433 404.752 345.578C403.445 345.723 399.097 345.771 396.008 344.902Z" fill="#213A70"/>
<path d="M436.284 175.449C436.284 175.449 434.027 189.067 432.221 198.049C431.484 201.695 430.819 204.593 430.415 205.486C429.892 206.621 425.663 211.233 420.506 216.641C411.43 226.13 399.43 238.107 399.43 238.107L394.749 229.052C394.749 229.052 405.394 216.352 412.618 207.901C415.968 203.989 418.558 200.971 419.057 200.536C420.578 199.16 422.312 185.639 424.784 174.508C427.255 163.377 432.173 157.195 432.173 157.195L436.308 175.449H436.284Z" fill="#FAE6DE"/>
<path d="M420.483 216.64C411.406 226.129 399.407 238.105 399.407 238.105L394.726 229.051C394.726 229.051 405.371 216.35 412.594 207.899C414.804 209.01 418.867 211.642 420.483 216.64Z" fill="#EEA886"/>
<path d="M396.532 340.748L396.009 344.925C396.009 344.925 401.83 347.026 408.246 344.732L408.388 341.014L396.532 340.748Z" fill="#EEA886"/>
<path d="M479.244 236.247C479.576 237.454 417.535 236.247 417.535 236.247C417.535 236.247 434.691 223.547 435.808 220.166C436.925 216.786 431.436 196.431 430.723 189.815C430.152 184.528 428.727 160.817 432.148 157.195C435.736 153.404 448.686 149.444 448.686 149.444L467.553 150.145C467.553 150.145 470.666 150.796 472.899 151.859C475.133 152.921 487.845 157.509 489.913 163.98C491.98 170.451 477.224 191.216 477.224 191.216C477.224 191.216 477.2 192.158 477.153 193.679C477.105 195.707 477.01 198.822 476.939 202.178C476.844 206.524 476.749 211.329 476.749 214.83C476.749 223.064 478.935 235.064 479.267 236.271L479.244 236.247Z" fill="#FAE6DE"/>
<path d="M479.244 236.247C479.244 236.247 487.679 248.851 487.798 257.447C487.917 266.043 472.828 294.848 470.547 298.977C463.68 311.364 444.837 338.093 444.837 338.093C444.837 338.093 441.582 338.02 431.459 334.012C431.459 334.012 443.982 298.712 445.574 295.066C452.298 279.54 456.076 268.506 453.795 265.85C451.538 263.194 445.36 260.514 443.578 258.944C441.796 257.375 410.644 264.932 407.389 265.777C398.93 267.999 402.779 282.945 404.657 289.633C407.793 300.836 410.526 341.304 410.526 341.304C410.526 341.304 404.514 343.912 394.415 341.715C394.415 341.715 374.622 268.651 373.981 261.383C373.339 254.115 373.03 242.139 421.812 233.036L479.22 236.296L479.244 236.247Z" fill="#303669"/>
<path d="M453.843 107.793C453.843 107.793 437.472 104.05 441.202 124.984C444.933 145.918 448.877 147.56 458.762 143.238C468.647 138.916 467.744 125.491 468.243 118.924C468.742 112.356 459.047 108.034 453.843 107.817V107.793Z" fill="#EEA886"/>
<path d="M449.519 154.804C449.519 154.804 456.766 162.603 468.219 155.529C468.219 155.529 465.653 138.603 467.007 130.369C468.361 122.136 452.061 143.142 452.061 143.142C452.275 143.263 452.417 144.036 452.441 145.17C452.465 146.112 452.441 147.295 452.275 148.527C451.942 151.279 451.111 154.153 449.519 154.829V154.804Z" fill="#EEA886"/>
<path d="M467.459 129.645C467.459 129.645 467.032 123.053 464.655 122.836C462.279 122.619 461.923 125.275 461.923 125.275L459.523 125.733C459.523 125.733 460.283 119.963 457.907 118.948C455.531 117.934 442.557 122.136 440.68 120.445C438.779 118.755 439.682 107.021 443.104 105.427C446.549 103.833 456.03 100.236 462.992 105.017C462.992 105.017 468.41 104.389 469.218 108.832C470.026 113.274 468.932 126.361 467.459 129.669V129.645Z" fill="#3A3F47"/>
<path d="M452.274 148.503C464.084 144.809 464.987 137.565 464.987 137.444C461.09 144.229 452.441 145.147 452.441 145.147C452.465 146.088 452.441 147.272 452.274 148.503Z" fill="#A77860"/>
<path d="M473.067 151.956C473.067 151.956 464.418 169.462 450.423 168.327C436.427 167.192 448.046 149.59 448.664 149.421C449.353 149.252 463.016 145.799 473.044 151.932L473.067 151.956Z" fill="#EEA886"/>
<path d="M410.432 235.377C410.432 235.377 453.274 240.738 479.245 236.271L429.631 229.969C429.631 229.969 429.346 231.248 410.432 235.377Z" fill="#FAE6DE"/>
<path d="M442.486 227.964L439.302 229.606C439.302 229.606 440.038 234.749 441.773 236.318L445.361 235.401C445.361 235.401 444.624 229.751 442.486 227.964Z" fill="#EEA886"/>
<path d="M492.052 217.414C491.411 218.163 482.999 221.616 473.471 225.334C460.473 230.429 445.812 235.234 445.812 235.234L442.462 227.966C442.462 227.966 457.812 219.491 468.196 213.527C473.09 210.726 476.892 208.48 477.415 207.949C479.078 206.332 479.506 203.748 478.294 199.233C477.059 194.718 474.231 173.953 473.922 171.538C473.613 169.124 474.706 162.653 480.67 162.339C486.634 162.025 489.652 163.715 489.652 163.715C489.652 163.715 491.149 164.343 492.266 179.047C493.383 193.752 493.549 215.628 492.028 217.39L492.052 217.414Z" fill="#FAE6DE"/>
<path d="M477.129 193.654C477.082 195.682 476.987 198.797 476.915 202.153C471.094 187.666 474.468 176.1 474.515 175.907C473.874 179.843 477.082 193.461 477.129 193.654Z" fill="#968A86"/>
<path d="M432.221 198.024C431.484 201.67 430.819 204.568 430.415 205.461C428.419 195.682 430.225 183.175 430.225 183.175C430.486 189.163 432.244 198.024 432.244 198.024H432.221Z" fill="#968A86"/>
<path d="M473.493 225.334C460.496 230.429 445.359 235.403 445.359 235.403L442.484 227.966C442.484 227.966 457.834 219.491 468.218 213.527C468.218 213.527 471.996 215.387 473.493 225.31V225.334Z" fill="#EEA886"/>
<path d="M441.558 235.836L380.657 234.918L411.405 250.782L441.558 235.836Z" fill="#807571"/>
<path d="M411.406 250.784L441.56 238.928V235.838L409.03 247.766L411.406 250.784Z" fill="#DBCAC2"/>
<path d="M439.967 229.726C439.967 229.726 436.165 229.123 433.528 228.495C431.484 228.012 426.423 228.688 425.14 229.992C423.857 231.32 419.746 240.568 418.986 241.123C418.202 241.678 419.39 242.982 420.744 242.33C420.744 242.33 422.003 246.387 425.069 244.866C428.158 243.344 430.249 240.036 431.864 239.457C433.48 238.877 442.89 235.932 442.89 235.932C442.89 235.932 442.391 228.712 439.967 229.678V229.726Z" fill="#EEA886"/>
<path d="M426.09 229.414C426.09 229.414 423.643 230.621 423.001 231.153C422.36 231.684 419.77 233.664 419.152 234.122C418.534 234.581 420.103 235.909 424.712 233.857C429.346 231.829 426.067 229.414 426.067 229.414H426.09Z" fill="#EEA886"/>
<path d="M411.405 250.782L393.275 200.535L334.894 201.501L352.144 247.812L411.405 250.782Z" fill="#DBCAC2"/>
<path d="M374.599 222.772C376.381 226.394 375.834 230.33 373.387 231.585C370.939 232.841 367.518 230.909 365.736 227.287C363.954 223.665 364.5 219.73 366.948 218.474C369.395 217.219 372.817 219.15 374.599 222.772Z" fill="#B0A29C"/>
<path d="M461.994 122.498C462.208 120.663 465.796 119.962 466.081 122.739C466.366 125.516 464.442 130.369 463.087 129.886C461.733 129.403 461.685 125.033 461.994 122.498Z" fill="#EEA886"/>
<defs>
<linearGradient id="paint0_linear_57_6470" x1="480.171" y1="309.405" x2="300.487" y2="309.405" gradientUnits="userSpaceOnUse">
<stop stop-color="#CC512B"/>
<stop offset="1" stop-color="#DE2F2F"/>
</linearGradient>
<linearGradient id="paint1_linear_57_6470" x1="564.596" y1="461.474" x2="386.623" y2="461.474" gradientUnits="userSpaceOnUse">
<stop stop-color="#CC512B"/>
<stop offset="1" stop-color="#DE2F2F"/>
</linearGradient>
<linearGradient id="paint2_linear_57_6470" x1="169.703" y1="392.684" x2="509.112" y2="392.684" gradientUnits="userSpaceOnUse">
<stop stop-color="#609FF0"/>
<stop offset="1" stop-color="#5A3F9E"/>
</linearGradient>
<linearGradient id="paint3_linear_57_6470" x1="659.903" y1="445.153" x2="999.312" y2="445.153" gradientUnits="userSpaceOnUse">
<stop stop-color="#609FF0"/>
<stop offset="1" stop-color="#5A3F9E"/>
</linearGradient>
<linearGradient id="paint4_linear_57_6470" x1="1048.71" y1="459.831" x2="1378.69" y2="459.831" gradientUnits="userSpaceOnUse">
<stop stop-color="#CC512B"/>
<stop offset="1" stop-color="#DE2F2F"/>
</linearGradient>
<linearGradient id="paint5_linear_57_6470" x1="1027.56" y1="388.311" x2="1392.42" y2="388.311" gradientUnits="userSpaceOnUse">
<stop stop-color="#609FF0"/>
<stop offset="1" stop-color="#5A3F9E"/>
</linearGradient>
<linearGradient id="paint6_linear_57_6470" x1="1442.89" y1="302.716" x2="1156.49" y2="302.716" gradientUnits="userSpaceOnUse">
<stop stop-color="#CC512B"/>
<stop offset="1" stop-color="#DE2F2F"/>
</linearGradient>
<linearGradient id="paint7_linear_57_6470" x1="1044.29" y1="208.405" x2="1347.7" y2="208.405" gradientUnits="userSpaceOnUse">
<stop stop-color="#CC512B"/>
<stop offset="1" stop-color="#DE2F2F"/>
</linearGradient>
<linearGradient id="paint8_linear_57_6470" x1="1105.55" y1="125.563" x2="1408.96" y2="125.563" gradientUnits="userSpaceOnUse">
<stop stop-color="#609FF0"/>
<stop offset="1" stop-color="#5A3F9E"/>
</linearGradient>
<linearGradient id="paint9_linear_57_6470" x1="1018.8" y1="360.859" x2="679.387" y2="360.859" gradientUnits="userSpaceOnUse">
<stop stop-color="#CC512B"/>
<stop offset="1" stop-color="#DE2F2F"/>
</linearGradient>
<linearGradient id="paint10_linear_57_6470" x1="687.395" y1="298.493" x2="1066.91" y2="298.493" gradientUnits="userSpaceOnUse">
<stop stop-color="#609FF0"/>
<stop offset="1" stop-color="#5A3F9E"/>
</linearGradient>
<linearGradient id="paint11_linear_57_6470" x1="676.393" y1="247.427" x2="952.477" y2="247.427" gradientUnits="userSpaceOnUse">
<stop stop-color="#CC512B"/>
<stop offset="1" stop-color="#DE2F2F"/>
</linearGradient>
<linearGradient id="paint12_linear_57_6470" x1="1289.94" y1="78.8426" x2="1351.22" y2="78.8426" gradientUnits="userSpaceOnUse">
<stop stop-color="#FF9340"/>
<stop offset="1" stop-color="#FFCE45"/>
</linearGradient>
<linearGradient id="paint13_linear_57_6470" x1="1292.17" y1="71.285" x2="1353.48" y2="71.285" gradientUnits="userSpaceOnUse">
<stop stop-color="#F58631"/>
<stop offset="1" stop-color="#F2C23F"/>
</linearGradient>
<linearGradient id="paint14_linear_57_6470" x1="1290.94" y1="63.7042" x2="1352.22" y2="63.7042" gradientUnits="userSpaceOnUse">
<stop stop-color="#FF9340"/>
<stop offset="1" stop-color="#FFCE45"/>
</linearGradient>
<linearGradient id="paint15_linear_57_6470" x1="0.000154962" y1="56.1466" x2="2.3763" y2="56.1466" gradientUnits="userSpaceOnUse">
<stop stop-color="#F58631"/>
<stop offset="1" stop-color="#F2C23F"/>
</linearGradient>
<linearGradient id="paint16_linear_57_6470" x1="1293.22" y1="48.5899" x2="1354.52" y2="48.5899" gradientUnits="userSpaceOnUse">
<stop stop-color="#FF9340"/>
<stop offset="1" stop-color="#FFCE45"/>
</linearGradient>
<linearGradient id="paint17_linear_57_6470" x1="1291.29" y1="41.0311" x2="1352.6" y2="41.0311" gradientUnits="userSpaceOnUse">
<stop stop-color="#F58631"/>
<stop offset="1" stop-color="#F2C23F"/>
</linearGradient>
<linearGradient id="paint18_linear_57_6470" x1="0.000337479" y1="33.4734" x2="2.37648" y2="33.4734" gradientUnits="userSpaceOnUse">
<stop stop-color="#FF9340"/>
<stop offset="1" stop-color="#FFCE45"/>
</linearGradient>
<linearGradient id="paint19_linear_57_6470" x1="1292.43" y1="25.9168" x2="1353.74" y2="25.9168" gradientUnits="userSpaceOnUse">
<stop stop-color="#F58631"/>
<stop offset="1" stop-color="#F2C23F"/>
</linearGradient>
<linearGradient id="paint20_linear_57_6470" x1="1294.79" y1="86.0867" x2="1356.09" y2="86.0867" gradientUnits="userSpaceOnUse">
<stop stop-color="#F58631"/>
<stop offset="1" stop-color="#F2C23F"/>
</linearGradient>
<linearGradient id="paint21_linear_57_6470" x1="1298.59" y1="11.5745" x2="1358.71" y2="24.9406" gradientUnits="userSpaceOnUse">
<stop stop-color="#FF9340"/>
<stop offset="1" stop-color="#FFCE45"/>
</linearGradient>
<linearGradient id="paint22_linear_57_6470" x1="1369.8" y1="86.0857" x2="1431.08" y2="86.0857" gradientUnits="userSpaceOnUse">
<stop stop-color="#FF9340"/>
<stop offset="1" stop-color="#FFCE45"/>
</linearGradient>
<linearGradient id="paint23_linear_57_6470" x1="1367.88" y1="78.5291" x2="1429.16" y2="78.5291" gradientUnits="userSpaceOnUse">
<stop stop-color="#F58631"/>
<stop offset="1" stop-color="#F2C23F"/>
</linearGradient>
<linearGradient id="paint24_linear_57_6470" x1="1366.52" y1="70.9705" x2="1427.8" y2="70.9705" gradientUnits="userSpaceOnUse">
<stop stop-color="#FF9340"/>
<stop offset="1" stop-color="#FFCE45"/>
</linearGradient>
<linearGradient id="paint25_linear_57_6470" x1="1369.02" y1="63.4129" x2="1430.32" y2="63.4129" gradientUnits="userSpaceOnUse">
<stop stop-color="#F58631"/>
<stop offset="1" stop-color="#F2C23F"/>
</linearGradient>
<linearGradient id="paint26_linear_57_6470" x1="1375.15" y1="49.0546" x2="1435.3" y2="62.4258" gradientUnits="userSpaceOnUse">
<stop stop-color="#FF9340"/>
<stop offset="1" stop-color="#FFCE45"/>
</linearGradient>
<linearGradient id="paint27_linear_57_6470" x1="827.397" y1="218.212" x2="887.324" y2="218.212" gradientUnits="userSpaceOnUse">
<stop stop-color="#FF9340"/>
<stop offset="1" stop-color="#FFCE45"/>
</linearGradient>
<linearGradient id="paint28_linear_57_6470" x1="828.633" y1="210.823" x2="888.535" y2="210.823" gradientUnits="userSpaceOnUse">
<stop stop-color="#F58631"/>
<stop offset="1" stop-color="#F2C23F"/>
</linearGradient>
<linearGradient id="paint29_linear_57_6470" x1="829.655" y1="203.411" x2="889.558" y2="203.411" gradientUnits="userSpaceOnUse">
<stop stop-color="#FF9340"/>
<stop offset="1" stop-color="#FFCE45"/>
</linearGradient>
<linearGradient id="paint30_linear_57_6470" x1="827.778" y1="196.021" x2="887.681" y2="196.021" gradientUnits="userSpaceOnUse">
<stop stop-color="#F58631"/>
<stop offset="1" stop-color="#F2C23F"/>
</linearGradient>
<linearGradient id="paint31_linear_57_6470" x1="826.447" y1="188.634" x2="886.35" y2="188.634" gradientUnits="userSpaceOnUse">
<stop stop-color="#FF9340"/>
<stop offset="1" stop-color="#FFCE45"/>
</linearGradient>
<linearGradient id="paint32_linear_57_6470" x1="828.895" y1="181.243" x2="888.797" y2="181.243" gradientUnits="userSpaceOnUse">
<stop stop-color="#F58631"/>
<stop offset="1" stop-color="#F2C23F"/>
</linearGradient>
<linearGradient id="paint33_linear_57_6470" x1="834.899" y1="167.3" x2="893.697" y2="180.371" gradientUnits="userSpaceOnUse">
<stop stop-color="#FF9340"/>
<stop offset="1" stop-color="#FFCE45"/>
</linearGradient>
<linearGradient id="paint34_linear_57_6470" x1="757.682" y1="510.634" x2="853.797" y2="510.634" gradientUnits="userSpaceOnUse">
<stop stop-color="#F58631"/>
<stop offset="1" stop-color="#F2C23F"/>
</linearGradient>
<linearGradient id="paint35_linear_57_6470" x1="755.709" y1="498.778" x2="851.848" y2="498.778" gradientUnits="userSpaceOnUse">
<stop stop-color="#FF9340"/>
<stop offset="1" stop-color="#FFCE45"/>
</linearGradient>
<linearGradient id="paint36_linear_57_6470" x1="757.682" y1="486.921" x2="853.797" y2="486.921" gradientUnits="userSpaceOnUse">
<stop stop-color="#F58631"/>
<stop offset="1" stop-color="#F2C23F"/>
</linearGradient>
<linearGradient id="paint37_linear_57_6470" x1="759.32" y1="475.068" x2="855.435" y2="475.068" gradientUnits="userSpaceOnUse">
<stop stop-color="#FF9340"/>
<stop offset="1" stop-color="#FFCE45"/>
</linearGradient>
<linearGradient id="paint38_linear_57_6470" x1="756.303" y1="463.212" x2="852.418" y2="463.212" gradientUnits="userSpaceOnUse">
<stop stop-color="#F58631"/>
<stop offset="1" stop-color="#F2C23F"/>
</linearGradient>
<linearGradient id="paint39_linear_57_6470" x1="754.164" y1="451.356" x2="850.303" y2="451.356" gradientUnits="userSpaceOnUse">
<stop stop-color="#FF9340"/>
<stop offset="1" stop-color="#FFCE45"/>
</linearGradient>
<linearGradient id="paint40_linear_57_6470" x1="758.085" y1="439.502" x2="854.224" y2="439.502" gradientUnits="userSpaceOnUse">
<stop stop-color="#F58631"/>
<stop offset="1" stop-color="#F2C23F"/>
</linearGradient>
<linearGradient id="paint41_linear_57_6470" x1="752.716" y1="427.645" x2="848.831" y2="427.645" gradientUnits="userSpaceOnUse">
<stop stop-color="#F58631"/>
<stop offset="1" stop-color="#F2C23F"/>
</linearGradient>
<linearGradient id="paint42_linear_57_6470" x1="750.743" y1="415.79" x2="846.882" y2="415.79" gradientUnits="userSpaceOnUse">
<stop stop-color="#FF9340"/>
<stop offset="1" stop-color="#FFCE45"/>
</linearGradient>
<linearGradient id="paint43_linear_57_6470" x1="752.716" y1="403.937" x2="848.831" y2="403.937" gradientUnits="userSpaceOnUse">
<stop stop-color="#F58631"/>
<stop offset="1" stop-color="#F2C23F"/>
</linearGradient>
<linearGradient id="paint44_linear_57_6470" x1="754.355" y1="392.082" x2="850.471" y2="392.082" gradientUnits="userSpaceOnUse">
<stop stop-color="#FF9340"/>
<stop offset="1" stop-color="#FFCE45"/>
</linearGradient>
<linearGradient id="paint45_linear_57_6470" x1="751.338" y1="380.226" x2="847.477" y2="380.226" gradientUnits="userSpaceOnUse">
<stop stop-color="#F58631"/>
<stop offset="1" stop-color="#F2C23F"/>
</linearGradient>
<linearGradient id="paint46_linear_57_6470" x1="749.199" y1="368.369" x2="845.338" y2="368.369" gradientUnits="userSpaceOnUse">
<stop stop-color="#FF9340"/>
<stop offset="1" stop-color="#FFCE45"/>
</linearGradient>
<linearGradient id="paint47_linear_57_6470" x1="753.119" y1="356.514" x2="849.258" y2="356.514" gradientUnits="userSpaceOnUse">
<stop stop-color="#F58631"/>
<stop offset="1" stop-color="#F2C23F"/>
</linearGradient>
<linearGradient id="paint48_linear_57_6470" x1="762.867" y1="334.204" x2="857.181" y2="355.172" gradientUnits="userSpaceOnUse">
<stop stop-color="#FF9340"/>
<stop offset="1" stop-color="#FFCE45"/>
</linearGradient>
<linearGradient id="paint49_linear_57_6470" x1="1190.31" y1="500.735" x2="1290.22" y2="500.735" gradientUnits="userSpaceOnUse">
<stop stop-color="#FF9340"/>
<stop offset="1" stop-color="#FFCE45"/>
</linearGradient>
<linearGradient id="paint50_linear_57_6470" x1="1193.96" y1="488.419" x2="1293.88" y2="488.419" gradientUnits="userSpaceOnUse">
<stop stop-color="#F58631"/>
<stop offset="1" stop-color="#F2C23F"/>
</linearGradient>
<linearGradient id="paint51_linear_57_6470" x1="1191.92" y1="476.083" x2="1291.84" y2="476.083" gradientUnits="userSpaceOnUse">
<stop stop-color="#FF9340"/>
<stop offset="1" stop-color="#FFCE45"/>
</linearGradient>
<linearGradient id="paint52_linear_57_6470" x1="1193.96" y1="463.767" x2="1293.88" y2="463.767" gradientUnits="userSpaceOnUse">
<stop stop-color="#F58631"/>
<stop offset="1" stop-color="#F2C23F"/>
</linearGradient>
<linearGradient id="paint53_linear_57_6470" x1="1195.65" y1="451.431" x2="1295.59" y2="451.431" gradientUnits="userSpaceOnUse">
<stop stop-color="#FF9340"/>
<stop offset="1" stop-color="#FFCE45"/>
</linearGradient>
<linearGradient id="paint54_linear_57_6470" x1="1192.54" y1="439.115" x2="1292.46" y2="439.115" gradientUnits="userSpaceOnUse">
<stop stop-color="#F58631"/>
<stop offset="1" stop-color="#F2C23F"/>
</linearGradient>
<linearGradient id="paint55_linear_57_6470" x1="1190.31" y1="426.778" x2="1290.22" y2="426.778" gradientUnits="userSpaceOnUse">
<stop stop-color="#FF9340"/>
<stop offset="1" stop-color="#FFCE45"/>
</linearGradient>
<linearGradient id="paint56_linear_57_6470" x1="1194.39" y1="414.462" x2="1294.31" y2="414.462" gradientUnits="userSpaceOnUse">
<stop stop-color="#F58631"/>
<stop offset="1" stop-color="#F2C23F"/>
</linearGradient>
<linearGradient id="paint57_linear_57_6470" x1="1198.22" y1="512.564" x2="1298.16" y2="512.564" gradientUnits="userSpaceOnUse">
<stop stop-color="#F58631"/>
<stop offset="1" stop-color="#F2C23F"/>
</linearGradient>
<linearGradient id="paint58_linear_57_6470" x1="1080.88" y1="328.195" x2="1149.06" y2="328.195" gradientUnits="userSpaceOnUse">
<stop stop-color="#CC512B"/>
<stop offset="1" stop-color="#DE2F2F"/>
</linearGradient>
<linearGradient id="paint59_linear_57_6470" x1="1189.97" y1="402.633" x2="1289.91" y2="402.633" gradientUnits="userSpaceOnUse">
<stop stop-color="#FF9340"/>
<stop offset="1" stop-color="#FFCE45"/>
</linearGradient>
<linearGradient id="paint60_linear_57_6470" x1="1193.63" y1="390.317" x2="1293.55" y2="390.317" gradientUnits="userSpaceOnUse">
<stop stop-color="#F58631"/>
<stop offset="1" stop-color="#F2C23F"/>
</linearGradient>
<linearGradient id="paint61_linear_57_6470" x1="1191.59" y1="377.98" x2="1291.51" y2="377.98" gradientUnits="userSpaceOnUse">
<stop stop-color="#FF9340"/>
<stop offset="1" stop-color="#FFCE45"/>
</linearGradient>
<linearGradient id="paint62_linear_57_6470" x1="1193.63" y1="365.665" x2="1293.55" y2="365.665" gradientUnits="userSpaceOnUse">
<stop stop-color="#F58631"/>
<stop offset="1" stop-color="#F2C23F"/>
</linearGradient>
<linearGradient id="paint63_linear_57_6470" x1="1195.34" y1="353.328" x2="1295.26" y2="353.328" gradientUnits="userSpaceOnUse">
<stop stop-color="#FF9340"/>
<stop offset="1" stop-color="#FFCE45"/>
</linearGradient>
<linearGradient id="paint64_linear_57_6470" x1="1192.21" y1="341.012" x2="1292.12" y2="341.012" gradientUnits="userSpaceOnUse">
<stop stop-color="#F58631"/>
<stop offset="1" stop-color="#F2C23F"/>
</linearGradient>
<linearGradient id="paint65_linear_57_6470" x1="1189.97" y1="328.675" x2="1289.91" y2="328.675" gradientUnits="userSpaceOnUse">
<stop stop-color="#FF9340"/>
<stop offset="1" stop-color="#FFCE45"/>
</linearGradient>
<linearGradient id="paint66_linear_57_6470" x1="1194.06" y1="316.36" x2="1293.98" y2="316.36" gradientUnits="userSpaceOnUse">
<stop stop-color="#F58631"/>
<stop offset="1" stop-color="#F2C23F"/>
</linearGradient>
<linearGradient id="paint67_linear_57_6470" x1="1197.91" y1="414.463" x2="1297.83" y2="414.463" gradientUnits="userSpaceOnUse">
<stop stop-color="#F58631"/>
<stop offset="1" stop-color="#F2C23F"/>
</linearGradient>
</defs>
</svg>
