<svg width="672" height="630" viewBox="0 0 672 630" fill="none" xmlns="http://www.w3.org/2000/svg">
<path d="M503.78 461.43C596.524 368.751 596.524 218.489 503.78 125.81C411.037 33.1311 260.67 33.1311 167.927 125.81C75.1833 218.489 75.1834 368.751 167.927 461.43C260.67 554.109 411.037 554.109 503.78 461.43Z" fill="url(#paint0_radial_196_373)"/>
<path d="M400.08 439.39C400.08 439.39 434.444 466.13 455.915 484.567C477.395 502.994 488.126 546.371 493.501 558.659H166C166 558.659 172.08 474.81 229.354 446.982C229.354 446.982 243.928 409.959 294.444 390.707C294.444 390.707 346.037 383.022 400.08 439.399V439.39Z" fill="url(#paint1_radial_196_373)"/>
<path d="M455.915 484.557C438.353 469.485 412.176 448.856 403.227 441.836L404.22 492.449C331.927 422.912 273.372 425.855 273.372 425.855L247.864 435.799C290.573 478.924 302.668 535.685 305.936 558.64H493.51C488.145 546.352 477.405 502.984 455.925 484.547L455.915 484.557Z" fill="#00133F"/>
<path d="M452.332 241.792C452.332 241.792 458.486 256.329 462.951 283.698L478.444 309.323C479.363 310.832 478.648 312.81 476.996 313.391L469.802 315.884L470.535 329.39C470.684 332.23 469.134 334.883 466.599 336.129L457.809 337.61L461.568 338.163C465.968 337.526 468.177 337.966 467.899 342.447L468.901 356.178L473.663 375.73C473.663 375.73 469.199 383.247 463.536 384.756C457.874 386.255 418.265 384.756 418.265 384.756L395.921 443.101L302.909 387.886L306.214 370.387C306.214 370.387 309.927 357.415 306.214 342.447L291.362 321.227C291.362 321.227 282.701 295.817 288.057 276.649C293.423 257.482 452.323 241.792 452.323 241.792H452.332Z" fill="#003D5F"/>
<path d="M462.951 283.688C458.486 256.319 452.332 241.782 452.332 241.782C452.332 241.782 413.976 245.569 374.321 251.699C371.666 255.288 352.377 281.701 353.119 287.053C353.852 292.302 349.332 330.702 349.332 330.702C349.332 330.702 327.722 394.062 324.946 400.942L395.94 443.092L418.283 384.746C418.283 384.746 457.902 386.245 463.555 384.746C469.217 383.246 473.682 375.72 473.682 375.72L468.92 356.168L467.917 342.437C468.196 337.957 465.987 337.516 461.587 338.154L457.827 337.601L466.618 336.12C469.152 334.873 470.702 332.221 470.554 329.381L469.82 315.874L477.014 313.381C478.676 312.809 479.381 310.832 478.462 309.313L462.97 283.688H462.951Z" fill="url(#paint2_radial_196_373)"/>
<path d="M455.237 240.15C455.237 240.15 410.903 268.034 281.355 287.061L262 213.916L435.883 167.005L455.237 240.15Z" fill="#00133F"/>
<path d="M418.117 381.767C417.857 381.786 417.403 381.786 417.022 381.786C416.623 381.767 416.214 381.767 415.806 381.73C414.989 381.683 414.163 381.589 413.346 381.477C411.703 381.252 410.078 380.858 408.473 380.408C405.289 379.433 402.244 377.999 399.515 376.087C396.758 374.194 394.437 371.804 392.219 369.067L390.576 366.996L388.988 364.849C387.912 363.424 386.909 361.934 385.879 360.472C381.794 354.558 377.951 348.419 374.173 342.251C370.404 336.075 366.729 329.823 363.155 323.524L360.611 324.921C363.99 331.388 367.453 337.771 371.026 344.126C374.61 350.471 378.267 356.77 382.212 362.946C383.215 364.484 384.18 366.03 385.247 367.549L386.816 369.826L388.478 372.076C389.007 372.835 389.638 373.557 390.241 374.297L391.151 375.394C391.476 375.75 391.82 376.097 392.154 376.453C392.831 377.156 393.5 377.868 394.252 378.487C394.985 379.124 395.709 379.78 396.516 380.342C399.635 382.686 403.135 384.495 406.811 385.76C408.658 386.35 410.533 386.875 412.446 387.203C413.402 387.372 414.367 387.513 415.351 387.606C415.834 387.663 416.335 387.691 416.836 387.719C416.948 387.719 417.05 387.719 417.152 387.728L418.284 384.757L418.136 381.767H418.117Z" fill="#001344"/>
<path d="M294.435 390.699L306.224 370.388C306.224 370.388 318.152 367.614 347.503 384.766C375.825 401.319 402.225 437.254 402.225 437.254L404.211 489.498C404.211 489.498 399.087 465.663 380.81 443.112C360.109 417.562 327.564 389.106 294.435 390.709V390.699Z" fill="url(#paint3_radial_196_373)"/>
<path d="M358.902 319.915C351.467 309.277 352.256 295.799 360.666 289.791C368.241 284.383 379.408 286.913 386.992 295.236C393.471 287.457 405.158 271.504 408.397 254.39L288.067 276.659C288.067 276.659 279.211 298.639 288.067 322.352C288.067 322.352 303.745 338.604 304.98 354.491C304.98 354.491 348.246 359.721 356.303 324.217L359.766 321.058C359.478 320.684 359.172 320.318 358.893 319.915H358.902Z" fill="#00133F"/>
<path d="M206.612 463.075C206.612 463.075 223.265 438.752 233.996 429.848C233.996 429.848 314.393 397.052 404.212 519.611C404.212 519.611 289.618 399.339 206.612 463.065V463.075Z" fill="url(#paint4_radial_196_373)"/>
<path d="M263.337 454.629C263.337 454.629 298.63 487.677 307.068 558.648" stroke="#FFBA3B" stroke-width="1.38718" stroke-linecap="round" stroke-linejoin="round"/>
<path d="M365.122 533.906C358.494 524.992 351.189 516.613 343.549 508.58C335.891 500.576 327.825 492.965 319.303 485.926C315.061 482.383 310.679 479.019 306.205 475.804C301.74 472.561 297.127 469.543 292.43 466.693C287.742 463.807 282.878 461.248 277.958 458.83C273.029 456.43 267.942 454.378 262.818 452.503H262.781C261.964 452.194 261.537 451.284 261.834 450.46C262.131 449.635 263.032 449.204 263.849 449.504C263.849 449.504 263.876 449.513 263.886 449.513C269.093 451.547 274.217 453.778 279.174 456.336C284.122 458.914 288.995 461.632 293.664 464.659C298.361 467.659 302.947 470.817 307.366 474.192C311.803 477.547 316.138 481.043 320.315 484.708C328.716 491.991 336.634 499.826 344.125 508.027C351.588 516.257 358.708 524.814 365.122 533.896V533.906Z" fill="#FFBA3B"/>
<path d="M451.07 479.627C455.442 489.721 459.47 499.928 463.23 510.248C465.123 515.403 466.896 520.605 468.604 525.816C470.312 531.037 471.872 536.304 473.357 541.591C471.77 536.332 470.099 531.112 468.28 525.929C466.46 520.755 464.585 515.6 462.589 510.492C458.616 500.275 454.383 490.143 449.816 480.199C449.659 479.842 449.807 479.43 450.151 479.271C450.494 479.111 450.902 479.261 451.06 479.608V479.617L451.07 479.627Z" fill="#FFBA3B"/>
<path d="M210.362 224.356V309.04" stroke="#00133F" stroke-width="4.1709" stroke-miterlimit="10"/>
<path d="M204.708 309.04H216.385C218.474 309.04 220.163 310.746 220.163 312.855V431.346H200.93V312.855C200.93 310.746 202.619 309.04 204.708 309.04Z" fill="url(#paint5_radial_196_373)"/>
<path d="M203.966 431.345V354.479" stroke="#00133F" stroke-width="1.38718" stroke-miterlimit="10"/>
<path d="M208.235 431.345V354.479" stroke="#00133F" stroke-width="1.38718" stroke-miterlimit="10"/>
<path d="M212.505 431.345V354.479" stroke="#00133F" stroke-width="1.38718" stroke-miterlimit="10"/>
<path d="M216.775 431.345V354.479" stroke="#00133F" stroke-width="1.38718" stroke-miterlimit="10"/>
<path d="M379.426 143.462L504.556 170.343C507.183 170.905 507.545 174.551 505.076 175.62L320.092 256.067C315.766 257.951 310.93 258.269 306.4 256.967L196.503 225.427C194.015 224.715 193.783 221.247 196.15 220.197L366.969 144.736C370.886 143.002 375.249 142.553 379.435 143.452L379.426 143.462Z" fill="url(#paint6_radial_196_373)"/>
<defs>
<radialGradient id="paint0_radial_196_373" cx="0" cy="0" r="1" gradientUnits="userSpaceOnUse" gradientTransform="translate(316.766 681.589) scale(672.324 671.857)">
<stop stop-color="#E8DF98"/>
<stop offset="1" stop-color="#FFA736"/>
</radialGradient>
<radialGradient id="paint1_radial_196_373" cx="0" cy="0" r="1" gradientUnits="userSpaceOnUse" gradientTransform="translate(220.276 373.555) scale(237.116 239.419)">
<stop stop-color="#006FB3"/>
<stop offset="1" stop-color="#001344"/>
</radialGradient>
<radialGradient id="paint2_radial_196_373" cx="0" cy="0" r="1" gradientUnits="userSpaceOnUse" gradientTransform="translate(530.928 191.366) scale(238.118 240.431)">
<stop stop-color="#00519A"/>
<stop offset="1" stop-color="#00294E"/>
</radialGradient>
<radialGradient id="paint3_radial_196_373" cx="0" cy="0" r="1" gradientUnits="userSpaceOnUse" gradientTransform="translate(250.147 323.028) scale(197.832 199.753)">
<stop stop-color="#E8E8E8"/>
<stop offset="1" stop-color="#A1C2BD"/>
</radialGradient>
<radialGradient id="paint4_radial_196_373" cx="0" cy="0" r="1" gradientUnits="userSpaceOnUse" gradientTransform="translate(197.979 384.024) scale(200.923 202.875)">
<stop stop-color="#FFEBC8"/>
<stop offset="1" stop-color="#FFC566"/>
</radialGradient>
<radialGradient id="paint5_radial_196_373" cx="0" cy="0" r="1" gradientUnits="userSpaceOnUse" gradientTransform="translate(152.14 478.069) scale(251.104 253.544)">
<stop stop-color="#006FB3"/>
<stop offset="1" stop-color="#001344"/>
</radialGradient>
<radialGradient id="paint6_radial_196_373" cx="0" cy="0" r="1" gradientUnits="userSpaceOnUse" gradientTransform="translate(213.202 146.686) scale(223.749 225.922)">
<stop stop-color="#006FB3"/>
<stop offset="1" stop-color="#001344"/>
</radialGradient>
</defs>
</svg>
