<svg width="837" height="340" viewBox="0 0 837 340" fill="none" xmlns="http://www.w3.org/2000/svg">
<path d="M77.3577 187.478C77.3577 187.357 75.5717 183.66 76.1392 183.376C76.7067 183.092 77.7249 183.134 77.8459 183.781C77.9628 184.428 77.3577 187.474 77.3577 187.474V187.478Z" fill="#F5C99D"/>
<path d="M50.6841 141.551C50.6841 141.551 40.2058 128.957 34.6558 137.015C34.6558 137.015 30.5163 138.73 29.0182 145.778C27.4909 152.968 32.2689 158.431 34.7435 157.079C36.3292 156.211 37.5268 158.986 37.5268 158.986L50.6799 141.551H50.6841Z" fill="#45391D"/>
<path d="M63.6788 208.561C72.0079 205.49 80.0325 191.235 80.0325 191.235L77.4036 189.395C75.2169 192.595 65.3688 198.742 65.3688 198.742C65.1434 196.046 64.818 193.597 64.4132 191.381C61.6799 176.312 55.4288 171.851 53.7472 170.904C53.4759 170.75 53.3257 170.691 53.3257 170.691C53.3257 170.691 53.3299 170.804 53.3424 171.013C53.3674 171.468 53.4217 172.381 53.5093 173.633C54.1603 182.96 56.7099 211.131 63.6746 208.565L63.6788 208.561Z" fill="#F5C99D"/>
<path d="M35.7994 135.739C35.7994 135.739 34.3889 130.101 26.114 131.862C26.114 131.862 30.0783 131.361 31.1632 132.889C31.1632 132.889 28.021 131.449 26.0555 132.655C24.0901 133.857 23.7646 137.909 24.0609 139.144C24.3572 140.379 26.5271 144.047 27.9667 144.047C29.4064 144.047 31.109 142.787 31.109 142.787L35.8035 135.743L35.7994 135.739Z" fill="#45391D"/>
<path d="M23.4142 223.943C27.5287 214.712 29.4984 212.1 29.5693 209.2C29.6235 206.905 28.4927 204.426 26.2935 198.35C25.7761 196.919 25.4172 195.446 25.2002 193.956C23.4601 182.243 30.2328 169.578 34.4433 168.718C35.6159 168.409 37.6022 164.178 37.5772 157.359L38.103 157.464L46.9663 159.221C46.9663 159.221 46.766 162.012 46.7576 164.637C46.7535 166.828 46.8828 168.902 47.3794 169.165C48.0179 169.223 48.3934 169.261 48.3934 169.261C48.3934 169.261 55.7837 179.526 56.4055 189.074C57.0272 198.621 50.4841 202.769 56.4555 221.848C62.548 241.336 21.14 229.046 23.4142 223.947V223.943Z" fill="#F5C99D"/>
<path d="M46.9617 159.22C46.9617 159.22 46.7614 162.011 46.7531 164.636C41.7915 164.498 39.1709 159.971 38.0942 157.463L46.9576 159.22H46.9617Z" fill="#D8A982"/>
<path d="M37.1805 156.499C37.1805 156.499 34.5807 152.393 33.9548 148.879C33.5083 146.372 34.7852 137.078 44.1284 138.414C44.1284 138.414 46.8408 138.681 49.3905 140.404C51.4185 141.773 54.3438 144.732 51.0722 152.844L50.2209 155.585L37.1763 156.503L37.1805 156.499Z" fill="#45391D"/>
<path d="M48.6184 161.706C48.6184 161.706 36.8799 161.898 36.8716 154.587C36.8632 147.276 35.3443 142.377 42.8347 141.943C50.3293 141.509 51.7856 144.297 52.3824 146.738C52.9791 149.179 51.6646 161.464 48.6142 161.702L48.6184 161.706Z" fill="#F5C99D"/>
<path d="M48.1845 141.769C48.1845 141.769 44.9714 150.348 40.039 151.613C35.1065 152.881 32.9658 151.558 32.9658 151.558C32.9658 151.558 36.7507 148.554 37.5352 143.309C37.5352 143.309 45.7601 137.683 48.1845 141.769Z" fill="#45391D"/>
<path d="M47.3877 142.465C47.3877 142.465 49.7871 144.38 50.3713 146.241C50.9556 148.103 51.2185 151.938 52.3368 151.804C52.3368 151.804 54.7571 145.974 52.0364 142.678C49.1528 139.181 47.3877 142.465 47.3877 142.465Z" fill="#45391D"/>
<path d="M33.8045 312.516C36.759 324.263 41.2032 333.268 41.2032 333.268L45.0715 333.001C45.0715 333.001 43.1728 323.971 43.2813 311.769C43.3564 303.24 44.4122 293.158 47.7839 283.535C59.3638 250.46 57.4943 226.387 57.4943 226.387L35.7158 228.932L34.7017 229.049C34.6099 239.052 34.3512 252.63 34.1259 263.25C33.9256 272.798 33.7503 279.955 33.7503 279.955C29.5648 288.972 31.0838 301.7 33.8045 312.512V312.516Z" fill="#002822"/>
<path d="M8.14941 233.748L11.6714 234.804C11.6714 234.804 23.293 215.517 24.3529 210.501C24.6993 208.869 25.5422 205.598 26.5312 201.934C28.5718 194.347 31.2049 185.067 31.2049 185.067L32.0729 181.311L35.0315 168.496C35.0315 168.496 29.3646 169.076 26.0513 170.462C24.9538 170.921 24.1151 171.467 23.823 172.106C21.3902 177.46 18.9573 190.967 17.2506 200.603C16.2992 205.973 15.5731 210.142 15.1933 211.027C14.1376 213.493 10.9077 227.055 8.14941 233.744V233.748Z" fill="#F5C99D"/>
<path d="M21.311 310.639C22.5629 324.004 28.0754 332.642 28.0754 332.642L29.924 333.986C29.924 333.986 31.6724 324.572 32.9118 313.368C34.0927 302.722 35.7077 291.455 37.5396 288.017C44.8005 274.38 46.9871 222.894 46.9871 222.894L24.9039 221.801C22.6839 225.536 21.7158 231.657 21.4863 238.618C20.9062 256.19 25.0375 279.099 25.655 282.417C25.655 282.417 25.655 282.417 25.655 282.425C25.7051 282.68 25.63 282.934 25.509 283.164C21.1149 291.86 20.4806 301.809 21.3068 310.639H21.311Z" fill="#483801"/>
<path d="M47.8341 142.754C47.8341 142.754 45.5431 151.738 39.3213 154.613C39.3213 154.613 45.5431 149.097 46.0731 143.167C46.6031 137.237 47.8341 142.754 47.8341 142.754Z" fill="#45391D"/>
<path d="M20.6476 230.607C20.61 231.35 20.6476 231.946 20.7853 232.372C21.2568 233.849 22.8676 234.525 26.7693 234.12C29.152 233.874 30.2161 229.877 30.6918 226.467C32.1232 231.345 34.1303 234.083 36.7217 234.655C40.5024 235.498 59.5811 237.813 60.8288 228.746C62.2017 218.772 58.0914 201.112 57.866 191.59C58.4252 188.214 58.6172 185.285 58.5587 182.764C58.4002 175.983 56.4097 172.177 54.8782 170.65C54.4442 170.316 54.0102 170.112 52.2701 169.811C51.3813 169.661 50.1503 169.486 48.4018 169.256C48.4018 169.256 47.6882 169.177 47.7049 169.202C48.0262 169.778 52.3494 176.321 52.0114 178.003C51.6567 179.764 36.3378 178.178 35.2779 177.21C34.2222 176.242 32.5488 168.822 32.5488 168.822C32.5488 168.822 27.124 169.415 24.47 171.347C24.47 171.347 24.4783 171.359 24.4992 171.38C24.1779 171.61 23.94 171.856 23.8023 172.115C20.9689 177.506 18.1438 191.114 16.1533 200.816C20.9731 203.474 25.1836 202.682 26.4939 202.331C24.7871 213.51 20.9105 225.507 20.6559 230.603L20.6476 230.607Z" fill="#FDDB28"/>
<path d="M77.4078 189.394C77.4078 189.031 77.1032 183.79 78.0379 182.688C78.9726 181.586 80.8755 180.021 81.4764 180.067C82.0773 180.117 84.4183 183.23 83.7131 185.617C83.0079 188.004 80.0367 191.234 80.0367 191.234L77.4078 189.394Z" fill="#F5C99D"/>
<path d="M73.2098 183.007L78.4761 184.584C78.7014 184.651 78.9434 184.521 79.0102 184.296L82.0648 174.106C82.1316 173.88 82.0022 173.638 81.7769 173.572L76.5106 171.994C76.2853 171.927 76.0432 172.057 75.9765 172.282L72.9219 182.472C72.8551 182.698 72.9845 182.936 73.2098 183.007Z" fill="#FDDB28"/>
<path d="M74.5411 183.403L79.4694 184.881C79.7907 184.977 80.1245 184.797 80.2205 184.476L83.1749 174.619C83.2709 174.298 83.0873 173.964 82.7702 173.868L77.8419 172.391C77.5206 172.295 77.1868 172.475 77.0908 172.796L74.1363 182.652C74.0404 182.974 74.224 183.307 74.5411 183.403Z" fill="#E6C724"/>
<path d="M21.3108 310.639C22.5627 324.005 28.0751 332.643 28.0751 332.643L29.9571 334.358C29.9571 334.358 31.6722 324.572 32.9116 313.372C31.6055 313.468 25.8551 313.677 21.3066 310.639H21.3108Z" fill="#F5C99D"/>
<path d="M33.805 312.517C36.7594 324.263 41.2036 333.269 41.2036 333.269L45.0719 333.001C45.0719 333.001 43.1732 323.971 43.2817 311.77C41.9672 312.433 39.259 313.105 33.8008 312.517H33.805Z" fill="#D8A982"/>
<path d="M38.9749 336.515H41.4452C42.2715 336.386 42.8849 336.144 43.732 336.036C45.0215 335.864 45.614 336.394 45.7309 336.515C45.7475 336.532 45.7559 336.54 45.7559 336.54H56.2508C56.5137 336.165 56.2592 335.289 56.013 334.646C55.8461 334.208 55.483 333.878 55.0323 333.749C53.9182 333.427 51.7232 333.14 49.716 331.32C48.5851 330.298 44.2578 327.564 44.2578 327.564H44.2369C44.141 327.564 43.6903 327.702 41.7207 329.363C40.7025 330.223 38.9665 328.153 38.9665 328.153C38.9665 328.153 38.641 328.424 38.399 328.925C38.2029 329.321 38.061 329.864 38.1737 330.536C38.3322 331.483 37.8231 333.24 37.4225 334.429C37.1763 335.151 36.9719 335.66 36.9719 335.66C36.9719 335.66 36.855 336.252 38.979 336.52L38.9749 336.515Z" fill="#002822"/>
<path d="M38.395 328.921C38.9834 329.338 40.2311 330.156 41.0574 330.264C42.1715 330.41 44.258 327.564 44.258 327.564H44.2371C44.1412 327.564 43.6905 327.702 41.7209 329.363C40.7027 330.223 38.9667 328.153 38.9667 328.153C38.9667 328.153 38.6412 328.424 38.3992 328.925L38.395 328.921Z" fill="#002822"/>
<path d="M38.9749 336.514H41.4453C42.2715 336.385 42.885 336.143 43.7321 336.035C45.0215 335.863 45.6141 336.393 45.7309 336.514C45.7476 336.531 45.7559 336.539 45.7559 336.539H56.2509C56.5138 336.164 56.2592 335.288 56.013 334.645C55.6959 334.361 55.6041 335.876 55.4288 336.118C55.2535 336.36 46.8659 336.206 46.3819 335.855C45.8978 335.505 44.4456 334.887 42.4176 335.371C40.6566 335.793 38.0569 334.712 37.4142 334.424C37.168 335.146 36.9636 335.655 36.9636 335.655C36.9636 335.655 36.8467 336.247 38.9707 336.514H38.9749Z" fill="#002822"/>
<path d="M25.7879 336.515H28.2583C29.0845 336.386 29.6979 336.144 30.545 336.036C31.8345 335.864 32.427 336.394 32.5439 336.515C32.5606 336.532 32.5648 336.54 32.5648 336.54H43.0597C43.3226 336.165 43.0722 335.289 42.8218 334.646C42.6549 334.208 42.2919 333.878 41.837 333.749C40.7228 333.427 38.5279 333.14 36.5207 331.32C35.3898 330.298 31.0625 327.564 31.0625 327.564H31.0416C30.9456 327.564 30.495 327.702 28.5253 329.363C27.5071 330.223 25.7712 328.153 25.7712 328.153C25.7712 328.153 25.4457 328.424 25.2037 328.925C25.0076 329.321 24.8657 329.864 24.9783 330.536C25.1369 331.483 24.6278 333.24 24.2272 334.429C23.981 335.151 23.7765 335.66 23.7765 335.66C23.7765 335.66 23.6597 336.252 25.7837 336.52L25.7879 336.515Z" fill="#002822"/>
<path d="M25.208 328.921C25.7964 329.338 27.0441 330.156 27.8703 330.264C28.9845 330.41 31.071 327.564 31.071 327.564H31.0501C30.9541 327.564 30.5035 327.702 28.5338 329.363C27.5156 330.223 25.7797 328.153 25.7797 328.153C25.7797 328.153 25.4542 328.424 25.2122 328.925L25.208 328.921Z" fill="#002822"/>
<path d="M25.7882 336.514H28.2585C29.0848 336.385 29.6982 336.143 30.5453 336.035C31.8348 335.863 32.4273 336.393 32.5442 336.514C32.5608 336.531 32.565 336.539 32.565 336.539H43.06C43.3229 336.164 43.0725 335.288 42.8221 334.645C42.505 334.361 42.4132 335.876 42.2379 336.118C42.0626 336.36 33.675 336.206 33.191 335.855C32.7069 335.505 31.2547 334.887 29.2267 335.371C27.4615 335.793 24.8659 334.712 24.2233 334.424C23.9771 335.146 23.7726 335.655 23.7726 335.655C23.7726 335.655 23.6558 336.247 25.7798 336.514H25.7882Z" fill="#002822"/>
<path d="M54.2147 170.346C54.2147 170.346 61.5341 174.03 63.9711 188.894C63.9711 188.894 61.5716 192.183 58.1957 193.151C57.7117 193.289 57.2109 193.38 56.6935 193.41C52.5456 193.631 54.2147 170.346 54.2147 170.346Z" fill="#FDDB28"/>
<path d="M82.0354 180.468C82.0354 180.468 79.7737 176.988 79.2187 177.18C78.43 177.455 81.2718 181.874 81.2718 181.874C81.2718 181.874 79.1686 178.573 78.8389 178.82C78.0878 179.387 79.2813 181.461 80.4664 183.051C80.4664 183.051 78.3507 181.11 78.2798 181.461C78.0377 182.684 80.6041 185.646 80.6041 185.646L82.0396 182.371V180.468H82.0354Z" fill="#F5C99D"/>
<path d="M83.7338 183.703C83.6253 183.278 83.0703 174.965 82.8366 175.754C82.5987 176.543 82.0396 180.899 82.0396 180.899L83.7379 183.703H83.7338Z" fill="#F5C99D"/>
<path d="M46.3281 157.366C46.3281 157.366 46.5326 158.226 48.6733 158.097C48.6733 158.097 50.4719 157.984 50.4176 157.037C50.4176 157.037 48.6733 156.361 46.3281 157.366Z" fill="white"/>
<path d="M8.14975 233.748C8.14975 233.748 3.89752 236.573 3.25072 237.767C2.59974 238.956 1.08496 243.342 1.08496 243.342C1.08496 243.342 2.16993 243.504 3.25072 241.61C4.33151 239.715 7.90772 239.878 9.097 238.847C10.2863 237.817 11.6759 234.804 11.6759 234.804L8.15392 233.748H8.14975Z" fill="#F5C99D"/>
<path d="M11.2129 235.738C11.2129 235.738 10.5076 239.064 9.63967 240.041C8.7717 241.013 7.58241 242.64 7.09418 242.206C6.60594 241.772 7.63666 238.146 7.63666 238.146L11.2129 235.738Z" fill="#F5C99D"/>
<path d="M3.84328 238.141C3.73478 238.303 0 242.272 0 242.272C0 242.272 1.35203 242.885 1.73177 242.272C2.11151 241.658 3.84328 238.141 3.84328 238.141Z" fill="#F5C99D"/>
<path d="M311.439 42.3202L346.083 47.695L323.244 31.7168L322.013 36.7327L313.555 38.1598L311.439 42.3202Z" fill="#E6C724"/>
<path d="M346.083 47.6947L317.385 32.451L289.101 30.6816L346.083 47.6947Z" fill="#FDDB28"/>
<path d="M323.244 31.7168L346.083 47.695L328.556 22.9453L323.244 31.7168Z" fill="#FDDB28"/>
<path d="M818.626 141.768L790.259 145.816L809.083 132.984L810.043 137.099L816.941 138.347L818.626 141.768Z" fill="#E6C724"/>
<path d="M790.259 145.817L813.865 133.649L837 132.484L790.259 145.817Z" fill="#FDDB28"/>
<path d="M809.083 132.985L790.259 145.817L804.831 125.766L809.083 132.985Z" fill="#FDDB28"/>
<path d="M108.167 110.34H280.551V155.62H157.975V203.81H266V249.09H157.975V336.739H108.167V110.34Z" fill="url(#paint0_linear_196_326)"/>
<path d="M355.563 114.824H400.268L494.718 336.779H444.03L423.879 287.35H330.689L310.537 336.779H261.109L355.559 114.824H355.563ZM406.565 244.536L377.284 173.07L348.006 244.536H406.565Z" fill="url(#paint1_linear_196_326)"/>
<path d="M674.598 317.454C656.024 329.417 633.669 336.344 609.112 336.344C541.109 336.344 492.311 285.656 492.311 222.377C492.311 159.099 541.74 108.41 609.742 108.41C677.744 108.41 726.542 159.099 726.542 222.377C726.542 245.358 719.615 267.399 707.021 285.66L729.689 304.864L698.834 339.182L674.593 317.458L674.598 317.454ZM638.706 285.656C638.706 285.656 660.702 274.339 669.874 253.228C673.863 244.052 675.854 234.024 675.854 222.373C675.854 184.591 648.149 153.111 609.107 153.111C570.065 153.111 542.991 183.965 542.991 222.373C542.991 260.781 570.696 291.636 609.738 291.636C620.441 291.636 630.202 289.432 638.702 285.656H638.706Z" fill="url(#paint2_linear_196_326)"/>
<path d="M611.778 219.074C611.778 219.074 608.06 224.574 605.944 236.133C604.087 246.257 602.46 249.996 599.781 252.07C597.101 254.144 582.167 260.278 582.167 260.278L583.285 262.894C583.285 262.894 605.176 259.915 607.634 256.255C610.092 252.595 619.468 230.98 618.738 226.001C618.012 221.023 611.782 219.074 611.782 219.074H611.778Z" fill="#D8A982"/>
<path d="M550.995 334.648C550.769 336.781 547.756 336.71 544.343 336.209C540.934 335.704 541.818 336.601 537.024 336.518C532.229 336.434 530.627 334.798 530.418 334.11C530.23 333.497 532.554 333.054 535.042 332.533C535.355 332.466 535.667 332.399 535.98 332.328C538.785 331.706 540.696 329.682 543.133 327.934C545.441 326.282 548.545 320.135 548.545 320.135L555.101 320.043C555.101 320.043 552.171 325.547 551.061 327.926C550.41 329.324 550.615 331.076 550.836 332.42C550.957 333.15 551.074 333.901 550.995 334.648Z" fill="#D8A982"/>
<path d="M544.347 336.205C540.938 335.7 541.822 336.597 537.028 336.514C532.233 336.43 530.63 334.795 530.422 334.106C530.234 333.493 532.558 333.05 535.045 332.529L535.075 332.575C535.075 332.575 538.108 334.327 542.068 334.052C545.294 333.831 548.616 332.587 550.844 332.416C550.965 333.146 551.082 333.897 551.003 334.644C550.777 336.777 547.765 336.706 544.351 336.205H544.347Z" fill="#002822"/>
<path d="M622.014 263.811C622.014 263.811 579.049 264.02 571.029 269.081C563.009 274.143 544.752 326.28 544.752 326.28C544.752 326.28 546.175 328.153 547.94 328.395C550.774 328.784 552.38 327.678 552.38 327.678C552.38 327.678 576.846 303.345 578.148 296.698C579.45 290.05 579.133 284.121 582.096 283.962C585.058 283.803 622.018 288.456 627.61 278.608C633.202 268.76 628.578 259.008 628.578 259.008L622.014 263.811Z" fill="#C9FCE9"/>
<path d="M573.816 333.663C573.771 335.808 570.762 335.987 567.319 335.775C563.881 335.558 564.836 336.375 560.05 336.697C555.268 337.018 553.532 335.52 553.265 334.848C553.027 334.251 555.305 333.621 557.738 332.887C558.043 332.795 558.352 332.699 558.66 332.607C561.406 331.752 563.138 329.574 565.42 327.633C567.582 325.793 570.161 319.408 570.161 319.408L576.683 318.766C576.683 318.766 574.225 324.495 573.316 326.957C572.782 328.405 573.132 330.133 573.47 331.456C573.65 332.173 573.829 332.908 573.812 333.663H573.816Z" fill="#F5C99D"/>
<path d="M567.323 335.77C563.885 335.553 564.84 336.371 560.054 336.693C555.272 337.014 553.536 335.516 553.269 334.844C553.031 334.247 555.309 333.617 557.742 332.883L557.775 332.924C557.775 332.924 560.947 334.414 564.865 333.809C568.062 333.317 571.271 331.802 573.474 331.447C573.653 332.165 573.833 332.899 573.816 333.655C573.77 335.8 570.762 335.979 567.319 335.766L567.323 335.77Z" fill="#002822"/>
<path d="M630.356 266.453C630.356 266.453 592.511 268.243 584.695 273.614C576.879 278.984 565.9 324.207 565.9 324.207C565.9 324.207 567.545 326.385 569.222 326.986C571.354 327.749 574.23 326.886 574.23 326.886C574.23 326.886 589.423 308.579 590.466 301.886C591.51 295.196 593.141 291.754 596.096 291.478C599.05 291.203 628.094 296.874 641.368 284.355C649.605 276.585 630.351 266.453 630.351 266.453H630.356Z" fill="#EAF7F9"/>
<path d="M617.399 216.048C616.664 214.759 615.788 212.443 615.154 208.253C615.237 208.666 616.318 213.937 618.563 216.808C627.326 221.761 641.176 240.368 641.088 243.878C641.088 243.878 649.593 232.615 649.689 232.552C649.689 232.552 659.262 218.556 646.359 211.763C639.799 208.312 639.503 203.338 639.478 199.006C639.457 194.67 636.231 176.222 623.938 181.926C623.938 181.926 621.851 181.163 620.954 181.359C620.954 181.359 621.705 181.451 622.106 181.814C620.637 181.826 618.554 182.072 616.873 183.182C612.42 186.12 609.854 209.981 617.403 216.053L617.399 216.048Z" fill="#45391D"/>
<path d="M631.945 212.744C631.945 212.744 628.419 212.41 624.897 212.744C622.502 212.974 620.132 213.716 618.78 214.28C615.446 215.673 615.796 221.578 622.794 220.485C629.792 219.392 632.438 214.497 631.945 212.744Z" fill="#FFB27D"/>
<path d="M619.077 217.049C619.035 217.07 618.079 222.128 622.661 221.928C625.67 221.794 632.159 218.155 631.583 215.581C631.312 214.358 629.037 211.178 628.578 203.93L628.032 204.076L618.826 206.546C618.826 206.546 619.235 209.467 619.423 212.234C619.586 214.554 619.59 216.77 619.077 217.054V217.049Z" fill="#F5C99D"/>
<path d="M618.826 206.543C618.826 206.543 619.235 209.464 619.423 212.23C624.635 211.734 627.076 206.789 628.032 204.072L618.826 206.543Z" fill="#D8A982"/>
<path d="M628.929 202.991C628.929 202.991 631.378 198.484 631.787 194.745C632.079 192.075 630.084 182.381 620.345 184.447C620.345 184.447 617.507 184.918 614.945 186.909C612.909 188.494 610.033 191.812 614.048 200.116L615.137 202.941L628.929 202.991Z" fill="#45391D"/>
<path d="M617.257 209.276C617.257 209.276 629.625 208.654 629.12 200.959C628.615 193.264 629.871 188.002 621.955 188.069C614.039 188.14 612.696 191.178 612.241 193.786C611.786 196.394 614.027 209.234 617.257 209.272V209.276Z" fill="#F5C99D"/>
<path d="M616.314 188.261C616.314 188.261 620.299 197.061 625.578 198.05C630.857 199.039 633.018 197.5 633.018 197.5C633.018 197.5 628.824 194.604 627.631 189.137C627.631 189.137 618.58 183.796 616.314 188.261Z" fill="#45391D"/>
<path d="M617.203 188.936C617.203 188.936 614.811 191.119 614.327 193.122C613.843 195.121 613.835 199.177 612.65 199.118C612.65 199.118 609.691 193.151 612.324 189.491C615.116 185.606 617.207 188.941 617.207 188.941L617.203 188.936Z" fill="#45391D"/>
<path d="M604.884 264.459C605.886 265.657 609.011 266.024 612.35 266.571C614.979 267.005 617.737 267.547 619.702 268.703C624.159 271.32 638.727 280.166 642.996 279.766C644.652 279.611 644.339 276.448 643.338 272.259C641.76 265.636 638.456 256.443 638.456 252.445C638.456 250.263 637.729 245.101 636.761 239.196C636.682 238.721 636.603 238.241 636.523 237.757C634.604 226.281 631.95 212.744 631.95 212.744C631.95 212.744 628.987 219.208 623.216 219.208C617.445 219.208 618.784 214.28 618.784 214.28C618.784 214.28 613.518 214.897 612.274 216.241C611.031 217.581 607.876 223.373 607.246 224.954C607.246 224.954 607.117 226.966 612.095 227.921C612.095 227.921 610.881 233.379 610.739 237.014C610.63 239.701 612.571 248.114 613.13 253.343C613.326 255.195 613.355 256.648 613.055 257.311C612.671 258.158 611.423 258.997 610.009 259.823C607.196 261.459 603.699 263.036 604.884 264.459Z" fill="#C1A04A"/>
<path d="M610.005 259.817C606.808 265.263 618.668 266.903 620.633 268.054C625.09 270.671 638.723 280.16 642.992 279.76C644.648 279.605 644.335 276.442 643.334 272.252C641.756 265.63 638.451 256.437 638.451 252.439C638.451 250.257 637.725 245.095 636.757 239.19L631.62 234.258C631.62 234.258 626.116 248.488 620.867 250.82C618.117 252.043 615.242 252.848 613.13 253.337C613.326 255.189 613.355 256.641 613.055 257.305C612.671 258.152 611.423 258.991 610.009 259.817H610.005Z" fill="#726106"/>
<path d="M633.527 217.005C633.527 217.005 637.921 214.338 642.169 219.4C646.417 224.462 639.148 260.641 632.855 262.502C625.862 264.568 605.665 262.173 605.665 262.173L606.053 259.018C606.053 259.018 627.556 254.895 628.449 253.747C629.342 252.6 631.291 217.593 633.527 217.009V217.005Z" fill="#F5C99D"/>
<path d="M631.946 212.744C631.946 212.744 640.968 213.558 643.588 216.525C646.209 219.492 646.973 227.533 646.973 227.533C646.973 227.533 639.027 233.947 629.455 231.46L631.946 212.744Z" fill="#C1A04A"/>
<path d="M607.809 258.825C607.809 258.825 600.807 257.469 600.019 257.811C599.23 258.149 594.823 262.101 595.274 262.894C595.725 263.683 597.532 264.25 599.564 263.57C601.596 262.894 605.998 262.552 606.791 261.538C607.58 260.519 607.805 258.825 607.805 258.825H607.809Z" fill="#F5C99D"/>
<path d="M602.176 267.963H614.094V266.557H602.176V267.963Z" fill="#070707"/>
<path d="M604.705 267.772C604.588 267.305 593.751 250.283 593.751 250.283H569.631L581.729 267.313L604.705 267.772Z" fill="#070707"/>
<path d="M603.691 267.964C603.574 267.497 592.699 250.283 592.699 250.283H569.631L581.14 267.964H603.691Z" fill="#45391D"/>
<path d="M583.356 259.183C583.594 259.872 584.345 260.431 585.034 260.431C585.722 260.431 586.089 259.872 585.852 259.183C585.614 258.495 584.863 257.936 584.174 257.936C583.486 257.936 583.118 258.495 583.356 259.183Z" fill="#EAF7F9"/>
<path d="M772.44 208.766C772.44 208.766 778.195 212.037 779.806 212.037C781.416 212.037 787.738 210.815 789.503 211.716C791.264 212.617 794.457 216.239 795.053 217.424C796.13 219.553 790.722 218.614 788.164 216.799C787.793 216.536 787.329 216.44 786.887 216.536C785.564 216.824 782.81 217.324 781.483 216.832C779.697 216.173 770.287 215.438 770.287 215.438L772.44 208.766Z" fill="#D8A982"/>
<path d="M728.662 164.203C728.662 164.203 734.625 206.6 744.503 210.397C749.377 212.271 770.918 216.519 777.285 216.944C777.285 216.944 778.846 215.68 778.466 210.522C778.466 210.522 755.899 202.239 752.694 197.732C747.925 191.026 755.657 170.337 749.669 164.04C743.681 157.743 733.599 155.035 728.658 164.203H728.662Z" fill="#E6C724"/>
<path d="M730.674 253.525C732.414 256.475 734.425 259.242 736.499 261.862C742.909 269.958 749.89 276.63 751.105 282.936C751.347 284.192 751.731 285.548 752.231 286.971C752.74 288.415 753.366 289.934 754.092 291.507C756.813 297.416 760.882 304.038 764.942 310.056C771.965 320.463 778.567 329.143 778.567 329.143L790.677 328.625C790.193 327.411 784.91 313.043 777.845 295.488C774.974 288.361 771.923 280.778 768.981 273.467C768.589 272.491 768.197 271.519 767.809 270.555C766.907 268.318 766.023 266.115 765.159 263.97C758.524 247.482 753.241 234.354 753.241 234.354C753.241 234.354 726.726 224.31 723.972 230.82C721.702 236.186 723.551 241.444 730.674 253.521V253.525Z" fill="#45391D"/>
<path d="M778.946 326.944C778.946 326.944 779.568 336.938 781.5 337.08C781.759 337.101 791.307 337.101 791.307 337.101L803.496 337.03C803.496 337.03 803.416 334.092 799.853 333.47C796.289 332.849 790.326 330.345 788.168 325.638C785.898 320.684 778.95 326.944 778.95 326.944H778.946Z" fill="#45391D"/>
<path d="M735.915 295.518C735.915 295.518 726.864 299.799 727.448 301.652C727.527 301.898 731.07 310.766 731.07 310.766L735.66 322.057C735.66 322.057 738.356 320.893 737.613 317.355C736.866 313.816 736.979 307.348 740.551 303.596C744.307 299.649 735.915 295.522 735.915 295.522V295.518Z" fill="#45391D"/>
<path d="M739.144 305.488C739.144 305.488 734.062 300.347 733.131 296.941C733.131 296.941 750.616 279.949 756.863 275.826C764.036 271.09 768.693 271.065 767.541 269.905C763.769 266.103 732.084 255.016 726.926 246.991C725.148 244.225 724.143 241.6 723.592 239.309C722.423 234.41 723.346 231.03 723.346 231.03L762.759 229.891C762.759 229.891 792.066 260.29 791.899 271.729C791.715 284.097 739.14 305.488 739.14 305.488H739.144Z" fill="#847D3D"/>
<path d="M751.981 161.529C744.006 163.591 730.786 156.204 730.786 156.204C730.786 156.204 735.919 152.753 737.822 145.18C737.918 144.796 738.005 144.408 738.085 144.003C738.919 143.827 740.497 143.489 742.178 143.135L748.267 148.593C748.267 148.593 748.129 150.859 747.365 154.752C747.236 155.432 747.081 156.163 746.906 156.939C750.174 158.963 751.976 161.533 751.976 161.533L751.981 161.529Z" fill="#F5C99D"/>
<path d="M722.349 194.583C723.492 209.943 721.99 233.307 723.283 237.351C724.402 240.844 737.142 238.766 742.228 237.601C744.11 237.172 746.389 236.554 748.747 235.824C755.315 233.791 762.471 230.887 763.239 228.73C763.268 228.646 763.293 228.563 763.31 228.484C763.381 228.171 763.364 227.878 763.298 227.582C763.043 226.485 762.054 225.295 761.937 222.575C761.808 219.537 761.829 215.961 761.712 212.113C761.708 211.679 761.699 211.208 761.653 210.778V210.619C761.653 210.536 761.649 210.456 761.645 210.373C761.537 206.083 761.311 201.572 761.053 197.099C760.886 194.29 760.698 191.507 760.477 188.841C759.905 181.959 759.133 175.842 758.111 171.974C756.441 165.668 752.761 161.554 749.41 158.541L746.986 156.463C744.281 157.055 741.085 156.663 738.189 155.29C735.059 153.805 733.978 152.736 733.432 153.141C726.2 158.72 721.001 175.808 722.353 194.591L722.349 194.583Z" fill="#FDDB28"/>
<path d="M748.742 235.824C755.311 233.792 762.467 230.887 763.235 228.73C763.264 228.646 763.289 228.563 763.306 228.484C763.306 228.183 763.298 227.883 763.293 227.582C763.039 226.485 762.05 225.295 761.933 222.575C761.804 219.537 761.824 215.961 761.708 212.113C761.703 211.679 761.695 211.208 761.649 210.778V210.619C761.649 210.536 761.645 210.456 761.641 210.373L735.088 176.543C735.088 176.543 717.241 213.711 748.742 235.828V235.824Z" fill="#E6C724"/>
<path d="M748.271 148.589C748.271 148.589 748.133 150.855 747.37 154.748C741.423 152.825 738.728 147.454 737.826 145.176C737.922 144.792 738.01 144.404 738.089 143.999C738.924 143.824 740.501 143.486 742.183 143.131L748.271 148.589Z" fill="#D8A982"/>
<path d="M749.072 152.023C749.072 152.023 736.103 149.857 737.576 141.803C739.049 133.745 738.364 128.041 746.71 129.084C755.052 130.127 756.095 133.491 756.258 136.303C756.421 139.112 752.485 152.382 749.076 152.027L749.072 152.023Z" fill="#F5C99D"/>
<path d="M800.101 220.99L801.244 221.361L810.969 191.412L809.826 191.041L800.101 220.99Z" fill="#070707"/>
<path d="M768.213 220.666L801.251 221.369L801.293 219.392L768.255 218.688L768.213 220.666Z" fill="#070707"/>
<path d="M768.889 222.198C768.889 222.198 779.505 224.999 783.486 224.702C787.467 224.41 790.776 222.516 791.277 221.527C791.778 220.538 792.83 218.785 790.121 219.111C787.413 219.436 783.712 220.012 783.595 219.49C783.478 218.969 785.802 219.019 785.802 219.019C785.802 219.019 786.503 217.996 785.619 217.959C784.734 217.921 782.155 217.22 781.195 217.7C780.236 218.18 779.351 219.949 778.654 219.874C777.953 219.799 769.77 216.189 769.77 216.189L768.885 222.198H768.889Z" fill="#F5C99D"/>
<path d="M731.295 165.944C731.295 165.944 732.551 208.738 741.949 213.603C746.585 216.003 767.525 222.6 773.814 223.727C773.814 223.727 775.504 222.642 775.696 217.476C775.696 217.476 754.18 206.751 751.488 201.923C747.486 194.733 757.451 175.024 752.198 168.101C746.94 161.183 737.217 157.381 731.295 165.944Z" fill="#FDDB28"/>
<path d="M737.826 145.179C737.826 145.179 737.676 142.416 739.382 140.83C739.382 140.83 738.79 138.06 739.883 137.6C740.981 137.146 741.206 139.474 741.711 139.107C742.212 138.74 744.453 137.004 745.412 134.446C746.372 131.888 755.152 134.988 756.174 135.447C757.197 135.906 760.485 134.216 761.128 132.848C761.128 132.848 759.3 131.387 758.478 130.29C757.656 129.192 751.901 121.793 743.86 123.892C735.819 125.996 734.725 129.83 735.18 133.119C735.639 136.407 734.534 144.069 737.826 145.17V145.179Z" fill="#070707"/>
<path d="M489.649 174.457C488.768 176.827 487.237 179.581 485.634 180.265C483.815 181.041 483.055 182.139 483.055 182.139L481.587 181.288L479.834 180.269C479.834 180.269 479.876 180.073 479.963 179.756C480.047 179.439 480.18 179.001 480.356 178.513C480.356 178.513 480.894 177.82 480.564 176.952C480.235 176.084 480.301 174.74 480.865 173.922C481.428 173.105 481.971 171.089 482.309 171.152C483.131 171.293 481.904 174.06 482.258 174.578C482.576 175.041 482.972 174.882 483.047 174.849C483.051 174.849 483.055 174.845 483.06 174.84C485.363 173.826 488.155 168.372 489.39 169.107C489.853 169.382 490.028 173.451 489.653 174.461L489.649 174.457Z" fill="#D8A982"/>
<path d="M481.686 177.756L484.57 179.784C484.774 179.926 485.058 179.876 485.2 179.676L492.586 169.164C492.728 168.96 492.678 168.676 492.478 168.534L489.594 166.506C489.39 166.364 489.106 166.41 488.964 166.614L481.578 177.126C481.436 177.33 481.486 177.614 481.686 177.756Z" fill="#2D2C2C"/>
<path d="M484.324 179.613L486.014 180.802C486.168 180.911 486.385 180.873 486.494 180.719L494.005 170.032C494.113 169.878 494.076 169.661 493.921 169.552L492.231 168.363C492.077 168.254 491.86 168.292 491.752 168.446L484.24 179.133C484.132 179.288 484.169 179.505 484.324 179.613Z" fill="#2D2C2C"/>
<path d="M440.32 162.676C440.32 162.676 454.992 188.268 460.317 192.976L479.834 178.424C479.834 178.424 482.667 179.292 483.907 182.134C483.907 182.134 472.055 206.283 460.384 207.305C448.716 208.328 432.337 178.362 432.337 178.362L440.32 162.676Z" fill="#9B9240"/>
<path d="M407.116 336.732H398.637C397.568 336.152 396.617 334.825 396.316 332.847C395.903 330.114 392.84 328.629 392.177 326.392C391.517 324.159 394.91 321.017 394.91 321.017L395.478 320.287L396.066 319.527L401.691 320.854C401.691 320.854 401.829 322.194 401.916 323.901C401.979 325.132 402.008 326.555 401.941 327.802C401.775 330.782 402.776 333.991 405.422 334.567C407.379 334.996 407.291 336.157 407.112 336.732H407.116Z" fill="#070707"/>
<path d="M456.315 336.733H436.927C435.997 335.594 436.339 331.396 436.481 330.027C436.51 329.752 436.531 329.589 436.531 329.589C436.531 329.589 443.153 324.294 444.059 328.35C444.088 328.479 444.121 328.6 444.155 328.725C445.302 332.518 450.439 334.242 453.406 334.722C455.334 335.035 456.048 336.036 456.31 336.737L456.315 336.733Z" fill="#070707"/>
<path d="M452.622 228.515C452.622 228.515 451.616 241.059 450.435 256.136C448.829 276.617 446.897 301.771 446.705 306.537C446.375 314.812 445.048 328.048 445.048 328.048C445.048 328.048 441.906 331.195 435.617 329.868C435.617 329.868 430.013 310.973 428.411 290.976C428.386 290.646 428.361 290.317 428.335 289.987C426.846 269.631 424.53 226.775 424.53 226.775L452.618 228.511L452.622 228.515Z" fill="#2D2C2C"/>
<path d="M452.622 228.515C452.622 228.515 451.616 241.059 450.435 256.136L428.415 290.98C428.39 290.65 428.364 290.321 428.339 289.991C426.85 269.635 424.534 226.779 424.534 226.779L452.622 228.515Z" fill="#2D2C2C"/>
<path d="M448.032 230.006C448.032 230.006 429.913 275.428 417.999 296.777C406.085 318.126 402.363 324.08 402.363 324.08C402.363 324.08 395.536 321.351 394.918 319.49C394.918 319.49 399.475 278.278 407.454 268.234C411.961 262.559 417.26 245.521 417.507 239.566C417.753 233.607 419.122 221.818 419.122 221.818L448.04 230.01L448.032 230.006Z" fill="#2D2C2C"/>
<path d="M443.521 163.791C436.44 166.023 424.188 159.993 424.188 159.993C424.188 159.993 430.719 155.094 430.376 144.908L435.851 149.319L439.569 152.315C439.569 152.315 439.553 154.08 439.148 157.177C439.039 157.99 438.906 158.9 438.739 159.889C441.777 161.558 443.521 163.787 443.521 163.787V163.791Z" fill="#F5C99D"/>
<path d="M439.569 152.315C439.569 152.315 439.552 154.08 439.148 157.176C435.025 156.467 430.351 149.811 430.351 149.811C432.45 149.206 434.286 149.097 435.847 149.319L439.565 152.315H439.569Z" fill="#D8A982"/>
<path d="M441.735 152.148C441.735 152.148 430.039 154.093 428.941 146.79C427.844 139.488 425.594 134.822 433.014 133.27C440.433 131.722 442.307 134.288 443.267 136.638C444.227 138.987 444.748 151.456 441.731 152.148H441.735Z" fill="#F5C99D"/>
<path d="M453.402 229.564C453.189 229.74 452.943 229.848 452.659 229.848C450.001 229.81 442.248 231.288 435.684 230.616C430.155 230.086 425.26 228.446 420.002 226.088C419.305 225.775 417.699 224.916 417.732 224.139C417.757 223.284 417.84 222.045 417.945 220.484C418.316 215.059 418.967 205.724 418.333 194.958C418.22 192.955 418.158 190.965 418.153 189.007C418.099 174.415 420.991 161.579 426.808 157.235C427.305 156.88 430.355 158.37 433.155 159.751C435.742 161.028 438.334 161.17 440.779 160.673L443.224 162.835C446.204 165.601 449.467 169.357 450.882 175.066C452.088 179.923 452.797 188.682 453.185 197.758C453.361 201.873 453.507 206.021 453.54 209.956V210.097C453.573 210.486 453.573 210.915 453.573 211.303C453.715 221.406 453.573 229.422 453.398 229.564H453.402Z" fill="#C1AA57"/>
<path d="M417.949 220.484C418.321 215.059 418.972 205.724 418.337 194.958C418.225 192.955 418.162 190.964 418.158 189.007C420.578 183.132 422.56 178.871 422.56 178.871H428.665C428.665 178.871 433.143 209.446 417.949 220.488V220.484Z" fill="#9B9240"/>
<path d="M386.673 255.134L412.712 258.843C416.101 259.328 419.268 256.949 419.752 253.561L421.359 242.277C421.843 238.888 419.464 235.721 416.076 235.237L390.037 231.527C386.648 231.043 383.481 233.422 382.997 236.81L381.39 248.094C380.906 251.482 383.285 254.65 386.673 255.134Z" fill="#726106"/>
<path d="M417.549 238.6C416.818 236.768 415.237 235.32 413.234 234.831C413.234 234.831 413.234 234.831 413.23 234.831C413.033 234.786 412.833 234.744 412.629 234.715L407.446 233.976L407.792 231.539C407.872 230.996 407.73 230.454 407.4 230.012C407.07 229.574 406.586 229.286 406.044 229.206L404.692 229.014L399.246 228.238L398.265 228.1C397.143 227.942 396.096 228.726 395.933 229.849L395.586 232.286L386.635 231.009C383.235 230.525 380.055 232.912 379.571 236.313L377.943 247.73C377.459 251.131 379.846 254.311 383.247 254.795L409.24 258.5C409.699 258.567 410.154 258.58 410.596 258.542H410.601C411.31 258.488 411.994 258.313 412.629 258.029C414.54 257.186 415.992 255.404 416.305 253.192L417.933 241.779C418.091 240.665 417.941 239.58 417.549 238.6ZM397.21 230.033C397.26 229.69 397.527 229.436 397.848 229.382C397.923 229.369 397.998 229.369 398.082 229.382L399.238 229.544L403.523 230.158L405.86 230.492C406.282 230.55 406.574 230.942 406.515 231.36L406.169 233.797L396.868 232.47L397.214 230.037L397.21 230.033Z" fill="#C1A04A"/>
<path d="M406.474 221.532C406.474 221.532 405.105 223.355 405.051 224.082C404.683 229.014 406.937 229.698 401.103 232.436C401.103 232.436 398.612 233.387 398.57 231.451C398.528 229.519 400.298 229.485 399.976 226.777C399.601 223.656 399.638 223.627 401.691 221.995L403.048 219.75L406.478 221.528L406.474 221.532Z" fill="#F5C99D"/>
<path d="M402.998 222.93C405.197 223.36 407.58 223.184 407.58 223.184C407.58 223.184 414.106 203.021 414.945 201.181C415.784 199.34 434.332 177.537 434.332 177.537L426.604 158.199C426.604 158.199 406.545 191.708 404.504 196.419C401.137 204.202 399.968 221.645 399.968 221.645C399.968 221.645 401.262 222.592 402.989 222.93H402.998Z" fill="#C1AA57"/>
<path d="M428.932 146.084C428.932 146.084 430.134 145.884 429.938 144.232C429.746 142.579 429.746 140.417 431.09 140.822C432.433 141.223 432.5 142.299 433.055 141.674C433.606 141.043 433.618 138.398 437.616 138.214C441.618 138.031 443.241 139.42 445.102 138.602C446.963 137.784 447.059 134.968 447.059 134.968C447.059 134.968 446.529 135.973 445.732 136.295C445.732 136.295 448.837 132.051 445.244 129.142C441.651 126.234 437.987 128.137 435.909 128.262C431.327 128.537 428.369 128.813 426.875 131.825C425.377 134.834 425.994 143.192 428.936 146.089L428.932 146.084Z" fill="#45391D"/>
<path d="M404.316 223.701C404.316 223.701 405.635 225.074 405.714 225.646C405.981 227.478 406.595 228.271 406.286 228.471C405.647 228.884 404.804 227.528 404.4 226.309C403.995 225.091 404.312 223.701 404.312 223.701H404.316Z" fill="#F5C99D"/>
<path d="M183.822 99.4835C187.72 106.711 192.869 110.337 192.869 110.337H214.314C214.314 110.337 180.851 93.9669 183.822 99.4835Z" fill="#233862"/>
<path d="M198.757 155.001C199.295 155.656 199.349 156.369 199.053 157.125C199.053 157.125 199.053 157.133 199.049 157.137C198.502 158.535 196.77 160.062 194.772 161.581C194.517 161.777 194.288 161.953 194.091 162.12C194.041 162.161 193.987 162.207 193.937 162.249C193.895 162.282 193.858 162.316 193.82 162.349C191.947 163.985 192.623 164.386 189.251 167.716C185.403 171.505 182.825 171.505 182.103 171.133C181.489 170.812 182.808 168.784 184.264 166.501C184.335 166.393 184.406 166.28 184.477 166.167C184.669 165.863 184.865 165.558 185.057 165.249C186.768 162.504 186.384 161.181 186.109 157.012C185.883 153.628 181.368 138 181.368 138L188.571 136.961C188.571 136.961 190.394 149.355 192.723 151.32C193.966 152.367 195.389 152.418 196.591 153.202C196.674 153.256 196.758 153.311 196.841 153.369C197.522 153.849 198.218 154.341 198.761 155.001H198.757Z" fill="#F5C99D"/>
<path d="M198.757 155.001C199.295 155.657 199.349 156.37 199.053 157.125C199.053 157.125 199.053 157.134 199.049 157.138C198.386 158.528 196.7 160.051 194.763 161.57C194.509 161.77 194.288 161.949 194.087 162.12C194.037 162.162 193.983 162.208 193.933 162.25C193.891 162.283 193.854 162.317 193.816 162.35C191.942 163.986 192.619 164.386 189.247 167.716C185.399 171.505 182.82 171.505 182.099 171.134C181.485 170.813 182.804 168.785 184.26 166.502C184.995 166.256 188.416 164.975 191.062 161.77C193.395 158.957 194.997 155.302 196.587 153.207C196.67 153.261 196.754 153.316 196.837 153.374C197.518 153.854 198.214 154.346 198.757 155.006V155.001Z" fill="#424242"/>
<path d="M141.066 148.946C140.561 151.146 137.419 150.691 133.918 149.735C130.417 148.78 131.226 149.823 126.227 149.134C121.228 148.442 119.759 146.53 119.625 145.779C119.504 145.116 121.991 144.949 124.658 144.715C124.992 144.686 125.33 144.653 125.668 144.623C128.681 144.327 130.93 142.449 133.701 140.934C136.325 139.499 140.344 133.465 140.344 133.465L147.208 134.195C147.208 134.195 143.449 139.578 141.988 141.923C141.128 143.305 141.12 145.157 141.187 146.593C141.22 147.373 141.25 148.17 141.07 148.946H141.066Z" fill="#F5C99D"/>
<path d="M133.918 149.735C130.417 148.779 131.226 149.823 126.227 149.134C121.228 148.441 119.759 146.53 119.625 145.779C119.504 145.115 121.991 144.949 124.658 144.715L124.683 144.765C124.683 144.765 127.633 146.981 131.806 147.194C135.207 147.369 138.838 146.493 141.187 146.593C141.22 147.373 141.25 148.17 141.07 148.946C140.565 151.145 137.423 150.69 133.922 149.735H133.918Z" fill="#424242"/>
<path d="M168.628 105.675L174.587 123.156L182.366 145.977C182.366 145.977 184.64 146.257 186.835 145.69C188.859 145.164 191.204 143.707 191.204 143.707C191.204 143.707 189.535 119.383 185.566 105.337C184.548 101.732 183.38 98.8065 182.044 97.1415C175.518 88.9918 168.624 105.671 168.624 105.671L168.628 105.675Z" fill="#847D3D"/>
<path d="M175.914 78.3738C180.162 77.1303 192.134 79.2042 204.14 81.8916L206.781 77.7938L232.908 76.4668C232.908 76.4668 240.991 95.7792 235.95 107.81C235.207 109.579 233.901 110.364 231.556 110.339C231.556 110.339 231.364 110.339 231.093 110.339C231.093 110.339 215.569 110.476 210.533 110.339C197.567 109.984 183.325 100.424 181.464 99.998C178.418 99.3011 177.024 105.398 173.782 111.749C170.543 118.1 144.195 139.466 144.195 139.466C144.195 139.466 140.24 139.399 138.62 138.74C136.88 138.034 136.263 137.158 136.263 137.158C136.263 137.158 166.337 81.1822 175.918 78.3738H175.914Z" fill="#BDA24D"/>
<path d="M207.912 41.893C217.055 47.2594 235.604 58.3678 235.704 58.301C235.704 58.301 242.556 61.0969 246.554 58.5973C253.218 54.4286 257.048 42.8236 245.352 32.4288C239.518 27.246 235.312 25.9065 234.882 17.8736C234.652 13.5129 229.094 -1.00478 219.179 0.0551481C218.349 0.14278 217.518 0.201201 216.684 0.151126C215.532 0.0801857 213.621 0.197028 211.634 1.3112C205.951 4.48681 194.045 39.5395 207.912 41.8972V41.893Z" fill="#070707"/>
<path d="M215.811 37.7536C215.77 37.7787 220.335 39.477 223.456 38.1959C226.39 36.9941 228.718 32.2829 228.672 32.2787C227.354 32.1827 225.939 30.9893 225.029 23.3945L224.462 23.5823L214.927 26.7245C214.927 26.7245 215.528 29.775 215.891 32.671C216.2 35.1038 216.333 37.4281 215.811 37.7578V37.7536Z" fill="#F5C99D"/>
<path d="M214.927 26.724C214.927 26.724 215.528 29.7744 215.891 32.6704C221.341 31.84 223.615 26.4945 224.462 23.5859L214.927 26.7282V26.724Z" fill="#D8A982"/>
<path d="M213.437 29.6916C213.437 29.6916 226.403 28.3104 225.418 20.2483C224.433 12.1861 225.443 6.57771 217.122 7.12019C208.801 7.66267 207.574 10.9343 207.245 13.7051C206.919 16.4759 210.036 29.8419 213.433 29.6916H213.437Z" fill="#F5C99D"/>
<path d="M207.841 9.3191C207.841 9.3191 215.916 16.6718 221.529 17.3979C227.137 18.124 229.315 16.3797 229.315 16.3797C229.315 16.3797 226.073 13.5379 224.199 9.03951C223.648 7.71251 222.43 6.78195 221.003 6.6192C216.997 6.16435 209.385 5.79713 207.841 9.3191Z" fill="#070707"/>
<path d="M213.028 8.82324C213.028 8.82324 210.191 11.423 209.264 13.3843C208.371 15.2746 207.996 19.8481 208.613 21.6842C208.613 21.6842 204.532 13.184 207.082 9.17794C209.786 4.92989 213.028 8.82324 213.028 8.82324Z" fill="#070707"/>
<path d="M204.415 56.4911C204.094 82.6513 203.96 77.1806 206.752 79.7386C207.424 80.3562 209.352 80.7651 211.897 81.003C219.901 81.7541 234.035 80.8152 234.611 79.3505C236.601 74.272 235.337 72.6446 237.093 64.837C237.277 64.0066 237.502 63.1094 237.761 62.1288C239.197 56.7707 240.499 54.9722 236.167 46.184C232.24 38.2262 228.113 31.7414 227.721 31.9584C216.625 38.1427 215.891 32.672 215.891 32.672C215.891 32.672 204.57 43.7303 204.411 56.4911H204.415Z" fill="#483801"/>
<path d="M174.587 123.156L182.366 145.978C182.366 145.978 184.64 146.258 186.835 145.69C188.859 145.164 191.204 143.708 191.204 143.708C191.204 143.708 189.535 119.384 185.566 105.338L174.583 123.152L174.587 123.156Z" fill="#BDA24D"/>
<path d="M215.891 32.6719C215.891 32.6719 204.603 34.2701 203.151 39.0732C201.699 43.8762 193.157 72.1103 193.157 72.1103C193.157 72.1103 198.84 73.2913 201.553 70.7249C204.265 68.1586 211.405 46.4885 211.405 46.4885L215.891 32.6719Z" fill="#483801"/>
<path d="M211.897 81.0015C219.901 81.7526 234.035 80.8137 234.611 79.349C236.601 74.2706 235.337 72.6431 237.094 64.8355L233.522 53.8398C233.522 53.8398 233.83 65.9831 230.167 69.0752C226.507 72.1674 215.357 74.8339 213.546 77.4503C212.674 78.7064 212.085 79.975 211.897 81.0015Z" fill="#002822"/>
<path d="M221.224 76.1491C221.224 76.1491 213.362 74.1712 212.064 74.8388C210.771 75.5065 207.578 77.9769 207.165 78.8574C206.752 79.7379 210.024 78.2606 211.084 78.0061C211.768 77.8433 213.546 78.5152 214.422 78.8323C218.123 80.1802 220.427 79.6002 220.427 79.6002L221.22 76.1491H221.224Z" fill="#F5C99D"/>
<path d="M227.729 31.9534C227.729 31.9534 238.333 32.8965 241.871 38.1252C246.85 45.4862 256.281 76.5329 250.284 80.4763C243.532 84.9163 220.089 80.8644 220.089 80.8644C220.089 80.8644 219.404 77.1839 220.543 75.4396C221.683 73.6995 239.468 71.3209 240.306 70.5239C241.145 69.7268 230.525 54.3078 230.592 51.8541C230.659 49.4005 227.729 31.9492 227.729 31.9492V31.9534Z" fill="#483801"/>
<path d="M211.622 77.0335C211.622 77.0335 209.907 79.1283 209.356 79.3661C208.805 79.6082 208.455 79.5331 208.455 79.5331L209.627 77.5509L211.622 77.0293V77.0335Z" fill="#F5C99D"/>
<path d="M212.064 74.8418L207.182 77.0493C207.182 77.0493 207.378 77.3915 207.971 77.3789C208.563 77.3664 210.078 76.8615 210.078 76.8615L212.064 74.8418Z" fill="#F5C99D"/>
<path d="M209.269 82.6433L171.145 81.6043L160.454 52.7734L198.519 53.8125L209.269 82.6433Z" fill="#505050"/>
<path d="M170.728 80.4824L221.07 81.8511L221.041 82.9653L171.145 81.6049L170.728 80.4824Z" fill="#424242"/>
<path d="M181.155 67.6085C180.897 66.5987 181.497 65.8016 182.499 65.8309C183.5 65.8601 184.523 66.6988 184.786 67.7087C185.044 68.7185 184.444 69.5156 183.442 69.4905C182.441 69.4613 181.414 68.6226 181.155 67.6127V67.6085Z" fill="white"/>
<defs>
<linearGradient id="paint0_linear_196_326" x1="108.167" y1="223.539" x2="280.555" y2="223.539" gradientUnits="userSpaceOnUse">
<stop stop-color="#4A4321"/>
<stop offset="1" stop-color="#2B2202"/>
</linearGradient>
<linearGradient id="paint1_linear_196_326" x1="261.117" y1="225.804" x2="494.718" y2="225.804" gradientUnits="userSpaceOnUse">
<stop stop-color="#4A4121"/>
<stop offset="1" stop-color="#2B2402"/>
</linearGradient>
<linearGradient id="paint2_linear_196_326" x1="492.311" y1="223.792" x2="729.693" y2="223.792" gradientUnits="userSpaceOnUse">
<stop stop-color="#4A4321"/>
<stop offset="1" stop-color="#2B2402"/>
</linearGradient>
</defs>
</svg>
