<svg width="456" height="396" viewBox="0 0 456 396" fill="none" xmlns="http://www.w3.org/2000/svg">
<path d="M281.241 122.581V106.328C281.241 98.946 287.222 92.9629 294.601 92.9629H436.858C444.239 92.9629 450.222 98.946 450.222 106.328V393.626H82.2471V122.581H281.241Z" fill="white"/>
<path d="M280.059 122.581V106.328C280.059 98.946 286.04 92.9629 293.419 92.9629H435.676C443.058 92.9629 449.041 98.946 449.041 106.328V393.626H81.0654V122.581H280.059Z" fill="#726100"/>
<path d="M436.713 133.813V393.629H95.8379V132.537L436.713 133.813Z" fill="#FFFCBD"/>
<path d="M417.998 133.813V393.629H77.123V132.537L417.998 133.813Z" fill="#726100"/>
<path d="M63.3808 122.586H400.141C407.053 122.586 412.144 127.263 413.137 133.732V393.631H45.5973V140.326C45.5143 130.99 53.9396 122.586 63.3831 122.586H63.3808Z" fill="white"/>
<path d="M186.909 219.068L383.731 219.617L384.149 70.0371L187.326 69.4875L186.909 219.068Z" fill="#F9E6B2"/>
<path d="M192.065 211.893L378.82 212.414L379.204 74.9016L192.449 74.3801L192.065 211.893Z" fill="#FFE133"/>
<path d="M363.077 201.332L243.062 200.996L308.682 138.043L363.077 201.332Z" fill="#E3EEFF"/>
<path d="M308.505 201.177L207.665 200.896L262.384 148.865L308.505 201.177Z" fill="#E3EEFF"/>
<path d="M281.026 133.865C286.454 128.437 286.454 119.637 281.026 114.209C275.598 108.781 266.797 108.781 261.369 114.209C255.941 119.637 255.941 128.437 261.369 133.865C266.797 139.293 275.598 139.293 281.026 133.865Z" fill="#E3EEFF"/>
<path d="M160.688 201.175L343.16 201.748L343.659 43.0633L161.187 42.49L160.688 201.175Z" fill="#F9E6B2"/>
<path d="M165.994 193.573L338.104 194.113L338.562 48.2334L166.453 47.6927L165.994 193.573Z" fill="#FFE133"/>
<path d="M321.671 68.3477H253.127V74.37H321.671V68.3477Z" fill="#F9E6B2"/>
<path d="M182.213 90.6328L321.671 90.6328V84.6105L182.213 84.6105V90.6328Z" fill="#F9E6B2"/>
<path d="M182.213 107.188L321.671 107.188V101.165L182.213 101.165V107.188Z" fill="#F9E6B2"/>
<path d="M61.7587 122.586H398.519C405.431 122.586 410.522 127.263 411.515 133.732V394.564H43.9752V140.326C43.8923 130.99 52.3175 122.586 61.761 122.586H61.7587Z" fill="#CEB33E"/>
<path d="M413.135 393.627H450.221V392.132H413.135V393.627Z" fill="white"/>
<g style="mix-blend-mode:darken" opacity="0.5">
<path d="M450.222 232.514L436.712 241.328H418.864L413.137 245.733V241.547H45.5967V232.514H450.222Z" fill="black"/>
</g>
<path d="M38.107 236.545L455.44 236.545V189.392L38.107 189.392V236.545Z" fill="#F2E461"/>
<path d="M38.1078 236.545L417.872 236.545V189.392L38.1078 189.392V236.545Z" fill="#E6BE2E"/>
<path d="M312.888 189.393V236.53H279.89L303.025 189.393H312.888Z" fill="#0E0E0E"/>
<path d="M301.482 212.919C301.482 219.441 302.622 225.346 304.537 229.594C306.405 233.944 309.006 236.531 311.877 236.531H320.638V189.41H311.877C306.131 189.41 301.479 199.973 301.479 212.919H301.482ZM309.78 220.685C308.14 220.167 306.864 216.957 306.864 212.919C306.864 208.88 308.14 205.774 309.78 205.256C311.423 205.774 312.699 208.986 312.699 212.919C312.699 216.851 311.423 220.167 309.78 220.685Z" fill="#B38B24"/>
<path d="M305.947 212.919C305.947 219.441 307.14 225.346 309.142 229.594C311.098 233.944 313.817 236.531 316.823 236.531H320.641V189.41H316.823C310.812 189.41 305.944 199.973 305.944 212.919H305.947ZM310.147 212.919C310.147 208.984 312.628 205.774 314.344 205.256C316.063 205.774 317.399 208.986 317.399 212.919C317.399 216.851 316.063 220.167 314.344 220.685C312.628 220.167 310.147 216.957 310.147 212.919Z" fill="#E6CB3F"/>
<path d="M305.681 212.921C305.681 219.443 306.821 225.348 308.736 229.596C310.604 233.946 313.205 236.533 316.076 236.533H324.838V189.412H316.076C310.33 189.412 305.679 199.975 305.679 212.921H305.681ZM313.98 220.687C312.339 220.169 311.063 216.959 311.063 212.921C311.063 208.882 312.339 205.776 313.98 205.258C315.622 205.776 316.899 208.988 316.899 212.921C316.899 216.853 315.622 220.169 313.98 220.687Z" fill="#B38B24"/>
<path d="M310.144 212.921C310.144 219.443 311.337 225.348 313.339 229.596C315.295 233.946 318.014 236.533 321.02 236.533H324.838V189.412H321.02C315.01 189.412 310.142 199.975 310.142 212.921H310.144ZM314.344 212.921C314.344 208.986 315.68 205.776 317.396 205.258C319.115 205.776 320.451 208.988 320.451 212.921C320.451 216.853 319.115 220.169 317.396 220.687C315.68 220.169 314.344 216.959 314.344 212.921Z" fill="#F2D261"/>
<path d="M316.035 236.839C315.662 236.839 313.526 236.74 311.268 234.572C308.706 232.112 305.651 226.555 305.651 214.049C305.651 201.544 308.437 196.006 310.773 192.958C313.346 189.603 315.915 189.126 316.023 189.108C316.192 189.08 316.348 189.191 316.378 189.359C316.406 189.525 316.295 189.684 316.129 189.714C316.104 189.718 313.648 190.188 311.22 193.386C308.96 196.363 306.264 202.362 306.264 214.049C306.264 226.308 309.204 231.725 311.669 234.107C313.911 236.272 316.046 236.229 316.063 236.224C316.235 236.217 316.374 236.351 316.38 236.519C316.387 236.687 316.256 236.83 316.088 236.837C316.081 236.837 316.063 236.837 316.035 236.837V236.839Z" fill="#80701A"/>
<path d="M317.394 220.054C317.809 220.158 318.118 220.262 318.532 220.365C318.463 220.434 318.463 220.469 318.532 220.469C335.208 225.441 347.531 240.766 347.531 259.098V298.462H360.788V259.098C360.788 233.622 342.87 212.288 318.947 206.902C318.429 206.694 317.91 206.59 317.394 206.489C313.561 205.66 313.25 219.435 317.394 220.054Z" fill="#E6E6E6"/>
<path d="M301.703 205.783V218.966C284.615 221.166 270.819 233.842 267.149 250.409C267.043 250.821 266.942 251.132 266.942 251.443C266.735 252.377 266.631 253.204 266.527 254.137C266.32 255.793 266.216 257.452 266.216 259.108V298.472H253.063V259.108C253.063 231.269 274.459 208.458 301.703 205.785V205.783Z" fill="#E6E6E6"/>
<path d="M317.088 216.165C348.171 221.616 352.173 255.457 352.173 255.457V298.47H347.51V259.107C347.51 240.39 334.675 224.745 317.403 220.082C316.083 219.653 315.261 215.787 315.261 215.787C315.261 215.787 316.079 215.971 317.088 216.165Z" fill="#999999"/>
<path d="M301.703 216.164V218.966C284.615 221.166 270.819 233.842 267.149 250.409C267.891 240.739 275.911 219.608 301.703 216.164Z" fill="#808080"/>
<path d="M317.394 220.054C317.809 220.158 318.118 220.262 318.532 220.365C318.221 219.536 316.537 217.654 316.33 213.721C316.123 209.68 317.493 206.95 318.947 206.902C318.429 206.694 317.91 206.59 317.394 206.489C313.561 205.66 313.25 219.435 317.394 220.054Z" fill="#666666"/>
<path d="M372.161 287.73H241.568V394.482H372.161V287.73Z" fill="#F7D10C"/>
<path d="M308.83 314.1C308.415 313.996 308 313.996 307.586 313.996C298.681 313.996 291.429 321.209 291.429 330.201C291.429 336.786 295.366 342.433 300.957 345.045V372.54C300.957 376.2 303.959 379.232 307.583 379.232C307.894 379.232 308.309 379.232 308.62 379.129H308.929C311.933 378.5 314.214 375.783 314.214 372.542V345.048C319.803 342.539 323.74 336.788 323.74 330.204C323.74 321.631 317.214 314.731 308.827 314.104L308.83 314.1Z" fill="#CC840A"/>
<path d="M308.83 314.1C300.442 314.62 293.812 321.626 293.812 330.199C293.812 336.783 297.749 342.43 303.34 345.043V372.537C303.34 375.779 305.619 378.497 308.623 379.124H308.932C311.936 378.495 314.217 375.779 314.217 372.537V345.043C319.806 342.534 323.743 336.783 323.743 330.199C323.743 321.626 317.216 314.726 308.83 314.1Z" fill="#803D00"/>
<path d="M283.008 394.482H241.568V287.73H253.065C253.065 287.73 250.012 366.497 283.008 394.482Z" fill="#E6C30B"/>
<path d="M344.122 394.482C354.019 373.305 352.174 316.37 352.174 287.73H365.327V394.482H344.122Z" fill="#E6C30B"/>
<path d="M209.425 295.501C209.425 295.501 196.026 295.068 182.822 295.7C169.107 296.37 155.59 298.181 157.521 302.913C157.954 303.977 158.033 305 157.798 306.025C155.04 318.676 105.028 328.133 93.9921 320.369C85.7558 314.575 63.0558 322.023 53.7551 326.044C36.043 207.48 35.5477 86.2737 51.2324 77.8416C66.9171 69.4463 110.386 80.0878 110.386 80.0878C110.386 80.0878 132.416 85.9212 141.401 146.179C150.425 206.397 209.423 295.501 209.423 295.501H209.425Z" fill="#FFE966"/>
<path d="M157.523 302.91C157.957 303.974 158.035 304.997 157.8 306.022C144.244 264.679 112.322 146.569 123.908 178.768C135.022 209.822 169.9 272.72 182.824 295.696C169.11 296.367 155.593 298.178 157.523 302.91Z" fill="#FFE966"/>
<path d="M49.5962 109.191C36.7084 124.954 34.3446 128.779 22.2862 129.606C26.3456 132.168 28.7485 135.635 30.405 139.379H30.4441C33.9921 147.143 34.5036 156.206 40.6917 161.291L33.2825 168.583L31.391 170.474C31.391 170.474 31.1146 170.237 30.6423 169.804C27.41 166.809 14.5636 154.709 6.9171 143.595C2.42456 137.133 -0.293997 131.023 1.59747 127.201C4.67083 116.087 12.5547 93.2694 32.6121 86.4499C45.7741 72.1453 58.6619 79.8286 63.2327 85.7795C69.3403 93.7394 63.1936 110.765 49.5962 109.189V109.191Z" fill="#726100"/>
<path d="M40.6897 161.291L33.2804 168.583L30.6402 169.804C27.606 166.965 16.0199 156.089 8.29504 145.526C7.82275 144.894 7.34817 144.226 6.91504 143.595C10.7371 143.556 23.0329 143.24 30.4029 139.379H30.4421C30.7577 140.049 31.0342 140.717 31.2692 141.388C34.1075 148.64 35.013 156.639 40.6874 161.291H40.6897Z" fill="#231F20"/>
<path d="M31.2715 141.388C23.1135 146.355 13.7736 146.196 8.29504 145.526C7.82275 144.894 7.34817 144.226 6.91504 143.595C10.7371 143.556 23.0329 143.24 30.4029 139.379H30.4421C30.7577 140.049 31.0342 140.717 31.2692 141.388H31.2715Z" fill="#FFE966"/>
<path d="M35.1372 154.562C35.1372 154.562 43.5786 155.346 46.1335 157.569C48.2692 159.426 46.9652 161.744 46.9652 161.744C51.5085 164.299 46.9652 174.208 39.033 176.652C31.1008 179.099 25.9033 164.156 25.9033 164.156C25.9033 164.156 27.1128 155.095 35.1372 154.562Z" fill="#231F20"/>
<path d="M141.638 395.008H113.001C112.411 394.672 111.976 394.292 111.718 393.859C110.243 372.56 108.119 362.305 108.119 362.305L128.064 361.494L132.579 377.338C139.26 381.904 147.227 391.702 141.638 395.008Z" fill="#231F20"/>
<path d="M110.831 395.392H144.78C145.642 395.392 145.352 390.672 144.492 390.672L110.745 390.863C109.858 390.863 109.946 395.395 110.831 395.395V395.392Z" fill="#231F20"/>
<path d="M99.0003 168.171C103.633 180.639 123.352 237.761 117.724 278.885C125.467 306.234 123.037 329.4 130.017 369.339L109.693 370.411C101.431 321.677 92.3398 330.978 89.7088 282.716C72.962 244.875 64.2765 209.027 59.8185 172.119C55.4849 144.296 89.6443 129.685 99.0003 168.171Z" fill="#726100"/>
<path d="M109.903 372.486C109.903 372.486 108.383 357.983 98.8193 330.279C95.8496 321.766 94.2415 316.131 93.4052 312.664C92.5666 309.155 92.4629 307.816 92.4629 307.816C97.5037 301.983 103.902 293.196 109.583 282.633C115.803 292.367 123.203 302.103 123.203 302.103C123.203 302.103 123.392 304.388 123.729 308.132C125.228 323.817 129.26 365.277 131.691 374.064C134.695 384.94 115.796 391.129 109.901 372.488L109.903 372.486Z" fill="#231F20"/>
<path d="M123.731 308.13C120.482 304.503 114.64 297.686 109.751 290.238C107.535 298.278 98.2272 308.012 93.4052 312.664C92.5666 309.155 92.4629 307.816 92.4629 307.816C97.5037 301.983 103.902 293.196 109.583 282.633C115.803 292.367 123.203 302.103 123.203 302.103C123.203 302.103 123.392 304.388 123.729 308.132L123.731 308.13Z" fill="#FFE966"/>
<path d="M74.9625 173.455C73.5272 227.759 63.8463 273.885 63.8463 273.885C67.9449 310.933 58.6258 317.84 54.4143 370.843L36.0433 370.598C35.9972 349.085 34.7485 322.443 33.4422 279.308C21.8768 234.226 27.4476 201.023 31.7604 174.074C36.3612 143.463 77.8999 133.333 74.9625 173.455Z" fill="#726100"/>
<path d="M54.4157 370.844C56.0538 379.619 57.231 386.466 56.5422 394.408L12.0523 395.274C12.0523 395.274 7.64728 390.984 13.1858 384.552C18.722 378.117 29.2368 381.84 36.047 370.6L54.418 370.844H54.4157Z" fill="#231F20"/>
<path d="M10.0297 395.391H57.2981C58.1597 395.391 57.934 390.67 57.0723 390.67L10.0044 390.861C9.11741 390.861 9.14505 395.393 10.0297 395.393V395.391Z" fill="#231F20"/>
<path d="M63.2521 310.927C63.2521 310.927 62.9342 312.502 62.3927 315.184C60.1557 326.888 54.1518 359.559 54.8545 374.26C46.503 384.231 35.6472 373.156 35.6472 373.156L31.2722 292.406L30.9727 286.969C42.7523 300.052 54.9881 307.028 63.2521 310.929V310.927Z" fill="#231F20"/>
<path d="M63.2521 310.927C63.2521 310.927 62.9342 312.502 62.3927 315.184C46.1666 310.454 36.1748 299.34 31.2722 292.406L30.9727 286.969C42.7523 300.052 54.9881 307.028 63.2521 310.929V310.927Z" fill="#FFE966"/>
<path d="M33.131 170.888C33.131 180.279 99.8186 177.56 99.8186 168.17C99.5952 152.676 101.733 139.927 104.648 129.386C124.64 109.799 123.449 94.5934 118.383 86.3456C109.647 72.1215 65.5118 72.9279 49.6221 79.0423C43.3118 81.4706 34.8382 91.3611 32.1288 107.129C30.735 115.236 36.7043 124.675 37.6489 131.229C39.8307 146.396 33.5757 168.711 33.1333 170.888H33.131Z" fill="#726100"/>
<path d="M74.7041 85.4954C77.9941 82.8828 91.1192 78.8488 94.6118 75.992L93.8239 53.2068L80.9177 51.9512C77.1739 52.2622 73.4324 53.1584 70.2139 54.4301L67.3087 69.4329L66.6683 72.6859C65.2076 75.8883 68.1036 79.7496 74.7041 85.4977V85.4954Z" fill="#F7A594"/>
<path d="M89.479 58.3637C87.4539 61.4786 78.978 69.4568 67.3066 69.4292L69.8202 56.4492L89.479 58.3637Z" fill="#E6836F"/>
<path d="M60.9157 28.35C59.9043 32.838 57.8193 42.6939 58.1603 47.2325C58.6787 54.1418 65.1341 61.8067 70.7624 62.8112C77.2778 63.4747 86.0601 61.5349 90.8291 57.4386C93.4832 54.3284 98.6208 46.9491 100.985 40.4914C105.915 27.0207 96.3952 15.2065 84.3207 12.4787C72.2438 9.75095 64.0743 14.3564 60.918 28.3523L60.9157 28.35Z" fill="#F7A594"/>
<path d="M96.9367 49.3898C99.4548 44.9572 96.1073 43.1625 92.4396 46.6021C93.0662 43.2569 96.8791 33.4586 93.5016 30.2078C89.6864 26.4364 72.8982 28.0791 63.8809 18.6747C63.8809 18.6747 70.6035 3.93688 92.6653 12.6409C117.584 25.8535 96.9344 49.3898 96.9344 49.3898H96.9367Z" fill="#73382A"/>
<path d="M100.333 50.5396C102.253 48.2289 102.353 45.1462 100.557 43.6542C98.7614 42.1621 95.7492 42.8257 93.8295 45.1364C91.9098 47.4471 91.8094 50.5299 93.6053 52.0219C95.4012 53.5139 98.4133 52.8503 100.333 50.5396Z" fill="#F7A594"/>
<path d="M67.4035 68.1164C69.6083 72.0561 92.2967 70.0079 94.3449 66.6973L95.6051 79.3017L74.4925 91.2772L63.4639 79.145L67.4035 68.1164Z" fill="#726100"/>
<path d="M104.689 26.2866C104.066 15.2534 82.712 -0.316096 67.3959 5.4643C57.0631 9.36244 59.4867 20.3311 68.4833 22.4023C76.4155 24.2293 98.3851 14.7189 104.689 26.2866Z" fill="#231F20"/>
<path d="M65.4883 5.49932C65.4883 5.49932 65.9421 2.35224 67.6401 0C55.6554 7.85157 61.6201 17.2398 61.7606 17.6407C66.5135 3.20698 77.8554 3.87049 81.8826 3.92118C71.5198 -0.956103 65.5919 5.0662 65.4883 5.49932Z" fill="#231F20"/>
<path d="M32.2994 174.075C49.6959 181.578 89.8868 179.926 101.899 174.178L104.97 184.352C78.8375 190.513 53.836 190.685 30.1016 184.159L32.2994 174.072V174.075Z" fill="#FFE966"/>
<path d="M148.711 150.217C137.203 162.552 112.927 176.621 112.927 176.621L105.479 165.902C113.204 161.644 117.459 150.611 124.829 143.043C127.352 140.442 130.229 138.274 133.697 136.854C121.951 133.82 116.04 130.904 106.267 113.051C92.591 112.104 89.6351 94.2145 97.0835 87.5518C102.68 82.5478 116.788 77.3065 127.114 93.7791C145.559 104.144 153.441 126.764 154.424 138.274C155.33 141.545 152.849 145.761 148.711 150.215V150.217Z" fill="#726100"/>
<path d="M112.157 160.288C112.157 160.288 103.716 159.516 100.797 161.233C98.3592 162.668 99.2162 165.186 99.2162 165.186C94.2836 166.868 96.9377 177.438 104.289 181.293C111.641 185.147 119.481 171.407 119.481 171.407C119.481 171.407 119.949 162.276 112.157 160.286V160.288Z" fill="#231F20"/>
<path d="M148.711 150.215C148.001 150.964 147.252 151.752 146.464 152.501C134.325 164.246 112.927 176.62 112.927 176.62L105.479 165.9C112.139 162.234 116.198 153.565 121.912 146.391C122.817 145.209 123.803 144.105 124.829 143.041C127.706 144.734 136.297 149.266 148.711 150.213V150.215Z" fill="#231F20"/>
<path d="M148.711 150.215C148.001 150.964 147.252 151.752 146.464 152.501C136.06 151.989 126.287 148.245 121.912 146.391C122.818 145.209 123.804 144.105 124.829 143.041C127.706 144.734 136.297 149.266 148.711 150.213V150.215Z" fill="#66B8FF"/>
<path d="M81.1289 104.261C81.1335 104.222 81.1358 104.206 81.1358 104.201C81.1358 104.208 81.1289 104.261 81.1289 104.261Z" fill="#D9FFFF"/>
<path d="M81.1289 104.261C81.1335 104.222 81.1358 104.206 81.1358 104.201C81.1358 104.208 81.1289 104.261 81.1289 104.261Z" fill="#D9FFFF"/>
<path d="M60.2969 101.271C60.2969 101.271 60.3038 101.218 60.3038 101.211C60.3038 101.216 60.3015 101.232 60.2969 101.271Z" fill="#D9FFFF"/>
<path d="M60.2969 101.271C60.2969 101.271 60.3038 101.218 60.3038 101.211C60.3038 101.216 60.3015 101.232 60.2969 101.271Z" fill="#D9FFFF"/>
<path d="M71.4411 96.4297C73.5146 99.692 77.0971 102.643 81.115 104.272C81.0781 104.581 80.8777 106.293 79.9493 114.183C78.7121 124.71 69.1165 128.518 67.6282 129.101C66.3634 128.207 57.9036 121.726 59.1408 111.197C60.0692 103.307 60.2697 101.595 60.3065 101.286C64.5687 100.846 68.6811 98.9985 71.4388 96.4297H71.4411Z" fill="white"/>
<path d="M70.3471 102.022C70.3471 102.022 70.3355 102.031 70.3286 102.036C68.3266 103.618 65.6841 104.715 62.8664 105.121L62.0762 111.852C61.7145 114.933 62.4955 117.872 64.3962 120.591C65.5919 122.3 66.9166 123.464 67.6515 124.042C67.6838 124.068 67.7184 124.095 67.7483 124.118C68.5639 123.789 70.1858 123.028 71.8054 121.653C74.2729 119.561 75.7059 116.939 76.0676 113.859L76.8578 107.127C74.2222 105.934 71.9137 104.123 70.3425 102.02L70.3471 102.022Z" fill="#F7AF0C"/>
<path d="M64.6413 75.7793C65.7725 78.6868 69.5462 81.251 73.8038 83.7461C82.4502 82.3315 89.083 79.6544 95.573 75.8576C101.957 75.8277 106.549 78.2836 111.274 80.0967L73.578 86.2319L51.4355 77.8735C54.3799 76.8022 58.596 76.0765 64.639 75.7793H64.6413Z" fill="#FFE966"/>
<path d="M194.151 154.006C194.151 153.82 194.148 153.739 194.148 153.721C194.148 153.755 194.151 154.006 194.151 154.006Z" fill="#D9FFFF"/>
<path d="M194.151 154.006C194.151 153.82 194.148 153.739 194.148 153.721C194.148 153.755 194.151 154.006 194.151 154.006Z" fill="#D9FFFF"/>
<path d="M82.9388 155.231C82.9388 155.231 82.9365 154.98 82.9365 154.945C82.9365 154.964 82.9365 155.047 82.9388 155.231Z" fill="#D9FFFF"/>
<path d="M82.9388 155.231C82.9388 155.231 82.9365 154.98 82.9365 154.945C82.9365 154.964 82.9365 155.047 82.9388 155.231Z" fill="#D9FFFF"/>
<path d="M138.117 124.463C151.168 138.197 171.923 149.386 194.087 154.068C194.103 155.54 194.193 163.689 194.612 201.258C195.169 251.374 147.415 276.18 140.001 279.986C132.772 276.73 84.0887 252.595 83.5311 202.479C83.1141 164.91 83.022 156.759 83.0059 155.289C105.058 150.121 125.374 138.48 138.119 124.461L138.117 124.463Z" fill="white"/>
<path d="M138.308 133.52C151.077 145.025 168.719 154.019 188.088 158.857L188.56 201.32C188.777 220.748 181.137 238.378 165.858 253.717C155.818 263.796 145.234 270.074 139.859 272.903C139.626 272.788 139.371 272.657 139.119 272.53L138.2 133.623C138.237 133.589 138.274 133.556 138.311 133.524L138.308 133.52Z" fill="#7F7600"/>
<path d="M138.199 133.621L139.118 272.528C133.492 269.662 123.26 263.727 113.439 254.293C97.821 239.295 89.7943 221.838 89.5778 202.41L89.1055 159.947C108.306 154.699 125.698 145.357 138.199 133.621Z" fill="#998A00"/>
<path d="M116.138 194.971L116.357 227.868C116.382 231.531 161.312 231.236 161.287 227.573L161.068 194.676L116.138 194.971ZM133.136 207.278C133.115 204.225 135.573 201.746 138.64 201.728C141.706 201.707 144.217 204.154 144.236 207.206C144.249 209.437 142.911 211.383 140.992 212.259L141.054 221.603C141.063 222.845 140.054 223.884 138.785 223.891C137.536 223.9 136.515 222.875 136.506 221.633L136.444 212.31C134.493 211.459 133.147 209.531 133.133 207.28L133.136 207.278Z" fill="white"/>
<path d="M120.054 192.6L124.602 192.57L124.588 190.356C124.538 182.682 130.77 176.395 138.478 176.344C146.189 176.293 152.504 182.495 152.555 190.172L152.569 192.386L157.117 192.356L157.103 190.142C157.036 179.97 148.668 171.75 138.448 171.817C128.231 171.884 119.974 180.214 120.04 190.386L120.054 192.6Z" fill="white"/>
</svg>
