<svg width="764" height="451" viewBox="0 0 764 451" fill="none" xmlns="http://www.w3.org/2000/svg">
<path d="M200.389 221.248C200.389 213.369 194.02 207 186.14 207H39.5625V235.478H186.14C194.02 235.478 200.389 229.109 200.389 221.229V221.248Z" fill="#FEC442"/>
<path d="M186.982 221.248C186.982 213.369 180.594 207 172.734 207H52.9697V235.478H172.734C180.575 235.478 186.982 229.109 186.982 221.229V221.248Z" fill="#91562F"/>
<path d="M173.232 221.248C173.232 213.369 166.844 207 158.983 207H39.583V235.478H158.983C166.825 235.478 173.232 229.109 173.232 221.229V221.248Z" fill="#FEC442"/>
<path d="M129.797 221.248C129.797 213.369 123.409 207 115.548 207H39.5625V235.478H115.548C123.39 235.478 129.797 229.109 129.797 221.229V221.248Z" fill="#91562F"/>
<path d="M116.581 221.248C116.581 213.369 110.193 207 102.332 207H39.5625V235.478H102.332C110.174 235.478 116.581 229.109 116.581 221.229V221.248Z" fill="#FEC442"/>
<path d="M86.7455 232.59H39.582V209.582H86.7455C93.0951 209.582 98.2399 214.727 98.2399 221.096C98.2399 227.464 93.0951 232.609 86.7455 232.609V232.59Z" fill="#F0F1F1"/>
<g style="mix-blend-mode:multiply" opacity="0.1">
<path d="M86.3439 228.23H39.582V229.186H86.3439V228.23Z" fill="black"/>
</g>
<g style="mix-blend-mode:multiply" opacity="0.1">
<path d="M86.3439 223.219H39.582V224.175H86.3439V223.219Z" fill="black"/>
</g>
<g style="mix-blend-mode:multiply" opacity="0.1">
<path d="M86.3439 218.188H39.582V219.145H86.3439V218.188Z" fill="black"/>
</g>
<g style="mix-blend-mode:multiply" opacity="0.1">
<path d="M86.3439 213.178H39.582V214.134H86.3439V213.178Z" fill="black"/>
</g>
<path d="M202.416 278.224C202.416 270.344 196.047 263.975 188.168 263.975H41.5898V292.453H188.168C196.047 292.453 202.416 286.084 202.416 278.204V278.224Z" fill="#DB2955"/>
<g style="mix-blend-mode:overlay" opacity="0.3">
<path d="M189.028 278.224C189.028 270.344 182.64 263.975 174.779 263.975H55.0156V292.453H174.779C182.621 292.453 189.028 286.084 189.028 278.204V278.224Z" fill="black"/>
</g>
<path d="M175.258 278.224C175.258 270.344 168.87 263.975 161.009 263.975H41.6089V292.453H161.009C168.851 292.453 175.258 286.084 175.258 278.204V278.224Z" fill="#DB2955"/>
<g style="mix-blend-mode:overlay" opacity="0.3">
<path d="M131.824 278.224C131.824 270.344 125.436 263.975 117.575 263.975H41.5898V292.453H117.575C125.417 292.453 131.824 286.084 131.824 278.204V278.224Z" fill="black"/>
</g>
<path d="M118.627 278.224C118.627 270.344 112.239 263.975 104.379 263.975H41.6089V292.453H104.379C112.22 292.453 118.627 286.084 118.627 278.204V278.224Z" fill="#DB2955"/>
<path d="M88.7919 289.566H41.6284V266.558H88.7919C95.1415 266.558 100.286 271.702 100.286 278.052C100.286 284.402 95.1415 289.566 88.7919 289.566Z" fill="#F0F1F1"/>
<g style="mix-blend-mode:multiply" opacity="0.1">
<path d="M88.3902 285.205H41.6284V286.161H88.3902V285.205Z" fill="black"/>
</g>
<g style="mix-blend-mode:multiply" opacity="0.1">
<path d="M88.3902 280.175H41.6284V281.131H88.3902V280.175Z" fill="black"/>
</g>
<g style="mix-blend-mode:multiply" opacity="0.1">
<path d="M88.3902 275.164H41.6284V276.12H88.3902V275.164Z" fill="black"/>
</g>
<g style="mix-blend-mode:multiply" opacity="0.1">
<path d="M88.3902 270.153H41.6284V271.109H88.3902V270.153Z" fill="black"/>
</g>
<path d="M216.627 249.746C216.627 241.866 210.258 235.497 202.378 235.497H55.8003V263.975H202.378C210.258 263.975 216.627 257.606 216.627 249.726V249.746Z" fill="#41AE9B"/>
<g style="mix-blend-mode:overlay" opacity="0.3">
<path d="M203.219 249.746C203.219 241.866 196.831 235.497 188.971 235.497H69.207V263.975H188.971C196.812 263.975 203.219 257.606 203.219 249.726V249.746Z" fill="black"/>
</g>
<path d="M189.449 249.746C189.449 241.866 183.061 235.497 175.201 235.497H55.8003V263.975H175.201C183.042 263.975 189.449 257.606 189.449 249.726V249.746Z" fill="#41AE9B"/>
<g style="mix-blend-mode:overlay" opacity="0.3">
<path d="M146.034 249.746C146.034 241.866 139.646 235.497 131.786 235.497H55.8003V263.975H131.786C139.627 263.975 146.034 257.606 146.034 249.726V249.746Z" fill="black"/>
</g>
<path d="M132.819 249.746C132.819 241.866 126.431 235.497 118.57 235.497H55.8003V263.975H118.57C126.412 263.975 132.819 257.606 132.819 249.726V249.746Z" fill="#41AE9B"/>
<path d="M102.982 261.087H55.8188V238.079H102.982C109.332 238.079 114.496 243.223 114.496 249.592C114.496 255.961 109.351 261.087 102.982 261.087Z" fill="#F0F1F1"/>
<g style="mix-blend-mode:multiply" opacity="0.1">
<path d="M102.581 256.708H55.8188V257.664H102.581V256.708Z" fill="black"/>
<path d="M102.581 251.696H55.8188V252.653H102.581V251.696Z" fill="black"/>
<path d="M102.581 246.686H55.8188V247.642H102.581V246.686Z" fill="black"/>
<path d="M102.581 241.656H55.8188V242.612H102.581V241.656Z" fill="black"/>
</g>
<path d="M202.014 356.581H212.706V309.341H202.014V356.581Z" fill="#59595B"/>
<path d="M31.3186 356.581H42.0098L42.0098 309.341H31.3186L31.3186 356.581Z" fill="#293959"/>
<path d="M9.00037 314.619H235.025V290.617H9.00037V314.619Z" fill="#293959"/>
<path d="M201.899 356.581H212.59V309.341H201.899V356.581Z" fill="#293959"/>
<g clip-path="url(#clip0_199_834)">
<path d="M501.344 202.902C501.836 200.18 502.394 197.515 502.988 194.886C508.003 172.884 521.266 160.215 521.266 160.215C521.266 160.215 515.954 156.723 507.669 152.311C499.403 147.899 488.146 142.568 476.295 138.862L478.672 172.958L467.843 183.611L474.214 215.329L439.069 261.211L403.915 215.329L409.125 185.199L398.259 175.187L399.122 139.447C372.364 146.293 355.646 160.215 355.646 160.215C355.646 160.215 365.175 172.781 371.435 194.886C372.178 197.422 372.856 200.115 373.479 202.902C374.342 206.831 375.058 210.982 375.615 215.347C375.615 215.413 375.643 215.468 375.643 215.561C375.763 216.676 375.893 217.79 376.014 218.933C376.265 221.004 376.414 223.112 376.544 225.276C376.664 227.319 376.757 229.363 376.794 231.471C376.794 231.806 376.321 237.406 375.559 245.997C375.736 245.347 375.912 244.697 376.088 244.056C375.912 244.697 375.745 245.347 375.559 245.997C372.763 277.632 366.197 349.919 366.197 349.919C378.67 362.03 417.902 368.448 435.196 369.99L439.654 350.829L443.499 370.435C443.499 370.435 474.419 367.677 496.217 361.528C504.223 359.272 510.994 356.55 514.551 353.337C514.672 353.244 514.783 353.123 514.904 353.012C514.904 353.012 514.821 352.361 514.663 351.154C513.167 339.331 504.864 274.362 501.195 245.394C499.14 237.864 499.14 237.864 501.195 245.394C500.155 237.137 499.486 231.796 499.459 231.471C499.301 229.428 499.245 227.357 499.245 225.276C499.245 223.196 499.273 221.032 499.431 218.933C499.737 213.546 500.387 208.131 501.353 202.902H501.344Z" fill="#283044"/>
<g style="mix-blend-mode:overlay" opacity="0.5">
<path d="M439.07 261.21C438.466 268.854 438.159 276.489 437.946 284.133C437.713 291.777 437.648 299.411 437.621 307.055C437.648 314.699 437.704 322.334 437.936 329.977C438.15 337.621 438.466 345.256 439.07 352.9C439.673 345.256 439.989 337.621 440.203 329.977C440.435 322.334 440.5 314.699 440.518 307.055C440.491 299.411 440.426 291.777 440.193 284.133C439.98 276.489 439.664 268.854 439.07 261.21Z" fill="white"/>
</g>
<g style="mix-blend-mode:overlay" opacity="0.5">
<path d="M496.422 309.312H456.902V317.932H496.422V309.312Z" fill="white"/>
</g>
<g style="mix-blend-mode:overlay" opacity="0.5">
<path d="M421.237 309.312H381.708V317.932H421.237V309.312Z" fill="white"/>
</g>
<path d="M445.079 178.084L445.395 178.8L440.463 184.456L449.444 214.326L461.379 160.354L447.54 183.109L445.079 178.084Z" fill="#1B6FA1"/>
<path d="M429.679 178.836L427.58 183.109L413.695 160.279L427.069 213.471L434.89 184.149L429.679 178.836Z" fill="#1B6FA1"/>
<path d="M439.069 258.619L436.014 249.043L439.069 261.21L441.651 249.554L439.069 258.619Z" fill="#D35B30"/>
<path d="M440.463 184.456L445.395 178.8L445.079 178.085L440.203 168.156L437.566 162.769L435.234 167.515L429.68 178.837L434.891 184.15L427.07 213.471L436.014 249.044L439.07 258.619L441.652 249.554L449.445 214.326L440.463 184.456Z" fill="#DB2955"/>
<path d="M437.286 162.054L437.565 161.831L408.169 138.305L408.949 141.398L413.667 160.159L413.695 160.28L427.58 183.109L435.234 167.515L437.565 162.769L437.231 162.1L437.286 162.054Z" fill="white"/>
<path d="M413.667 160.159L413.611 160.14L413.695 160.279L413.667 160.159Z" fill="#5374A5"/>
<path d="M437.89 162.1L437.565 162.769L437.89 162.1Z" fill="white"/>
<path d="M437.565 161.83L437.286 162.053L437.23 162.1L437.565 162.769L440.203 168.155L445.079 178.084L447.54 183.109L461.379 160.354L461.416 160.214L465.642 141.109L466.106 138.973L437.565 161.83Z" fill="white"/>
<path d="M461.379 160.354L461.481 160.187L461.416 160.215L461.379 160.354Z" fill="#5374A5"/>
<path d="M478.663 172.958L476.295 138.862L476.1 136.011L468.224 129.435L467.955 130.67L466.896 135.444L466.116 138.992L465.642 141.119L461.416 160.224L461.49 160.196L461.388 160.363L449.453 214.335L441.661 249.564L439.079 261.22L436.023 249.053L427.079 213.481L413.704 160.289L413.621 160.15L413.677 160.168L408.958 141.407L408.178 138.314L407.816 136.875L406.674 132.333L406.627 132.147L399.141 139.141V139.466L398.268 175.205L409.144 185.218L403.943 215.347L439.088 261.229L474.233 215.347L467.862 183.62L478.682 172.967L478.663 172.958Z" fill="#283044"/>
<g style="mix-blend-mode:overlay" opacity="0.5">
<path d="M478.663 172.958L476.295 138.862L476.1 136.011L468.224 129.435L467.955 130.67L466.896 135.444L466.116 138.992L465.642 141.119L461.416 160.224L461.49 160.196L461.388 160.363L449.453 214.335L441.661 249.564L439.079 261.22L436.023 249.053L427.079 213.481L413.704 160.289L413.621 160.15L413.677 160.168L408.958 141.407L408.178 138.314L407.816 136.875L406.674 132.333L406.627 132.147L399.141 139.141V139.466L398.268 175.205L409.144 185.218L403.943 215.347L439.088 261.229L474.233 215.347L467.862 183.62L478.682 172.967L478.663 172.958Z" fill="white"/>
</g>
<path d="M474.753 201.861C474.484 202.678 474.057 203.57 473.537 204.452C472.311 206.542 470.546 208.632 469.078 209.886L467.592 205.901L463.125 206.301C464.555 205.121 466.181 203.347 467.351 201.508C468.066 200.384 468.614 199.242 468.837 198.211L474.753 201.861Z" fill="#FEC442"/>
<path d="M487.403 206.301L482.936 205.901L481.45 209.886C479.908 208.567 478.041 206.328 476.806 204.137C476.369 203.356 476.016 202.585 475.775 201.861L481.691 198.211C481.951 199.372 482.601 200.663 483.456 201.907C484.598 203.598 486.084 205.205 487.413 206.291L487.403 206.301Z" fill="#FEC442"/>
<g style="mix-blend-mode:multiply" opacity="0.3">
<path d="M468.846 198.21L474.763 201.861C474.493 202.678 474.066 203.57 473.546 204.452C472.952 204.628 472.311 204.433 471.921 203.941L471.159 202.994C470.871 202.631 470.435 202.427 469.97 202.418H468.754C468.141 202.418 467.602 202.046 467.36 201.498C468.076 200.375 468.624 199.232 468.846 198.201V198.21Z" fill="#BABCBE"/>
<path d="M483.447 201.917C483.168 202.233 482.759 202.418 482.314 202.428H481.097C480.632 202.428 480.196 202.641 479.908 203.003L479.146 203.951C478.701 204.508 477.93 204.675 477.289 204.369L476.797 204.137C476.36 203.356 476.007 202.585 475.766 201.861L481.682 198.211C481.942 199.372 482.592 200.663 483.447 201.907V201.917Z" fill="#BABCBE"/>
</g>
<path d="M487.608 192.007L486.855 192.963C486.567 193.326 486.465 193.799 486.558 194.245L486.827 195.434C486.985 196.13 486.642 196.836 486.001 197.152L484.905 197.682C484.487 197.886 484.19 198.267 484.078 198.712L483.8 199.901C483.642 200.598 483.019 201.081 482.313 201.09H481.097C480.632 201.09 480.196 201.313 479.908 201.666L479.146 202.613C478.701 203.171 477.93 203.347 477.289 203.041L476.193 202.521C475.775 202.316 475.292 202.316 474.874 202.521L473.778 203.041C473.137 203.347 472.366 203.171 471.92 202.613L471.159 201.666C470.871 201.304 470.434 201.099 469.97 201.09H468.753C468.038 201.081 467.425 200.589 467.267 199.901L466.989 198.712C466.886 198.257 466.58 197.886 466.162 197.682L465.066 197.152C464.425 196.846 464.082 196.13 464.239 195.434L464.509 194.245C464.611 193.79 464.509 193.326 464.212 192.963L463.459 192.007C463.023 191.449 463.023 190.66 463.459 190.103L464.212 189.146C464.499 188.784 464.602 188.31 464.509 187.864L464.239 186.675C464.082 185.979 464.425 185.273 465.066 184.957L466.162 184.428C466.58 184.224 466.877 183.843 466.989 183.397L467.267 182.208C467.425 181.511 468.047 181.028 468.753 181.019H469.97C470.434 181.019 470.871 180.796 471.159 180.443L471.92 179.496C472.366 178.939 473.137 178.762 473.778 179.069L474.874 179.589C475.292 179.793 475.775 179.793 476.193 179.589L477.289 179.069C477.93 178.762 478.701 178.939 479.146 179.496L479.908 180.443C480.196 180.806 480.632 181.01 481.097 181.019H482.313C483.029 181.028 483.642 181.521 483.8 182.208L484.078 183.397C484.18 183.852 484.487 184.224 484.905 184.428L486.001 184.957C486.642 185.264 486.985 185.979 486.827 186.675L486.558 187.864C486.456 188.319 486.558 188.784 486.855 189.146L487.608 190.103C488.044 190.66 488.044 191.449 487.608 192.007Z" fill="#FF902C"/>
<g style="mix-blend-mode:overlay" opacity="0.4">
<path d="M475.533 200.756C470.184 200.756 465.837 196.409 465.837 191.059C465.837 185.709 470.184 181.363 475.533 181.363C480.883 181.363 485.23 185.709 485.23 191.059C485.23 196.409 480.883 200.756 475.533 200.756ZM475.533 181.809C470.434 181.809 466.283 185.96 466.283 191.059C466.283 196.158 470.434 200.31 475.533 200.31C480.632 200.31 484.784 196.158 484.784 191.059C484.784 185.96 480.632 181.809 475.533 181.809Z" fill="white"/>
</g>
<path d="M480.936 196.465C483.921 193.479 483.921 188.64 480.936 185.655C477.951 182.669 473.111 182.669 470.126 185.655C467.141 188.64 467.141 193.479 470.126 196.465C473.111 199.45 477.951 199.45 480.936 196.465Z" fill="#FEC442"/>
<path d="M480.985 189.917C480.985 189.917 481.031 189.87 481.041 189.852C480.818 189.815 480.604 189.768 480.381 189.731C479.545 189.601 478.71 189.48 477.874 189.35C477.688 189.322 477.511 189.304 477.326 189.267C477.279 189.267 477.223 189.22 477.196 189.174C476.722 188.199 476.248 187.233 475.775 186.257C475.7 186.109 475.626 185.96 475.533 185.774C475.375 186.09 475.236 186.369 475.097 186.647C474.688 187.474 474.27 188.301 473.861 189.127C473.824 189.202 473.778 189.239 473.694 189.248C472.505 189.415 471.307 189.582 470.118 189.75C470.081 189.75 470.044 189.759 469.998 189.768C470.025 189.805 470.035 189.833 470.063 189.861C470.768 190.558 471.474 191.254 472.18 191.951C472.338 192.109 472.505 192.267 472.663 192.424C472.719 192.48 472.719 192.527 472.71 192.601C472.496 193.808 472.282 195.025 472.059 196.232C472.059 196.251 472.059 196.27 472.059 196.298C472.282 196.177 472.496 196.075 472.71 195.963C473.406 195.601 474.103 195.239 474.799 194.886C474.994 194.784 475.189 194.691 475.384 194.579C475.459 194.533 475.524 194.533 475.598 194.579C476.666 195.146 477.725 195.712 478.793 196.279C478.812 196.288 478.84 196.298 478.867 196.316C478.877 196.316 478.886 196.325 478.905 196.335C478.877 196.186 478.858 196.047 478.84 195.907C478.654 194.811 478.477 193.715 478.292 192.61C478.292 192.564 478.31 192.499 478.338 192.462C479.211 191.607 480.093 190.762 480.976 189.917H480.985Z" fill="white"/>
<path d="M463.552 112.531C463.181 113.107 462.809 113.673 462.419 114.23C456.661 122.497 449.101 128.051 440.602 129.5C439.822 129.63 439.042 129.741 438.252 129.806C437.816 129.871 437.389 129.899 436.952 129.899C436.404 129.918 435.847 129.918 435.299 129.899C425.714 129.592 416.881 124.076 410.092 115.168L407.203 129.37L406.665 132.323L407.807 136.865L408.169 138.304L437.556 161.84L466.107 138.982L466.887 135.435L467.946 130.661L463.552 112.531Z" fill="#E5B7AC"/>
<g style="mix-blend-mode:multiply" opacity="0.6">
<path d="M441.029 129.5C440.249 129.63 439.469 129.742 438.679 129.807C438.243 129.872 437.815 129.899 437.379 129.899C436.831 129.918 436.274 129.918 435.726 129.899C426.14 129.593 417.308 124.076 410.518 115.169L407.63 129.37C411.717 130.828 415.506 131.887 419.045 132.612C431.583 135.194 440.787 133.55 447.484 130.252C456.484 125.822 460.942 118.41 462.846 114.24C457.088 122.506 449.527 128.061 441.029 129.509V129.5Z" fill="#E5B7AC"/>
</g>
<path d="M488.713 67.4478C486.233 66.6026 483.976 66.7791 481.952 67.5685C481.859 67.745 481.803 67.8472 481.803 67.8472C481.803 67.8472 475.952 71.683 473.815 75.3703C473.723 75.5375 473.62 75.7047 473.537 75.8718C473.537 75.8718 473.63 78.5746 473.295 82.5869C473.249 83.107 473.202 83.6457 473.147 84.203C472.989 85.6705 472.775 87.268 472.487 88.9398C472.357 89.6457 472.237 90.3608 472.088 91.0574C471.93 91.8376 471.744 92.6271 471.549 93.4258C471.493 93.6301 471.438 93.8345 471.391 94.0481C471.336 94.271 471.28 94.5032 471.215 94.7261C488.49 99.9923 500.007 71.2929 488.722 67.4571L488.713 67.4478Z" fill="#E5B7AC"/>
<g style="mix-blend-mode:multiply">
<path d="M473.341 84.287C473.564 84.287 473.778 84.1663 473.898 83.9526C473.926 83.9062 475.561 81.1663 478.561 79.0951C481.375 80.8226 480.103 85.5409 480.084 85.5873C479.982 85.9402 480.186 86.3117 480.539 86.4139C480.604 86.4325 480.678 86.4418 480.743 86.4418C481.031 86.4418 481.282 86.2467 481.366 85.9588C481.431 85.7266 482.778 80.7669 479.796 78.3335C481.319 77.4976 483.103 76.8846 485.146 76.8196C485.211 76.8196 485.285 76.8196 485.35 76.8196C485.685 76.866 486.019 76.5131 486.01 76.1416C486.01 75.7701 485.703 75.4729 485.332 75.4821C478.849 75.5843 474.744 80.4047 473.304 82.4109C473.248 83.0146 473.174 83.6183 473.1 84.222C473.174 84.2498 473.258 84.287 473.332 84.2777L473.341 84.287Z" fill="#E5B7AC"/>
</g>
<path d="M399.661 93.4539C398.751 89.8595 398.212 86.3859 397.905 83.5066C397.85 82.9401 397.794 82.4014 397.748 81.8813C397.46 78.5005 397.478 76.2714 397.478 76.2714C397.339 75.7049 397.088 75.1383 396.754 74.581C394.924 71.4975 390.679 68.7111 388.989 67.6895C386.723 66.77 384.187 66.5564 381.457 67.6616C377.742 69.1941 376.766 73.355 377.76 77.9897C379.692 86.9153 388.915 97.5591 399.837 94.1133C399.782 93.8904 399.726 93.6768 399.67 93.4539H399.661Z" fill="#E5B7AC"/>
<g style="mix-blend-mode:multiply">
<path d="M385.628 75.7792C385.256 75.7978 384.968 76.1136 384.987 76.4851C385.005 76.8566 385.358 77.191 385.683 77.126C385.748 77.126 385.823 77.126 385.888 77.126C387.931 77.061 389.751 77.5718 391.312 78.3148C388.47 80.9154 390.114 85.7915 390.188 86.0144C390.29 86.2931 390.559 86.4695 390.838 86.4602C390.903 86.4602 390.977 86.4417 391.042 86.4231C391.395 86.3023 391.572 85.9215 391.451 85.5686C391.432 85.5222 389.872 80.8875 392.584 78.9928C395.696 80.8783 397.497 83.5253 397.525 83.5624C397.637 83.7296 397.813 83.8132 397.999 83.8411C397.887 83.098 397.776 82.3457 397.692 81.5934C395.9 79.5037 391.674 75.5285 385.618 75.7885L385.628 75.7792Z" fill="#E5B7AC"/>
</g>
<path d="M462.419 114.231C462.809 113.673 463.181 113.107 463.552 112.531L463.385 111.844C463.199 112.382 462.883 113.218 462.419 114.231Z" fill="#E5B7AC"/>
<path d="M471.688 58.4571C468.911 56.033 462.93 49.8566 462.224 41.0796C462.224 41.0796 435.066 54.9092 420.754 53.2281C424.069 46.6709 426.298 41.8691 426.298 41.8691C426.298 41.8691 408.726 53.5624 400.032 54.0268C399.169 57.0082 398.147 62.2744 399.262 68.135C399.382 68.7387 399.512 69.3517 399.67 69.9833C402.15 79.3361 401.035 95.9706 400.924 97.5495C403.209 104.255 406.339 110.227 410.1 115.159C416.89 124.066 425.723 129.583 435.308 129.89C436.691 129.732 438.122 129.565 439.664 129.379C439.989 129.416 440.295 129.453 440.611 129.49C449.109 128.041 456.67 122.487 462.428 114.221C462.892 113.209 463.561 112.521 463.561 112.521C466.756 107.525 469.32 101.645 471.084 95.1533C470.917 95.757 470.731 96.3514 470.546 96.9551C470.546 96.9551 468.827 79.0946 471.224 69.231C471.289 68.9338 471.363 68.6458 471.409 68.3672C472.18 64.745 472.087 61.2992 471.697 58.4385L471.688 58.4571Z" fill="#E5B7AC"/>
<path d="M438.252 129.807C439.042 129.742 439.831 129.63 440.602 129.5C440.286 129.463 439.98 129.426 439.655 129.389C438.113 129.574 436.683 129.742 435.299 129.9C435.847 129.918 436.395 129.918 436.952 129.9C437.389 129.9 437.816 129.872 438.252 129.807Z" fill="#E5B7AC"/>
<path d="M471.54 93.417C471.493 93.6213 471.428 93.8257 471.382 94.0393C471.438 93.8349 471.493 93.6306 471.54 93.417Z" fill="#E5B7AC"/>
<path d="M471.076 95.1631C471.113 95.0145 471.159 94.8659 471.196 94.7173C471.159 94.8659 471.122 95.0145 471.076 95.1631Z" fill="#383838"/>
<path d="M399.829 94.104C400.144 95.2928 400.507 96.491 400.915 97.6891C400.915 97.6891 400.915 97.6334 400.925 97.5591C400.544 96.426 400.172 95.2743 399.838 94.104C399.838 94.104 399.838 94.104 399.829 94.104Z" fill="#383838"/>
<path d="M472.078 91.0576C471.911 91.8564 471.725 92.6458 471.54 93.426C471.735 92.6273 471.92 91.8378 472.078 91.0576Z" fill="#383838"/>
<path d="M471.196 94.7171C471.261 94.4942 471.317 94.262 471.372 94.0391C471.317 94.2713 471.252 94.4942 471.196 94.7171Z" fill="#383838"/>
<path d="M399.662 93.4541C399.717 93.677 399.773 93.8906 399.829 94.1135C399.829 94.1135 399.829 94.1135 399.838 94.1135C399.773 93.8999 399.717 93.677 399.652 93.4634L399.662 93.4541Z" fill="#383838"/>
<path d="M478.951 36.659C478.951 36.659 482.499 13.458 462.837 4.99678C443.174 -3.483 410.751 7.66238 410.751 7.66238C410.751 7.66238 402.327 11.0617 393.42 22.0121C393.42 22.0121 377.38 38.6094 388.265 67.2623C388.265 67.2623 388.534 67.4109 388.98 67.6803C390.67 68.7019 394.915 71.4883 396.745 74.5718C397.079 75.1291 397.33 75.6957 397.469 76.2622C397.469 76.2622 397.451 78.4913 397.738 81.8721C397.785 82.3829 397.841 82.9309 397.896 83.4974C398.203 86.3766 398.742 89.8596 399.652 93.4447C399.708 93.6583 399.773 93.8812 399.838 94.0948C400.172 95.2651 400.534 96.4168 400.924 97.5499C401.036 95.971 402.15 79.3272 399.67 69.9836C399.512 69.3521 399.373 68.7391 399.262 68.1354C398.138 62.2655 399.169 56.9993 400.033 54.0272C408.726 53.5628 426.299 41.8694 426.299 41.8694C426.299 41.8694 424.079 46.6712 420.754 53.2284C435.057 54.9095 462.224 41.08 462.224 41.08C462.939 49.8569 468.92 56.0333 471.688 58.4575C472.078 61.3088 472.171 64.7546 471.4 68.3861C471.354 68.6555 471.289 68.9527 471.214 69.2499C468.818 79.1136 470.536 96.9741 470.536 96.9741C470.731 96.3703 470.908 95.7759 471.075 95.1722C471.112 95.0236 471.149 94.875 471.196 94.7264C471.252 94.5035 471.317 94.2806 471.372 94.0484C471.428 93.8441 471.484 93.6304 471.53 93.4261C471.725 92.6459 471.902 91.8565 472.069 91.0577C472.57 88.615 472.905 86.2838 473.118 84.2033C473.174 83.646 473.23 83.1073 473.267 82.5872C473.601 78.5749 473.509 75.8721 473.509 75.8721C473.592 75.7049 473.685 75.5378 473.787 75.3706C475.923 71.6833 481.775 67.8475 481.775 67.8475C481.775 67.8475 481.83 67.7453 481.923 67.5688C483.456 64.7453 492.614 40.8849 478.933 36.6497L478.951 36.659Z" fill="black"/>
<path d="M421.683 78.3704C421.683 74.6367 420.494 71.6089 419.036 71.6089C417.577 71.6089 416.389 74.6367 416.389 78.3704C416.389 82.1041 417.577 85.132 419.036 85.132C420.494 85.132 421.683 82.1041 421.683 78.3704Z" fill="black"/>
<path d="M449.769 71.5996C448.311 71.5996 447.122 74.6274 447.122 78.3611C447.122 82.0949 448.311 85.1227 449.769 85.1227C451.227 85.1227 452.416 82.0949 452.416 78.3611C452.416 74.6274 451.227 71.5996 449.769 71.5996Z" fill="black"/>
<g style="mix-blend-mode:multiply">
<path d="M410.779 87.4725C410.853 86.8316 409.32 86.1258 407.37 85.9121C405.42 85.6892 403.776 86.0329 403.701 86.683C403.627 87.3239 405.16 88.0298 407.11 88.2434C409.06 88.4663 410.704 88.1226 410.779 87.4725Z" fill="#E5B7AC"/>
</g>
<g style="mix-blend-mode:multiply">
<path d="M407.518 90.7606C405.577 91.095 404.101 91.8844 404.212 92.5253C404.323 93.1661 405.986 93.4076 407.918 93.0733C409.859 92.7389 411.336 91.9494 411.224 91.3086C411.113 90.6677 409.45 90.4262 407.518 90.7606Z" fill="#E5B7AC"/>
</g>
<g style="mix-blend-mode:multiply">
<path d="M460.654 89.8412C460.58 90.4821 462.113 91.188 464.063 91.4016C466.014 91.6245 467.657 91.2808 467.732 90.6307C467.806 89.9898 466.274 89.284 464.323 89.0703C462.373 88.8474 460.729 89.1911 460.654 89.8412Z" fill="#E5B7AC"/>
</g>
<g style="mix-blend-mode:multiply">
<path d="M460.208 86.0053C460.32 86.6461 461.982 86.8876 463.914 86.5532C465.855 86.2189 467.332 85.4294 467.22 84.7886C467.109 84.1477 465.446 83.9062 463.515 84.2406C461.573 84.5749 460.097 85.3644 460.208 86.0053Z" fill="#E5B7AC"/>
</g>
<g style="mix-blend-mode:multiply">
<path d="M436.041 95.6832C436.125 95.6832 436.209 95.6832 436.283 95.6832C438.772 95.6089 441.187 92.2281 442.078 87.482C442.144 87.1198 441.911 86.7669 441.54 86.7019C441.178 86.6369 440.825 86.8783 440.76 87.2406C439.905 91.7452 437.657 94.4572 436.116 94.3457C435.057 94.2807 433.831 92.7668 433.543 88.6895C432.856 79.0394 434.286 73.5317 434.305 73.476C434.397 73.1231 434.184 72.7516 433.831 72.6587C433.469 72.5565 433.106 72.7794 433.014 73.1324C432.949 73.3646 431.509 78.8908 432.215 88.7916C432.642 94.838 435.038 95.6275 436.051 95.6832H436.041Z" fill="#E5B7AC"/>
</g>
<g style="mix-blend-mode:multiply">
<path d="M451.682 96.9555C451.357 96.779 450.949 96.8904 450.772 97.2155C450.726 97.2898 446.388 104.915 436.905 105.203C427.385 105.482 421.228 98.1072 421.163 98.0329C420.93 97.7449 420.503 97.7078 420.215 97.94C419.927 98.1722 419.89 98.5994 420.122 98.878C420.392 99.2031 426.754 106.847 436.943 106.54C447.187 106.234 451.757 98.2093 451.942 97.8657C452.119 97.5406 452.007 97.1319 451.682 96.9555Z" fill="#E5B7AC"/>
</g>
<path d="M447.335 67.5874C450.15 66.4915 452.639 66.4079 454.747 67.3459C458.091 68.832 461.815 73.7731 462.02 73.6988C463.004 73.3366 461.184 66.0642 456.345 63.8816C453.27 62.4977 449.769 62.5534 445.961 64.0395C444.976 64.4203 444.493 65.5255 444.874 66.51C445.255 67.4945 446.36 67.9775 447.345 67.5967L447.335 67.5874Z" fill="black"/>
<path d="M407.194 74.2835C407.398 74.3485 410.798 69.2309 414.048 67.5312C416.092 66.4631 418.599 66.3888 421.488 67.3269C422.491 67.652 423.568 67.104 423.884 66.1009C424.209 65.0978 423.661 64.0204 422.658 63.7047C418.757 62.4508 415.265 62.5994 412.284 64.1598C407.584 66.621 406.191 73.9863 407.203 74.2928L407.194 74.2835Z" fill="black"/>
<path d="M376.544 225.285C376.423 223.121 376.265 221.013 376.014 218.942C375.894 217.799 375.764 216.685 375.643 215.57C375.643 215.477 375.615 215.412 375.615 215.357C375.058 210.991 374.342 206.849 373.479 202.911C372.856 200.125 372.178 197.431 371.435 194.896C365.185 172.791 355.646 160.224 355.646 160.224C355.646 160.224 347.77 161.84 336.745 202.734C323.445 252.146 318.746 288.294 318.746 288.294C318.746 288.294 323.863 277.984 326.306 281.291C327.588 283.018 329.092 285.052 330.708 287.235C338.222 297.368 355.08 294.786 355.08 294.786C364.739 279.842 369.374 268.502 375.559 246.006C376.321 237.415 376.794 231.805 376.794 231.48C376.767 229.372 376.674 227.329 376.544 225.285Z" fill="#283044"/>
<g style="mix-blend-mode:overlay" opacity="0.5">
<path d="M334.535 256.966L343.981 240.517L334.535 245.811L381.197 195.062L334.535 256.966Z" fill="white"/>
</g>
<path d="M387.671 190.159C387.671 190.159 380.38 177.128 385.869 167.775C388.441 164.366 400.479 164.45 404.138 166.716C407.807 168.982 402.615 174.769 395.76 174.072C395.76 174.072 406.256 183.741 394.237 196.855C389.528 196.92 387.661 190.168 387.661 190.168L387.671 190.159Z" fill="#E5B7AC"/>
<path d="M433.767 227.793C433.646 227.858 433.525 227.932 433.414 227.988C427.646 231.285 422.63 233.226 422.138 232.371C421.646 231.517 425.807 228.192 431.51 224.876C431.649 224.793 431.797 224.709 431.946 224.625C437.862 221.226 443.073 219.173 443.574 220.056C444.076 220.929 439.692 224.393 433.767 227.793Z" fill="#91562F"/>
<path d="M443.574 220.056L430.878 227.347L422.138 232.371L364.841 132.667L372.411 128.311L386.278 120.342L443.574 220.056Z" fill="#91562F"/>
<g style="mix-blend-mode:overlay" opacity="0.3">
<path d="M433.413 227.987C427.646 231.285 422.63 233.226 422.138 232.371L364.841 132.667L372.411 128.311L431.509 224.876L432.466 226.436L433.413 227.987Z" fill="black"/>
</g>
<path d="M386.278 120.342C386.779 121.215 382.386 124.689 376.47 128.088C370.553 131.487 365.343 133.54 364.841 132.658C364.34 131.784 368.733 128.311 374.649 124.912C380.566 121.512 385.776 119.46 386.278 120.342Z" fill="#91562F"/>
<g style="mix-blend-mode:overlay" opacity="0.5">
<path d="M386.278 120.342C386.779 121.215 382.386 124.689 376.47 128.088C370.553 131.487 365.343 133.54 364.841 132.658C364.34 131.784 368.733 128.311 374.649 124.912C380.566 121.512 385.776 119.46 386.278 120.342Z" fill="white"/>
</g>
<g style="mix-blend-mode:multiply" opacity="0.5">
<path d="M382.014 122.794C382.321 123.324 379.674 125.413 376.107 127.457C372.541 129.509 369.402 130.735 369.104 130.215C368.807 129.695 371.445 127.596 375.011 125.553C378.578 123.5 381.717 122.274 382.014 122.794Z" fill="#BA9363"/>
</g>
<path d="M397.293 169.502C397.488 168.862 398.826 166.855 399.095 166.215C399.132 166.103 399.169 166.029 399.169 166.029L397.72 166.001C400.275 161.756 403.674 159.295 405.383 158.181C409.061 155.543 412.906 156.323 414.058 161.849C416.612 162.416 418.999 163.205 419.733 167.979C423.281 168.156 424.014 171.109 423.949 174.769C425.305 177.276 426.513 180.044 426.318 181.456C425.76 185.022 422.454 187.196 418.795 189.258V189.276C418.795 189.276 418.711 189.323 418.562 189.397C418.247 189.564 417.977 189.676 417.689 189.796C416.25 190.419 413.761 191.31 412.34 190.716C410.268 189.843 411.764 187.038 411.708 186.991C411.652 186.945 408.587 188.431 406.646 187.651C404.705 186.871 405.411 182.561 405.411 182.561C405.411 182.561 403.247 183.917 401.389 183.091C399.541 182.255 401.008 178.233 400.711 177.926C400.414 177.936 397.841 179.635 396.272 178.159C395.157 177.109 395.083 173.403 397.293 169.512V169.502Z" fill="#E5B7AC"/>
<path d="M391.275 184.344L372.411 210.824L398.083 221.607L408.197 197.115L391.275 184.344Z" fill="#E5B7AC"/>
<path d="M405.42 200.31C406.841 200.384 414.439 198.462 418.581 194.719C422.212 190.985 423.271 186.156 423.271 186.156L402.662 166.02C402.662 166.02 406.321 160.921 402.299 161.71C396.727 164.441 386.594 178.242 388.126 183.109C392.046 192.23 400.46 199.744 405.42 200.31Z" fill="#E5B7AC"/>
<path d="M386.603 192.081C390.225 193.614 397.98 197.218 403.404 201.824C404.742 202.967 405.958 204.156 406.906 205.41L403.265 211.697C402.262 210.685 401.194 209.673 400.07 208.679C394.126 203.403 386.928 198.657 383.389 196.419C382.925 196.131 382.535 195.88 382.209 195.685L384.596 191.264C384.596 191.264 385.377 191.561 386.603 192.081Z" fill="white"/>
<path d="M381.197 195.063C381.197 195.063 381.569 195.285 382.209 195.676C382.534 195.88 382.925 196.121 383.389 196.409C386.937 198.648 394.126 203.394 400.07 208.669C401.194 209.663 402.262 210.675 403.265 211.688C404.352 212.793 405.355 213.908 406.218 215.003C406.218 215.003 365.287 296.3 341.176 308.151C332.705 311.374 324.523 306.098 324.523 306.098C306.244 294.303 330.978 261.684 330.978 261.684L381.206 195.044L381.197 195.063Z" fill="#283044"/>
<path d="M545.183 374.661L517.608 372.116L513.605 371.754L514.552 353.336L514.663 351.154L517.831 289.929C511.775 275.885 504.735 258.359 501.196 245.393C500.147 237.137 499.487 231.805 499.459 231.471C499.301 229.428 499.236 227.356 499.236 225.276C499.236 223.196 499.264 221.041 499.431 218.932C499.431 218.905 499.431 218.867 499.441 218.84C499.747 213.49 500.388 208.103 501.345 202.902C501.837 200.18 502.394 197.524 502.979 194.886C507.995 172.883 521.258 160.215 521.258 160.215C521.258 160.215 525.892 162.063 536.815 198.926C547.078 237.183 554.053 269.774 555.307 274.464C559.366 284.625 545.174 374.661 545.174 374.661H545.183Z" fill="#283044"/>
<path d="M487.71 47.3677C487.71 47.247 487.682 47.1355 487.636 47.0148L481.376 17.4795H390.365L383.25 46.9869C383.194 47.1076 383.157 47.2377 383.157 47.3677C383.157 47.3677 406.525 58.866 435.429 58.866C460.107 58.866 487.701 47.3677 487.701 47.3677H487.71Z" fill="#283044"/>
<path d="M533.703 10.9689L440.379 30.3897L334.656 15.6407L336.086 13.4859L433.19 0L532.263 8.81414L533.703 10.9689Z" fill="#283044"/>
<path d="M368.398 36.8355C368.38 36.3154 367.85 23.9626 368.863 19.0958C368.863 18.9565 369.179 13.7181 384.782 12.2135C401.844 10.0773 435.076 7.78322 435.41 7.76465L435.475 8.69343C435.141 8.71201 401.937 11.0061 384.884 13.1423C370.256 14.554 369.782 19.1701 369.782 19.2165C368.789 24.0462 369.327 36.6776 369.337 36.8077L368.408 36.8448L368.398 36.8355Z" fill="white"/>
<path d="M368.621 45.25L366.142 48.2221C366.142 48.2221 362.352 50.6462 364.785 62.8783C366.634 72.1568 364.767 82.8749 364.042 85.5034L367.219 84.6861L368.148 75.8998L368.621 85.5127L370.804 85.8563V72.1568L372.309 84.2681L375.206 84.6861C375.206 84.6861 373.2 74.7388 373.33 66.0547C373.47 57.3706 375.94 50.5998 368.621 45.2593V45.25Z" fill="#FEC442"/>
<path d="M371.763 42.7472L366.229 42.666L366.147 48.201L371.682 48.2821L371.763 42.7472Z" fill="#FF902C"/>
<g style="mix-blend-mode:overlay" opacity="0.5">
<path d="M533.703 10.9692L440.379 30.3901L334.656 15.641L336.086 13.4862L441.103 28.0588L532.263 8.81445L533.703 10.9692Z" fill="white"/>
</g>
<path d="M429.772 6.06494V8.48906C429.772 8.9163 432.308 9.25995 435.438 9.25995C438.568 9.25995 441.104 8.9163 441.104 8.48906V6.06494H429.772Z" fill="#FF902C"/>
<path d="M441.104 6.06483C441.104 6.49207 438.568 6.83572 435.438 6.83572C432.308 6.83572 429.772 6.49207 429.772 6.06483C429.772 5.63759 432.308 5.29395 435.438 5.29395C438.568 5.29395 441.104 5.63759 441.104 6.06483Z" fill="#FEC442"/>
<path d="M373.34 40.5781V40.6709C373.302 43.2344 371.194 45.287 368.621 45.2498C366.058 45.2127 364.015 43.0951 364.052 40.5316C364.052 40.3087 364.07 40.0858 364.107 39.8722C364.46 37.6245 366.42 35.9249 368.761 35.962C371.296 35.9992 373.321 38.0518 373.34 40.5781Z" fill="#FEC442"/>
<g style="mix-blend-mode:overlay" opacity="0.3">
<path d="M372.55 40.9216V40.9959C372.522 43.1228 370.767 44.8225 368.631 44.7946C366.504 44.7667 364.804 43.002 364.841 40.8751C364.841 40.6894 364.86 40.5036 364.888 40.3271C364.888 40.3271 365.9 42.6955 368.909 42.6955C370.934 42.6955 372.049 41.6182 372.55 40.9123V40.9216Z" fill="black"/>
</g>
</g>
<path d="M545.451 356.342H0V375.93H316.066H764V356.342H545.451Z" fill="#FF8600"/>
<path d="M733.999 366.391H286.065V450.204H733.999V366.391Z" fill="#FF8600"/>
<path d="M270.995 278.964C269.876 251.246 275.121 223.676 275.121 223.676L264.284 223.616L253.446 223.557C253.446 223.557 258.389 251.186 256.968 278.89C255.547 306.594 236.834 347.636 236.834 347.636L263.634 342.759L290.372 347.919C290.372 347.919 272.113 306.668 270.995 278.964Z" fill="#FEC442"/>
<g style="mix-blend-mode:overlay" opacity="0.3">
<path d="M266.564 305.508C265.763 285.626 265.294 218.456 265.294 218.456C265.294 218.456 262.287 285.581 261.259 305.463C260.231 325.33 242.062 354.774 242.062 354.774L261.289 351.279L280.47 354.982C280.47 354.982 267.38 325.39 266.564 305.523V305.508Z" fill="black"/>
</g>
<path d="M222.201 365.555L304.503 365.986L301.798 348.692C300.498 340.349 293.212 334.178 284.642 334.133L242.425 333.91C233.84 333.866 226.494 339.963 225.103 348.29L222.216 365.555H222.201Z" fill="#91562F"/>
<g style="mix-blend-mode:overlay" opacity="0.3">
<path d="M288.845 342.045H234.174V351.488H288.845V342.045Z" fill="black"/>
</g>
<g style="mix-blend-mode:overlay" opacity="0.3">
<path d="M279.261 355.547H243.74V359.994H279.261V355.547Z" fill="black"/>
</g>
<path d="M241.066 215.318L235.413 246.725L264.192 232.018L292.805 247.022L287.499 215.556L310.807 193.429L278.778 188.685L264.585 160L250.074 188.522L218 192.938L241.066 215.318Z" fill="#EEC839"/>
<g style="mix-blend-mode:overlay" opacity="0.6">
<path d="M241.066 215.318L235.413 246.725L264.192 232.018L292.805 247.022L287.499 215.556L310.807 193.429L278.778 188.685L264.585 160L250.074 188.522L218 192.938L241.066 215.318Z" fill="black"/>
</g>
<path d="M246.78 213.891L242.472 237.832L264.419 226.62L286.246 238.07L282.195 214.069L299.97 197.206L275.544 193.578L264.722 171.703L253.657 193.459L229.201 196.819L246.78 213.891Z" fill="#EEC839"/>
<g style="mix-blend-mode:overlay" opacity="0.4">
<path d="M264.722 171.703L264.526 210.411L275.545 193.578L264.722 171.703Z" fill="white"/>
<path d="M299.971 197.207L264.526 210.412L282.195 214.07L299.971 197.207Z" fill="white"/>
<path d="M264.419 226.62L264.525 210.411L286.246 238.07L264.419 226.62Z" fill="white"/>
<path d="M242.472 237.832L264.525 210.411L246.78 213.891L242.472 237.832Z" fill="white"/>
<path d="M229.201 196.819L264.525 210.411L253.658 193.458L229.201 196.819Z" fill="white"/>
</g>
<path d="M554.225 257.565L511.837 351.372L540.769 356.276L594.044 356.249L594.259 264.271L554.225 257.565Z" fill="#DB2955"/>
<g style="mix-blend-mode:overlay" opacity="0.4">
<path d="M583.074 262.46L569.569 292.358L550.96 333.568L540.703 356.276L511.854 351.372L522.542 327.707L541.151 286.497L554.225 257.565L583.074 262.46Z" fill="white"/>
</g>
<g style="mix-blend-mode:overlay" opacity="0.3">
<path d="M569.57 292.358L550.961 333.568L522.542 327.707L541.151 286.497L569.57 292.358Z" fill="white"/>
</g>
<path d="M594.371 246.375L594.165 356.277L700.78 356.34L700.985 246.437L594.371 246.375Z" fill="#FF902C"/>
<g style="mix-blend-mode:overlay" opacity="0.4">
<path d="M624.269 246.365L624.219 263.705L624.186 278.751L624.054 328.023L624.02 343.07L623.987 356.277L594.044 356.249L594.078 343.07L594.111 328.023L594.243 278.751L594.276 263.705L594.326 246.337L624.269 246.365Z" fill="white"/>
</g>
<g style="mix-blend-mode:overlay" opacity="0.4">
<path d="M624.219 263.705L624.186 278.751H594.243L594.276 263.705H624.219Z" fill="white"/>
</g>
<g style="mix-blend-mode:overlay" opacity="0.4">
<path d="M624.054 328.023L624.021 343.07H594.078L594.111 328.023H624.054Z" fill="white"/>
</g>
<path d="M636.724 277.118L636.565 356.241L685.962 356.278L686.121 277.155L636.724 277.118Z" fill="#1B6FA1"/>
<g style="mix-blend-mode:overlay" opacity="0.4">
<path d="M636.74 277.115L636.571 356.238L666.514 356.259L666.682 277.136L636.74 277.115Z" fill="white"/>
</g>
<g style="mix-blend-mode:overlay" opacity="0.4">
<path d="M646.786 303.421L646.711 338.008L656.471 338.015L656.546 303.427L646.786 303.421Z" fill="white"/>
</g>
<path d="M733.999 258.959L733.966 273.234L733.9 300.865L733.767 356.295L676.102 356.248L676.334 258.903L733.999 258.959Z" fill="#41AE9B"/>
<g style="mix-blend-mode:overlay" opacity="0.4">
<path d="M733.967 273.234L733.9 300.865H715.126V273.234H733.967Z" fill="white"/>
</g>
<g style="mix-blend-mode:overlay" opacity="0.3">
<path d="M706.277 258.931L706.228 278.769L706.079 341.982L706.045 356.276L676.086 356.248L676.119 341.955L676.285 278.742L676.334 258.903L706.277 258.931Z" fill="black"/>
</g>
<g style="mix-blend-mode:overlay" opacity="0.3">
<path d="M706.227 278.77L706.078 341.982L676.118 341.955L676.284 278.742L706.227 278.77Z" fill="black"/>
</g>
<path d="M515.451 366.391H44.6006V450.204H515.451V366.391Z" fill="#FF8600"/>
<g style="mix-blend-mode:overlay" opacity="0.3">
<path d="M515.451 368.62H286.066H44.6006V450.204H286.066H515.451H734V368.62H515.451Z" fill="black"/>
</g>
<path d="M515.451 368.62H51.3447L56.5644 450.204H286.066H734V368.62H515.451Z" fill="#FF8600"/>
<path d="M50.782 450.204H22.9767L16.9616 375.929L16.7959 373.979H44.6012L44.7669 375.929L50.782 450.204Z" fill="#FF8600"/>
<path d="M728 450H750.09L754.868 375.945L755 374H732.91L732.779 375.945L728 450Z" fill="#FF8600"/>
<g style="mix-blend-mode:overlay" opacity="0.3">
<path d="M316.066 368.62H0V375.929H316.066H764V368.62H316.066Z" fill="black"/>
</g>
<path d="M31.591 349.169C31.591 349.169 18.5348 327.518 26.3852 303.793C34.2355 280.068 24.029 261 24.029 261C24.029 261 40.1178 276.517 40.5447 298.391C40.966 320.266 27.4275 323.567 34.9784 350.081L31.5966 349.169H31.591Z" fill="#41AE9B"/>
<g style="mix-blend-mode:overlay" opacity="0.3">
<path d="M31.591 349.169C31.591 349.169 18.5348 327.518 26.3852 303.793C34.2355 280.068 24.029 261 24.029 261C24.029 261 40.1178 276.517 40.5447 298.391C40.966 320.266 27.4275 323.567 34.9784 350.081L31.5966 349.169H31.591Z" fill="black"/>
</g>
<path d="M26.0138 350.721C26.0138 350.721 36.0374 323.015 22.8537 305.53C9.66998 288.04 15.6742 270.51 15.6742 270.51C15.6742 270.51 0.988026 295.884 15.1863 315.241C29.3846 334.599 22.6375 354.803 22.6375 354.803L26.0138 350.721Z" fill="#41AE9B"/>
<path d="M40.4556 351.116C40.4556 351.116 38.0883 327.308 48.3503 310.914C58.6123 294.52 50.7176 276.956 46.931 272.663C46.931 272.663 50.4958 286.518 41.4535 295.3C32.4057 304.083 31.1472 327.698 38.2491 350.432L40.4611 351.116H40.4556Z" fill="#41AE9B"/>
<path d="M45.6008 349.261L45.3402 351.168L45.1295 352.707L45.1129 352.847L45.0741 353.15L44.3423 358.464H18.3907L17.6533 353.15L17.3817 351.168L17.3706 351.089L17.1211 349.261H45.6008Z" fill="#91562F"/>
<g style="mix-blend-mode:overlay" opacity="0.3">
<path d="M45.606 349.256L45.3454 351.172L45.1292 352.707L45.1126 352.852L45.0738 353.15L44.342 358.468H33.0931C34.8284 356.386 35.4882 354.312 35.7321 353.15H17.6585L17.3813 351.172L17.3703 351.093L17.1152 349.261H45.606V349.256Z" fill="black"/>
</g>
<path d="M47.9515 351.168H14.4656L13.4565 342.693H48.955L47.9515 351.168Z" fill="#91562F"/>
<path d="M718 450H727L728.946 375.945L729 374H720L719.947 375.945L718 450Z" fill="#FF6200"/>
<defs>
<clipPath id="clip0_199_834">
<rect width="514.462" height="436.583" fill="white" transform="translate(174.692)"/>
</clipPath>
</defs>
</svg>
